<?xml version="1.0" encoding="utf-8"?>
<!-- Generator: Adobe Illustrator 18.1.1, SVG Export Plug-In . SVG Version: 6.00 Build 0)  -->
<svg version="1.1" id="Layer_1" xmlns="http://www.w3.org/2000/svg" xmlns:xlink="http://www.w3.org/1999/xlink" x="0px" y="0px"
	 viewBox="0 0 64.9 22.4" enable-background="new 0 0 64.9 22.4" xml:space="preserve">
<g>
	<path  fill="#fff" d="M45.2,10c-0.1-0.5-0.1-1.1,0.1-1.7c0.4-1.4,0.4-2.7,0.5-4.1C45.9,3.6,45.9,3,46,2.4c0.1-0.4,0.3-0.7,0.6-1
		c1.1-0.7,1.1-0.7,2.4-0.6c0.5,0,1,0,1.5,0c0.4,0.1,0.9,0.2,1.3,0.3c0.5,0.2,1,0.3,1.5,0.3c0.6,0,1.2,0.1,1.7,0.2
		c0.7,0.1,1.4,0.1,2.2,0.2c0.9,0.1,1.8,0.2,2.7,0.6c0.5,0.7,0.2,1.5,0.2,2.2c-0.4,0.3-0.9,0.6-1.3,0.9c-0.7,0.2-1.3,0-1.8-0.3
		c-0.7-0.4-1.4-0.5-2.1-0.6c-0.8-0.1-1.6-0.2-2.4-0.3c-0.5-0.1-0.9,0.1-1.4,0.2c-0.4,0.1-0.7,0.3-1.1,0.5c-0.6,0.7-0.5,1.5-0.2,2.3
		c0.6,0,1.1,0,1.6,0c1-0.1,2-0.3,2.9-0.4c0.5-0.1,1-0.2,1.5-0.1c1-0.2,2,0,2.9,0.1c2.2,0.1,4.1,0.8,6,1.8c0.5,1.3,0.1,2.4-0.7,3.4
		c-0.7,0.9-1.6,1.7-2.6,2.3c-2.7,1.7-5.7,2.4-8.9,2.3c-2,0-3.8-0.4-5.6-1.3c-0.6-0.3-1-0.6-1-1.4c0.2-0.4,0.5-0.6,1-0.6
		c1.1,0.1,2.2,0.1,3.2,0.5c0.3,0.1,0.7,0.2,1.1,0.3c2.7,0.3,5.2-0.2,7.5-1.7c0.4-0.3,0.8-0.6,1.2-0.9c0.2-0.2,0.4-0.4,0.5-0.6
		c0.4-0.6,0.2-1.1-0.5-1.3c-1.5-0.4-3-0.6-4.6-0.3C54.7,9.9,54,9.9,53.3,10c-0.9,0.1-1.8,0.3-2.7,0.5c-0.4,0.1-0.7,0.3-1,0.5
		c-0.2,0.2-0.5,0.4-0.8,0.6c-0.5,0.3-1,0.3-1.6,0.1C46.5,11.4,45.7,11.1,45.2,10z"/>
	<path  fill="#fff" d="M38.1,5.8c-0.5-0.3-0.9-0.4-1.3-0.4c-1.4,0-2.8-0.1-4.2-0.1c-0.3,0-0.5-0.1-0.8-0.1c-0.4,0-0.7,0-1,0.4
		c0.1,0.7,0.2,1.3,0.4,2c-0.4,1.4-0.9,1.7-2.6,1.7c-0.1-0.1-0.2-0.1-0.4-0.2c-0.7-0.3-1.2-0.8-1.4-1.6c-0.2-0.5-0.5-1.1-0.8-1.6
		c-0.7-1.1-0.9-2.2-0.9-3.4c0.6-0.7,1.3-1,2.2-0.8c0.5,0.1,1.1,0.1,1.6,0.2c0.2,0,0.4,0,0.5,0.1c1.7,0.6,3.5,0.5,5.3,0.5
		c0.7,0,1.5,0,2.2,0c0.3,0,0.7,0,1-0.3c0.3-0.6,0.4-1.3,1.1-1.8c0.8-0.2,1.6,0,2.4,0.1c0.5,0,0.8,0.4,1.2,0.7c0.1,0.4,0.2,0.7,0.3,1
		c0.5,1,0.5,1,0.4,2.1c-0.2,0.5-0.5,0.9-0.9,1.2C42.2,5.9,42,6.3,42,6.8c-0.3,2.2-0.7,4.5-0.8,6.8c0,0.4,0,0.7,0.1,1.1
		c0,0.2,0,0.4,0.1,0.7c0.1,0.4-0.1,0.8-0.5,1c-0.3,0.2-0.5,0.4-0.8,0.7c-0.2,0-0.4-0.1-0.7-0.1c-0.7,0.1-1.2-0.2-1.7-0.6
		c-0.5-0.3-0.7-0.7-0.7-1.3c0-0.2,0-0.4,0-0.5c0.5-1.9,0.5-3.9,1-5.8c0.2-0.7,0.2-1.5,0.3-2.3C38.2,6.2,38.2,6,38.1,5.8z"/>
	<path  fill="#fff" d="M14.5,5.4c0.3-0.1,0.6-0.2,0.9-0.2c0.9-0.1,1.7-0.6,2.2-1.3c0.5-0.6,1-0.9,1.7-1.1c0.5-0.1,0.9-0.2,1.4-0.4
		c0.7,0.2,1.4,0.5,2,0.7c0.5,0.4,0.6,0.9,0.6,1.4c0,1.4-0.1,2.8-0.1,4.2c0,1.7,0.2,3.5,0.3,5.2c0,0.5,0.1,1,0.5,1.3
		c1.1,0,2.1-0.2,3.1-0.6c1-0.3,1.9-0.1,2.9,0.2c0.3,0.1,0.5,0.4,0.5,0.7c0,0.3-0.1,0.6-0.1,0.9c-0.5,0.5-1.1,0.8-1.8,0.9
		c-1.7,0.2-3.3,0.5-5,0.7c-1.3,0.2-2.6,0.1-3.9,0.1c-1.2-0.1-2.5-0.2-3.7-0.3c-1-0.1-2-0.3-2.8-0.9c-0.1-0.1-0.2-0.2-0.4-0.3
		c0-0.3-0.1-0.6-0.1-0.9c0.2-0.3,0.4-0.4,0.7-0.4c1.2,0.1,2.3,0.2,3.5,0.3c0.7,0,1.3,0.1,2,0c0.2,0,0.5-0.1,0.7-0.2
		c0.3-1.3,0.2-6.3-0.2-7.6c-0.3-0.1-0.6,0.1-0.9,0.2c-0.6,0.2-1.1,0.5-1.7,0.7c-1.5,0.5-2.7-0.7-3-1.8c-0.1-0.4,0-0.7,0.2-1.1
		C14.1,5.9,14.3,5.7,14.5,5.4z"/>
	<path  fill="#fff" d="M9.5,9.6c-0.7,0.2-1.3,0.3-2-0.1C7.2,9.4,6.9,9.4,6.5,9.3c-0.2,0.5-0.2,0.5-0.1,1.1c0.5,0.4,1,0.9,1.5,1.4
		c0.7,0.7,1.3,1.6,1.7,2.6c0.4,0.9,0.3,1.9-0.1,2.8c-0.4,0.9-1,1.6-2.1,1.7c-0.3,0-0.5,0.1-0.8,0.2c0,0.2-0.1,0.5-0.1,0.7
		c0.1,0.5,0.2,1,0.4,1.6c-0.2,0.3-0.4,0.7-0.6,1c-0.6,0.2-1.1,0.1-1.6-0.1c-0.6-0.3-1.2-0.7-1.7-1c0-0.8,0.1-1.6,0.1-2.3
		c0-0.6-0.1-1-0.5-1.4c-0.4-0.4-0.8-0.8-1.1-1.2C1.3,15.8,1.2,15.4,1,15c0.2-0.2,0.3-0.4,0.4-0.6c0.6,0,0.9,0.5,1.3,0.6
		c0.1-0.1,0.2-0.1,0.2-0.1c0-0.9,0-1.8,0-2.8c0-0.8-0.3-1.3-1-1.7c-0.4-0.2-0.7-0.4-1.1-0.5C0.1,8.7,0,8.3,0,7.1
		C0.4,6.5,1,6.2,1.6,6C2.1,5.8,2.5,5.7,3,5.5C3,4.6,3.1,3.8,3.1,3c0-0.5,0-1,0.1-1.4C3.3,1,3.5,0.6,4.2,0c1,0.1,1.5,0.7,2.1,1.4
		c0.3,1.3,0,2.7,0.2,4c0.5,0.5,1.2,0.8,1.8,1.1C8.6,6.7,9,7,9.3,7.3C10.1,8.1,10.1,8.6,9.5,9.6z"/>
</g>
</svg>
