<?xml version="1.0" encoding="utf-8"?>
<!-- Generator: Adobe Illustrator 18.1.1, SVG Export Plug-In . SVG Version: 6.00 Build 0)  -->
<svg version="1.1" id="Layer_1" xmlns="http://www.w3.org/2000/svg" xmlns:xlink="http://www.w3.org/1999/xlink" x="0px" y="0px"
	 viewBox="0 0 43.6 24.6" enable-background="new 0 0 43.6 24.6" xml:space="preserve">
<g>
	<path fill="#fff" d="M25.9,19.3c-0.2-0.4-0.3-0.8-0.5-1.2c-0.2-0.6-0.7-1-1.3-1.1c-1.6-0.2-3.2-0.3-4.7,0.4c-0.1,0.1-0.3,0.2-0.4,0.2
		c-1.2,0-2.1,0.8-3.1,1.1c-0.3,0.1-0.5,0.4-0.8,0.6c-0.7,0.1-1.4,0-2.1-0.3c-1.1-0.3-1.5-1-1.5-2.1c0-0.3,0-0.6-0.1-0.9
		c0.4-0.5,0.6-1,0.6-1.7c0-0.4,0.2-0.7,0.3-1.1c0.6-1.1,1-2.2,1.1-3.5c0.1-1.1,0.3-2.2,0.5-3.3c0-0.2,0.1-0.4,0.1-0.6
		c0-0.4,0.1-0.8,0.3-1.2c0.1-0.2,0.1-0.5,0.2-0.8C14.6,3,15.1,2.7,16,2.9C16.3,3,16.7,3.2,17,3.3c0.6,0.3,1.2,0.6,1.9,0.9
		c0.4,0.2,0.9,0.4,1.4,0.5c1.5,0.4,3,0.8,4.5,1.1c0.6,0.2,1.1,0.5,1.5,1c0.2,0.2,0.3,0.4,0.5,0.6c0.4,0.4,0.4,0.9,0.1,1.3
		c-0.1,0.1-0.1,0.2-0.2,0.4c-1,0.5-2,0.3-3-0.1c-1.5-0.6-3-1-4.6-1.1c-0.4,0-0.8,0-1.1,0.1c-0.3,0.2-0.4,0.5-0.4,0.8
		c-0.1,1.2-0.1,2.4-0.2,3.6c0,0.3,0,0.6,0,0.8c0.4,0.4,0.9,0.4,1.3,0.3c0.4-0.1,0.9-0.2,1.3-0.3c1.4-0.4,1.4-0.4,2.8-0.1
		c0.4,0.1,0.8,0.1,1.2,0.2c1,0.1,1.9,0.3,2.7,1c0.7,0.6,1.5,1.1,2.2,1.7c0.4-0.8,0.3-1.6,0.4-2.4c0.1-0.5,0.2-1,0.4-1.5
		c0.4-0.8,0.7-1.6,1.1-2.4C31.3,8.7,32.1,8,33,7.4c0.4-0.3,1-0.6,1.4-0.9C35,6,35.6,5.9,36.3,6c0.7,0.1,1.4,0.3,2.1,0.6
		C39,6.9,39.5,7.3,40,7.7c0.7,0.7,1.3,1.3,1.8,2.1c0,0.5,0,1-0.1,1.4c0.6,1,1.1,1.9,1.5,2.9c0.7,2.2,0.7,4.3-0.3,6.4
		c-0.3,0.6-0.6,1.1-0.9,1.6c-0.3,0.5-0.8,1-1.4,1.2c-1.1,0.5-2.3,1-3.5,0.9c-1,0-2-0.2-2.9-0.8c-0.7-0.4-1.5-0.8-2.3-1.1
		c-0.4-0.1-0.7-0.3-1-0.6c-0.3-0.2-0.5-0.4-0.9-0.7c-0.1,0.1-0.2,0.2-0.3,0.3c-0.6,1.2-1.7,1.9-2.9,2.2c-1.4,0.4-2.9,0.8-4.4,0.7
		c-1.8,0-3.6-0.3-5.3-0.9c-0.1,0-0.3-0.1-0.4-0.2c-0.9-0.6-1.7-1.2-2.6-1.8C14,21.4,14,21,13.9,20.6c0.2-0.3,0.4-0.6,0.6-0.9
		c0.2,0.1,0.4,0.1,0.5,0.2c1.2,0.9,2.6,1.4,4,1.7c1.5,0.4,3,0.3,4.4-0.2c0.2-0.1,0.3-0.1,0.5-0.2C25.1,21,25.5,20.6,25.9,19.3z
		 M36.2,10.4c-0.4,0.1-0.9,0.1-1.3,0.5c-0.9,1-1.5,2-1.8,3.3c-0.2,1-0.3,2.1-0.2,3.1c0,0.8,0.3,1.5,0.6,2.2c0.4,0.7,1.8,1.5,2.8,1.5
		c1.8,0,2.8-0.9,3.1-2.6c0.2-1.2-0.1-2.3-0.6-3.4c-0.3-0.7-0.7-1.4-1.1-2.1c-0.3-0.5-0.6-1.1-0.8-1.7C36.8,10.8,36.6,10.5,36.2,10.4
		z"/>
	<path fill="#fff" d="M9,9.1C8.3,9.3,7.7,9.4,7.1,9.1C6.8,8.9,6.5,8.9,6.2,8.8C6,9.3,6,9.3,6.1,9.9c0.5,0.4,1,0.8,1.4,1.3
		c0.7,0.7,1.2,1.5,1.6,2.4c0.3,0.9,0.3,1.8-0.1,2.7c-0.4,0.9-1,1.5-2,1.6c-0.2,0-0.5,0.1-0.8,0.1c0,0.2-0.1,0.4-0.1,0.6
		c0.1,0.5,0.2,1,0.4,1.5c-0.2,0.3-0.4,0.7-0.5,1C5.5,21.3,5,21.2,4.5,21c-0.6-0.3-1.1-0.6-1.7-0.9c0-0.8,0.1-1.5,0.1-2.2
		c0-0.5-0.1-1-0.5-1.3c-0.4-0.4-0.7-0.8-1.1-1.1C1.3,15,1.1,14.6,1,14.2c0.1-0.2,0.3-0.4,0.4-0.6c0.6,0,0.8,0.4,1.3,0.6
		c0.1-0.1,0.1-0.1,0.1-0.1c0-0.9,0-1.7,0-2.6c0-0.8-0.3-1.3-1-1.6c-0.3-0.2-0.7-0.3-1-0.5C0.1,8.3,0,7.9,0,6.7
		c0.4-0.5,0.9-0.8,1.5-1c0.4-0.2,0.8-0.3,1.3-0.5c0-0.8,0.1-1.6,0.1-2.3C3,2.4,3,2,3.1,1.5C3.1,0.9,3.3,0.6,4,0
		c0.9,0.1,1.4,0.7,2,1.3c0.3,1.3,0,2.5,0.2,3.8c0.5,0.5,1.1,0.7,1.7,1C8.2,6.4,8.6,6.6,8.9,7C9.6,7.7,9.6,8.1,9,9.1z"/>
</g>
</svg>
