<?xml version="1.0" encoding="utf-8"?>
<!-- Generator: Adobe Illustrator 18.1.1, SVG Export Plug-In . SVG Version: 6.00 Build 0)  -->
<svg version="1.1" id="Layer_1" xmlns="http://www.w3.org/2000/svg" xmlns:xlink="http://www.w3.org/1999/xlink" x="0px" y="0px"
	 viewBox="0 0 379.5 95" enable-background="new 0 0 379.5 95" xml:space="preserve">
<g>
	<path d="M39.1,73.4c1,0.6,2.1,0.9,3.2,1.1c2.8,0.6,5.5,1.1,8.3,1.5c1.6,0.2,3,0.7,4.3,1.7c0.1,0.1,0.3,0.1,0.5,0.2
		c0.4-0.5,0.2-1-0.1-1.4c-0.2-0.3-0.5-0.5-0.7-0.8c-1.2-1.1-1.1-2.4-0.6-3.8c0.6-0.2,1.2-0.5,1.7-0.7c0-0.5-0.4-0.6-0.7-0.7
		c-1.4-0.5-1.9-0.8-2.9-2c-0.3-0.9-0.1-1.9,0-2.8c0.7-1,1.8-1.3,2.8-1.6c1.5-0.5,3.1-0.9,4.7-1.1c2.2-0.3,4.3-0.8,6.4-1.3
		c2.1-0.5,4.2-1.1,6.3-1.8c0.9-0.3,1.7-0.3,2.5,0c0.9,0.3,1.8,0.6,2.6,0.9c0.9,0.4,1.3,1,1.1,1.9C78.5,63.5,78,64,77,64.2
		c-0.6,0.1-1.2,0.1-1.7,0c-0.7-0.1-1.4,0-2,0.2c-2.8,0.8-5.6,1.6-8.4,2.5c-0.6,0.2-1.1,0.6-1.5,0.8c-0.9,2.5-0.9,2.5-0.8,4
		c0.7,0.2,1.4,0.3,2.1,0.2c2-0.3,4-0.6,6-0.9c0.8-0.1,1.6-0.2,2.4-0.3c0.6-0.1,1.1-0.2,1.8-0.2c0.8,0.3,1.6,0.7,2.5,1
		c0.2,0.1,0.3,0.2,0.6,1c-0.4,0.6-1,0.8-1.7,1c-3.4,1.2-6.8,2-10.4,2.4c-1.3,0.2-2.6,0.3-4,0.5c-0.4,1.3-0.3,2.4-0.1,3.5
		c0.6,0.6,1.2,0.7,1.8,0.8c2,0.3,3.9,0.2,5.8-0.2c1.7-0.3,3.4-0.7,5.1-1c0.8-0.1,1.6,0,2.4,0.2c0.9,0.3,1.7,0.7,2.5,1
		c0.2,0.1,0.4,0.2,0.6,0.3c0.2,0.7,0,1.3-0.2,1.9c-0.8,0.9-1.8,1.2-2.9,1.1c-0.5,0-1,0.1-1.5,0.1c-0.3,0-0.6,0.1-0.8,0.1
		c-3.7,0.3-7.3,0.6-11,0.9c-0.9,0.1-1.7,0.1-2.5,0.3c-1.8,0.3-3.6,0.2-5.1-1.2c-0.6-0.6-0.9-1.1-1-1.9c-0.1-0.7-0.1-1.5-0.1-2.2
		c-0.2-0.1-0.4-0.2-0.5-0.2c-1.3-0.1-2.6-0.3-3.9-0.4c-0.5,0-0.9-0.1-1.4-0.2c-2.2-0.4-4.4-0.8-6.6-1.2c-1.3-0.2-2.6-0.4-3.9-0.9
		c-0.9-0.3-1.9-0.4-3-0.5c0.1,0.6,0.4,1,0.8,1.3c0.7,0.7,1.4,1.5,2,2.2c0.2,1.2-0.1,2-0.9,2.8c-1,0.9-2,0.9-3.2,0.5
		c-0.7-0.5-1.4-1-2-1.5c-0.6-0.6-1-1.2-1.5-1.9c-1.5-2.1-2.5-4.5-3-7.1c-0.3-1.3-0.6-2.7-0.9-4c-0.3-1-0.7-2.1-1.1-3.1
		c-1.2-0.9-1.7-2.3-2.3-3.5c0.2-0.5,0.4-0.9,0.6-1.3c0.3-0.6,0.8-0.9,1.5-1c1.9-0.2,3.8-0.3,5.6-0.3c2-0.1,4-0.1,6-0.4
		c1.7-0.3,3.4-0.4,5.1-0.5c1.3,0,2.6,0.1,3.9,0.2c1.6,0.1,2.9,1,4.2,1.9c0.8,0.5,0.9,1.3,0.7,2.1c-0.2,0.7-0.5,1.4-1.1,1.9
		c-1.2,1-2.4,2-3.6,2.9c-2.1,1.5-4.2,2.8-6.3,4.3C39.5,72.8,39.4,73.1,39.1,73.4z M43.1,63.7c-0.5,0-1-0.1-1.3-0.1
		c-0.6,0.1-1.2,0.1-1.9,0.2c-1.8,0.1-3.6,0.3-5.3,0.5c-0.5,0-1,0.2-1.4,0.6c-0.8,1.8-1.1,3.7-0.1,5.7c0.4-0.2,0.8-0.3,1.1-0.5
		c2.5-1.6,4.9-3.2,7.4-4.8C42.2,64.8,42.7,64.3,43.1,63.7z"/>
	<path d="M119.5,79.8c-0.9-0.6-1.9-1.2-2.9-1.9c-0.5-1-0.8-2.1-0.7-3.2c0.1-0.9-0.4-1.7-0.6-2.5c-0.4-1.4-1.2-2.6-2-3.7
		c-0.5,0-0.6,0.3-0.7,0.6c-0.4,1.2-0.8,2.4-1.3,3.6c-0.6,1.5-1.2,3-1.8,4.5c-0.1,0.2-0.1,0.4-0.2,0.6c-0.7,1.3-0.8,2.7-1,4.2
		c-0.1,1.1-0.3,2.3-1.2,3.3c-0.4,0.2-0.9,0.3-1.4,0.5c-1.1,0.5-2,0.1-2.8-0.5c-0.9-0.6-1.5-1.6-1.9-2.6c-0.3-0.8-0.4-1.6,0.2-2.4
		c0.4-0.6,0.6-1.2,1.1-1.7c0.4-0.4,0.6-1,0.8-1.5c1.3-3.1,2.6-6.3,3.8-9.4c0.4-1.1,0.7-2.3,1-3.5c0.1-0.4,0.2-1,0-1.4
		c-0.4-1.2-0.1-2.3,0.1-3.4c0.2-0.8,0.7-1.4,1.6-1.8c0.5,0,1,0.1,1.6,0.2c0.3,0,0.7,0.2,1,0.1c1.2-0.2,2.1,0.2,3.1,1
		c0.6,1,1,2.1,1.3,3.3c0.3,1.1,0.7,2.1,1.2,3c0.7,1.3,1.3,2.5,2,3.8c0.2,0.4,0.4,0.7,0.6,1c0.6,0.1,0.8-0.3,1-0.6
		c2.5-3.2,5.5-5.9,8.3-8.8c0.6-0.7,1.2-1.4,1.8-2.1c0.8-0.9,1.7-1.2,2.9-0.8c1,0.3,2.1,0.5,3.4,0.8c0,0,0.3,0.3,0.6,0.6
		c-0.2,1.2-0.3,2.5-0.5,3.7c-0.3,2.6-0.7,5.2-0.9,7.9c-0.2,3.6-0.2,7.2-0.3,10.9c0,0.2,0,0.3,0,0.5c0.1,2.6,0.2,3.1,1.7,5.1
		c0,0.9-0.4,1.7-0.9,2.5c-0.4,0.6-0.9,0.9-1.6,1c-1.7,0.2-3.1-0.2-4.1-1.7c-0.3-0.5-0.5-1-0.6-1.6c-0.1-1.9-0.3-3.9-0.4-5.8
		c-0.1-1.6,0-3.1,0-4.7c0.1-3.3,0.3-6.6,0.4-10c-0.2,0-0.4-0.1-0.5,0c-2.1,2.2-4,4.4-5.8,6.8c-0.7,1-1.1,2-1.4,3.1
		c-0.1,0.3-0.1,0.7-0.3,1c-0.4,1-1.1,1.7-2.3,1.9C120.8,79.6,120.2,79.7,119.5,79.8z"/>
	<path d="M31.5,20.5c0.2,0.9,0.1,1.6-0.2,2.4c-0.2,0.5-0.2,1-0.1,1.5c0.5,1.6,1,3.2,1.5,4.8c0.2,0.6,0.6,1.2,0.9,1.8
		c0.2,0.4,0.4,0.7,0.6,1.1c0.3,0.8,0.5,1.7,0,2.5c-0.2,0.3-0.3,0.6-0.4,1c-0.7,0.2-1.4,0.4-2,0.6c-1.4,0-2.2-0.8-3.1-1.4
		c-0.4-0.6-0.7-1.3-0.8-2.1c-0.3-2.5-1.2-4.9-1.9-7.3c-0.1-0.5-0.3-0.9-0.9-1c-1,0.2-2.1,0.5-3.1,0.7c-1,0.2-2,0.3-3,0.5
		c-0.5,0.6-0.5,1.2-0.6,1.7c-0.3,2.2-0.6,4.3-0.9,6.5c-0.2,1.5-0.3,3-0.4,4.5c0,0.8-0.5,1.5-0.7,2.4c-0.5,0.2-1,0.4-1.6,0.6
		c-0.6-0.2-1.2-0.3-1.7-0.5c-0.7-0.5-1.2-1-1.9-1.5c-0.1-0.7-0.2-1.5-0.2-2.1c0.3-1.2,0.7-2.1,0.9-3.2c0.5-2.5,0.8-5.1,1.2-7.7
		c-0.8-0.2-1.5-0.4-2.1-0.6c-0.3-1-0.3-1,0.1-2.2c0.7-0.6,1.4-1.3,2.5-1.3c0.2-0.9,0.3-1.7,0.5-2.5c0.4-2.5,0.7-5,1-7.5
		c0.3-1.7,0.5-3.4,0.9-5.1C16.5,4.9,16.7,3,16.7,1c0.5-0.6,1-1.1,1.9-0.9C19,0.3,19.4,0.1,19.8,0c0.8-0.1,1.5-0.1,2.1,0.4
		c0.2,0.2,0.5,0.3,0.8,0.4c1,0.3,1.4,1.1,1.7,2c0.7,3.3,2.1,6.5,3.2,9.6c0.6,1.6,1,3.2,1.6,4.7c0.3,0.8,0.5,1.5,0.8,2.2
		C30.4,19.9,30.9,20.2,31.5,20.5z M21.3,11.3c-0.6,1.1-0.4,2.2-0.7,3.2c-0.2,0.9-0.4,1.9-0.5,2.9c-0.1,1-0.6,2-0.3,3.1
		c1.5-0.3,3-0.5,4.4-1.2C23.5,16.6,22.6,14,21.3,11.3z"/>
	<path d="M159.9,10.2c0.5-0.4,1-0.8,1.5-1.1c1.8-0.1,3.4,0,5.1,0.7c0.2,0.7,0.5,1.5,0.8,2.4c0.7,2.3,2,4.4,3.2,6.5
		c1.1,1.8,2.3,3.6,3.5,5.3c0.9,1.3,1.9,2.5,2.8,3.7c0.1,0.2,0.3,0.3,0.6,0.5c0-2.1,0-4,0-5.9c0-0.9-0.1-1.8-0.2-2.8
		c0-0.2,0-0.3,0-0.5c0.2-2.5,0.4-4.9,0.6-7.4c0.1-0.7,0.3-1.3,0.5-2c0.5-0.2,1-0.4,1.2-0.5c1.3,0.1,2.4,0.2,3.5,0.3
		c0.6,0.6,0.7,1.5,0.5,2.3c-0.6,3-0.7,6.1-0.6,9.1c0.2,4.1,0.2,8.3,0.3,12.4c0,1.3,0.1,2.5-0.5,3.8c-1.6,1.2-3.4,0.9-5.2,0.5
		c-1.3-2.4-3-4.4-4.7-6.6c-1.4-1.9-3.1-3.6-4.3-5.6c-0.8-1.4-1.9-2.6-2.9-4c-0.2,0.5-0.4,0.9-0.4,1.3c-0.1,3-1,5.9-1.5,8.8
		c-0.1,0.7-0.3,1.4-0.3,2c0,0.7-0.3,1.2-0.6,1.8c-0.4,0.7-1,1-1.7,1.1c-1.8,0.3-3.5-0.9-4-2.6c-0.1-0.3-0.1-0.6-0.2-0.9
		c1.5-3.1,1.9-6.5,2.3-9.8c0.3-2,0.5-4,0.7-6c0.1-1.4-0.1-2.9-0.2-4.3c0-0.4-0.1-0.8-0.1-1.2C159.8,11.2,159.9,10.7,159.9,10.2z"/>
	<path d="M19.9,85.1c-0.8-1.8-1.5-3.2-2.2-4.8c1.3-1.3,0.7-2.6-0.1-3.8c-0.1-0.1-0.2-0.2-0.4-0.4c-1.4-0.4-2.9-0.1-4.4,0
		c-0.8,0.1-1.6-0.1-2.4,0.6c-0.2,0.5-0.4,1.2-0.6,1.8c-0.5,1.5-1,2.9-1.4,4.4c-0.4,1.2-0.7,2.4-0.9,3.7c-0.2,0.8-0.5,1.4-1,1.9
		C4.9,89.4,3.5,89.7,2,89c-0.4-0.4-0.8-0.8-1.1-1.2c-0.2-0.2-0.4-0.4-0.5-0.7c-0.4-1.2-0.5-2.5,0.1-3.7c0.2-0.4,0.4-0.9,0.7-1.2
		c0.7-0.7,1-1.6,1.3-2.4c0.3-0.8,0.7-1.6,1-2.4c0.4-1,0.8-1.9,1.1-2.9c0.5-1.5,0.9-3,1.3-4.5c0.4-1.8,0.8-3.6,1.1-5.4
		c0.1-0.9,0.1-2,0-2.9c-0.1-1.2-0.1-2.3,0.3-3.5c1.1-0.9,2.4-1.9,2.5-3.5c0.4-0.3,0.6-0.5,0.8-0.6c0.2,0,0.3-0.1,0.4-0.1
		c1.1,0,2,0.5,2.9,1.1c0.9,0.5,1.5,1.3,1.8,2.4c1.2,4.7,3.1,9,5.3,13.2c1.1,2.2,2,4.5,2.9,6.8c0.7,1.8,1.2,3.6,2,5.3
		c0.6,1.2,0.1,2.3-0.7,3.1c-0.2,0.2-0.6,0.3-0.9,0.4C22.6,86.6,21.2,86.2,19.9,85.1C19.8,85.1,19.7,85,19.9,85.1z M13,67.2
		c-0.4,1.3-0.9,2.6-0.9,4c1.1,0.2,1.9,0.1,2.5-0.9C14.3,69.1,13.8,68.1,13,67.2z"/>
	<path d="M364.2,65.9c0,1.3,0.3,2.5,0.8,3.4c0.8,1.5,1.8,2.9,3.2,4c1.1,0.9,2.2,1.8,3.5,2.5c1.6,1,3.2,2,4.6,3.3
		c1.2,1,2.1,2.3,2.9,3.6c0,0.9-0.5,1.6-0.8,2.4c-1.1,0.5-2.2,1-3.4,1.2c-1.9,0.3-3.7,0.9-5.5,1.4c-2.8,0.7-5.6,0.8-8.4,0.5
		c-1-0.1-2-0.4-2.9-0.9c-0.9-0.5-1.3-1.4-1.4-2.4c0-0.7,0.5-1.2,1.2-1.2c0.3,0,0.7,0.1,1,0.2c0.7,0.3,1.4,0.3,2.2,0.2
		c0.3-0.1,0.5,0.1,0.8,0.1c0.7,0.1,1.4,0.3,2,0.2c2.4-0.2,4.7-0.7,6.9-1.5c0.3-0.1,0.6-0.3,1-0.5c-0.3-1-0.9-1.6-1.7-2.1
		c-1.7-1.1-3.4-2.1-5.1-3.3c-1.9-1.3-3.6-2.7-4.8-4.6c-1.1-1.5-1.7-3.2-2.1-5.1c-0.4-1.7-0.6-3.4-0.7-5.1c-0.1-1.3,0-2.6,0.8-3.8
		c0.8-0.4,1.5-0.6,2.3-0.5c0.7,0.1,1.5,0,2.2,0.1c0.9,0,1.8,0.2,2.6,0.8c0.3,0.2,0.6,0.4,0.9,0.4c0.9,0.2,1.4,0.7,1.8,1.5
		c0.3,0.7,0.9,1.2,1.7,1.4c0.9-1.7,2.4-3,3.1-4.9c0.2-0.5,0.7-0.9,1-1.4c1.9-0.8,3.5,0.1,5.1,0.5c0.7,2.2,0.5,3.4-1,4.5
		c-2,1.4-2.8,3.4-3.8,5.4c-0.3,0.5-0.3,1.2-0.4,1.9c-0.1,0.8-0.3,1.5-1,2c-0.8,0.6-1.6,1.2-2.6,1.3c-1.1,0.1-2.1-0.4-3-1.1
		c-0.6-0.5-1.1-1.1-1.2-2c-0.2-0.9-0.8-1.6-1.4-2.3C364.7,66,364.5,66,364.2,65.9z"/>
	<path d="M326.8,81.9c1.4-1.1,2.1-2.6,2.7-4.1c1.2-3.2,2.3-6.5,2.9-9.9c0.2-1.1,0.3-2.3,0.1-3.4c0-0.2-0.1-0.3-0.1-0.5
		c0.2-1.7,0.4-2.3,2.2-2.6c1.4-0.2,2.8,0,4.1,0.3c0.9,0.2,1.6,0.8,1.7,1.9c0.3,2.7,1,5.2,2.4,7.5c0.6,0.9,0.9,2,1.4,3
		c0.1,0.3,0.3,0.6,0.5,1c0.2-0.3,0.3-0.4,0.3-0.5c0.2-1,0.4-1.9,0.6-2.9c0.4-1.9,0.8-3.7,1.2-5.6c0.1-0.4,0.1-0.8,0.1-1.2
		c0-0.2,0-0.3,0-0.5c0.1-1.4,0.6-1.9,2.3-2.4c0.7,0.2,1.4,0.5,2.3,0.3c0.5-0.1,1,0,1.5,0.5c0,0.3,0.2,0.6,0.1,0.9
		c-0.1,1.2-0.3,2.4-0.5,3.6c-0.5,2.3-1.1,4.6-1.5,6.9c-0.4,2-0.5,4.1-0.6,6.2c-0.1,1-0.3,1.9-0.1,2.9c0,0.3-0.1,0.6-0.1,0.9
		c-0.3,2-1.5,3.1-3.5,3.1c-1,0-1.9-0.4-2.7-0.9c-0.4-0.2-0.7-0.7-0.8-1.1c-0.7-2.3-1.9-4.3-3-6.4c-0.7-1.3-1.2-2.6-1.8-3.9
		c-0.2-0.5-0.5-0.9-0.7-1.4c-0.1-0.1-0.2-0.2-0.5-0.4c-0.4,1.2-0.7,2.2-1.1,3.3c-0.3,0.8-0.5,1.6-0.8,2.5c-0.4,1.1-0.9,2.1-1.2,3.2
		c-0.2,0.6-0.2,1.4-0.3,2.3c-0.4,1-1.2,2-2.9,2.3c-1.4-0.3-3.2-0.3-4.1-2.3C326.8,83.6,326.6,82.7,326.8,81.9L326.8,81.9z"/>
	<path d="M230.4,76.1c-0.3,2.9-1.1,5.6-0.2,8.4c0.2,0.5,0,1-0.2,1.5c-0.3,0.6-0.6,1.1-0.9,1.7c-0.3,0.1-0.5,0.2-0.8,0.4
		c-2,1.4-5.3-0.5-5.5-3.1c-0.1-0.7-0.1-1.6,0.2-2.2c0.5-1,0.5-2,0.7-3c0.4-2,0.6-4.1,0.9-6.1c0.2-1.6,0.3-3.1,0-4.6
		c-0.1-0.4-0.1-0.8-0.1-1.2c-0.1-1.1,0.4-2,1.4-2.8c1.6-0.3,3.2-0.1,4.7,0.6c0.9,0.4,1.5,1.2,1.7,2.1c0.5,1.8,1.7,3.1,2.6,4.6
		c1.1,1.8,2.3,3.5,3.5,5.3c0.1,0.1,0.2,0.1,0.3,0.2c0.3,0,0.3-0.3,0.3-0.5c0.5-3,0.8-6,0.7-9.1c0-0.7-0.1-1.4-0.3-2
		c-0.3-1.1-0.3-2,0.5-3.1c0.3-0.2,0.6-0.4,1-0.7c1.1,0.1,2.3,0.2,3.4,0.3c1.1,0.1,1.8,0.9,1.9,1.9c0.1,0.6,0.1,1.2-0.1,1.7
		c-0.4,1.4-0.5,2.8-0.5,4.3c-0.1,2.8-0.3,5.5-0.7,8.2c-0.2,1.4-0.5,2.8-0.7,4.2c-0.1,0.5-0.1,0.9,0,1.4c0.1,1.4-0.2,2.7-0.9,4
		c-0.8,0.7-1.8,0.7-2.8,0.5c-0.8-0.1-1.6-0.3-2.5-0.4c-0.9-0.8-1.5-1.8-1.8-3c-0.3-1.3-1-2.4-1.7-3.6c-0.6-1-1.2-2-1.8-2.9
		c-0.6-0.9-1.2-1.8-1.8-2.7C230.9,76.3,230.7,76.3,230.4,76.1z"/>
	<path d="M269,15.4c-1.5,0-2.8-0.8-4-1.4c-0.1-0.3-0.3-0.6-0.3-0.8c-0.3-1.7,0.4-2.8,2.1-3.2c0.7-0.2,1.3-0.3,2-0.4
		c0.8-1.2,2-1.6,3.4-1.1c0.6,0.2,1.2,0.3,1.8,0.2c0.4-0.1,0.9-0.1,1.3,0.3c0.5,0.5,1.1,0.5,1.8,0.6c0.2,0,0.5,0,0.7,0
		c2.6-0.1,5.1,0.4,7.7,0.8c1.2,0.2,2.5,0.5,3.6,1.1c1.6,0.9,1.9,1.3,2,3.3c-1,1.6-2.5,2.9-4,4.2c-2,1.6-4,3.3-6.2,4.7
		c-0.6,0.4-1.1,0.9-1.6,1.4c0,0.5,0.3,0.4,0.5,0.4c1.3,0.1,2.6,0.3,3.9,0.4c1.8,0.2,3.5,0.3,5.2,0.9c0.9,0.3,1.7,0.7,2.2,1.5
		c0.3,0.4,0.7,0.8,1,1.1c0,0.6-0.3,0.9-0.9,1.2c-0.2-0.1-0.6-0.1-0.9-0.2c-2.2-0.7-4.5-0.7-6.8-0.9c-1.1-0.1-2.3-0.1-3.4-0.2
		c-0.8,0-1.6,0-2.4,0c-0.7,0-1.2,0.2-1.8,0.8c-0.1,0.5-0.3,1.1-0.5,1.7c-0.7,0.9-1.5,1.6-2.6,1.9c-0.3-0.1-0.7-0.2-1.1-0.3
		c-1.7-0.5-2.9-2.3-3-4.2c0-0.5,0.1-0.9,0.1-1.4c0-1,0.1-2.1,0.1-3.1c0-1.1,0-2.3,0-3.4C269,19.3,269,17.4,269,15.4z M284.5,14.2
		c-0.7-0.5-1.4-0.7-2.1-0.8c-2-0.1-4-0.2-6-0.3c-0.6,0-1,0.3-1.1,0.9c-0.1,0.3-0.1,0.6-0.1,0.9c-0.1,2-0.1,4-0.2,6
		c0,0.3,0,0.6,0,1.1c0.4-0.2,0.7-0.3,0.9-0.5c0.7-0.5,1.5-1.1,2.2-1.7c1.4-1.1,2.8-2.2,4.2-3.3C283.2,16,283.8,15.2,284.5,14.2z"/>
	<path d="M181.5,65.9c0.6-0.3,1.1-0.2,1.7-0.1c0.8,0.1,1.5,0.4,2.3,0.5c0.9,0.1,1.6,0.8,1.9,1.8c0.7,2.9,1.4,5.8,2.2,8.7
		c0.1,0.4,0.3,0.9,0.5,1.3c0.8,0.2,1.5,0.3,2.2,0.2c2.1-0.2,4.2-0.3,6.3-1.1c-0.3-1.6-0.6-3.1-0.8-4.6c-0.2-1.2-0.4-2.5-0.1-3.8
		c0.3-0.2,0.6-0.4,0.8-0.6c1.5-0.2,2.8,0.4,4.2,0.5c0.8,0.1,1.2,0.7,1.3,1.6c0,0.7,0,1.5,0,2.2c0,0.5,0,1,0.1,1.5
		c0.1,0.9,0.3,1.8,0.5,2.6c0.7,1,2,0.6,2.6,1.7c0.2,0.7-0.2,1.5-0.3,2.4c-0.4,0.3-0.8,0.7-1.3,1.1c0.1,1.6,0.6,3.1,1,4.7
		c0.4,1.6,0.8,3.1,1.3,5c-0.1,0.4-0.3,1.1-0.4,1.8c-1,1-2.1,1.4-3.4,0.8c-0.4-0.2-0.8-0.2-1.1-0.4c-0.3-0.2-0.7-0.4-0.9-0.7
		c-1.2-1.8-2.3-3.7-3-5.8c-0.3-0.9-0.4-1.7,0.1-2.5c0.3-0.3,0.6-0.5,0.9-0.8c-0.2-0.6-0.4-1.1-0.6-1.7c-0.4-0.1-0.7-0.2-1-0.2
		c-2.3,0.2-4.6,0.4-6.8,0.6c-0.4,0.5-0.2,0.9,0,1.2c0.3,0.5,0.7,1.1,1,1.6c0.6,1.1,0.3,2.3-0.2,3.3c-0.4,0.7-1.2,1.1-2,1.3
		c-0.3,0.1-0.7,0.1-1.1,0.2c-1.5-0.5-3.2-0.9-4.1-2.6c0.4-1.5,0.3-3-0.1-4.5c-0.8-3.1-1.5-6.2-2.3-9.3c-0.3-1-0.8-1.9-1.2-2.8
		c-0.3-0.7-0.6-1.4-0.8-2.1C180.4,67.6,180.6,66.6,181.5,65.9z"/>
	<path d="M290.5,77.3c0.1-0.5,0.1-1,0.2-1.5c0.7-0.6,1.5-0.7,2.2-0.7c2.5-0.1,4.9-0.3,7.4,0.1c1.1,0.2,2.2,0.1,3.3,0.2
		c1.3,0.1,2.5,0.6,3.5,1.3c1.3,0.8,2,2.1,1.7,3.7c-0.2,1.2-0.7,2.4-1.4,3.5c-1.4,2.1-3.5,3.6-5.8,4.4c-1.6,0.6-3.3,1-5,1.1
		c-1.8,0.1-3.7,0.2-5.5,0c-1.5-0.2-2.8-0.7-4.1-1.3c-1.7-0.9-2.6-2.4-3.2-4.1c-1.2-3.3-1.1-6.6-0.1-10c0.6-2,1.4-3.7,2.5-5.4
		c1.1-1.7,2.5-3,4.3-3.9c0.4-0.2,0.9-0.4,1.4-0.6c0.2-0.1,0.5-0.1,0.6-0.2c0.9-0.8,1.9-0.7,2.9-0.4c0.5,0.1,1,0.1,1.5,0.2
		c0.5,0.1,1,0.2,1.5,0.3c0.7,1.2,0.6,2.3,0.3,3.4c-0.2,0.7-0.8,1.1-1.4,1.5c-0.8,0.4-1.6,0.6-2.5,0.5c-1-0.1-1.8,0.2-2.5,1
		c-0.9,1-1.7,2.1-2.3,3.4c-0.5,1.2-1,2.5-1.2,3.8c-0.3,2-0.3,3.9,0.4,5.8c0.5,1.4,1.4,2.2,2.9,2.3c2.9,0.3,5.7-0.3,8.2-1.9
		c0.7-0.4,1.1-1,1.5-1.6c0.3-0.4,0.4-1,0.5-1.4c0.1-0.5-0.2-0.9-0.7-1.1c-0.4-0.2-0.9-0.3-1.3-0.3c-1,0-1.9-0.2-2.9-0.1
		c-1.6,0.2-3.2,0-4.8,0.1C291.7,79.1,291.1,78.4,290.5,77.3z"/>
	<path d="M84.6,9.5c0.5-1,1.3-1.3,2.3-1.2c1,0.1,2.1,0.2,3.1,0.3c0.2,0.3,0.5,0.6,0.7,1c1.9,4,4.7,7.3,7.9,10.4c1,1,2,2.1,3,3.1
		c0.3,0.3,0.7,0.6,1.1,1c0.2-0.2,0.4-0.4,0.4-0.6c0.7-3.1,1.5-6.1,2.3-9.2c0.4-1.3,0.6-2.7,1-4c0.5-1.7,1-3.3,1.4-5
		c0.2-0.9,0.3-0.9,1.5-1.8c1.3,0.3,2.5,0.6,3.7,0.8c0.7,1,0.9,2,0.4,3c-0.3,0.7-0.6,1.4-0.8,2.1c-0.6,1.4-1.1,2.8-1.4,4.2
		c-0.2,0.9-0.5,1.9-0.8,2.8c-0.7,2.7-1.4,5.3-2,8c-0.7,3.5-1.3,7-1.3,10.6c0,0.6,0.1,1.3,0.1,1.9c-0.3,0.6-0.6,1.1-1,1.7
		c-0.4,0.2-0.9,0.5-1.5,0.9c-0.9-0.3-1.9-0.7-2.8-1c-0.2-0.3-0.3-0.6-0.5-0.8c-0.6-0.8-0.5-1.7-0.3-2.6c0.3-1.5,0.6-3,0.6-4.6
		c0-0.2-0.1-0.3-0.1-0.6c-0.9-0.4-1.8-0.8-2.9-1.2c-0.3-0.5-0.7-1.3-1.2-2c-1-1.4-2-2.9-3.4-4.1c-1.7-1.5-3.3-3.2-4.8-4.9
		c-0.3-0.3-0.5-0.6-0.7-1c-1-1.4-2-2.8-3-4.2C85,11.6,84.6,10.6,84.6,9.5z"/>
	<path d="M124.1,11c0.4-1.2,0.2-2.5,1.5-3.1c1,0.2,2.1,0.5,3.1,0.7c0.2,0.3,0.4,0.5,0.5,0.8c0.4,1.3,0.8,2.6,1.1,4
		c0.4,2,0.6,4.1,0.7,6.1c0,1.3,0,2.6,0,4c-0.2,2.6-0.7,5.1-1.6,7.5c-0.9,2.2-2.2,4.1-4,5.5c-1.4,1.1-3,1.6-4.8,1.2
		c-1.5-0.3-2.4-0.9-3.3-2.2c-1.4-2-2.1-4.2-2.6-6.5c-0.5-2.4-0.2-4.7,0.4-7c0.5-2.3,1.6-4.4,2.8-6.4c1.1-1.8,2.8-3,4.7-3.8
		C123.1,11.5,123.6,11.2,124.1,11z M121.3,32.5c0.8-0.4,1.3-0.9,1.5-1.5c0.6-1.4,1.3-2.8,1.7-4.3c0.7-2.4,0.8-4.9,0.8-7.3
		c0-0.7-0.3-1.3-0.4-2c0-0.1-0.1-0.2-0.3-0.3c-0.2,0-0.5-0.1-0.8-0.1c-0.3,0.4-0.7,0.7-0.9,1c-1.2,1.8-2.2,3.8-2.5,6
		c-0.1,0.3-0.1,0.7-0.2,1c-0.3,1.5-0.3,3.1-0.1,4.6C120.3,30.5,120.6,31.5,121.3,32.5z"/>
	<path d="M204,12c-0.5,1.8-1.9,2.1-3.2,2.4c-0.7-0.1-1.3-0.1-1.9-0.2c-1.2,0.9-2,2.1-2.6,3.3c-1,1.8-1.6,3.7-1.8,5.7
		c-0.3,2.3,0.1,4.5,1.6,6.4c0.9,1.1,2,1.5,3.3,1.4c1.3-0.1,2.5-0.5,3.5-1.2c1.8-1.2,3.3-2.7,4.3-4.6c0.1-0.2,0.2-0.5,0.2-0.7
		c-0.4-0.4-0.7-0.4-1.1-0.4c-1.7,0.1-3.3,0.3-5,0.4c-1.7,0.1-3.3,0.1-5.1-0.5c-0.6-0.4-0.9-1.1-0.7-2.1c0.2-0.1,0.5-0.3,0.8-0.4
		c0.4-0.1,0.9-0.2,1.4-0.2c1.6-0.1,3.2-0.4,4.8-0.5c1.3-0.1,2.6-0.3,3.9-0.3c1.8,0,3.6,0.2,5.5,0.4c1,0.1,1.4,0.5,1.5,1.6
		c0.1,1,0.1,2-0.4,2.9c-0.3,0.7-0.6,1.4-0.9,2c0.1,0.3,0.5,0.3,0.6,0.5c0.2,0.2,0.3,0.5,0.4,0.8c0.4,0,0.9,0,1.1,0.7
		c-0.2,0.3-0.5,0.7-0.8,1.1c-0.2,0-0.3,0-0.3,0c-0.4-0.8-1.6-0.7-1.8-1.8c-0.3,0.3-0.5,0.5-0.7,0.7c-0.2,0.2-0.5,0.5-0.7,0.7
		c-1.5,1.6-3.2,2.8-5.1,3.7c-0.7,0.3-1.4,0.5-2.1,0.7c-2.4,0.6-4.9,0.4-7.3,0c-2.8-0.5-4.5-2.4-5.6-4.9c-0.7-1.6-1.2-3.2-1.2-5
		c0-1.3,0.1-2.5,0.4-3.8c0.3-1.3,0.7-2.7,1.3-3.9c1-2.3,2.4-4.3,4.4-5.8c1.4-1,3-1.6,4.6-1.7c1.1-0.1,2.3,0.2,3.4,0.4
		c0.6,0.1,0.9,0.5,1,1C203.9,11.1,203.9,11.5,204,12z"/>
	<path d="M248.5,30.3c-1,0.5-2,1.1-3.1,1.5c-1.8,0.8-3.7,0.9-5.6,0.9c-2.1,0.1-4.3-0.1-6.3-0.5c-2.1-0.4-4.2-0.7-5.9-2.2
		c-0.6-0.5-1.1-1-1.4-1.7c-0.6-1.2-1-2.6-1-4c0-2.7,0.2-5.3,1.2-7.8c0.5-1.3,1.2-2.4,2.1-3.3c1.1-1.2,2.4-2.3,3.8-3.3
		c1.6-1.1,3.4-1.5,5.2-1.6c1-0.1,2.1,0.1,3.1,0.1c0.9,0,1.8,0.3,2.7,0.6c0.7,0.2,1.2,0.7,1.4,1.4c0.2,0.6,0.3,1.2,0.4,1.8
		c-0.3,0.6-0.6,1.1-0.8,1.5c-1.3,0.7-2.4,0.3-3.5-0.3c-0.4-0.2-0.7-0.5-1-0.6c-0.5-0.2-1-0.3-1.6-0.4c-0.8,0.4-1.7,0.8-2.4,1.3
		c-2.9,2-4.6,5.5-4.6,9c0,0.7,0,1.5,0.1,2.2c0.1,0.6,0.3,1.2,0.5,1.8c0.3,0.6,0.7,1,1.4,1.3c1.3,0.5,2.6,0.8,4,0.8
		c1.8,0,3.6-0.1,5.2-0.8c0.6-0.3,1.1-0.6,1.3-1.3c-0.3-0.8-1-1-1.7-1.2c-1-0.3-2-0.6-3-0.9c-1-0.3-2-0.7-2.9-1
		c-0.6-0.2-1.1-0.6-1.6-1.2c0-0.4,0-1-0.1-1.4c0.1-0.1,0.2-0.2,0.3-0.3c0.8-0.3,1.6-0.3,2.4-0.2c0.4,0.1,0.9,0.2,1.4,0.2
		c2.7-0.1,5.3,0.7,7.9,1.5c1.3,0.4,2.5,1,3.4,2c0.6,0.6,0.9,1.3,0.7,2.2c-0.2,1-0.3,2-1.2,2.8C248.9,29.7,248.7,30,248.5,30.3z"/>
	<path d="M249.4,80c-0.3-0.6-0.7-1.2-0.9-1.7c0-0.9,0.4-1.5,0.9-2c0.2-1.6,0.4-3.3,0.5-4.9c0-0.7,0.2-1.3-0.1-2
		c-0.2-0.6-0.1-1.2-0.2-1.9c0-1,0.5-1.8,1.2-2.4c0.3-0.2,0.7-0.4,1.1-0.4c0.9-0.1,1.7-0.1,2.5,0.3c1,0.4,2,0.4,3,0.2
		c1.2-0.3,2.4-0.6,3.7-1c0.5-0.1,1-0.4,1.4-0.5c1.1,0.2,2.1,0.4,3.1,0.7c0.5,0.1,0.9,0.5,1.4,0.7c0.5,0.9,0.6,1.8-0.1,2.7
		c-0.7,0.3-1.5,0.6-2.4,0.7c-1.2,0.2-2.3,0.5-3.5,0.8c-0.9,0.2-1.9,0.5-2.8,0.8c-0.7,0.2-1.4,0.5-2.1,0.7c-0.5,1.9-0.8,3.8-0.6,5.7
		c0.9,0.3,1.7,0.3,2.5,0.1c2.8-0.4,3.4-0.4,6.4-0.1c0.1,0.1,0.3,0.3,0.4,0.5c0.1,0.2,0.2,0.4,0.4,0.6c-0.1,0.2-0.1,0.3-0.3,0.4
		c-0.7,0.6-1.5,0.8-2.4,1c-2.3,0.6-4.6,1.1-6.9,1.7c-0.3,0.3-0.5,0.8-0.4,1.2c0.2,1.9,0.1,3.9,0.8,5.9c0.4,0,0.8,0.2,1.1,0.1
		c0.8-0.1,1.6-0.2,2.4-0.4c1.6-0.3,3.1,0.1,4.5,0.8c0.6,0.3,0.9,0.9,0.8,1.6c-0.1,1.5-0.9,2.4-2.4,2.7c-0.7,0.1-1.4,0.2-2,0.4
		c-0.9,0.2-1.9,0.3-2.7,1c-0.4,0.4-1,0.5-1.6,0.7c-1.9,0.8-3.7-0.2-5-1.4c-0.4-0.9-1-1.8-0.8-2.9c0.1-0.3,0.1-0.7,0-1
		c-0.2-1.8-0.5-3.5-0.7-5.3C249.5,82.7,249.5,81.4,249.4,80z"/>
	<path d="M151.1,63c1.4-0.1,2.8,0.4,4.3,0.9c0.5,0.2,0.8,0.6,1,1.1c0.7,1.8,1.2,3.6,1.6,5.4c1,4.4,2.1,8.8,3.3,13.2
		c0.1,0.4,0.3,0.9,0.5,1.3c0.2,0.6,0.5,1.2,0.7,1.7c-0.2,0.8-0.4,1.5-0.7,2.3c-0.5,0.2-1,0.5-1.6,0.7c-0.9,0.2-1.7,0.1-2.5-0.4
		c-0.4-0.3-0.8-0.5-1.3-0.7c-0.2-0.3-0.3-0.7-0.5-1c-0.3-0.6-0.4-1.2-0.5-1.9c-0.1-1.3-0.5-2.6-0.8-3.9c-0.1-0.4-0.3-0.8-0.5-1.3
		c-1.3-0.3-2.5-0.1-3.6-0.1c-0.5,0.3-0.7,0.7-0.8,1.2c-0.3,1.3-0.7,2.7-0.9,4c-0.1,0.5-0.2,1-0.1,1.5c0.1,1.2-0.3,2.3-0.8,3.2
		c-2.2,1.1-3.4,0.9-5.4-1.2c-0.1-0.6-0.2-1.3-0.3-1.7c0.7-2.6,1.3-5,2-7.3c0.6-2.1,1.3-4.2,2.1-6.2c0.6-1.8,1.4-3.5,2-5.3
		c0.4-1.1,0.8-2.3,1.1-3.4C149.8,64.2,150,63.4,151.1,63z M151.7,75.7c0.6,0.2,1.1,0.2,1.4-0.4c-0.2-0.6-0.4-1.3-0.6-2.1
		C151.9,74,151.8,74.8,151.7,75.7z"/>
	<path d="M326.9,81.8c-0.3,0.9-0.7,1.7-0.9,2.6c-0.4,1.9-1.7,3.2-2.5,4.8c-1.6,0.6-3,0.8-4.7-0.1c-0.7-0.5-1.3-1.5-1.8-2.4
		c-1.1-1.9-2.3-3.7-3.2-5.7c-0.9-1.9-2-3.6-2.5-5.7c-0.3-1.3-0.9-2.6-1.3-3.9c-0.2-0.6-0.3-1.2-0.5-1.8c-0.5-1.6-0.9-3.2-1.4-4.8
		c0.5-1.1,0.5-1.1,1.6-1.9c1.1,0.1,2.3,0.3,3.5,0.5c0.4,0.1,0.8,0.4,1.2,0.6c0.4,0.8,0.5,1.6,0.6,2.5c0.1,1.3,0.3,2.5,0.6,3.7
		c0.6,2.6,1.4,5.1,2.6,7.5c0.6,1.2,1.2,2.4,1.8,3.5c0.1,0.1,0.3,0.2,0.4,0.3c1-3,0.9-11.7-1.1-16.9c0.1-0.3,0.2-0.6,0.3-1
		c0.3-0.2,0.6-0.4,1-0.6c0.3,0,0.7,0,1,0.1c0.9,0.5,1.9,0.5,2.8,0.2c0.1,0,0.2,0,0.3,0c0.6,0.2,0.9,0.5,1,1.1c0.1,0.3,0.1,0.7,0.2,1
		c0.2,1.4,0.3,2.9,0.5,4.3c0.4,2.3,0.4,4.7,0.5,7.1c0.1,1.4-0.1,2.8-0.2,4.1C326.8,81.2,326.8,81.5,326.9,81.8L326.9,81.8z"/>
	<path d="M133.7,14.9c0.4-0.3,0.9-0.7,1.4-1c1.3,0.2,2.6,0.4,4,0.6c0.4,0.7,0.6,1.5,0.5,2.3c-0.2,4.1,0.4,8.1,1.8,12
		c0.5,1.2,1.2,2.4,2,3.5c0.3-0.4,0.6-0.6,0.7-0.9c0.4-0.9,0.9-1.8,1.1-2.7c0.6-2.1,1.1-4.2,1.1-6.4c0-1.6-0.1-3.2-0.2-4.8
		c-0.1-1.7-0.3-3.3-0.5-5c-0.1-0.7,0-1.4,0.1-2c0.1-0.6,0.6-1,1.3-0.9c0.7,0.1,1.4,0.2,2,0.3c0.6-0.1,1.1-0.2,1.8-0.3
		c0.1,0.5,0.3,0.8,0.4,1.2c0.1,0.8,0.2,1.6,0.2,2.4c0,1,0.1,1.9,0.3,2.9c0.5,2.8,0.6,5.6,0.3,8.4c-0.3,3.1-0.9,6.2-2.4,9.1
		c-0.9,1.8-2.2,3.1-3.8,4.1c-0.9,0.6-2,0.7-3.1,0.4c-1.1-0.3-2-0.8-2.6-1.8c-0.7-1.2-1.5-2.3-2.2-3.5c-0.5-0.7-0.9-1.5-1.3-2.3
		c-0.5-0.9-1.1-1.8-1.1-2.9c0-0.1,0-0.1,0-0.2c-1.1-2.4-1.1-5-1.5-7.6c-0.2-1.4-0.2-2.7-0.2-4.1C133.5,15.7,133.6,15.3,133.7,14.9z"
		/>
	<path d="M337.1,13.4c0.1,1.2,0.3,2.2,0,3.3c-0.3,0.2-0.6,0.5-1,0.7c-1.2,0.7-2.4,0.7-3.6,0.1c-1.3-0.7-2.6-0.8-4-0.6
		c-1.7,0.3-3.4,0.7-4.8,1.7c-0.2,0.2-0.4,0.4-0.6,0.5c0,0.8,0.5,1.2,1.1,1.5c1.5,0.8,2.9,1.6,4.5,2.2c2.9,1.1,5.8,2.2,8.7,3.2
		c0.1,0,0.1,0,0.2,0.1c2.5,0.9,2.2,1.3,2.1,3.1c0,0.3,0,0.6-0.1,0.8c-0.4,0.8-1.1,1.3-1.8,1.6c-0.5,0.2-1,0.5-1.5,0.8
		c-2.1,1.2-4.5,1.8-6.9,1.9c-1,0-2-0.2-3.1-0.4c-0.8-0.2-1.7-0.4-2.5-0.7c-0.8-0.2-1.3-0.8-1.6-1.5c-0.3-0.7-0.2-1.3,0.3-2
		c1.3-0.3,2.6,0.6,3.8-0.1c2.1,0.7,4.1,1.1,6-0.5c-0.2-0.7-0.8-0.9-1.3-1.1c-1.4-0.5-2.9-1.1-4.3-1.6c-2.4-0.9-4.7-1.8-6.9-3
		c-0.9-0.5-1.8-1.2-2.6-2c-0.7-0.7-1-1.7-1.2-2.6c-0.1-0.9,0.5-1.6,1.1-2.2c0.6-0.5,1.2-0.9,1.8-1.3c0.7-0.5,1.4-0.8,2.1-1.1
		c1.1-0.3,2.2-0.7,3.2-1.1c1.6-0.6,3.4-0.8,5.1-0.8c0.6,0,1.3-0.1,1.9-0.1c1.6-0.1,3.1,0.1,4.6,0.5
		C336.2,12.9,336.6,13.2,337.1,13.4z"/>
	<path d="M302.2,11.2c0.8,0.5,1.2,1.1,1.2,2c0,1.2,0.1,2.4,0.2,3.6c0.1,1,0.2,1.9,0.3,2.9c0.3,2.2,0.5,4.3,0.8,6.5
		c0.2,1.4,0.6,1.8,2,1.8c1.6,0.1,3.2,0.1,4.8-0.4c1.8-0.6,3.6-0.4,5.5-0.4c0.5,0,0.9,0.3,1.4,0.5c0.3,1.5,0.2,2.8-0.8,4
		c-0.7,0.4-1.4,0.7-2.2,1.2c-0.7-0.1-1.4-0.1-2.1-0.2c-0.7-0.1-1.5,0.1-2.1-0.3c-0.1-0.1-0.2-0.1-0.3-0.1c-1.7,0.1-3.5-0.1-5.1,0.7
		c-1.3,0.6-2.6,1-4.1,1.2c-0.7-0.3-1.6-0.7-2.3-1.1c-0.8-1.1-0.9-2.3-1.2-3.4c0.1-0.2,0.1-0.5,0.2-0.7c0.5-0.8,0.5-1.7,0.4-2.7
		c-0.1-1.5-0.2-3.1-0.4-4.6c-0.2-2-0.6-4.1-0.9-6.1c-0.1-0.8-0.3-1.6-0.4-2.4c-0.1-1.6,0.9-2.5,2.4-2.2c0.5,0.1,0.9,0.2,1.4,0.3
		C301.3,11.2,301.7,11.2,302.2,11.2z"/>
	<path d="M43.9,7.8c-0.1,1-0.1,1.8-0.2,2.7c-0.2,1.7,0.2,3.3,0.4,5c0.2,2.3,0.4,4.6,0.6,6.9c0.2,1.8,0.3,3.7,0.5,5.4
		c0.4,0.6,0.9,0.9,1.5,0.9c0.9,0.1,1.7,0.1,2.6-0.2c1.7-0.6,3.3-0.4,4.8,0.3c1.1,0.5,1.3,1.6,0.4,2.5c-1.2,1.2-2.6,2-4.4,2.1
		c-1.8,0.1-3.7,0.1-5.5,0.2c-0.5,0-1,0.1-1.7,0.1c-0.5-0.2-1.1-0.4-1.7-0.7c-1.5-0.6-2.4-2.1-2.2-3.7c0-0.2,0.1-0.4,0.2-0.7
		c0.3-1.3,0.4-2.6,0.1-3.9c-0.2-1.2-0.2-2.5-0.3-3.8c-0.3-2.4-0.5-4.8-0.8-7.2c-0.1-1-0.3-1.9-0.4-2.9c-0.1-0.9-0.1-1.8-0.2-2.7
		c-0.1-1.1,0.6-1.9,1.8-1.9c1.3,0,2.5,0.3,3.7,0.8C43.3,7.1,43.6,7.6,43.9,7.8z"/>
	<path d="M181,87.9c0.2,0.6,0.3,1.1,0.4,1.7c-0.3,0.2-0.5,0.5-0.8,0.7c-1.7,1-3.5,1.2-5.4,1.1c-2.4-0.2-4.7-0.9-6.9-1.8
		c-1.9-0.8-3.5-2.1-4.6-3.8c-1-1.5-1.6-3.2-1.5-5.2c0.2-3.7,1.8-6.5,4.4-9c0.8-0.8,1.8-1.4,2.8-1.9c1-0.5,1.9-1,2.8-1.6
		c1.1-0.7,2.2-0.9,3.4-0.7c0.7,0.1,1.5,0,2.2,0.5c0.6,0.4,1,0.9,0.9,1.7c-0.1,0.8-0.3,1.6-1.3,1.9c-1.1,0.4-2.1,0.8-3.2,1.2
		c-2.9,1.2-5.1,3.3-6.1,6.2c-1,3.1-0.6,6.2,3.4,7.9c0.6,0.3,1.3,0.5,2,0.4c0.4,0,0.9,0.2,1.4,0.2c0.7,0,1.4,0.1,2,0
		C178.5,87.2,179.7,87.5,181,87.9z"/>
	<path d="M75.1,23.8c0,0.6,0.1,1.2,0.1,1.7c-0.3,0.9-1,1.1-1.7,1.3c-1.7,0.4-3.4,0.8-5.1,0.8c-1.3,0.1-2.5,0.3-3.8,0.5
		c-0.2,0-0.5,0.1-0.7,0.1c-1.1-0.1-2.2,0.1-3.2,0.3c-1.1,0.2-2.2,0.1-3.2-0.4c-0.4-0.2-0.8-0.3-0.9-0.3c-1.8-1.1-1.8-2.6-1.5-4.2
		c0.3-1.3,0.2-2.6,0.1-3.9c-0.3-2-0.4-4.1-0.6-6.2c-0.1-0.7-0.2-1.4-0.3-2c-0.1-0.6-0.2-1.2-0.3-1.9c-0.1-0.8-0.1-0.8,0.3-2.1
		c0.7-0.5,1.5-0.5,2.3-0.4c1.1,0.1,2.1,0.3,3,1.3c0.3,0.9,0.6,2,0.6,3.1c0,1.7,0.3,3.3,0.5,5c0.2,1.5,0.4,3,0.6,4.4
		c0.1,0.7,0.3,1.3,0.4,1.9c0.5,0.5,1,0.7,1.5,0.7c2.1,0.1,4.1,0.2,6.2-0.3C71.3,22.7,73.2,23.2,75.1,23.8z"/>
	<path d="M219.6,87.5c-0.2,0.7-0.4,1.5-1.1,2.2c-0.7,0.1-1.4,0.2-2.2,0.3c-0.6-0.2-1.3-0.4-2-0.6c-0.8-1-1.2-2-1.2-3.2
		c0-1.6-0.1-3.2-0.3-4.8c-0.2-2.1-0.4-4.2-0.6-6.3c-0.1-0.7-0.1-1.5-0.1-2.2c-0.1-1.5-0.3-3-0.5-4.4c-0.1-0.6,0.1-1.1,0.5-1.6
		c0.9-0.4,1.9-0.6,2.9-0.1c0.4,0.2,0.9,0.3,1.3,0.3c0.7,0.1,1.2,0.4,1.6,1c0.2,0.6,0.3,1.2,0.2,1.8c-0.4,2.1-0.1,4.1,0.1,6.2
		c0.1,1,0.2,2.1,0.3,3.1c0.2,1.7,0.3,3.3,0.5,5C219.1,85,219.3,86.1,219.6,87.5z"/>
	<path d="M254,10.7c0.5-0.2,0.9-0.4,1.4-0.6c1.2,0.6,2.5,0.3,3.7,0.5c0.8,0.4,1.1,1,1.1,1.8c0,0.4,0,0.8-0.1,1.2
		c-0.5,1.9-0.3,3.9-0.2,5.8c0.1,1.7,0.3,3.4,0.4,5.1c0.1,1.3,0.3,2.6,0.5,3.9c0.1,0.4,0.3,0.9,0.5,1.2c0.6,0.7,0.6,1.5,0.2,2.2
		c-0.2,0.4-0.4,0.7-0.5,0.9c-1.9,1-3.5,0.5-5.1-0.3c-0.7-0.9-0.8-1.9-1-3c-0.5-3.2-0.7-6.5-0.9-9.7c-0.1-1.4,0-2.8-0.1-4.1
		c0-0.9,0-1.7-0.1-2.6C253.7,12.3,253.8,11.6,254,10.7z"/>
	<path d="M154,26.9c0-0.1,0-0.3,0-0.4c0,0,0.1,0,0.1,0c0,0.1,0,0.3,0,0.4C154.1,26.9,154.1,26.9,154,26.9z"/>
	<path d="M239.5,91.5C239.5,91.5,239.6,91.6,239.5,91.5c0.1,0.1,0.1,0.1,0.1,0.2c0,0-0.1,0-0.1,0C239.4,91.6,239.5,91.6,239.5,91.5z
		"/>
	<polygon points="199.9,18.6 200,18.7 200,18.6 	"/>
	<path d="M200,18.6c-0.1-0.1-0.2-0.2-0.3-0.4c0,0,0,0,0,0C199.7,18.4,199.8,18.5,200,18.6C199.9,18.6,200,18.6,200,18.6z"/>
	<polygon points="199.7,18.2 199.5,18.2 199.6,18.2 	"/>
</g>
</svg>
