<?xml version="1.0" encoding="utf-8"?>
<!-- Generator: Adobe Illustrator 18.1.1, SVG Export Plug-In . SVG Version: 6.00 Build 0)  -->
<svg version="1.1" id="Layer_1" xmlns="http://www.w3.org/2000/svg" xmlns:xlink="http://www.w3.org/1999/xlink" x="0px" y="0px"
	 viewBox="0 0 235.6 78" enable-background="new 0 0 235.6 78" xml:space="preserve">
<g>
	<path d="M14.1,50c1.1-0.2,2.1-0.2,3.3-0.3c0.9,0,1.9-0.1,2.9-0.2l1.9-0.2c1.7-0.2,3.4-0.4,5.1-0.6c1.2-0.2,2.4-0.5,3.6-0.7
		c0.8-0.2,1.5-0.4,2.3-0.5c0,0.1,0.1,0.2,0.1,0.3l1.4,4.6c1.5,5,3,10.1,4.5,15.2c0.5,1.6,0.8,3.3,1.2,4.9c0.2,0.8,0.3,1.5,0.5,2.3
		l0,0.2L41,75c1,1.6,2.4,2.5,4.2,2.9l0.2,0l0.2,0c1.2-0.1,1.9-0.8,2.4-1.2c0.1-0.1,0.2-0.2,0.3-0.3l0.4-0.3l0.1-0.5
		c0.2-1.6,0.2-1.9-0.2-3l-0.3-0.7c-0.4-1-0.8-1.9-1.1-2.8c-0.5-1.7-1.1-3.3-1.6-4.9c-0.8-2.5-1.7-5-2.4-7.6
		c-0.3-1.3-0.8-2.6-1.2-3.8c-0.4-1.2-0.8-2.5-1.1-3.8c-0.1-0.4-0.2-0.7-0.3-1.1c-0.2-0.8-0.5-1.6-0.6-2.4c1.1-0.4,2.4-1,3-2.6
		l0.1-0.2l0-0.2c0.3-2.4-0.9-4.1-3.4-4.9l-0.2-0.1h-0.2c-0.4,0-0.7,0.1-1.1,0.2c-0.1,0-0.2,0-0.2,0.1c-0.7-2.3-1.2-4.7-1.7-7
		c-0.3-1.4-0.6-2.8-0.9-4.1c-0.4-1.7-0.7-3.5-1-5.3c-0.2-0.9-0.3-1.8-0.5-2.6c-0.1-0.4-0.1-0.7-0.2-1.1c-0.2-1-0.4-2.1-0.7-3.2
		c-0.9-3.3-1-6.2-0.5-9c0.3-1.6-0.3-2.9-0.9-3.8c-0.9-1.4-2.3-2-3.8-1.6c-0.2,0-0.4,0.1-0.5,0.1c-0.7,0.1-1.7,0.3-2.5,0.9l-0.1,0.1
		l-0.1,0.1c-1.3,1.9-0.9,3.7-0.5,5.2c0,0.1,0.1,0.3,0.1,0.4l-0.4,0.7c-0.4,0.8-0.9,1.6-1.3,2.4c-1.4,2.7-2.8,5.5-4.2,8.3l-0.1,0.2
		c-0.2,0.4-0.4,0.8-0.6,1.2c-0.3,0.9-0.6,1.7-1,2.6c-0.4,1-0.8,2.1-1.2,3.1c-0.2,0.6-0.5,1.3-0.8,1.9c-0.4,1.1-0.9,2.2-1.3,3.4
		c-0.9,2.7-1.8,5.5-2.8,8.2c-0.5,1.5-1,3.1-1.5,4.6c0,0.1-0.1,0.2-0.2,0.4c-0.3,0.1-0.6,0.1-0.9,0.2c-1.5,0.3-3.2,0.7-4.6,2.1
		l-0.3,0.3L2.9,49l0.4,0.4c1,1,1.4,1.5,2.8,1.5c0.1,0,0.2,0,0.4,0c-0.8,1.9-1.7,4-2.7,6.1c-0.4,0.9-1.1,1.8-1.8,2.4
		c-0.5,0.4-0.9,0.9-1.3,1.4c-0.7,0.9-0.8,1.9-0.4,3c0.6,1.6,2.1,2.6,3.8,2.6c0.5,0,0.9-0.1,1.4-0.2c0.3-0.1,0.5-0.2,0.7-0.3l0.5-0.3
		l0.2-0.3c0.3-0.4,0.5-0.9,0.8-1.3C8.3,63,8.9,62,9.4,61c1.7-3,3.1-6.3,4.4-10.3C13.9,50.5,14,50.3,14.1,50z M31.5,40.4
		c-1,0.4-1.8,0.7-2.7,0.9c-3.3,0.7-7.6,1.6-12.1,1.8c-0.1,0-0.2,0-0.3,0c0.3-1.1,0.7-2.2,1.1-3.3l0.2-0.5c1.1-3.1,2.2-6.4,3.3-9.6
		c0.5-1.4,1.1-2.8,1.9-4.6c1.2-2.6,2.2-4.9,3.3-7.1l0.3,1.2c0.7,3.1,1.4,6.2,2,9.2c0.4,1.9,0.9,3.8,1.4,5.6
		C30.5,36,31.1,38.2,31.5,40.4z"/>
	<path d="M235.2,12l-2.5-2.5L232,9.6c-2.6,0.6-2.9,0.8-4.2,3l-0.1,0.1c-0.3,0.6-0.7,1.1-1,1.7c-0.6,1-1.3,2-1.9,3.1
		c-1.4-3.4-3.1-6.4-5.4-8.9c-1.5-1.7-3.3-3-5.5-4c-1.7-0.7-3.4-0.8-5.1,0c-1.1,0.5-2.1,1.1-2.9,2c-0.7,0.7-1.3,1.5-1.9,2.2
		c-0.1-0.4-0.2-0.9-0.6-1.3c-1-1.3-2.3-1.9-3.8-1.9c-1.3,0-2.3,0.6-2.8,1.7c-0.3,0.7-0.5,1.5-0.6,2.2c-0.1,0.4-0.1,0.8-0.1,1.2
		c0,0.4-0.1,0.8-0.1,1.2c-0.4,1.8-0.8,3.5-1.3,5.3l-0.6,2.4c-0.1,0.5-0.2,1-0.3,1.4c-0.2,0.7-0.3,1.4-0.5,2.1
		c-0.6,2.3-1.2,4.6-1.8,7l-1.9,7.3c-0.5-0.4-1-0.7-1.4-1.2c-0.7-1-1.6-2.1-2.6-3.3c-2.1-2.4-3.8-5-5.5-7.6l-0.3-0.4
		c-0.4-0.7-0.7-1.2-0.8-1.8c-0.2-1.7-1.1-3-2.5-3.7c0,0-0.1-0.1-0.1-0.1c-0.1-0.1-0.2-0.1-0.2-0.2l-0.2-0.2l-0.8-0.1
		c-0.5-0.1-1-0.2-1.5-0.2c-1-0.1-2,0.4-2.6,1.2c-1.1,1.7-1,4,0.3,5.5c0.4,0.5,0.9,0.9,1.4,1.3c0.2,0.1,0.3,0.3,0.5,0.5
		c0.1,0.1,0.3,0.2,0.4,0.4c0.1,0.1,0.3,0.3,0.4,0.3l0.7,1c1.6,2.4,3.3,5,5.2,7.3c1.5,1.8,2.9,3.7,4.4,5.6l0.3,0.4
		c0.5,0.7,1.1,1.3,1.3,2.1c0.1,0.5,0.5,0.9,0.7,1.1l0.1,0.1c0.3,0.3,0.5,0.6,0.8,0.9c-0.3,1.5-0.6,3.1-1,4.5
		c-0.5,2.3-1.1,4.7-1.4,7.2c-0.4,1.1-0.6,2.2-0.9,3.3c-0.5,1.9-0.9,3.8-1.9,5.4c-0.1,0.2-0.2,0.5-0.3,0.7c-0.4,1.7-0.1,3.3,0.8,4.5
		c0.8,1,1.9,1.6,3.1,1.6c0.4,0,0.7,0,1.1-0.1l0.7-0.1l0.2-0.6c0.1-0.2,0.2-0.4,0.2-0.6c0.2-0.5,0.4-0.9,0.5-1.5c0.6-2.2,1-4,1.4-5.7
		c0.5-2.1,0.9-4.2,1.3-6.3l0.3-1.6c0.2-0.7,0.3-1.5,0.4-2.2c0.3-1.3,0.5-2.7,0.8-4.1c0.3-1.4,0.7-2.8,1.1-4.2c0.3-1,0.5-2,0.8-3
		c0.3-1.1,0.6-2.3,0.8-3.4c0.3-1.2,0.6-2.4,0.9-3.6c0.4-1.5,0.8-3.1,1.2-4.6c0.6-2.2,1.1-4.4,1.7-6.6l0.3-1.3c0.2-1,0.5-1.9,0.7-2.9
		c0,1.2,0.2,2.4,0.5,3.6c0.8,2.9,2.6,5.5,5.5,8c1.5,1.3,3.1,2.4,4.6,3.5c0.7,0.5,1.4,1,2.1,1.5c0.5,0.4,1,0.8,1.5,1.2
		c1.3,1.1,2.4,2.3,3.3,3.5c1,1.2,1.7,2.7,2.1,4.6c0.1,0.5,0,1-0.3,1.3l-0.2,0.2c-0.9,1-1.8,2-2.9,2.6l-0.7,0.4
		c-1.6,0.9-3.4,1.9-5.1,2.7c-2.1,1-4,1.6-5.9,1.7c-0.2-0.1-0.4-0.2-0.7-0.3c-0.7-0.2-1.4-0.6-1.5-2c-0.1-0.7-0.1-1.5-0.2-2.2
		c-0.1-1.4-1-2.1-1.7-2.4l-0.6-0.3l-0.6,0.3c-0.1,0-0.2,0.1-0.3,0.1c-0.3,0.1-0.6,0.3-0.9,0.5c-0.3,0.2-0.5,0.5-0.7,0.7
		c-0.1,0.1-0.1,0.1-0.2,0.2l-0.3,0.3l-0.1,0.6c0,0.1,0,0.2-0.1,0.3c-0.8,2.6-0.2,5.1,1.7,7.5c1.2,1.6,2.8,2.3,4.3,3l0.5,0.2
		c0.5,0.2,1,0.2,1.3,0.2l0.2,0c0.2,0,0.4,0,0.7,0c2.6,0,4.8-0.5,6.8-1.5c0.6-0.3,1.1-0.6,1.7-0.9c1.5-0.7,3-1.5,4.4-2.3
		c1.5-0.9,3.3-1.9,4.9-3.2c2.4-1.9,3.5-4.6,3.1-7.4c-0.3-2.1-1-4.1-2-5.9c-1.8-3.1-4-5.7-6.9-7.9c-1.3-1-2.7-2.1-4.6-3.4
		c-2.1-1.6-4.1-3.2-5.3-5.5c-0.6-1.2-0.9-2.3-0.8-3.4c0.3-2.8,1-5.2,2.1-7.2c0.4-0.7,1-1.4,1.6-2.1c0.5-0.5,0.9-0.5,1-0.5
		c0.3,0,0.7,0.1,1.1,0.4c0.9,0.6,1.8,1.5,2.5,2.7c1.4,2.3,2.6,4.9,3.4,8c0.3,1,0.3,1.8,0.1,2.4c-0.8,2.3-0.2,4.4,1.8,6.3
		c0.1,0.1,0.3,0.2,0.5,0.4l0.5,0.4l0.4,0c0.2,0,0.3,0,0.5,0c0.4,0,0.9,0,1.4,0c1.8-0.1,2.8-1,3.2-2.9c0-0.2,0.1-0.4,0.1-0.7
		c0.1-1.2,0.5-2.3,1.2-3.5c1.4-2.3,2.5-4.2,3.5-5.8c0.3-0.4,0.7-0.9,1.2-1.3c2-1.6,2.3-2.6,1.6-5.2L235.2,12z"/>
	<path d="M124.6,60c0.2-0.5,0.4-0.9,0.6-1.4l0.1-0.3c0.1-0.3,0.2-0.5,0.3-0.8c0.1-0.4,0.3-0.8,0.5-1.2c1-2.2,2.1-4.4,3.1-6.5
		c0.3-0.5,0.5-1,0.8-1.6c0.3-0.5,0.6-1.1,0.9-1.6c0.7-1.4,1.3-2.7,1.9-4.1c1.1-2.4,2.3-4.8,3.5-7.1l0.1-0.3c1.4-2.5,2.7-4.9,4.5-7
		l0.1-0.2c1.1-1.3,2.2-2.6,3.4-3.7c0.9-0.8,2-1.9,2.3-3.6l0-0.3l-0.1-0.3c-0.4-1.5-1.2-2.6-2.3-3.3c-0.6-0.4-1.4-0.6-2.1-0.6
		c-1.4,0-2.6,0.7-3.2,1.9c-0.7,1.3-1.6,2.4-2.7,3.6c-0.6,0.7-1.2,1.4-1.7,2.2l-0.4,0.6c-0.8,1.1-1.6,2.2-2.3,3.4
		c-1.5,2.7-2.8,5.4-4,8c-2,4.5-4.3,8.8-6.1,12c-0.2,0.4-0.5,0.8-0.7,1.2c-1.8-5.6-3.6-11.4-5-17.2c-0.1-0.4-0.2-0.7-0.3-1.1
		c-0.4-1.4-0.7-2.8-0.4-4.1c0.1-0.5,0-1,0-1.4c0-0.1,0-0.2,0-0.3c-0.1-0.7-0.2-1.5-0.3-2.2c-0.2-1.8-1.2-3.1-2.7-4
		c-1.8-1-3.5-0.9-5,0.3l-0.2,0.2c-0.7-0.8-1.7-1.1-3.4-1.4l-0.3-0.1l-0.3,0.1c-1.1,0.2-1.9,0.8-2.7,1.8c-1.5,2-2.6,3.8-3.3,5.7
		c-1,2.7-1.8,5.4-2.5,8.1l-0.4,1.5c-1,3.6-2.1,7.3-3.2,10.8c-0.3,0.9-0.6,1.8-0.8,2.8c-0.6-1.7-1.2-3.5-1.7-5.2
		c-0.2-0.7-0.4-1.3-0.6-1.9c-0.1-0.3-0.2-0.6-0.3-0.8l-0.3-0.9c-0.3-0.8-0.5-1.5-0.8-2.3c-0.3-1.1-0.7-2.2-1-3.4
		c-0.6-2.2-1.3-4.5-2.1-6.7c-0.6-1.7-1.1-3.5-1-5.3l0-0.4L81,19.1l-3-1.2l-3,1.1l-1.2,3.2l1.4,2.4c0.1,0.3,0.3,0.5,0.5,0.8
		c0.3,0.5,0.6,0.9,0.7,1.4c1.1,3,2,5.4,2.8,7.7c0.8,2.4,1.5,4.8,2.3,7.1l0.8,2.5c0.4,1.2,0.7,2.3,1.1,3.5c0.6,1.9,1.2,3.7,1.8,5.6
		l0.1,0.3c0.5,1.4,0.9,2.8,0.9,4.2c0,0.6,0.1,1.2,0.2,1.7l0,0.2c0.4,2,2.4,3.5,4.6,3.5c0.7,0,1.3-0.1,1.9-0.4c1.2-0.6,1.9-1.6,2.2-3
		c0-0.3,0.1-0.6,0.1-0.9c0.1-0.5,0.1-1,0.2-1.4c0.6-2,1.2-4,1.8-6c0.3-0.9,0.6-1.8,0.8-2.7c0.2-0.6,0.4-1.3,0.6-1.9
		c0.5-1.6,1-3.2,1.4-4.9c1.3-5,2.5-9.2,4-13.4c0.6-1.7,1.4-2.8,2.5-3.7l0.1-0.1c0,0,0,0,0.1,0c0.2,0.6,0.5,1.1,0.8,1.7
		c0.1,0.1,0.1,0.4,0.2,0.6l0.6,1.9c0.8,2.8,1.7,5.5,2.5,8.3c0.5,1.6,0.9,3.1,1.4,4.7c0.5,1.9,1.1,3.7,1.6,5.6c0.3,1,0.6,2,1,3.1
		c0.4,1.2,0.8,2.5,1.1,3.7c0.2,0.6,0.2,1.2,0.3,1.8l0.1,0.6c0.1,0.7,0.2,1.4,0.2,2.1l0.2,1.7l1.3,0.6c0.5,0.2,1,0.4,1.5,0.6
		c0.3,0.1,0.7,0.3,1.2,0.4c0.4,0.1,0.7,0.1,1.1,0.1C123.4,62.1,124.2,60.9,124.6,60z"/>
	<path d="M145.9,35.4c-0.3,1,0.1,2.1,0.9,3c0.2,0.2,0.4,0.4,0.6,0.6c0,0.1-0.1,0.2-0.1,0.3c-0.3,0.8-0.6,1.6-0.9,2.4
		c-0.4,1.1-0.8,2.2-1.1,3.3c-0.8,2.2-1.5,4.3-2.6,6.1c-0.8,1.4-1.2,2.8-1.1,4.4l0,0.4l0.2,0.3c0.7,1,1.5,1.9,2.4,2.6l0.4,0.3l0.5,0
		c2.1,0,3.5-1.3,3.9-3.4c0.3-1.5,0.7-2.9,1.3-4.4l0.1-0.3c0.8-2.3,1.5-4.6,2.2-6.8c0.4-1.2,0.8-2.4,1.1-3.6c0-0.1,0.1-0.3,0.1-0.5
		c0.1-0.2,0.1-0.4,0.2-0.5c1-0.1,2.5-0.2,4-0.2c0.8,0,1.5,0,2.1,0.1c0,0.1,0,0.2,0.1,0.3c0.1,0.9,0.3,1.8,0.4,2.8
		c0.3,1.9,0.5,3.8,0.9,5.7c0.1,0.6,0.2,1.2,0.1,1.7c-0.2,0.6-0.1,1.1-0.1,1.5c0,0.1,0,0.3,0,0.4c-0.1,1.6,0.5,3.7,3.4,4.9l0.2,0.1
		l3,0l0.4-0.6c0.9-1.3,1.7-3,0.7-5.1c-0.5-1-0.9-2.2-1.1-3.5c-0.4-1.8-0.7-3.7-1-5.6c-0.2-1-0.3-2-0.5-3c-0.1-0.7-0.1-1.2,0.1-1.7
		c0.5-1.3,0.4-2.7-0.3-3.9c-0.4-0.7-0.6-1.5-0.7-2.7l-0.2-2.8c-0.2-2.1-0.3-4.1-0.5-6.2c-0.1-1.8-0.5-3.6-1.2-5.6
		c-0.3-0.9-0.9-1.7-1.8-2.2c-0.8-0.5-1.7-0.9-2.9-0.9c-0.3,0-0.6,0-0.9,0.1l-0.4,0.1l-0.3,0.3c-0.1,0.1-0.2,0.2-0.3,0.3
		c-0.4,0.4-0.8,0.9-1.2,1.5c-0.8,1.6-1.7,3.4-2.3,5.3c-1,2.9-2,6-3,8.9c-0.3,1-0.7,2-1,3l-0.1,0c-0.5,0.2-1,0.3-1.5,0.5
		C146.9,33.7,146.1,34.4,145.9,35.4z M156.6,32.3c0.4-1.6,1.2-4.3,2-6.4c0.2,1.9,0.5,4.2,0.6,6.1C158.3,32.3,157.5,32.3,156.6,32.3z
		"/>
	<path d="M61,59C61.1,59,61.1,59,61,59c2.9-0.3,6.2-0.6,9.6-1.2c0.8-0.1,1.5-0.4,2.3-0.8c1.1-0.6,1.7-1.3,2-2.2
		c0.3-1.3-0.3-2.5-0.8-3.3l-0.4-0.6l-0.8,0c-0.2,0-0.4,0-0.6,0c-0.5,0-1.1,0-1.7,0.1c-0.9,0.1-1.9,0.3-2.8,0.5
		c-0.7,0.1-1.3,0.2-2,0.3l-0.7,0.1c-1.1,0.2-2.3,0.4-3.4,0.5c-0.2,0-0.5,0-0.7,0c-0.7,0-1.1-0.1-1.6-0.4c0,0,0,0,0,0
		c-0.1-0.3-0.2-0.6-0.2-0.9c-0.1-0.9-0.2-1.9-0.3-2.8c-0.1-1.3-0.3-2.5-0.5-3.8c-1-7.3-1.5-14.7-1.9-21.1c-0.1-1.6-0.1-3.4,0.8-4.9
		l0.2-0.3l-0.1-0.9c-0.1-1-0.1-2.2-0.9-3.3l-0.3-0.4l-3.7-1.1l-0.5,0.3c-1.2,0.8-1.9,1.7-2.1,3.1c-0.2,1.2-0.2,2.5,0,3.8l0.1,0.3
		c0.1,0.4,0.1,0.8,0.1,1.1c-0.1,1.5,0,2.9,0.2,4.1c0.2,1.5,0.3,3,0.4,4.4c0.1,1.3,0.2,2.6,0.3,3.9c0.1,1.5,0.2,3.1,0.3,4.6l0,0.6
		c0.3,3.8,0.6,7.8,1,11.7c0.1,1.1,0.1,2.1-0.4,3c-0.7,1.5-1,3.7,1.5,6c1.2,1.1,2.6,1.6,4.2,1.6l0.2,0l0.2,0
		C59.7,60.6,60.5,59.7,61,59z"/>
</g>
</svg>
