<?xml version="1.0" encoding="utf-8"?>
<!-- Generator: Adobe Illustrator 18.1.1, SVG Export Plug-In . SVG Version: 6.00 Build 0)  -->
<svg version="1.1" id="Layer_1" xmlns="http://www.w3.org/2000/svg" xmlns:xlink="http://www.w3.org/1999/xlink" x="0px" y="0px"
	 viewBox="0 0 612 796" enable-background="new 0 0 612 796" xml:space="preserve">
<path fill="#FFFFFF" d="M420,542.2c0,2.4,0.8,4.8,0.8,7.3c10.5,9.7,9.7,22.6-2.4,28.2c0,1.6-0.8,3.2-1.6,5.6c-2.4,0-4,0-7.3,0
	c-2.4,4-5.6,8.1-8.9,12.9c-3.2,6.4-6.4,12.1-8.9,19.3c-1.6,4.8-2.4,9.7-2.4,14.5c-1.6,12.1-4,24.2-4,37.1c0,11.3-1.6,21.8-2.4,33
	c-0.8,5.6-0.8,11.3-0.8,17.7c0,2.4,0.8,4.8,1.6,8.1c-0.8,2.4-1.6,5.6,0.8,8.9c0.8,0.8,0.8,3.2,0.8,4.8c0.8,4.8,1.6,10.5,5.6,15.3
	c-1.6,4-2.4,4.8-4,8.9l0,0c0,2.4-0.8,5.6-0.8,8.1c0,1.6,0,2.4,0.8,4l0,0c0.8,3.2,2.4,6.4,0,10.5c-1.6,1.6-4,2.4-5.6,4.8
	c-3.2,3.2-7.3,4-10.5,4c-7.3,0-14.5-1.6-19.3-8.9c-1.6-2.4-4.8-4.8-7.3-6.4c-8.1-5.6-13.7-12.9-17.7-21.8c-1.6-4-4.8-6.4-8.1-11.3
	c-0.8-5.6-4-11.3-7.3-16.1c-6.4-11.3-11.3-21.8-17.7-29.8c-9.7-12.1-18.5-25-30.6-34.6c-9.7-8.1-17.7-17.7-25.8-25.8
	c-0.8-0.8-2.4-0.8-3.2-1.6c-5.6-4-7.3-14.5-3.2-19.3c1.6-1.6,4-2.4,6.4-4c-0.8-1.6-2.4-2.4-3.2-3.2c-12.1-8.9-24.2-16.9-37.9-22.6
	c-4.8-2.4-8.1-5.6-12.1-10.5c-0.8-5.6,4-8.9,6.4-12.9c1.6-2.4,3.2-2.4,4.8-3.2c0-0.8,0-1.6,0-2.4c-1.6-7.3,0-11.3,7.3-12.9
	c6.4-1.6,12.1-1.6,18.5,1.6c13.7,7.3,25,17.7,37.1,26.6c3.2,2.4,5.6,4.8,8.9,7.3c10.5,11.3,21.8,22.6,32.2,33
	c1.6,1.6,2.4,2.4,4.8,3.2c-6.4-37.1-12.9-73.3-19.3-110.4c-7.3-34.6-85.4-446.4-88.6-485c0.8-1.6,2.4-4,4.8-5.6
	c2.4-2.4,3.2-4.8,2.4-7.3l0,0c4-2.4,0-6.4,2.4-9.7c4.8-1.6,10.5-2.4,16.1-1.6c4.8,0.8,8.1,4.8,9.7,8.9c4,8.9,4.8,17.7,6.4,26.6
	c2.4,13.7,5.6,26.6,8.9,38.7c2.4,10.5,74.1,396.4,75.7,406.9c2.4,12.1,4,24.2,6.4,36.3c1.6,7.3,4,14.5,5.6,21.8
	c2.4,8.1,4,16.9,5.6,25c2.4,12.1,5.6,24.2,8.1,36.3c0.8,2.4,0,5.6,0,8.1h-0.8h0.8c0.8,0.8,2.4,1.6,3.2,2.4c0.8-0.8,1.6-0.8,2.4-0.8
	c2.4-4,4.8-8.1,8.1-11.3c6.4-7.3,7.3-16.1,8.9-25c0.8-4,1.6-8.1,4.8-9.7c1.6-3.2,4-5.6,4.8-8.9c2.4-4.8,4.8-10.5,5.6-16.1
	c0.8-5.6,4-8.9,7.3-12.9c0.8-1.6,4-2.4,6.4-2.4c3.2-0.8,5.6-0.8,9.7-1.6c4.8,1.6,9.7,4,12.1,10.5c0.8,1.6,0,3.2,0,4.8l0,0
	c-1.6,0-2.4,0-5.6-0.8C418.4,540.6,419.2,541.4,420,542.2L420,542.2z M320.1,491.5L320.1,491.5c0,1.6,0,2.4,0,4c0.8,0,0.8,0,1.6,0
	C321.7,493.9,320.9,492.3,320.1,491.5z M311.2,460.1c-4.8-0.8-8.9-1.6-12.9-2.4C300.8,463.3,304,464.1,311.2,460.1z M315.3,471.3
	c0-1.6,0.8-3.2,0-4c-1.6-2.4-5.6-2.4-8.9-0.8C308.8,467.3,311.2,468.9,315.3,471.3z M332.2,565.6c2.4,3.2,4.8,4.8,7.3,8.1
	C337.8,566.4,337.8,566.4,332.2,565.6z M239.5,63.7c1.6-3.2,0.8-5.6-1.6-7.3C236.3,59.6,237.1,61.2,239.5,63.7z M316.1,475.4
	c-0.8,2.4-1.6,3.2-1.6,4.8c1.6,0.8,3.2,0.8,5.6,1.6C318.5,478.6,317.7,477.8,316.1,475.4z M331.4,543.8c0-0.8-0.8-0.8-0.8-1.6
	c-1.6,0.8-4,1.6-6.4,2.4C327.4,547.1,329.8,545.5,331.4,543.8z M333.8,556.7h0.8c0-1.6-0.8-2.4-0.8-4H333
	C333,554.3,333.8,555.9,333.8,556.7z M240.3,71.7c0,0.8,0,1.6,0,2.4h0.8c0-0.8,0.8-1.6,0-1.6C241.9,71.7,241.1,71.7,240.3,71.7z
	 M226.6,57.2c0,0.8,0,0.8,0,1.6c0.8,0,2.4,0,3.2,0V58C229.1,57.2,228.3,57.2,226.6,57.2z M204.9,38.7c0.8,0,1.6,0,2.4-0.8v-0.8
	c-0.8,0-1.6-0.8-1.6,0C204.9,37.1,204.9,37.9,204.9,38.7z M286.3,496.3c-0.8,0-0.8,0.8-1.6,0.8c0.8,0.8,0.8,1.6,1.6,2.4
	c0,0,0.8,0,0.8-0.8C287.1,498.7,286.3,497.9,286.3,496.3z M276.6,601.9c0,0,0,0.8,0.8,0.8s0.8-0.8,1.6-0.8V601
	C278.2,601.9,277.4,601.9,276.6,601.9z M304.8,481c0,0,0,0.8,0.8,0.8h0.8V481C305.6,481,305.6,481,304.8,481z M262.9,585.7h-0.8v0.8
	h0.8C262.9,586.5,262.9,585.7,262.9,585.7z M319.3,500.3v0.8h0.8v-0.8C319.3,500.3,319.3,500.3,319.3,500.3z M224.2,43.5
	C224.2,43.5,225,43.5,224.2,43.5C225,43.5,225,42.7,224.2,43.5C224.2,42.7,224.2,42.7,224.2,43.5L224.2,43.5z M225.8,50.8
	L225.8,50.8C225.8,51.6,226.6,51.6,225.8,50.8C226.6,51.6,226.6,50.8,225.8,50.8C226.6,50.8,225.8,50.8,225.8,50.8z M280.6,453.6
	C281.4,453.6,281.4,452.8,280.6,453.6C281.4,452.8,281.4,452.8,280.6,453.6C281.4,452.8,280.6,452.8,280.6,453.6z M299.2,466.5
	C299.2,466.5,300,466.5,299.2,466.5C300,465.7,300,465.7,299.2,466.5L299.2,466.5z M304.8,490.7C304,490.7,304,490.7,304.8,490.7
	C304,490.7,304,490.7,304.8,490.7C304,491.5,304,491.5,304.8,490.7C304.8,491.5,304.8,490.7,304.8,490.7z M290.3,615.6
	C290.3,615.6,290.3,614.7,290.3,615.6C290.3,614.7,290.3,615.6,290.3,615.6C289.5,615.6,290.3,615.6,290.3,615.6L290.3,615.6z
	 M250.8,585.7L250.8,585.7L250.8,585.7L250.8,585.7z M327.4,523.7L327.4,523.7L327.4,523.7L327.4,523.7z M291.1,489.9
	C291.1,489.9,291.9,489.9,291.1,489.9C291.9,489.9,291.9,489.9,291.1,489.9C291.9,489.9,291.9,489.9,291.1,489.9z M234.7,40.3v0.8
	C234.7,41.1,234.7,41.1,234.7,40.3C234.7,41.1,234.7,41.1,234.7,40.3z"/>
</svg>
