<?xml version="1.0" encoding="utf-8"?>
<!-- Generator: Adobe Illustrator 18.1.1, SVG Export Plug-In . SVG Version: 6.00 Build 0)  -->
<svg version="1.1" id="Layer_1" xmlns="http://www.w3.org/2000/svg" xmlns:xlink="http://www.w3.org/1999/xlink" x="0px" y="0px"
	 viewBox="0 0 46.2 85.3" enable-background="new 0 0 46.2 85.3" xml:space="preserve">
<path fill="#FFFFFF" d="M4.1,55.2c0.1-0.1,0.2-0.2,0.5-0.4c-0.3-0.1-0.5-0.1-0.6-0.1l0,0C4,54.5,4,54.3,4.1,54.1
	c0.5-0.6,1.2-0.8,1.8-0.8c0.5,0.2,0.8,0.3,1.1,0.5c0.2,0.1,0.5,0.3,0.6,0.5C7.8,54.8,8.1,55.3,8,56c-0.1,0.6,0,1.3,0.1,2
	c0,0.3,0.1,0.7,0.3,1.1c0.3,0.3,0.3,0.7,0.3,1.3c-0.1,1.1-0.3,2.1,0.2,3.1C9,64,9.2,64.5,9.3,65c0,0.1,0.1,0.1,0.2,0.2
	c0.1-0.1,0.3-0.1,0.4-0.2c0,0,0.1,0,0.1,0c0,0-0.1,0-0.1,0c0.1-0.3,0.1-0.6,0.3-0.9c0.7-1.3,1.4-2.6,2.1-3.9c0.5-0.9,1-1.8,1.5-2.7
	c0.4-0.8,0.9-1.5,1.3-2.3c0.7-1.3,1.3-2.6,1.9-3.9c0.6-1.1,21.1-42.7,21.7-43.8c0.7-1.4,1.5-2.7,2.3-4.1c0.5-0.9,0.9-2,1.6-2.8
	C43.1,0.3,43.5,0,44.1,0c0.7,0.1,1.3,0.3,1.8,0.7c0.1,0.5-0.4,0.8-0.1,1.2l0,0c-0.2,0.3-0.2,0.5,0,0.9C46,3,46.1,3.3,46.2,3.5
	C44.6,7.8,22.5,52,20.5,55.9c-2,3.9-3.8,7.9-5.8,11.9c0.3,0,0.5-0.1,0.7-0.2c1.6-0.9,3.2-1.9,4.7-2.8c0.4-0.2,0.8-0.4,1.2-0.6
	c1.7-0.6,3.3-1.4,5.1-1.9c0.8-0.2,1.5,0,2.1,0.4c0.7,0.4,0.9,1,0.4,1.7c0,0.1-0.1,0.1-0.1,0.2c0.2,0.1,0.3,0.2,0.5,0.2
	c0.1,0.6,0.6,1.1,0.3,1.7c-0.6,0.5-1,0.8-1.7,0.8c-1.7,0.2-3.4,0.8-5,1.4c-0.2,0.1-0.3,0.2-0.5,0.3c0.2,0.2,0.5,0.4,0.6,0.7
	c0.3,0.7-0.3,1.9-1,2.1c-0.1,0-0.3,0-0.4,0.1c-1.3,0.7-2.5,1.5-3.8,2.1c-1.7,0.7-3.1,1.9-4.6,3c-1,0.7-1.9,1.7-2.9,2.5
	c-0.6,0.5-1.1,1-1.4,1.6c-0.5,0.4-1,0.6-1.3,1c-0.8,0.9-1.6,1.5-2.7,1.9c-0.4,0.1-0.7,0.3-1,0.5c-0.8,0.6-1.6,0.6-2.5,0.3
	c-0.4-0.1-0.9-0.3-1.1-0.8c-0.1-0.3-0.3-0.5-0.5-0.7c-0.1-0.5,0.2-0.8,0.4-1.2l0,0c0.1-0.1,0.2-0.3,0.2-0.4c0.1-0.3,0.1-0.6,0.2-0.9
	l0,0c-0.1-0.5-0.1-0.6-0.2-1.1c0.6-0.4,0.8-1,1.1-1.5c0.1-0.2,0.1-0.4,0.3-0.5c0.4-0.3,0.4-0.7,0.4-1c0.2-0.4,0.4-0.6,0.5-0.9
	c0.2-0.7,0.4-1.3,0.5-2c0.3-1.3,0.4-2.6,0.7-3.8c0.4-1.4,0.5-2.9,0.7-4.3c0.1-0.6,0.2-1.1,0.1-1.7c-0.1-0.8-0.2-1.6-0.4-2.4
	c-0.1-0.6-0.4-1.2-0.6-1.7C3.6,60,3.4,60,3.2,59.9c0-0.3,0-0.5,0-0.7c-1.2-1-0.9-2.6,0.6-3.3C3.9,55.7,4,55.4,4.1,55.2L4.1,55.2z
	 M16.7,52.9c0.1,0,0.1,0.1,0.2,0.1c0-0.1,0.1-0.3,0.1-0.4l0,0C16.9,52.7,16.8,52.8,16.7,52.9z M20.6,49.4c-0.5,0-0.9-0.1-1.5-0.1
	C19.7,50,20.1,50,20.6,49.4z M19.5,50.1c-0.3-0.3-0.8-0.3-1.1-0.2c-0.1,0.1-0.1,0.2-0.1,0.4C18.8,50.3,19.1,50.2,19.5,50.1z
	 M12.2,61.3c0.4-0.2,0.7-0.4,1.1-0.7C12.7,60.5,12.6,60.5,12.2,61.3z M40.4,5.8C40,5.9,40,6.1,39.9,6.6C40.4,6.4,40.5,6.2,40.4,5.8z
	 M17.4,51.4c0.3,0,0.5,0,0.7,0c0-0.2,0-0.3-0.1-0.6C17.8,51.1,17.7,51.2,17.4,51.4z M14.9,58.5c-0.3-0.2-0.5-0.3-0.7-0.5
	c0,0.1-0.1,0.1-0.1,0.2C14.2,58.4,14.4,58.6,14.9,58.5z M13.6,59.2c0,0-0.1-0.1-0.1-0.1c-0.1,0.1-0.2,0.3-0.2,0.4c0,0,0.1,0,0.1,0.1
	C13.5,59.4,13.5,59.3,13.6,59.2z M39.4,7.5c0,0,0,0.1,0,0.2c0,0,0.1,0.1,0.1,0c0,0,0.1-0.1,0.1-0.2C39.6,7.5,39.5,7.5,39.4,7.5z
	 M41.3,6.2c0,0,0,0.1,0,0.1c0.1,0,0.2,0.1,0.4,0.1c0-0.1,0-0.1,0-0.2C41.5,6.2,41.4,6.2,41.3,6.2z M44.7,4.6c0,0-0.1,0-0.2,0
	c0,0,0,0.1,0,0.1c0,0,0.1,0.1,0.2,0.1C44.7,4.7,44.8,4.6,44.7,4.6z M20.5,54.5C20.6,54.6,20.6,54.6,20.5,54.5c0.2,0,0.3-0.1,0.3-0.1
	c0,0-0.1-0.1-0.1-0.1C20.7,54.4,20.6,54.4,20.5,54.5z M18.2,66.4C18.2,66.4,18.2,66.5,18.2,66.4c0,0.1,0.1,0.2,0.1,0.2
	c0,0,0.1-0.1,0.1-0.1C18.4,66.5,18.3,66.4,18.2,66.4z M19,51.9c0,0,0,0.1,0,0.1c0,0,0.1,0,0.1,0c0,0,0.1-0.1,0.1-0.1
	C19.1,51.9,19,51.9,19,51.9z M20.5,65.2C20.5,65.2,20.5,65.3,20.5,65.2c0.1,0,0.1,0,0.1-0.1c0,0-0.1,0-0.1,0
	C20.5,65.2,20.5,65.2,20.5,65.2z M16.8,53.6c0,0,0,0.1,0,0.1c0,0,0.1,0,0.1,0c0,0,0-0.1,0-0.1C16.9,53.6,16.8,53.6,16.8,53.6z
	 M42.4,4.8C42.4,4.7,42.4,4.7,42.4,4.8C42.3,4.7,42.3,4.7,42.4,4.8C42.3,4.8,42.3,4.8,42.4,4.8C42.4,4.8,42.4,4.8,42.4,4.8z
	 M41.9,5.5C41.9,5.6,41.8,5.6,41.9,5.5C41.9,5.6,41.9,5.6,41.9,5.5C41.9,5.6,41.9,5.6,41.9,5.5C41.9,5.5,41.9,5.5,41.9,5.5z
	 M22.7,49.4C22.7,49.4,22.7,49.4,22.7,49.4C22.7,49.5,22.7,49.5,22.7,49.4C22.7,49.5,22.7,49.5,22.7,49.4z M20.2,50.4
	C20.2,50.4,20.2,50.4,20.2,50.4C20.2,50.4,20.2,50.4,20.2,50.4C20.2,50.4,20.2,50.4,20.2,50.4z M18.9,53.1
	C18.9,53.1,18.9,53.1,18.9,53.1C18.9,53,18.9,53,18.9,53.1C18.9,53,18.9,53,18.9,53.1C18.9,53,18.8,53,18.9,53.1z M16.5,67.7
	C16.5,67.7,16.5,67.6,16.5,67.7C16.5,67.6,16.5,67.6,16.5,67.7C16.4,67.6,16.4,67.6,16.5,67.7C16.4,67.6,16.4,67.7,16.5,67.7z
	 M21.9,65.6L21.9,65.6L21.9,65.6L21.9,65.6z M15.2,56L15.2,56L15.2,56L15.2,56z M20.3,53.3C20.3,53.3,20.3,53.3,20.3,53.3
	C20.3,53.3,20.4,53.3,20.3,53.3C20.4,53.3,20.3,53.3,20.3,53.3z M41.2,4.2C41.2,4.2,41.3,4.2,41.2,4.2C41.3,4.2,41.3,4.2,41.2,4.2
	C41.3,4.1,41.2,4.2,41.2,4.2z"/>
</svg>
