<?xml version="1.0" encoding="utf-8"?>
<!-- Generator: Adobe Illustrator 18.1.1, SVG Export Plug-In . SVG Version: 6.00 Build 0)  -->
<svg version="1.1" id="Layer_1" xmlns="http://www.w3.org/2000/svg" xmlns:xlink="http://www.w3.org/1999/xlink" x="0px" y="0px"
	 viewBox="0 0 21.8 31.7" enable-background="new 0 0 21.8 31.7" xml:space="preserve">
<g>
	<path fill="#fff" d="M10.8,20.4c0,0.1,0.1,0.1,0.1,0.2c-0.1,0.1-0.2,0.2-0.3,0.3c0.2,0,0.3,0,0.4,0.1c0,0.1,0,0.1,0,0.2c0,0-0.1,0.1-0.1,0.1
		l0,0c0,0,0.1-0.1,0.1-0.1c0.1,0.3,0.3,0.7,0.3,1c0,0.2,0,0.4,0,0.6c-0.2,0-0.4,0-0.6,0.1c-0.1-0.1-0.1-0.2-0.2-0.3
		c0.2-0.1,0.3-0.1,0.5-0.2c-0.2-0.1-0.4-0.2-0.6-0.3c0.1-0.1,0.2-0.1,0.2-0.2l0,0c-0.1-0.2-0.2-0.4-0.5-0.4
		c-0.1,0.1-0.1,0.3-0.2,0.4c0.1,0.1,0.1,0.1,0.2,0.2c-0.2,0.2-0.2,0.2-0.1,0.5c0.1,0,0.3,0,0.4-0.1c-0.1,0.1-0.2,0.2-0.3,0.3
		c0,0.2,0,0.4,0,0.6l0,0c-0.2-0.6-0.4-1.1-0.6-1.7c-0.1-0.3-0.1-0.6-0.3-0.8c-0.1-0.2-0.3-0.4-0.5-0.6c-0.2,0.1-0.4,0.2-0.3,0.5
		c0.1,0,0.3-0.1,0.4-0.1c0,0,0,0.1,0,0.1c-0.1,0.4-0.3,0.7-0.4,1.1c-0.2,0.5-0.3,1-0.5,1.5c-0.3,0.7-0.6,1.3-0.8,2
		c-0.1,0.3-0.3,0.5-0.7,0.5c-0.2,0.4-0.3,0.8-0.5,1.3c-0.2,0.8-0.5,1.5-0.6,2.3c0,0.4-0.2,0.7-0.4,1.1c-0.1,0.3-0.3,0.4-0.6,0.3
		c0-0.1-0.1-0.2-0.1-0.4c-0.4,0.3-0.5,0.3-0.8-0.1c-0.4-0.4-0.4-0.8-0.2-1.3c0.5-1.4,1-2.8,1.5-4.2c0.1-0.2,0.2-0.5,0.3-0.7
		c0.1-0.2,0.1-0.3,0.2-0.6c0.1,0,0.1,0,0.2,0.1c0.1-0.1,0.1-0.2,0.2-0.3c-0.1,0-0.2-0.1-0.4-0.1c0.2-0.4,0.3-0.8,0.5-1.2
		c0.2,0,0.4-0.1,0.6-0.1c0,0,0-0.1,0-0.1c-0.1,0-0.3-0.1-0.4-0.1C6,21.1,6,21,6.8,20.8C6.9,20.6,7,20.4,7.2,20
		c-0.3,0.2-0.5,0.3-0.7,0.5c-0.1-0.6,0.2-1.3,0.8-1.6c-0.2,0-0.4,0-0.6-0.1c0-0.3-0.1-0.6-0.1-0.9c0,0-0.1,0-0.1,0
		c-0.1,0.1-0.2,0.3-0.3,0.5c-0.1-0.1-0.2-0.2-0.2-0.4c0,0-0.1,0.1-0.1,0.1c0,0.1,0.1,0.3,0.1,0.4c0,0.1,0.1,0.2,0.2,0.3l0,0
		c0,0-0.1,0.1-0.1,0.1l0,0c-0.2,0-0.3,0-0.5,0c0-0.1,0-0.2,0.1-0.2c-0.1-0.3-0.4-0.4-0.7-0.4l0,0c0.2-0.4,0.6-0.6,0.9-0.9
		c0.2-0.2,0.4-0.3,0.5-0.6c-0.3,0-0.5,0-0.7,0c0-0.2,0-0.3,0.1-0.5c-0.2,0.2-0.3,0.2-0.4,0.3c-0.1-0.1-0.2-0.1-0.4-0.2
		c-0.4-0.2-0.8-0.4-1.2-0.5c-0.6-0.3-1-0.8-0.9-1.5c0,0,0,0,0,0c0.1,0,0.1,0,0.2,0.1c0-0.1,0-0.1,0-0.2c-0.1-0.5,0.2-0.8,0.7-0.7
		c0.4,0.1,0.9,0.2,1.2,0.6c0.1,0.2,0.2,0.3,0.4,0.4c0.1,0,0.2,0.2,0.3,0.3C5.7,15,5.6,15,5.5,15.1c0,0,0,0,0.1,0
		c0-0.1,0.1-0.1,0.1-0.2c0.4,0.2,0.9,0.4,1.3,0.6c0.2,0.1,0.4,0.2,0.6,0c-0.2-0.6-0.4-1.2-0.6-1.9c0.2,0,0.2,0,0.4,0.1
		c0-0.1,0-0.2,0-0.4c-0.1,0-0.3-0.1-0.4-0.1c0,0-0.1-0.1-0.1-0.1c-0.1-0.2-0.2-0.5-0.3-0.7c-0.1-0.4-0.3-0.8-0.4-1.2
		C6,10.4,5.7,9.6,5.4,8.8C5.2,8.4,5,8,4.8,7.6c-0.2-0.3-0.2-0.4,0-0.7c0.1,0.4,0.1,0.4,0.4,0.3C5.1,7.1,5,7,4.9,7l0,0
		c0,0-0.1,0-0.1,0C4.8,6.8,4.9,6.7,5,6.6C5,6.4,5.1,6.3,5.2,6.2c0.1,0,0.3,0.1,0.4,0.1c0,0.1,0,0.3,0,0.4c0.2-0.1,0.3-0.2,0.4-0.3
		c0.3,0.3,0.5,0.6,0.5,1c0,0.2,0.1,0.4,0.2,0.6c0.3,0.9,0.6,1.7,0.9,2.6C7.8,11,7.9,11.4,8,11.8c-0.1,0-0.2,0-0.2,0c0,0,0,0.1,0,0.1
		c0.1,0,0.1-0.1,0.2-0.1c0.1,0.2,0.2,0.5,0.3,0.7c-0.2,0.9-0.2,0.9,0,1.2c0-0.3,0-0.5,0.1-0.7c0,0,0.1,0,0.1,0
		c0,0.2,0.1,0.3,0.1,0.5c0.2,0.1,0.4,0.1,0.6,0.2C9.1,13.5,9,13.4,9,13.3c0-0.2-0.1-0.3,0-0.5c0.4-1.1,0.7-2.2,1.1-3.3
		c0.1-0.3,0.3-0.6,0.7-0.6c0,0-0.1-0.1-0.1-0.1c-0.1,0-0.2-0.1-0.3-0.1c0-0.1,0-0.3,0.1-0.4c0.2-0.8,0.5-1.6,0.7-2.4
		c0.4-1.3,1-2.5,1.5-3.7C12.9,1.8,13,1.4,13.2,1c0.3-0.6,0.4-0.8,1.1-0.8l0,0c0.2-0.3,0.3-0.3,0.5-0.1c0.2,0.2,0.5,0.4,0.7,0.6
		c0.1,0.1,0.1,0.3,0.2,0.5c0,0.1-0.1,0.3-0.1,0.4c-0.1,0.2-0.2,0.4-0.3,0.6c-0.1,0.3-0.3,0.5-0.5,0.8c-0.2,0.3-0.4,0.7-0.5,1
		c-0.2,0.7-0.6,1.2-0.8,1.9c-0.1,0.4-0.3,0.7-0.4,1.1c0.2,0.1,0.3,0.2,0.4,0.2c0.1,0.4,0.1,0.8-0.2,1.2c-0.3,0.4-0.5,0.8-0.7,1.2
		c-0.4,0.9-0.8,1.9-1.2,2.9c0,0.1,0,0.2-0.1,0.3c0.1,0,0.2,0,0.4,0l0,0c-0.1,0.1-0.1,0.2-0.2,0.2c-0.3,0.1-0.3,0.3-0.2,0.5
		c0.2,0,0.3,0.1,0.5,0.1c-0.1,0.1-0.2,0.2-0.3,0.3c0,0.2,0,0.4,0,0.7c-0.1,0-0.2,0.1-0.4,0.1c0.1,0.1,0.2,0.2,0.3,0.3l0,0
		c-0.2,0-0.3,0.1-0.5,0.2c-0.1,0-0.1,0.1-0.3,0.3c0.2,0,0.3-0.1,0.4-0.1c0,0,0,0.1,0,0.1c-0.1,0.1-0.3,0.3-0.4,0.4
		c-0.1,0.2-0.2,0.4-0.1,0.7c0.4,0.1,0.8,0.3,1.3,0.5c-0.1,0.2-0.3,0.4-0.4,0.6c0.2,0.1,0.5,0.3,0.8,0.4c-0.1-0.3-0.1-0.4-0.2-0.6
		c0-0.1,0.1-0.2,0.2-0.2c0.2-0.1,0.4,0,0.6,0.4c-0.1,0.3-0.2,0.6-0.5,0.9c-0.1-0.1-0.2-0.3-0.3-0.4c0,0-0.1,0-0.1,0
		c0,0.1,0.1,0.3,0.1,0.5c0.4,0.1,0.7,0.3,1.1-0.1c0,0,0.1,0,0.2-0.1c0.1,0,0.1,0,0.2-0.1c-0.2-0.3-0.4-0.6-0.1-0.9
		c0.2,0.2,0.4,0.4,0.7,0.6c0,0,0.1,0,0.1-0.1c0-0.1,0-0.1,0-0.2c0,0,0-0.1,0-0.2c0.3,0.1,0.6,0.1,0.9,0.2c0.6,0.1,1.2,0.3,1.7,0.4
		c0.1,0,0.3,0,0.4,0c0.7-0.1,1.3,0.1,1.7,0.7c0.2,0.4,0.1,0.8-0.1,1.2c-0.1,0.3-0.5,0.4-0.8,0.3c-0.5,0-0.9-0.2-1.5-0.6
		c0.1,0,0.2-0.1,0.3-0.1c0-0.1-0.2-0.2-0.6-0.1l0,0c0,0.1,0,0.2,0,0.4c-1.9-0.6-3.8-1-5.8-1.5C10.4,19.3,10.7,19.8,10.8,20.4
		C10.7,20.4,10.7,20.4,10.8,20.4C10.7,20.4,10.7,20.4,10.8,20.4z M16.7,19.4L16.7,19.4L16.7,19.4z M10.6,15C10.6,15,10.6,15,10.6,15
		C10.6,15,10.7,15,10.6,15C10.7,15,10.6,15,10.6,15z M7.4,10.6C7.4,10.6,7.5,10.7,7.4,10.6C7.5,10.6,7.4,10.6,7.4,10.6
		c0,0-0.1,0-0.1,0.1c0,0,0,0,0,0.1C7.3,10.7,7.4,10.7,7.4,10.6z M6.5,11.3L6.5,11.3c0.1-0.1,0.1-0.1,0.2-0.2c0,0,0,0-0.1,0
		C6.6,11.2,6.5,11.3,6.5,11.3z M7.8,12.4c0.1,0,0.1,0,0.2,0c0,0,0-0.1,0-0.1C7.9,12.4,7.9,12.4,7.8,12.4c-0.2,0.1-0.3,0.2-0.1,0.4
		c0,0.1,0.2,0,0.3,0C7.9,12.7,7.8,12.6,7.8,12.4z M6.4,10.1c0,0.1,0.1,0.1,0.2,0.2C6.7,10.1,6.9,9.9,7,9.6c-0.2,0-0.4,0-0.5-0.1
		c0,0.1,0,0.2,0,0.3C6.3,9.9,6.2,9.9,6,9.9C6,10.3,6.3,10.1,6.4,10.1L6.4,10.1z M9.7,19.6c-0.1,0.2-0.3,0.4-0.4,0.7
		c0.1,0.1,0.2,0.1,0.3,0.2c0.2-0.2,0.4-0.3,0.5-0.5c0.1-0.1,0.2-0.2,0.3-0.4c0,0,0-0.1-0.1-0.1c-0.1,0.1-0.2,0.2-0.3,0.3
		C9.8,19.7,9.7,19.7,9.7,19.6z M7.3,11.8c-0.1-0.3-0.3-0.3-0.4-0.2c-0.2,0.1-0.2,0.3-0.1,0.5c0.1,0.3,0.3,0.4,0.6,0.4
		c0.1-0.3-0.3-0.3-0.4-0.6C7,11.9,7.1,11.9,7.3,11.8z M5.7,9.2C5.9,9,6,8.9,6.2,8.7C6,8.6,5.9,8.6,5.7,8.5C5.6,8.8,5.6,9,5.7,9.2z
		 M14.7,19.5c-0.1-0.2-0.1-0.3-0.2-0.5c-0.2,0.1-0.4,0.2-0.6,0.3C14.3,19.4,14.5,19.4,14.7,19.5z M14.6,18.1
		c0.6,0.4,0.6,0.4,0.8,0.2C15.1,18.1,15.1,18.1,14.6,18.1z M6,15.3c0,0.1-0.1,0.1-0.1,0.2c0.2,0.3,0.5,0.2,0.8,0.1
		C6.5,15.4,6.2,15.3,6,15.3z M6,22.1c-0.2,0.3-0.1,0.5,0.1,0.8C6.3,22.6,6.3,22.3,6,22.1z M16.4,18.5c-0.5,0.2-0.5,0.2-0.6,0.5
		c0.2-0.1,0.3-0.2,0.4-0.3c0.1,0,0.2,0.1,0.3,0.2C16.5,18.7,16.4,18.6,16.4,18.5z M10.2,21.1c-0.1-0.2-0.3-0.3-0.4-0.5
		C9.7,21,9.7,21,9.9,21.2C10,21.2,10,21.2,10.2,21.1z M5.3,24.2c-0.1,0.2-0.2,0.4-0.2,0.5C5.3,24.7,5.4,24.5,5.3,24.2z M3.7,14.1
		c-0.2,0.1-0.3,0.3-0.2,0.5C3.6,14.4,3.6,14.3,3.7,14.1z M6.1,17.4c0,0.4,0.1,0.4,0.4,0.2C6.3,17.6,6.2,17.5,6.1,17.4z M7.7,18.5
		c-0.3,0.2-0.3,0.2,0,0.5C7.7,18.8,7.7,18.7,7.7,18.5z M5,28.3c0,0,0,0.1,0.1,0.1c0.1-0.1,0.3-0.1,0.4-0.2c0,0,0-0.1,0-0.1
		C5.3,28.2,5.2,28.2,5,28.3z M6.3,10.8c0.3,0.1,0.4,0,0.4-0.3C6.5,10.6,6.4,10.7,6.3,10.8z M11.3,18.5c0.1-0.1,0.2-0.2,0-0.4
		C11.3,18.4,11.3,18.4,11.3,18.5z M11.1,17.4C11.1,17.4,11.1,17.4,11.1,17.4c0.1,0.1,0.2,0.1,0.3,0c0,0,0-0.1,0-0.1
		C11.3,17.3,11.2,17.3,11.1,17.4z M5.6,18.2c0.1,0,0.1-0.1,0.1-0.1c0,0,0-0.1,0-0.1c0,0-0.1,0-0.1,0C5.5,18.1,5.5,18.1,5.6,18.2z
		 M5.7,26.1C5.7,26,5.7,26,5.8,26c0,0,0-0.1,0-0.1c0,0-0.1,0-0.1,0C5.6,26,5.6,26,5.7,26.1z M7,19.4C7,19.4,7,19.4,7,19.4
		c-0.1,0.1-0.1,0.1-0.1,0.2c0,0,0.1,0,0.1,0C7,19.5,7,19.5,7,19.4z M16.7,18.8C16.7,18.8,16.8,18.8,16.7,18.8
		c0.1-0.1,0.1-0.1,0.1-0.2c0,0-0.1,0-0.1,0C16.7,18.7,16.7,18.8,16.7,18.8z M8.4,22c-0.1,0-0.1,0.1-0.1,0.1c0,0,0,0.1,0,0.1
		C8.3,22.2,8.3,22.1,8.4,22z M14.8,18.5c0,0-0.1,0-0.1,0c0,0.1,0,0.1,0.1,0.2c0,0,0,0,0.1,0C14.8,18.6,14.8,18.5,14.8,18.5z M6,9.5
		c0,0,0,0.1,0,0.1c0,0,0.1,0,0.1,0c0,0,0-0.1,0-0.1C6,9.5,6,9.5,6,9.5z M7.2,11.3c0,0,0.1-0.1,0.1-0.1c0,0,0,0-0.1-0.1
		C7.2,11.1,7.2,11.2,7.2,11.3C7.2,11.2,7.2,11.2,7.2,11.3z M5.5,24.9C5.4,25,5.4,25,5.5,24.9c-0.1,0.1,0,0.1,0,0.2c0,0,0,0,0.1,0
		C5.5,25,5.5,25,5.5,24.9z M15.3,19.6C15.3,19.6,15.3,19.5,15.3,19.6c-0.1-0.1-0.1-0.1-0.2-0.1c0,0,0,0,0,0.1
		C15.2,19.6,15.2,19.6,15.3,19.6z M10.2,16.3C10.2,16.3,10.2,16.2,10.2,16.3C10.2,16.2,10.1,16.2,10.2,16.3
		C10.1,16.3,10.1,16.3,10.2,16.3C10.2,16.3,10.2,16.3,10.2,16.3z M8,14.2C8,14.1,8.1,14.1,8,14.2c0.1-0.1,0-0.1,0-0.1
		C8,14.1,8,14.1,8,14.2C8,14.1,8,14.1,8,14.2z M9.7,11.4C9.8,11.4,9.8,11.4,9.7,11.4c0.1,0,0.1-0.1,0.1-0.1c0,0,0,0-0.1,0
		C9.8,11.3,9.8,11.3,9.7,11.4z M5.1,25.2C5,25.2,5,25.2,5.1,25.2C5,25.2,5,25.2,5.1,25.2C5,25.2,5,25.2,5.1,25.2
		C5,25.3,5,25.2,5.1,25.2z M17.1,18.7C17.1,18.7,17.2,18.7,17.1,18.7C17.2,18.7,17.2,18.7,17.1,18.7C17.1,18.6,17.1,18.7,17.1,18.7
		C17.1,18.7,17.1,18.7,17.1,18.7z M17.2,19.4C17.2,19.4,17.1,19.4,17.2,19.4C17.1,19.4,17.1,19.4,17.2,19.4
		C17.1,19.5,17.1,19.5,17.2,19.4C17.1,19.5,17.2,19.5,17.2,19.4z M7.1,10.3C7.1,10.4,7.1,10.4,7.1,10.3C7.1,10.4,7.1,10.4,7.1,10.3
		C7.1,10.4,7.1,10.4,7.1,10.3C7.1,10.4,7.1,10.3,7.1,10.3z M3.4,29.8C3.4,29.8,3.4,29.8,3.4,29.8C3.4,29.7,3.4,29.7,3.4,29.8
		C3.4,29.7,3.4,29.7,3.4,29.8C3.4,29.8,3.4,29.8,3.4,29.8z M4.4,15.5C4.5,15.4,4.5,15.4,4.4,15.5C4.5,15.4,4.4,15.4,4.4,15.5
		C4.4,15.4,4.4,15.4,4.4,15.5C4.4,15.4,4.4,15.4,4.4,15.5z M11.9,11.1C11.9,11.1,11.9,11.1,11.9,11.1C11.9,11.2,11.9,11.2,11.9,11.1
		C11.9,11.2,11.9,11.1,11.9,11.1C11.9,11.1,11.9,11.1,11.9,11.1z M10.5,17C10.5,17,10.6,17,10.5,17C10.6,17,10.6,17,10.5,17
		C10.6,17,10.5,17,10.5,17C10.5,17,10.5,17,10.5,17z M9.2,12.9C9.2,12.9,9.2,12.9,9.2,12.9C9.2,12.9,9.2,12.9,9.2,12.9
		C9.2,12.9,9.2,12.9,9.2,12.9z M6,25.6C6,25.7,6,25.7,6,25.6C6,25.7,6,25.7,6,25.6C6,25.7,6,25.6,6,25.6C6,25.6,6,25.6,6,25.6z
		 M5.8,26.9C5.8,26.9,5.8,26.9,5.8,26.9C5.7,26.9,5.7,26.9,5.8,26.9C5.8,26.9,5.8,26.9,5.8,26.9z M3.9,30.4
		C3.9,30.4,3.9,30.4,3.9,30.4C3.9,30.4,3.9,30.4,3.9,30.4C3.9,30.4,3.9,30.4,3.9,30.4z M3.7,29.5C3.7,29.5,3.7,29.5,3.7,29.5
		C3.8,29.5,3.8,29.5,3.7,29.5C3.8,29.5,3.8,29.5,3.7,29.5C3.8,29.5,3.8,29.5,3.7,29.5z M11.3,12.5C11.3,12.5,11.3,12.5,11.3,12.5
		C11.3,12.5,11.3,12.5,11.3,12.5C11.3,12.5,11.3,12.5,11.3,12.5C11.3,12.5,11.3,12.5,11.3,12.5z M12.5,5.4
		C12.5,5.4,12.5,5.4,12.5,5.4C12.6,5.4,12.6,5.4,12.5,5.4C12.5,5.4,12.5,5.4,12.5,5.4z M7.6,14C7.6,14,7.6,14,7.6,14
		C7.6,14,7.6,14,7.6,14C7.6,14,7.6,14,7.6,14C7.6,14,7.6,14,7.6,14z M5.8,23C5.8,23,5.8,23,5.8,23C5.8,23,5.8,23,5.8,23
		C5.8,23,5.8,23,5.8,23C5.8,23,5.8,23,5.8,23z M4.2,30.1C4.2,30.1,4.2,30.1,4.2,30.1C4.2,30.1,4.2,30.1,4.2,30.1
		C4.2,30.1,4.2,30.1,4.2,30.1z M8.4,14.7C8.4,14.7,8.5,14.7,8.4,14.7C8.5,14.7,8.5,14.7,8.4,14.7C8.4,14.7,8.4,14.7,8.4,14.7
		C8.4,14.7,8.4,14.7,8.4,14.7z M5.8,26.4C5.8,26.4,5.9,26.4,5.8,26.4C5.9,26.3,5.9,26.3,5.8,26.4C5.8,26.3,5.8,26.4,5.8,26.4z
		 M3.8,13.8C3.8,13.8,3.8,13.8,3.8,13.8C3.8,13.8,3.8,13.8,3.8,13.8C3.8,13.8,3.8,13.8,3.8,13.8C3.8,13.8,3.8,13.8,3.8,13.8z
		 M12.3,17.6C12.3,17.6,12.4,17.6,12.3,17.6C12.3,17.6,12.3,17.6,12.3,17.6C12.3,17.6,12.3,17.6,12.3,17.6z M17.3,20.2L17.3,20.2
		L17.3,20.2L17.3,20.2z M17.2,19.9C17.2,19.9,17.1,19.9,17.2,19.9C17.1,19.9,17.1,19.9,17.2,19.9C17.2,19.9,17.2,19.9,17.2,19.9z
		 M12.4,10.2C12.3,10.2,12.3,10.2,12.4,10.2C12.3,10.3,12.3,10.3,12.4,10.2C12.3,10.3,12.3,10.3,12.4,10.2z"/>
	<path fill="#fff" d="M10.8,23.7c0-0.2-0.1-0.3-0.1-0.4c0.2-0.4,0.6-0.3,1-0.4c0.3,0.9,0.6,1.8,0.9,2.8c0.4,1.1,0.7,2.2,1.1,3.3
		c0.1,0.3,0.3,0.6,0.4,0.8c0.4,0.7,0.4,1.1-0.1,1.9c-0.3,0-0.6,0-0.9,0c-0.1-0.2-0.1-0.3-0.2-0.5c-0.1,0-0.2,0-0.4,0
		c-0.3-1.1-0.6-2.2-0.9-3.3c0.3-0.2,0.6-0.3,0.4-0.7c-0.3,0-0.2,0.4-0.5,0.5c-0.1-0.4-0.3-0.8-0.4-1.2c0-0.1,0-0.2-0.1-0.3
		c-0.3-0.3-0.3-0.7-0.3-1.1c0,0,0,0,0,0c0,0,0,0,0,0.1c-0.2-0.5-0.4-1.1-0.5-1.6l0,0C10.4,23.5,10.6,23.6,10.8,23.7
		C10.8,23.7,10.8,23.7,10.8,23.7z M12.4,26.7L12.4,26.7C12.4,26.7,12.4,26.7,12.4,26.7C12.4,26.8,12.4,26.7,12.4,26.7z M12.6,28
		c0.1-0.1,0.1-0.2-0.1-0.2C12.6,27.8,12.6,27.9,12.6,28c-0.4,0.1-0.4,0.1-0.3,0.6C12.4,28.4,12.5,28.2,12.6,28z M12,25.8
		c0,0,0.1,0,0.1,0.1c0.1-0.1,0.1-0.2,0.2-0.4c0,0-0.1,0-0.1,0C12.1,25.6,12.1,25.7,12,25.8z M11.1,25.3
		C11.2,25.4,11.2,25.4,11.1,25.3c0.2,0.1,0.3,0,0.2-0.2C11.3,25.2,11.2,25.3,11.1,25.3z M11.6,23.5C11.5,23.5,11.5,23.5,11.6,23.5
		c-0.1,0.1-0.1,0.2-0.1,0.4c0,0,0,0,0.1,0C11.5,23.8,11.5,23.6,11.6,23.5z M12.5,28.7C12.5,28.7,12.4,28.7,12.5,28.7
		c-0.1,0.1-0.1,0.2-0.1,0.3c0.1-0.1,0.1-0.1,0.1-0.1C12.5,28.8,12.5,28.8,12.5,28.7z M11.7,25.3C11.7,25.3,11.7,25.3,11.7,25.3
		c-0.1,0.1-0.1,0.1-0.1,0.2c0,0,0,0.1,0.1,0.1c0,0,0,0,0.1,0C11.7,25.5,11.7,25.4,11.7,25.3z M11.9,26.8c0,0,0.1,0,0.1,0
		c0-0.1,0-0.1,0-0.2c0,0,0,0-0.1,0C12,26.7,12,26.7,11.9,26.8z M11.5,24.7C11.4,24.7,11.4,24.7,11.5,24.7
		C11.4,24.7,11.4,24.7,11.5,24.7C11.4,24.7,11.4,24.7,11.5,24.7z M11.3,24.3C11.3,24.3,11.3,24.3,11.3,24.3
		C11.3,24.3,11.3,24.3,11.3,24.3C11.3,24.3,11.3,24.3,11.3,24.3C11.3,24.3,11.3,24.3,11.3,24.3z M12.4,27.4
		C12.4,27.4,12.4,27.4,12.4,27.4C12.4,27.4,12.4,27.4,12.4,27.4C12.4,27.4,12.4,27.4,12.4,27.4C12.4,27.4,12.4,27.4,12.4,27.4z
		 M12.7,27.1C12.7,27.1,12.8,27.2,12.7,27.1C12.8,27.2,12.8,27.1,12.7,27.1C12.8,27.1,12.7,27.1,12.7,27.1z"/>
	<path fill="#fff" d="M13.5,12.2c0.3,0,0.4-0.2,0.5-0.5c0.3-0.2,0.5,0,0.7,0.2c0-0.4-0.1-0.7-0.1-1l0,0c0.5-0.3,1-0.7,1.6-1
		c0.5-0.3,1-0.5,1.5-0.8C18,9.1,18.3,9,18.6,8.9c0,0,0.1,0,0.1,0C18.8,9,18.9,9.1,19,9.3c0.1-0.1,0.2-0.2,0.4-0.3
		c-0.2-0.1-0.3-0.2-0.4-0.3c0.4-0.2,0.8-0.4,1.2-0.6c0.5-0.2,0.9-0.1,1.2,0.3c0.1,0.2,0.2,0.4,0.3,0.6c0.1,0.3,0.1,0.4-0.1,1
		c-0.3,0.2-0.6,0.3-1,0.3c-0.4,0.1-0.8,0.2-1.3,0.4c-0.6-0.6-1-0.1-1.5,0.3c-0.1-0.1-0.2-0.2-0.3-0.3c-0.6,0.8-0.6,0.8-0.9,0.7
		c0.1-0.4,0.7-0.4,0.6-0.9c-0.1,0-0.2-0.1-0.3-0.2c0-0.1,0.1-0.2,0.1-0.3c-0.2,0.1-0.3,0.2-0.1,0.3c-0.2,0.4-0.2,0.4-0.6,0.6
		c0-0.1-0.1-0.3-0.1-0.4c-0.4-0.1-0.4-0.1-0.6,0.3c0.1,0.1,0.1,0.1,0.2,0.3c-0.1,0-0.2,0.1-0.3,0.1c0.1,0.1,0.1,0.1,0.1,0.1
		c0.2,0,0.3-0.1,0.5-0.2c0,0.3,0,0.3-0.4,0.4c0.1,0.3,0.2,0.6,0.3,0.9c-0.3,0.1-0.6,0.3-0.9,0.4l0,0c0-0.3,0.1-0.7,0.1-1
		c0.1,0,0.2,0.1,0.3,0.1c-0.1-0.4-0.2-0.8-0.3-1.1c-0.4,0.1-0.6,0.3-0.5,0.5c0.1,0,0.2,0.1,0.2,0.1c0.1,0.6-0.5,0.9-0.4,1.4
		c0.2,0.1,0.3,0.1,0.4,0.2l0,0c-0.4,0.3-0.9,0.5-1.3,0.8c0,0,0,0,0,0c-0.1-0.2-0.1-0.4-0.2-0.6c0.2,0,0.3,0.1,0.4,0.1
		c0.1,0.1,0.2,0.2,0.3,0c-0.5-0.4-0.7-0.4-1.2,0c0.1,0.2,0.1,0.4,0.2,0.6l0,0c0.1,0.1,0.1,0.2,0.2,0.3l0,0c-0.1,0.1-0.2,0.2-0.4,0.2
		l0,0c0-0.2,0-0.5-0.4-0.4c0,0,0,0,0,0c0-0.1,0-0.2,0-0.2c-0.2,0.1-0.3,0.1-0.4,0.2c-0.1-0.1-0.1-0.1-0.2-0.2c0,0,0-0.1,0-0.1
		c0.1-0.2,0.2-0.4,0.3-0.4c0.2-0.1,0-0.4,0.3-0.4l0,0c0.1,0,0.1,0,0.2,0l0,0c0.4,0,0.7-0.3,1.1-0.1C13.8,12.5,13.7,12.4,13.5,12.2
		L13.5,12.2z M21.3,8.9c0,0-0.1,0.1-0.1,0.1c0,0,0,0,0,0c0,0,0,0,0-0.1C21.2,9,21.2,8.9,21.3,8.9c0,0,0.1-0.1,0.1-0.1l0,0
		C21.4,8.9,21.3,8.9,21.3,8.9z M18.6,9.7c-0.2,0-0.3-0.1-0.4-0.2c-0.2-0.2-0.5-0.2-0.7,0.1c-0.2,0.2-0.2,0.4,0.1,0.7
		C17.9,10,18.4,10.2,18.6,9.7z M20,8.7c0,0-0.1,0-0.1,0c0,0.1,0,0.2,0,0.3c0,0,0.1,0,0.1,0C20,8.8,20,8.8,20,8.7z M19.7,10.3
		c0.2-0.1,0.2-0.1,0.1-0.3C19.8,10.1,19.7,10.2,19.7,10.3z M21.5,9.4C21.5,9.4,21.5,9.4,21.5,9.4C21.6,9.4,21.6,9.3,21.5,9.4
		C21.5,9.3,21.5,9.3,21.5,9.4C21.5,9.3,21.5,9.4,21.5,9.4z M20.2,9.5C20.2,9.5,20.3,9.4,20.2,9.5c0.1-0.1,0-0.1,0-0.1
		C20.2,9.4,20.2,9.4,20.2,9.5C20.2,9.4,20.2,9.5,20.2,9.5z M20.6,9.2C20.6,9.2,20.6,9.2,20.6,9.2C20.6,9.2,20.6,9.2,20.6,9.2
		C20.6,9.2,20.6,9.2,20.6,9.2C20.6,9.2,20.6,9.2,20.6,9.2z M19.1,10C19.1,10,19.1,10,19.1,10C19.2,10,19.1,9.9,19.1,10
		C19.1,9.9,19.1,9.9,19.1,10C19.1,10,19.1,10,19.1,10z M18.9,9.5C18.9,9.5,18.9,9.5,18.9,9.5C18.9,9.6,18.9,9.6,18.9,9.5
		C19,9.6,19,9.6,18.9,9.5C19,9.5,19,9.5,18.9,9.5z M18.4,9.2C18.4,9.2,18.4,9.2,18.4,9.2C18.3,9.2,18.4,9.3,18.4,9.2
		C18.4,9.3,18.4,9.2,18.4,9.2z"/>
	<path fill="#fff" d="M3.8,19.1c0,0.1,0,0.2,0,0.3c0,0,0.1,0,0.1,0C3.9,19.4,4,19.3,4,19.2c0-0.2,0.1-0.4,0.3-0.5l0,0c0,0.1,0.1,0.1,0.1,0.2
		c0.3,0,0.5-0.4,0.8-0.3c-0.1,0.1-0.2,0.3-0.3,0.4c0.2,0,0.3,0.1,0.5,0.1c0,0.1,0.1,0.2,0.1,0.4c-0.5-0.1-0.8,0.3-1.2,0.5
		c0,0.3,0.1,0.4,0.3,0.6c0.2-0.2,0.3-0.5,0.5-0.7C5.3,20,5.4,20,5.5,19.9c0-0.1,0-0.2,0-0.3c0.4-0.1,0.5-0.3,0.6-0.6l0,0
		c0,0,0.1-0.1,0.1-0.1l0,0c0.1,0.3,0,0.6-0.3,0.8c-0.4,0.4-0.9,0.8-1.3,1.2c-0.2,0.1-0.4,0.2-0.6,0.4c0.1-0.1,0.1-0.3,0.3-0.5
		C4,20.9,3.8,21,3.7,20.6c0-0.2,0-0.5,0.1-0.7c0.1,0.1,0.2,0.2,0.2,0.3c0,0.1,0,0.2,0,0.3c0,0,0.1,0,0.1,0c0.1-0.2,0.2-0.4,0.2-0.6
		l0,0c0.1,0,0.1-0.1,0.2-0.2c-0.4-0.2-0.8-0.2-1.1,0c0.1,0.2,0.2,0.3,0.2,0.5c-0.1,0.1-0.1,0.2-0.2,0.2c0,0.4,0.3,0.5,0.5,0.7
		c0,0-0.1,0.1-0.1,0.1c0,0,0,0,0,0.1c0,0,0.1-0.1,0.1-0.1c0.1,0,0.1,0,0.2,0c-0.3,0.3-0.6,0.5-0.9,0.8c0-0.2-0.1-0.1-0.2,0
		c-0.1-0.1-0.2-0.2-0.3-0.3c-0.3,0.4-0.6,0.8-0.9,1.2c-0.1,0-0.2,0-0.4,0c0.1,0.2,0.1,0.3,0.2,0.5c0.2-0.2,0.3-0.4,0.5-0.6
		c0.1-0.1,0.4-0.2,0.5-0.4c0-0.3,0.4-0.2,0.4-0.4c0,0,0,0,0,0c0.1,0,0.1,0,0.2,0c-0.7,0.8-2.2,2.2-2.4,2.3C0.1,24.1,0,23.8,0,22.7
		c0.3-0.4,0.7-0.8,1-1.2c0.1-0.1,0.2-0.2,0.3-0.2c0,0,0,0.1,0,0.1c0,0,0,0,0-0.1c0.2-0.3,0.4-0.6,0.7-0.7
		C2.7,20.2,3.2,19.6,3.8,19.1L3.8,19.1z M4.7,19.2C4.7,19.2,4.7,19.2,4.7,19.2C4.7,19.2,4.7,19.2,4.7,19.2c-0.1,0-0.2,0-0.4,0
		C4.5,19.4,4.6,19.3,4.7,19.2z M2.2,21.1c-0.1,0.1-0.1,0.1-0.2,0.2c0.2,0.2,0.3,0.3,0.5,0.1C2.4,21.3,2.3,21.2,2.2,21.1
		C2.3,21,2.5,21,2.6,20.9c0.1,0.1,0.1,0.3,0.1,0.4l0,0C2.9,21.1,3,21,3.1,20.8c0-0.3-0.2-0.4-0.5-0.4C2.4,20.6,2.1,20.7,2.2,21.1z
		 M0.6,22.7C0.8,22.5,1,22.4,0.9,22C0.7,22.2,0.6,22.3,0.6,22.7z M1.5,21.9c0,0-0.1-0.1-0.1-0.1c0,0-0.1,0.1-0.1,0.1
		c0,0,0,0.1,0,0.3C1.4,22.1,1.5,22,1.5,21.9z M0.5,23.7C0.5,23.7,0.5,23.7,0.5,23.7C0.6,23.7,0.5,23.7,0.5,23.7
		C0.5,23.6,0.5,23.6,0.5,23.7C0.5,23.7,0.5,23.7,0.5,23.7z M3,21.5C3,21.6,3,21.6,3,21.5C3,21.6,3.1,21.6,3,21.5
		C3.1,21.6,3.1,21.5,3,21.5C3.1,21.5,3,21.5,3,21.5z"/>
	<path fill="#fff" d="M17.9,11.3c-0.1,0.1-0.3,0.2-0.4,0.3c-0.3,0.2-0.6,0.3-1,0.5c0-0.3,0.3-0.4,0.5-0.6c0.1-0.2,0.4-0.3,0.6-0.4
		C17.7,11.2,17.8,11.2,17.9,11.3C18,11.3,17.9,11.3,17.9,11.3z"/>
	<path fill="#fff" d="M12.3,14.7c-0.2,0.2-0.3,0.3-0.5,0.5c-0.1,0.1-0.2,0-0.3,0l0,0c0.4-0.1,0.5-0.5,0.5-0.8c0-0.1,0.1-0.2,0.1-0.3
		C12.2,14.3,12.2,14.5,12.3,14.7L12.3,14.7z"/>
	<path fill="#fff" d="M18,11.3c0.5-0.4,0.9-0.6,1.2-0.5c-0.3,0.2-0.5,0.3-0.8,0.4C18.2,11.2,18.1,11.2,18,11.3L18,11.3z"/>
	<path fill="#fff" d="M13.5,12.2c-0.1,0-0.3-0.1-0.5-0.2c0.1-0.1,0.2-0.2,0.4-0.3C13.5,12,13.5,12.1,13.5,12.2L13.5,12.2z"/>
	<path fill="#fff" d="M13,14.3c-0.2,0.1-0.5,0.3-0.7,0.4l0,0C12.5,14.5,12.7,14.2,13,14.3L13,14.3z"/>
	<path fill="#fff" d="M13.7,11.6c0.1-0.1,0.3-0.2,0.5-0.3c-0.1,0.3-0.3,0.3-0.4,0.4C13.7,11.6,13.7,11.6,13.7,11.6z"/>
	<path fill="#fff" d="M11.9,12.9c0.1-0.3,0.3-0.4,0.6-0.4l0,0C12.3,12.6,12.1,12.7,11.9,12.9L11.9,12.9z"/>
	<path fill="#fff" d="M13.6,13.9c-0.1,0.1-0.2,0.1-0.2,0.2l0,0c-0.1-0.1-0.1-0.2-0.2-0.3l0,0C13.4,13.6,13.5,13.8,13.6,13.9L13.6,13.9z"/>
	<path fill="#fff" d="M5,18.3c-0.1,0.1-0.2,0.1-0.2,0.2c0,0,0-0.1,0-0.1C4.8,18.4,4.9,18.3,5,18.3L5,18.3z"/>
	<path fill="#fff" d="M12.7,12.5c0.1,0.1,0.1,0.2,0.2,0.2l0,0c-0.1,0-0.1,0-0.2,0l0,0C12.7,12.6,12.7,12.6,12.7,12.5
		C12.7,12.5,12.7,12.5,12.7,12.5z"/>
	<path fill="#fff" d="M14.6,11.1C14.5,11.1,14.5,11.1,14.6,11.1C14.5,11.1,14.5,11.1,14.6,11.1L14.6,11.1z"/>
	<path fill="#fff" d="M12.5,12.5c0.1-0.1,0.2-0.1,0.2-0.2c0,0,0,0,0,0c0,0.1,0,0.1,0,0.2l0,0C12.6,12.5,12.6,12.5,12.5,12.5L12.5,12.5z"/>
	<path fill="#fff" d="M15.2,12.9c0,0-0.1,0.1-0.1,0.1l0,0C15.1,12.9,15.1,12.9,15.2,12.9L15.2,12.9z"/>
	<path fill="#fff" d="M12.7,12.3L12.7,12.3L12.7,12.3z"/>
	<path fill="#fff" d="M13.7,13.8c0,0-0.1,0.1-0.1,0.1l0,0C13.7,13.8,13.7,13.8,13.7,13.8L13.7,13.8z"/>
	<polygon points="3.8,19.2 3.9,19.1 3.8,19.1 	"/>
	<path fill="#fff" d="M4.3,18.7L4.3,18.7L4.3,18.7z"/>
	<path fill="#fff" d="M12.6,13.9C12.6,13.9,12.6,14,12.6,13.9C12.6,13.9,12.6,13.9,12.6,13.9L12.6,13.9z"/>
	<path fill="#fff" d="M11.9,13.8c0,0,0.1-0.1,0.1-0.1C12,13.7,12,13.7,11.9,13.8z"/>
	<polygon points="6.4,10.1 6.4,10.1 6.4,10.1 	"/>
	<path fill="#fff" d="M4.2,20L4.2,20L4.2,20z"/>
</g>
</svg>
