<?xml version="1.0" encoding="utf-8"?>
<!-- Generator: Adobe Illustrator 18.1.1, SVG Export Plug-In . SVG Version: 6.00 Build 0)  -->
<svg version="1.1" id="Layer_1" xmlns="http://www.w3.org/2000/svg" xmlns:xlink="http://www.w3.org/1999/xlink" x="0px" y="0px"
	 viewBox="0 0 93.5 24.7" enable-background="new 0 0 93.5 24.7" xml:space="preserve">
<g>
	<path fill="#bfa378" d="M62.6,9.7c1-0.4,1.7-1,2.4-1.7c0.3-0.3,0.5-0.6,0.7-0.9c0.1-0.2,0.3-0.4,0.6-0.5c0.9-0.1,1.4,0,2.3,0.4
		c0.1,0,0.2-0.1,0.2-0.1c0.2-0.2,0.5-0.3,0.7-0.2c1.1,0.2,2-0.3,2.9-0.9c0.2-0.2,0.5-0.3,0.7-0.5c0.3-0.2,0.7-0.3,1-0.2
		c0.3,0.1,0.7,0.2,1.1,0.2c0.3,0.1,0.4,0.4,0.4,0.7c-0.1,0.2-0.2,0.4-0.3,0.6c0.1,0,0.2,0,0.3,0c0.1,0,0.3-0.1,0.4-0.1
		c0.6-0.1,1.2-0.3,1.8-0.4C78.9,6,79.9,5.8,81,5.7c0.6-0.1,1.2-0.1,1.8,0.2C82.9,6,83.1,6,83.3,6.2c0.4,0.3,0.4,0.8,0,1.1
		c-0.1,0-0.1,0.1-0.2,0.1c-0.3,0.1-0.6,0.1-0.9,0.3c-0.3,0.2-0.6,0.2-0.9,0.2c-0.1,0-0.2,0-0.4,0.1c0,0.3,0,0.5,0,0.7
		c0,0.2-0.1,0.5-0.2,0.7c-0.4,1.4-0.5,2.9-0.4,4.3c0.1,1.1,0.2,2.1,0.3,3.2c0,0.4,0.1,0.9,0.1,1.4c-0.1,0.1-0.2,0.3-0.3,0.4
		c-0.4,0.2-0.8,0.2-1.1,0.1c-0.4-0.2-0.8-0.3-1-0.7c-0.1-0.3-0.2-0.5-0.2-0.8c0-0.4,0-0.8-0.1-1.2c0-0.1,0-0.2,0-0.3
		c-0.4-1.3-0.4-2.6-0.4-3.9c0-0.1,0-0.2,0-0.3c0.3-1,0.2-2,0.4-3c0-0.1,0-0.2-0.1-0.3c-0.1,0-0.3,0-0.4,0.1
		c-0.4,0.1-0.8,0.3-1.2,0.4c-0.3,0.1-0.6,0.1-1,0c-0.2-0.5-0.5-1-0.6-1.6C74.9,7.1,75,7,75,7c0.1,0,0.1-0.1,0.2-0.1
		c-0.1,0-0.1-0.1-0.1-0.1c0,0-0.1,0-0.1,0c-0.9,0.6-2,0.9-2.8,1.5c-0.2,0.1-0.4,0.2-0.6,0.3c-0.2,0.1-0.4,0.3-0.5,0.5
		c-0.1,0.3-0.2,0.5-0.1,0.8c0.1,0,0.2,0,0.3,0c0.5-0.2,1.1-0.3,1.6-0.5c0.7-0.3,1.5-0.3,2.2,0c0.3,0.1,0.5,0.2,0.6,0.6
		c-0.1,0.4-0.5,0.5-0.8,0.6c-0.8,0.3-1.6,0.6-2.4,0.9c-0.6,0.2-1.1,0.5-1.6,0.7c-0.1,0.4,0,0.8,0,1.2c0.1,1,0.4,1.9,1,2.7
		c0.2,0.2,0.4,0.4,0.6,0.7c0.2,0.3,0.5,0.3,0.8,0.3c0.6-0.1,1.2-0.3,1.7-0.8c0.2-0.2,0.4-0.4,0.7-0.4c0.6,0.1,1,0.4,1.5,0.6
		c0.1,0.7-0.2,1.2-0.7,1.5c-0.9,0.5-1.8,0.9-2.8,1c-0.8,0.2-1.6,0.1-2.3-0.4c-0.6-0.4-1.2-0.9-1.7-1.6c-0.3-0.5-0.7-1.1-1-1.6
		c-0.1,0-0.2,0-0.5-0.1c-0.1,0.1-0.2,0.2-0.3,0.3c-0.4,0-0.7-0.1-1-0.3c-0.9-0.5-1.8-0.8-2.8-1c-0.3-0.1-0.5-0.1-0.8-0.2
		c0,0.1,0,0.2,0,0.3c0.1,0.6,0.1,1.2,0.3,1.7c0.3,0.8,0.4,1.5,0.6,2.3c0,0.1,0.1,0.2,0.1,0.3c0.1,0.5,0,0.8-0.5,1
		c-0.5,0.2-1,0.4-1.5,0.2c-0.4-0.1-0.8-0.3-1.2-0.8c0.1-0.3,0-0.5,0-0.8c-0.1-0.3-0.1-0.6,0-0.8c-0.3-0.2,0-0.5-0.1-0.7
		c-0.1-0.2-0.1-0.6-0.1-0.9c-0.2,0-0.3,0.2-0.4,0.3c-0.8,1-1.8,1.5-3.1,1.8c-0.6,0.1-1.1,0.1-1.6-0.2c-0.7-0.3-1.3-0.8-1.7-1.4
		c-0.5-0.9-0.8-1.9-1-2.9c-0.2-1.2-0.3-2.4-0.3-3.6C53,8.5,53.2,7.2,53.7,6c0.2-0.3,0.3-0.6,0.5-1c0.3-0.5,0.7-0.6,1.2-0.6
		c0.5,0,1,0,1.4,0.2c0.8,0.3,1.5,0.8,1.8,1.6c0.1,0.2,0.1,0.3,0.2,0.5c0.3,0.5,0.3,1.2,0.4,1.8c0,0.4-0.2,0.7-0.6,0.8
		c-0.9,0.3-1.7-0.3-1.8-1c-0.1-0.4-0.3-0.8-0.5-1.1c0-0.1-0.1-0.1-0.3-0.2c-0.1,0.1-0.2,0.2-0.3,0.3c-0.1,0.3-0.3,0.7-0.3,1
		c-0.3,1.5-0.4,3-0.2,4.5c0.1,0.8,0.3,1.6,0.6,2.3c0.1,0.3,0.3,0.5,0.5,0.7c0.3,0.3,0.6,0.3,1,0.2c0.4-0.2,0.8-0.5,1.2-0.9
		c0.1-0.2,0.3-0.3,0.4-0.5c0.6,0,1.1-0.1,1.7,0.1c-0.1-0.4-0.1-0.8-0.1-1.1c-0.2-0.1-0.4-0.2-0.6-0.3c-0.3-0.5-0.5-0.9-0.3-1.5
		c0-0.1,0-0.2,0-0.2c-0.1-0.4,0.1-0.8,0.4-1.1c-0.1-0.6-0.2-1.2-0.3-1.8c-0.2-1-0.2-1.9-0.3-2.9c0-0.3,0-0.7-0.1-1
		c-0.1-0.7-0.1-1.4-0.2-2.2c0-0.6,0.2-0.8,0.8-0.8c0.6,0,1.1,0.3,1.6,0.5c0.3,0.2,0.4,0.5,0.4,0.8c0,0.3,0,0.7-0.1,1
		c-0.2,0.7-0.1,1.4,0,2.2c0.1,1,0.2,2,0.4,3C62.5,9.4,62.5,9.5,62.6,9.7z M68.5,13.2c0-0.6,0-1.2-0.1-1.8c-0.1-0.6,0.2-1.2,0-1.7
		c-0.4-0.3-0.7-0.5-1.1-0.8C67.2,9,67,9.1,66.8,9.2c-0.2,0.1-0.4,0.3-0.6,0.5c-0.8,0.6-1.6,1.2-2.4,1.8c-0.1,0.1-0.1,0.2-0.3,0.3
		c0.4,0.3,0.8,0.4,1.2,0.5c1.1,0.3,2.2,0.5,3.2,0.9C68.1,13.2,68.3,13.2,68.5,13.2z"/>
	<path fill="#bfa378" d="M3.5,15.7c0.1-0.1,0.2-0.2,0.2-0.4c0-0.3-0.1-0.6-0.1-0.9c0-1.3-0.2-2.7-0.1-4c0-0.2-0.1-0.4-0.1-0.6
		c-0.1,0.1-0.1,0.2-0.2,0.4C3,10.1,3,9.9,2.9,9.8c-0.4-0.4-1-0.5-1.2-1.2c0-0.2,0.1-0.5,0.1-0.9C2,7.6,2.2,7.4,2.4,7.2
		C2.6,7.1,2.8,7,3,6.8C2.9,6.3,3.1,5.7,2.8,5.2c-0.5,0.1-1,0.3-1.4,0.4c-0.3,0.1-0.5,0-0.8-0.1C0.4,5.4,0.3,5.3,0.2,5.1
		C0,4.7,0,4.4,0,4c0-0.6,0.4-1.1,1-1.2c0.2,0,0.3-0.1,0.5-0.1c0.5-0.2,1-0.3,1.3-0.7C3,1.8,3.2,1.7,3.4,1.6c0.8,0.1,1.4-0.2,2.1-0.4
		C5.9,1,6.3,0.8,6.7,0.7C7.4,0.4,8.2,0.2,9,0.2c0.7-0.1,1.5-0.1,2.3-0.1c0.1,0,0.2,0,0.4,0c0.7,0.2,1.5,0.5,2,1.1c0,0.2,0,0.4,0,0.6
		c-0.4,0.4-0.8,0.8-1.2,1.2c-0.4,0.4-0.9,0.7-1.3,1.1c-0.4,0.4-0.9,0.6-1.3,1c0,0.2,0.1,0.2,0.2,0.2c1.5,0.1,2.9,0.7,4.1,1.5
		c0.6,0.4,1.2,0.9,1.8,1.5c0.6,0.6,1,1.3,1.2,2c0.3,1,0.1,2-0.2,2.9c-0.5,1.4-1.2,2.6-2.1,3.7c-0.2,0.3-0.5,0.5-0.7,0.7
		c-0.9,0.7-1.8,1.4-2.8,1.8c-1.2,0.5-2.3,0.9-3.6,1c-0.8,0-1.5,0.1-2.3-0.1c-0.4-0.1-0.8,0-1.1-0.1c-0.3-0.3-0.5-0.6-0.8-0.9
		c-0.1-0.5-0.1-0.9-0.2-1.4c0-0.1,0.1-0.3,0.1-0.4c-0.1-0.5,0-0.9,0.1-1.3C3.7,16.1,3.6,15.9,3.5,15.7L3.5,15.7z M5.8,8.5
		c0,0.2,0,0.4,0,0.5c0.1,1,0.1,2,0.2,3.1c0.1,1.8,0.2,3.6,0.3,5.4c0,0.5,0.1,0.9,0.2,1.3c0.4,0.2,0.8,0.2,1.2,0.1
		c0.6-0.1,1.1-0.3,1.7-0.5c0.5-0.1,0.9-0.4,1.3-0.6c0.4-0.3,0.8-0.6,1.2-0.9c1-0.8,1.7-1.9,2.2-3c0-0.1,0.1-0.2,0.1-0.3
		c0.1-0.6,0.2-1.1,0.3-1.7c0.1-0.9-0.2-1.7-0.8-2.4c-0.3-0.3-0.6-0.6-1-0.9c-0.5-0.3-1-0.7-1.5-0.8c-0.4-0.1-0.8-0.1-1.2-0.2
		C8.5,7.4,7.4,7.7,6.4,8.1C6.2,8.2,6,8.4,5.8,8.5z M5.3,3.9c-0.1,0.8,0,1.2,0.2,1.7c0.1,0,0.2-0.1,0.2-0.1C6.9,4.6,8,3.8,9,2.8
		c0,0,0-0.1,0-0.1C7.9,2.6,6.6,2.9,5.3,3.9z"/>
	<path fill="#bfa378" d="M18.1,6.3c0.8-0.3,1.4,0,2,0.4c0.2,0.1,0.2,0.3,0.2,0.5c0,0.4,0,0.9,0.1,1.3c0.2,1.7,0.6,3.2,1.3,4.7
		c0.2,0.4,0.4,0.7,0.6,1.1c0.1,0.1,0.2,0.2,0.3,0.3c0.1-0.1,0.2-0.2,0.2-0.3c0-0.6,0.2-1.1,0.1-1.7c-0.1-1.6-0.1-3.1-0.1-4.7
		c0-0.3,0-0.6,0.3-0.7c0.2-0.1,0.2-0.3,0.3-0.6c0-0.1,0-0.2,0-0.3c0.2-0.2,0.4-0.2,0.7-0.3c0.4,0.2,0.8,0.3,1.3,0.5
		c1-0.3,1.8-0.1,2.5,0.8c0.6,0.9,1.2,1.8,1.8,2.6c0.4,0.5,0.7,1.1,1.1,1.6c0.1,0.1,0.3,0.3,0.5,0.5c0-0.2,0-0.4,0-0.5
		c0-0.4-0.1-0.8,0-1.2c0.1-1,0.2-2,0.2-3c0-0.5,0.1-1,0.1-1.5c0,0,0.1,0,0.3-0.1c0.1-0.3-0.1-0.9,0.5-1.1c0.1,0,0.3,0,0.4,0
		c0.4,0,0.7,0.2,1,0.5C33.8,5.6,33.9,5.8,34,6c0,0.2,0,0.4,0,0.7c-0.1,1.5-0.2,2.9-0.2,4.4c0,1.3,0,2.6,0,3.9c0,1.2,0.1,2.4,0.1,3.6
		c0,0.5,0.1,0.9,0.1,1.4c0,0.6,0,1.2,0.1,1.8c0,0.5,0.1,0.9,0.2,1.4c0,0.3,0.1,0.6,0.1,0.8c-0.2,0.4-0.5,0.7-1,0.4
		c-0.2,0.1-0.4,0.2-0.6,0.3c-0.5-0.2-0.9-0.4-1.3-0.7c-0.2-0.5,0-1.1-0.1-1.6c-0.1-0.6-0.1-1.1-0.1-1.7c0-0.5,0-1.1,0-1.6
		c0.1-0.1,0.1-0.2,0.2-0.3c-0.1-0.2-0.1-0.3-0.2-0.5c0.1-0.4,0.1-0.4-0.1-0.7c0.1-0.1,0.1-0.3,0.2-0.6c0,0,0-0.1,0-0.3
		c-0.1,0.1-0.1,0.1-0.2,0.2c0-0.1,0-0.2-0.1-0.3c-0.1,0-0.1-0.1-0.2-0.1c-0.6-0.1-0.9-0.6-1.1-1.1c-0.2-0.4-0.4-0.8-0.6-1.2
		c-0.5-0.7-1-1.5-1.4-2.2c-0.5-0.7-0.9-1.4-1.3-2.2c-0.1-0.2-0.2-0.4-0.5-0.6c0,0.2-0.1,0.3-0.1,0.5c0,1.1,0,2.3,0.1,3.4
		c0,0.7-0.1,1.3-0.4,1.9c-0.2,0.7-0.7,1.2-1.3,1.6c-0.2,0.1-0.4,0.2-0.7,0.2c-0.2,0-0.3,0-0.5,0.1c-0.5,0.2-1,0-1.4-0.3
		c-0.6-0.5-1.1-1.1-1.5-1.8c-0.4-0.7-0.7-1.4-1-2.1c-0.3-0.8-0.7-1.6-0.8-2.5c-0.1-0.4-0.2-0.8-0.3-1.2C18.1,9,18,8.9,18,8.8
		c0-0.6,0-1.3,0-1.9C18,6.7,18.1,6.5,18.1,6.3z"/>
	<path fill="#bfa378" d="M39,6.5c-0.2-0.4-0.3-0.8-0.5-1.2c0.1-0.1,0.2-0.3,0.3-0.4c0.3-0.2,0.6-0.5,0.9-0.6c1-0.6,2-1.1,3-1.4
		c2.1-0.7,4.2-1.5,6.3-2.2c0.3-0.1,0.7-0.3,1-0.4C50.4,0,51-0.1,51.5,0.1c0.2,0.1,0.4,0.1,0.6,0.2c0.1,0.1,0.2,0.1,0.2,0.2
		c0.3,0.4,0.3,0.6,0,1c-0.2,0.2-0.3,0.3-0.5,0.4c-0.2,0.1-0.5,0.2-0.7,0.4c-0.5,0.1-1,0.2-1.5,0.4c-1.1,0.4-2.3,0.7-3.5,1.1
		c-0.3,0.1-0.5,0.1-0.7,0.4c-0.1,0.6,0,1.3,0,2c0.1,1,0.2,2.1,0.4,3.1c0.3,1.9,0.5,3.8,0.9,5.8c0.1,0.6,0.2,1.1,0.4,1.7
		c0.2,0.4,0,0.7-0.3,0.9c-0.1,0.1-0.3,0.1-0.4,0.2c-0.4,0.1-0.8,0.2-1.2,0.2c-0.4-0.4-1-0.3-1.3-0.9c0.1-0.4,0.1-0.9,0.2-1.4
		c0-0.2,0-0.4,0-0.6c-0.1-1.1-0.3-2.2-0.3-3.3c-0.1-1.8-0.5-3.6-0.6-5.4c0-0.4,0-0.9,0-1.3c-0.2-0.2-0.4-0.1-0.5,0
		c-0.7,0.4-1.4,0.7-2,1.3C40.1,6.6,39.6,6.7,39,6.5z"/>
	<path fill="#bfa378" d="M92.5,8.9c-0.3-0.2-0.7-0.3-1-0.5c-0.1,0-0.2-0.1-0.2-0.2c-0.6-0.7-1.4-0.9-2.2-0.9c-0.4,0-0.9,0-1.3,0
		c-0.3,0-0.6,0.1-0.8,0.4c0,0.3,0.1,0.4,0.2,0.6c0.7,1.2,1.5,2.2,2.4,3.3c0.6,0.8,1.1,1.5,1.5,2.4c0.2,0.5,0.3,0.9,0.3,1.4
		c0,1-0.3,1.9-1.2,2.5c-0.9,0.7-1.8,1.1-2.9,1.4c-0.2,0-0.3,0.1-0.5,0.1c-1,0.3-2,0.2-3,0.2c-0.1,0-0.1,0-0.2-0.1
		c-0.7-0.2-1.4-0.6-2-0.9c0-0.3,0-0.5,0-0.7c0-0.2-0.1-0.4-0.1-0.6c0.2-0.2,0.4-0.3,0.7-0.2c0.4,0.1,0.8,0.2,1.2,0.4
		c0.9,0.4,1.7,0.4,2.6,0.3c0.5-0.1,1-0.3,1.5-0.5c0.7-0.4,1.2-0.9,1.3-1.8c0.1-0.8-0.1-1.4-0.5-2.1c-0.5-0.9-1.1-1.7-1.8-2.5
		c-0.6-0.8-1.2-1.7-1.8-2.5c-0.3-0.4-0.5-0.9-0.7-1.3c0.1-0.3,0.2-0.6,0.2-0.8c0.2-0.3,0.5-0.4,0.8-0.5c1.2-0.4,2.3-0.6,3.6-0.6
		c1,0,2,0.1,2.9,0.4c0.7,0.2,1.2,0.7,1.5,1.3c0.1,0.1,0.1,0.3,0.2,0.5c0.2,0.6,0.1,1.1-0.5,1.3C92.8,8.8,92.6,8.8,92.5,8.9z"/>
	<path fill="#bfa378" d="M52.1,16.1c-0.1,0.4-0.4,0.6-0.8,0.7c-0.3,0.1-0.6,0.2-0.9,0.2c-0.4-0.2-0.8-0.4-1.2-0.7
		c-0.2-0.3-0.1-0.6-0.1-0.9c0.1-0.4,0.1-0.8,0-1.2c0-0.2,0-0.4,0-0.7c0-0.8,0.1-1.6,0-2.4c0-1-0.1-1.9-0.1-2.9c0-0.5,0-1,0-1.5
		c0-0.5,0-1,0-1.5c0.1-0.1,0.2-0.3,0.3-0.4c0.1,0,0.2,0,0.3-0.1c0.5-0.1,1,0.1,1.5,0.3c0.4,0.2,0.6,0.4,0.5,0.8
		c-0.4,1.4-0.2,2.8-0.1,4.1c0,1.1,0.1,2.2,0.2,3.3c0,0.1,0,0.3,0.1,0.4c0.2,0.6,0.3,1.2,0.4,1.8C52,15.7,52.1,15.9,52.1,16.1z"/>
</g>
</svg>
