<?xml version="1.0" encoding="utf-8"?>
<!-- Generator: Adobe Illustrator 18.1.1, SVG Export Plug-In . SVG Version: 6.00 Build 0)  -->
<svg version="1.1" id="Layer_1" xmlns="http://www.w3.org/2000/svg" xmlns:xlink="http://www.w3.org/1999/xlink" x="0px" y="0px"
	 viewBox="0 0 219.9 74.5" enable-background="new 0 0 219.9 74.5" xml:space="preserve">
<g>
	<path d="M39.3,62.8c-0.3-0.6-0.8-1.3-1.7-1.8c-0.5-0.2-1-0.4-1.4-0.5c-0.2,0-0.3-0.1-0.5-0.1l-0.5-0.1l-0.5,0.3
		c-0.1,0.1-0.2,0.1-0.4,0.2c-0.3,0.2-0.6,0.4-1,0.6c-0.7,0.5-1.4,0.9-2.2,1.1c-0.8,0.2-1.7,0.4-2.5,0.6c-1.3,0.3-2.6,0.7-3.9,1
		c-2.2,0.5-4.5,0.9-6.7,1.1c-0.5,0.1-1,0.2-1.5,0.3c-0.1,0-0.2,0-0.3,0.1l-2.3-13.8c0.2-0.1,0.5-0.1,0.7-0.2
		c0.7-0.3,1.5-0.6,2.2-0.9c0.9-0.3,1.7-0.7,2.6-1c2-0.7,3.7-1.4,5.5-2c1.1-0.4,2.3-0.5,3.5-0.5l0.3,0c1.2,0,2.1-0.4,2.8-1.2
		c1-1.2,0.9-3.3,0.2-4.6c-0.5-1-1.4-1.4-2-1.7c-0.2-0.1-0.3-0.2-0.5-0.3l-0.4-0.2l-1.1,0.2c-0.5,0.1-1.1,0.2-1.6,0.3
		c-0.4,0.1-0.6,0.2-1,0.3c-0.2,0.1-0.3,0.2-0.5,0.2c-0.2,0.1-0.4,0.2-0.5,0.2c-1.2,0.3-2.5,0.7-3.8,1.3l-0.1,0
		c-0.3,0.1-0.6,0.3-0.9,0.4l-2.6,1c-1,0.4-2,0.8-3,1.2c-0.2,0.1-0.5,0.2-0.7,0.3c0-0.2,0-0.4-0.1-0.6c-0.1-0.8-0.2-1.7-0.3-2.5
		c-0.2-1.7-0.4-3.5-0.5-5.3c0-0.5-0.1-0.9-0.1-1.4c-0.1-1.1-0.2-2.3-0.2-3.4c0-0.4,0-0.8-0.1-1.2c0-0.4-0.1-0.9-0.1-1.3
		c0-1.2,0-2.5,0-3.8c0-0.4,0-0.8,0-1.1c0-0.7-0.1-1.1,0.1-1.4c0.2-0.2,0.4-0.4,0.6-0.5l0.3-0.2c0.1-0.1,0.1-0.1,0.2-0.2
		c0.1-0.1,0.2-0.2,0.2-0.2c0.8-0.3,1.7-0.4,2.8-0.6c1.7-0.2,3.2-0.3,4.6-0.3l0.2,0c0.5,0,1,0,1.4-0.1c0,0,0,0,0,0
		c0.5,0.6,1.4,0.9,2.2,0.9l0.6,0c1-0.1,2.1-0.1,3.2-0.6c0.3-0.1,0.6-0.2,1.1-0.2c0.3,0,0.5-0.1,0.8-0.1c0.4,0,0.8-0.1,1.2-0.2
		c1.1-0.2,2-0.9,2.5-1.9c0.5-1,0.4-2.2-0.1-3.2c-0.1-0.1-0.1-0.2-0.2-0.4c-0.3-0.6-0.7-1.5-1.7-2L31.5,12l-1.3,0.1
		c-0.4,0-0.7,0-1,0.1l-0.1,0c-0.3,0-0.6,0-1,0.2c-1,0.5-2,0.8-3,0.8c-0.8,0-1.6,0.1-2.4,0.2c-0.5,0-1,0.1-1.5,0.1
		c-0.9,0.1-1.8,0.1-2.7,0.2l-0.8,0c-0.3,0-0.5,0-0.8,0c-0.4,0-0.9,0-1.3,0.1c-0.6,0-1.1,0.1-1.7,0.2c-0.3,0-0.6,0.1-0.9,0.1
		c-0.1-1.2-0.6-2.2-1.6-3c-0.7-0.6-1.6-1-2.5-1.2c-0.1,0-0.2,0-0.4,0c-1.4,0-3.1,1.7-3.2,3.1c0,0.5,0,1,0.1,1.5c0,0.2,0,0.4,0,0.6
		c0,0.7,0.1,1.4,0.1,2.1c0,0.1,0,0.3,0,0.4c0,0.3,0,0.5,0,0.9c0,0.4,0.1,0.8,0.1,1.2c0.1,0.5,0.1,1,0.1,1.5c0,0.7,0,1.3,0,2.1
		c0,0.9-0.1,1.8,0,2.7c0.1,1.1,0.1,2.3,0,3.5c0,0.6,0,1.1,0,1.7c0,0.3,0,0.7,0,1c0.1,0.8,0.1,1.7,0.2,2.5l0.3,3.4
		c0.1,1.3,0.2,2.5,0.3,3.8c0.1,1,0.2,2,0.4,3.1C7,45.7,7,46.4,7.1,47.1c0,0,0,0,0,0c-0.9,0.4-1.5,1.1-1.7,2c-0.3,1,0,2.1,0.7,3
		c0.4,0.5,0.9,1.1,1.7,1.5c0,0.3,0.1,0.5,0.1,0.7c0,0.2,0.1,0.5,0.1,0.7c0,0.4,0.1,0.8,0.1,1.3c0.1,0.7,0.2,1.4,0.3,2
		c0.1,0.8,0.3,1.6,0.4,2.3c0,0.3,0.1,0.6,0.1,0.9c0,0.6,0.1,1.2,0.2,1.8c0.2,0.9,0.2,1.8,0,2.9c-0.1,0-0.1,0.1-0.2,0.1
		c-0.6,0-1.3,0.1-1.9,0.2c-1,0.2-2,0.3-2.7,0.1c-0.3-0.1-0.5-0.1-1,0c-2,0.3-2.8,1.9-3.2,2.8L0,69.9l0.4,1.3c0.3,1,0.7,2.6,2.6,3
		l0.6,0.3l1.1-0.1c0.5-0.1,0.9-0.1,1.2-0.1c0.4,0,0.8-0.1,1.2-0.2c0.5-0.1,1-0.2,1.5-0.1l0.2,0c0.3,0,0.5-0.1,0.6-0.1
		c1-0.1,1.9-0.2,2.9-0.3c0.3,0.1,0.6,0.2,0.9,0.2c0.6,0,1.1-0.2,1.5-0.4l0.1,0c1.2-0.5,2.5-0.7,3.9-0.8c0.3,0,0.7-0.1,1-0.1l0.3,0
		c0.3,0,0.6-0.1,0.9-0.1l1.1-0.2c1.2-0.2,2.4-0.4,3.7-0.7c1.6-0.3,3.2-0.7,5-1.1c0.4-0.1,0.8-0.2,1.3-0.3c1-0.3,1.9-0.5,2.8-0.5
		l0.2,0c0.3,0,0.7,0,1.1-0.2c0,0,0,0,0,0c1.1,0.1,2.2-0.3,3-1c0.7-0.7,1-1.6,1-2.6c0-1-0.5-1.7-0.8-2.4L39.3,62.8z"/>
	<path d="M181.9,51.3l-0.3-0.3c-0.1-0.1-0.2-0.2-0.3-0.2c-0.1-0.1-0.2-0.2-0.2-0.2c-0.7-1-1.7-1.5-2.6-2c-1.1-0.6-2.3-0.6-3.5,0.1
		c-0.8,0.4-1.6,0.7-2.5,0.9c-0.9,0.2-1.8,0.4-2.7,0.7c-1.5,0.4-2.9,0.7-4.3,1c-0.3,0-0.5,0.2-0.6,0.2c-1,0.4-1.8,0.6-2.7,0.6
		c0,0,0,0,0,0c-0.3-2.2-0.6-4.4-0.5-6.7c0-1-0.1-2-0.2-3c0-0.5-0.1-0.9-0.1-1.4c0-0.1,0-0.1,0-0.2c0-0.1,0-0.2,0-0.2
		c0-0.1,0-0.2,0-0.3c0-0.3,0.1-0.6,0.1-1c0-0.4,0.1-0.5,0.4-0.6c0.8-0.3,1.5-0.7,2.3-1c0.9-0.4,1.8-0.8,2.7-1.2
		c0.5-0.2,0.9-0.4,1.4-0.6c2.3-1,4.4-1.9,6.7-2.5c1.1-0.3,1.9-1,2.5-2.2l0.2-0.5l-0.4-0.8c-0.1-0.2-0.2-0.5-0.4-0.7
		c-0.8-1.4-2.2-2.1-3.9-2c-2,0.1-3.7,0.7-5.6,1.4c-0.3,0.1-0.6,0.2-0.9,0.3c-0.7,0.2-1.5,0.5-2.2,0.9c-0.3,0.2-0.7,0.3-1.1,0.4
		c-0.4,0.1-0.8,0.3-1.2,0.5l0.1-0.7c0.2-1.5,0.5-3.1,0.7-4.6c0-0.2,0.1-0.3,0.1-0.5c0.1-0.9,0.2-1.3,0.7-1.5
		c0.3-0.2,0.5-0.5,0.6-0.7l0.2-0.2c0.6-0.6,1.1-1.1,1.7-1.3c1-0.4,2-0.7,3.1-1.1c0.9-0.3,1.9-0.7,2.8-1c0.1,0,0.2-0.1,0.3-0.1
		l0.3,1.1l1-0.1c0.2,0,0.3,0,0.5,0c0.4,0,0.9,0,1.3-0.1c0.6-0.1,2.3-0.5,2.7-2.3c0,0,0-0.1,0.1-0.1c0-0.1,0.1-0.2,0.1-0.2l0.2-0.4
		l-0.1-0.4c0-0.2-0.1-0.3-0.1-0.5c-0.1-0.4-0.1-0.8-0.2-1.1c-0.5-1.8-2-2.5-3.1-3c-1.3-0.6-2.8-0.7-4.7-0.2
		c-0.3,0.1-0.6,0.2-0.9,0.3c-0.6,0.2-1.2,0.4-1.8,0.5c-1.4,0.2-2.6,0.7-3.8,1.4c-1,0.6-1.7,0.8-2.5,0.7c-0.9-0.1-1.9,0-2.7,0.5
		c-0.5,0.3-1.2,0.7-1.8,1.1c-0.8,0.6-1.9,1.2-3.2,1.6c-1.2,0.4-2.2,1.6-2.6,3c-0.3,1.2,0,2.4,0.8,3.2l0.2,0.2
		c0.8,0.8,1.7,1.8,3.2,2.1c0,0,0,0.1,0,0.1c-0.1,0.5-0.2,1.1-0.3,1.7c-0.1,1.2-0.2,2.3-0.2,3.5c0,0.6-0.1,1.2-0.1,1.8c0,0,0,0,0,0
		c-0.5,0.1-0.9,0.2-1.3,0.4c-1,0.3-1.8,1-2.4,2c-1.1-1.1-2.4-1.5-3.6-1.8c0-0.1,0-0.3,0-0.4c0-0.3,0-0.6-0.1-0.9c-0.1-1-0.3-2-0.4-3
		c-0.1-0.9-0.2-1.7-0.4-2.6c-0.1-0.4-0.1-0.7-0.1-1.1l-0.2-1.8c-0.1-1.2-0.3-2.5-0.4-3.7c-0.1-1.3-0.3-2.7-0.4-4l-0.3-2.3
		c0-0.4-0.1-0.7-0.1-1.1c0-0.2,0-0.5,0-0.7c0-0.6,0-1.3-0.2-2c-0.3-1-0.3-2.1,0-3.4c0.5-2.4-0.5-4.7-2.7-6.1
		c-0.5-0.3-1.2-0.5-1.9-0.5c-0.9,0-1.7,0.3-2.3,0.7c-0.3,0.3-0.6,0.5-0.9,0.8l-0.8,0.7l0,0.5c-0.1,1.3,0.1,2.4,0.5,3.7
		c0.3,1.1,0.5,2.2,0.7,3.4c0.1,0.4,0.1,0.8,0.2,1.2c0,0.3,0.1,0.6,0.1,1c0,0.3,0,0.6,0,0.8c0.1,0.6,0.1,1.2,0.2,1.8
		c0.1,0.5,0.1,1,0.1,1.4c0.1,1.1,0.2,2.3,0.3,3.5l0.1,1.2l-0.9,1.2l0.7,0.8c0.4,0.5,0.7,1.1,0.7,1.9c0.1,1.2,0.2,2.3,0.4,3.5
		l0.1,0.7c0.1,0.8,0.2,1.6,0.3,2.4c0.1,1.1,0.3,2.1,0.4,3.2c-0.1,0-0.2,0.1-0.4,0.1c-0.8,0.2-1.6,0.4-2.4,0.5
		c-0.8,0.1-1.7,0.2-2.5,0.3c-0.6,0.1-1.3,0.2-1.9,0.2c-0.5,0.1-1,0.1-1.6,0.2c-0.9,0.1-1.7,0.2-2.6,0.3c-1.3,0.1-2.4,0.2-3.3,0.5
		l-0.4,0.1c-0.4,0.1-0.8,0.2-1.1,0.3c-0.6,0.1-1.1,0.1-1.7,0.2c-0.3,0-0.7,0.1-1,0.1c-0.1-0.8-0.2-1.5-0.3-2.3
		c-0.1-0.5-0.1-1-0.2-1.5c-0.1-0.8-0.2-1.6-0.3-2.5c-0.1-1-0.3-2-0.4-2.9c-0.2-1.3-0.4-2.6-0.6-3.9c-0.2-1.7-0.3-3.5-0.4-5.2l0-0.1
		c0-0.6-0.1-1.1,0.1-1.6c0.6-1.6-0.2-2.9-0.7-3.7c-0.2-0.3-0.3-0.5-0.4-0.7c-0.2-0.5-0.7-0.7-0.9-0.8c-0.2-0.1-0.3-0.2-0.5-0.2
		c-0.2-0.1-0.4-0.2-0.5-0.3c-0.6-0.3-1.2-0.5-1.9-0.5c-1.7,0-3.2,1.1-3.6,2.9c-0.1,0.4-0.2,0.9-0.2,1.2c0,0.1,0,0.2,0,0.4l-0.1,0.5
		l0.3,0.4c0.7,1,1.2,1.9,1.1,2.8c0,0.3,0,0.6,0.1,0.7c0.2,0.6,0.2,1.2,0.2,1.8c-0.1,0.5,0,0.9,0.1,1.3l0,0.1c0,0.2,0.1,0.5,0.2,0.7
		c0.1,0.3,0.1,0.5,0.2,0.8c0.2,1.6,0.4,3.3,0.6,4.9l0.6,4.6c0.2,1.4,0.4,2.9,0.5,4.3c-0.1,0-0.3,0.1-0.4,0.1c-1,0.2-2.3,0.5-3.3,1.7
		l-0.2,0.2l-0.1,0.3c-0.5,2,0.9,3.2,1.8,4l0.4,0.3l0.4,0.1c0.1,0,0.2,0,0.3,0l0,0c0.7,0.4,1.3,0.5,2,0.4c0.1,1,0.3,2,0.5,3
		c0.2,1.2,0.5,2.4,0.5,3.6c0,0.3,0.1,0.6,0.2,0.7l0.1,0.3c0.1,0.2,0.1,0.5,0.2,0.7l0,0.3c0.2,1.1,0.4,2.3,0.5,3.5
		c0.1,0.8,0.2,1.5,0.1,2.1c-0.1,1.1,0.2,2,0.4,2.7c0.1,0.4,0.3,0.7,0.5,1c0.1,0.1,0.1,0.2,0.2,0.4l0.2,0.4l0.4,0.2
		c0.1,0,0.1,0.1,0.2,0.1c1,1.1,2.3,1.2,3.3,1.2h0.1c1,0,2.1-0.5,2.7-1.3c0.6-0.8,0.8-1.9,0.6-3l-0.1-0.3c-0.1-0.3-0.2-0.5-0.2-0.8
		c-0.1-0.7-0.2-1.4-0.3-2.1c-0.1-0.5-0.1-1-0.2-1.6c0-0.4-0.2-1.3-1-2c-0.3-1.3-0.5-2.7-0.8-4.1c-0.2-1-0.3-2-0.5-3.1l-0.1-0.9
		c-0.1-0.7-0.2-1.5-0.3-2.2c1-0.2,2-0.3,2.8-0.4c0.5-0.1,1-0.1,1.4-0.1c0.5,0,1-0.1,1.4-0.1c0.5-0.1,1-0.1,1.6-0.2
		c0.8-0.1,1.6-0.2,2.4-0.3c2.4-0.1,4.8-0.4,7.4-0.9c0.2,0,0.4,0,0.6,0l0.2,0c0.2,0,0.4,0,0.6,0l0.3,0l0,0.1c0.1,0.7,0.2,1.4,0.2,2
		c0,0.4,0.1,0.7,0.1,1.1c0,0.7,0.1,1.5,0.2,2.3c0,0.2,0.1,0.5,0.1,0.7c0.1,0.5,0.2,0.9,0.2,1.3c0,0.2,0,0.4-0.1,0.6
		c0,0.1-0.1,0.3-0.1,0.4c0,0.1,0,0.2-0.1,0.3c-0.1,0.3-0.1,0.6-0.1,1c0,1.3,0.7,2.3,1.2,3l0.2,0.3c0.6,0.8,1.2,1.3,1.8,1.6
		c0.7,0.3,1.6,0.7,2.6,0.7c0.7,0,1.3-0.2,1.9-0.5l0.1-0.1c0.3-0.2,0.7-0.4,1.1-0.9c1.1-1.5,0.7-3,0.4-4c-0.1-0.3-0.2-0.7-0.4-1
		c-0.2-0.7-0.5-1.3-0.6-1.9c-0.5-2.4-1.2-5.3-1.4-8.1c0,0,0.1,0,0.1,0l0.4,0c0.4,0,1.2,0,2-0.6l0.2-0.2c0.2-0.3,0.4-0.6,0.5-0.9
		c0.1,0.2,0.3,0.5,0.6,0.6c0.2,0.1,0.4,0.3,0.5,0.4c0.5,0.4,1.1,0.9,1.9,1.1c0,0.6,0.1,1.1,0.1,1.7c0,0.3,0,0.6,0,0.9
		c0,0.3,0,0.5,0,0.8c0,0.5,0,1.1,0,1.6l0,0.4c0,0.4,0,0.7,0.1,1.1c0.1,0.5,0.1,0.9,0.2,1.4c0.1,0.9,0.2,1.8,0.3,2.7l0,0.1
		c0,0.4,0,0.7-0.1,0.9c-0.3,0.3-0.4,0.7-0.4,1c-0.2,1.7,0.1,3.2,1,4.6c0.4,0.7,0.9,1.3,1.4,1.6c0.5,0.4,1.1,0.7,1.6,1
		c0.2,0.1,0.4,0.2,0.6,0.4l0.5,0.3L160,62c1.3-0.4,2.7-1,3.9-2.1l0.1,0c0.3-0.1,0.6-0.1,0.9-0.2c0.8-0.2,1.4-0.4,2.1-0.6
		c0.8-0.3,1.6-0.6,2.4-0.7c0.3,0,0.5-0.1,0.7-0.2c1.8-0.6,3.8-1,5.4-1.2c0.4-0.1,0.7,0,1.1,0.1c0.5,0.1,1.1,0.1,1.7,0.1
		c0.3,0,0.6,0,0.9,0c0.2,0,0.4,0,0.7,0h0.7l0.4-0.5c0,0,0.1-0.1,0.1-0.2c0.2-0.2,0.4-0.5,0.6-0.9c0.6-1.2,0.4-2.3,0.3-3.3
		L181.9,51.3z M121.8,64.1L121.8,64.1L121.8,64.1L121.8,64.1z"/>
	<path d="M218,52.1c-0.1-0.4-0.3-0.9-0.5-1.3c-0.3-0.7-0.7-1.5-1.4-2.2l-0.2-0.2c-0.6-0.6-1.1-1-1.4-1.7c-0.3-0.9-0.8-1.8-1.2-2.6
		c-0.2-0.4-0.4-0.8-0.5-1.1c-0.9-2-1.9-4.1-2.8-6.1l-0.4-1c-0.6-1.3-1.2-2.5-1.7-3.8c-0.1-0.2-0.2-0.5-0.2-0.7
		c0.1-0.1,0.2-0.2,0.2-0.4c0.3-0.5,0.6-1,1-1.5c1-1.2,2-2.5,3.2-4c0.2-0.3,0.5-0.5,0.7-0.8c0.3-0.3,0.6-0.6,0.9-0.9
		c0.6-0.7,1.4-1.2,2.5-1.6c1.1-0.4,1.9-1,2.3-1.9c0.4-0.9,0.4-2,0-3c-0.1-0.3-0.3-0.7-0.4-0.9l-0.2-0.5l-0.6-0.6
		c-0.3-0.3-0.6-0.5-0.8-0.7c-0.3-0.2-0.6-0.4-0.8-0.4c-1.8-0.7-3.6-0.4-5,0.8c-0.4,0.3-0.7,0.7-1.1,1.1c-0.2,0.2-0.3,0.4-0.5,0.6
		c-0.3,0.3-0.5,0.5-0.8,0.8c-0.5,0.5-1,1-1.5,1.6c-0.7,0.8-1.4,1.7-2.1,2.5c-0.3,0.4-0.7,0.9-1,1.3c-0.1,0.1-0.1,0.1-0.2,0.2
		c0-0.1-0.1-0.2-0.1-0.2c-0.1-0.3-0.3-0.6-0.4-0.9c-0.2-0.5-0.5-0.9-0.7-1.4c-0.3-0.5-0.5-0.9-0.8-1.4l-0.2-0.4
		c-0.5-0.9-0.9-1.7-1.3-2.6c-0.4-0.8-0.7-1.6-1-2.5c-0.2-0.6-0.4-1.1-0.7-1.7c-0.1-0.2-0.2-0.5-0.3-0.8c-0.2-0.6-0.3-1.2-0.7-1.8
		c-0.3-0.6-0.8-1-1.3-1.5c-0.8-0.6-1.6-0.9-2.3-1.1c-0.2-0.1-0.5-0.1-0.8-0.2l-0.6-0.2l-0.8,0.6c-0.8,0.6-1.9,1.4-2.1,3
		c-0.2,1.3,0.1,2.4,1.1,3.6l0.1,0.2c0.8,1,1.6,2,2.2,3c0.1,0.2,0.2,0.5,0.3,0.7c0.1,0.3,0.2,0.6,0.4,0.8c0.2,0.3,0.4,0.6,0.5,0.9
		c0.2,0.3,0.3,0.5,0.4,0.8c0.7,1.2,1.3,2.5,1.9,3.8c0.7,1.4,1.4,2.8,2.1,4.1L199,29c0,0.1,0,0.1-0.1,0.1c-0.4,0.8-0.9,1.6-1.4,2.4
		c-0.9,1.5-1.8,3-2.5,4.7c-0.3,0.6-0.6,1.1-0.9,1.8c-0.2,0.4-0.4,0.7-0.6,1.1c-0.3,0.5-0.6,1.1-0.8,1.6c-0.2,0.4-0.4,0.7-0.6,1.1
		c-0.1,0.2-0.2,0.4-0.3,0.5c-0.1,0.2-0.2,0.4-0.4,0.6c-0.1,0.2-0.2,0.4-0.3,0.7c-0.5,0.9-0.9,1.7-1.6,2.3c-1.3,1-1.6,2.8-0.9,4.4
		c0.1,0.1,0.1,0.3,0.2,0.4c0.5,1.3,1.2,2.2,2.3,2.6c0.1,0.1,0.3,0.2,0.5,0.3c0.1,0.1,0.2,0.1,0.3,0.2c0.6,0.3,1.1,0.5,1.7,0.5
		c0.6,0,1.7-0.2,2.5-1.5c0.3-0.4,0.5-0.8,0.7-1.3c0.2-0.4,0.4-0.9,0.7-1.2c1-1.5,1.5-3.1,1.9-4.3c0.2-0.8,0.6-1.6,1-2.5
		c0.5-1.1,1.1-2.1,1.7-3.2c0.4-0.7,0.8-1.3,1.1-2c0.1,0.3,0.3,0.7,0.5,1c0.5,0.7,0.7,1.5,1,2.4c0.3,0.7,0.5,1.5,0.9,2.3
		c0.5,0.9,0.9,1.8,1.3,2.8c0.2,0.5,0.4,1,0.7,1.5c0.2,0.4,0.4,0.9,0.6,1.3c0.4,0.8,0.8,1.6,1.1,2.5c0.2,0.6,0.5,1.2,0.7,1.7
		c0.4,1,0.8,1.9,1.1,2.9c0.4,1.5,1.5,2.4,2.7,3.2c0.7,0.5,1.5,0.7,2.4,0.7c0.3,0,0.6,0,1-0.1c0.6-0.1,1.5-0.5,1.8-1.3
		c0.5-1,1.2-2.8-0.1-4.5C218.6,53.8,218.3,53,218,52.1z"/>
	<path d="M71.3,22.5l-0.4-0.1l-1.5,0.8L68.7,24c-0.4,0.5-0.8,0.9-1.1,1.4c-0.2,0.3-0.3,0.5-0.4,0.7c-0.1,0.1-0.2,0.3-0.2,0.3
		c-0.8,0.5-1.3,1.3-1.7,1.9c-0.1,0.2-0.2,0.3-0.3,0.5l-0.5,0.7c-0.9,1.3-1.8,2.5-2.9,3.6l-0.4,0.4l0.1,0.6c0,0.1,0,0.1-0.2,0.3
		c-0.1,0.1-0.1,0.1-0.2,0.2c-0.2-0.5-0.3-1-0.5-1.6c-0.4-1.3-0.8-2.6-1.2-3.9c-0.4-1.2-0.9-2.4-1.3-3.6c-0.3-0.7-0.5-1.4-0.8-2.1
		l-0.1-0.3c-0.3-0.9-0.6-1.6-0.6-2.5c0-1.2-0.1-2.8-1.5-3.9c-0.2-0.2-0.4-0.3-0.6-0.5l-0.6-0.5l-1.7-0.2c-1.6-0.2-2.8,0.6-3.4,2.1
		c-0.6,1.3-0.5,2.7,0.3,4.1c0.1,0.3,0.3,0.5,0.5,0.8c0.4,0.7,0.8,1.4,1,2c0.1,0.2,0.1,0.4,0.3,0.6C51,26,51.4,27,51.7,28
		c0.1,0.3,0.2,0.6,0.3,0.9c0.4,1.1,0.7,2.1,1.1,3.3c0.4,1.2,0.7,2.4,1.2,3.5c0.6,1.5,1.1,3.1,1.5,4.6c0.2,0.6,0.4,1.2,0.6,1.8
		c-0.1,0.4-0.2,0.7-0.3,1.1c-0.2,0.9-0.4,1.6-0.9,2.1c-0.4,0.4-0.6,0.9-0.7,1.3c0,0.1-0.1,0.2-0.1,0.2c-0.1,0.2-0.2,0.5-0.3,0.7
		c-0.1,0.2-0.2,0.5-0.3,0.7c-0.1,0.2-0.2,0.3-0.3,0.5c-0.1,0.2-0.2,0.3-0.3,0.5c-1,1.7-1.7,3.4-2.3,5.1c-0.4,0.9-0.7,1.8-1.1,2.7
		c-0.6,1.4-1.2,2.7-2.3,3.6c-0.7,0.6-1.1,1.4-1.2,2.4c-0.1,1,0.2,2,0.8,2.8c0.5,0.6,1.1,1,1.6,1.5l0.4,0.3c0.5,0.4,1.1,0.6,1.8,0.6
		c1,0,1.8-0.4,2.2-1.1c0.6-0.9,1.1-1.7,1.5-2.6c0.4-1,0.8-2,1.2-2.9c0.3-0.8,0.6-1.6,1-2.5c0.4-1,0.9-2,1.3-2.9
		c0.2-0.5,0.5-1.1,0.7-1.6c0.2-0.5,0.4-1,0.6-1.4c0.1-0.3,0.3-0.6,0.4-0.9c0.8,2.1,1.6,4.3,2.4,6.4l0.3,0.8c0.4,1.1,0.8,2.2,1.3,3.2
		c0.7,1.6,1.3,3.2,1.4,5l0,0.4l0.3,0.3c1.2,1.3,1.3,1.4,2.5,1.9c0.4,0.2,0.8,0.2,1.3,0.2c1.6,0,3.5-1.1,3.7-3
		c0.1-0.7-0.1-1.3-0.3-1.8l-0.1-0.3c-0.3-1-0.6-2-0.9-3l0-0.1c0-0.1-0.1-0.3-0.1-0.4c-0.1-0.5-0.3-1.1-0.7-1.7
		c-0.3-0.3-0.5-0.7-0.7-1.3c-0.1-0.2-0.2-0.4-0.2-0.5l-0.2-0.4L69,57.9l-0.7-1.8c-0.7-1.7-1.3-3.4-2-5.2c-0.5-1.2-0.9-2.4-1.3-3.6
		c-0.3-0.8-0.5-1.5-0.8-2.3c-0.4-1-0.3-1.2,0-1.5c0.3-0.3,0.5-0.7,0.6-1l0.1-0.2c0.1-0.2,0.1-0.3,0.2-0.5c0.1-0.2,0.1-0.3,0.2-0.4
		l0.1-0.2c1.3-2,2.6-4.1,4-6.1c0.7-1,1.4-2,2.1-2.9l0.5-0.7c0.4-0.6,1.1-1,1.8-1.5l0.4-0.3c0.8-0.6,1.4-1.4,1.6-2.4
		c0.2-0.9-0.1-1.9-0.6-2.7C74.3,23.4,73.1,22.8,71.3,22.5z"/>
</g>
</svg>
