<?xml version="1.0" encoding="utf-8"?>
<!-- Generator: Adobe Illustrator 18.1.1, SVG Export Plug-In . SVG Version: 6.00 Build 0)  -->
<svg version="1.1" id="Layer_1" xmlns="http://www.w3.org/2000/svg" xmlns:xlink="http://www.w3.org/1999/xlink" x="0px" y="0px"
	 viewBox="0 0 75.2 66.8" enable-background="new 0 0 75.2 66.8" xml:space="preserve">
<path d="M22,5.6c0.2-0.2,0.4-0.4,0.5-0.5c0.7-0.1,1.4-0.3,2.1-0.3c1.2,0,2.4-0.2,3.7,0c0.2,0,0.4-0.2,0.7-0.4
	c-0.3-0.3-0.5-0.6-0.7-0.9c-0.4-0.4-0.4-0.9-0.1-1.4c0.5-0.9,2.5-2.1,3.4-2c0.3,0,0.6,0.1,0.9,0.2c2.1,0.6,4.1,1.5,6.1,2.4
	c1.6,0.8,3.2,1.6,4.7,2.5c1.7,0.9,3.3,2,5,2.9c2.9,1.7,5.5,3.9,8.1,6c2.9,2.4,5.7,4.9,8.3,7.7c1.9,2,3.7,4.1,5.2,6.4
	c2.1,3.2,3.6,6.7,4.2,10.6c0.3,1.9,0.6,3.8,0.3,5.8c-0.1,1.3-0.4,2.5-0.7,3.7c-0.5,2-1.4,3.8-2.7,5.4c-0.5,0.7-1,1.4-1.5,2.1
	c-0.4,0.5-0.8,1-1.2,1.4c-1.8,1.7-3.8,3.2-6,4.5c-1.7,1-3.4,1.8-5.3,2.4c-2.9,1-5.8,2-8.9,2.2c-2.2,0.2-4.4,0.2-6.6,0.1
	c-4.7-0.3-9.3-1.2-13.7-3c-4-1.6-7.7-3.6-11.1-6c-1.8-1.3-3.6-2.7-5.3-4.2c-1.3-1.1-2.4-2.5-3.5-3.8c-1.5-2-2.9-4-4-6.3
	c-1.1-2.5-2-5-2.7-7.6c-0.4-1.5-0.6-3-0.9-4.5c-0.2-0.7-0.2-1.4-0.2-2.1c0-1.1,0-2.1,0-3.2c0-3.2,1.1-6,3-8.5c0.6-0.9,1.3-1.7,2-2.5
	c0.2-0.2,0.4-0.5,0.6-0.7c1.5-1.2,2.9-2.5,4.5-3.7c1.9-1.3,3.8-2.6,5.9-3.5c1.3-0.5,2.6-1,3.9-1.4C20.9,5.4,21,5.4,22,5.6z
	 M42.2,63.8L42.2,63.8L42.2,63.8c0.1-0.1,0.2-0.2,0.3-0.3c0.6-0.1,1.1-0.2,1.7-0.2c1,0,1.9,0,2.9,0c4,0.1,7.7-1,11.3-2.5
	c3.9-1.6,7.1-4.3,9.3-7.9c2.1-3.4,3.2-7.1,2.5-11.2c-0.2-1-0.4-1.9-0.5-2.8c-0.3-2.3-1.5-4.3-2.5-6.4c-0.5-1-1.1-2-1.7-2.9
	c-1.2-1.6-2.6-3.2-3.9-4.7c-0.1-0.1-0.2-0.2-0.3-0.3c-1.6-1.5-3.2-3-4.8-4.5c-2.3-2-4.6-3.9-6.9-5.8c-0.7-0.5-1.3-1.1-2.2-1.4
	c-0.2,0.1-0.4,0.3-0.6,0.4c-0.7,0.5-1.5,0.7-2.3,0.8c-0.6,0.1-1.2-0.1-1.6-0.6c-0.4-0.5-0.8-0.8-1.3-1.1c-1.4-0.9-2.9-1.6-4.5-2.2
	c-2.5-0.9-5.1-1.4-7.7-1.9c-1.3-0.2-2.6-0.3-4-0.3c-0.8,0-1.6,0.2-2.4,0.2C20.4,8.3,18.2,9,16,10.1c-3.6,1.9-6.6,4.6-9.1,7.8
	c-1.9,2.4-2.6,5.2-2.6,8.1c0,3.1,0.7,6.2,1.6,9.1c0.8,2.7,1.9,5.3,3.2,7.8l0,0c1.1,1.7,2.3,3.4,3.6,4.9c1.5,1.8,3.3,3.3,5.1,4.9
	c0.9,0.8,2,1.4,3,2.2c0,0.1-0.1,0.2-0.1,0.3c0,0.1,0.1,0.2,0.2,0.3c0.1-0.1,0.2-0.2,0.3-0.3c0.5,0.3,1,0.5,1.4,0.8
	c1.5,0.9,2.9,1.9,4.5,2.6c2.1,1,4.1,2.1,6.3,2.7c0.2,0.1,0.5,0.2,0.7,0.3c-0.1,0.1-0.4,0-0.3,0.3c0.1-0.2,0.2-0.3,0.3-0.4
	c1.5,0.4,3,0.7,4.6,1.1c0.3,0.1,0.6,0.2,0.8,0.3c0.5,0.3,1.1,0.5,1.7,0.3c0.5-0.1,1-0.1,1.5,0.2C42.5,63.6,42.3,63.7,42.2,63.8z
	 M18,55.5L18,55.5c-0.2,0.2-0.1,0.4,0,0.6c0.1,0.1,0.1,0.4,0.3,0.3c0-0.3-0.2-0.2-0.4-0.3C18,56,18,55.8,18,55.5z M17.9,54.2
	c-0.1-0.1-0.1-0.1-0.2-0.2c0,0.1-0.1,0.1-0.1,0.2c0,0,0.1,0.1,0.1,0.1C17.8,54.2,17.8,54.2,17.9,54.2z M36.1,62.9
	c-0.1,0-0.2-0.1-0.3-0.1c0,0.1,0,0.2,0,0.2c0,0,0.1,0.1,0.1,0C36,63,36,62.9,36.1,62.9z M37.2,65.3c0,0,0.1,0,0.1,0
	c0-0.1,0-0.2,0-0.2c0,0-0.1,0-0.1,0C37.2,65.1,37.2,65.2,37.2,65.3z M37.3,63.3c0.1,0,0.1,0.1,0.2,0.1c0,0,0-0.1,0-0.1
	c-0.1-0.1-0.1-0.1-0.2-0.1C37.3,63.2,37.3,63.2,37.3,63.3z M20.1,56.5l0.1,0.1l0-0.1L20.1,56.5z M31,5.4c0,0,0,0.1,0,0.1
	c0,0,0.1,0,0.1,0C31.1,5.5,31.1,5.4,31,5.4C31.1,5.4,31,5.4,31,5.4z"/>
<path d="M27.3,38.5c-0.4-2-1-3.9-1-5.8c0-0.2,0-0.3,0-0.5c-0.6-1.8-0.2-3.6-0.5-5.4c-0.1-0.5,0-1.1,0-1.7c0.1-0.9-0.2-1.6-0.9-2.1
	c-1.2-0.9-2.3-1.8-3.5-2.6c-0.8-0.5-1.4-1-1.8-1.7c0-0.5,0.3-0.8,0.5-1.1c0.7-0.8,1.6-1.1,2.5-1.3c0.8-0.2,1.6,0.1,2.3,0.6
	c0.7,0.6,1.5,1.1,2.1,1.7c1.4,1.3,3.1,2.3,4.6,3.6c1.4,1.3,3.1,2.3,4.8,3.3c2.1,1.4,4.2,2.6,6.4,3.9c0.6,0.3,1.2,0.6,1.8,0.8
	c1.9,0.8,3.7,1.6,5.8,1.9c0.8,0.1,1.4,0.6,2,1.1c0.4,0,0.9,0,1.3-0.1c0.3,0,0.5-0.1,0.7-0.2c1.4-0.2,1.8,0.1,2.5,1.5
	c-0.1,0.2-0.1,0.4-0.2,0.7c-0.3,0.7-0.7,1.2-1.5,1.3c-1,0.1-1.9,0.5-2.7,1c-1.6,0.8-3.4,1.4-4.9,2.4c-0.1,0.1-0.3,0.2-0.4,0.2
	c-3.3,1.2-6.3,2.8-9.2,4.7c-0.8,0.5-1.6,1.1-2.3,1.8c-0.5,0.4-0.8,0.9-1.2,1.4c0.1,0.6,0.1,1.1,0.2,1.6c-0.4,1-1.3,1.5-2.2,1.8
	c-1.3,0.5-2.8,0.7-4.2,0.3c-0.2-0.1-0.5-0.2-0.7-0.3c-0.7-0.4-0.8-1.2-0.4-1.8c0.1-0.2,0.3-0.4,0.5-0.6c0.6-0.4,0.8-1,0.8-1.7
	c0-0.8,0-1.6-0.2-2.4c-0.3-1.1-0.6-2.2-0.8-3.3C27.1,40.4,27,39.4,27.3,38.5z M33,43.9c1.3-0.7,2.4-1.6,3.7-2.3
	c1.3-0.7,2.5-1.3,3.8-2c1.3-0.7,2.6-1.3,3.9-2c0.1-0.4,0.1-0.6,0.2-0.9c0.3-0.3,0.6-0.7,1-1.1c-0.4-0.2-0.6-0.5-0.9-0.6
	c-2-0.9-4-1.8-5.8-3c-1.6-1-3.3-2-4.9-3c-0.7-0.5-1.4-1-2.2-1.4c-0.2-0.1-0.5-0.2-0.9-0.2c-0.1,0.3-0.2,0.6-0.2,0.8
	c-0.1,4,0.6,8,1.2,12c0.2,1.1,0.5,2.2,0.8,3.2C32.6,43.6,32.8,43.7,33,43.9z"/>
</svg>
