<?xml version="1.0" encoding="utf-8"?>
<!-- Generator: Adobe Illustrator 18.1.1, SVG Export Plug-In . SVG Version: 6.00 Build 0)  -->
<svg version="1.1" id="Layer_1" xmlns="http://www.w3.org/2000/svg" xmlns:xlink="http://www.w3.org/1999/xlink" x="0px" y="0px"
	 viewBox="0 0 361.8 74.5" enable-background="new 0 0 361.8 74.5" xml:space="preserve">
<g>
	<path d="M140.1,38.6l-0.2-0.2c-0.4-0.5-0.9-1.2-1.8-1.6c0,0,0,0-0.1-0.1c-0.2-0.2-0.6-0.7-1.4-0.7c-0.2,0-0.4,0-0.6,0.1
		c-0.6-0.2-1.3-0.2-2,0.1c0,0,0,0-0.1,0c-0.2,0-0.3,0-0.5,0.1l-0.1,0c-0.3,0.1-0.8,0.2-1.1,0.6c-0.1,0.1-0.3,0.2-0.5,0.3
		c-0.2,0.1-0.3,0.1-0.5,0.2c-1,0.5-2.1,0.7-3.2,0.9c-0.9,0.2-1.9,0.4-2.9,0.7c-0.3,0.1-0.7,0.2-1.1,0.3c-0.4,0.1-0.8,0.2-1.3,0.3
		c-2,0.6-3.9,0.9-5.8,1.2c-0.5,0.1-1.1,0.1-1.6,0.2c-1.2,0.2-2.4,0.3-3.6,0.5c-0.9,0.1-1.9,0.3-2.7,0.5c-0.4,0.1-0.7,0.2-1.1,0.2
		l-0.1,0c-0.3,0.1-0.7,0.1-1,0.2c-0.8,0.3-1.6,0.5-2.4,0.8l-1.3,0.4l-0.2,0.5c0,0.1-0.1,0.2-0.1,0.2c-0.2,0.3-0.4,0.6-0.4,1
		c-0.1,0.5-0.2,1.3,0,2c0.5,1.5,2.2,2.3,3.6,2.3c0.2,0,0.5,0,0.8-0.1c0.6-0.1,1.3-0.3,1.9-0.8c0.1,0,0.2-0.1,0.2-0.1l0.2-0.1
		c0.8-0.3,1.7-0.5,2.7-0.6c0.5-0.1,1.1-0.2,1.6-0.3c0.1,0,0.1,0,0.2,0l0.1,0c0.2,0,0.4,0,0.6,0c0.6-0.1,1.2-0.2,1.8-0.3
		c0.7-0.1,1.4-0.3,2.2-0.4c0.9-0.2,1.7-0.3,2.6-0.4c0.8-0.1,1.6-0.3,2.5-0.4c0.3-0.1,0.6-0.1,0.9-0.2c0.2-0.1,0.5-0.1,0.7-0.2
		c1.1-0.2,2.3-0.4,3.4-0.7c0.9-0.2,1.9-0.4,2.8-0.6c0.1,0,0.2,0,0.2,0c-0.1,0.5-0.2,1-0.3,1.5l-0.1,0.3c-0.2,0.7-0.3,1.4-0.5,2
		c-0.3,1.1-0.6,2.2-0.9,3.2l-0.2,0.7c-0.2,0.7-0.4,1.3-0.6,1.9c-0.3,0.9-0.6,1.7-1,2.7c-0.2,0.4-0.3,0.7-0.4,1.1
		c-0.6,1.4-1.1,2.7-2,3.8c-0.4,0.4-0.7,0.9-1,1.3c-0.3,0.4-0.6,0.8-0.9,1.2c-0.9,0.9-1.5,1.6-2.4,2.1c-0.8,0.5-1.7,1-2.7,1.5
		c-0.8,0.4-1.5,0.7-2.2,0.8c-0.5,0.1-1,0.2-1.6,0.2c-0.7,0-1.4-0.1-2.3-0.2c-1.3-0.2-2.3-0.6-3.1-1.1l-0.3-0.2
		c-1.4-0.9-2.8-1.7-3.9-2.9c-1.2-1.2-2.5-2.6-3.6-4.3l-0.1-0.2c-0.8-1.4-1.6-2.7-2.2-4.1C99,55,98.7,54.5,98.4,54
		c-0.4-0.8-0.8-1.6-1-2.4c-0.1-0.6-0.3-1.2-0.5-1.7c-0.1-0.4-0.3-0.9-0.4-1.3c-0.3-1-0.5-2.1-0.7-3.2l-0.3-1.5
		c-0.3-1.2-0.5-2.4-0.7-3.6c-0.4-2.3-0.7-4.8-1-7.3c-0.3-2-0.5-4-0.6-5.9c-0.1-1.4,0-2.8,0-4.1c0-0.6,0-1.1,0-1.7
		c0-2.3,0.4-4.7,1.1-7.4c0.3-1.3,0.8-2.5,1.3-3.6c0.5-1.2,1.5-2,2.7-2.9l0.2-0.2l0.1,0c1-0.2,1.9-0.3,2.6,0l1,0.4
		c0.8,0.3,1.6,0.6,2.4,0.9c0.2,0.1,0.5,0.2,0.8,0.4c0.2,0.1,0.4,0.2,0.6,0.3l0.3,0.2l0.3,0c0,0,0.1,0,0.3,0.2l0.3,0.2
		c0.4,0.3,0.7,0.5,1.1,0.8l0.7,0.6c0.7,0.5,1.4,1.1,2,1.6c0.4,0.4,0.8,0.8,1.3,1.2c0.4,0.4,0.8,0.8,1.3,1.2c1.2,1.1,2.2,2.5,3.3,3.9
		c0.5,0.7,0.7,1.4,0.7,2.2c0,0.9,0,1.9,0.5,2.6c0.8,1.3,1.9,1.9,3.3,1.9c0,0,0,0,0,0c0,0,0.1,0,0.1,0c0.3,0.1,0.9,0.1,1.3-0.1
		l0.2-0.1c0.6-0.2,1.5-0.6,1.9-1.7l0.1-0.2v-0.2c0-0.1,0-0.2,0-0.3c0,0,0,0,0,0c0.3-0.8,0.2-1.6-0.3-2.5c-0.3-0.5-0.5-1-0.8-1.5
		c-0.8-1.6-1.6-3.5-3-5.1l-0.2-0.2c-0.7-0.8-1.5-1.7-2.3-2.5c-1.5-1.4-3-2.8-4.6-4c-1.1-0.9-2.3-1.7-4-2.6c-1.1-0.7-2.4-1.2-3.4-1.6
		c-1.6-0.7-3.5-1.4-5.7-1.7c-1.3-0.2-2.4-0.1-3.6,0.3c-0.4,0.1-0.8,0.3-1.3,0.4c-1.4,0.4-2.6,1.2-3.8,2.4C91.2,5,90.6,5.9,90,6.8
		c-0.7,1.2-1.1,2.4-1.4,3.6c-0.1,0.3-0.2,0.5-0.2,0.8c-0.2,0.7-0.3,1.3-0.5,2c-0.1,0.3-0.1,0.5-0.2,0.8c-0.1,0.2-0.1,0.5-0.1,0.7
		c0,0.3,0,0.5,0,0.8c0,0.5,0,0.9-0.1,1.3c-0.2,0.9-0.3,1.9-0.3,2.7l0,0.3c-0.1,1.7,0,3.4,0,5.1c0,0.6,0,1.2,0,1.8c0,0.3,0,0.6,0,0.8
		l0.1,1c0,0.5,0.1,1.1,0.1,1.6c0,0.3,0.1,0.6,0.1,1c0,0.2,0.1,0.3,0.1,0.5c0,0.2,0.1,0.5,0.1,0.7c0,0.4,0.1,0.9,0.2,1.3
		c0.1,0.5,0.2,1,0.2,1.6c0.1,0.5,0.2,1.1,0.3,1.6c0,0.3,0.1,0.6,0.1,0.9c0,0.4,0.1,0.9,0.2,1.3c0.3,2,0.7,3.6,1,5.1
		c0.2,0.9,0.4,1.7,0.6,2.6l0.2,0.7c0.1,0.5,0.2,0.9,0.4,1.4c0.3,0.9,0.5,1.8,0.7,2.7c0.2,1.3,0.6,2.6,1.2,3.8l0.5,1.1
		c0.6,1.3,1.3,2.6,2,3.9c0.1,0.3,0.3,0.5,0.4,0.8c0.4,0.8,0.9,1.7,1.6,2.5c0.2,0.2,0.3,0.4,0.5,0.7c0.2,0.3,0.4,0.7,0.7,1
		c0.9,1,1.8,1.9,2.7,2.8c0.3,0.3,0.7,0.6,1.1,0.9c0.2,0.2,0.4,0.3,0.6,0.5c0.1,0.1,0.3,0.3,0.5,0.5l0.6,0.4c0.8,0.6,1.6,1.1,2.4,1.6
		c0.8,0.5,1.6,0.9,2.3,1.1c0.9,0.4,1.7,0.6,2.4,0.8c1.1,0.3,2.1,0.4,3.1,0.5c0.2,0,0.3,0,0.5,0c0.3,0,0.7,0,1-0.1c0.2,0,0.4,0,0.5,0
		c1-0.1,2.1-0.2,3.2-0.6c0.3-0.1,0.6-0.2,0.9-0.3c0.8-0.2,1.6-0.5,2.3-0.9c0.3-0.2,0.7-0.4,1.1-0.6c0.5-0.2,1-0.5,1.5-0.8
		c0.8-0.5,1.6-1.1,2.3-1.7c0.7-0.6,1.3-1.3,2-2.2c0.7-0.9,1.5-1.9,2.2-2.9c1.2-1.9,2.2-4,3-6.5c0.2-0.6,0.4-1.3,0.6-1.9
		c0.4-1.1,0.8-2.3,1.1-3.4c0.5-1.6,0.9-3.2,1.3-4.8c0.2-0.8,0.4-1.5,0.6-2.3c0.1-0.6,0.2-0.6,0.3-0.7c0.4-0.2,0.7-0.5,0.8-0.7l0.8-1
		l0.4-2.1l-0.4-2.3L140.1,38.6z M113.8,46.4C113.8,46.4,113.8,46.4,113.8,46.4L113.8,46.4L113.8,46.4z"/>
	<path d="M13.7,37.1c0,0.3,0.1,0.6,0.1,0.9c0.1,0.6,0.2,1.2,0.2,1.8c0.1,1.8,0.3,3.5,0.6,5.2c0.1,0.6,0.2,1.2,0.3,1.8l0.1,0.4
		c0.2,1.1,0.3,2.2,0.2,3.2c-0.1,0.8-0.1,2,0.5,3l0.1,0.2l0.5,0.3c0.2,0.1,0.4,0.3,0.6,0.4c0.6,0.4,1.3,0.8,2,0.8
		c1,0,1.8-0.6,2.3-1.3c0.4-0.4,0.7-1.1,0.7-1.6c0-0.6,0-1.2-0.1-1.7l0-0.3c0-0.2-0.1-0.4-0.1-0.5l0,0c0.1-0.8,0-1.6-0.2-2.3
		l-0.1-0.3c0-0.1,0-0.2,0-0.3c-0.1-0.5-0.2-1.1-0.6-1.7c-0.1-0.1-0.1-0.2-0.2-0.6c-0.1-1-0.3-2-0.4-3.1c-0.1-0.6-0.1-1.2-0.1-1.8
		c0-0.5-0.1-1-0.1-1.5c-0.1-1-0.2-1.9-0.2-2.9l-0.1-0.6c0.1,0,0.2-0.1,0.2-0.1c1.1-0.5,2.3-0.9,3.5-1.4l0.5-0.2
		c0.5-0.2,0.9-0.4,1.4-0.5c1-0.4,2.1-0.8,3.2-1.3c0.4-0.2,0.9-0.3,1.5-0.3c0,0,0,0,0,0c0.2,1.7,0.3,3.4,0.4,5l0,0.1l0,0.1
		c0,0.2,0,0.3-0.1,0.5c0,0.2,0,0.5,0,0.7c0,0.7-0.1,1.4,0,2.1c0,0.3,0.1,0.6,0.2,0.9c0.1,0.5,0.2,0.9,0.2,1.3c0,0.3-0.1,0.8,0.1,1.2
		c0.3,1.2,0.2,2.4,0,3.7c-0.1,0.8-0.1,1.9,0.1,2.7l0,0.2l0.1,0.2c0.8,1.4,1.9,1.9,2.9,2.4l0.3,0.1l1.9-0.2l2.2-2.9l-0.6-0.2
		c0-0.1,0.1-0.3,0.1-0.4c0.4-1.1,0.3-2.1,0.3-3c0-0.3,0-0.5,0-0.8l0-1l-1.3-0.2c0,0,0,0,0,0c0-0.3,0-0.7,0-1.1c0-0.4,0-0.9-0.1-1.4
		c0.2,0,0.4-0.1,0.7-0.2c0.3-0.1,0.5-0.2,0.8-0.3c0.2-0.1,0.5-0.2,0.7-0.3c0.7-0.3,1.5-0.5,2.2-0.7c0.2,0.7,0.4,1.4,0.6,2.1
		c0.3,1.1,0.6,2.1,0.8,3.2c0,0.2-0.1,0.3-0.1,0.5c0,0.1,0,0.2,0,0.4c0,0.5,0,1.1,0.3,1.7c0.6,1.2,1.7,2.1,3.1,2.4
		c1.1,0.3,2.2-0.1,3-0.9c0.6-0.6,0.8-1.4,0.8-2.2c0-0.1,0-0.1,0-0.2c0-0.1,0-0.1,0-0.2c0.7,0.4,1.7,0.6,2.7,0.3
		c0.7-0.2,1.4-0.3,2.1-0.4c0.4,0,0.7-0.1,1.1-0.2c0.2,0,0.3-0.1,0.5-0.1c0.1,0,0.1,0,0.2-0.1c0.3-0.1,0.6-0.1,0.9-0.2
		c0.6-0.1,1.3-0.3,1.8-0.3c1.3,0,2.5-0.5,3.4-1l0.5-0.2c0.2-0.1,0.4-0.2,0.6-0.3c0.1-0.1,0.2-0.1,0.2-0.1c0.9-0.2,1.4-0.8,1.7-1.1
		c0.4-0.4,0.7-0.9,0.9-1.3c0.2-0.4,0.4-0.9,0.4-1.4c0.1-0.9-0.1-1.7-0.5-2.6l-0.2-0.5l-0.5-0.2c-0.1,0-0.1,0-0.2,0
		c-1.5-0.8-3-0.6-4.3,0.7c-0.2,0.2-0.5,0.4-0.9,0.6c-0.2,0.1-0.5,0.2-0.7,0.3L59,38.2c-0.1,0-0.2,0.1-0.3,0.1
		c-0.1,0.1-0.3,0.1-0.4,0.2c-0.9,0.4-1.8,0.5-2.8,0.7l-0.4,0.1c-0.9,0.2-1.7,0.3-2.4,0.2c-0.2-0.6-0.4-1.4-0.4-1.9
		c0-0.2,0-0.5,0-0.7c0,0,0-0.1,0-0.1l0.1,0c0.7-0.1,1.3-0.2,2-0.3c0.6-0.1,1.2-0.2,1.8-0.2c0.7-0.1,1.5-0.2,2.2-0.3
		c0.5-0.1,1.1-0.2,1.7-0.3c0.3-0.1,0.6-0.2,0.9-0.3c0.2-0.1,0.4-0.2,0.6-0.2c0.2-0.1,0.3-0.1,0.5-0.1c0.3-0.1,0.6-0.1,0.9-0.2l0.1,0
		c0.7-0.3,1.4-0.5,2.1-0.9c0.6-0.4,1.2-1,1.5-1.7c0.2-0.6,0.1-1.3,0-1.7l0-0.2c-0.1-0.3-0.2-0.6-0.3-0.9c0-0.1-0.1-0.2-0.1-0.3
		l-0.2-0.5l-0.5-0.2c-0.1-0.1-0.2-0.1-0.4-0.2c-0.2-0.1-0.5-0.2-0.7-0.3c-0.8-0.5-1.7-0.4-2.5,0.1c-0.1,0.1-0.3,0.2-0.4,0.3
		c-0.1,0.1-0.2,0.2-0.3,0.2l-0.5,0.2c-0.8,0.3-1.5,0.6-2.2,0.7c-1,0.2-2,0.5-2.9,0.7c-0.5,0.1-1,0.3-1.5,0.4
		c-0.4,0.1-0.8,0.2-1.2,0.3c0.1-0.4,0.3-0.7,0.5-1c0.5-0.6,1.2-1,2-1.3c0.5-0.1,1-0.3,1.4-0.5c0.5-0.2,1-0.4,1.5-0.5
		c0.8-0.1,1.5-0.5,2.1-0.8c0.2-0.1,0.5-0.2,0.7-0.3c0.6-0.2,2-0.8,2.5-2.5l0.1-0.3l-0.3-2.2l-1.8-2.1L60,18.9l-0.4,0.2
		c-0.1,0-0.2,0.1-0.3,0.1c-0.3,0.1-0.8,0.3-1.2,0.6c-0.7,0.6-1.6,1.1-2.5,1.5c-0.4,0.2-0.8,0.3-1.3,0.5c-0.7,0.3-1.4,0.6-2.1,0.8
		c-0.8,0.3-1.4,0.6-2,1c-0.6,0-1.1,0.2-1.5,0.4c-0.2,0.1-0.3,0.2-0.5,0.2c-0.5,0.1-0.8,0.5-0.9,0.7c-1.1,1.2-1,2.7-1,3.8
		c0,0.6,0.1,1.2-0.1,1.8c0,0.1,0,0.1,0,0.2c-0.2-0.1-0.5-0.1-0.7-0.1c0,0,0,0,0,0c-0.1-0.3-0.1-0.6-0.2-1c-0.5-2.1-1-4-0.6-5.9
		l0.1-0.4l-0.2-0.4c-0.7-1.5-1.1-1.8-2.5-2.5L41,19.9l-0.7,0.3c0,0-0.1,0-0.1,0.1c-1.6,0.4-2.1,1.8-2.4,2.5
		c-0.2,0.4-0.2,0.9-0.1,1.3c0.1,0.4,0.3,0.9,0.4,1.3c0.1,0.3,0.2,0.5,0.2,0.8c0.1,0.2,0.1,0.5,0.2,0.7c0.1,0.5,0.2,0.9,0.3,1.4
		l0.5,2.7c0.1,0.5,0.2,0.9,0.3,1.4l0.1,0.2c-0.1,0.1-0.3,0.1-0.4,0.2c-0.6,0.3-1.2,0.6-1.7,0.8c-0.4,0.1-0.9,0.3-1.4,0.4
		c0,0,0-0.1,0-0.1c-0.1-0.7-0.1-1.5-0.1-2.2c-0.1-1.3-0.1-2.6-0.2-4c0-0.3,0-0.6,0-0.9c0-0.6,0-1.1-0.1-1.7c-0.2-1.8-1-2.8-2.7-3.4
		c-0.4-0.1-0.6-0.2-0.9-0.2c-0.7,0-1.3,0.4-1.8,1.1c-0.2,0.3-0.3,0.6-0.5,0.9l-0.5-0.2L28.1,24c-0.5,0.3-1,0.6-1.5,0.9
		c-0.2,0.1-0.4,0.2-0.6,0.2c-0.1,0-0.2,0.1-0.3,0.1l-0.3,0.1c-0.2,0.1-0.4,0.1-0.5,0.2c-0.3,0.1-0.5,0.2-0.8,0.3
		c-0.4,0.2-0.8,0.4-1.2,0.5c-0.5,0.2-1.1,0.4-1.6,0.6c-0.5,0.2-1,0.4-1.5,0.6c0,0-0.1,0-0.1,0c-0.5-0.9-1.9-2.1-2.9-2.1l-0.1,0
		c-0.2,0-0.5,0-0.7,0.1c-2.2,0.7-3.3,2.6-2.9,4.7c0,0,0,0.1,0,0.1c-0.1,0.1-0.2,0.1-0.3,0.1c-1.2,0.5-2.3,1-3.3,1.3
		c-0.4,0.1-0.7,0.3-1,0.5c-0.4,0.2-0.8,0.4-1.1,0.5c-0.8,0.1-1.6,0.5-2.2,0.8C4.8,33.8,4.4,34,4,34.1c-0.7,0.2-1.2,0.5-1.7,0.9
		c-0.2,0.1-0.4,0.2-0.6,0.4c-1.3,0.7-2,2.2-1.6,3.6c0.5,1.8,1.8,2.2,3,2.3l0.4,0l0.3-0.2c2.8-1.5,5.8-2.5,9-3.6
		C13.1,37.3,13.4,37.2,13.7,37.1z"/>
	<path d="M232.4,28.9c-0.1-0.2-0.2-0.4-0.3-0.6c-1-1.8-2.5-3.3-4.7-4.7c-0.3-0.6-0.8-1.1-1.5-1.5c-0.4-0.2-0.7-0.5-1.1-0.8
		c-0.2-0.1-0.3-0.2-0.5-0.4c-0.1-0.1-0.2-0.2-0.4-0.3c-0.3-0.2-0.5-0.4-0.8-0.6c-0.9-0.6-1.9-1.3-2.8-1.9l-1.8-1.3
		c-0.1-0.1-0.2-0.2-0.3-0.2c-0.3-0.2-0.5-0.4-0.9-0.6c-0.7-0.4-1.5-0.7-2.2-1c-0.4-0.2-0.7-0.3-1.1-0.5c-0.1,0-0.2-0.1-0.3-0.1
		c-0.2-0.1-0.4-0.2-0.5-0.3l-0.5-0.2c-0.8-0.4-1.7-0.7-2.5-1.1c-0.4-0.2-0.8-0.3-1.2-0.4c-0.2,0-0.3-0.1-0.5-0.1
		c-0.3-0.1-0.6-0.2-0.9-0.3c-0.6-0.2-1.1-0.4-1.8-0.5c-0.4-0.1-0.8-0.2-1.2-0.3l-0.6-0.1c-0.1,0-0.3-0.1-0.4-0.1
		c-0.4-0.1-0.8-0.2-1.3-0.2l-0.2,0c-0.1,0-0.3,0-0.6-0.5L200.7,9l-1.4,0c-0.1,0-0.2,0-0.4,0l-0.2,0c-0.8,0-1.6,0.3-2.1,0.9
		c0,0,0,0-0.1,0c-0.3,0.1-0.8,0.1-1.3,0.1c-0.2,0-0.3,0-0.5,0l-0.2,0c-0.2,0-0.5,0-0.5,0c-0.8-0.4-1.6-0.6-2.7-0.6l-0.1,0
		c-1.6,0-2.6,0.7-3.1,2c-1,2.3-0.1,4.5,2.2,5.6c0.3,0.1,0.6,0.3,0.9,0.4l0.9,0.4l0.5-0.2c0.1,0,0.1,0,0.2,0c0.3-0.1,0.8-0.2,1.3-0.6
		c0.4-0.4,1-0.5,1.9-0.5c0,0,0,0,0,0c0,0.2,0,0.3,0,0.5c0,0.3,0,0.6,0.1,1l0.1,0.5c0.2,1.2,0.4,2.3,0.4,3.5c0.1,1.4,0.2,2.6,0.5,3.7
		c0.1,0.5,0.2,1,0.2,1.5c0,0.5,0.1,1,0.2,1.5c0.2,0.8,0.2,1.6,0.3,2.4c0,0.3,0,0.7,0.1,1l0,0.5c0.1,1,0.2,2,0.2,3l0,0.2
		c0.1,1.1,0.1,2.1,0,3.1c0,0.7,0,1.3,0.1,1.9c0.1,0.6,0.1,1.2,0,1.8c-0.2,1-0.1,2-0.1,3c0,0.3,0,0.6,0,0.9c0,1.1-0.4,2.2-0.7,3.3
		c-0.4,1-0.8,2.2-0.5,3.6c0,0.3,0.1,0.6,0.3,0.9l-0.9,0.1l-0.3,0.6c-0.1,0.1-0.1,0.2-0.1,0.3c0,0.1-0.1,0.2-0.1,0.3
		c-0.7,1.5-0.4,3.1,0.9,4.1c0.6,0.4,1.2,0.8,1.8,1c0.5,0.2,1,0.3,1.5,0.3c0.8,0,1.7-0.2,2.7-0.6c0.8-0.3,1.5-0.8,2.2-1.2
		c0.6-0.4,1.3-0.8,1.9-1c0.1-0.1,0.2-0.1,0.3-0.2l0.8-0.5c0.6-0.4,1.1-0.7,1.7-1.1c0.3-0.2,0.6-0.4,0.9-0.6c0.3-0.2,0.7-0.5,1-0.7
		c0.3-0.2,0.6-0.4,1-0.6c0.5-0.3,1.1-0.7,1.6-1c0.4-0.3,0.9-0.6,1.3-0.9c0.6-0.4,1.1-0.8,1.7-1.2c1.4-0.8,2.7-1.9,4.3-3.2
		c0.4-0.4,0.9-0.7,1.4-1c0.3-0.2,0.5-0.4,0.8-0.6l0.3-0.2c0.5-0.3,0.9-0.7,1.4-1c0.4-0.3,0.8-0.7,1.2-1c0.5-0.4,1-0.8,1.5-1.2
		c2.1-1.7,3.8-3.7,5.2-6.4c1-1.9,0.7-3.9,0.2-5.3C233.2,30.3,232.8,29.5,232.4,28.9z M205.4,41c0-0.6,0-1.2-0.1-1.7
		c0-1.2-0.1-2.4-0.1-3.7c0-0.5,0-1-0.1-1.5c-0.2-1.5-0.3-3-0.5-4.4c-0.3-2.8-0.7-5.6-1-8.4c0-0.3-0.1-0.7-0.2-1
		c0-0.3-0.1-0.5-0.1-0.8c-0.1-0.7-0.2-1.5-0.3-2.2c0.2,0,0.4,0.1,0.7,0.1c0.1,0,0.3,0.1,0.4,0.1c0.5,0.1,1,0.2,1.6,0.4
		c0.5,0.1,1,0.3,1.5,0.4c1,0.2,2,0.6,3,1c0.3,0.1,0.5,0.2,0.8,0.3c0.4,0.1,0.7,0.4,1.1,0.6c0.2,0.1,0.5,0.3,0.7,0.4
		c0.2,0.1,0.3,0.2,0.5,0.2c0.1,0.1,0.3,0.1,0.4,0.2L214,21c0.4,0.2,0.8,0.4,1.1,0.7c1.4,1,2.7,1.9,4,2.8c1.5,1.1,2.8,2.1,4,3.1
		c0.8,0.7,1.6,1.5,2.3,2.3c0.2,0.3,0.4,0.7,0.7,1.2c0,0.1,0.1,0.2,0.1,0.2l-0.1,0.1l-0.1,0l0,0.1l-0.1,0.1c-0.1,0.1-0.2,0.2-0.3,0.3
		l-1,1l1,0.8l-0.1,0.2l0.2,0.1l-0.2,1.2c-0.6,0.8-1.3,1.4-2,2.1c-0.3,0.2-0.5,0.5-0.8,0.8c-0.7,0.7-1.5,1.3-2.3,2
		c-0.3,0.2-0.6,0.5-0.9,0.7c-0.1,0.1-0.2,0.1-0.3,0.2c-0.2,0.1-0.3,0.2-0.5,0.3c-0.6,0.4-1.2,0.9-1.8,1.3c-0.8,0.6-1.6,1.2-2.4,1.8
		l-0.3,0.2c-1.2,0.9-2.4,1.8-3.6,2.6c-1.1,0.8-2.3,1.5-3.4,2.2l-0.3,0.2c-0.6,0.4-1.2,0.8-1.9,1.1c0-0.2,0-0.4,0-0.5
		c0.3-2,0.4-3.6,0.4-5C205.5,43.8,205.5,42.4,205.4,41z M225.7,33.3L225.7,33.3L225.7,33.3C225.7,33.3,225.7,33.3,225.7,33.3z"/>
	<path d="M195.5,38c0-0.1,0-0.2,0-0.3c0-0.3-0.1-0.6-0.1-0.9c0-0.6-0.1-1.3-0.2-1.9c-0.1-0.5-0.2-0.9-0.3-1.4
		c-0.1-0.5-0.2-0.9-0.2-1.3c-0.1-1.1-0.5-2.1-0.8-3.1c-0.1-0.3-0.2-0.7-0.3-1c-0.2-0.8-0.6-1.6-0.9-2.3c-0.6-1.2-1.2-2.4-1.7-3.5
		c-0.6-1.1-1.1-2.1-1.6-3c-0.2-0.4-0.5-0.8-0.7-1.3c-0.2-0.3-0.3-0.5-0.5-0.8c-0.9-1.6-1.9-2.8-2.9-3.8c-0.1-0.1-0.2-0.2-0.3-0.3
		c-0.3-0.3-0.6-0.7-1-0.9c-1.2-0.7-2.5-1.3-4.2-1.1c-0.2,0-0.3,0-0.5,0l-0.5,0c-0.2,0-0.4,0-0.5,0c-0.3,0-0.6,0.1-0.9,0.2
		c-0.1,0-0.2,0.1-0.3,0.1l-0.4,0.1l-0.3,0.3c-0.2,0.2-0.4,0.4-0.7,0.6c-0.5,0.4-1.2,0.9-1.7,1.7c0,0-0.1,0.1-0.2,0.1
		c-0.1,0.1-0.2,0.2-0.3,0.3c-0.5,0.5-1.2,1.1-1.6,2c-0.1,0.1-0.1,0.3-0.2,0.4c-0.1,0.3-0.2,0.5-0.3,0.6c-0.8,1-1.4,2.1-1.8,3.6
		c-0.1,0.2-0.1,0.4-0.2,0.6c-0.1,0.2-0.2,0.4-0.3,0.6c-0.2,0.5-0.4,1-0.6,1.6c-0.3,1-0.5,2.1-0.6,3c-0.1,0.3-0.1,0.6-0.1,1
		c-0.1,0.8-0.2,1.5-0.5,2.1c-0.3,0.7-0.4,1.4-0.5,2.1c0,0,0,0.1,0,0.1c-0.1-0.4-0.2-0.8-0.3-1.1c-0.3-1-0.8-1.9-1.2-2.8
		c-0.1-0.3-0.2-0.5-0.4-0.8c-0.4-1-1-2.3-2.1-3.3c0,0-0.1-0.1-0.2-0.2c-0.8-1.4-2-2.5-3.1-3.5c-0.3-0.2-0.5-0.5-0.8-0.7
		c-0.6-0.5-1.3-1.2-2.3-1.7c-0.3-0.1-0.5-0.3-0.8-0.5c-0.3-0.2-0.5-0.4-0.8-0.5c-0.2-0.1-0.5-0.2-0.8-0.4c-0.2-0.1-0.3-0.1-0.5-0.2
		c0,0,0,0,0,0c0,0,0-0.1,0-0.1l0-0.4l-0.2-0.4c-0.9-1.4-2-2.1-3.6-2.5l-0.4-0.1l-0.4,0.2c-0.1,0-0.2,0.1-0.3,0.1
		c-0.4,0.1-0.9,0.3-1.4,0.7l-0.3,0.2c-0.7,0.5-1.5,1.2-1.9,2.3c-0.1,0.1-0.1,0.1-0.2,0.2l-0.3,0.4c-0.3,0.5-0.6,0.9-0.8,1.4
		c-0.1,0.2-0.2,0.4-0.3,0.7c0,0.1-0.1,0.3-0.2,0.4c-0.6,0.9-0.9,1.9-1.1,2.7l-0.1,0.6c-0.2,0.8-0.4,1.7-0.6,2.6
		c-0.3,1.5-0.4,2.6-0.5,3.6c-0.1,1.1-0.2,2.3-0.2,3.6c0,0.9,0,1.8,0,2.7c0,0.6,0,1.1,0,1.7c0,0.8,0,1.5,0.1,2.3
		c0.1,1.2,0.1,2.3,0,3.3c0,0.3,0,0.5,0,0.6c0,0.4,0.1,0.8,0.1,1.2c0.1,1,0.2,2,0.2,2.9c0,1.2,0.2,2.3,0.3,3.4c0.1,1,0.2,1.9,0.3,2.9
		c0,0.6,0.1,1.3,0.2,2c0.2,1.1,0.5,2.1,0.8,3.2c0.4,1.3,1,2.9,2.4,4.3c0.4,0.4,0.8,0.7,1.2,0.9c0.2,0.1,0.3,0.2,0.5,0.3
		c0.5,0.4,1.3,0.6,1.9,0.6l0.1,0c0.8,0,1.6-0.1,2.4-0.2c1.3-0.3,2.5-0.9,3.5-1.5c0.4-0.2,0.8-0.5,1.1-0.8c0.2-0.1,0.3-0.3,0.5-0.4
		c1.3-1,2.5-2.1,3.5-3.3c0.4-0.5,0.8-1,1.1-1.5c0.2-0.2,0.3-0.5,0.5-0.7c1-1.4,1.8-2.8,2.5-4.4c0.1-0.3,0.3-0.7,0.4-1
		c0.2-0.4,0.3-0.8,0.5-1.2c0.5-1.2,0.9-2.5,1.2-4c0,0.1,0,0.3,0.1,0.4l-0.3,1.8l0.1,0.3c0.2,0.6,0.3,1.1,0.3,1.5
		c0,0.9,0.1,1.7,0.3,2.4c0.1,0.4,0.2,0.8,0.4,1.3c0.1,0.4,0.3,0.8,0.3,1.2c0.3,1.7,1.1,3.1,1.8,4.5l0.2,0.3c0.5,1,1.2,2.1,2.2,3.1
		c0.8,0.8,1.6,1.4,2.6,1.9c0.1,0.1,0.3,0.1,0.4,0.2c0.2,0.1,0.5,0.2,0.6,0.3c0.9,0.6,1.9,0.9,3,0.9c1.2,0,2.4-0.4,3.4-0.8
		c0.6-0.2,1-0.5,1.4-0.8c0.2-0.1,0.4-0.3,0.6-0.4c1.5-0.8,2.7-2,3.7-3.1c1.5-1.6,2.6-3.4,3.6-5.1c0.9-1.6,1.7-3.4,2.4-5.2
		c0.3-0.9,0.7-2,1-3.1c0.4-1.5,0.6-2.7,0.8-3.8c0.2-1.3,0.3-2.6,0.4-3.9l0-0.5C195.6,38.6,195.5,38.3,195.5,38z M160.6,37.5
		c0,0.3,0,0.6,0,0.9l0,0.9l-0.4,0.2c0.2,1,0.2,2-0.2,2.9c0,0.5-0.1,0.9-0.2,1.4l0.2,0c0,0.3-0.1,0.5-0.2,0.8
		c-0.3,0.9-0.5,1.7-0.8,2.6c-0.2,0.6-0.4,1.1-0.6,1.7c-0.4,1.1-1,2.1-1.7,3.2l-0.3,0.4c-0.8,1.2-1.7,2.2-2.8,3.3
		c-0.3,0.4-0.7,0.7-1,1.1c-0.5,0.5-1.1,0.9-2.1,1.3c-0.1,0.1-0.3,0.1-0.4,0.2c-0.1,0.1-0.3,0.1-0.4,0.1l-0.1,0
		c-0.3,0-0.6-0.2-0.7-0.5c-0.3-0.9-0.5-1.8-0.6-2.8c-0.1-0.5-0.2-1-0.3-1.6c-0.2-0.7-0.2-1.5-0.3-2.2c-0.1-0.7-0.1-1.5-0.3-2.3
		c-0.1-0.4-0.1-0.8-0.1-1.3c0-0.2,0-0.4,0-0.6l-0.1-1.6c-0.1-1.3-0.1-2.7-0.2-4c0-1.4,0-2.7,0-4.1c0-0.6,0-1.3,0-1.9l0-1.2
		c0-0.7,0-1.4,0-2c0-0.1,0-0.2,0-0.4c0-0.1,0-0.3,0-0.4c0-0.3,0.1-0.7,0.1-1c0.1-0.7,0.1-1.3,0.2-2c0.1-0.4,0.1-0.8,0.2-1.2
		c0.1-0.4,0.2-0.8,0.2-1.3c0.1-0.8,0.4-1.6,0.7-2.5c0.2,0,0.4,0,0.7,0l0.2,0c0.1,0,0.2,0,0.4,0c0.7,0,1.6-0.2,2.3-1.3
		c0.4,0.2,0.9,0.5,1.5,0.9c1.9,1.4,3.3,3,4.4,4.7c0.7,1.2,1.3,2.4,1.7,3.8c0.2,0.8,0.3,1.6,0.5,2.5c0.1,0.5,0.1,0.9,0.2,1.4
		C160.6,36.3,160.6,36.9,160.6,37.5z M188.7,40.4c-0.1,0.8-0.2,1.5-0.4,2.3c-0.2,0.8-0.4,1.7-0.6,2.6c-0.2,0.7-0.4,1.5-0.6,2.2
		l-0.2,0.7c0,0.1-0.1,0.3-0.2,0.4l-0.3,0.7c-0.2,0.4-0.4,0.8-0.5,1.2c-0.4,1-1,2-1.6,2.9c-0.2,0.3-0.3,0.5-0.5,0.8
		c-0.3,0.5-0.7,1-1.1,1.5c-0.3,0.4-0.6,0.8-1,1.2c-0.4,0.5-1.1,1-1.7,1.5c-0.3,0.2-0.8,0.4-1.3,0.6l-0.3,0.1c-0.6,0.2-1,0.2-1.6-0.1
		c-0.7-0.4-1-1-1.5-1.8c-0.6-1-0.9-2-1.3-3c-0.1-0.4-0.2-0.8-0.2-1.3c0-0.2-0.1-0.5-0.1-0.7l-0.1-0.7c-0.1-0.6-0.2-1.2-0.3-1.8
		c-0.1-0.7-0.1-1.3-0.2-2c-0.1-0.9-0.1-1.9-0.2-2.8c0-0.4,0-0.8,0-1.2c0-0.4,0-0.9,0-1.3c0-1.1,0-2.1,0.1-3.2c0.2-2,0.5-3.9,0.7-5.9
		c0.2-1.4,0.5-2.9,0.8-4.4c0.1-0.5,0.2-0.9,0.4-1.4c0.1-0.3,0.2-0.5,0.3-0.8c0-0.1,0.1-0.2,0.1-0.3c0.1-0.4,0.3-0.9,0.3-1.5
		c0-0.1,0.1-0.3,0.2-0.6c0.1-0.2,0.3-0.5,0.4-0.9c0.3-1,0.9-2,1.5-3c0.1-0.2,0.2-0.2,0.3-0.2c0.1,0,0.1,0,0.2,0l1.2,0.2l1.9-1.6
		c0.1,0.1,0.2,0.3,0.3,0.4c0.4,0.5,0.8,1,1.1,1.5c0.8,1.2,1.6,2.5,2.2,3.8c0.2,0.3,0.3,0.6,0.5,0.9c0.4,0.6,0.7,1.1,0.7,1.6
		c0,0.3,0.1,0.6,0.3,0.8c0.4,0.6,0.6,1.3,0.8,2.1c0.1,0.4,0.2,0.8,0.3,1.2c0.4,1.2,0.7,2.4,0.9,3.6c0.1,0.5,0.1,0.7,0,0.9
		c-0.3,0.4-0.3,0.9-0.4,1.2c0,0.1,0,0.1,0,0.2l-0.1,0.5l0.4,0.5c0.1,0.1,0.2,0.3,0.3,0.4C188.8,38.8,188.8,39.4,188.7,40.4z"/>
	<path d="M361.7,3.4c-0.2-1.1-0.7-2-1.7-2.7c-0.9-0.6-1.8-0.8-2.8-0.5c-0.3,0.1-0.5,0.1-0.8,0.1l-0.6,0.1l-0.2,0.1
		c-0.3,0.2-0.6,0.3-0.9,0.5c-0.6,0.3-1.1,0.6-1.6,0.9C353,1.9,352.8,2,352.6,2c-0.9,0.4-1.9,0.8-2.7,1.6c-0.6,0.5-1.2,0.9-2,1.2
		l-0.3,0.1c-0.6,0.3-1.3,0.5-2,1c-0.3,0.2-0.6,0.4-0.8,0.5l-0.6,0.3c-1,0.5-2.1,1.1-3.1,1.5c-0.6,0.3-0.9,0.4-1,0.4
		c-0.2,0-0.5-0.1-0.9-0.2c-2.2-0.5-3.2,0.7-3.8,1.5c0,0.1-0.1,0.2-0.2,0.3c-0.1,0.1-0.2,0.2-0.3,0.3l-0.3,0.4l0,0.4c0,0-0.1,0-0.1,0
		c-1.2,0.5-2.4,1.2-2.3,3.2c0,0.7,0.3,1.3,0.5,1.8c0,0.1,0.1,0.3,0.1,0.4c0.2,0.4,0.4,0.7,0.7,0.9l0.2,0.3L333,26
		c-0.2,0.1-0.4,0.2-0.5,0.3c-0.7,0.2-1.4,0.4-2.1,0.6l-0.5,0.1c-1.7,0.5-2.5,1.3-2.6,3.1l0,0.4l1.4,2.4l1.8,1.3h0.4
		c0.8,0,1.5-0.3,2-0.6c0,0,0,0,0,0l-0.1,1.3c0,0.1,0,0.2,0,0.3c0,0.2-0.1,0.5-0.1,0.7c0,0.4,0,0.9,0,1.3c0,0.6,0,1.3-0.1,1.9
		c-0.1,0.9-0.2,1.9-0.3,2.9c0,0.3-0.1,0.6-0.2,0.9c-0.1,0.2-0.1,0.5-0.2,0.7c0,0.1,0,0.2-0.1,0.3c-0.1,0.4-0.2,0.9-0.1,1.4
		c0.3,2,1.6,3.5,3.9,4.5c0.3,0.1,0.6,0.2,1,0.2c0.5,0,1.1-0.2,1.5-0.5c0.1-0.1,0.3-0.2,0.5-0.3c0.1-0.1,0.3-0.2,0.5-0.3l0.3-0.1
		l0.2-0.2c0.1-0.1,0.2-0.2,0.4-0.2c1-0.2,1.9-0.4,2.8-0.7l0.3-0.1c0.8-0.2,1.6-0.5,2.4-0.8l0.9-0.3c0.3-0.1,0.7-0.2,1-0.4l0.1,0
		c0.2-0.1,0.5-0.2,0.7-0.3c0.4-0.2,0.8-0.3,1.1-0.4c0.4-0.1,0.9-0.2,1.3-0.3c0.9-0.2,1.7-0.4,2.6-0.5c1.7-0.2,3.3-0.2,4.8,0.2
		c0.2,0,0.4,0.1,0.6,0.1l0.6,0.1l0.5-0.4c0,0,0.1-0.1,0.1-0.1c1.7-1,2.2-2.7,1.4-4.4c-0.3-0.7-0.7-1.2-1.1-1.6
		c-0.5-0.5-1.5-1.3-2.9-1.1c-0.4,0-0.7,0-1,0c-0.7-0.2-1.6,0-2,0.1l-0.5,0.1c-0.5,0.1-1,0.3-1.4,0.3c-1.4,0.1-2.8,0.4-3.9,0.7
		c-0.7,0.2-1.4,0.4-2.1,0.7c-0.5,0.2-0.9,0.3-1.4,0.5l-0.2,0.1c-1.4,0.5-2.9,0.9-4.4,1.3c-0.4,0.1-0.9,0.2-1.4,0.3l0-0.6
		c0-1.2,0-2.4,0-3.6c0-1.3,0.1-2.6,0.1-3.9l0.1-1.8c0-0.1,0-0.1,0-0.2c0.1,0,0.1,0,0.2-0.1l0.8-0.3c1.1-0.4,2.3-0.9,3.4-1.4
		c1.4-0.6,2.8-1.3,4.1-2l0.6-0.3c0.3-0.1,0.5-0.3,0.8-0.5c0.2-0.1,0.4-0.2,0.6-0.4l0.4-0.2c1.2-0.6,2.5-1.2,3.6-2.1
		c0.2-0.1,0.3-0.2,0.5-0.4c0.5-0.3,0.9-0.7,1.3-0.9c1.2-0.6,1.9-1.4,2.6-2.2l0.2-0.3c0.5-0.6,0.6-1.5,0.2-2.3
		c-0.6-1.1-1.7-1.8-3-1.8c-0.4,0-0.9,0.1-1.3,0.3c-0.7,0.3-1.3,0.7-2,1.1c-0.5,0.3-1,0.6-1.5,0.8c-0.2,0.1-0.4,0.2-0.6,0.4
		c-0.3,0.2-0.5,0.3-0.6,0.3c-0.6,0-1.1,0.4-1.3,0.6c-0.2,0.2-0.5,0.3-0.8,0.5l-0.3,0.1c-0.4,0.2-0.7,0.4-1.1,0.6
		c-0.7,0.4-1.3,0.8-2,1.1c-0.6,0.3-1.2,0.6-1.7,0.9c-0.4,0.2-0.7,0.4-1.1,0.5c-0.1,0-0.2,0.1-0.4,0.1c-0.2,0.1-0.5,0.1-0.7,0.2
		c-0.2,0.1-0.3,0.1-0.5,0.2c0.2-2,0.5-4.1,1-6.5c0-0.2,0.2-0.5,0.4-0.8c0.2-0.1,0.5-0.3,0.7-0.6c0.2-0.4,0.7-0.6,1.2-0.9
		c0.5-0.3,1-0.5,1.5-0.8c0.5-0.2,1-0.5,1.4-0.7c1-0.5,2-1.1,3-1.6l0.7-0.4c0.9-0.5,1.9-1,2.8-1.5c0.3-0.1,0.5-0.3,0.8-0.5
		c0.5-0.3,0.9-0.6,1.4-0.7c0.3-0.1,0.6-0.3,0.8-0.4c0.2-0.1,0.5-0.3,0.6-0.3l0.6,0.3l0.6-0.3c0.2-0.1,0.3-0.2,0.5-0.3
		c0.2-0.1,0.4-0.2,0.5-0.3c1.3-0.3,2.3-1,3.2-1.6l0.5-0.3l0-0.6c0-0.1,0-0.3,0-0.4C361.8,4.2,361.8,3.8,361.7,3.4z"/>
	<path d="M315.7,41.8l0-1.1c0-0.7,0-1.4,0-2.1c0-0.8-0.1-1.6-0.1-2.4c0-0.6-0.1-1.1-0.1-1.7c-0.1-0.6-0.1-1.3-0.2-1.9l0.7-0.3
		c4.6-2,9.3-4,14.1-5.4l0.5-0.1l1.7-2.8l-0.2-0.5c-0.3-1.1-1.1-1.5-1.6-1.7c-0.1,0-0.2-0.1-0.3-0.1l-0.4-0.5l-0.6,0.1
		c-0.2,0-0.5,0-0.7,0.1c-0.6,0-1.3,0.1-2,0.2c-0.6,0.1-1.1,0.3-1.6,0.5c-0.2,0.1-0.4,0.1-0.6,0.2l-1.1,0.4c-0.9,0.3-1.8,0.6-2.7,0.9
		c-0.3,0.1-0.5,0.2-0.7,0.3c-0.1,0-0.2,0.1-0.3,0.1c-0.9,0.2-1.6,0.5-2.3,0.8c-0.6,0.2-1.1,0.5-1.6,0.6c-0.3,0.1-0.7,0.2-1,0.3
		c0-0.1,0-0.3,0-0.4c-0.2-1.4-0.3-2.7-0.6-4.1l0-0.1c-0.2-1.6-0.5-3-0.6-4.5l0.2-0.1c0.9-0.4,1.7-0.7,2.5-1c0.3-0.1,0.6-0.2,0.9-0.3
		c0.2-0.1,0.4-0.1,0.6-0.2c0.8-0.3,1.6-0.7,2.2-1c1.8-0.9,3.5-1.6,5-2.3c0,0,0,0,0.1,0c0.1,0.2,0.3,0.4,0.6,0.6l0.6,0.5L327,12
		c0.2-0.1,0.4-0.2,0.7-0.3l0.5-0.3c0.3-0.1,0.5-0.3,0.8-0.4c0.1,0,0.1,0,0.2-0.1c0.3-0.1,0.8-0.3,1.1-0.7c0.2-0.2,0.4-0.3,0.8-0.5
		c0.4-0.2,0.7-0.4,1.1-0.5l1-0.5l0.1-1.1c0-0.3,0.1-0.5,0.1-0.7c0.2-1.4-0.6-2.4-1.2-3.1L332,3.6c-0.4-0.5-1-0.6-1.3-0.6
		c-0.7-0.1-1.4-0.1-2.1-0.2c-0.8-0.1-1.6,0.2-2.4,0.7c-0.1,0.1-0.3,0.1-0.5,0.2l-0.2,0.1c-0.2,0.1-0.4,0.1-0.6,0.2
		c-0.4,0.1-0.7,0.2-1.1,0.4c-0.4,0.2-0.7,0.3-1.1,0.5c-0.3,0.1-0.6,0.3-0.8,0.4c-0.4,0.2-0.7,0.3-1,0.5c-0.5,0.3-0.9,0.5-1.4,0.7
		c-0.8,0.3-1.5,0.7-2.2,1c-0.3,0.1-0.5,0.3-0.8,0.4c-0.1,0-0.1,0.1-0.2,0.1c-0.5,0-0.9,0.2-1.1,0.4c0,0-0.1,0.1-0.1,0.1
		c-0.7,0.4-1.5,0.7-2.1,0.9c-0.1-0.2-0.2-0.4-0.3-0.5c-0.6-1.4-1.8-1.9-2.7-2.2c-0.1,0-0.3-0.1-0.4-0.1c-0.5-0.2-1-0.1-1.5,0.1
		c-0.4,0.2-0.8,0.4-1.1,0.7c-1,0.7-1.5,2.2-1.2,3.4c0.1,0.4,0.2,0.8,0.2,1.2c0,0,0,0,0,0c-0.1,0.1-0.3,0.1-0.4,0.1
		c-0.3,0.1-0.6,0.2-1,0.4c-0.3,0.1-0.9,0-1.7,0.1l-0.1,0c-1.5,0.3-1.9,0.5-2.7,1.7c-0.1-0.2-0.2-0.3-0.3-0.5c-0.8-1.1-2-1.4-2.8-1.6
		c-1.3-0.3-2.8,0.3-3.4,1.5c-0.3,0.5-1.3,2.2-0.2,4c0.2,0.4,0.4,0.9,0.5,1.4c0.2,1,0.3,1.9,0.4,2.9c0.1,0.5,0.1,1,0.2,1.5
		c0,0.3,0.1,0.5,0.1,0.8c0.1,0.3,0.1,0.6,0.1,0.9c0.1,0.8,0.1,1.6,0.2,2.5l0.1,0.6c0,0.1,0,0.3,0,0.4c0,0.3,0,0.7,0.1,1
		c0.1,0.6,0.2,1.1,0.3,1.7c0.1,0.5,0.2,1.1,0.3,1.6c0.2,1,0.3,2,0.4,3l0.3,1.7c0.1,0.4,0.1,0.8,0.2,1.2c0.1,0.4,0.2,0.9,0.3,1.3
		c0.1,0.4,0.2,0.8,0.3,1.3c0.2,0.8,0.3,1.6,0.5,2.5l0.2,0.8c0.1,0.3,0.1,0.6,0.2,0.8c0.1,0.5,0.3,1,0.3,1.5c0,1.3,0.6,2.2,1.1,3
		l0.2,0.3c0.6,0.9,1.5,1.4,2.7,1.6c0.1,0,0.3,0,0.4,0c0.4,0,0.7,0,1-0.1c0.1,0,0.3,0,0.4-0.1l0.7-0.1l0.3-0.6
		c0.1-0.1,0.1-0.2,0.2-0.3c0.1-0.2,0.2-0.3,0.2-0.4c0.6-0.7,0.7-1.6,0.4-2.6l-0.2-0.6c-0.3-0.8-0.5-1.5-0.6-2.3
		c-0.1-0.7-0.4-1.4-0.7-2c-0.3-0.5-0.4-1-0.6-1.6c-0.1-0.8-0.3-1.6-0.4-2.4c-0.1-0.4-0.1-0.8-0.2-1.1c-0.1-0.8-0.3-1.5-0.4-2.3
		c-0.3-1.8-0.6-3.7-0.9-6c-0.2-1.2-0.3-2.5-0.5-3.8l0-0.2c0-0.2,0-0.3,0-0.5c0-0.4,0-0.9-0.2-1.5c0,0,0-0.1,0-0.1l-0.1-1.1
		c-0.1-1-0.1-2.1-0.2-3.1c0-0.2,0-0.3,0-0.4c0.4,0.4,0.8,0.6,1.2,0.9c0.6,0.4,1.3,0.6,1.9,0.6c0.6,0,1.6-0.2,2.4-1.2
		c0.2-0.3,0.5-0.4,0.9-0.5l0.5,3.5c0.1,0.3,0.1,0.7,0.2,1c0.1,0.7,0.2,1.3,0.3,1.9l0,0.3c0,0.6,0.1,1.3,0.2,2c0.1,0.6,0,0.8-0.4,0.9
		c-0.5,0.2-0.9,0.7-1,1.2c-0.1,0.6-0.5,2.1,0.6,3.3c0.1,0.1,0.2,0.3,0.3,0.4c0.2,0.3,0.5,0.8,1,1.1c0,0,0,0.1,0,0.2
		c0,0.9,0,1.8,0.1,2.6c0,0.6,0,1.1,0.1,1.7l0,0.2c0,0.5,0,1,0,1.6c0,0.6-0.1,1.1-0.3,1.6c-0.1,0.4-0.3,0.9-0.3,1.5
		c-0.3,0.7-0.5,1.7,0.2,2.9c0,0,0,0.1,0.1,0.1c0.3,1.2,1.2,1.8,1.8,2.3c0.1,0.1,0.2,0.2,0.3,0.2c0.6,0.4,1.2,0.5,1.7,0.5
		c0.1,0,0.1,0,0.2,0c0.8,0,1.4-0.3,2.1-0.5l0.4-0.2l0.3-0.6c0.4-0.5,1.4-2.1,0.5-3.9C315.8,43.7,315.8,42.7,315.7,41.8z"/>
	<path d="M292.7,46.3c-0.7-0.9-1.7-1.4-3-1.4c-0.1,0-0.3,0-0.4,0l-0.6,0l-0.3,0.1c-0.9,0.4-1.7,0.6-2.4,0.7
		c-0.4,0.1-0.9,0.1-1.4,0.1c-0.7,0-1.5,0.1-2.2,0.2c-0.4,0.1-0.7,0.1-1.1,0.2c-1,0.1-2,0.3-3,0.7c-0.1,0-0.2,0.1-0.4,0.1
		c-0.3,0.1-0.6,0.1-0.9,0.3c-0.7,0.3-1.5,0.5-2.3,0.7c-0.2,0-0.5,0.1-0.7,0.1c-1.2,0.3-2.4,0.5-3.7,0.8c-0.5,0.1-1,0.2-1.5,0.3
		c-0.1-0.9-0.2-1.7-0.3-2.6c-0.2-1.6-0.4-3.2-0.6-4.8c-0.1-0.8-0.2-1.6-0.3-2.4c0-0.5-0.1-1.1-0.2-1.6c-0.1-0.9-0.1-1.7-0.2-2.7
		c0-0.6-0.1-1.1-0.1-1.7c0-0.4-0.1-0.8-0.1-1.2c0-0.3-0.1-0.7-0.1-1c0-0.3,0-0.6,0-1c0-0.4,0-0.8-0.1-1.3c0-0.5-0.1-1-0.2-1.5
		c-0.1-0.8-0.2-1.5-0.2-2.3c0-0.7-0.1-1.4-0.2-2c-0.1-0.6-0.2-1.3-0.2-1.9c0-1.5-0.2-2.9-0.4-4.3c-0.1-0.5-0.1-1-0.2-1.5l0-0.5
		c-0.1-0.8-0.2-1.6-0.3-2.4c-0.2-1-0.2-2.1-0.2-3c0-0.5,0-1.1,0.1-1.6l0-1l-0.2-0.3c-0.1-0.1-0.2-0.3-0.3-0.4c0,0-0.1-0.1-0.1-0.1
		c-0.2-1.1-0.9-2-2.1-2.4c-0.9-0.4-1.9-0.4-2.9-0.2c-0.9,0.2-1.6,0.9-2.1,1.8c-0.5,1.1-0.6,2.3-0.2,3.2l0.2,0.5
		c0.3,0.8,0.6,1.4,0.6,2.1c0,0.2,0.1,0.4,0.1,0.4c0.1,0.5,0.2,0.9,0.3,1.4c0.2,1,0.4,2.1,0.6,3.1c0.2,1,0.3,2.1,0.4,3.1
		c0,0.5,0.1,1,0.2,1.5l0.1,1c0.1,1.2,0.3,2.4,0.4,3.7c0,0.4,0.1,0.7,0.2,1.1c0.1,0.4,0.1,0.8,0.2,1.3c0.1,1.3,0.2,2.7,0.3,4l0.1,0.8
		c0.1,1.2,0.2,2.4,0.3,3.6l0,0.4c0,0.6,0.1,1.1,0,1.7c-0.1,0.9,0,1.7,0.2,2.5c0,0.1,0,0.2,0,0.4c0,0.1,0,0.2,0,0.3
		c0,0.1,0,0.2,0,0.3c0,0.3,0,0.6,0,0.9c0.1,0.5,0.1,0.9,0.2,1.4c0.1,0.7,0.2,1.4,0.2,2c0.1,1.1,0.2,2.3,0.3,3.4l0.1,1.1
		c-0.3,0.6-0.6,1.3-0.7,2c0,0.6,0.1,1.2,0.2,1.7c0,0.2,0.1,0.3,0.1,0.5l0.1,0.5l0.8,0.6c0.3,0.2,0.5,0.4,0.8,0.6
		c0,0.1,0.1,0.1,0.1,0.2c0.2,0.4,0.5,1.1,1.4,1.4l0.5,0.2l0.5-0.3c0.1,0,0.3,0,0.4,0.1c0.3,0.1,0.7,0.2,1.2,0.2c0.1,0,0.3,0,0.4,0
		l0.5-0.1l0.8-0.8c0.4-0.4,0.8-0.9,1.2-1.4c0.1-0.1,0.2-0.1,0.3-0.2c0.7-0.2,1.5-0.4,2.2-0.6l2.7-0.7c1.4-0.4,2.8-0.7,4.2-1.1
		c0.9-0.2,1.8-0.4,2.9-0.6c0.3,0,0.6,0,0.9,0c0.2,0,0.4,0,0.6,0c0.6,0,1.1-0.1,1.7-0.1c1.1-0.1,2.2-0.2,3.1,0c0.2,0,0.5,0.1,0.7,0.1
		l0.3,0.1c0.4,0.1,0.8,0.1,1.2,0c2-0.4,2.8-1.4,2.9-3.5c0-1.3-0.6-2.2-1.2-3L292.7,46.3z"/>
	<path d="M70.2,50.2c0-0.1,0-0.2-0.1-0.4L70,49.4l-2.5-1.9l-2.2,0.3l-0.7,0.4c-0.4,0.2-0.9,0.4-1.3,0.7c-0.5,0.3-1.1,0.5-1.7,0.8
		c-0.4,0.2-0.8,0.3-1.3,0.5c-1,0.5-2,0.8-3.1,1.1c-0.7,0.2-1.4,0.5-2.1,0.7c-1.4,0.5-2.8,0.9-4.2,1.2c-0.8,0.2-1.5,0.5-2.2,0.8
		c-0.8,0.4-1.6,0.7-2.3,0.8c-0.3,0-0.8,0.1-1.3,0.3c-0.6,0.3-1.3,0.4-2,0.6c-0.3,0.1-0.6,0.1-0.9,0.2c-0.8,0.2-1.7,0.4-2.5,0.6
		c-0.3,0.1-0.7,0.2-1,0.3c-0.5,0.1-0.9,0.3-1.4,0.4c-0.6,0.1-1.2,0.3-1.8,0.4c-0.8,0.2-1.6,0.3-2.4,0.5c-0.9,0.2-1.8,0.5-2.7,0.8
		c-0.4,0.1-0.7,0.2-1.1,0.3c-0.3,0.1-0.7,0.2-1,0.3c-0.8,0.2-1.6,0.4-2.4,0.8c-0.9,0.4-1.9,0.7-2.9,1c-0.7,0.2-1.4,0.4-2.1,0.7
		c-0.3,0.1-0.6,0.2-0.9,0.3c-0.2,0.1-0.3,0.2-0.5,0.2c-0.2,0.1-0.4,0.2-0.5,0.2c-1.2,0.2-2.1,0.6-3.1,1.1c-0.7,0.3-1.3,0.6-1.9,0.8
		c-0.5,0.1-0.9,0.3-1.3,0.4c-0.3,0.1-0.6,0.2-0.9,0.3c-0.4,0.1-0.8,0.3-1.2,0.4c-0.6,0.2-1.1,0.4-1.5,0.5c-0.8,0-1.5,0.5-2,1.3
		c-0.7,1.2-0.7,2.7-0.1,4.2c0.4,0.9,1.4,1.5,2.4,1.5c0.5,0,0.9-0.1,1.4-0.4c0.2-0.1,0.4-0.3,0.6-0.4c0.2-0.1,0.3-0.2,0.4-0.3
		c0.5-0.2,1-0.4,1.5-0.6l0.4-0.2c1.9-0.7,3.7-1.4,5.6-2.1c0.1,0,0.3-0.1,0.6-0.2c1.4-0.7,3-1.4,4.7-1.9l0.2,0
		c0.3-0.1,0.5-0.1,0.7-0.2c0.5-0.2,1.1-0.4,1.6-0.6c1-0.4,2.1-0.8,3.2-1.1c1.1-0.3,2.2-0.6,3.3-0.9c0.5-0.1,1-0.2,1.4-0.4l1.4-0.4
		c1.2-0.3,2.3-0.6,3.5-0.9c1.2-0.3,2.3-0.5,3.5-0.8c1.5-0.3,2.9-0.7,4.4-1c2-0.5,3.9-1,5.9-1.5l1.2-0.3c1.2-0.3,2.5-0.7,3.7-1.1
		c0.8-0.3,1.6-0.5,2.3-0.8c0.7-0.3,1.5-0.5,2.3-0.8c1-0.3,1.7-0.5,2.4-0.6c0.8-0.1,1.6-0.2,2.5-0.5c1-0.4,1.7-1.1,2.1-2
		c0.4-0.9,0.3-1.9-0.1-2.8C70.2,50.4,70.2,50.3,70.2,50.2z"/>
</g>
</svg>
