<?xml version="1.0" encoding="utf-8"?>
<!-- Generator: Adobe Illustrator 18.1.1, SVG Export Plug-In . SVG Version: 6.00 Build 0)  -->
<svg version="1.1" id="Layer_1" xmlns="http://www.w3.org/2000/svg" xmlns:xlink="http://www.w3.org/1999/xlink" x="0px" y="0px"
	 viewBox="0 0 95.6 7" enable-background="new 0 0 95.6 7" xml:space="preserve">
<path fill="#FFFFFF" d="M90.5,5.5c-1-0.2-2.1-0.4-3.2-0.6c-0.9-0.2-1.9-0.3-2.8-0.6c-1.4-0.4-2.9-0.4-4.3-0.8
	c-0.4-0.1-0.9-0.1-1.4-0.2c1.2,0,2.3,0.1,3.5,0.4c1.1,0.3,2.3,0.4,3.4,0.6c0.6,0.1,1.1,0.2,1.7,0.4c1.8,0.4,3.7,0.7,5.5,1.1
	c0.9,0.2,1.7,0.4,2.6,0.6C94.9,5.7,94.4,5,94,4.2c-0.5-0.1-1-0.2-1.5-0.3c-2.4-0.5-4.8-0.9-7.2-1.4c-2.5-0.5-5.1-0.9-7.6-1.2
	c-2.6-0.3-5.1-0.7-7.7-0.8c-1.6-0.1-3.2-0.3-4.8-0.3C62.9,0,60.6,0,58.3,0c-2.3,0-4.5,0-6.8,0.1c-2.5,0.1-5,0.1-7.5,0.3
	c-1.3,0.1-2.7,0.1-4,0.1c-1.6,0.1-3.2,0.2-4.8,0.2c-1.5,0-3.1,0.1-4.6,0.2c-0.9,0.1-1.8,0.2-2.7,0.3c-1.8,0.1-3.5,0.2-5.3,0.3
	c-0.5,0-1,0.1-1.5,0.1c-1.1,0-2.1,0.2-3.2,0.2c-0.3,0-0.7,0-1,0.1c-1.2,0.3-2.4,0.2-3.6,0.4C12,2.4,10.8,2.5,9.6,2.5
	C6.9,2.6,4.1,2.8,1.4,2.6c-0.6,0-0.7,0-1.4,0.3c0.2,0.3,0.4,0.6,0.6,0.9c0.9,0.5,1.9,0.4,2.9,0.7C3.3,4.7,3.2,4.9,3.1,5.1
	c0.3,0,0.5,0.1,0.8,0.1c1.3,0,2.5,0,3.8,0c2,0,3.9-0.1,5.9-0.2c1.8-0.1,3.6-0.3,5.4-0.4c3.8-0.3,7.5-0.6,11.3-0.9
	c1.9-0.1,3.9-0.3,5.8-0.4c2.5-0.2,5-0.3,7.6-0.4c3.1-0.1,6.2-0.3,9.3-0.4c2.1-0.1,4.2-0.1,6.3-0.1c2.6,0,5.2,0.1,7.8,0.2
	C69,2.8,70.9,3,72.9,3.2c2.8,0.2,5.6,0.7,8.3,1.1c1.1,0.2,2.1,0.4,3.2,0.6c1.9,0.3,3.8,0.7,5.7,1c0.6,0.1,1.2,0.2,1.8,0.4
	C92.9,6.5,94,6.8,95,7c0.2-0.1,0.4-0.3,0.6-0.4c-0.2,0-0.5,0-0.8-0.1C93.4,6,91.9,5.8,90.5,5.5z M64.9,2c0.4-0.1,0.7-0.3,0.9,0.1
	C65.6,2,65.3,2,64.9,2z M69.9,2.2c-0.6-0.1-1.2-0.1-1.8-0.2l0-0.1C68.7,2,69.3,2.1,69.9,2.2C69.9,2.2,69.9,2.2,69.9,2.2z M71.3,2.3
	c0.4-0.2,0.8,0,1.4,0C72,2.6,71.7,2.4,71.3,2.3z M74.5,2.7c1-0.2,2,0.1,3,0.3L74.5,2.7z"/>
</svg>
