<?xml version="1.0" encoding="utf-8"?>
<!-- Generator: Adobe Illustrator 18.1.1, SVG Export Plug-In . SVG Version: 6.00 Build 0)  -->
<svg version="1.1" id="Layer_1" xmlns="http://www.w3.org/2000/svg" xmlns:xlink="http://www.w3.org/1999/xlink" x="0px" y="0px"
	 viewBox="0 0 200 66.2" enable-background="new 0 0 200 66.2" xml:space="preserve">
<g>
	<path d="M0.3,5.9C0.7,7.3,1.1,8.7,1.5,10l2.2,7.9c0.4,1.5,0.8,3,1.2,4.5c0.4,1.4,0.8,2.9,1.2,4.3c0.5,2,1,3.9,1.6,5.9
		C7.8,33.1,8,33.5,8.1,34c0.2,0.5,0.3,0.9,0.4,1.3c0.3,1.2,0.6,2.4,0.9,3.6c0.5,2.2,1.1,4.5,1.7,6.7c0.6,2,1.1,4.2,1.5,6.3
		c0.3,1.4,0.6,2.8,0.9,4.3c0.3,1.1,0.4,1.9,0.2,2.7c-0.2,0.7-0.2,1.3-0.2,1.9l0,0.4c0,2.1,1.2,3.5,3.3,3.9c0.2,0,0.4,0.1,0.6,0.1
		c0.6,0,1.4-0.2,2.2-1c0.9-1.1,1.5-2.4,1.9-4.2c0.4-1.6,0.8-3.3,1.3-5c0.7-2.2,1.5-4.6,2.2-7.3c0.6-2.1,1.1-4.1,1.6-6.2
		c0-0.1,0.1-0.2,0.1-0.3c0.8,3.2,1.8,6.3,2.6,8.9c1,3.1,1.8,5.8,2.4,8.7l0.1,0.4l1.3,1.2c0,0.1-0.1,0.1-0.1,0.2
		c-0.8,1.2-1,2.4-0.6,3.6l0.1,0.2l0.2,0.2c1.3,1.5,1.6,1.7,3.5,1.8l0.3,0l0.3-0.1c1.1-0.5,1.8-1.4,2.2-2.7c0.2-0.8,0.4-1.5,0.7-2.1
		c0.3-0.9,0.6-1.7,0.9-2.6c0.5-1.4,1-2.8,1.5-4.2c1-2.9,2.1-6.2,3.2-9.7c0.2-0.6,0.4-1.3,0.6-1.9c0.6-2,1.3-4,1.7-6.1
		c0-0.1,0.1-0.2,0.1-0.4l0.6-1.8c0.5-1.6,1.1-3.3,1.6-4.9c0.3-0.9,0.6-1.9,1-2.8c0.6-1.8,1.3-3.6,1.8-5.4c0.9-3.1,2.2-6.3,4.3-10.3
		l0.1-0.2c0.6-1.1,1.1-2.2,2.1-2.8c0.7-0.5,1.6-1.6,1.4-3.7c-0.1-1-0.6-1.9-1.5-2.3c-0.5-0.2-1-0.5-1.4-0.7l-0.8-0.4l-0.3,0
		c-1.3,0.1-2.4,0.6-3.1,1.4l-0.1,0.2l-1.2,2.9c-0.8,2-1.6,3.9-2.4,5.9c-0.9,2.1-1.8,4.3-2.6,6.6c-0.3,0.7-0.5,1.4-0.7,2.1
		c-0.2,0.7-0.4,1.3-0.6,1.9c-0.7,1.8-1.2,3.7-1.8,5.5c-0.5,1.7-1,3.4-1.6,5c-0.4,1.2-0.7,2.3-1,3.5c-0.2,0.7-0.4,1.3-0.6,2
		c-1.1,3.5-2.2,7.1-3.4,10.6l-0.3,0.8c-0.2,0.5-0.4,1.1-0.6,1.6c-0.1,0.2-0.2,0.4-0.2,0.6c-0.2-0.6-0.4-1.3-0.6-1.9
		c-0.2-0.7-0.4-1.3-0.6-2c-0.5-1.4-0.9-2.8-1.3-4.2c-0.5-1.8-1-3.6-1.4-5.4c-0.4-1.5-0.8-3-1.2-4.4c-0.4-1.3-0.6-2.8-0.2-4.3
		c0.3-1.3,0.1-2.5-0.6-3.6c-0.8-1.1-2-1.8-3.5-1.9c-1.9-0.2-3.4,0.9-3.8,2.8c-0.1,0.7-0.1,1.5,0,2.2c0.1,0.5,0.1,1,0,1.6l-0.1,0.7
		c-0.1,0.9-0.3,1.7-0.5,2.5l-0.4,2C21,40,20,44.3,18.7,48.4l-0.3,0.9c-0.1,0.2-0.1,0.3-0.2,0.5c-0.5-2.3-1.2-4.6-1.8-6.9
		c-0.4-1.3-0.7-2.5-1.1-3.8c-0.6-2.3-1.3-4.5-1.9-6.7c-0.5-1.6-1-3.3-1.4-4.9c-0.5-1.7-0.9-3.4-1.4-5.1c-0.4-1.4-0.7-2.7-1.1-4.1
		c-0.2-0.6-0.3-1.1-0.5-1.7c-0.8-2.7-1.5-5.5-1.9-8.4C7.2,7.7,7.1,7.1,7.2,6.6C7.3,6,7.4,5.4,7.6,4.7C7.6,4.5,7.7,4.2,7.7,4l0.1-0.3
		L7.6,3.1C7.4,2.3,7.1,1.5,6.3,0.8L6.1,0.7L3.7,0L3.4,0.1c-0.1,0-0.2,0.1-0.3,0.1C2.8,0.3,2.5,0.4,2.2,0.5c-1.7,0.8-2.4,2.2-2.1,4
		C0.1,5,0.2,5.4,0.3,5.9z"/>
	<path d="M58.7,33.5l-0.8,2.7c-0.2,0.7-0.4,1.5-0.7,2.2l-0.1,0.4l0,0c-0.5,0.2-1,0.3-1.4,0.5c-0.7,0.3-1.5,0.6-2.3,1
		c-1.1,0.6-1.6,1.7-1.2,2.9l0.1,0.5l2.1,1.2l1.3-0.1c-0.4,1.7-0.9,3.4-1.9,4.9c-0.4,0.6-0.7,1.1-1,1.8c-0.6,1.8,0.1,3,0.8,3.7
		c0.6,0.6,1.4,1.3,2.6,1.7l0.3,0.1l0.3-0.1c1.9-0.5,3.2-1.8,3.5-3.8c0.2-1.1,0.3-2,0.5-2.9c0.1-0.5,0.2-1,0.3-1.4
		c0.1-0.4,0.2-0.8,0.3-1.3c0.1-0.6,0.2-1.1,0.3-1.7c0.1-0.7,0.3-1.4,0.4-2.1c0-0.1,0-0.2,0.1-0.3l8.1-1.7c0,0.4,0,0.7,0,1.1
		c0,0.4,0,0.8-0.1,1.2c0,0.6-0.1,1.3,0,2c0.1,1.3,0.1,3.1-0.4,4.7l-0.1,0.4l0.2,0.4c0.9,2,1.5,2.6,3.3,3.4l0.4,0.2l0.4-0.1
		c2.6-0.8,3.4-2.1,3.1-4.7l0-0.1c0-0.3-0.1-0.5-0.1-0.8c-0.3-1.8-0.4-3.3-0.4-4.8c0-0.6,0-1.3-0.1-1.9c0-0.2,0-0.5-0.1-0.7l0-0.1
		c0-0.5-0.1-1,0-1.4l2.3-0.7l1-3l-1.4-2.7l-2.2-0.8c0-0.5,0-1.1-0.1-1.6c0-0.8-0.1-1.7-0.1-2.5c-0.1-2.3-0.2-4.8-0.4-7.2
		c-0.1-1.3-0.3-2.5-0.6-3.7c-0.1-0.4-0.1-0.7-0.2-1.1c-0.2-1.3-0.9-2.4-1.9-3.2c-0.8-0.6-1.5-1-2.2-1.3c-2.3-1-4.8-0.2-6.3,1.9
		c-1.2,1.7-1.8,3.6-2.3,5.4c-0.3,1.1-0.6,2.3-0.9,3.4c-0.1,0.6-0.3,1.1-0.4,1.7l-0.2,0.9c-0.2,0.8-0.4,1.6-0.6,2.4
		C59.6,30.3,59.1,31.9,58.7,33.5z M63.9,37.1c0.3-1.2,0.6-2.5,0.9-3.7c1.1-3.8,2-7.2,3-10.4c0.2-0.8,0.5-1.5,0.8-2.3
		c0.1-0.3,0.2-0.5,0.3-0.8c0.3,1,0.4,2,0.5,3.2c0,0.4,0,0.8,0,1.2c0,0.6,0,1.2,0.1,1.8c0.2,1.8,0.3,3.6,0.3,5.3c0,1,0.1,2,0.1,3
		l0,0.1c0,0.3,0,0.6,0,0.9L63.9,37.1z"/>
	<path d="M191.2,39.6c2.7,3.6,3.3,7.5,1.9,11.8c-0.3,0.8-0.6,1.4-1.1,1.9c-2,2-4,3-6.4,3l-0.3,0c-1.3,0-1.9-0.3-2.5-0.9
		c-0.2-0.3-0.5-0.4-0.7-0.5c0,0-0.1,0-0.1-0.1l-0.4-0.2l-2.2,0.3l-0.3,0.5c-0.7,1.3-0.7,2.6,0.2,3.9c0.8,1.3,2.1,2.2,3.8,2.7
		c1.2,0.3,2.4,0.5,3.6,0.5c4.1,0,7.9-1.9,10.2-5c1.9-2.5,2.9-5.5,3-8.7c0.1-2-0.4-4-0.8-5.7c-0.5-2.2-1.4-4.8-3.4-6.8
		c-0.1-0.1-0.2-0.2-0.3-0.4c-1.4-2-3.3-3.2-4.8-4.1c-1.8-1-3.7-1.7-5.8-2.3c-2-0.6-3.8-1.4-5.5-2.2c-0.5-0.2-0.8-0.5-1.1-0.7
		c1.9-2.8,4.6-4.9,6.7-6.4c0.6-0.4,1.5-0.7,2-0.9c0.7-0.2,1.4-0.1,2,0.5c0.9,0.9,1.3,2.1,1.7,3.4c0.1,0.2,0.1,0.5,0.2,0.7
		c0.1,0.3,0.1,0.6,0.2,0.9c0.1,0.5,0.2,1.1,0.4,1.7l0.1,0.4l0.3,0.2c1.4,0.9,1.6,1,3.2,1.1l0.5,0l0.4-0.3c1.7-1.4,2-1.8,1.7-3.8
		c-0.2-1.6-0.8-3.1-1.5-4.4c-0.4-0.7-0.8-1.4-1.3-2.4c-1.4-2.4-3.2-3.8-5.4-4.5c-1.5-0.5-3-0.5-4.4,0c-1.2,0.4-2.2,0.9-3.2,1.5
		l-0.3,0.2c-2.2,1.2-4,2.9-5.8,4.6c-1.1,1-2,2.2-2.9,3.3l-0.6,0.8c-0.4,0.5-0.8,1.1-1.2,1.6c-0.2,0.2-0.3,0.5-0.5,0.7l-0.3,0.4
		l0,0.5c0.3,2.6,2.1,3.9,3.4,4.7c3.9,2.2,8.1,3.6,11.6,4.7C188.1,36.6,189.9,37.9,191.2,39.6z"/>
	<path d="M82.6,28.7l0.1,0.2c0.3,0.8,0.6,1.6,0.9,2.4c0.2,0.6,0.4,1.2,0.6,1.8c0.4,1,0.7,1.9,1.1,2.9c0.6,1.6,1.3,3.3,1.8,4.9
		c1.1,3.2,2.3,6.5,3.7,9.8l0.2,0.4c0.8,1.9,1.5,3.7,1.6,5.6c0,0.3,0.1,0.6,0.2,0.8l0.1,0.3l0.2,0.2c1.2,1.3,2.6,2,4.1,2
		c0.2,0,0.5,0,0.7,0l0.4,0l0.3-0.2c1.2-1,1.9-2.2,2.1-3.7c0.1-0.4,0.2-0.9,0.4-1.4c0.6-1.4,1.1-2.8,1.7-4.2l2.3-5.9
		c0.9-2.3,1.9-4.7,2.8-7c0.3-0.8,0.6-1.6,1-2.4c1.1-2.8,2.3-5.8,3.6-8.6c0.1,0.1,0.2,0.3,0.4,0.4c0,0,0.2,0.2,0.3,0.6
		c0.3,1.3,0.7,2.5,1.1,3.8c0.6,2.2,1.3,4.5,1.8,6.8c0.3,1.4,0.6,3.2,1.1,4.9c0.7,2.7,1.5,5.4,2.3,8.1l1,3.4c0,0.1,0,0.1,0.1,0.2l0,0
		c0,1.1,0,2.1-0.1,3.2c0,0.2-0.1,0.5-0.1,0.8c0,0.2-0.1,0.4-0.1,0.6l-0.1,0.5l1.5,2l0.4,0.1c0.6,0.2,1.2,0.3,1.8,0.3
		c1.1,0,2.1-0.5,2.9-1.5l0.1-0.1c0,0,0.1-0.1,0.1-0.1c1.2-0.8,1.9-2,2-3.8c0-0.5,0.2-1,0.5-1.7c0.7-1.5,1.4-3,2.1-4.5l1.4-3.1
		c1.9-4.1,3.8-8.4,6.2-12.4c0.6-1,1.2-2,1.8-3c0.5-0.9,1.1-1.8,1.6-2.7l0.1,0.2l2.5,1.6l0.5-0.1c0.1,0,0.2,0,0.3-0.1
		c0.1,0,0.3-0.1,0.4-0.1c0,0.1,0,0.2-0.1,0.3c-0.2,0.7-0.4,1.5-0.4,2.3c-0.1,1.1-0.1,2.2-0.2,3.3c0,0.4,0,0.9-0.1,1.3
		c-0.7,0.9-1.3,2.4-0.4,4.4c0.1,0.1,0.1,0.3,0.2,0.7c0,0.4,0.1,0.9,0.1,1.3c0,0.6,0,1.1,0.1,1.6c0,0.5,0.1,0.9,0.1,1.4
		c0.1,1.1,0.1,2.3,0.4,3.5c0.1,0.4,0.2,0.8,0.3,1.2c0.2,0.7,0.3,1.4,0.5,2.1c0.7,2.1,1.7,3.7,3.3,4.8c0.1,0.1,0.2,0.1,0.3,0.2
		c0.4,0.3,0.8,0.6,1.4,0.8c1.8,0.6,3.4,0.7,5,0.3l0.6-0.1c0.6-0.1,1.2-0.3,1.8-0.4c2.6-0.6,5-1.7,7.3-3.3c1.9-1.3,2.6-3.2,2.9-4.4
		c0.2-0.7,0.1-1.5-0.2-2.3c-0.4-0.9-1.2-1.4-2.1-1.4c-0.5,0-1,0.2-1.5,0.6c-0.6,0.5-1.2,1.1-1.7,1.6c-1.9,1.9-4.3,2.6-7.3,3.5
		c-0.3,0.1-0.7,0.1-1.2,0.1c-1.2-0.1-1.9-0.4-2.4-1.2c-0.5-0.7-0.8-1.3-0.9-1.9c-0.4-2.2-0.7-4.6-0.9-7.3c0-0.3,0-0.6,0.1-0.8l0,0
		c0.3-0.2,0.7-0.4,1.1-0.6c0.7-0.4,1.4-0.7,2.1-1.1c1.8-0.9,3.6-1.9,5.3-2.9c0.5-0.3,1.1-0.6,1.5-1c0.8-0.6,1.6-1.1,2.5-1.4l0.3-0.1
		l0.2-0.2c0.2-0.2,0.5-0.5,0.7-0.7c0.6-0.5,1.3-1.1,1.8-2c0.2-0.4,0.2-0.8,0.1-1l0-0.6l-0.5-0.4c-0.2-0.2-0.5-0.5-1.1-0.5l-0.2,0
		c-0.2,0-0.4,0.1-0.7,0.1c-0.7,0.1-1.6,0.2-2.3,0.5c-2.3,1-4.2,1.8-5.8,2.8c-1,0.6-2,1-3.1,1.4c-0.4,0.2-0.8,0.3-1.2,0.5l-0.2,0.1
		c0,0,0,0,0,0c0.2-3,0.9-5.8,2.1-8.7c0.7-0.7,1.6-1.3,2.9-1.8c0.4-0.2,0.8-0.4,1.3-0.6c0.4-0.2,0.8-0.3,1.2-0.5
		c0.7-0.3,1.3-0.6,2-0.9c1.7-0.7,3.5-1.5,5.3-2.2c0.6-0.2,1.3-0.5,1.9-0.5c0.3,0,0.5,0.1,0.7,0.2l0.6,0.3l0.6-0.3
		c1.4-0.7,1.6-0.9,2.2-2.2l0.3-0.5l-0.2-0.5c-0.8-2-2.1-3-4.1-3.1l-0.3,0c-1.2,0-2.3,0.2-3.3,0.5c-1,0.4-2.1,0.8-3,1.3l-0.9,0.4
		c-0.7,0.3-1.3,0.6-2,0.9c-1,0.5-2.1,0.9-3.1,1.4c-0.3,0.1-0.6,0.2-1,0.3c0,0,0,0,0,0c-0.2-0.1-0.4-0.1-0.5-0.2
		c-0.6-0.2-1-0.4-1.5-0.4c-0.6,0-1,0.2-1.7,0.5l-0.8,0.4l-0.5,0.7c-0.2,0.3-0.4,0.6-0.6,0.9c-0.1,0.2-0.4,0.5-0.6,0.7
		c-0.2,0.1-0.6,0.3-1.2,0.5l0.1-0.4l-0.2-0.4c-0.1-0.1-0.1-0.2-0.2-0.4c-0.2-0.3-0.3-0.7-0.6-1c-0.8-1.2-2-1.8-3.4-1.8
		c-1.5,0-2.9,0.9-3.6,2.3c-0.9,1.9-2,3.8-3.1,5.6c-0.8,1.4-1.7,2.9-2.4,4.4c-0.3,0.7-0.7,1.3-1,2c-1.4,2.6-2.8,5.3-3.9,8.1
		c-0.1,0.3-0.3,0.7-0.5,1c-0.1,0.2-0.2,0.4-0.3,0.5c-0.2,0.3-0.3,0.6-0.5,0.9c-0.3,0.6-0.7,1.3-1,2c-0.5,1.2-1,2.4-1.5,3.6
		c-0.1-0.3-0.2-0.7-0.3-1c-0.8-3-1.6-6-2.4-9.1c-1-4.2-2-8.5-2.9-12.3c-0.1-0.5-0.2-1-0.2-1.4c0.2-1.5-0.2-2.7-0.7-3.8
		c-0.8-1.6-2.5-2.5-4.2-2.1c-0.5,0.1-0.9,0.3-1.3,0.5c-0.1,0.1-0.3,0.1-0.4,0.2l-0.5,0.2l-0.7,1.5c-0.4-0.1-0.8-0.2-1.2-0.2
		c-0.4,0-0.9,0.1-1.2,0.1l-0.3,0.1l-0.3,0.2c-1.5,1.2-2.2,2.8-2.9,4.3c-0.6,1.3-1.1,2.7-1.6,4c-0.4,1.1-0.8,2.1-1.3,3.1
		c-0.4,0.9-0.8,1.9-1.2,2.8c-0.4,0.8-0.7,1.7-1.1,2.5c-0.5,1.2-1,2.4-1.5,3.7l-0.4,0.9c-0.3,0.7-0.5,1.3-0.8,2
		c-0.3,0.9-0.7,1.7-1,2.6c-0.1,0.2-0.2,0.4-0.3,0.7c-0.6-1.5-1.3-3-1.9-4.5l-0.1-0.3c-0.4-1-0.8-2-1.2-3c-0.8-2.1-1.5-4.3-2.3-6.4
		l-1.4-3.9c-0.9-2.4-1.7-4.7-1.4-7.3l0-0.5l-1.7-2.4l-1.2-0.2c-0.5-0.1-1-0.2-1.4-0.2c-0.1,0-0.2,0-0.3,0c-0.7,0-1.7,0.2-2.5,1.4
		c-1,1.4-0.9,3.4,0.2,4.8C81.8,26.9,82.2,27.8,82.6,28.7z"/>
</g>
</svg>
