<?xml version="1.0" encoding="utf-8"?>
<!-- Generator: Adobe Illustrator 18.1.1, SVG Export Plug-In . SVG Version: 6.00 Build 0)  -->
<svg version="1.1" id="Layer_1" xmlns="http://www.w3.org/2000/svg" xmlns:xlink="http://www.w3.org/1999/xlink" x="0px" y="0px"
	 viewBox="0 0 218.7 59.1" enable-background="new 0 0 218.7 59.1" xml:space="preserve">
<g>
	<path fill="#FFFFFF" d="M80.7,34.8c-0.8-1.3-1.8-2.5-2.7-3.6c-1.8-1.9-4.1-3.3-5.8-4.3c-0.9-0.5-2.1-1.1-3.3-1.6
		c-0.7-0.3-1.4-0.5-2.1-0.7c-0.6-0.2-1.1-0.4-1.7-0.6c-1.2-0.5-2.5-0.6-3.7-0.7c0.4-0.3,0.9-0.5,1.3-0.8l1.8-1.2
		c1.1-0.7,2.1-1.3,3.2-2c0.2-0.1,0.4-0.3,0.7-0.4c0.4-0.2,0.9-0.5,1.3-0.8c0.8-0.6,1.6-1.3,2.2-2.1c0.4-0.6,0.7-1.3,1-1.9l0.2-0.4
		c0.1-0.4,0-0.8-0.2-1c-0.3-0.6-0.5-1.1-0.8-1.7c-0.1-0.2-0.3-0.5-0.5-0.7c-0.9-0.7-1.8-1.4-2.7-2l-0.4-0.3
		c-0.1-0.1-0.3-0.2-0.4-0.2c-0.6-0.1-1.1-0.3-1.7-0.5c-1-0.4-2.1-0.7-3.3-0.8c-0.5,0-1-0.1-1.4-0.1c-0.8-0.1-1.7-0.2-2.6-0.2L59,6
		c-0.6,0-1.2,0.1-1.8,0.1c-0.3,0-0.6,0.1-0.9,0.1c-0.5,0-1,0.1-1.5,0.1c-1,0.1-1.9,0.1-2.9,0.3c-1.1,0.1-2.2,0.3-3.4,0.4
		c-1.1,0.2-2.2,0.3-3.2,0.4c-0.2,0-0.3,0-0.5,0.1c-0.7,0.1-1.5,0.2-2,0c-0.7-0.3-1.4-0.3-2.1-0.3c-0.3,0-0.7,0-1-0.1l-0.2,0L38.3,8
		L38,9l-0.9,0.3c-0.8,0.3-1.7,0.6-2.5,0.8c-0.5,0.2-0.9,0.3-1.4,0.5c-0.3,0.1-0.6,0.2-0.9,0.3c-0.4,0.2-0.8,0.3-1.2,0.4
		c-0.6,0.2-1.2,0.4-1.8,0.7c-0.3,0.1-0.7,0.3-0.9,0.5c-1.2,1-2.3,2.3-1,4.4c0.6,1,1.5,1.9,2.6,2.5c0.5,0.3,1.2,0.5,1.8,0.5
		c1.1,0,2-0.6,2.5-1.5c0.1-0.2,0.4-0.4,0.7-0.6l0.1-0.1c0.6-0.4,1.2-0.7,1.8-1.1l0.1-0.1c0.7-0.4,1.3-0.7,2-0.7
		c0,0.1,0.1,0.2,0.1,0.3c0.2,0.5,0.3,0.9,0.4,1.3c0.1,0.7,0.2,1.5,0.3,2.3c0,0.4,0.1,0.8,0.2,1.2l0,0.3c0,0.4,0.1,0.7,0.2,1.1
		c0.2,0.6,0.3,1.2,0.4,1.9c0,0.4,0.1,0.9,0.2,1.3c0,0,0,0.1,0,0.1c0,0,0,0,0,0c-0.8,0.5-1.6,1.1-1.5,2.4l0,0.1l0.3,0.6
		c0.6,1,1.2,2.1,2.2,2.8c0,0,0.1,0.2,0.1,0.3c0.4,1.8,0.8,3.6,1.1,5.4c0,0.1,0,0.2,0,0.3c0,0.1,0,0.2,0,0.3c0,0.3,0.1,0.6,0.2,0.9
		c0.3,1.1,0.5,2.3,0.8,3.4l0.1,0.4c0.1,0.4,0.2,0.8,0.3,1.3c0.2,0.6,0.5,1.3,0.7,1.9c0.4,1,0.8,2,1.2,3.1c0.5,1.5,1.3,3,2.4,4.5
		l0.2,0.2c0.2,0.3,0.5,0.7,0.8,0.9c0.5,0.4,1.1,0.7,1.6,1c0.2,0.1,0.4,0.2,0.5,0.3l0.1,0.1l0.1,0c0.2,0,0.5,0,0.7-0.1
		c0.3,0,0.6-0.1,0.8,0c0.4,0.1,0.8,0.2,1.2,0.3c0.3,0.1,0.7,0.2,1,0.3c0.3,0.1,0.5,0.1,0.8,0.2c0.8,0.2,1.7,0.5,2.6,0.5
		c0.4,0,0.9,0.1,1.3,0.1c0.5,0.1,1.1,0.1,1.6,0.1c0.7,0,1.2-0.1,1.8-0.3l0.2,0c1.9,0,3.6-0.6,5.3-1.2l0.2-0.1c2.4-0.8,4.7-1.9,6.9-3
		c2-1,3.7-2.3,4.9-3.9c1.7-2.2,2.3-4.6,1.8-7.3C82.8,39.8,82.2,37.2,80.7,34.8z M50.5,30c0.6-0.3,1.2-0.5,1.7-0.5
		c0.9,0,1.7-0.2,2.5-0.4c1.3-0.2,2.5-0.4,3.6-0.3c0.4,0.1,0.7,0,1.1,0c0.2,0,0.4-0.1,0.6-0.1l0.1,0c1.6,0.1,3.4,0.2,5.2,0.7
		c0.6,0.2,1.2,0.3,1.7,0.4c0.3,0.1,0.6,0.1,0.8,0.2c0.7,0.2,1.3,0.3,1.8,0.8c0.3,0.3,0.7,0.4,1,0.5c0.2,0.1,0.4,0.2,0.6,0.3
		c1.5,0.9,2.6,2.1,3.3,3.9c0.1,0.3,0.3,0.6,0.4,0.9c0.2,0.3,0.3,0.6,0.4,0.8c0.3,0.8,0.5,1.5,0.6,2.2c0.1,0.7,0.1,1.5,0.1,2.3
		c0,0.4-0.1,0.9-0.4,1.4c-0.8,1.9-2.3,3.4-4.8,4.8c-2,1.1-3.9,2-5.7,2.6c-1.2,0.4-2.5,0.7-3.7,1l-0.5,0.1c-0.9,0.2-1.6,0.3-2.4,0.3
		c-0.9,0-1.7-0.1-2.5-0.4c-0.1,0-0.3-0.1-0.4-0.1c-3.4-7.4-5-15.1-5.9-21.1C50,30.2,50.2,30.1,50.5,30z M59.1,16.4
		c-1.3,0.9-2.8,1.9-4.2,2.9c-0.5,0.3-1,0.6-1.5,0.9c-1.5,1-3,2-4.7,2.7c-0.5-1.6-1.5-7.4-1.6-9.1l0.4-0.1c0.6-0.1,1.2-0.2,1.8-0.3
		c1.5-0.2,2.9-0.5,4.4-0.7l1.4-0.2c1.4-0.2,2.8-0.4,4.2-0.6c0.4,0,0.8,0,1.3,0c0.4,0,0.8,0.1,1.2,0.1l0.2,0c0.5,0,0.9,0.1,1.4,0.2
		c0.3,0.1,0.6,0.1,0.9,0.2c-0.3,0.4-0.6,0.7-1,1c-0.2,0.2-0.4,0.4-0.6,0.6c-0.7,0.7-1.5,1.2-2.4,1.8C59.9,15.8,59.5,16.1,59.1,16.4z
		"/>
	<path fill="#FFFFFF" d="M38.6,53.9c-0.3-0.7-0.7-1.5-1-2.2l-1.4-3c-0.6-1.3-1.2-2.6-1.7-3.9c-0.2-0.5-0.5-1-0.7-1.6L33.8,43l0.3,0
		c0.2,0,0.3,0,0.5,0c0.4,0,0.8,0,1.2-0.2c0.7-0.2,1.2-0.7,1.5-1.4c0.3-0.6,0.3-1.3,0.1-2c-0.3-0.7-0.7-1.8-1.9-2.1
		c-0.2,0-0.5-0.2-0.6-0.3c-0.6-0.6-1.4-0.7-2.1-0.8c-0.6-0.1-1.1-0.2-1.7-0.3l-0.4-0.1c-0.1-0.2-0.2-0.3-0.2-0.5
		c-0.2-0.5-0.4-0.9-0.5-1.3c-0.1-0.4-0.3-0.8-0.4-1.1c-0.1-0.4-0.3-0.8-0.4-1.3c-0.3-0.8-0.6-1.6-0.9-2.4c-0.4-1-0.8-2-1.1-3
		c-0.4-1.2-0.8-2.4-1.2-3.6c-0.2-0.7-0.4-1.3-0.7-2c-0.2-0.6-0.4-1.2-0.6-1.8c-0.4-1-0.7-2.1-1-3.1c-0.6-1.8-1.1-3.5-1.6-5.5
		l-0.2-0.7c-0.3-1-0.6-2.1-0.8-3.1c-0.1-0.8-0.4-1.9-1.3-2.5l-0.1-0.1c-0.3-0.1-0.6-0.2-0.9-0.3c-0.6-0.2-1.1-0.4-1.5-0.6
		c-1.4-0.8-2.6-0.9-3.8-0.5l-0.1,0l-1.1,1.2l0,0.2c0,0.2,0,0.4,0.1,0.5c0,0.5,0.1,1,0.4,1.5c0.4,0.7,0.7,1.4,0.9,2.3
		c0.2,0.5,0.4,1.1,0.6,1.6c0,0.1,0,0.2,0.1,0.4c0,0,0,0,0,0l-0.5,0.4l0,0.2c0,0.1-0.1,0.2-0.1,0.3c0,0.2-0.1,0.4-0.2,0.6
		c-0.3,0.7-0.6,1.4-0.9,2.1c-0.5,1.2-1,2.4-1.4,3.6c-0.5,1.3-0.9,2.6-1.4,3.9c-0.3,0.9-0.6,1.8-1,2.7l-0.2,0.5
		C8,25.9,7.5,27.5,6.8,29c-0.4,1-0.9,2-1.3,3c-0.4,0.9-0.8,1.8-1.2,2.7c-0.8,1.9-1.5,3.6-2.1,5.3c-0.5,1.4-0.9,2.9-1.4,4.3l-0.1,0.2
		c-0.2,0.6-0.3,1.3-0.5,2c-0.1,0.3-0.2,0.7-0.3,1l0,0.2l0.5,0.8c0.3,0.5,0.7,1,1,1.6c0.6,1,1.6,1.8,3,2.2c0.4,0.1,0.8,0.1,1.2,0.1
		c0.2,0,0.3,0,0.4,0l0.2,0l0.1-0.1c0.1-0.1,0.3-0.2,0.4-0.4c0.3-0.3,0.6-0.6,0.9-0.9c0.6-0.9,1-1.9,1.1-3.2c0.1-0.7,0.3-1.5,0.5-2.2
		c0.1-0.2,0.1-0.5,0.2-0.7c0.3,0,0.5,0,0.8,0c0.8,0,1.5-0.1,2.4-0.1c0,0,0,0,0,0c0.5,0,1.1,0,1.6,0.1c0.7,0,1.5,0.1,2.2,0.1
		c1.6-0.1,3.1-0.2,4.7-0.3l1.3-0.1c0.2,0,0.5-0.1,0.7-0.1c0.2,0,0.4-0.1,0.6-0.1c0.7-0.1,1.5-0.1,2.2-0.2l0.6,0
		c0,0.1,0.1,0.2,0.1,0.2c0.2,0.3,0.3,0.6,0.5,0.9c0.6,1.3,1.1,2.7,1.6,4l0.8,1.9c0.1,0.3,0.2,0.5,0.3,0.7c0.2,0.5,0.4,1,0.6,1.4
		c0.1,0.2,0.1,0.4,0.2,0.6c0.4,1.4,0.7,2.8,2,3.8l0.1,0.1l0.2,0c0.4,0,0.7,0.2,1.1,0.6c0.2,0.2,0.3,0.3,0.5,0.5l0.1,0.1l0.9,0
		c0.6,0,1.2,0.1,1.8,0.1l0,0c0.6,0,1-0.3,1.2-0.9l0.2-0.5c0.1-0.3,0.2-0.6,0.4-0.9c0.4-1,0.3-1.9-0.4-2.6
		C38.8,54.1,38.7,54,38.6,53.9z M24.2,37.4c-4.1,0.9-7.5,1.3-10.7,1.3h0c-0.5,0-1,0-1.4,0c0.5-1.6,1.1-3,1.8-4.5
		c0.6-1.3,1.2-2.7,1.7-4c0.7-2.1,1.5-4.1,2.3-6.3c0.2-0.6,0.5-1.2,0.7-1.8C20.8,27.9,22.6,32.7,24.2,37.4z M37.5,58.7
		C37.5,58.7,37.5,58.7,37.5,58.7L37.5,58.7L37.5,58.7z"/>
	<path fill="#FFFFFF" d="M123.1,18.5c-0.5-0.9-3.1-3.9-4.5-5c-0.7-0.5-1.3-1-1.9-1.6c-0.9-0.7-1.8-1.5-2.7-2.1c-1-0.7-2.1-1.4-3.1-2
		l-0.1-0.1c-0.4-0.2-0.9-0.4-1.3-0.6l-1.2-0.4c-0.7-0.3-1.5-0.6-2.2-0.8c-0.7-0.2-1.4-0.3-2.3-0.3c-0.7,0-1.4,0.1-2,0.1l-0.3,0
		c-1.1,0.1-2.2,0.5-3.3,1.1c-0.7,0.4-1.3,0.9-1.9,1.4c-0.3,0.2-0.6,0.5-0.8,0.7c-1,0.8-1.8,1.7-2.5,2.6l-0.4,0.6
		c-0.8,1-1.4,2.2-1.9,3.3c-0.2,0.4-0.4,0.7-0.5,1.1L90,16.7c-0.5,0.9-1,1.9-1.3,2.9c-0.2,0.5-0.3,1-0.5,1.5
		c-0.6,1.8-1.3,3.7-1.7,5.7c-0.7,3.1-1.4,6.4-1.6,9.7c-0.1,1.5,0,3,0.1,4.5l0,0.5c0.1,1.2,0.3,2.2,0.5,3.1c0.3,1,0.8,2.2,1.7,3.2
		c0.3,0.3,0.6,0.6,0.9,0.9c0.3,0.3,0.7,0.6,1,0.9c1,1,1.9,1.7,3,2c1.1,0.4,2.2,0.7,3.2,0.9c1.1,0.2,2.3,0.4,3.5,0.4H99
		c2.3,0,4.6-0.1,6.7-0.2c2.1-0.1,4.5-0.3,6.9-1c3.1-0.9,5.5-2,7.4-3.6c1.1-0.9,1.9-1.6,2.5-2.4c0.7-0.8,1.3-1.7,1.8-2.6l0.4-0.6
		c1.3-2,2.2-4.3,2.6-6.9c0.2-1.2,0.3-2.4,0.3-3.6l0-0.2c0.1-2.3-0.1-4.1-0.7-5.9C126.3,23.2,124.9,20.8,123.1,18.5z M108.5,16.9
		c-0.2,0.4-0.6,0.7-1.2,0.7c-0.7,0-1.5,0-2.2,0c-1.2,0-2.5,0-3.8,0.1c-0.5,0-1,0-1.6,0c-0.2,0-0.3,0-0.5,0c0,0,0.1-0.1,0.1-0.1
		c0.4-0.6,0.8-1.1,1.2-1.5c0.7-0.6,1.4-1.2,2.2-1.8c0.2-0.2,0.5-0.4,0.7-0.6c0.2-0.2,0.4-0.2,0.8,0c0.3,0.1,0.6,0.2,0.9,0.3
		c0.3,0.1,0.5,0.2,0.8,0.3c0.1,0,0.2,0.1,0.3,0.2c0.1,0.1,0.2,0.2,0.4,0.3c0.3,0.2,0.7,0.4,1.2,0.6l0,0c0.1,0.2,0.2,0.3,0.3,0.5
		C108.6,16.5,108.7,16.7,108.5,16.9z M102.4,20.5c0.5-0.1,1.1,0,1.7,0.1c0.8,0.1,1.7,0.2,2.5,0c0.1,0,0.3,0,0.4,0.1
		c0.2,0.1,0.4,0.1,0.6,0.1c0.5,0,0.9,0.1,1.3,0.1c1.1,0,2.1-0.2,3-0.7c1-0.5,1.6-1.6,1.4-2.7c0.8,0.8,1.5,1.6,2.2,2.4l0.5,0.5
		c1.3,1.5,2.3,3.3,3.2,5.7c0.5,1.4,0.7,2.7,0.7,3.9c-0.1,2.1-0.5,3.8-1.1,5.4c-0.4,0.9-0.9,1.9-1.5,2.9c-0.7,1.1-1.4,2.1-2.1,3
		c-0.8,1.1-1.9,2-3.5,2.9c-1.9,1.1-3.6,1.8-5.4,2.1c-1.3,0.3-2.7,0.4-4.3,0.4c-2.1,0-4.3-0.1-6.1-0.2c-0.6,0-1.3-0.2-1.9-0.4
		c-0.3-0.1-0.7-0.4-0.8-0.6c-0.2-0.4-0.5-1-0.5-1.7l0-0.7c-0.1-1.5-0.2-3.1,0-4.6c0.4-3.4,1-6.4,1.8-9l0.3-0.9
		c0.6-1.9,1.1-3.8,1.9-5.5c0.3-0.7,0.6-1.3,1-2c0.1-0.2,0.2-0.5,0.4-0.7c0.4,0,0.8,0,1.1,0.1C100.1,20.5,101.4,20.6,102.4,20.5z"/>
	<path fill="#FFFFFF" d="M218.6,4.2c0-0.2-0.1-0.5-0.1-0.7c-0.2-0.9-0.6-1.9-1.9-2.3c-0.6-0.2-1.1-0.4-1.7-0.7
		c-0.3-0.1-0.6-0.3-1-0.4c-0.1-0.1-0.3-0.1-0.5-0.1l0,0.5c0,0,0,0,0,0l-0.1-0.5l-2-0.1l-0.1,0.1c-0.1,0-0.1,0.1-0.2,0.1
		c-0.1,0.1-0.2,0.1-0.3,0.2l-0.5,0.2c-1.6,0.5-3.2,1-4.9,1.4c-2.2,0.6-4.4,1.2-6.6,1.8l-2.9,0.8c-1.2,0.3-2.5,0.7-3.7,0.9l-0.4,0.1
		c-1.8,0.4-3.6,0.8-5.4,1.4c-0.6,0.2-1.3,0.3-2,0.5c-0.7,0.1-1.4,0.3-2.1,0.5c-1.4,0.5-2.9,0.7-4.4,1l-0.1,0c-1.6,0.3-3.8,0.6-6,0.5
		c-1.1-0.1-2,0-3,0.3c-0.6,0.1-1.1,0.3-1.7,0.5l-0.9,0.3l-0.1,0.3c-0.3,1.4,0.1,2.5,1.2,3.3c0.1,0.1,0.2,0.2,0.3,0.3
		c0.1,0.1,0.1,0.1,0.2,0.2c0.6,0.6,1.3,1.1,2.2,1.3c0.1,0,0.2,0.1,0.4,0.2c0.1,0.1,0.2,0.1,0.3,0.2l0.1,0.1l1.1-0.1
		c0.8-0.1,1.6-0.1,2.4-0.2c0.3,0,0.6-0.1,1-0.2c0.4-0.1,0.7-0.2,1-0.2c2.4-0.1,4.8-0.5,7.8-1.2c0.9-0.2,1.9-0.4,2.9-0.6l0.9-0.2
		c0,0,0,0,0,0c0.1,0.3,0.1,0.6,0.1,0.8c0,0.6,0.1,1.1,0.1,1.7c0,0.5,0,1.1,0.1,1.6c0.2,2.7,0.3,5.4,0.5,8.1c0.1,0.8,0.1,1.7,0.2,2.5
		c0.1,0.8,0.2,1.5,0.2,2.3c0.2,1.6,0.4,3.2,0.4,4.8c0.1,1.3,0.2,2.6,0.3,3.8l0.2,1.7c0.1,1,0.2,2,0.3,3l0.1,0.4
		c0.1,0.8,0.2,1.6,0.8,2.4c0.1,0.1,0.2,0.3,0.3,0.5c0.6,0.8,1.2,1.7,2.5,2c0,0,0.1,0.1,0.2,0.1c0.1,0.1,0.1,0.1,0.2,0.2
		c0.6,0.4,1.3,0.6,2.1,0.6c0.7,0,1.4-0.2,1.9-0.5c0.9-0.7,1.8-3.5,1.5-4.7l-0.3-1.1c-0.1-0.8-0.3-1.5-0.4-2.3
		c-0.2-1.5-0.4-3-0.5-4.5l-0.2-2c-0.2-2.2-0.5-4.4-0.7-6.6c-0.2-1.9-0.3-3.9-0.4-5.8l0-0.4c-0.2-3.1-0.3-5.5-0.3-7.8
		c0-0.5,0-1,0.1-1.6c0-0.3,0-0.5,0.1-0.8c0-0.5,0.2-0.9,1.1-1.1c1-0.2,2-0.4,3-0.7c1.1-0.3,2.2-0.6,3.2-0.9c0.8-0.2,1.6-0.4,2.3-0.6
		c1.3-0.3,2.5-0.7,3.8-1l0.8-0.2c1-0.2,2-0.5,3-0.7c0.6-0.1,1.3-0.1,1.9-0.2c0.3,0,0.6,0,0.8-0.1l0.2,0l1.5-1.8L218.6,4.2z"/>
	<path fill="#FFFFFF" d="M167.9,30.1c0-0.7-0.1-1.5-0.1-2.2c0-0.4-0.1-0.8-0.2-1.2c-0.1-0.2-0.1-0.4-0.1-0.6
		c-0.1-0.8-0.3-1.6-0.4-2.3l-0.1-0.7c0-0.1,0-0.1,0-0.2l-0.2-1.1c-0.2-0.9-0.4-1.9-0.6-2.8c-0.2-0.8-0.4-1.5-0.7-2.2l-0.2-0.7
		c-0.2-0.5-0.3-1-0.5-1.6c-0.4-1.3-0.8-2.6-1.3-3.9c-0.8-2.1-2.2-4-3.4-5.4l-0.1-0.1l-4.4-1.3l-1.3,1l0,0.1c-0.3,1.1,0,2,0.3,2.8
		l0.1,0.3c0.3,0.8,0.6,1.7,0.8,2.5c0.4,1.2,0.8,2.3,1.2,3.5c0.4,1.3,0.7,2.7,1,4.1l0.2,0.8c0.4,1.8,0.8,3.8,1.2,5.7
		c0.2,0.9,0.4,2.2,0.6,3.4c0.4,3,0.7,6.3,0.2,9.6c-0.2,1.1-0.7,2-1.3,3l-0.1,0.1c0,0-0.2,0.1-0.2,0.2l-0.1,0.1
		c-0.2,0.1-0.4,0.2-0.6,0.3l-0.1,0.1c0,0-0.1,0-0.1,0c-0.3,0-0.6-0.1-0.8,0c-0.7,0.2-1.5,0.1-2.3,0c-0.3,0-0.6-0.1-0.9-0.1
		c-0.6-0.1-1.3-0.2-2-0.5c-1.2-0.5-2.3-1-3.3-1.5c-2-1-3.6-2.3-4.9-3.9c-1.3-1.7-2.6-3.6-3.5-5.7c-0.7-1.7-1.2-3-1.5-4.2
		c-0.3-0.9-0.5-1.8-0.7-2.7c-0.1-0.3-0.1-0.7-0.2-1c-0.2-0.9-0.4-1.8-0.6-2.7l-0.1-0.4c-0.1-0.7-0.3-1.4-0.3-2c0-0.7,0-1.5,0.1-2.2
		c0-0.4,0.1-0.8,0.1-1.2c0-0.3,0-0.6-0.1-0.8c-0.5-1.4-1.2-2.9-3.1-3.1c-0.2,0-0.4-0.1-0.6-0.1c-0.7-0.1-1.5-0.2-2.2,0L130,9.1
		l-0.1,0.2c-0.1,0.3-0.3,0.5-0.4,0.8c-0.3,0.6-0.7,1.2-0.8,2c-0.2,1.5-0.2,2.8,0,4c0.3,1.3,0.6,2.7,0.9,4l0.4,2
		c0,0.2,0.1,0.3,0.1,0.5c0.1,0.4,0.1,0.8,0.3,1.1c0.4,1.3,1,3.1,1.6,4.9c0.3,0.9,0.6,1.6,1,2.3c0.4,0.6,0.7,1.2,1.1,1.8
		c0.3,0.4,0.6,0.9,0.8,1.3c1.4,2.3,3.1,4.3,5.2,6c1.5,1.2,3.2,2.2,4.8,3.2c1,0.6,2,1,3,1.5l0.9,0.4c0.4,0.2,0.9,0.4,1.3,0.6
		c0.5,0.2,1.1,0.4,1.6,0.7c0.7,0.4,1.5,0.7,2.3,0.6l0.5,0.4l1.4,0.1c0.9,0.1,1.7,0.1,2.5,0.2c0.2,0,0.4,0,0.6,0
		c0.7,0,1.3-0.1,2.1-0.3c3.1-0.8,5.1-2.8,5.9-6.1c0.1-0.2,0.1-0.5,0.2-0.7c0.3-1.1,0.6-2.3,0.5-3.6c0-0.5,0-1,0.1-1.6
		c0.1-0.7,0.2-1.3,0.1-2C168,32.2,167.9,31.1,167.9,30.1z"/>
</g>
</svg>
