<?xml version="1.0" encoding="utf-8"?>
<!-- Generator: Adobe Illustrator 18.1.1, SVG Export Plug-In . SVG Version: 6.00 Build 0)  -->
<svg version="1.1" id="Layer_1" xmlns="http://www.w3.org/2000/svg" xmlns:xlink="http://www.w3.org/1999/xlink" x="0px" y="0px"
	 viewBox="-166.2 504.5 26 14.6" enable-background="new -166.2 504.5 26 14.6" xml:space="preserve">
<path fill="#FFFFFF" d="M-153.7,504.8c0.1,0,0.3,0.1,0.4,0.1c0.8-0.4,1.5-0.1,1.6,0.7c0.1,0.1,0.2,0.1,0.3,0.2
	c0,0.1-0.1,0.2-0.2,0.4c0.2,0.2,0.3,0.5,0.6,0.7c0.3,0.3,0.6,0.6,0.9,0.9c0.2,0.2,0.5,0.3,0.8,0.4c0.7,0.3,1.3,0.7,2,1
	c0.6,0.2,1.2,0.6,1.8,0.8c0.3,0.1,0.7,0.3,1,0.4c0.1,0,0.3,0,0.5,0.1c0.1,0.1,0.3,0.2,0.5,0.1c0.1,0,0.2,0,0.3,0c0.3,0,0.6,0.1,1,0
	c0.2,0.2,0.2,0.2,0.4,0.4l0,0c0.2,0.1,0.3,0.1,0.5,0.2c0.1,0,0.2,0,0.2,0l0,0c0.2,0,0.4,0,0.6,0.2c0,0.1,0.1,0.3,0.2,0.4
	c0.1,0.2,0.1,0.5,0,0.7c-0.2,0.4-0.4,0.8-0.9,1c-0.2,0.1-0.4,0.2-0.5,0.3c-0.5,0.3-1,0.5-1.6,0.6c-0.2,0-0.5,0.1-0.8,0.2
	c-0.3-0.1-0.7,0-1.1,0.1c-0.6,0.2-1.3,0.3-1.9,0.5c-0.9,0.3-1.8,0.5-2.6,1c-0.6,0.4-1.4,0.7-2,1c-0.1,0-0.1,0.1-0.2,0.1
	c-0.3,0.2-1,0.1-1.2-0.2c-0.1-0.1-0.1-0.3-0.1-0.4c-0.1,0-0.2,0.1-0.3,0.1c-0.7,0.5-1.5,1-2.1,1.7c-0.2,0.3-0.5,0.4-0.9,0.5
	c-0.4-0.1-0.4-0.4-0.6-0.6c0-0.1,0-0.2,0.1-0.3c-0.1,0-0.1,0-0.1,0c-0.4,0-0.6-0.2-0.6-0.7c0-0.4,0.2-0.7,0.5-1
	c0.7-0.6,1.5-1.1,2.3-1.6c0.2-0.1,0.4-0.3,0.6-0.4c0.9-0.4,1.7-0.8,2.6-1.2c0.1,0,0.2-0.1,0.3-0.2c-2.3-0.4-4.5-0.8-6.8-1.1
	c-2.2-0.3-4.5-0.5-6.8-1.1c-0.1-0.1-0.2-0.2-0.2-0.4c-0.1-0.2-0.2-0.2-0.4-0.3l0,0c-0.1-0.3-0.4-0.1-0.5-0.3c0-0.3,0.1-0.6,0.2-0.9
	c0.2-0.3,0.4-0.4,0.7-0.4c0.6-0.1,1.1,0.1,1.7,0.1c0.8,0.1,1.6,0.2,2.4,0.2c0.7,0.1,1.3,0.1,2,0.2c0.8,0.1,1.5,0.2,2.3,0.4
	c0.5,0.1,0.9,0.1,1.4,0.1c0.5,0.1,1.1,0.1,1.6,0.2c0.8,0.1,1.5,0.2,2.3,0.3c0.2,0,0.3,0.1,0.5,0.2c0,0,0,0,0,0c0,0,0,0,0-0.1
	c0.1,0,0.1-0.1,0.2-0.1c0-0.1,0-0.1,0-0.1c-0.2-0.2-0.3-0.4-0.5-0.7c-0.3-0.5-0.8-0.8-1.3-1c-0.2-0.1-0.4-0.3-0.5-0.5
	c-0.2-0.2-0.3-0.3-0.4-0.4c-0.3-0.2-0.5-0.5-0.8-0.6c-0.3-0.2-0.4-0.4-0.6-0.7c-0.1-0.1,0-0.3,0-0.4c0-0.2,0.1-0.4,0.1-0.6
	c0.2-0.2,0.5-0.5,0.9-0.5c0.1,0,0.2,0.1,0.3,0.1l0,0c0,0.1-0.1,0.2-0.1,0.3C-153.8,504.9-153.7,504.8-153.7,504.8L-153.7,504.8z
	 M-158.6,509.5L-158.6,509.5c0.1,0,0.1,0,0.2,0.1c0,0,0-0.1,0-0.1C-158.5,509.5-158.5,509.5-158.6,509.5z M-160.6,509.4
	c-0.1,0.3-0.3,0.5-0.4,0.7C-160.6,510.1-160.5,509.9-160.6,509.4z M-159.9,509.4c-0.1,0-0.2-0.1-0.2-0.1c-0.2,0.1-0.3,0.3-0.2,0.5
	C-160.2,509.7-160.1,509.6-159.9,509.4z M-154.1,510.3c0.2-0.1,0.4-0.2,0.6-0.3C-153.9,510-153.9,510-154.1,510.3z M-161.9,509.2
	c-0.2-0.1-0.3-0.2-0.5,0C-162.2,509.3-162.1,509.3-161.9,509.2z M-159.6,509.5c0.1,0.1,0.2,0.1,0.2,0.2c0.1-0.1,0.1-0.2,0.2-0.3
	C-159.4,509.4-159.5,509.4-159.6,509.5z M-155.4,510c0,0-0.1,0-0.1,0c0,0.1,0,0.2,0,0.4C-155.3,510.2-155.3,510.1-155.4,510z
	 M-154.6,510.1C-154.6,510-154.6,510-154.6,510.1c-0.1-0.1-0.2-0.1-0.2-0.1c0,0,0,0,0,0.1C-154.7,510.1-154.6,510.1-154.6,510.1z
	 M-161.4,509.3c0.1,0,0.1,0,0.1,0c0,0,0-0.1,0-0.1c0,0-0.1-0.1-0.1,0C-161.4,509.2-161.4,509.3-161.4,509.3z M-162.5,509.8
	C-162.5,509.8-162.4,509.8-162.5,509.8c0.1,0,0.1-0.1,0.1-0.2c0,0,0,0-0.1,0C-162.5,509.7-162.5,509.7-162.5,509.8z M-164,510.7
	c0-0.1,0-0.1,0-0.1c0,0-0.1,0-0.1,0c0,0-0.1,0.1-0.1,0.1C-164.1,510.6-164.1,510.7-164,510.7z M-159,511.6
	C-159,511.6-159,511.7-159,511.6c0.1,0.1,0.1,0.1,0.2,0c0,0,0,0,0-0.1C-158.9,511.6-158.9,511.6-159,511.6z M-153.1,514.3
	C-153.1,514.3-153.1,514.3-153.1,514.3c0.1,0,0.1-0.1,0-0.1c0,0,0,0,0,0C-153.1,514.2-153.1,514.2-153.1,514.3z M-159.5,510.2
	C-159.5,510.2-159.5,510.2-159.5,510.2C-159.4,510.2-159.4,510.2-159.5,510.2C-159.5,510.2-159.5,510.2-159.5,510.2
	C-159.5,510.2-159.5,510.2-159.5,510.2z M-154.3,514.7C-154.3,514.8-154.3,514.8-154.3,514.7C-154.3,514.8-154.3,514.8-154.3,514.7
	C-154.3,514.8-154.3,514.8-154.3,514.7C-154.3,514.8-154.3,514.7-154.3,514.7z M-158.1,509.8C-158.1,509.8-158.1,509.8-158.1,509.8
	C-158,509.8-158,509.8-158.1,509.8C-158,509.7-158.1,509.7-158.1,509.8C-158.1,509.8-158.1,509.8-158.1,509.8z M-163.3,509.7
	C-163.3,509.6-163.3,509.6-163.3,509.7C-163.4,509.6-163.4,509.6-163.3,509.7C-163.4,509.6-163.4,509.7-163.3,509.7
	C-163.4,509.7-163.3,509.7-163.3,509.7z M-162.9,509.7C-162.9,509.7-162.9,509.7-162.9,509.7C-162.9,509.7-162.9,509.7-162.9,509.7
	C-162.9,509.7-162.9,509.7-162.9,509.7C-162.9,509.7-162.9,509.7-162.9,509.7z M-161.6,511C-161.6,511-161.6,511-161.6,511
	C-161.6,511-161.6,511-161.6,511C-161.6,511-161.6,511-161.6,511z M-160.5,510.2C-160.5,510.2-160.5,510.2-160.5,510.2
	C-160.5,510.2-160.5,510.2-160.5,510.2C-160.5,510.2-160.5,510.2-160.5,510.2z M-159,510.4C-159,510.4-159,510.5-159,510.4
	C-159,510.5-159,510.5-159,510.4C-159,510.5-158.9,510.5-159,510.4C-158.9,510.4-159,510.4-159,510.4z M-152,513.8
	C-152,513.8-152.1,513.8-152,513.8C-152.1,513.8-152.1,513.8-152,513.8C-152,513.8-152,513.8-152,513.8
	C-152,513.8-152,513.8-152,513.8z M-154.6,515.4L-154.6,515.4L-154.6,515.4L-154.6,515.4z M-156.6,509.8L-156.6,509.8L-156.6,509.8
	L-156.6,509.8z M-159.3,511.2C-159.3,511.2-159.3,511.2-159.3,511.2C-159.3,511.1-159.3,511.1-159.3,511.2
	C-159.3,511.1-159.3,511.2-159.3,511.2z M-163.3,509C-163.3,509-163.3,509-163.3,509C-163.3,509-163.3,509-163.3,509
	C-163.3,509-163.3,509-163.3,509z"/>
</svg>
