<?xml version="1.0" encoding="utf-8"?>
<!-- Generator: Adobe Illustrator 18.1.1, SVG Export Plug-In . SVG Version: 6.00 Build 0)  -->
<svg version="1.1" id="Layer_1" xmlns="http://www.w3.org/2000/svg" xmlns:xlink="http://www.w3.org/1999/xlink" x="0px" y="0px"
	 viewBox="0 0 22.6 30.5" enable-background="new 0 0 22.6 30.5" xml:space="preserve">
<g>
	<path d="M8.7,23.9c-0.1-0.6-0.1-0.6,0.4-1.1c-0.1,0-0.2-0.1-0.3-0.1c-0.1,0-0.2,0-0.3-0.1c0-0.1-0.1-0.2-0.1-0.3c0-0.1,0-0.2,0-0.3
		c-0.4-0.1-0.5,0.1-0.6,0.4c-0.1,0.2,0,0.5-0.1,0.8c0.1,0,0.3,0,0.4,0c0,0,0,0,0,0C8,23.3,8,23.5,7.9,23.7c-0.2,0.3-0.1,0.5,0,0.8
		c-0.5-0.2-0.5-0.2-0.5-0.9c-0.1,0-0.2,0-0.3-0.1c0.2-0.6,0.2-1.2,0.5-1.7c0,0,0.1-0.1,0.1-0.1c-0.1-0.9,0.4-1.6,0.8-2.3
		c0-0.1,0-0.2,0.1-0.2c0.1-0.4,0.2-0.9,0.4-1.3c0.3-0.5,0.2-1-0.2-1.5c-0.1,0.1-0.3,0.1-0.5,0.2c0.1,0.1,0.1,0.2,0.2,0.2
		c0.1,0,0.2,0.1,0.4,0.2c-0.4,0.1-0.7,0.1-1-0.2l0,0c0-0.2,0.1-0.4,0.1-0.6l0,0c0-0.1,0.1-0.2,0.1-0.3c-0.6-0.1-1.2-0.1-1.7-0.1
		c-0.3-0.1-0.6-0.2-1-0.3c0,0-0.1-0.1-0.1-0.2l0,0c0.4,0,0.8,0,1.2,0c0.3-0.2,0-0.5,0-0.7c0.5,0.1,1,0.2,1.6,0.3
		c-0.1,0.1-0.2,0.2-0.4,0.4c0.2,0.1,0.4,0.2,0.6,0.3c0.2-0.1,0.3-0.3,0.5-0.4c0-0.5-0.4-0.8-0.7-1.1c-1-1-2-2-3-2.9
		c-0.3-0.2-0.5-0.4-0.8-0.7C3.7,9.8,3.8,9.2,4.1,8.5c0.1,0,0.2-0.1,0.3-0.1C5.7,7.8,6.3,8.2,7,9.3c0.4,0.6,0.8,1.2,1.3,1.8
		c0.2,0.3,0.5,0.6,0.8,0.8c0.1,0.1,0.2,0.1,0.4,0.2c0-0.4-0.1-0.7-0.1-1.2C9.5,11,9.6,11,9.6,11.1c0,0.3,0.3,0.6,0.3,0.9
		c0,0,0,0,0,0c0.1,0,0.2,0.1,0.3,0.2c0-0.4,0-0.6,0-0.9c0.1,0,0.2,0,0.3,0.1c0.5-0.4,0.4-0.9,0.6-1.4l0,0c0.1,0.6,0.3,1.1,0.4,1.7
		l0,0c0.2-0.3,0.3,0.2,0.5,0.1c0.4-0.3,0.3-0.9,0.4-1.3c-0.2-0.3-0.3-0.5-0.4-0.8l0,0c0.4-0.1,0.6-0.4,0.6-0.8
		c0.2-0.1,0.4-0.2,0.5,0c0.2,0.3-0.1,0.5-0.3,0.8c0.2,0,0.4,0.1,0.5,0.1c0.1,0.3,0.1,0.5-0.1,0.7c-0.1-0.2-0.2-0.3-0.4-0.6
		c0.1,0.6-0.1,1.1,0.2,1.5c0-0.2,0.1-0.3,0.1-0.5c0.1,0,0.2,0,0.4-0.1c0.1-0.3,0.2-0.7,0.2-1c0-0.4-0.1-0.8,0.2-1.1
		c0,0-0.1-0.1-0.1-0.2l0,0c0.2-0.2,0.4-0.4,0.6-0.6c-0.4-0.2-0.7-0.3-1-0.5c0.1-0.2,0.4-0.3,0.2-0.6c0-0.1-0.1-0.1-0.2-0.1
		c0,0.1,0,0.2,0,0.3c-0.2,0.1-0.5,0-0.8-0.5l0,0C12.8,6.3,12.9,6,13,5.7c0.2,0,0.5,0,0.5-0.4c-0.2,0.2-0.4,0.3-0.5,0.5
		c0-0.7,0.2-1.4,0.4-2.1c0.2-0.5,0.6-0.8,1.1-0.8c0.3,0.1,0.6,0.2,1,0.3c0.1,0.1,0.2,0.3,0.4,0.5c0.3,0.5,0.4,0.9,0,1.5
		c-0.3,0.5-0.6,1-0.8,1.6l0,0c-0.1-0.2-0.2-0.3-0.3-0.5c-0.2,0-0.4,0-0.6,0c0.2,0.3,0.3,0.6,0.5,0.8c-0.1,0-0.2-0.1-0.4-0.1
		c0,0.2,0,0.3,0,0.5c0.2-0.1,0.3-0.1,0.3-0.2c0.1-0.1,0-0.2,0.1-0.2c0.1,0,0.2,0,0.3,0.1c-0.1,0.8-0.3,1.3-0.7,1.6
		c0.2,0.6-0.1,1-0.2,1.5c-0.4,1.1-0.8,2.2-1.2,3.4c-0.1,0.3-0.2,0.5-0.3,0.8c-0.2,0.6,0,1,0.7,1.2c0.8,0.2,1.6,0.5,2.4,0.7l0,0
		c-0.1,0.6-0.1,0.6,0.5,0.9c0-0.3,0-0.5-0.1-0.8c1.9,0.4,3.6,1,5.5,0.9c0.2,0.1,0.3,0.3,0.4,0.4c0.5,0.3,0.6,0.7,0.7,1.2
		c0.1,0.6-0.1,0.7-0.7,0.6c0,0-0.1,0-0.2,0c0.1,0.1,0.2,0.3,0.3,0.4c-1.3-0.1-2.4-0.6-3.6-0.8l0,0c0.1-0.2,0.1-0.3-0.2-0.2l0,0
		c0-0.1,0-0.2,0-0.3c0.3-0.3,0.6-0.6,1-0.9c0,0,0-0.1,0-0.2c-0.3,0.1-0.6,0.3-0.9,0.4c-0.2,0.3-0.4,0.6-0.6,0.9c0,0-0.1,0-0.1,0
		c0,0,0-0.1,0-0.1c0,0,0,0,0,0.1c-0.2-0.1-0.5-0.1-0.7-0.1c-0.2-0.4-0.1-0.9-0.8-0.9c0.2,0.2,0.3,0.3,0.4,0.4
		c-0.1,0.1-0.2,0.2-0.3,0.3c0.2,0.2,0.4,0.4,0.5,0.6c0,0.2,0,0.4,0,0.6c0,0,0,0.1,0,0.1c0,0,0,0,0-0.1c0.2,0,0.3,0,0.5,0
		c0,0,0,0,0,0c0,0.1,0.1,0.1,0.2,0.3c0.1-0.1,0.2-0.2,0.2-0.2c0.4,0.1,0.6,1.2,0.3,1.8c-0.5,0.1-0.9,0.2-1.5,0.1
		c-0.3-0.1-0.5-0.2-0.7-0.5c-0.4-0.5-0.9-0.8-1.4-1.3c-0.2-0.2-0.4-0.3-0.6-0.5c-0.2-0.2-0.4-0.3-0.7-0.3c-0.3,0.3-0.6,0.6-0.9,1
		c-0.2-0.1-0.4-0.2-0.6-0.4c0.1-0.3-0.1-0.5-0.4-0.6c-0.3,0.6-0.6,1.2-0.9,1.7l0,0c0-0.1,0-0.2-0.1-0.3c0.1-0.1,0.1-0.1,0.2-0.2
		c0,0-0.1,0-0.1-0.1c0,0.1,0,0.2-0.1,0.3c-0.2-0.1-0.2-0.2-0.1-0.4c0.1-0.2,0.3-0.3,0.4-0.4c0.2-0.3,0.4-0.7,0.1-1.2
		c-0.1,0.4-0.2,0.7-0.3,1C10.1,19.1,10,19,9.9,19c-0.1,0.3-0.2,0.6-0.2,0.9c-0.2-0.1-0.3-0.2-0.4-0.2c-0.1,0.1-0.1,0.1-0.2,0.2l0,0
		c-0.1,0-0.3,0-0.4-0.1l0,0c-0.1,0.1-0.1,0.1-0.2,0.2l0,0c0,0.2-0.1,0.4-0.1,0.6l0,0C7.9,20.9,8,21,8.3,21.5
		c0.2,0.2,0.5,0.4,0.4,0.7l0,0c0,0.1,0,0.1-0.1,0.3c0.2-0.1,0.3-0.1,0.4-0.1c0,0,0,0,0,0c0.1,0.1,0.2,0.3,0.3,0.4
		c-0.1,0.3-0.1,0.6-0.3,0.8C8.9,23.7,8.8,23.8,8.7,23.9L8.7,23.9z M20.1,18.6L20.1,18.6L20.1,18.6z M12.4,13.7L12.4,13.7L12.4,13.7
		c0-0.1,0.1-0.2,0.1-0.3c0,0-0.1,0-0.1,0C12.5,13.5,12.4,13.6,12.4,13.7z M10.3,12.5c0.1,0.1,0.2,0.2,0.3,0.4
		C10.6,12.5,10.5,12.4,10.3,12.5c-0.1,0-0.1-0.1-0.2-0.1c0,0,0,0.1,0,0.1C10.2,12.5,10.3,12.5,10.3,12.5z M15.5,19.3
		c0-0.1,0.1-0.1,0.1-0.2c0,0-0.1,0-0.1,0C15.4,19.1,15.5,19.2,15.5,19.3c0,0.1,0,0.2,0,0.3c0.1,0,0.2,0,0.4,0
		C15.6,19.4,15.6,19.3,15.5,19.3z M11.9,12.6c0.1-0.1,0.2-0.2-0.1-0.3C11.8,12.4,11.9,12.5,11.9,12.6c-0.1,0.4-0.1,0.4,0.2,0.7
		C12.1,13.1,12,12.8,11.9,12.6z M16.5,20.5c-0.1,0.1-0.2,0.3,0,0.4C16.7,20.7,16.6,20.6,16.5,20.5c0.1-0.5,0.1-0.5-0.4-0.5
		C16.3,20.1,16.4,20.3,16.5,20.5z M9.1,18.9c0,0.1,0,0.3,0,0.4c0,0,0.1,0,0.1,0C9.1,19.2,9.1,19.1,9.1,18.9c0.1,0,0.3-0.1,0.5-0.2
		c-0.2-0.3-0.3-0.4-0.7-0.3C9,18.7,9,18.8,9.1,18.9z M11.8,19.1c0.7-0.4,0.7-0.4,0.5-1C12.1,18.4,11.9,18.8,11.8,19.1z M13.6,6.3
		c-0.2-0.1-0.3-0.2-0.5-0.4C13,6.1,13,6.3,13,6.5C13.2,6.4,13.3,6.3,13.6,6.3z M8.8,12c-0.1,0-0.1,0-0.2,0.1
		c0.1,0.1,0.1,0.3,0.2,0.4c0.1,0,0.1,0,0.2-0.1C8.9,12.3,8.9,12.1,8.8,12z M12.2,12.9c0.3-0.2,0.2-0.3,0.2-0.5c0,0-0.1,0-0.1-0.1
		C12.2,12.5,12.2,12.7,12.2,12.9z M19.2,18.1c0,0-0.1,0.1-0.1,0.1c0.1,0.1,0.1,0.2,0.2,0.3c0,0,0.1-0.1,0.1-0.1
		C19.4,18.3,19.3,18.2,19.2,18.1z M17.7,17.6c0,0-0.1,0-0.1,0c0,0.1,0,0.2,0.1,0.3c0,0,0.1,0,0.1,0C17.8,17.8,17.8,17.7,17.7,17.6z
		 M17.9,17.2c0-0.1,0-0.1,0-0.2c-0.1,0-0.2,0-0.4,0c0,0,0,0.1,0,0.1C17.7,17.1,17.8,17.1,17.9,17.2z M9.3,13.9
		C9.3,13.9,9.2,14,9.3,13.9c0,0.1,0.1,0.2,0.1,0.2c0,0,0-0.1,0.1-0.1C9.4,14,9.4,14,9.3,13.9z M9.4,17.9c0,0-0.1,0-0.1,0
		c0,0.1,0,0.1,0,0.2c0,0,0.1,0,0.1,0C9.3,18.1,9.3,18,9.4,17.9z M9.9,14.5C9.9,14.5,9.8,14.6,9.9,14.5c0,0.1,0.1,0.2,0.1,0.2
		c0,0,0-0.1,0.1-0.1C10,14.6,9.9,14.6,9.9,14.5z M17.8,20.8c0-0.1,0-0.1-0.1-0.2c0,0-0.1,0-0.1,0c0,0.1,0,0.1,0,0.2
		C17.6,20.9,17.7,20.9,17.8,20.8z M10.1,17.3c0,0,0,0.1,0,0.1c0,0,0.1,0,0.1-0.1c0,0,0-0.1,0-0.1C10.2,17.3,10.2,17.3,10.1,17.3z
		 M8.3,13.4c0,0,0-0.1,0-0.1c0,0-0.1,0-0.1,0c0,0,0,0.1,0,0.1C8.2,13.4,8.2,13.4,8.3,13.4z M17.2,17.6
		C17.2,17.6,17.2,17.5,17.2,17.6c0.1-0.1,0-0.1,0-0.1C17.2,17.5,17.1,17.5,17.2,17.6C17.1,17.5,17.1,17.6,17.2,17.6z M13.7,17.8
		C13.8,17.8,13.8,17.8,13.7,17.8c0.1,0,0.1,0,0.1,0C13.8,17.7,13.8,17.7,13.7,17.8C13.8,17.7,13.8,17.7,13.7,17.8z M21.7,19
		C21.7,19,21.7,18.9,21.7,19C21.7,18.9,21.6,18.9,21.7,19c-0.1-0.1-0.1-0.1-0.1,0C21.6,18.9,21.6,19,21.7,19z M13.5,18.3
		c0,0-0.1,0-0.1,0C13.4,18.3,13.4,18.3,13.5,18.3C13.5,18.3,13.5,18.3,13.5,18.3C13.5,18.3,13.5,18.3,13.5,18.3z M17.6,20.1
		c0,0-0.1,0-0.1,0C17.5,20.2,17.5,20.2,17.6,20.1C17.6,20.2,17.6,20.2,17.6,20.1C17.6,20.2,17.6,20.2,17.6,20.1z M14,16.1
		C14,16.1,14,16,14,16.1C14,16,14,16,14,16.1C14,16,14,16,14,16.1C14,16.1,14,16.1,14,16.1z M7.7,13.3C7.8,13.3,7.8,13.3,7.7,13.3
		C7.8,13.3,7.8,13.3,7.7,13.3C7.8,13.2,7.7,13.2,7.7,13.3C7.7,13.3,7.7,13.3,7.7,13.3z M11.1,17.7C11.1,17.6,11,17.6,11.1,17.7
		C11,17.6,11,17.6,11.1,17.7C11,17.6,11,17.6,11.1,17.7z M14.9,18.8C14.9,18.8,14.9,18.8,14.9,18.8c0-0.1,0-0.1,0-0.1c0,0,0,0-0.1,0
		C14.8,18.8,14.9,18.8,14.9,18.8z M11.1,12.2L11.1,12.2L11.1,12.2L11.1,12.2z M9.8,17.7C9.8,17.7,9.8,17.7,9.8,17.7
		C9.8,17.7,9.8,17.7,9.8,17.7C9.8,17.7,9.8,17.7,9.8,17.7C9.8,17.7,9.8,17.7,9.8,17.7z M9.1,13.2C9.1,13.3,9,13.3,9.1,13.2
		C9.1,13.3,9.1,13.3,9.1,13.2C9.1,13.3,9.1,13.3,9.1,13.2z M15.2,19.9C15.2,19.9,15.2,19.9,15.2,19.9C15.2,19.9,15.2,19.9,15.2,19.9
		C15.2,19.9,15.2,19.9,15.2,19.9z M15.5,18.4C15.5,18.4,15.5,18.4,15.5,18.4C15.5,18.4,15.5,18.4,15.5,18.4
		C15.5,18.4,15.5,18.4,15.5,18.4z M15.9,18.8C15.8,18.8,15.8,18.8,15.9,18.8C15.8,18.9,15.8,18.9,15.9,18.8
		C15.8,18.9,15.9,18.8,15.9,18.8z"/>
	<path d="M9.9,9.7c0.7-0.2,0.7-0.2,0.6-0.9C10.1,8.6,9.7,8.3,9.4,8c0.1-0.2,0.2-0.4,0.3-0.6C9.6,7,9.6,6.7,9.5,6.2
		C9.3,6.3,9.1,6.3,9,6.3l0,0C9,6.1,8.9,6,8.9,5.8C9,5.4,8.9,5.2,8.6,4.9c0,0.3,0,0.5-0.1,0.8c0.1,0,0.2,0.1,0.3,0.1
		C8.8,5.9,8.7,6.1,8.5,6.4C8.4,6.1,8.3,5.9,8.3,5.7C8.1,4.3,8,2.8,7.8,1.4c0-0.1,0.1-0.3,0.1-0.4C8,1.1,8.1,1.2,8.1,1.2
		c0,0,0.1,0,0.1,0c0-0.1-0.1-0.2-0.1-0.4l0,0C8.1,0.9,8,0.9,7.9,1c-0.1-0.3,0-0.5,0.2-0.6C8.3,0.2,8.4,0.1,8.5,0
		C9.9,0,10,0,10.4,1.2c0,0.5-0.1,0.9-0.1,1.4c0,1.3,0.1,2.6,0.3,3.9c0.2,1,0.3,1.9,0.5,2.9c0,0.1,0,0.2,0,0.3l0,0
		c-0.1-0.1-0.1-0.1-0.2-0.2c-0.1,0.3-0.1,0.5-0.2,0.8c-0.1-0.1-0.1-0.2-0.2-0.4c-0.1,0.2-0.2,0.4-0.2,0.5c0,0-0.1,0-0.1-0.1
		C9.9,10.1,9.9,9.9,9.9,9.7L9.9,9.7z M8.5,3.2c0.1,0.2,0.3,0.3,0.6,0.2C8.9,3.3,8.7,3.2,8.5,3.2c0-0.1-0.1-0.2-0.1-0.4
		C8.2,3.1,8.3,3.2,8.5,3.2z M10,3.7c-0.3,0-0.5,0.1-0.8,0.1c0,0.2-0.2,0.4,0,0.6C9.5,4.4,9.7,4.3,10,4.3C10,4.1,10,3.9,10,3.7z
		 M10.2,5.3c-0.2-0.2-0.3-0.4-0.4-0.6c0,0-0.1,0-0.1,0c0,0.3,0.1,0.5,0.1,0.9C10,5.5,10.1,5.4,10.2,5.3z M10.5,7.9
		c0-0.2,0-0.4-0.3-0.5C10.1,7.9,10.1,7.9,10.5,7.9z M9.3,5.2C9.2,5.5,9.2,5.7,9.5,5.9C9.6,5.6,9.5,5.4,9.3,5.2z M10,5.9
		C10,6,10,6,10,6c0.1,0.1,0.2,0.1,0.2,0.2c0,0,0.1-0.1,0.1-0.1C10.2,6.1,10.1,6,10,5.9z M8.4,4.6C8.5,4.6,8.5,4.6,8.4,4.6
		c0.1-0.1,0.1-0.1,0.1-0.2c-0.1,0-0.1,0-0.2,0C8.4,4.5,8.4,4.5,8.4,4.6z M8.6,4c0-0.1,0-0.1,0-0.2c-0.1,0-0.2,0-0.2,0
		c0,0.1,0,0.1,0,0.2C8.4,4,8.5,4,8.6,4z M8.9,3C8.9,3,9,3,8.9,3c0.1-0.1,0-0.1,0-0.1C8.9,2.9,8.9,2.9,8.9,3C8.9,3,8.9,3,8.9,3z
		 M8.3,1.6C8.3,1.6,8.3,1.7,8.3,1.6c0,0.1,0.1,0.1,0.2,0.1c0,0,0-0.1,0-0.1C8.5,1.6,8.4,1.6,8.3,1.6z M9.9,0.9c0,0,0-0.1,0-0.1
		c0,0-0.1,0-0.1,0.1C9.8,0.8,9.8,0.9,9.9,0.9C9.8,0.9,9.9,0.9,9.9,0.9z M9.6,3.1C9.6,3.1,9.7,3.1,9.6,3.1C9.7,3,9.7,3,9.6,3.1
		C9.6,3,9.6,3,9.6,3.1C9.6,3,9.6,3.1,9.6,3.1z M9.3,1C9.3,1,9.2,1,9.3,1C9.2,1,9.3,1,9.3,1C9.3,1,9.3,1,9.3,1z"/>
	<path d="M3,12.7c0.3,0.5,0.7,0.8,1.2,1c0.5,0.2,1,0.5,1.6,0.7c-0.2,0.3-0.5,0.6-0.7,0.9l0,0c-0.1,0-0.3,0.1-0.5,0.2
		c0-0.3,0-0.6,0.1-1c-0.2,0.1-0.3,0.2-0.3,0.3C4.2,15,4.1,15.3,4,15.6l0,0c0.1,0.1,0.2,0.2,0.2,0.3l0,0c-1-0.2-1.8-0.7-2.6-1.3
		c0-0.2,0.1-0.3,0.1-0.5c-0.2,0.1-0.4,0.1-0.6,0.2c-0.2-0.2-0.3-0.4-0.5-0.6c-0.1-0.2-0.3-0.4-0.4-0.6C0.1,12.9,0,12.7,0,12.5
		c-0.1-1,0.8-1.6,1.7-1.1c0.4,0.2,0.7,0.4,0.9,0.8c0.1,0.1,0.2,0.2,0.3,0.4l0,0c-0.1,0.1-0.2,0.3,0,0.4C2.9,12.8,3,12.8,3,12.7
		L3,12.7z M3.8,15.4c-0.1-0.3-0.1-0.4-0.2-0.6C3.3,15.2,3.3,15.2,3.8,15.4z M1.5,12.2C1.3,12,1.2,12,1,12.3
		C1.2,12.2,1.4,12.2,1.5,12.2z M2.7,14.9c0-0.1,0-0.1,0-0.2c-0.2,0-0.3-0.1-0.5-0.1c0,0,0,0.1,0,0.1C2.4,14.8,2.6,14.8,2.7,14.9z
		 M3,13.3c0,0,0,0.1-0.1,0.1c0.1,0.1,0.2,0.1,0.4,0.2c0,0,0-0.1,0.1-0.1C3.3,13.5,3.1,13.4,3,13.3z M2.5,13.9
		C2.6,13.9,2.6,13.9,2.5,13.9C2.6,13.9,2.6,13.9,2.5,13.9C2.6,13.9,2.5,13.9,2.5,13.9C2.5,13.9,2.5,13.9,2.5,13.9z M5.1,14.6
		L5.1,14.6L5.1,14.6L5.1,14.6z"/>
	<path d="M13.7,27.9c-0.1-0.4-0.3-0.8-0.2-1.2c0.1,0.2,0.2,0.3,0.3,0.5c0.1,0,0.2-0.1,0.3-0.1c0.1,0,0.2-0.1,0.3-0.1
		c0.1-0.2,0.1-0.3,0.1-0.5c0.1,0.2,0.2,0.3,0.3,0.5c-0.1,0.1-0.2,0.2-0.2,0.3c0.5,0.2,0.5-0.1,0.7-0.3c-0.1-0.2-0.2-0.4-0.2-0.6
		c0.1-0.4-0.1-0.6-0.3-0.9c0-0.1,0-0.1,0,0c0-0.1,0,0,0,0c-0.2,0.2-0.3,0.4-0.2,0.6c0.1,0.2,0,0.3-0.1,0.4c-0.1-0.1-0.2-0.1-0.3-0.2
		c-0.2,0-0.4,0-0.6,0c0,0.1-0.1,0.2-0.1,0.3c-0.1-0.4-0.2-0.7-0.3-1.1l0,0c0.1,0,0.3,0,0.4,0c0,0,0.1,0,0.1,0c0,0,0,0-0.1,0
		c-0.1-0.1-0.2-0.2-0.3-0.2c0,0,0,0,0,0c-0.2-0.7-0.5-1.3-0.7-2c-0.1-0.3-0.2-0.6-0.3-1c0-0.1,0-0.3,0.1-0.4c0.4,0,0.3,0.3,0.5,0.5
		l0,0c-0.1,0.1-0.2,0.1-0.3,0.2c0,0,0,0.1,0,0.1c0.1,0,0.2,0,0.3,0c0,0,0,0,0,0C12.9,23,13,23,13,23.1c-0.1,0.1-0.2,0.1-0.3,0.2
		c0.3,0.1,0.4-0.1,0.3-0.2c0.1,0,0.3-0.1,0.4-0.1c0.2-0.1,0.4-0.1,0.6-0.2c-0.1-0.5-0.2-0.9-0.3-1.4c0.3,0.4,0.4,0.6,0.5,1.2
		c0,0.2,0.1,0.4,0.2,0.6c0.4,1.2,0.8,2.5,1.1,3.7c0.2,0.9,0.2,1.9,0.3,2.8c0,0.1,0,0.3-0.1,0.5c-0.2,0.1-0.5,0.2-0.8,0.4
		c-0.6-0.3-0.9-0.8-1-1.4C13.9,28.7,13.8,28.3,13.7,27.9c0.1,0,0.2,0.1,0.4,0.2c0-0.2,0.1-0.4,0.1-0.6c0,0-0.1,0-0.1-0.1
		C14,27.6,13.8,27.8,13.7,27.9z M14.6,28.2c-0.2-0.1-0.4-0.1-0.5,0.2c0,0.3,0,0.7,0.3,1c0,0,0,0.1,0,0.1c0,0,0-0.1,0-0.1
		c0.1-0.1,0.5,0.2,0.5-0.3c-0.2-0.1-0.4-0.3-0.6-0.4C14.4,28.5,14.5,28.4,14.6,28.2C14.6,28.2,14.7,28.3,14.6,28.2
		C14.7,28.3,14.6,28.3,14.6,28.2z M13.2,25.1c0.4-0.1,0.8-0.3,1.2-0.4c0.1,0,0.1-0.2,0.1-0.3c-0.3,0.1-0.5,0.2-0.7,0.3
		c0.1-0.4,0.1-0.6,0.2-0.9c0.1,0.1,0.1,0.2,0.3,0.3c0-0.4,0-0.7-0.4-0.9c-0.2,0.2-0.3,0.3-0.5,0.5c-0.1,0-0.3,0-0.5,0.1
		C13,24.2,13.1,24.5,13.2,25.1z M15.6,29.3c-0.7,0.1-0.9,0.4-0.7,0.9c0.1-0.1,0.2-0.2,0.3-0.3c0.1,0,0.2,0,0.4,0.1
		C15.6,29.7,15.6,29.5,15.6,29.3z M14.9,27.8c0.1,0.4,0.3,0.9,0.4,1.3C15.6,28.6,15.5,28.1,14.9,27.8z M14.1,25.8
		c0.5-0.2,0.1-0.5,0.4-0.8C13.9,25.2,13.9,25.2,14.1,25.8z"/>
	<path d="M10.1,20.8c-0.2,0.5-0.5,1-0.7,1.5l0,0c0-0.2-0.1-0.3-0.1-0.5c0.1-0.1,0.2-0.3,0.3-0.5c-0.2,0-0.4-0.1-0.7-0.1
		c0-0.1,0-0.3,0-0.4c0.1,0,0.1,0.1,0.2,0.1c0,0,0-0.1,0-0.1c-0.1,0-0.1,0-0.2,0c0-0.4-0.4-0.2-0.6-0.4l0,0c0.2-0.2,0.2-0.4,0.1-0.6
		l0,0c0.1-0.1,0.1-0.1,0.2-0.2l0,0c0.1,0,0.3,0,0.4,0.1l0,0c0.2,0.3,0.4,0.6,0.6,0.9C9.8,20.9,10,20.9,10.1,20.8L10.1,20.8z"/>
	<path d="M9.9,9.7c-0.2,0.2-0.4,0.5-0.7,0.7C9,10,8.9,9.5,8.8,9.1c0-0.3,0.2-0.5,0.3-0.9C9.4,8.8,9.6,9.2,9.9,9.7L9.9,9.7z"/>
	<path d="M11.8,9.4c0.1-0.8,0.4-1.7,0.8-2.3c0,0.4,0,0.8,0,1.1C12.3,8.6,12,9,11.8,9.4L11.8,9.4z"/>
	<path d="M8.8,8.3C8.6,7.8,8.5,7.3,8.6,6.8C8.9,7,9.1,7.1,8.8,7.5C8.7,7.7,8.8,8,8.8,8.3z"/>
	<path d="M12,21.3c-0.2-0.4-0.4-0.8-0.4-1.3c0.2,0,0.4,0,0.6,0.1c-0.1,0.2-0.2,0.4-0.3,0.4C12,20.9,12,21.1,12,21.3L12,21.3z"/>
	<path d="M11.8,9.4c0.1,0.1,0.1,0.1,0.2,0.2l0,0c-0.2,0.1-0.2,0.3-0.1,0.5c0.1,0.1,0.1,0.3,0.2,0.4c-0.2,0-0.4,0-0.6,0.1
		C11.5,10.2,11.4,9.7,11.8,9.4L11.8,9.4z"/>
	<path d="M5.2,16.2c0.4-0.3,0.9-0.1,1.4,0C6.1,16.7,5.6,16.4,5.2,16.2L5.2,16.2z"/>
	<path d="M12.8,22.6c0-0.2,0-0.5,0-0.7c0.1,0,0.3,0,0.4,0.1c-0.1,0.4,0,0.7-0.4,1l0,0C12.9,22.8,12.8,22.7,12.8,22.6L12.8,22.6z"/>
	<path d="M12.6,21.1c0.1-0.3,0.2-0.6,0.3-0.9c0,0,0.1,0,0.1,0c0,0.3,0.1,0.5,0.1,0.8C12.8,21.1,12.7,21.1,12.6,21.1L12.6,21.1z"/>
	<path d="M13.5,19.9c0.1,0.2,0.2,0.4,0.2,0.7c0,0.1-0.1,0.2-0.2,0.3C13.3,20.6,13.4,20.3,13.5,19.9L13.5,19.9z"/>
	<path d="M13.4,7.8c-0.5,0.1-0.5,0.1-0.6-0.4C13,7.5,13.2,7.7,13.4,7.8z"/>
	<path d="M13.5,19.9c-0.2-0.2-0.4-0.4-0.4-0.9C13.4,19.4,13.5,19.6,13.5,19.9L13.5,19.9z"/>
	<path d="M7.3,16.6C7,16.7,7,16.7,6.7,16.5C6.9,16.3,7.1,16.6,7.3,16.6L7.3,16.6z"/>
	<path d="M13.6,21.3c-0.2,0.4-0.3,0.3-0.6,0.1C13.2,21.4,13.3,21.3,13.6,21.3z"/>
	<path d="M5.2,16.2c-0.3,0.1-0.5,0-0.6-0.2l0,0C4.8,15.9,5,16,5.2,16.2L5.2,16.2z"/>
	<path d="M9,6.3c0.1,0.1,0.2,0.1,0.4,0.2C9,6.6,9,6.6,9,6.3L9,6.3z"/>
	<path d="M7.8,16.2c-0.2,0.1-0.4,0.3-0.5,0.4c0,0,0,0,0,0C7.4,16.1,7.4,16.1,7.8,16.2C7.8,16.2,7.8,16.2,7.8,16.2z"/>
	<path d="M12,21.3c0.1,0.2,0.2,0.3,0.3,0.5C12,21.7,12,21.6,12,21.3L12,21.3z"/>
	<path d="M13.8,8.5c-0.1,0-0.2,0.1-0.4,0.1c0-0.1,0-0.2,0-0.3C13.6,8.4,13.7,8.5,13.8,8.5L13.8,8.5z"/>
	<path d="M10.1,9.2C10.1,9.1,10,9.1,10.1,9.2c-0.1-0.1,0-0.1,0-0.2C10.1,9,10.1,9.1,10.1,9.2C10.2,9.1,10.1,9.1,10.1,9.2z"/>
	<path d="M6.1,14.9c0,0,0,0.1,0,0.1c0,0-0.1,0-0.1,0c0,0,0-0.1,0-0.1C6,14.9,6.1,14.9,6.1,14.9z"/>
	<path d="M13.6,22.1c0,0.1,0.1,0.2,0.1,0.3C13.5,22.4,13.6,22.3,13.6,22.1L13.6,22.1z"/>
	<path d="M10.5,10.8c-0.1,0-0.1,0.1-0.2,0.1c0,0,0,0-0.1-0.1c0.1,0,0.1-0.1,0.2-0.1C10.4,10.7,10.5,10.8,10.5,10.8z"/>
	<path d="M17.2,19.4c0-0.1-0.1-0.2-0.1-0.3C17.4,19.2,17.3,19.3,17.2,19.4L17.2,19.4z"/>
	<path d="M8.7,22.2C8.8,22.1,8.9,22,9,21.8C9,22.1,9,22.2,9,22.3l0,0C8.9,22.3,8.8,22.3,8.7,22.2L8.7,22.2z"/>
	<path d="M8.5,24.2c-0.2,0.1-0.2-0.1-0.3-0.3C8.4,24,8.5,24.1,8.5,24.2C8.5,24.2,8.5,24.2,8.5,24.2z"/>
	<path d="M12.5,21.1c0,0.1,0.1,0.2,0.1,0.3c0,0-0.1,0-0.1,0C12.6,21.3,12.6,21.2,12.5,21.1L12.5,21.1z"/>
	<path d="M12.3,20.7C12.3,20.7,12.4,20.7,12.3,20.7c0.1,0,0.1,0.1,0.1,0.1c0,0,0,0-0.1,0C12.3,20.8,12.3,20.7,12.3,20.7z"/>
	<path d="M11.8,11.1C11.8,11,11.8,11,11.8,11.1c0.1,0,0.1,0,0.1,0c0,0,0,0,0,0.1C11.9,11.1,11.9,11.1,11.8,11.1z"/>
	<path d="M18.5,18.9c-0.1-0.1-0.1-0.1-0.2-0.2l0,0C18.4,18.8,18.5,18.9,18.5,18.9L18.5,18.9z"/>
	<path d="M11,9.6c0,0.1,0,0.2,0.1,0.3c0,0,0,0,0,0C11,9.8,11,9.7,11,9.6C11,9.6,11,9.6,11,9.6z"/>
	<path d="M13.7,22.1C13.6,22.1,13.6,22.1,13.7,22.1C13.6,22.1,13.6,22.1,13.7,22.1L13.7,22.1z"/>
	<path d="M4.3,15.9c0.1,0,0.2,0.1,0.3,0.1l0,0C4.4,16,4.4,16,4.3,15.9L4.3,15.9z"/>
	<path d="M9.4,22.3C9.4,22.3,9.4,22.4,9.4,22.3C9.4,22.4,9.4,22.3,9.4,22.3L9.4,22.3z"/>
	<path d="M2.8,12.5c0.1,0.1,0.1,0.1,0.2,0.2c0,0,0,0,0,0C3,12.6,2.9,12.6,2.8,12.5C2.8,12.5,2.8,12.5,2.8,12.5z"/>
	<path d="M8.1,23.2L8.1,23.2L8.1,23.2z"/>
	<path d="M8.7,23.9c0,0.1,0,0.1,0,0.2l0,0C8.7,24,8.7,24,8.7,23.9L8.7,23.9z"/>
	<path d="M8.5,24.2c0,0,0.1-0.1,0.1-0.1c0,0,0,0,0,0C8.6,24.1,8.6,24.2,8.5,24.2C8.5,24.2,8.5,24.2,8.5,24.2z"/>
	<path d="M12.7,6.6L12.7,6.6L12.7,6.6z"/>
	<path d="M15.6,16.2L15.6,16.2L15.6,16.2z"/>
	<path d="M10.2,20.4c0,0.1,0,0.1,0,0.2l0,0C10.2,20.6,10.2,20.5,10.2,20.4L10.2,20.4z"/>
	<path d="M10.2,20.6c0,0.1,0,0.1,0,0.2l0,0C10.1,20.7,10.2,20.7,10.2,20.6L10.2,20.6z"/>
	<path d="M13.2,25.7c0-0.1,0-0.1,0-0.2l0,0C13.2,25.5,13.2,25.6,13.2,25.7L13.2,25.7z"/>
	<polygon points="15,6.6 15,6.6 15,6.6 	"/>
	<path d="M7.8,16.8L7.8,16.8L7.8,16.8z"/>
	<path d="M13.5,24.1C13.5,24.1,13.5,24.1,13.5,24.1C13.5,24.1,13.5,24.1,13.5,24.1C13.4,24.1,13.4,24.1,13.5,24.1
		C13.4,24.1,13.5,24.1,13.5,24.1z"/>
</g>
</svg>
