<?xml version="1.0" encoding="utf-8"?>
<!-- Generator: Adobe Illustrator 18.1.1, SVG Export Plug-In . SVG Version: 6.00 Build 0)  -->
<svg version="1.1" id="Layer_1" xmlns="http://www.w3.org/2000/svg" xmlns:xlink="http://www.w3.org/1999/xlink" x="0px" y="0px"
	 viewBox="0 0 401.4 92.4" enable-background="new 0 0 401.4 92.4" xml:space="preserve">
<g>
	<path d="M45,91c-0.7,0.7-1,1.5-1.9,1.5c-0.7-0.2-0.5-1-0.9-1.3c-0.4,0.2-0.7,0.6-1.2,0.7c-0.4,0.1-0.8-0.1-1.3-0.1
		c-0.4-0.1-0.8-0.2-1.2-0.2c-0.3-0.3-0.6-0.7-0.9-1c-1.2,0.3-2.5,0.5-3.6-0.1c-0.6-0.3-1.3-0.7-1.4-1.5c0.2-1.6,0.4-3.2,0.1-4.8
		c-0.1-0.6-0.1-1.2-0.1-1.8c0-0.4-0.1-0.8-0.1-1.1c-0.1-0.7-0.2-1.5-0.2-2.2c0-1.8-0.2-3.7-0.5-5.5c-0.2-1.2-0.3-2.4-0.3-3.5
		c-0.1-2.6-0.4-5.3-0.7-7.9c-0.1-1.2-0.3-2.4-0.5-3.7c-0.6-0.1-1.1,0-1.6,0.2c-3.3,1.4-6.8,1.8-10.3,2c-0.6,0-1.3,0.1-1.9,0.1
		c-0.2,0-0.4,0.1-0.7,0.2c-1.4,4.5-2.8,8.9-4,13.5c-0.6,0.7-1.2,1.4-2,1.8c-0.8-0.1-0.7-1-1.2-1.3c-0.4,0.1-0.8,0.3-1.1,0.4
		c-1.5,0-2.4-0.9-3.1-2C2.5,73.3,1,72.7,0,71.2c0.1-0.4,0.1-0.7,0.2-1c0.9-1.5,1.2-3.1,1.8-4.7c0.2-0.5,0.3-0.9,0.5-1.4
		c0.9-1.8,1.5-3.7,2.1-5.5c0.2-0.7,0.4-1.5,0.5-2.2c0.3-1.5,0.7-2.9,1.5-4.2c0.1-0.2,0.1-0.4,0.2-0.6C7,51,7.1,50.5,7.3,50
		c0.2-0.6,0.5-1.2,0.4-1.9c0-0.2,0.1-0.3,0.1-0.5c0.3-0.9,0.7-1.7,1-2.5c0.2-0.8,0.4-1.7,0.5-2.5c0.1-0.3,0.3-0.6,0.4-0.9
		c0.1-0.2,0.3-0.5,0.4-0.7c0.4-2,1.4-3.7,2-5.7c0-0.2,0.2-0.3,0.2-0.5c0.1-2.1,1.3-4,1.5-6.1c0-0.3,0.1-0.6,0.2-0.8
		c0.8-1.5,1.2-3.1,1.6-4.7c0.6-2.1,1.6-4.1,2.4-6.2c0.4-0.9,0.7-1.8,1.1-2.7c1-2.3,2.1-4.6,3.6-6.7c0.3-0.4,0.7-0.7,1-1.1
		c0.5-1.5-0.1-3.2,0.8-4.8c0.4-0.4,0.8-0.8,1.2-1.2c0.8-0.3,1.3,0.1,1.7,0.4c1.3-0.3,2.5-0.6,3.9-1c0.2,0.3,0.4,0.7,0.5,0.8
		c0.8,0,1.4,0.1,1.9,0.1c0.7,0.4,1,1,1,1.8c0,1.8,0.3,3.5,0.6,5.3c0.4,2.4,0.6,4.9,0.8,7.4c0.3,2.4,0.6,4.8,0.9,7.2
		c0.3,2.7,0.7,5.5,1,8.2c0.3,2.3,0.4,4.5,0.8,6.8c0.4,2.4,0.6,4.8,1,7.2c0.2,1.4,0.3,2.8,0.5,4.2c0.2,1.3,0.2,2.7,1,3.8
		c0,0.2,0.1,0.3,0.1,0.4c-0.2,1.6-0.2,3.2,0.2,4.8c0.1,0.6,0.1,1.2,0.1,1.8c0,0.5,0,1.1,0.2,1.6c0.5,1.5,0.4,3.1,0.7,4.6
		c0.2,1.5,0.3,3,0.4,4.5c0.2,1.8,0.4,3.7,0.6,5.5c0.1,1.2,0.2,2.4,0.4,3.5c0.5,3.2,0.5,6.5,1.1,9.7C45.1,89.8,45,90.4,45,91z
		 M32.2,38.5c0-0.1,0-0.3,0-0.1C32.1,38.3,32.2,38.4,32.2,38.5l0.1,0L32.2,38.5z M7.3,64.5C7.2,64.6,7.2,64.6,7.3,64.5
		C7.2,64.6,7.2,64.5,7.3,64.5c0-0.1,0.1-0.2,0-0.1C7.3,64.3,7.3,64.4,7.3,64.5z M16.6,34.6c0.3-0.2,0.3-0.4,0.1-0.8
		C16.7,34.2,16.7,34.4,16.6,34.6c-0.5,0.4-0.5,0.9-0.5,1.5C16.7,35.7,16.7,35.2,16.6,34.6z M19.6,24.9c-0.1,0.5-0.2,0.9-0.3,1.4
		c-0.7,1-1.2,2.7-1.3,4.2c-0.7,0.8-0.8,1.7-0.9,3c0.6-1.2,1-2.1,0.8-3.1c0.8-1.3,1.1-2.7,1.3-4.2C19.6,25.8,19.5,25.3,19.6,24.9
		c0.5-0.3,0.6-0.8,0.6-1.4C19.6,23.9,19.6,24.4,19.6,24.9z M31.6,33.4c0,0.6,0.1,1.3,0.1,1.9c0.2-0.5,0.2-1,0.2-1.5
		C31.8,33.6,31.6,33.5,31.6,33.4c0-0.3,0.3-0.7-0.2-1C31.2,32.7,31.3,33.1,31.6,33.4z M15.7,37.6c0.1-0.2,0.4-0.4,0-0.8
		C15.7,37.1,15.7,37.4,15.7,37.6c-0.7,0.9-0.7,1.9-0.9,2.9C15.3,39.6,15.7,38.6,15.7,37.6z M11.5,51.5c-0.2,0.1-0.4,0.2-0.1,0.4
		C11.4,51.8,11.4,51.6,11.5,51.5c0-0.1,0.1-0.1,0.1-0.1c0.5-1.4,0.9-2.7,1.4-4.1c0,0-0.1-0.1-0.2-0.2C11.9,48.8,11.6,50.1,11.5,51.5
		z M26.5,26.6c-0.2,0.3-0.3,0.4-0.4,0.6c-0.2,0.7-0.5,1.3-0.7,2c-1.1,3.6-2.2,7.1-3.3,10.7c-1.3,4.2-2.5,8.4-3.8,12.6
		c-0.1,0.3-0.2,0.5,0.2,0.8c1.1-0.3,2.3-0.6,3.5-0.9c1.2-0.3,2.4-0.5,3.6-0.9c1.2-0.4,2.4-0.4,3.6-1.1c0-0.5,0-0.9-0.1-1.3
		c-0.3-1.4-0.6-2.7-0.5-4.2c0-0.2,0.1-0.5,0-0.6c-0.4-0.9-0.2-1.8-0.2-2.7c0-0.6,0-1.2-0.1-1.8c-0.6-3.1-0.8-6.3-1-9.4
		C27.2,29.1,27,27.9,26.5,26.6z M14.6,41.3c-0.7,1.3-1.2,2.8-1.2,4.2c0.5-1.5,0.9-2.6,1.3-3.7C14.7,41.7,14.6,41.5,14.6,41.3z
		 M32.4,39.4c-0.1,1-0.1,1,0.4,1.1C32.6,40.2,32.5,39.8,32.4,39.4z M31.1,28.9C31.1,28.9,31.1,28.9,31.1,28.9
		C31,29.3,31,29.7,31,30.1c0,0,0.1,0,0.1,0C31.1,29.7,31.1,29.3,31.1,28.9z M35,59C35,59.1,35,59.1,35,59C35,59.5,35,59.9,35,60.3
		c0.1,0,0.1,0,0.2,0C35.1,59.9,35.1,59.5,35,59z M35.7,64.1c0,0-0.1,0-0.1,0c0,0.3,0,0.7,0,1c0,0,0.1,0,0.1,0
		C35.7,64.8,35.7,64.5,35.7,64.1z M33.4,46.3c-0.1,0-0.1,0-0.2,0c0,0.3,0.1,0.6,0.1,1c0,0,0,0,0.1,0C33.4,46.9,33.4,46.6,33.4,46.3z
		 M36.7,73.6C36.6,73.6,36.6,73.6,36.7,73.6c-0.1,0.3-0.1,0.6-0.1,0.9c0,0,0.1,0,0.1,0C36.7,74.3,36.7,74,36.7,73.6z M35.3,63.2
		c0.3-0.2,0.1-0.4,0-0.7C35.3,62.8,35.3,63,35.3,63.2z M34.6,58.1C34.7,58.1,34.7,58.1,34.6,58.1c0.1-0.2,0.1-0.5,0.1-0.7
		c0,0-0.1,0-0.1,0C34.6,57.6,34.6,57.8,34.6,58.1z M20,39c0.1-0.2,0.1-0.3,0.1-0.3c0-0.1,0-0.2-0.1-0.2C20,38.6,20,38.7,20,39z
		 M36.2,72.2c0.1-0.2,0.1-0.3,0.1-0.3c0-0.1,0-0.1-0.1-0.2C36.3,71.8,36.3,71.9,36.2,72.2z M32.7,41.8c0,0,0.1,0,0.1,0
		c0-0.1,0-0.3,0-0.4c0,0,0,0-0.1,0C32.7,41.5,32.7,41.6,32.7,41.8z M33.1,44.2C33,44.4,33,44.4,33,44.5c0,0.1,0.1,0.1,0.1,0.2
		C33.1,44.6,33.1,44.4,33.1,44.2z M7.8,62.9c0,0,0-0.1-0.1-0.1c0,0-0.1,0.1-0.1,0.1c0,0.1,0.1,0.1,0.1,0.2C7.8,63,7.8,62.9,7.8,62.9
		z M8.1,62c0,0,0-0.1,0-0.1C8.1,61.9,8,61.9,8.1,62C8,62,8,62,8.1,62z M9,59c0,0,0,0.1,0,0.1C9,59.1,9,59.1,9,59
		C9.1,59,9,58.9,9,58.9C9,58.9,9,59,9,59z M11,53c0,0,0-0.1,0-0.1c0,0-0.1,0-0.1,0C10.9,52.9,10.9,52.9,11,53C10.9,53,11,52.9,11,53
		z M12.9,46.4c0,0,0.1,0,0.1,0c0,0,0-0.1,0-0.1c0,0-0.1,0-0.1,0C12.9,46.3,12.9,46.4,12.9,46.4z M16.5,50.5L16.5,50.5l0,0.1
		L16.5,50.5z M32,36.2c0,0,0,0.1,0,0.1c0,0,0,0,0.1,0C32.1,36.3,32.1,36.2,32,36.2C32.1,36.2,32,36.2,32,36.2z M23.3,28.3
		c0,0,0-0.1,0-0.1c0,0,0,0-0.1,0C23.3,28.1,23.3,28.2,23.3,28.3C23.3,28.2,23.3,28.2,23.3,28.3z M19.5,40.8L19.5,40.8l-0.1,0.1
		L19.5,40.8z M21,20.6l0,0.1L21,20.6L21,20.6z"/>
	<path d="M116.7,25.2c0,0.4,0.1,0.8,0.1,1.4c0.4-0.2,0.8-0.3,1.2-0.5c0.3,0.1,0.7,0.3,1.1,0.5c0.2,0.4,0.3,0.7,0.5,1.1
		c-0.1,0.4-0.1,0.7-0.2,1.1c-0.2,0.5-0.2,1-0.2,1.6c0.3,5.9,0.5,11.8,0.3,17.7c-0.1,3.1,0,6.2,0,9.2c0,1.5-0.1,3-0.1,4.5
		c0,1.7,0,3.3,0,5c0,3.6,0,7.1,0.2,10.7c0.1,0.9,0,1.8,0,2.8c0,0.8,0,1.6,0.2,2.4c0.2,0.7,0.1,1.5-0.2,2.2c-0.4,0.3-0.8,0.6-1.2,0.9
		c-0.9-0.3-0.8-1.2-1.1-2c-0.2,0-0.5,0-0.7,0.2c-0.3,0.2-0.6,0.5-0.8,0.7c-1.4,0-1.5-0.1-2.6-1.3c-0.2,0-0.5,0.1-0.7,0.1
		c-0.3,0-0.5,0.1-0.8,0.1c-1.2-0.3-2.3-0.5-3.4-1.2c-0.5-0.7-0.6-1.5-0.6-2.4c0.1-1.2,0-2.4,0.3-3.5c0.1-0.2,0-0.5,0-0.8
		c0-0.5-0.1-1-0.1-1.4c0-1.4,0.3-2.8,0-4.2c0.2-2.7-0.1-5.5,0.5-8.2c0.1-0.3,0.1-0.7,0-1c-0.1-0.5-0.2-1,0-1.6
		c0.1-0.2-0.1-0.5-0.2-0.8l0,0c0.1-0.2,0.3-0.5,0.3-0.7c0-0.8-0.3-1.6-0.2-2.4c0.1-0.8,0.1-1.5,0.1-2.2c0-0.9-0.1-1.8,0.1-2.7
		c-0.2-0.2-0.4-0.3-0.5-0.4c-0.2,0.1-0.3,0.1-0.3,0.2c-0.3,0.6-0.6,1.1-1,1.7c-0.8,1.3-1.7,2.7-2.5,4c-0.4,0.6-0.7,1.3-1.2,2.2
		c-0.3,0.2-0.8,0.5-1.3,0.8c-0.4-0.3-0.7-0.6-1-1c-0.4,0.1-0.8,0.2-1.5,0.4c-0.9-0.3-1.9-0.6-3-1c-0.3,0.1-0.8,0.2-1.1,0.2
		c-1.9-0.7-3.3-1.9-4.6-3.6c-0.1,0.4-0.3,0.7-0.3,1c-0.4,2.3-0.7,4.7-1,7.1c-0.4,3.1-1.1,6.1-1.8,9c-0.3,1.3-0.6,2.5-0.9,3.8
		c-0.1,0.3-0.1,0.5-0.1,0.8c0,0.6,0.1,1.3,0.1,1.8c-1.4,1.8-2,1.9-3.5,0.7c-0.5,0.2-0.9,0.4-1.4,0.7c-1.1,0-2-0.5-2.6-1.4
		c-1-0.1-2-0.2-2.8-0.8c-0.9-0.7-1.8-1.4-2.1-2.6c-0.2-0.8-0.2-1.6,0-2.4c1-3.4,1.9-6.9,2.6-10.4c0.5-2.6,1-5.3,1.4-8
		c0.3-1.8,0.3-3.6,0.5-5.5c0.1-1.3,0.3-2.6,0.4-3.9c0.5-4.5,0.8-9,0.7-13.6c0-0.5-0.1-1.1-0.2-1.6c-0.1-0.7-0.1-0.7,0.4-1.8
		c0.6-0.1,1.3-0.2,2.1-0.4c-0.1-0.8-0.1-1.5,0.5-2.2c0.6-0.5,1.5-0.5,2.4-0.8c0.3,0.1,0.6,0.3,0.9,0.4c0.4,0.1,0.7,0.3,1.1,0.3
		c1.1,0,2.1,0,3.2,0c0.2,0.7,0.9,0.9,1.5,1c1,0.1,1.5,0.7,1.7,1.7c0.2,0.9,0.6,1.7,1,2.6c1.6,3.9,2.9,7.8,3.8,11.9
		c0.1,0.3,0.1,0.6,0.6,0.7c0.9-1.3,1.4-2.8,2.1-4.3c0.7-1.4,1.4-2.8,2-4.2c0.7-1.5,1.3-3,2-4.5c0.9-0.3,2-0.5,3.1-0.5
		c0.3-0.3,0.5-0.6,0.7-0.8c-0.1-0.2-0.1-0.4-0.2-0.5c-0.4-0.5-0.6-1-0.6-1.7c0.6-1.1,1.4-1.5,2.8-1.3c0.9,0.2,1.9,0.2,2.8,0.7
		c0.3,0.1,0.7,0.2,0.9,0.1C114.8,25,115.8,25.2,116.7,25.2C116.7,25.3,116.7,25.2,116.7,25.2z M117.3,71.7c0,0-0.1,0-0.1,0
		c0,0,0,0.1,0,0.1C117.2,71.7,117.3,71.7,117.3,71.7c0.1-0.3,0.2-0.5,0.2-0.8c0.1-0.8,0.1-1.6,0.1-2.4c-0.1-2.3,0.3-4.6,0.1-6.9
		c-0.1-0.5,0-1.1,0-1.6c0.1-1.4,0.2-2.8,0.1-4.2c-0.1-1.4-0.2-2.9,0-4.3c0.2-1.6,0-3.2,0-4.8c0.1-1.7-0.1-3.3-0.2-5c0-1-0.1-2-0.1-3
		c-0.2,0.5-0.4,1-0.4,1.6c0,0.3,0,0.5,0,0.8c0.2,1.6,0.1,3.1,0,4.6c-0.1,2,0,4.1,0,6.1c0,1.6,0.3,3.2,0,4.8c-0.1,0.7-0.1,1.5,0,2.2
		c0.1,0.9,0.1,1.8-0.6,2.5c0.2,0.1,0.4,0.2,0.5,0.2c0,1.6,0,3.2,0,4.8c0,0.4,0.2,0.7,0.1,1.1C117,68.8,117,70.2,117.3,71.7z
		 M117.2,73.1c-0.1,0.8-0.4,1.6,0,2.7C117.2,74.6,117.2,73.9,117.2,73.1z M116.5,54.4c0,1,0,1.6,0,2.2
		C116.7,56.1,116.7,55.4,116.5,54.4z M108.3,49.5L108.3,49.5l-0.1-0.1L108.3,49.5z"/>
	<path d="M327.6,15.1c0.1-0.1,0.4-0.2,0.7-0.4c0.2,0.1,0.5,0.1,0.6,0.2c0.8,0.7,1.6,0.7,2.6,0.6c3.1-0.2,6.3-0.3,9.4,0
		c3.4,0.3,6.7,1.1,10,1.9c2.2,0.6,4.2,1.5,5.9,3c0.9,0.7,1.8,1.4,2.6,2.2c1.2,1.3,1.4,2.7,0.9,4.4c-0.6,1.5-1.4,2.9-2.7,4
		c-2.6,2.3-5.3,4.4-8.1,6.4c-2.3,1.7-4.6,3.3-7,5c-0.9,0.7-1.9,1.2-2.8,1.9c-0.2,0.1-0.3,0.3-0.5,0.5c0.4,0.6,1,1.1,1.5,1.5
		c1.3,1.2,2.5,2.3,3.7,3.6c1,1.1,2,2.3,3,3.4c1.4,1.5,2.6,3.1,3.7,4.9c0.7,1.1,1.5,2.1,2.3,3.1c1.3,1.7,2.5,3.5,3.8,5.3
		c0.9,1.3,1.9,2.6,2.9,3.9c0.2,0.2,0.4,0.4,0.5,0.5c0.9,0.3,1.5-0.6,2.4-0.1c0.1,0.3,0.2,0.7,0.4,1c0,0.7-0.7,1.2-0.1,2
		c0.3-0.1,0.6-0.3,1-0.4c0.6,0.3,0.9,0.8,0.7,1.6c-0.1,0.3-0.1,0.6-0.1,1.1c-0.4,0.7-0.7,1.4-1.2,2.2c-0.6,1-1.2,1.1-2.2,0.4
		c-0.3-0.2-0.6-0.5-0.9-0.8c-0.5,0.1-0.9,0.1-1.5,0.2c-1.2-0.9-2.5-1.8-3.8-2.7c-0.2-0.2-0.4-0.3-0.6-0.5c-1.4-1.7-2.8-3.5-4-5.3
		c-3.4-5-6.9-10-10.6-14.7c-0.7-0.8-1.4-1.6-2-2.5c-0.7-0.9-1.6-1.6-2.4-2.4c-0.1-0.1-0.2,0-0.4,0c0,0.3-0.1,0.6,0,0.9
		c0.3,2.1,0.6,4.2,0.9,6.3c0.5,3.1,1,6.2,1.8,9.2c0.7,2.8,1.5,5.6,2.5,8.4c0.4,1,0.4,2-0.2,3c-0.9,0.6-1.8,0.6-2.6-0.4
		c-0.3,0.1-0.6,0.1-0.8,0.2c-1.2,0.2-2.2-0.3-3-1.2c-0.3-0.4-0.7-0.6-1.1-0.8c-1.5-0.6-2.6-1.7-3.3-3.2c-0.4-0.9-0.8-1.8-1.1-2.7
		c-0.2-0.6-0.4-1.1-0.6-1.7c-0.6-1.6-1.1-3.2-1.4-4.8c-0.4-1.8-0.9-3.7-1.3-5.5c-0.3-1.2-0.4-2.4-0.6-3.7c-0.3-1.9-0.6-3.7-0.8-5.6
		c-0.3-2.1-0.4-4.3-0.6-6.4c-0.1-1.7-0.1-3.3-0.5-5c-0.1-0.4,0-0.8-0.1-1.1c-0.1-1,0.1-2-0.2-3c-0.2-0.5,0.2-0.9,0.1-1.4
		c-0.3-0.9-0.4-1.8-0.5-2.7c-0.1-0.7-0.2-1.5-0.3-2.2c-0.1-0.4-0.2-0.7-0.3-1.1c-1.5-0.7-3-1.4-3.6-2.9c-0.6-0.5-1.4-0.7-1.8-1.5
		c0.1-0.4,0.3-0.9,0.4-1.4c1-0.9,2.3-1.1,3.4-1.8c0-0.5-0.2-1.1-0.1-1.6c0-0.8,0.5-1.2,1.3-1.2c0.8,0.1,1.6,0.3,2.5,0.4
		C324.4,15.1,325.9,15.5,327.6,15.1z M349.7,24.5c0.3-0.7,0-1.3-0.7-1.7c-1.2-0.6-2.4-0.8-3.7-1c-3.9-0.5-7.8-0.1-11.6,0.6
		c-0.5,0.1-1.1,0.2-1.5,0.7c0.2,1.4,0.4,2.9,0.6,4.4c0.2,1.4,0.3,2.9,0.6,4.3c0.3,1.5,0.1,3,0.6,4.5c0.8-0.4,1.4-0.9,2.1-1.4
		c0.7-0.6,1.4-1.2,2.2-1.7c1.1-0.8,2.2-1.5,3.2-2.4c2-1.6,4-3.1,6-4.7C348.1,25.8,348.8,25.2,349.7,24.5z"/>
	<path d="M257.9,49.3c0.6-0.6,0.6-1.1,0.6-1.6c0-0.8,0-1.6,0.1-2.4c0.2-3.9,0.7-7.8,0.7-11.8c0-1.3,0.2-2.6,0.3-3.9
		c0-0.2,0-0.3,0.1-0.5c0.6-1.1,1.1-2.2,1.6-3.2c1.1-0.6,2-1.4,3-0.6c1.4-0.3,2.6-0.6,3.8-0.9c0.7,1.1,1.8,1.1,2.8,1.4
		c0.5,0.4,0.6,0.9,0.6,1.4c0,0.4,0,0.8-0.1,1.1c-0.2,1.3-0.2,2.6-0.3,3.9c-0.1,2.8-0.3,5.6-0.5,8.4c-0.2,2.4-0.4,4.8-0.5,7.3
		c0,0.5,0,1,0,1.5c0.4,0.2,0.9,0.4,1.3,0.5c0.5,0.2,1.1,0.5,1.6,0.8c0.9,0.5,1,1.4,0.4,2.2c-0.4,0.5-0.9,0.8-1.5,0.9
		c-0.4,0-0.8,0.1-1.1,0.2c-0.3,0.1-0.7,0.3-0.9,0.4c-0.1,0.2-0.2,0.3-0.2,0.4c-0.2,2.3-0.3,4.6-0.4,7c-0.1,1.5-0.2,2.9-0.2,4.4
		c-0.1,2.6-0.2,5.2,0.1,7.8c0,0.3,0,0.7-0.2,0.9c-0.5,0.7-0.8,1.5-1.7,2c-0.2-0.2-0.4-0.5-0.7-0.7c-0.2-0.2-0.4-0.5-0.6-0.8
		c-0.4,0.2-0.7,0.4-1.1,0.4c-0.6,0.1-1.3,0-2,0c-0.3-0.4-0.7-0.8-1.1-1.2c-0.5,0.1-1,0.3-1.4,0.4c-0.6-0.2-1.3-0.4-1.9-0.5
		c-1.1-0.1-1.7-0.7-2.2-1.7c0.7-1.3,0.6-2.7,0.7-4.1c0-1.3,0-2.7,0.1-4c0.1-1.8,0.3-3.7,0.5-5.5c0.1-0.7,0.2-1.4,0.2-2.1
		c0-0.2-0.1-0.5-0.2-0.8c-1.3-0.2-2.5,0.3-3.7,0.3c-1.3,0-2.6,0.3-3.9,0.4c-1.2,0.1-2.5,0.2-3.8,0.3c-0.1,0.3-0.2,0.5-0.2,0.7
		c0,3.7-0.1,7.5,0,11.2c0,0.7,0.3,1.3,0.5,2.1c-0.1,1.1-0.2,2.3-0.3,3.5c-0.5,0.6-1,1.2-1.9,1.5c-0.4-0.3-0.8-0.7-1.2-1.1
		c-0.9-0.1-1.9,0.3-2.9,0c-0.4-0.3-0.8-0.6-1.3-1c-1.2,0.1-2.4-0.1-3.6-0.6c-0.9-0.6-1.1-1.5-1-2.5c0.1-1.3,0-2.7,0-4
		c0-1.4,0-2.7,0-4.1c0-0.2,0-0.4,0-0.6c0.2-1.2,0.1-2.5,0.2-3.7c0.1-1.9,0.1-3.9,0.1-5.8c0-0.2,0-0.3,0-0.5c0.1-0.8,0.2-1.6,0-2.4
		c-0.1-0.3,0-0.7,0-1c0.3-1.7,0.2-3.4,0.2-5.2c0-0.3,0-0.5,0.1-0.8c0-0.2,0.1-0.4,0.1-0.6c0-1.1-0.2-2.2,0.1-3.4
		c0.3-1,0-2.1,0.1-3.2c0-1.6,0.1-3.2,0.2-4.8c0-0.2,0-0.3,0-0.5c-0.3-1.5,0.1-3,0-4.5c-0.1-0.7,0.1-1.4,0.4-2.1
		c0.3-0.7,0.8-1.1,1.5-1.4c0.5-0.2,1-0.3,1.6-0.4c1.1,0.6,2.1,0.7,3.2,0.2c0.3-0.2,0.7-0.1,1.2-0.2c0.4,0.5,1,0.8,1.6,0.9
		c1.3,0.4,1.5,0.6,1.5,1.9c0,1.9,0,3.8-0.1,5.7c0,1.8-0.1,3.7,0,5.5c0.1,1.9,0,3.8,0,5.7c-0.1,2.2-0.1,4.3-0.1,6.5
		c0,0.7,0,1.5,0,2.3c0.8,0.3,1.6,0.1,2.4,0c1.5-0.2,3.1-0.5,4.6-0.8c1.1-0.2,2.1-0.2,3.2-0.3C257,49.5,257.5,49.4,257.9,49.3z
		 M267.1,57.7c0,0,0,0.1,0,0.1c0,0,0.1-0.1,0.1-0.1c0,0,0-0.1,0-0.1C267.2,57.6,267.1,57.6,267.1,57.7z M267.1,59.7L267.1,59.7
		l0-0.1L267.1,59.7z M267.9,46.4c0,0,0-0.1,0-0.1c0,0-0.1,0-0.1,0C267.8,46.3,267.8,46.3,267.9,46.4
		C267.8,46.4,267.9,46.4,267.9,46.4z M268.2,43.4L268.2,43.4l0,0.1L268.2,43.4z"/>
	<path d="M180,80.4c-2.1,1.1-4.4,1.8-6.7,2.1c-1.7,0.2-3.3,0.2-4.9-0.6c-0.1-0.1-0.3-0.1-0.4-0.2c-1.9-0.7-3.9-1.3-5.8-2
		c-1.8-0.6-3.1-1.7-4.4-2.9c-0.7-0.7-0.9-1.6-0.8-2.6c0.1-0.5,0.2-0.9,0.3-1.5c1.2-0.8,2.4-1.7,3.6-2.6c0.3,0.1,0.5,0.1,0.8,0.2
		c0,0.6,0.1,1.2,0.2,1.9c0.5-0.3,0.5-0.8,0.8-1c0.3-0.3,0.7-0.6,1-0.9c0.4,0,0.9-0.1,1.4-0.1c0.2,0.2,0.4,0.3,0.6,0.5
		c0.1,0.3,0.1,0.6,0.2,0.9c0.2-0.1,0.3-0.2,0.4-0.3c0.8,0.2-0.1,1,0.4,1.3c0.4,0,0.3-0.4,0.6-0.6c0.2,0,0.6,0,0.9,0
		c0.1,0.1,0.2,0.3,0.2,0.4c0,0.7-0.1,1.5-0.1,2.2c0,0.2,0.1,0.5,0.1,0.8c2-0.4,3.7-1.1,5.2-2.3c0.8-0.6,1.5-1.3,2.1-2
		c0.7-0.8,1.3-1.7,1.6-2.8c0.5-1.7,0.8-3.5,0.3-5.3c-0.2-0.8-0.3-1.7-0.6-2.5c-0.8-2-1.9-3.9-3.3-5.5c-0.9-1.1-1.9-2.1-2.9-3
		c-0.7-0.6-1.4-1.2-2.2-1.7c-1.6-1.1-3.3-2.1-5-3c-1.6-0.8-3-1.8-4.5-2.8c-0.5-0.4-1-0.9-1.4-1.4c-1.3-1.5-2.5-3.1-3.3-4.9
		c-0.5-1.1-1-2.3-1-3.5c-0.1-1.6,0.2-3.2,0.7-4.8c0.1-0.2,0.2-0.5,0.4-0.7c1.2-1.3,2.5-2.4,4.2-3c0.3-0.1,0.6-0.1,1-0.2
		c1.2-0.1,2.5-0.3,3.7-0.2c1.4,0.1,2.9,0.2,4.3,0.4c0.5,0.1,1,0.4,1.5,0.6c0.3,0.1,0.6,0.3,1,0.4c0.2-0.5,0.4-0.9,0.5-1.3
		c0.4-1.9,0.7-3.8,1-5.7c0.3-1.6,0.2-1.6,1.5-2.8c0.8-0.2,1.6-0.4,2.4-0.5c0.7,0.4,1.3,0.8,2,1.3c1.4-0.8,2.7-0.5,3.8,0.5
		c0.1,0.2,0.1,0.4,0.1,0.5c-0.3,2.6-0.5,5.2-1,7.7c-0.4,1.8-0.7,3.6-1,5.4c-0.2,1.2-0.3,2.5-0.5,3.7c0,0.3,0,0.5,0.2,0.8
		c0.1-0.8,0.3-1.6,0.4-2.3c0.1-0.9,0.1-1.9,0.4-2.7c0.5-1.5,0.7-3.1,1-4.6c0.5-2,0.9-4,0.9-6.1c0-0.2,0-0.3,0-0.5
		c0.1-0.7,0.4-1.1,1.2-1.2c0.1,0.2,0.3,0.4,0.4,0.6c0.2,0.8,0.3,1.7,0.2,2.6c-0.6,2.9-1.1,5.8-1.6,8.8c-0.4,2.3-0.8,4.7-0.9,7.1
		c0,0.3,0,0.5-0.1,0.8c-0.2,0.8-0.2,1.5,0,2c-0.1,1.8-1.5,2.3-2.4,3.3c-1.1,0.3-1.1,0.3-2-0.1c-0.8,0.2-1.6,0.5-2.3,0.6
		c-1.3-0.2-2.1-1.1-3.2-1.1c-0.1,0-0.1,0.1-0.3,0.2c0.1,0.2,0.2,0.4,0.4,0.5c0.7,0.5,1.4,1,2.2,1.4c1.6,0.9,3.1,2.2,4.5,3.3
		c1.2,1,2.4,2,3.6,3c1.4,1.3,2.6,2.8,3.7,4.3c1,1.4,1.7,2.8,2.5,4.3c0.5,1.1,1,2.2,1.3,3.3c0.3,1.2,0.7,2.5,0.7,3.8
		c0,1.6-0.3,3.1-1,4.5c-1.2,2.2-2.8,4-5,5.2c-0.5,0.3-1,0.6-1.5,1C181.5,79.8,180.8,80.2,180,80.4c0-0.1-0.1-0.2-0.1-0.3
		c0,0,0.1-0.1,0.1-0.1c0,0,0,0.1-0.1,0.1c-0.1,0-0.3,0.1-0.5,0.2C179.7,80.3,179.9,80.4,180,80.4z M184.2,75.2c0,0-0.1,0.1-0.1,0.1
		C184.2,75.3,184.2,75.2,184.2,75.2c0.1-0.1,0.2-0.3,0.3-0.4c0.1-0.1,0.2-0.2,0.3-0.3c0.2,0,0.3-0.1,0.3-0.3c0,0,0.1-0.1,0.1-0.1
		c0,0-0.1,0.1-0.1,0.1c-0.1,0.1-0.2,0.2-0.3,0.3c-0.1,0.1-0.2,0.2-0.3,0.3C184.5,75,184.4,75.1,184.2,75.2z M186.2,72
		c-0.1,0.1-0.3,0.2-0.1,0.4C186.1,72.2,186.1,72.1,186.2,72c0.1-0.1,0.3-0.1,0.4-0.2c0.6-0.6,0.7-1.4,1-2.2c0.3-0.8,0.3-1.6,0.1-2.4
		c-0.4,1.1-0.7,2.2-1.1,3.3C186.4,70.9,186.3,71.5,186.2,72z M186,73.5c0.3,0.3,0.5,0.2,0.6,0.1c0.6-0.6,1-1.6,1.3-2.8
		C187.2,71.7,186.6,72.6,186,73.5z M186.9,66.2c0.1-0.2,0.2-0.2,0.2-0.3c0-0.3,0-0.6,0-0.9c0,0-0.1-0.1-0.2-0.1
		C186.9,65.3,186.9,65.7,186.9,66.2z M187.6,64.3l0.1-0.1l-0.1,0L187.6,64.3z"/>
	<path d="M136.2,31.4c-0.5-2.6-1.6-4.9-1.7-7.3c0.3-0.8,0.9-1,1.2-1.1c1.1-0.1,2-0.1,3-0.2c0.2,0.3,0.6,0.6,0.9,1
		c1.1-0.2,2.2-0.6,3.1-1.4c0.1,0.4,0.2,0.8,0.3,1.3c0.3-0.3,0.6-0.6,0.9-0.9c0.5,0.4,0.1,1.1,0.5,1.5c0.5,0,0.9,0,1.4,0
		c0.5,0.3,0.7,0.7,0.7,1.2c-0.1,1.7,0.5,3.2,0.9,4.8c1,3.8,2.1,7.6,3.2,11.4c1,3.6,1.9,7.3,2.7,11c0.8,3.8,1.1,7.6,0.9,11.4
		c-0.2,4.2-1.3,8.1-3.3,11.8c-1,1.9-2.6,3.1-4.3,4.3c-0.6,0.4-1.1,0.3-1.7,0c-0.3-0.2-0.6-0.4-0.9-0.6c-0.4,0-0.8-0.1-1.2,0
		c-1,0.2-1.9-0.2-2.7-0.8c-0.4-0.3-0.8-0.6-1.3-0.6c-2-0.1-3.3-1.3-4.4-2.7c-1.6-2-2.8-4.3-4.2-6.5c-0.3-0.5-0.5-1.1-0.6-1.7
		c-0.6-3-1.4-5.9-1.8-8.9c-0.1-0.6-0.1-1.2-0.2-1.8c-0.1-0.9-0.1-1.8-0.2-2.7c-0.2-1.3-0.1-2.6-0.1-3.9c0-0.5,0-1,0.1-1.4
		c0.1-0.8,0.2-1.6,0.3-2.4c0.1-0.5,0.3-1,0.3-1.4c0-1.3,0.5-2.5,0.9-3.7c0.4-1.1,0.8-2.2,1.2-3.3c0.4-0.9,0.9-1.7,1.4-2.5
		c0.6-0.9,1.5-1.5,2.5-2.1C134.9,32.7,135.6,32.2,136.2,31.4z M140.3,46.2c-0.1,0.2-0.2,0.4-0.2,0.6c-0.9,4.1-1.2,8.3-0.7,12.6
		c0.3,2.8,0.7,5.7,1.4,8.4c0.1,0.3,0.1,0.7,0.6,0.7c0.4-1.7,0.8-3.4,1.2-5.2c0.1-0.3,0.1-0.6,0.1-1c0-3.2-0.1-6.4-0.6-9.5
		C141.7,50.5,141,48.4,140.3,46.2z M152.3,64.1c-0.3,0.4-0.5,0.7-0.8,1c-0.1,0.7-0.1,1.3-0.3,2c-0.1,0.6-0.4,1.2-0.6,1.8
		c-0.1,0.3-0.2,0.6-0.3,0.9c-0.3,0.5,0,1.2-0.4,1.7c-0.4,0.5-0.6,1.1-0.9,1.7c-0.1,0.3-0.3,0.6-0.4,0.9c-0.1,0.2-0.2,0.4,0.1,0.5
		c0.6-0.3,0.9-0.9,1.2-1.5c0.3-0.6,0.5-1.2,0.8-1.8C151.7,69.1,152.4,66.8,152.3,64.1z M152.1,63.5c0.1-0.1,0.2-0.2,0.2-0.2
		c-0.1-1.2,0.1-2.4-0.3-3.6c-0.1-0.2,0-0.4,0-0.6c0-0.2,0-0.5-0.1-0.6c-0.5-0.7-0.4-1.5-0.4-2.3c0-1.5-0.3-2.9-0.7-4.3
		c-0.1-0.2-0.2-0.4-0.3-0.6c-0.1,0.9,0,1.8,0.3,2.6c0.4,1,0.5,2.1,0.5,3.2c0,0.3,0,0.5,0,0.8c0.2,1.8,0.4,3.5,0.6,5.3
		C151.8,63.1,152,63.3,152.1,63.5z"/>
	<path d="M394,78.2c0.1,0.6,0.7,0.6,1.1,0.8c0,0.6-0.4,0.9-0.8,1.1c-0.6,0.4-1.2,0.8-1.4,1.5c-2.4,1.2-4.9,1.5-7.6,0.7
		c-0.8-0.3-1.7-0.4-2.5-0.7c-0.3-0.1-0.6-0.2-0.9-0.3c-1.2-0.6-2.4-1.2-3.6-1.8c-2.9-1.6-5.3-3.8-7.3-6.5c-0.2-0.2-0.3-0.5-0.5-0.7
		c-2.3-2.5-3.3-5.5-4.2-8.7c-0.5-1.6-0.8-3.1-1.1-4.7c0-0.3-0.1-0.5-0.1-0.8c0.1-1.6-0.4-3.2-0.4-4.8c0-0.9-0.6-1.6-1-2.3
		c-0.5-0.3-1-0.6-1.3-1c-1-1-0.8-2.4,0.5-3.1c0.5-0.3,1.1-0.5,1.6-0.8c0.1-0.2,0.2-0.4,0.2-0.6c0.1-1.8,0.3-3.5,0.7-5.3
		c0.1-0.3-0.1-0.6-0.1-1c-0.1-0.7-0.2-1.4-0.1-2.1c0-0.5,0.3-0.9,0.6-1.6c0-0.8,0-1.8,0-2.9c-0.5-0.5-1.1-0.8-1.7-1.2
		c-0.2-0.3-0.4-0.7-0.6-1.1c-0.5-0.2-1-0.3-1.5-0.5c-0.8-1.3-0.8-1.3-0.6-2.6c0.8-1,2.1-1.2,3.3-1.6c1.2-0.3,2.4-0.5,3.2-1.6
		c0.5,0.1,0.8,0.1,1.2,0.2c0.7,0.2,1.3,0.4,2.1,0.1c0.3-0.1,0.7,0,1.1,0.1c0.4,0.1,0.7,0.1,1.1-0.2c0.1-0.1,0.2-0.1,0.3-0.1
		c1.4,0.3,2.7-0.2,4-0.5c3.2-0.8,6.4-1.6,9.6-2.4c1.3-0.3,2.5-0.5,3.8-0.8c0.2,0,0.3,0,0.5,0c1,0,2,0.1,3.2,0.1
		c0.2,0.3,0.5,0.6,0.7,0.9c0.4,0.2,0.9,0.2,1.4,0.1c0.6-0.1,1.3-0.1,1.9-0.1c0.2,0,0.4,0.1,0.6,0.2c0.2,0.8-0.6,1.4-0.3,2.2
		c0.2,0,0.4,0.1,0.7,0.1c1.4,0.2,1.5,0.2,1.8,1.8c-0.3,0.6-0.5,1.3-0.8,2c-0.3,0-0.5,0.2-0.8,0.1c-2.3-0.3-4.4,0.2-6.6,0.8
		c-4.1,1-8.3,2.1-12.5,2.7c-1.1,0.2-2.1,0.3-3.2,0.4c-0.5,0.1-0.9,0.2-1.3,0.3c-0.4,2.1-0.8,9.8-0.7,11.8c1,0,2-0.1,3-0.1
		c2.3-0.2,4.6-0.4,6.9-0.7c0.3,0,0.7,0,1-0.1c1-0.3,2-0.2,3,0c0.5,0.1,1,0.1,1.4,0.1c0.3,0,0.6,0,0.9,0c0.2,0.5,0.4,1,0.6,1.4
		c1,0.6,2-0.4,2.8,0.2c0.3,0.6-0.4,0.9-0.4,1.3c0.1,0.2,0.2,0.4,0.2,0.6c-0.1,0.4-0.3,0.8-0.4,1.2c1.2,0.5,1.2,0.5,1.5,1.3
		c-0.5,0.5-1.1,0.9-1.8,1.1c-1,0.3-2,0.6-3,0.7c-3.5,0.4-7,0.7-10.5,1.1c-1.6,0.2-3.2,0.5-4.8,0.7c-0.4,0.1-0.7,0.2-1.1,0.3
		c-0.2,1.4,0.1,2.7,0.1,4.1c0,0.6,0.1,1.2,0.2,1.8c0.1,2.8,0.8,5.6,1.6,8.2c0.3,1.1,0.7,2.2,1.1,3.2c0.5,1.3,1.4,2.4,2.3,3.5
		c0.5,0.5,1,1,1.5,1.4c0.4,0.3,0.8,0.5,1.1,0.7c0.8-0.1,1.4-0.4,1.9-0.8c1-0.9,2.1-1.4,3.5-1.4c0.7-0.4,1.1-1.4,2.2-0.9
		c0.2,0.4,0.4,0.9,0.5,1.3c0.9-0.2,1.7-0.4,2.5-0.6c0.5,0.2,0.6,0.6,0.4,0.9c-0.4,0.7-0.5,1.5-0.4,2.2c-0.2,0.8-0.9,1.2-0.9,2.1
		C393.3,78.5,393.6,78.3,394,78.2L394,78.2z M392.6,79.5c0.1-0.1,0.1-0.1,0.2-0.2c0,0-0.1-0.1-0.1-0.1c-0.1,0-0.1,0.1-0.2,0.1
		C392.6,79.4,392.6,79.5,392.6,79.5z"/>
	<path d="M231.6,39.5c0.1,0,0.2,0.1,0.4,0.1l0,0c-0.3,1.1-1,2-1.7,2.9c-0.8,0.9-1.6,1.7-2.4,2.6c-1.7,1.9-3.6,3.4-5.7,4.7
		c-2.5,1.6-5,3.2-7.9,4c-1.3,0.4-2.6,0.8-3.9,1.2c-0.5,0.1-1,0.1-1.7,0.2c0,0.3,0,0.6,0,1c0.2,2.5,0.4,5.1,0.6,7.6
		c0.2,2.4,0.5,4.8,0.7,7.3c0.1,0.6,0.1,1.2,0.1,1.8c0.1,1.5,0.2,3,0.7,4.4c-0.2,1.4-1,2.2-2.1,2.8c-0.4-0.4-0.8-0.8-1.2-1.1
		c-0.8,0.2-1.5,0.3-2.3,0.5c-0.7-0.4-1.5-0.9-2.2-1.3c-0.6,0-1.2,0-1.8,0c-0.6,0-1-0.3-1.5-0.6c-0.6-0.5-0.9-1.2-0.8-2
		c0.3-1.8,0.2-3.5,0.1-5.3c0-0.8,0-1.6-0.1-2.4c-0.1-1.3-0.1-2.7-0.2-4c0-0.3-0.1-0.6-0.1-1c0-3-0.4-6-0.6-9
		c-0.1-1.2-0.3-2.4-0.5-3.5c-0.1-0.4-0.1-0.8-0.1-1.1c0.1-1.6-0.1-3.1-0.3-4.7c-0.2-1.7-0.3-3.3-0.5-5c-0.3-0.4-0.6-0.8-1-1.2
		c-0.5,0.1-0.9,0.2-1.5,0.3c-0.6-0.2-1.3-0.4-2-0.7c-0.3-0.5-0.6-1.1-1-1.8c-0.3-0.1-0.8-0.4-1.2-0.6c-0.3-0.6-0.2-1.1-0.1-1.6
		c0.4-0.7,1.1-1.2,1.8-1.7c0.4-0.2,0.8-0.6,1.2-0.9c0.3-0.2,0.5-0.4,0.8-0.5c1.3-0.6,2.5-1.2,3.8-1.9c0.1-0.1,0.3-0.1,0.5-0.2
		c2.3-0.7,4.6-1.5,6.9-2.2c0.8-0.2,1.5-0.5,2.3-0.7c2.8-0.8,5.7-1,8.7-1c1.7,0,3.3,0.5,4.9,1c1.6,0.5,3.2,0.8,4.7,1.8
		c0.3,0.2,0.6,0.2,0.9,0.2c0.1,0.7,0.6,1,1.2,1.2l0,0c0.1,0.2,0.3,0.2,0.4,0l0,0c0.9,0.6,1.7,1.2,2.2,2.2c0.3,0.5,0.8,0.9,1.2,1.3
		c0.4,0.3,0.6,0.6,0.7,1l0,0c-0.2-0.1-0.4-0.2-0.7-0.3c0,0-0.1,0-0.1-0.1c0.1,0,0.1,0,0.2,0c-0.1,0.6,0.3,1,0.6,1.4l0-0.1
		c0.4,1.4,0.4,2.9-0.1,4.3C231.7,38.9,231.7,39.2,231.6,39.5c-0.1,0.1-0.2,0.3-0.3,0.4l-0.1,0.1l0-0.1
		C231.4,39.7,231.5,39.6,231.6,39.5z M228.7,41.5c1-0.5,1.7-1.4,2.2-2.5c0.1-0.3,0.2-0.6-0.2-0.8l0,0c-0.1-1.1,0.4-2.2-0.2-3.5
		c-0.2,0.7-0.5,1.2-0.5,1.7c0,0.9-0.3,1.8-0.7,2.6c-0.5,1.1-1.2,2.2-2,3.1c-0.3,0.3-0.5,0.6-0.4,1c0,0-0.1,0.1-0.1,0.1
		c0,0,0-0.1,0-0.1c0.6,0.2,1-0.1,1.3-0.6C228.2,42,228.3,41.6,228.7,41.5c0.1,0,0.1,0,0.1,0C228.7,41.5,228.7,41.5,228.7,41.5z
		 M207.9,47.3c0.7-0.4,1.5-0.8,2.2-1.2c1.2-0.7,2.4-1.5,3.6-2.2c0.4-0.3,0.8-0.7,1.2-1c0.5-0.4,1.2-0.8,1.6-1.3
		c0.5-0.5,1.2-0.7,1.6-1.3c0.7-0.9,1.3-1.9,2.2-2.5c0.1-0.1,0.2-0.3,0.3-0.4c0.4-0.8,0.8-1.5,1.1-2.3c0.3-0.8,0.3-1.7,0.1-2.5
		c-0.1-0.7-0.6-1.3-1.2-1.6c-0.6-0.1-1.2-0.2-1.9-0.3c-0.3,0-0.6,0-1,0.1c-3.3,0.6-6.5,1.7-9.7,2.6c-0.6,0.2-1.2,0.4-1.8,1.1
		c0,0.6,0,1.3,0,2c0,0.5,0.1,1,0.1,1.4c0.3,2.2,0.5,4.5,0.8,6.7c0.1,0.9,0.3,1.8,0.4,2.7C207.7,47.1,207.8,47.2,207.9,47.3z"/>
	<path d="M288.4,22.7c0.8,0.9,1.9,0.9,3,1.5c0.2,0.3,0.4,0.7,0.6,1.1c0.2,0.4,0.2,0.8,0.3,1.3c1,0.3,1.9,0.1,2.9,0.1
		c0.7,0,1.4,0,2.1-0.1c0.1,0,0.2,0,0.3,0c1.8-0.4,3.5-0.1,5.3-0.2c1.8-0.1,3.6,0,5.3-0.1c0.6,0,1.3,0,1.9-0.2c0.7-0.2,1.4-0.1,2.1,0
		c0.2,0.3,0.3,0.5,0.6,0.9c0.7,0.2,1.4,0.4,2.1,0.6c0.4,0.4,0.7,0.8,0.7,1.4c0,0.8-0.2,1-1.3,2.2c-2.8,0.7-5.8,1.1-8.8,1.1
		c-0.3,0-0.5,0-0.8,0c-1.3,0.2-2.7,0.1-4,0.1c-1.5,0.1-3,0.1-4.5,0.4c-1.3,0.3-2.7,0.5-3.9,1.1c-0.7,0.6-0.5,1.4-0.4,2.1
		c0.1,1.7,0.2,3.4,0.3,5.2c0.1,2.2,0.2,4.4,0.4,6.7c0.3,0,0.6,0.1,0.8,0.1c1.2-0.2,2.3-0.4,3.5-0.6c0.5-0.1,1-0.1,1.6,0
		c1.5,0.3,3.1,0.7,4.6,0.4c0.3,0.2,0.5,0.4,0.8,0.6c0.2,0.1,0.5,0.3,0.7,0.4c0,0.6,0,1.1,0,1.6c0.5,0.2,0.9,0.3,1.4,0.5
		c-0.1,0.3-0.1,0.6-0.2,0.9c-0.9,1-2.2,1.4-3.5,1.8c-2.8,0.9-5.6,1.4-8.5,1.8c-0.3,0-0.5,0.1-0.7,0.1c-0.4,1.4-0.3,7.1,0.2,10.4
		c0.6,0,1.3,0,1.9,0c0.6,0,1.3,0,1.9-0.1c1.9-0.1,3.8-0.2,5.6-0.4c1.4-0.2,2.8-0.3,4.2-0.4c1.3-0.1,2.6-0.4,3.8-0.8
		c0.7-0.2,1.5-0.4,2.2-0.4c1.1-0.1,2.1,0.1,3.1,0.6c0.7,0.4,1.5,0.5,2.3,0.2c0.1-0.1,0.3-0.1,0.5-0.1c0.4,0.1,0.7,0.2,1.2,0.3
		c0.1,0.4,0.2,0.8,0.3,1.1c0.7,0.4,1.3,0.7,1.8,1c0.4,0.6,0.4,1.1,0.1,1.5c-0.5,0.6-1,1.2-1.9,1.5c-1.8,0.5-3.7,0.9-5.5,1.1
		c-2.7,0.3-5.4,0.6-8,0.9c-2.2,0.3-4.4,0.6-6.6,0.9c-1.4,0.2-2.8,0.4-4.2,0.6c-0.5,0.1-1.1,0.2-1.5,0.3c-0.7,0.8-1.3,1.6-1.8,2.2
		c-0.6,0.3-1.2,0.2-1.7,0.2c-0.3,0-0.6-0.2-1-0.1c-1.7,0.2-3.2-0.4-4.6-1.2c-0.3-0.2-0.7-0.3-1-0.4c-0.6-0.3-1.3-0.6-1.9-0.9
		c-1.2-0.9-1.7-2.9-1.1-4.4c0.2-0.4,0.2-0.7,0.2-1.1c0-2.6,0.1-5.2,0.1-7.8c0-2.1-0.1-4.2-0.2-6.3c0-0.8,0-1.6,0-2.4
		c0-0.8,0-1.5,0-2.3c-0.1-1.8-0.2-3.7-0.3-5.5c0-0.3,0-0.6,0-1c0.1-3-0.2-5.9-0.4-8.9c-0.1-1.8-0.1-3.5-0.2-5.3
		c0-0.8-0.2-1.6,0.2-2.4c0.2-0.4,0.4-0.9,0.6-1.3c0.5-0.9,1.3-1.3,2.3-1.3c0.7,0,1.3,0,1.8-0.4c0.1-0.1,0.3-0.1,0.5-0.1
		C286.9,22.9,287.7,22.8,288.4,22.7z"/>
	<path d="M77,16.4c0,0.1,0,0.2,0.1,0.3c0.2,0.2,0.4,0.3,0.6,0.4c0.2,0.2,0.2,0.5,0.3,0.7c0.7,0.2,1.3-0.4,2,0.3
		c0,0.2,0.1,0.6,0.2,0.8c-0.1,0.2-0.1,0.3-0.2,0.4c-0.4,0.3-0.9,0.6-1.4,0.7c-0.9,0.3-1.9,0.6-2.8,0.9c-3.1,1.2-6.2,2.5-9.3,3.8
		c-0.4,0.2-0.9,0.4-1.2,0.6c-0.5,0.9-0.4,1.8-0.4,2.7c-0.2,4.8-0.4,9.6-0.5,14.4c-0.2,7-0.1,14-0.2,21.1c0,3.3-0.1,6.7-0.1,10
		c0,0.5,0,1.1,0.1,1.6c0,0.6-0.4,1.1-0.7,1.6c-0.3,0.4-0.7,0.7-1.3,0.7c-0.3-0.3-0.7-0.7-1-1.1c-0.9,0.1-1.6,0.2-2.5,0.3
		c-0.5-0.4-1.1-0.8-1.6-1.2c-0.8,0.3-1.7,0.1-2.6,0c-0.7-0.1-1.2-0.3-1.8-0.7c-1.1-0.7-1.3-1.3-1.1-2.6c0.2-1.3,0.3-2.6,0.5-3.8
		c0.1-0.8,0.2-1.7,0.1-2.5c-0.1-0.9,0-1.7,0-2.6c0.1-0.9,0.2-1.8,0.2-2.7c0-0.9-0.1-1.7-0.1-2.6c0-0.5,0.2-1,0.2-1.4
		c0.1-1,0.2-1.9,0-2.9c-0.1-0.5-0.1-1.1,0-1.6c0.1-2.3,0-4.5,0.2-6.8c0.1-1.7,0-3.3,0-5c0-1.6,0.1-3.2,0.2-4.9
		c0.1-1.2,0.2-2.5,0-3.7c-0.1-0.5,0-1,0-1.5c-0.5-0.1-1,0.1-1.5,0.3c-0.9,0.3-1.7,0.3-2.4-0.4c-0.5,0.2-0.9,0.3-1.3,0.5
		c-1.3-0.2-2.3-0.8-3-1.9c-0.4,0.1-0.8,0.2-1.1,0.2c-1.6-0.1-2.6-1.1-3.8-2.1c0-0.2-0.1-0.4-0.1-0.7c0-0.6,0.4-1.1,1-1.1
		c1.6-0.1,3.1-0.8,4.8-1c0.6-0.1,1.2-0.3,1.9-0.5c0.4-0.1,0.8-0.3,1.2-0.4c1.3-0.3,2.5-0.9,3.8-1.4c0.7-0.3,1.3-0.7,1.7-1.2
		c1.2-1.7,2.8-1.9,4.6-1.3c1.4-0.5,2.8-0.7,4.1-1.4c0.4-0.2,0.9-0.3,1.4-0.4c0.7-0.2,1.4-0.2,1.8-0.9c0.8-0.2,1.5-0.7,2.3-0.5
		c0.4,0.1,0.8,0,1.3,0c0.9,0,1.7-0.1,2.6-0.1c0.3,0,0.7,0.1,0.9,0.2c0.9,0.5,1.8,0.6,2.8,0.4C76.3,16.4,76.7,16.5,77,16.4L77,16.4z
		 M57.8,39.6c0,0-0.1,0-0.1,0c0,0.5,0,1,0,1.5c0,0,0.1,0,0.1,0C57.8,40.6,57.8,40.1,57.8,39.6z M57.8,38.6l0-0.1L57.8,38.6
		L57.8,38.6z"/>
	<path d="M232.7,37.3c0-0.6,0-1.1,0-1.7c0,0,0.1,0,0.1,0c0,0.6,0,1.1,0,1.7C232.8,37.3,232.7,37.3,232.7,37.3z"/>
	<path d="M231.9,33.3c0.4,0.2,0.4,0.6,0.5,1.1c-0.2-0.1-0.4-0.1-0.5-0.2c0,0,0,0.1,0,0.1C232,34,232,33.7,231.9,33.3L231.9,33.3z"/>
	<path d="M116.7,25.3c-0.1-0.1-0.1-0.3-0.2-0.4c0,0,0.1-0.1,0.2-0.1c0,0,0.1,0.1,0.1,0.1C116.8,25,116.7,25.1,116.7,25.3L116.7,25.3
		z"/>
	<path d="M394,78.2c0,0,0-0.1,0-0.1C394,78.1,394,78.1,394,78.2C394,78.2,394,78.2,394,78.2z"/>
	<path d="M227.4,28.8c0.1-0.2,0.2-0.2,0.3,0l0,0C227.6,28.8,227.5,28.8,227.4,28.8L227.4,28.8z"/>
	<path d="M232,39.5c0,0,0-0.1,0-0.1C232,39.5,232,39.5,232,39.5L232,39.5z"/>
	<polygon points="107.9,58.6 107.8,58.6 107.9,58.7 	"/>
	<path d="M230,39.2c0.1-0.4,0.3-0.7,0.7-0.9l0,0C230.6,38.6,230.5,39,230,39.2L230,39.2z"/>
	<path d="M229.9,39.1c0,0.1,0,0.3,0,0.5c-0.1,0-0.1,0-0.2,0C229.9,39.4,229.9,39.3,229.9,39.1L229.9,39.1z"/>
</g>
</svg>
