<?xml version="1.0" encoding="utf-8"?>
<!-- Generator: Adobe Illustrator 18.1.1, SVG Export Plug-In . SVG Version: 6.00 Build 0)  -->
<svg version="1.1" id="Layer_1" xmlns="http://www.w3.org/2000/svg" xmlns:xlink="http://www.w3.org/1999/xlink" x="0px" y="0px"
	 viewBox="0 0 60.7 46.7" enable-background="new 0 0 60.7 46.7" xml:space="preserve">
<g>
	<path d="M50.6,7.1l-14.7,7.7L34.5,4.4l5-4.4h-9.9c-1.5,0-2.8,1.1-3,2.6l-1.3,9.2l5.1,5.9L10.1,7.1C9,6.5,7.9,7,7.6,8.2L0,40
		l3.4,0.7C4.6,41,5.7,40.2,6,39l1-4.9l3.1,0.6c1.2,0.2,2.3-0.5,2.5-1.8l0,0l0.8-4.9l2.9,0.6c0,0,0,0,0,0c1.2,0.2,2.3-0.6,2.5-1.8
		l0.7-5l4.2,0.8l-2.5,17.9l6,1.2l3.1,4.9l3.1-4.9l6-1.2l-2.5-18l4.2-0.8l0.7,5c0.2,1.2,1.3,2,2.5,1.8l0,0l2.9-0.6L48,33
		c0.2,1.2,1.4,2,2.5,1.8l3.1-0.6l1,4.9c0.2,1.2,1.4,2,2.6,1.7l3.4-0.7L53.1,8.2C52.8,7,51.7,6.5,50.6,7.1z"/>
</g>
</svg>
