<?xml version="1.0" encoding="utf-8"?>
<!-- Generator: Adobe Illustrator 18.1.1, SVG Export Plug-In . SVG Version: 6.00 Build 0)  -->
<svg version="1.1" id="Layer_1" xmlns="http://www.w3.org/2000/svg" xmlns:xlink="http://www.w3.org/1999/xlink" x="0px" y="0px"
	 viewBox="0 0 192.6 54.5" enable-background="new 0 0 192.6 54.5" xml:space="preserve">
<g opacity="0.6">
	<path fill="#1D1D1B" d="M1,25.9C1.6,24,2.1,22,3.2,20.3c0.8-1.2,1.4-2.4,2.2-3.6c1.5-2,3.2-3.8,5.2-5.3c1.1-0.9,2.3-1.6,3.6-2.3
		c1-0.5,2-0.8,3.1-1c2.4-0.5,4.6-0.1,6.2,1.9c0.8,1,1.3,2.2,1.9,3.3c0.3,0.5,0.5,0.9,1.2,1c1.6,0.3,2.9,1,3.6,2.7
		c1.2,2.9,1.5,6,1.6,9.1c0,1.1-0.2,2.1-0.3,3.2c-0.2,1.9-1,3.6-1.7,5.4c-0.4,1-1,1.9-1.6,2.7c-1.2,1.6-2.4,3.2-3.8,4.6
		c-1.1,1.1-2.3,2-3.6,2.9c-1.6,1.2-3.4,2.2-5.3,2.7c-1.5,0.5-3.1,0.9-4.7,0.8c-2.2-0.1-4.1-0.9-5.8-2.3c-1.5-1.3-2.5-2.9-3.2-4.7
		c-0.5-1.2-0.9-2.4-1.2-3.6c-0.3-1.6-0.5-3.2-0.6-4.3C0.1,30.7,0.3,28.3,1,25.9z M23.6,39.4c-2.4,1.4-5,2.5-7.9,2.3
		c-1.1-0.1-2.2-0.6-3.3-0.9c-0.8-0.2-1.5-0.6-2.3-0.7c-1.2-0.1-2.3-0.4-3.3-1.1c-1.5-1-2.5-2.4-2.8-4.2C3.5,33,3.6,31.1,4,29.3
		c0.3-1.3,1-2.6,1.5-3.8c0.8-2.1,2.3-3.7,3.9-5.2c1.5-1.5,3.3-2.8,4.9-4.2c0.7-0.6,1.2-1.5,1.8-2.2c0.7-0.7,1.3-1.5,2.4-1.8
		c0.2,0,0.4,0,0.6,0c0,0.2,0,0.4-0.1,0.6c-0.2,0.4-0.4,0.7-0.7,1.1c1-0.2,2-0.4,2.9-0.4c0.9,0,1.9,0.1,2.8,0.2
		c-0.6-1.3-1.3-2.6-2.6-3.5c-1.1-0.8-2.4-1.1-3.8-0.8c-2.1,0.5-3.9,1.4-5.6,2.8c-1.9,1.6-3.6,3.4-5,5.3c-1.7,2.3-3,4.9-3.9,7.7
		C2.4,27.8,2,30.3,2,32.9c0,2.3,0.4,4.6,1.2,6.8c0.7,1.7,1.5,3.2,2.6,4.5c0.8,0.9,1.8,1.6,3,2c0.8,0.2,1.6,0.5,2.4,0.5
		c1.3,0,2.6-0.1,3.8-0.6c1.1-0.5,2.2-0.8,3.3-1.4c2.1-1.2,3.9-2.6,5.6-4.4c0.8-0.9,1.6-1.9,2.4-2.8c0.1-0.1,0.1-0.2,0.1-0.2
		C25.6,37.9,24.6,38.8,23.6,39.4z M17.1,22.1c0.7-0.6,1.2-1.4,1.9-2.1c1.1-1.1,2.5-1.8,4.1-1.9c1,0,1.8,0.5,2.3,1.4
		c0.1,0.1,0.1,0.2,0.2,0.3c0,0,0.1,0,0.3,0.1c-0.2-0.6-0.4-1.1-0.7-1.6c-0.3-0.6-0.6-1.2-1-1.9c-0.4-0.7-0.9-1-1.8-1
		c-2,0.1-3.9,0.7-5.6,1.7c-0.5,0.3-0.9,0.8-1.1,1.3c-0.4,1.2-0.7,2.4-1,3.6c-0.1,0.5-0.1,1-0.2,1.5c0.1,0,0.1,0.1,0.2,0.1
		C15.4,23.1,16.3,22.7,17.1,22.1z M24.5,27.6c0.5-1.1,1.3-1.9,1.1-2.9c-0.2-1.6-0.6-3-1.5-4.4c-0.5-0.7-1.2-1-2-0.6
		c-1.1,0.5-2,1.4-2.8,2.5C22.1,23,23,25.5,24.5,27.6z M7.6,33.4c-0.1-1.5-0.2-2.9-0.3-4.4c-0.2-1.6,0.7-2.9,1-4.5
		C8.1,24.6,8,24.7,8,24.7c-1,1.9-1.9,3.8-2,6c-0.1,1.5-0.2,3,0.3,4.4c0.5,1.3,1.4,2.3,2.7,2.6C8.2,36.3,7.8,34.9,7.6,33.4z
		 M28.9,22.6c0.4,2.1,0.7,4.2,1,6.5c0.1-1.3,0.2-2.6,0.2-3.8c0-2.4-0.3-4.9-1.2-7.1c-0.3-0.8-0.8-1.6-1.9-1.8
		C28,18.3,28.5,20.4,28.9,22.6z M21.6,30.1c0.9-0.2,1.2-0.5,1-1.3c-0.5-1.5-1.1-3-2.3-4.1c-0.3-0.3-0.7-0.4-1.2-0.6
		C20,26.2,20.8,28.2,21.6,30.1z M23.4,35.3c1.6-0.8,2.9-2,3.7-3.7c0.8-1.7,0.7-3.5,0.4-5.3C27.5,29.9,25.5,32.6,23.4,35.3z
		 M10.5,24.1c0.6,0,1.1,0,1.6,0c0.1,0,0.3-0.2,0.4-0.4c0.2-1.3,0.5-2.6,0.7-4C11.9,20.9,11.2,22.4,10.5,24.1z M20.8,38.2
		c-0.6,0.2-1.1,0.6-1.6,0.8c-1,0.3-1.9,0.6-2.9,0.9c0.7,0.6,5.8-0.7,7.4-2.5C22.6,37.6,21.7,37.9,20.8,38.2z M20.2,33.7
		c0-0.2-0.1-0.4-0.2-0.6c-0.3,0.1-0.7,0.1-0.8,0.3c-0.3,0.3-0.4,0.7-0.6,1c-0.2,0.3-0.4,0.6-0.6,0.9C19.4,35.5,20.3,35,20.2,33.7z
		 M18.9,28c-0.2-1.2-1.1-2.5-1.6-2.3C17.8,26.5,18.3,27.2,18.9,28z"/>
	<path fill="#1D1D1B" d="M63.2,25.3c-0.3-1.9-0.5-3.7-0.8-5.5c-0.3-2.4-0.5-4.9-0.8-7.3c-0.3-2.1-0.9-4.2-1.3-6.2
		C60.1,5.7,60,5,59.7,4.5c-0.5-0.9-2.1-1.1-3-0.5c-0.8,0.6-1,1.8-0.5,2.8c0.3,0.6,0.5,1.4,0.7,2.1c0.3,1.1,0.8,2.2,0.8,3.3
		c0,0.8,0.4,1.7-0.3,2.5c-0.5,0.7-0.4,1.6,0,2.4c0.9,2.1,1.1,4.3,1.4,6.6c-0.7-0.7-1.5-1.4-2.2-2.1c-1.3-1.2-2.5-2.4-3.8-3.5
		c-1.1-0.9-2.2-1.8-3.3-2.6c-0.6-0.5-1.2-0.9-1.8-1.3c-1.3-0.9-2.1-0.7-3,0.7c-0.7,1.1-0.5,2.1,1,2.6c1.2,0.4,2.3,1.2,3.3,2
		c2.7,2.3,5.4,4.7,8.1,7.1c0.7,0.6,1.2,1.2,1.8,1.9c0.2,0.2,0.4,0.5,0.5,0.8c0.1,0.4,0,0.7-0.5,0.7c-1.6,0.1-3.3,0.2-4.9,0.3
		c-1.4,0.1-2.8,0.2-4.1,0.2c-0.5,0-1-0.3-1.6-0.4c-1.3-0.2-2.4,0.9-2.4,2.2c0,1,0.5,1.5,1.5,1.4c2.2-0.2,4.4-0.4,6.7-0.6
		c1.6-0.1,3.2-0.2,4.9-0.2c-0.3,0.7-0.6,1.3-0.9,1.8c-1.8,3.1-3.5,6.1-5.3,9.2c-1,1.7-1.7,3.4-3.1,4.9c-0.6,0.7-0.5,1.6-0.3,2.4
		c0,0.1,0.2,0.3,0.4,0.3c1.1,0.4,2.1-0.2,2.6-1.2c0.7-1.5,1.5-2.9,2.2-4.4c1.5-2.8,3.1-5.6,4.6-8.5c0.2-0.4,0.5-0.7,0.8-1.4
		c0.2,1,0.3,1.7,0.4,2.5c0.2,1.2,0.4,2.4,0.6,3.6c0.1,0.6,0.2,1.2,0.4,1.8c0.1,0.3,0.5,0.6,0.7,0.9c0.1,0.1,0.3,0.3,0.3,0.5
		c0.3,1.7,0.7,3.4,0.5,5.2c0,0.3,0,0.7,0,1c0.2,1.4,0.7,1.7,2.1,1.4c1-0.2,1.6-1.3,1.4-2.3c-0.4-2.7-0.8-5.4-1.3-8.1
		c-0.3-1.7-0.5-3.4-0.8-5.1c-0.1-0.8-0.2-1.7-0.1-2.6c0.2,0.3,0.5,0.6,0.7,0.8c1.4,1.8,2.8,3.6,4.2,5.4c0.5,0.7,0.9,1.5,1.4,2.2
		c0.3,0.4,0.6,0.9,1,1c0.7,0.1,1.1-0.5,1.4-1c0.4-0.8,0.2-1.7-0.3-2.4c-1.2-1.6-2.5-3.2-3.7-4.8c-1-1.3-2-2.5-3-3.8
		c-0.1-0.1-0.2-0.3-0.3-0.5c1.1-0.2,2.1-0.6,3.2-0.7c1.4-0.2,2.1-0.7,2.4-1.8c0.2-0.8,0.1-1.7-0.6-2c-0.6-0.3-1.5-0.2-2.1,0.1
		c-1.2,0.7-2.4,1.3-3.8,1.6C65,28.9,64.8,29,64.3,29c0.7-1.5,1.4-2.8,2.1-4c0.9-1.7,1.9-3.4,2.9-5c0.4-0.6,0.9-1.1,1.4-1.7
		c0.6-0.7,0.7-1.9,0.1-2.5c-0.2-0.2-0.5-0.3-0.8-0.3c-0.9-0.1-1.7,0.5-2.2,1.4c-1.4,2.7-2.9,5.4-4.4,8.1
		C63.5,25,63.4,25.1,63.2,25.3z"/>
	<path fill="#1D1D1B" d="M122.8,16.7c2.4-1.7,4.9-3.3,7.7-4.5c2-0.9,4-1.8,6.2-1.9c1.5-0.1,3,0.5,3.1,1.8c0.1,1.5,0.1,3-0.3,4.5
		c-0.6,2.6-2.1,4.7-3.9,6.7c-2.5,2.9-5.2,5.6-7.8,8.5c-1.8,1.9-3.5,3.9-5.3,5.9c-2,2.2-3.9,4.4-5.9,6.5c-1.1,1.2-1.4,2.4-0.9,3.8
		c0.2,0.5-0.4,2.3-0.9,2.5c-0.8,0.3-1.6,0.5-2.4-0.2c-0.1-0.1-0.5-0.2-0.7-0.1c-0.6,0.2-1.2,0.2-1.6-0.4c-0.5-0.6-0.6-1.3-0.2-1.9
		c0.3-0.6,0.7-1.1,1.2-1.5c0.7-0.8,1.4-1.5,1.3-2.7c-0.1-1.1-0.1-2.2-0.1-3.3c-0.1-2.2-0.2-4.5-0.5-6.7c-0.7-5-2.3-9.8-3.8-14.6
		c-1-3.3-2-6.6-2-10.1c0-0.7,0.3-1.5,0.8-1.9c1.2-1.1,3.6-1,4.7,0.1c2.2,2.1,4.4,4.3,6.5,6.6c1.2,1.2,2.3,2.5,3.4,3.8
		C122.1,17,122.5,16.9,122.8,16.7z M119.8,36.8c2.4-2.6,4.8-5.2,7.2-7.8c1.9-2,3.7-4.1,5.5-6.3c1.2-1.4,2.3-3,3.3-4.6
		c0.8-1.3,1.1-2.8,1-4.4c0-0.5-0.2-0.8-0.7-0.6c-1.5,0.4-3.1,0.8-4.5,1.4c-1.8,0.8-3.4,1.8-5.1,2.8c-1,0.5-1.5,1.4-2,2.4
		c-0.7,1.4-1.7,2.7-2.5,4.1c-0.1,0.1-0.2,0.2-0.3,0.2c-1.1,0.1-2.3-0.9-2.6-2c-0.2-0.5,0-1,0-1.5c0-0.7-0.2-1.5-0.6-2.1
		c-1.7-2.2-3.6-4.2-5.4-6.3c-0.6-0.7-1.3-1.4-2-2.1c-0.1-0.1-0.2-0.3-0.3-0.3c-0.4-0.2-0.9-0.3-1.3-0.4c-0.1,0.4-0.3,0.9-0.2,1.3
		c0.5,2.5,1.1,4.9,1.7,7.4c0.5,2.1,1.1,4.1,1.6,6.2c0.6,2.5,1.3,5,1.9,7.5c0.2,0.8,0.3,1.6,0.4,2.4c0.2,1.4,0.5,2.8,0.6,4.2
		c0.1,1,0,2.1,0,3.2c0.1,0,0.2,0,0.3,0C117,39.9,118.4,38.4,119.8,36.8z"/>
	<path fill="#1D1D1B" d="M175.6,40.1c-0.1-0.6,0-1.2-0.2-1.8c-0.3-0.9-0.4-1.9-0.5-2.9c-0.1-1.3-0.5-2.6-0.8-3.9
		c-0.4-1.7-0.7-3.3-1.1-5c-0.6-2.3-1.4-4.5-1.9-6.8c-0.2-1-0.7-2-0.8-3.1c-0.1-1.4-0.7-2.7-1.1-4c-0.1-0.3-0.3-0.6-0.3-1
		c-0.1-0.9-0.4-1.5-1.4-1.9c0.3-0.2,0.5-0.3,0.6-0.5c-0.5-1.7-1.1-3.5-1.6-5.2c-0.6-0.2-1.3,0.2-1.7-0.4c-0.1-0.1-0.3,0-0.4,0
		c-0.4,0.1-0.6,0-0.8-0.4c-0.1-0.2-0.4-0.2-0.7-0.4c-0.2-0.1-0.3-0.3-0.4-0.4c0.2,0,0.3,0,0.5-0.1c0.1,0,0.3-0.1,0.3-0.2
		c0.1-0.6,0.5-0.8,1-0.8c0.1,0,0.3-0.1,0.4-0.2c0.2-0.1,0.5-0.2,0.5-0.1c0.2,0.2,0.3,0.5,0.3,0.6c-0.1,0.4,0,0.5,0.4,0.5
		c0.1,0,0.2,0,0.3,0.1c0.2,0.1,0.6,0.4,0.7,0.3c0.6-0.3,1.4-0.5,1.5-1.4c0.1-0.5,0.9-1.4,1.4-1.4c0.6,0,1.3,0.2,1.9,0.4
		c0.8,0.3,0.8,1,0.9,1.7c0.2,1.2,0.4,2.4,0.6,3.6c0.2,1.2,0.3,2.3,0.5,3.5c0.2,0.9,0.4,1.7,0.6,2.6c0.3,1.3,0.6,2.6,1.1,3.7
		c0.5,1,0.7,2,0.8,3.1c0.2,1.7,0.8,3.4,1.3,5.1c0.5,1.9,1,3.9,1.5,5.8c0.4,1.6,0.8,3.2,1.1,4.7c0.2,0.9,0.2,1.9,0.4,3
		c0.3-0.5,0.6-0.9,0.8-1.2c1.3-2,2.6-4,3.9-6c0.9-1.3,1.8-2.6,2.7-4c0.2-0.3,0.3-0.7,0.4-1c0.3-1,1.5-1.8,2.5-1.5
		c0.4,0.1,0.8,0.2,1.1,0.4c0.9,0.6,1.1,1.6,0.2,2.5c-0.8,0.7-1.1,1.7-1.7,2.5c-0.1,0.1-0.1,0.2-0.1,0.2c-1,1.3-2,2.5-2.9,3.8
		c-0.5,0.7-0.8,1.5-1.2,2.2c-1.2,2-2.4,4-3.5,6c-0.6,1-1,2.2-1.4,3.3c-0.3,0.6-0.3,1.5-0.7,1.9c-0.9,1-0.8,2.3-1.3,3.5
		c-0.4,0.9-0.8,1.7-1.2,2.6c-0.4,0.8-0.9,1.4-1.6,1.9c-0.5,0.3-1.6,0.3-2,0c-0.9-0.7-1-1.5-0.6-2.6c0.2-0.7,0.3-1.5,0.3-2.3
		c0-2.6-0.9-5-1.4-7.4c-0.3-1.3-1.1-2.6-1.6-3.9c-0.2-0.4-0.3-0.8-0.5-1.1c-0.4-0.6-0.8-1.1-1.2-1.7c-0.6-0.8-1.2-1.7-1.8-2.6
		c-0.2-0.2-0.4-0.6-0.3-0.8c0.2-0.5,0.4-1.1,0.8-1.3c1.3-0.7,2.6-0.6,3.4,1c0.5,1.1,1,2.2,1.5,3.2c0.8,1.7,1.7,3.5,2.6,5.2
		C175.5,40.1,175.6,40.1,175.6,40.1z"/>
</g>
</svg>
