<?xml version="1.0" encoding="utf-8"?>
<!-- Generator: Adobe Illustrator 18.1.1, SVG Export Plug-In . SVG Version: 6.00 Build 0)  -->
<svg version="1.1" id="Layer_1" xmlns="http://www.w3.org/2000/svg" xmlns:xlink="http://www.w3.org/1999/xlink" x="0px" y="0px"
	 viewBox="0 0 192.6 54.5" enable-background="new 0 0 192.6 54.5" xml:space="preserve">
<g opacity="0.6">
	<path fill="#1D1D1B" d="M192.6,33.6c-0.2,1.2-0.3,2.8-0.6,4.3c-0.3,1.2-0.7,2.4-1.2,3.6c-0.8,1.8-1.7,3.4-3.2,4.7
		c-1.7,1.4-3.6,2.2-5.8,2.3c-1.6,0.1-3.2-0.4-4.7-0.8c-1.9-0.6-3.7-1.5-5.3-2.7c-1.2-0.9-2.5-1.8-3.6-2.9c-1.4-1.4-2.6-3-3.8-4.6
		c-0.6-0.8-1.2-1.7-1.6-2.7c-0.7-1.8-1.5-3.5-1.7-5.4c-0.1-1.1-0.3-2.1-0.3-3.2c0.1-3.1,0.4-6.2,1.6-9.1c0.7-1.7,2.1-2.3,3.6-2.7
		c0.7-0.1,0.9-0.5,1.2-1c0.6-1.1,1.2-2.3,1.9-3.3c1.6-2,3.8-2.5,6.2-1.9c1.1,0.2,2.1,0.5,3.1,1c1.3,0.6,2.5,1.4,3.6,2.3
		c2,1.5,3.7,3.3,5.2,5.3c0.8,1.1,1.4,2.4,2.2,3.6c1.1,1.7,1.6,3.7,2.2,5.6C192.4,28.3,192.5,30.7,192.6,33.6z M166.2,37.2
		c0,0,0,0.2,0.1,0.2c0.8,1,1.6,1.9,2.4,2.8c1.6,1.8,3.5,3.2,5.6,4.4c1,0.6,2.2,0.9,3.3,1.4c1.2,0.6,2.5,0.7,3.8,0.6
		c0.8,0,1.6-0.3,2.4-0.5c1.2-0.3,2.2-1,3-2c1.2-1.3,2-2.9,2.6-4.5c0.9-2.2,1.2-4.5,1.2-6.8c0.1-2.6-0.4-5.1-1.1-7.6
		c-0.8-2.8-2.1-5.4-3.9-7.7c-1.5-2-3.1-3.8-5-5.3c-1.7-1.4-3.5-2.3-5.6-2.8c-1.4-0.3-2.7,0-3.8,0.8c-1.2,0.9-1.9,2.2-2.6,3.5
		c1-0.1,1.9-0.2,2.8-0.2c0.9,0,1.8,0.3,2.9,0.4c-0.3-0.4-0.5-0.8-0.7-1.1c-0.1-0.2-0.1-0.4-0.1-0.6c0.2,0,0.4-0.1,0.6,0
		c1,0.3,1.7,1.1,2.4,1.8c0.6,0.7,1.1,1.5,1.8,2.2c1.6,1.4,3.3,2.7,4.9,4.2c1.6,1.5,3.1,3.1,3.9,5.2c0.5,1.3,1.2,2.5,1.5,3.8
		c0.4,1.8,0.5,3.7,0.2,5.5c-0.4,1.8-1.3,3.3-2.8,4.2c-1,0.6-2.1,0.9-3.3,1.1c-0.8,0.1-1.5,0.4-2.3,0.7c-1.1,0.3-2.2,0.8-3.3,0.9
		c-2.9,0.2-5.5-1-7.9-2.3C168,38.8,167.1,37.9,166.2,37.2z M178.1,23.6c0.1,0,0.1-0.1,0.2-0.1c-0.1-0.5-0.1-1-0.2-1.5
		c-0.3-1.2-0.6-2.4-1-3.6c-0.2-0.5-0.6-1-1.1-1.3c-1.7-1-3.6-1.6-5.6-1.7c-0.8,0-1.4,0.3-1.8,1c-0.3,0.6-0.7,1.2-1,1.9
		c-0.2,0.5-0.4,1-0.7,1.6c0.2,0,0.3,0,0.3-0.1c0.1-0.1,0.1-0.2,0.2-0.3c0.5-0.9,1.3-1.4,2.3-1.4c1.6,0,3,0.8,4.1,1.9
		c0.7,0.7,1.2,1.5,1.9,2.1C176.3,22.7,177.2,23.1,178.1,23.6z M173.3,22.2c-0.8-1.2-1.7-2-2.8-2.5c-0.8-0.4-1.5-0.1-2,0.6
		c-0.9,1.3-1.3,2.8-1.5,4.4c-0.1,1.1,0.7,1.9,1.1,2.9C169.6,25.5,170.6,23,173.3,22.2z M183.7,37.7c1.3-0.3,2.2-1.3,2.7-2.6
		c0.6-1.5,0.4-2.9,0.3-4.4c-0.1-2.2-1-4.1-2-6c0-0.1-0.2-0.1-0.4-0.2c0.4,1.6,1.2,2.9,1,4.5c-0.1,1.5-0.2,2.9-0.3,4.4
		C184.9,34.9,184.5,36.3,183.7,37.7z M165.6,16.3c-1.1,0.2-1.6,1-1.9,1.8c-0.9,2.3-1.2,4.7-1.2,7.1c0,1.2,0.1,2.5,0.2,3.8
		c0.4-2.3,0.6-4.4,1-6.5C164.1,20.4,164.6,18.3,165.6,16.3z M173.5,24.1c-0.5,0.2-0.9,0.4-1.2,0.6c-1.2,1.1-1.8,2.5-2.3,4.1
		c-0.2,0.7,0.1,1.1,1,1.3C171.8,28.2,172.6,26.2,173.5,24.1z M165.1,26.3c-0.4,1.8-0.4,3.6,0.4,5.3c0.8,1.7,2.1,2.8,3.7,3.7
		C167.2,32.6,165.2,29.9,165.1,26.3z M179.5,19.6c0.3,1.5,0.5,2.7,0.7,4c0,0.2,0.2,0.4,0.4,0.4c0.5,0,1,0,1.6,0
		C181.5,22.4,180.8,20.9,179.5,19.6z M169,37.3c1.5,1.8,6.7,3.1,7.4,2.5c-0.9-0.3-1.9-0.5-2.9-0.9c-0.6-0.2-1.1-0.6-1.6-0.8
		C171,37.9,170,37.6,169,37.3z M174.5,35.3c-0.2-0.3-0.4-0.6-0.6-0.9c-0.2-0.3-0.3-0.8-0.6-1c-0.2-0.2-0.6-0.2-0.8-0.3
		c-0.1,0.2-0.2,0.4-0.2,0.6C172.3,35,173.3,35.5,174.5,35.3z M175.4,25.8c-0.5-0.2-1.4,1-1.6,2.3C174.3,27.2,174.8,26.5,175.4,25.8z
		"/>
	<path fill="#1D1D1B" d="M129.4,25.3c0.3-1.9,0.5-3.7,0.8-5.5c0.3-2.4,0.5-4.9,0.8-7.3c0.3-2.1,0.9-4.2,1.3-6.2
		c0.1-0.6,0.2-1.3,0.6-1.8c0.5-0.9,2.1-1.1,3-0.5c0.8,0.6,1,1.8,0.5,2.8c-0.3,0.6-0.5,1.4-0.7,2.1c-0.3,1.1-0.8,2.2-0.8,3.3
		c0,0.8-0.4,1.7,0.3,2.5c0.5,0.7,0.4,1.6,0,2.4c-0.9,2.1-1.1,4.3-1.4,6.6c0.7-0.7,1.5-1.4,2.2-2.1c1.3-1.2,2.5-2.4,3.8-3.5
		c1.1-0.9,2.2-1.8,3.3-2.6c0.6-0.5,1.2-0.9,1.8-1.3c1.3-0.9,2.1-0.7,3,0.7c0.7,1.1,0.5,2.1-1,2.6c-1.2,0.4-2.3,1.2-3.3,2
		c-2.7,2.3-5.4,4.7-8.1,7.1c-0.7,0.6-1.2,1.2-1.8,1.9c-0.2,0.2-0.4,0.5-0.5,0.8c-0.1,0.4,0,0.7,0.5,0.7c1.6,0.1,3.3,0.2,4.9,0.3
		c1.4,0.1,2.8,0.2,4.1,0.2c0.5,0,1-0.3,1.6-0.4c1.3-0.2,2.4,0.9,2.4,2.2c0,1-0.5,1.5-1.5,1.4c-2.2-0.2-4.4-0.4-6.7-0.6
		c-1.6-0.1-3.2-0.2-4.9-0.2c0.3,0.7,0.6,1.3,0.9,1.8c1.8,3.1,3.5,6.1,5.3,9.2c1,1.7,1.7,3.4,3.1,4.9c0.6,0.7,0.5,1.6,0.3,2.4
		c0,0.1-0.2,0.3-0.4,0.3c-1.1,0.4-2.1-0.2-2.6-1.2c-0.7-1.5-1.5-2.9-2.2-4.4c-1.5-2.8-3.1-5.6-4.6-8.5c-0.2-0.4-0.5-0.7-0.8-1.4
		c-0.2,1-0.3,1.7-0.4,2.5c-0.2,1.2-0.4,2.4-0.6,3.6c-0.1,0.6-0.2,1.2-0.4,1.8c-0.1,0.3-0.5,0.6-0.7,0.9c-0.1,0.1-0.3,0.3-0.3,0.5
		c-0.3,1.7-0.7,3.4-0.5,5.2c0,0.3,0,0.7,0,1c-0.2,1.4-0.7,1.7-2.1,1.4c-1-0.2-1.6-1.3-1.4-2.3c0.4-2.7,0.8-5.4,1.3-8.1
		c0.3-1.7,0.5-3.4,0.8-5.1c0.1-0.8,0.2-1.7,0.1-2.6c-0.2,0.3-0.5,0.6-0.7,0.8c-1.4,1.8-2.8,3.6-4.2,5.4c-0.5,0.7-0.9,1.5-1.4,2.2
		c-0.3,0.4-0.6,0.9-1,1c-0.7,0.1-1.1-0.5-1.4-1c-0.4-0.8-0.2-1.7,0.3-2.4c1.2-1.6,2.5-3.2,3.7-4.8c1-1.3,2-2.5,3-3.8
		c0.1-0.1,0.2-0.3,0.3-0.5c-1.1-0.2-2.1-0.6-3.2-0.7c-1.4-0.2-2.1-0.7-2.4-1.8c-0.2-0.8-0.1-1.7,0.6-2c0.6-0.3,1.5-0.2,2.1,0.1
		c1.2,0.7,2.4,1.3,3.8,1.6c0.2,0.1,0.5,0.1,0.9,0.2c-0.7-1.5-1.4-2.8-2.1-4c-0.9-1.7-1.9-3.4-2.9-5c-0.4-0.6-0.9-1.1-1.4-1.7
		c-0.6-0.7-0.7-1.9-0.1-2.5c0.2-0.2,0.5-0.3,0.8-0.3c0.9-0.1,1.7,0.5,2.2,1.4c1.4,2.7,2.9,5.4,4.4,8.1
		C129.2,25,129.3,25.1,129.4,25.3z"/>
	<path fill="#1D1D1B" d="M71,17.3c1.2-1.3,2.3-2.5,3.4-3.8c2.1-2.2,4.3-4.4,6.5-6.6c1.1-1.1,3.6-1.2,4.7-0.1
		c0.5,0.4,0.8,1.3,0.8,1.9c0,3.5-1,6.8-2,10.1c-1.5,4.8-3,9.6-3.8,14.6c-0.3,2.2-0.3,4.4-0.5,6.7c-0.1,1.1,0,2.2-0.1,3.3
		c-0.1,1.2,0.5,1.9,1.3,2.7c0.5,0.5,0.9,1,1.2,1.5c0.4,0.6,0.3,1.3-0.2,1.9c-0.5,0.5-1,0.6-1.6,0.4c-0.2-0.1-0.5,0-0.7,0.1
		c-0.8,0.7-1.6,0.4-2.4,0.2c-0.4-0.1-1-1.9-0.9-2.5c0.4-1.5,0.2-2.7-0.9-3.8c-2-2.1-3.9-4.3-5.9-6.5c-1.8-2-3.5-3.9-5.3-5.9
		c-2.6-2.8-5.2-5.6-7.8-8.5c-1.7-1.9-3.3-4.1-3.9-6.7c-0.3-1.4-0.3-3-0.3-4.5c0-1.2,1.6-1.9,3.1-1.8c2.2,0.2,4.2,1.1,6.2,1.9
		c2.8,1.2,5.3,2.8,7.7,4.5C70.2,16.9,70.6,17,71,17.3z M77,41.4c0.1,0,0.2,0,0.3,0c0-1.1-0.1-2.1,0-3.2c0.1-1.4,0.4-2.8,0.6-4.2
		c0.1-0.8,0.2-1.6,0.4-2.4c0.6-2.5,1.2-5,1.9-7.5c0.5-2.1,1.1-4.1,1.6-6.2c0.6-2.5,1.1-4.9,1.7-7.4c0.1-0.4-0.1-0.9-0.2-1.3
		c-0.4,0.1-0.9,0.3-1.3,0.4c-0.1,0-0.2,0.2-0.3,0.3c-0.7,0.7-1.3,1.4-2,2.1c-1.8,2.1-3.7,4.1-5.4,6.3c-0.4,0.5-0.6,1.4-0.6,2.1
		c0,0.5,0.1,1,0,1.5c-0.3,1-1.6,2-2.6,2c-0.1,0-0.3-0.1-0.3-0.2c-0.9-1.3-1.8-2.6-2.5-4.1c-0.5-1-1.1-1.8-2-2.4
		c-1.7-0.9-3.4-2-5.1-2.8c-1.4-0.6-3-1-4.5-1.4c-0.5-0.1-0.7,0.2-0.7,0.6c-0.1,1.6,0.2,3.1,1,4.4c1,1.6,2.1,3.1,3.3,4.6
		c1.8,2.1,3.6,4.2,5.5,6.3c2.4,2.6,4.8,5.2,7.2,7.8C74.3,38.4,75.7,39.9,77,41.4z"/>
	<path fill="#1D1D1B" d="M17,40.1c0.1-0.6,0-1.2,0.2-1.8c0.3-0.9,0.4-1.9,0.5-2.9c0.1-1.3,0.5-2.6,0.8-3.9c0.4-1.7,0.7-3.3,1.1-5
		c0.6-2.3,1.4-4.5,1.9-6.8c0.2-1,0.7-2,0.8-3.1c0.1-1.4,0.7-2.7,1.1-4c0.1-0.3,0.3-0.6,0.3-1c0.1-0.9,0.4-1.5,1.4-1.9
		c-0.3-0.2-0.5-0.3-0.6-0.5c0.5-1.7,1.1-3.5,1.6-5.2c0.6-0.2,1.3,0.2,1.7-0.4c0.1-0.1,0.3,0,0.4,0c0.4,0.1,0.6,0,0.8-0.4
		c0.1-0.2,0.4-0.2,0.7-0.4c0.2-0.1,0.3-0.3,0.4-0.4c-0.2,0-0.3,0-0.5-0.1c-0.1,0-0.3-0.1-0.3-0.2c-0.1-0.6-0.5-0.8-1-0.8
		c-0.1,0-0.3-0.1-0.4-0.2c-0.2-0.1-0.5-0.2-0.5-0.1c-0.2,0.2-0.3,0.5-0.3,0.6c0.1,0.4,0,0.5-0.4,0.5c-0.1,0-0.2,0-0.3,0.1
		c-0.2,0.1-0.6,0.4-0.7,0.3c-0.6-0.3-1.4-0.5-1.5-1.4C24.2,0.9,23.3,0,22.8,0c-0.6,0-1.3,0.2-1.9,0.4c-0.8,0.3-0.8,1-0.9,1.7
		c-0.2,1.2-0.4,2.4-0.6,3.6C19.3,6.9,19.2,8,19,9.2c-0.2,0.9-0.4,1.7-0.6,2.6c-0.3,1.3-0.6,2.6-1.1,3.7c-0.5,1-0.7,2-0.8,3.1
		c-0.2,1.7-0.8,3.4-1.3,5.1c-0.5,1.9-1,3.9-1.5,5.8c-0.4,1.6-0.8,3.2-1.1,4.7c-0.2,0.9-0.2,1.9-0.4,3c-0.3-0.5-0.6-0.9-0.8-1.2
		c-1.3-2-2.6-4-3.9-6c-0.9-1.3-1.8-2.6-2.7-4c-0.2-0.3-0.3-0.7-0.4-1c-0.3-1-1.5-1.8-2.5-1.5c-0.4,0.1-0.8,0.2-1.1,0.4
		c-0.9,0.6-1.1,1.6-0.2,2.5c0.8,0.7,1.1,1.7,1.7,2.5c0.1,0.1,0.1,0.2,0.1,0.2c1,1.3,2,2.5,2.9,3.8c0.5,0.7,0.8,1.5,1.2,2.2
		c1.2,2,2.4,4,3.5,6c0.6,1,1,2.2,1.4,3.3c0.3,0.6,0.3,1.5,0.7,1.9c0.9,1,0.8,2.3,1.3,3.5c0.4,0.9,0.8,1.7,1.2,2.6
		c0.4,0.8,0.9,1.4,1.6,1.9c0.5,0.3,1.6,0.3,2,0c0.9-0.7,1-1.5,0.6-2.6c-0.2-0.7-0.3-1.5-0.3-2.3c0-2.6,0.9-5,1.4-7.4
		c0.3-1.3,1.1-2.6,1.6-3.9c0.2-0.4,0.3-0.8,0.5-1.1c0.4-0.6,0.8-1.1,1.2-1.7c0.6-0.8,1.2-1.7,1.8-2.6c0.2-0.2,0.4-0.6,0.3-0.8
		c-0.2-0.5-0.4-1.1-0.8-1.3c-1.3-0.7-2.6-0.6-3.4,1c-0.5,1.1-1,2.2-1.5,3.2c-0.8,1.7-1.7,3.5-2.6,5.2C17.1,40.1,17.1,40.1,17,40.1z"
		/>
</g>
</svg>
