<?xml version="1.0" encoding="utf-8"?>
<!-- Generator: Adobe Illustrator 18.1.1, SVG Export Plug-In . SVG Version: 6.00 Build 0)  -->
<svg version="1.1" id="Layer_1" xmlns="http://www.w3.org/2000/svg" xmlns:xlink="http://www.w3.org/1999/xlink" x="0px" y="0px"
	 viewBox="0 0 270.6 56.8" enable-background="new 0 0 270.6 56.8" xml:space="preserve">
<g>
	<path d="M171.3,21.2c0.4,1,0.7,1.9,1.1,2.9c0.3,0.7,0.6,1.4,0.9,2.1c0.3,0.9,0.7,1.7,1.3,2.4c0.8,0.9,0.7,1.9,0.1,2.9
		c-0.5,0.9-1.4,1.3-2.3,1.3c-0.5,0-1-0.2-1.4-0.5c-0.6-0.4-1.1-0.9-1.4-1.6c-1-2-1.9-4.1-2.6-6.3c-0.3-1-0.8-2-1.7-2.7
		c-0.8-0.7-1-1.7-0.9-2.7c0.2-1.5,0-2.9-0.7-4.2c-0.1-1.2-0.6-2.4-1-3.6c-0.2-0.8-0.5-1.6-0.8-2.3c-0.1-0.2-0.3-0.4-0.4-0.6
		c-0.8-0.1-1.4,0.3-1.8,0.8c-0.8,0.9-1.8,1.1-2.9,1.2c-0.3,0-0.7-0.1-0.9-0.2c-0.7-0.6-1.3-1.2-1.6-2.1c-0.2-0.7-0.2-1.4,0.4-2
		c1.6-0.6,3.3-1.3,5.1-1.9c0-0.3,0-0.7-0.1-1c-0.1-0.3-0.2-0.6-0.3-0.9c-0.4-1.1-0.4-1.1,0.5-2.2c0.4,0,1-0.1,1.4,0
		c1,0.3,1.9,0.3,2.9,0.3c0.9,0.6,0.7,1.6,1.3,2.4c0.4,0.2,0.9,0,1.4-0.1c1.1-0.2,2.1-0.4,3.2-0.7c2.4-0.7,4.9-0.9,7.3-0.9
		c1.2,0,2.5,0.1,3.6,0.6C182,2,183,2,183.8,2.5c0.7,0.4,1.4,0.8,1.9,1.2c1.2,0.9,1.2,2.2,0.7,3.3c-0.3,0.7-0.7,1.4-1.2,1.9
		c-0.8,0.9-1.6,1.7-2.5,2.5c-1.2,1-2.4,1.9-3.6,2.9c-0.2,0.2-0.3,0.3-0.6,0.6c0.3,0,0.4,0.1,0.6,0.1c1.9-0.3,3.9-0.2,5.9-0.3
		c1.4,0,2.8,0.2,4.1,0.6c1.5,0.4,3,0.8,4.4,1.7c0.3-0.8,0.4-1.6,0.4-2.3c0.1-3.7,1.2-7.1,3.6-9.9c0.3-0.4,0.6-0.8,1-1.2
		c0.1-0.4-0.3-0.7-0.4-1.1c-0.3-0.9,0.3-1.7,1.2-1.5c1,0.2,1.9,0.1,2.9-0.1c0.3-0.1,0.6,0,0.9,0c1,0.2,1.9,0.4,2.7,0.6
		c0.9,0.7,0.7,1.5,0.4,2.4c0.2,0.3,0.5,0.6,0.7,0.8c0.6,0.5,1.1,0.9,1.7,1.3c2.3,1.7,4,3.9,5.4,6.3c1.1,1.9,1.8,4,2.1,6.3
		c0.3,2.7-0.1,5.3-0.9,7.9c-0.4,1.5-1.2,2.7-2.2,3.8c-0.6,0.7-1.4,1.1-2.4,1.4c-2.4,0.6-4.7,0-6.9-0.8c-1.8-0.7-3.5-1.8-5.1-2.9
		c-0.7-0.5-1.4-1.1-2-1.6c-0.2-0.1-0.3-0.2-0.5-0.4c-1,1.4-2.2,2.5-3.6,3.4c-0.9,0.6-1.7,1.1-2.6,1.6c-2,1.1-3.9,2.2-6,3.2
		c-0.8,0.4-1.7,0.7-2.6,1c-1.9,0.7-3.9,1.2-6,1.6c-1.4,0.3-2.7,0.1-4-0.2c-0.3-0.1-0.6-0.3-0.9-0.5c0-0.5-0.1-0.9-0.1-1.4
		c0.1-0.1,0.2-0.2,0.4-0.3c0.7-0.4,1.5-0.4,2.2-0.4c1.2,0,2.3-0.4,3.5-0.8c1.2-0.4,2.4-0.9,3.6-1.4c2-0.7,3.8-1.7,5.5-2.8
		c1.3-0.8,2.6-1.4,3.8-2.4c0.5-0.4,0.9-0.8,1.4-1.2c1.5-1.3,1.8-3.7,0.1-5.5c-0.6-0.7-1.4-1.3-2.3-1.5c-1.6-0.5-3.2-0.7-4.9-0.5
		c-1.7,0.3-3.5,0.4-5.2,0.7c-1.5,0.3-3,0.5-4.5,1C173,19.7,171.9,19.9,171.3,21.2z M202.7,6.6c-0.6,0.1-1,0.3-1.4,0.7
		C200.5,8,200,9,199.5,9.9c-0.9,1.9-1.2,3.9-1.3,6c-0.1,2,0.4,4,1,5.9c0.7,2.3,2.1,4.1,4.3,5.2c0.7,0.4,1.4,0.8,2.2,1.2
		c0.6,0.4,1.3,0.6,2,0.4c1.3-0.6,2.1-1.6,2.6-2.8c0.7-2,1.2-4.1,1.1-6.2c-0.1-2.7-1.1-5.2-2.7-7.4c-1.1-1.4-2.3-2.8-3.7-3.9
		c-0.2-0.2-0.4-0.3-0.6-0.5C203.9,7.3,203.4,6.9,202.7,6.6z M169.9,16.1c0.7-0.5,1.2-0.9,1.8-1.4c0.2-0.2,0.4-0.4,0.7-0.6
		c1.3-0.9,2.6-1.9,3.9-2.8c1.6-1.1,2.9-2.5,4.2-3.8c0.5-0.5,0.9-1.1,1-1.9c-0.7-1-1.9-0.7-2.7-1.3c-1.3,0-2.7-0.1-4,0.2
		c-2.4,0.5-4.8,1.1-7.2,1.6c-0.3,0.1-0.5,0.3-0.8,0.4C167,8.2,169.2,14.8,169.9,16.1z"/>
	<path d="M224.4,16.4c0.6,0.5,1.3,1,1.4,1.9c0,0.2,0.2,0.4,0.1,0.6c-0.2,0.7,0.1,1.3,0.4,1.9c0.4,1,0.8,2,1.3,3c1,1.7,2,3.4,3.2,4.9
		c0.4,0.5,0.8,0.9,1.3,1.4c0.2-0.3,0.4-0.5,0.5-0.7c0.2-0.8,0.5-1.7,0.5-2.6c0.1-1.5,0-3-0.3-4.5c-0.5-2.2-1-4.4-1.6-6.6
		c-0.4-1.4-1-2.7-1.5-4c-0.6-1.5-1.3-3-1.9-4.6c-0.1-0.2-0.2-0.4-0.2-0.6c-0.1-0.5-0.1-0.9-0.1-1.3c0.4-0.6,0.9-0.8,1.5-0.7
		c1.1,0.3,2.2,0.3,3.2,0.3c0.7,0.7,0.5,1.7,1.4,2.1c1.3-0.1,2.6-0.3,4-0.4c1.2,0,2.4,0.1,3.5,0.1c2.8,0,5.6,0,8.3-0.2
		c2.1-0.2,4.2-0.5,6.3-0.7c0.2,0,0.4,0,0.6-0.1c1.9-0.4,3.8-0.9,5.7-1.2c1.2-0.2,2.4-0.6,3.5-1.1c0.7-0.4,1.4-0.3,2.1-0.2
		c0.6,0.1,1.1,0.2,1.7,0.4c0.8,0.2,1.3,0.6,1.3,1.3c0.1,0.8-0.4,1.6-1.2,1.8c-0.3,0.1-0.7,0.1-1.1,0.2c-0.4,0.1-0.8,0.1-1.2,0.1
		c-3.6,0.8-7.3,1.2-10.9,1.9c-1,0.2-1.9,0.2-2.9,0.4c-0.3,0-0.6,0.1-0.9,0.2c0,0.6,0,1,0,1.5c0,0.5,0,0.9,0.1,1.4
		c0.5,2.6,0.6,5.2,0.9,7.8c0.3,2.7,0.4,5.4,0.3,8.2c0,1.1,0.1,2.3,0.1,3.4c0,0.9-0.2,1.7-0.5,2.6c-0.4,0.2-0.8,0.4-1.2,0.6
		c-0.6,0.3-1.1,0.2-1.6-0.2c-0.6-0.4-1.1-0.9-1.6-1.2c-0.5-1-0.5-1.8-0.4-2.7c0-0.3,0.1-0.5,0-0.8c0-2.6-0.1-5.2-0.3-7.9
		c-0.2-1.8-0.3-3.7-0.4-5.5c-0.1-1.2-0.4-2.3-1-3.4c-0.5-1-1-2-1-3.3c-0.4,0-0.7-0.1-0.9-0.1c-1.6,0.1-3.3,0.1-4.9,0.3
		c-1.5,0.2-3.1,0.4-4.4,1.3c-0.1,0.1-0.2,0.2-0.4,0.3c0.3,0.9,0.6,1.9,0.9,2.8c0.4,1.1,0.7,2.2,1,3.4c0.1,0.6,0.3,1.1,0.4,1.6
		c0.4,1.8,0.7,3.6,0.9,5.5c0.2,2.1-0.3,4.2-1,6.2c-0.1,0.3-0.3,0.6-0.5,0.9c-0.4,0.7-0.8,1.3-1.3,2c-0.6,0.2-1.3,0.3-1.8,0.5
		c-0.2,0-0.3,0-0.3-0.1c-2.6-0.4-4.3-2.1-5.9-4c-2.6-3.1-4.5-6.5-6.2-10.1c-0.7-1.4-1.3-2.8-1.9-4.2c-0.6-1.4-1-2.8-1.5-4.2
		c-0.4-1-0.7-2-1.2-2.8c-0.5-0.9-0.6-1.7-0.5-2.6c0.6-0.8,1.3-1,2.2-0.7c0.9,0.2,1.9,0.4,2.7,0.6c0.7,0.6,0.9,1.2,0.9,1.9
		c0.2,1.8,0.8,3.5,1.3,5.2C223.7,14.6,224.1,15.5,224.4,16.4z"/>
	<path d="M45.8,23.4c-0.1,0.9,0.2,1.8,0.6,2.7c0.9,1.9,1.7,3.8,2.6,5.7c1.2,2.6,2.5,5.1,3.8,7.6c0.6,1.3,1.3,2.6,2.1,3.8
		c0.3,0.6,0.8,1.1,1.2,1.6c0.5,0.7,1,1.3,1.5,1.9c-0.1,0.6-0.2,1.2-0.2,1.7c-0.7,1-1.7,0.6-2.6,0.8c-0.6-0.3-1.1-0.5-1.8-0.8
		c-0.7-1.2-1.4-2.4-2-3.7c-0.3-0.5-0.5-1-0.8-1.5c-1.3-2-2.3-4.2-3.4-6.2c-0.6-1.1-1.2-2.3-1.8-3.4c-0.6-1.1-1.1-2.2-1.6-3.3
		c-0.4-0.8-0.9-1.6-1.4-2.5c-0.3,0.2-0.5,0.4-0.7,0.6c-1.8,2.1-3.5,4.2-5.5,6c-0.2,0.2-0.4,0.5-0.6,0.7c-0.4,0.4-0.5,1-0.5,1.6
		c0.2,1.9,0.6,3.8,1,5.6c0.2,0.7,0.3,1.5,0.5,2.2c0.3,1.1,0.7,2.3,1.1,3.4c0.1,0.3,0.4,0.6,0.6,1c0.1,0.9,0.2,1.8,0.3,2.7
		c0.1,1.1-0.3,1.9-1.3,2.3c-0.1,0-0.2,0.1-0.3,0.1c-0.4,0-0.8,0-1.3-0.1c-0.5-0.4-1.1-0.8-1.7-1.2c-0.4-0.6-0.6-1.2-0.7-1.9
		c-0.3-1.8-0.7-3.6-1.2-5.4c-0.5-1.7-0.8-3.4-1.2-5.1c-0.1-0.5-0.2-1-0.3-1.5c-1.4-0.6-2.7-1.4-2.9-3.2c0.2-1.1,1.5-1.1,2-2.2
		c0-0.2,0.1-0.5,0-0.8c-0.6-3.2-0.7-6.4-1.3-9.7c-0.5,0.1-0.9,0.2-1.2,0.2c-0.4,0-0.8,0-1.2-0.1c-0.3-0.1-0.6-0.3-0.9-0.6
		c-0.3-0.3-0.5-0.6-0.8-1c-0.1-0.6-0.2-1.2-0.2-1.8c0-0.3,0-0.5,0-0.8c0.9-0.9,1.8-1.9,2.7-2.7c0.6-0.5,1.1-1,1.5-1.5
		c0.3-0.3,0.6-0.6,1-0.6c1.2-0.1,2.1-0.8,3.1-1.2c1.2-0.6,2.4-1.1,3.6-1.7c0.9-0.4,1.7-0.9,2.7-1c2-0.3,3.9-0.7,6-0.4
		c1.8,0.2,3.4,0.7,5,1.5c0.5,0.3,1,0.6,1.4,0.9c1,0.7,1.2,1.7,0.9,2.9c-0.3,1-0.7,1.9-1.4,2.7C48.8,19.7,47.4,21.5,45.8,23.4z
		 M39.7,23.8c0.1-0.4,0.2-1,0.4-1.6c0.1-0.4,0.3-0.7,0.7-0.8c0.9-0.2,1.4-0.8,1.9-1.5c0.9-1.1,1.7-2.2,2.5-3.3
		c0.2-0.3,0.5-0.7,0.6-1.1c0.1-0.3,0.1-0.7,0.1-1c-0.2,0-0.4,0-0.5,0c-0.2-0.9-0.3-1-0.9-1.1c-0.3-0.1-0.7-0.1-1.1-0.1
		c-1.7,0.1-3.4,0.4-4.9,1.1c-1.1,0.5-2.2,1-3.3,1.6c-0.5,0.2-0.9,0.6-1.3,0.8c-0.8,0.6-1.3,1.3-1.3,2.3c0,0.6,0,1.2,0,1.9
		c0,2.8,0.4,5.5,0.8,8.3c0,0.2,0.2,0.4,0.3,0.7c0.7-0.3,1.2-0.8,1.5-1.4c0.3-0.4,0.6-0.7,0.9-1.1c0.6-0.6,1.2-1.3,1.8-1.9
		C38.4,25.1,39,24.5,39.7,23.8z"/>
	<path d="M120.7,17c0.3,0.4,0.6,0.8,0.8,1.1c1.6,1.6,3.1,3.3,4.7,4.9c3.4,3.5,6.6,7.2,9.4,11.2c0.1,0.2,0.3,0.4,0.4,0.6
		c0.5,1.4,1.7,2.3,2.7,3.4c0.8,0.3,1.1,1,1.5,1.8c0,0.5,0.1,1,0.1,1.5c-0.5,1.1-1.4,1.3-2.5,1.1c-0.6-0.1-1.2-0.3-1.8-0.4
		c-1-1.3-2-2.6-2.9-3.9c-1.4-2.1-2.9-4.1-4.6-6c-1.2-1.4-2.3-2.8-3.5-4.1c-0.1-0.2-0.3-0.3-0.5-0.4c-0.3,0.1-0.6,0.2-0.8,0.3
		c-0.3-0.3,0.1-0.7,0-1.1c-1.7-2.3-4-4.1-6-6.2c-1.2,1-1.9,2.2-2.8,3.2c-0.9,1-1.7,2-2.6,3.1c0.1,0.4,0.1,0.8,0.2,1.2
		c1,2.9,1.9,5.9,2.9,8.8c0.2,0.7,0.4,1.4,0.8,2c0.4,0.7,0.4,1.5,0.2,2.3c-0.4,0.5-1,0.7-1.5,1c-0.8,0-1.5-0.3-2.2-0.5
		c-0.8-0.2-1.2-0.7-1.5-1.4c-0.2-0.6-0.4-1.2-0.5-1.9c-0.1-0.7-0.2-1.4-0.5-2.1c-0.9-2.7-1.8-5.5-2.6-8.2c-0.8-2.6-1.4-5.2-1.8-7.8
		c-0.2-1.2-0.5-2.3-0.7-3.5c-0.5-2.6-1.1-5.2-1.6-7.9c-0.2-1.3-0.3-2.5-0.5-3.8c-0.1-0.7-0.2-1.3-0.2-2c-0.1-0.8,0.2-1.2,1-1.5
		c0.8-0.3,1.5-0.2,2.3,0c1,0.2,1.3,0.4,2.1,1.2c0,0.5,0,1-0.1,1.5c-0.3,1.2-0.2,2.4,0,3.5c0.7,3.7,1.4,7.4,2.1,11.1
		c0.1,0.6,0.2,1.3,0.6,1.8c0.5,0.1,0.7-0.2,0.9-0.5c0.7-0.8,1.4-1.6,2.1-2.4c0.6-0.6,0.7-1.4,0.9-2.1c0.1-0.1,0.2-0.2,0.4-0.3
		c1.1-0.4,1.8-1.1,2.5-2c2-2.5,3.7-5,5-7.9c0.4-0.9,1-1.7,1.5-2.5c0.2-0.4,0.6-0.5,1.1-0.4c0.8,0.2,1.7,0.4,2.5,0.7
		c0.7,0.2,1.1,0.7,1.2,1.6c-0.8,1.3-1.7,2.7-2.6,4c-0.9,1.4-1.8,2.8-2.8,4.1C122.8,14.3,121.8,15.6,120.7,17z"/>
	<path d="M57.3,21.7c-0.4,0.2-0.9,0.3-1.3,0.5c-0.7,0.5-1.4,0.5-2.2,0.3c-0.8-0.3-1.4-0.8-1.6-1.7c0-0.1-0.1-0.2-0.1-0.4
		c0-0.2,0.1-0.4,0.1-0.7c0.1-0.7,0.5-1.1,1.1-1.4c0.6-0.3,1.3-0.7,1.9-1.1c0.6-0.3,1.1-0.7,1.7-1c0.1-0.4,0.1-0.8,0.2-1.3
		c-0.7-1.1-0.5-2.3-0.4-3.6c0.4-0.4,0.8-0.7,1.2-1.1c2-0.1,3.6,0.7,5.2,2c0.5-0.3,1-0.6,1.5-0.9c1.8-1.4,3.7-2.8,5.3-4.4
		c0.7-0.7,1.5-1.3,2.2-2c0.6-0.5,1.2-0.7,2-0.4C74.8,4.8,75.5,5,76,5.3c0.5,0.3,1.1,0.7,1.2,1.4c0,0.6-0.4,1-0.7,1.3
		c-0.7,0.6-1.4,1.3-2.3,1.8c-0.8,0.5-1.5,1-2.2,1.6c-1.2,1-2.5,1.9-3.8,2.9c-1.6,1.1-3.2,2.3-4.8,3.4c-0.4,0.3-0.6,0.7-1,1
		c0.1,1.5-0.1,3.1,0.2,4.5c0.3,0.3,0.5,0,0.8-0.1c2.6-1.4,5.1-2.9,7.4-4.7c0.8-0.6,1.7-1,2.7-0.8c0.4,0,0.7,0.1,1,0.2
		c0.6,0.3,1.2,0.6,1.8,0.8c0.1,0.4,0.1,0.7,0.2,0.9c-0.1,0.2-0.2,0.3-0.3,0.4c-0.7,0.5-1.3,1-2,1.5c-3.1,2-6.1,4-9.2,6
		c-0.7,0.4-1.3,1-2.1,1.5c0.1,2.7,0.3,5.6,0.9,8.3c0.8,0.2,1.5,0,2.2-0.2c2.3-0.8,4.6-1.2,7-1.1c0.2,0,0.3,0,0.6,0
		c0.7,0.3,1.4,0.6,2.2,0.9c0.8,0.4,1.1,1,1.1,1.8c-0.5,0.7-1.3,0.8-2.1,0.9c-1,0.1-2.1,0.1-3.1,0.2c-1.5,0.2-2.9,0.6-4.3,1.2
		c-1,0.4-2.1,1-3.1,1.3c-2,0.6-4.2-0.2-4.8-2.6c-0.3-1.2-0.6-2.5-0.7-3.8c-0.2-1.8-0.3-3.6-0.5-5.4c-0.1-0.9-0.2-1.7-0.7-2.5
		c-0.5-0.8-0.7-1.7,0-2.6c0.1-0.1,0.2-0.4,0.2-0.6c0-0.9,0-1.9-0.1-2.8C57.6,22,57.4,21.9,57.3,21.7z"/>
	<path d="M95.6,26.3c-0.7,0.3-1.2,0.5-1.7,0.7c-1.6,0.8-3.2,1.3-5,1.6c-0.8,0.1-1.6,0-2.5,0c-0.2,1.8,0,3.5,0.2,5.3
		c0.1,1.7,0.8,3.3,1.3,4.9c-0.2,0.8-0.8,1.4-1.4,1.8c-0.6,0.4-1.2,0.2-1.8,0.2c-0.8-0.8-1.6-1.6-2.5-2.4c-0.1-1.6-0.3-3.2-0.4-4.8
		c-0.1-2.5-0.1-5,0-7.6c0-1.5,0.1-3,0.4-4.4c0.5-2.4,1.1-4.8,1.9-7.2c0.6-1.6,0.8-3.4,1-5.1c0.2-1.2,0.4-2.3,0.3-3.5
		c-0.1-0.9,0.3-1.7,0.8-2.5c0.3-0.1,0.6-0.2,1-0.3c0.7-0.2,1.3-0.1,1.9,0.3c0.5,0.3,1.1,0.6,1.7,0.8c0.6,0.2,0.9,0.6,1.1,1.2
		c0.3,1,0.6,2,1.1,2.9c0.5,1,1.1,2,1.6,3c0.5,1,1.1,2,1.5,3c1.1,2.9,2.2,5.7,3,8.8c0.6,2.4,1.6,4.7,2.4,7c0.5,1.5,1.1,3,1.6,4.5
		c0.3,0.8,0.7,1.6,1.1,2.4c0.5,1,0.5,1.9-0.3,2.8c-0.6,0.1-1.3,0.3-1.9,0.5c-0.7-0.2-1.3-0.5-2-0.7c-0.2-0.3-0.4-0.7-0.6-1.2
		c-0.5-1.6-1.2-3.1-1.3-4.7c-0.1-0.6-0.2-1.1-0.4-1.6c-0.5-1.5-1-2.9-1.5-4.4C96.1,27,95.9,26.7,95.6,26.3z M86.6,25.3
		c0.4-0.1,0.8-0.1,1.1-0.2c2-0.8,4-1.7,5.9-2.7c0.2-0.1,0.4-0.3,0.6-0.4c-0.8-3.3-3.4-9.8-4.6-11c-0.1,0.3-0.3,0.6-0.3,0.9
		c-0.4,1.5-0.7,3-1,4.5c-0.4,1.6-0.9,3.3-1.3,4.9C86.7,22.5,86.3,23.8,86.6,25.3z"/>
	<path d="M145.3,1.2c2.1-0.6,3.4,0.3,4.4,1.7c0.1,0.1,0.1,0.2,0.2,0.2c0.5,0.7,0.9,1.5,1.4,2.2c2,3.3,4,6.8,5.7,10.3
		c0.3,0.6,0.6,1.2,0.9,1.8c0.7,0.2,1.4,0.4,2.1,0.5c0.5,1,0.2,1.9-0.4,2.9c0.2,0.4,0.3,0.8,0.5,1.3c0.3-0.3,0.6-0.5,0.9-0.8
		c0.4,0,0.9,0.1,1.3,0.1c0.4,0.4,0.7,0.8,1,1.2c-0.8,1.4-0.8,1.5-2.2,1.4c0.1,0.2,0.1,0.4,0.1,0.6c0.8,1.8,1.3,3.7,2.5,5.3
		c0.4,0.6,0.5,1.3,0.3,2.1c-0.5,0.7-1.2,1.1-2,1.3c-0.9,0.2-1.7-0.2-2.5-0.5c-0.7-0.3-1.1-1-1.4-1.8c-0.3-1-0.5-2-0.7-3
		c0-0.1,0-0.3,0-0.5c-0.6-1.6-1.2-3.2-1.9-4.7c-0.1-0.1-0.2-0.2-0.4-0.3c-1.4,0.2-2.6,1-3.9,1.4c-1.3,0.4-2.5,0.9-3.9,1.3
		c-0.1,0.2-0.2,0.5-0.2,0.8c-0.2,2.5-0.5,4.9-0.8,7.4c0,0.3-0.1,0.6,0,0.9c0.1,1.8-0.4,2.5-2.2,3c-0.1,0-0.2,0-0.3,0.1
		c-1.4-0.5-1.8-0.8-2.7-2.1c-0.2-1-0.1-2,0.2-3.1c0.5-2.3,0.9-4.5,1-6.9c0-0.2,0-0.3,0-0.5c-0.1-2.1,0.5-4.2,0.6-6.3
		c0-0.2,0.1-0.4,0.1-0.6c0.2-3.3,0.5-6.7,0.3-10c0-0.5-0.1-0.9-0.2-1.4c-0.1-0.5-0.1-1-0.2-1.5c-0.1-1,0.2-1.8,1.1-2.4
		c0.3-0.2,0.5-0.5,0.7-0.8C145,1.7,145.2,1.4,145.3,1.2z M153.3,18.4c-0.2-0.4-0.2-0.7-0.4-1c-1.1-2.2-2.3-4.4-3.4-6.6
		c-0.2-0.3-0.3-0.6-0.5-0.9c-0.1-0.1-0.3-0.2-0.5-0.4c-0.2,1.1-0.1,2-0.2,2.9c-0.1,1-0.1,1.9-0.2,2.9c-0.1,0.9-0.2,1.8-0.2,2.8
		c-0.1,0.9-0.3,1.9-0.2,3C149.7,20.4,151.5,19.6,153.3,18.4z"/>
	<path d="M7.7,18.3c0.4,4.5,1.2,8.7,2.2,13c0.3,1.2,0.3,2.4,0.9,3.6c0.3-0.1,0.5-0.1,0.7-0.2c1.3-0.7,2.6-1.5,3.9-2.3
		c0.5-0.4,1-0.9,1.4-1.4c1.1-1.1,2.4-1.5,4-1.2c0.4,0.1,0.8,0.3,1.1,0.5c0.2,0.1,0.3,0.3,0.6,1.1c-0.1,0.2-0.3,0.5-0.5,0.7
		c-1.4,1.8-3.2,3.2-5.2,4.3c-1.1,0.6-2.1,1.3-3.2,1.9c-0.6,0.4-1.3,0.7-1.9,1c0.5,2.7,0.9,5.3,1.5,8c0.5,2.7,0.9,5.4,1.2,8
		c-1,1.4-1.1,1.4-3.2,1.2c-0.2-0.2-0.5-0.4-0.8-0.6C9.3,55.6,9,54.8,9,53.8c0-1.2,0-2.5-0.2-3.7c-0.2-2.3-0.5-4.6-1-6.9
		c-0.1-0.3-0.2-0.6-0.2-0.9c-0.1-1.3-0.5-2.5-1.5-3.4c-0.1-0.1-0.2-0.4-0.3-0.6c0.1-0.7,0.3-1.4,0.5-2.4c-0.5-2.2-1-4.7-1.5-7.2
		c-0.5-2.5-1-4.9-1.4-7.4C2.6,21,2,20.8,1.4,20.4c-0.5-0.4-0.8-0.9-1.2-1.3c-0.1-0.2-0.1-0.3-0.1-0.4c-0.4-1.6,0.2-2.7,1.7-3.4
		C2,15.3,2.2,15.1,2.4,15c0.1-0.7,0.1-1.4,0.2-2.2c0.2-0.3,0.5-0.6,0.9-0.9c1.5-0.4,2.8,0.2,4.2,0.8c0.6-0.4,1.2-0.7,1.7-1.1
		c1.1-0.8,2.2-1.5,3.2-2.4c0.8-0.7,1.8-1.2,2.7-1.8c0.5-0.3,0.9-0.7,1.3-1.1c0.7-0.6,1.4-0.9,2.4-0.6c0.7,0.7,2.2,0.7,2.7,2
		c-0.1,0.6-0.4,1.1-0.9,1.4c-1.2,0.9-2.3,1.9-3.6,2.7c-1.2,0.7-2.3,1.5-3.5,2.3c-1.8,1.3-3.5,2.6-5.4,3.6C8.1,17.8,8,18,7.7,18.3z"
		/>
	<path d="M3.7,37.4c-0.5-0.3-0.7-0.7-0.5-1.2C3.5,36.6,3.8,36.9,3.7,37.4z"/>
</g>
</svg>
