<?xml version="1.0" encoding="utf-8"?>
<!-- Generator: Adobe Illustrator 18.1.1, SVG Export Plug-In . SVG Version: 6.00 Build 0)  -->
<svg version="1.1" id="Layer_1" xmlns="http://www.w3.org/2000/svg" xmlns:xlink="http://www.w3.org/1999/xlink" x="0px" y="0px"
	 viewBox="0 0 394.8 70.8" enable-background="new 0 0 394.8 70.8" xml:space="preserve">
<g>
	<path fill="#FFFFFF" d="M65.8,24.1c0.6,0,1.1-0.1,1.7-0.1c0,0.1,0,0.1,0,0.2c-0.2,0-0.3,0.1-0.6,0.1c0,0.2-0.1,0.5-0.2,0.9
		c0.4-0.1,0.7-0.2,1.1-0.3c0,0.1,0.1,0.3,0,0.3c-0.3,0.4-0.6,0.8-1.2,0.9c-0.2,0-0.3,0.2-0.4,0.5c0.7-0.2,1.4-0.2,1.8-0.8
		c0.3-0.4,0.7-0.5,1.1-0.1c0.1,0.1,0.5,0.1,0.7,0.2c-0.4,0.8-0.9,1.4-1.6,2c-1.9,1.6-4.1,2.7-6.1,4.1c-1.1,0.8-2.5,1.4-3.8,2.1
		c-1,0.5-1.9,1.1-2.9,1.6c-0.7,0.4-1.4,0.6-2.1,1c-0.7,0.3-1.3,0.6-2,0.9c-0.4,0.7-0.1,1.5,0,2.3c0.2,2.5,0.5,5.1,0.7,7.6
		c0.3,2.2,0.5,4.4,0.9,6.7c0.2,1.1,0.4,2.2,0.6,3.3c1.4,0.6,2.8,0.9,4.2,1.2c0.9,0.2,1.9,0.3,2.8,0.4c0.7,0,1.4-0.1,2.1-0.1
		c1.8-0.1,3.4-0.9,4.9-1.8c1,0.3,1.9,0.5,2.9,0.3c0.2,0,0.4-0.1,0.6-0.1c1-0.1,1.2,0,1.6,1c1,0.3,1.4,1.2,1.9,1.9
		c0.3,0.3,0.4,0.8,0.5,1.2c0.1,0.8-0.3,1.5-0.9,2c-0.8,0.7-1.7,1.2-2.8,1.7c-1.8,0.7-3.8,0.8-5.7,1.1c-1,0.2-2.1,0.4-3.2,0.4
		c-1.1,0-2.1,0-3.2-0.2c-1.5-0.2-2.9-0.6-4.4-0.9c-0.9-0.2-1.9-0.4-2.8-0.6c-1.3-0.3-2.6-0.6-3.9-1.2c-0.7-0.3-1.3-0.8-1.5-1.6
		c-0.3-0.9-0.5-1.9-0.8-2.9c-0.1,0-0.4,0-0.7,0c0-0.2-0.1-0.4-0.1-0.7c0.2,0,0.4,0,0.5,0c0.5-0.8,0.7-1.7,0.7-2.6
		c0-0.4-0.2-0.7-0.2-1.1c0-0.1-0.1-0.3-0.1-0.4c0.1-1.2-0.3-2.4-0.3-3.6c0-1.9-0.4-3.8-0.5-5.6c-0.1-1.3-0.3-2.6-0.5-3.8
		c-0.1-0.5,0-1-0.1-1.5c0-0.4,0-0.8-0.2-1.1c-0.1-0.3-0.3-0.6-0.6-0.6c-0.6-0.1-1.2,0-2,0c0.1,1.1,0.7,2,1.4,2.9
		c-0.2,0.8-0.5,1.8-0.8,2.7c-0.3,1-0.5,2-0.7,3c-0.9,4.2-2.7,8.1-5.3,11.5c-2.2,3-4.8,5.7-7.7,8.2c-1.7,1.5-3.6,2.6-5.7,3.5
		c-1.2,0.5-2.5,0.9-3.8,0.6c-0.4-0.1-0.8,0-1.2,0.1c-1.5,0.3-2.7,0.1-4.1-0.7c-1-0.6-1.9-1.3-2.8-1.9c-0.8-0.6-1.4-1.4-2-2.2
		c-0.4-0.5-0.8-1.1-1.2-1.6c-1.3-1.5-2-3.2-2.9-4.9c-0.9-1.6-1.5-3.3-1.8-5.1c-0.1-0.4-0.3-0.9-0.4-1.3c-0.2-0.4-0.3-0.9-0.5-1.3
		c-0.1-0.4-0.3-0.9-0.5-1.3c0-1.2-0.4-2.3-0.3-3.5c0.1-0.9-0.4-1.8-0.6-2.8c-0.2-0.7-0.3-1.4-0.5-2.1c0-0.4,0-0.8,0-1.2
		c0.1-1.6-0.4-3.1-0.2-4.6c0.1-0.6,0-1.3-0.2-1.9c-0.3-0.9-0.4-1.7-0.2-2.6c0-0.1-0.1-0.3-0.1-0.4c0.2-0.2,0.4-0.3,0.5-0.5
		c-0.3-0.9-0.2-1.7,0-2.6c0.2-1.2,0-2.5,0.2-3.8c0.2-1.4,0.6-2.8,0.9-4.2c0.3-1.3,0.7-2.6,1.1-3.8c0.2-0.8,0.5-1.5,0.9-2.2
		c0.8-1.6,1.6-3.2,2.4-4.9c0.2-0.4,0.3-0.8,0.5-1.3c0.3-0.2,0.6-0.4,1-0.7c-1,0-2.1,1-2.5,1.9C4.8,9.2,4.5,9.3,4.2,9.4
		C4.1,9.6,4,9.8,3.8,10c-0.1,0.2-0.2,0.5-0.5,0.7c0-0.2-0.1-0.3,0-0.5c0.8-1.7,2-2.9,3.6-3.9C8.4,5.6,9.8,4.9,11.1,4
		c1.4-1,3-1,4.5-0.4c1.1,0.4,2.2,0.8,3.2,1.6c0.4,0.3,1,0.4,1.4,0.6c0.8,0.4,1.5,0.9,2,1.7c0.2,0.4,0.7,0.5,1,0.9
		c1.2,1.2,2.3,2.4,3.4,3.6c0.3,0.3,0.5,0.6,0.7,0.9c1,1.1,1.9,2.4,2.6,3.8c0.6,1.1,1.4,2,1.8,3.2c0.3,1.1,0.8,2.1,1.1,3.2
		c0.4,1.6,0.7,3.2,1.1,4.8c0.2,0.7,0.5,1.3,0.6,1.9c0.1,0.4,0,0.8,0,1.2c-0.5,0.3-1,0.5-1.6,0.8c-0.8-0.3-1.6-0.7-2.5-1
		c-0.2,0-0.6,0.1-1,0.2c-0.2,0.3-0.5,0.6-0.7,0.9c-0.7-0.5-0.7-0.5-1-1.7c-0.5-0.2-0.8-0.5-0.9-1.1c-0.2-0.6-0.6-1.3-1.5-1.2
		c-0.3-1.3-0.5-2.5-0.7-3.8c0.1,0,0.1,0,0.2-0.1c0.2,0.3,0.3,0.7,0.5,1c0.1,0,0.1,0,0.2,0c0-0.2,0.1-0.4,0.1-0.6
		c-0.2-1.5-0.8-2.9-1.6-4.2c-0.1-0.2-0.5-0.3-0.7-0.4c-0.2-0.2-0.3-0.4-0.4-0.6c0.1,0,0.2,0,0,0c0.1-0.1,0-0.1,0,0
		c-0.5-0.2-0.7-0.8-0.9-1.2c-1-1.6-1.9-3.3-3.4-4.6c-0.8-0.7-1.6-1.4-2.5-2c-0.9-0.6-1.5-0.4-2.3,0.4c-1.8,2.2-2.9,4.8-4,7.4
		c-1,2.4-1.6,5-1.9,7.6c-0.3,2.3-0.5,4.6-0.5,6.9c0,2.8,0.1,5.7,0.4,8.5c0.3,2.6,0.7,5.1,1.2,7.6c0.4,1.9,0.9,3.8,1.6,5.6
		c0.5,1.2,0.8,2.6,1.6,3.6c0.9,1.2,1.8,2.3,2.8,3.4c0.8,0.9,1.8,1.2,3,1.3c0.3,0,0.5-0.1,0.8-0.2c1.5-0.7,2.8-1.7,4-2.8
		c1.3-1.3,2.6-2.6,3.9-4c0.3-0.3,0.4-0.7,0.7-1c1.2-1.6,2.5-3.3,3.3-5.1c0.6-1.4,1.3-2.7,1.5-4.3c0.1-0.6,0.3-1.2,0.6-1.9
		c-0.3-0.1-0.6-0.2-0.8-0.2c-0.5,0.1-1,0.3-1.5,0.5c-0.8,0.2-1.6,0.4-2.4,0.6c-0.3,0.1-0.7,0.1-1,0.3C26.2,46,25.4,46,24.6,46
		c-1,0-2,0.2-3.1,0.2c-0.7,0-1.5,0-2.2-0.3c0-0.9,1.1-0.8,1.2-1.7c-0.6-0.1-1.3-0.2-2.1-0.4c0.2-0.2,0.3-0.4,0.5-0.6
		c0.1-0.2,0.2-0.5,0.2-0.6c-0.5-0.3-1-0.5-1.5-0.8c0.7-0.3,1.3-0.5,1.8-0.7c0,0,0,0,0,0c0.2-0.1,0.4-0.1,0.5-0.2
		c0.9-0.8,2-1.1,3-1.7c1-0.6,2.2-0.9,3.3-1.3c1.1-0.4,2.2-0.7,3.2-1c1.7-0.5,3.5-0.9,5.2-1.6c0.8-0.3,1.7-0.3,2.5-0.5
		c0.8-0.2,1.5,0.3,2.1,0.8c0.7,0.5,1.3,1.2,1.9,1.8c0.2,0.2,0.4,0.3,0.7,0.6c0-1.4,0-1.4,1.2-1.8c0.3-0.1,0.5-0.3,0.8-0.4
		c-0.2-0.6-0.7-1-1.1-0.9c-0.7,0.2-1.1-0.3-1.9-0.3c0.6-1,1.7-0.5,2.2-1.1c0.4-0.8,0.8-1.5,1.1-2.3c0.1-0.3,0.1-0.6,0.1-0.9
		c0-1.2-0.2-2.4-0.1-3.5c0.1-1.1-0.1-1.9-1.4-2.4c0,0-0.2,0-0.5,0.1c-0.2-0.1-0.4-0.3-0.6-0.4c-0.5,0.4-1,0.5-1.6,0.3
		c-0.1-0.4-0.1-0.9-0.2-1.5c0.3-0.3,0.7-0.6,1.1-1c-0.1-0.1-0.3-0.2-0.4-0.3c0.1-0.6,0.2-1.2,0.3-2c0.9-1.2,1.6-2.6,3.1-3.4
		c0-0.5-0.1-0.9-0.1-1.3c0.4,0,0.7,0.1,1,0.1c0.7-0.6,1.7-0.8,2.1-1.9c0.2-0.5,0.8-0.8,1.4-0.7c1.1,0.1,1.9-0.4,2.7-1.1
		c0.3-0.2,0.6-0.4,1-0.7c0.7-1.3,2-2.2,3.3-3.1c0.2-0.1,0.4-0.2,0.6-0.4c1.1-0.7,1.1-0.7,2.4-0.4c0.4-0.2,0.9-0.4,1.2-0.7
		c0.7-0.6,1.4-0.8,2.3-0.4c0.2,0.1,0.4,0.1,0.7,0.2c0.1,0.4,0.1,0.7,0.2,1c0.9,0.8,1.8,1.5,2.5,2.3c0.3,0.4,0.2,1.1,0.3,1.6
		c-0.7,0.6-1.4,1.1-2,1.7c-1.8,1.8-4,3.2-6,4.8c-0.8,0.6-1.7,1.2-2.6,1.7c-1.1,0.6-2.1,1.4-2.9,2.3c-0.4,0.4-0.5,1.2-0.6,1.8
		c-0.2,1.7-0.4,3.4-0.5,5.1c0,0.2,0.1,0.4,0.1,0.7c0.4-0.1,0.7-0.2,1-0.3c0.9-0.4,1.9-0.7,3-1.2c0,0,0.1,0,0.2,0.1
		c0.9-0.4,1.6-0.7,2.4-1.1c1.5-0.8,3-1.6,4.5-2.4c0.9-0.5,1.8-0.9,2.9-0.8c0.4,0,0.9-0.2,1.4-0.3c0,0.1,0.1,0.2,0.1,0.2
		C66.3,23.5,66.1,23.8,65.8,24.1C65.8,24.2,65.8,24.2,65.8,24.1C65.8,24.2,65.8,24.1,65.8,24.1z M32.7,48.6
		C32.7,48.6,32.6,48.6,32.7,48.6C32.6,48.6,32.6,48.6,32.7,48.6C32.7,48.5,32.8,48.4,32.7,48.6C32.7,48.4,32.7,48.5,32.7,48.6z
		 M26.1,26.7c-0.1,0-0.1,0-0.2,0c-0.1,0.3-0.1,0.5-0.2,0.8c0.1,0,0.2,0,0.3,0C26,27.2,26,26.9,26.1,26.7z M68.2,26.5
		c0,0,0.1,0.1,0.1,0.1c0.1-0.1,0.2-0.2,0.4-0.4c0,0-0.1-0.1-0.1-0.1C68.5,26.2,68.4,26.3,68.2,26.5z M67.7,27c0-0.1,0.1-0.1,0.1-0.2
		c0,0-0.1-0.1-0.1-0.1c-0.1,0-0.1,0.1-0.1,0.1C67.6,26.9,67.7,26.9,67.7,27z"/>
	<path fill="#FFFFFF" d="M346.7,3.3c0.7-0.5,1.6-0.4,2.3-0.5c0.3-0.8,0.5-1.5,0.7-2.2c1.4-1,2.7-0.8,3.8,0.5c0.5,0.6,1.3,0.8,2,0.9
		c0.5,0.1,0.9,0.2,1.2,0.5c0.9,0.8,1.8,1.6,2.8,2.3c0.6,0.5,1.3,0.8,1.9,1.2c1.1,0.7,2.2,1.3,3.3,2c2,1.3,4.1,2.6,6,4.1
		c1.7,1.2,3.3,2.6,4.8,3.9c2.6,2.4,5,4.9,7.3,7.6c1.4,1.7,2.9,3.3,4.2,5.1c1.4,2,2.9,3.7,4,5.9c0.7,1.5,1.7,2.9,2.3,4.4
		c0.6,1.4,1.2,2.8,1.4,4.4c0,0.1,0.1,0.3,0,0.5c-0.1,2-0.5,3.9-1.3,5.7c-0.7,1.6-1.9,3-3.2,4.3c-1.8,1.8-3.9,3.4-5.9,5
		c-0.8,0.6-1.6,1.2-2.5,1.7c-1.9,1-3.7,2.3-5.8,2.8c-0.9,0.2-1.8,0.5-2.6,0.6c-1.8,0.2-3.7,0.3-5.6,0.3c-1.1,0-2.2-0.3-3.2-0.6
		c-0.6-0.2-1-0.6-1.5-0.9c-0.3-0.2-0.5-0.3-0.8-0.4c-0.2-0.3-0.4-0.6-0.6-1c0-0.1,0.1-0.2,0.2-0.5c-0.5-0.2-1-0.3-1.5-0.5
		c0-0.4-0.1-0.7-0.1-1.1c0.4-0.3,0.7-0.7,1.1-1c-0.4-0.5-0.8-0.9-1-1.3c-0.2-0.5-0.2-1-0.9-1.3c-0.2,0.8-0.4,1.5-0.7,2.3
		c-0.5,0-1,0.1-1.5,0.1c-1-0.1-1.8-0.9-1.8-2c0-0.3,0-0.6-0.1-0.9c-0.1-0.4-0.2-0.7-0.3-1.1c-1.1-0.5-1-0.5-1-1.7c0-1.5,0-3,0-4.4
		c0-1.4,0.1-2.8,0-4.2c-0.1-2.2-0.3-4.5-0.5-6.7c-0.1-1.4-0.1-2.7-0.3-4.1c-0.2-2-0.5-4.1-0.7-6.1c-0.2-2-0.3-3.9-0.4-5.9
		c-0.1-0.7-0.2-1.3-0.2-2c-0.1-1.5-0.1-3-0.3-4.6c-0.1-1.4-0.2-2.7-0.5-4.1c-0.2-1-1-1.8-1.9-2.5c-0.9-0.7-1.5-1.6-2-2.5
		c0.4-0.3,0.6-0.5,1-0.8c-0.4-0.5-0.6-1-1.3-1.1C347,3.6,346.8,3.4,346.7,3.3L346.7,3.3z M363.5,57.8c0.1,0.1,0.2,0.2,0.3,0.2
		c2.5-0.2,5,0,7.2-1.5c1.9-0.5,3.4-1.9,4.9-3c1.4-1,2.7-2.1,3.9-3.3c0.8-0.7,1.6-1.4,2-2.3c0.9-1.5,1.9-3,2.3-4.8
		c0.5-2.3,0.1-4.4-1-6.3c-1.1-1.8-2.4-3.5-3.7-5.3c-1.4-2-3.5-3.5-4.6-5.8c0-0.1-0.1-0.1-0.2-0.1c-1-0.9-2-1.7-3-2.6
		c-1.2-1-2.3-1.9-3.5-2.9c-1.3-1-2.5-1.9-3.8-2.9c-0.8-0.6-1.7-1-2.5-1.6c-0.1,0.2-0.2,0.3-0.2,0.4c0.1,2.5,0.1,4.9,0.3,7.4
		c0.1,0.7,0,1.4,0.1,2.1c0.1,0.9,0.3,1.9,0.3,2.8c0.3,2.9,0.5,5.8,0.8,8.7c0.1,1.2,0.2,2.5,0.2,3.7c0,0.8,0,1.5,0.1,2.3
		c0.1,1.5,0.3,3,0.4,4.5c0.1,1,0.1,2,0,2.9C363.8,53,363.7,55.4,363.5,57.8z M377.5,61.7c0.8-0.3,1.4-0.5,1.9-0.8
		c0.3-0.2,0.3-0.4-0.2-0.6C378.8,60.8,377.9,60.7,377.5,61.7z M389,53c0.2-0.3,0.5-0.7,0.8-1.2C389,52.1,389,52.5,389,53z M384,57.7
		c0.1-0.1,0.1-0.1,0.2-0.2c-0.1-0.2-0.2-0.4-0.3-0.7c-0.2,0.2-0.3,0.4-0.6,0.6C383.6,57.6,383.8,57.7,384,57.7z M381.6,59.4
		c0.1-0.2,0.1-0.4,0.2-0.7c-0.3,0-0.5,0.1-0.7,0.1C381.3,59.1,381.4,59.2,381.6,59.4z M379.9,60.1c0.1,0,0.2,0,0.3,0
		c0-0.1-0.1-0.3-0.1-0.4c-0.1,0-0.1,0-0.2,0C379.9,59.8,379.9,60,379.9,60.1z M362.3,61.2c0,0.1,0,0.1-0.1,0.2
		c0.2,0.1,0.3,0.1,0.5,0.2c0-0.1,0-0.1,0.1-0.2C362.7,61.3,362.5,61.2,362.3,61.2z M383.7,30.7c-0.1,0-0.1,0.1-0.2,0.1
		c0.1,0.1,0.2,0.2,0.2,0.3c0,0,0.1-0.1,0.1-0.1C383.8,30.9,383.8,30.8,383.7,30.7z M386.6,55.4c0,0-0.1-0.1-0.1-0.1
		c-0.1,0-0.1,0-0.2,0.1c0.1,0.1,0.1,0.1,0.2,0.2C386.5,55.5,386.6,55.5,386.6,55.4z M390.1,51.4c0.1,0,0.1,0.1,0.2,0.1
		c0.1-0.1,0.1-0.3,0.2-0.4c0,0-0.1-0.1-0.1-0.1C390.3,51.1,390.2,51.2,390.1,51.4z M388.1,54.5c-0.1,0-0.1-0.1-0.2-0.1
		c0,0-0.1,0.1-0.1,0.1c0,0.1,0.1,0.1,0.1,0.1C388,54.6,388.1,54.5,388.1,54.5z M384.9,56.3c0-0.1,0.1-0.1,0.1-0.2
		c-0.1,0-0.1-0.1-0.2-0.1c0,0-0.1,0.1-0.1,0.1C384.8,56.2,384.9,56.3,384.9,56.3z M378.5,53C378.5,53,378.4,53,378.5,53
		c-0.1,0-0.1,0-0.1,0C378.4,53.1,378.4,53.1,378.5,53C378.5,53.1,378.5,53.1,378.5,53z"/>
	<path fill="#FFFFFF" d="M162,11.8c0.1,0.6,0.1,0.9,0.2,1.2c0.1-0.1,0.2-0.2,0.3-0.3c0.1-0.4,0.2-0.9,0.3-1.5
		c0.4,0.2,0.8,0.4,1.1,0.5c0.4-0.8,0.9-1.7,1.3-2.5c0.5,0,0.8-0.1,1.2,0c0.4,0,0.8,0.1,1.1,0.3c0.7,0.5,1.3,1.1,2,1.8
		c0.2,0.8,0.4,1.7,1.1,2.4c0.3,0.4,0.3,1,0.4,1.6c0.3,1.2,0.3,2.4,0.9,3.5c0.5,0.9,0.8,2,1.2,3c0.2,0.5,0.4,1.1,0.6,1.6
		c0.8,1.8,1.6,3.6,2.4,5.4c1,2.2,2.1,4.4,3.2,6.5c0.2,0.5,0.6,0.8,1,1.4c0.1-0.3,0.2-0.4,0.3-0.6c0.2-1.5,0.4-3.1,0.6-4.6
		c0.3-2,0.1-3.9,0.1-5.9c0-1.9,0-3.8-0.1-5.7c-0.1-2.4-0.3-4.8-0.4-7.3c-0.1-1.1-0.1-2.2-0.1-3.3c0-0.2-0.1-0.4-0.1-0.7
		c0-1.2-0.1-2.3-0.1-3.5c0.1,0,0.2,0,0.3,0c0.1,0.7,0.2,1.3,0.4,2.2c0.5-1.1,0.9-2.1,1.3-3.2c0.4,0.9,0.5,1.9,1.2,2.9
		c0.2-0.5,0.4-0.8,0.4-1c-0.1-1.1,0-2.1,1-2.9c0.3,0.1,0.6,0.3,1,0.4c0.1-0.1,0.3-0.1,0.5-0.3c0.1,0.3,0.2,0.5,0.3,0.8
		c1.2,0.1,1.6,1.1,2.1,2c0.9,0.2,1.1,1,1.6,1.6c0.9,1,0.7,2.1,0.5,3.3c-0.5,2.5-0.8,4.9-0.5,7.5c0.2,2.2,0.4,4.5,0.4,6.7
		c0.1,1.6-0.1,3.3,0,4.9c0.1,2.4,0.3,4.9,0.5,7.3c0.1,1,0.2,2,0.3,3.1c0.3,3.2,0.7,6.3,0.9,9.5c0.1,2,0.7,3.8,1.5,5.5
		c0.3,0.7,0,2.4-0.6,2.9c-0.2,0.2-0.5,0.2-0.8,0.3c-0.5,0.1-1,0.2-1.6,0.3c0,0-0.2-0.2-0.3-0.3c-0.1-0.1-0.3-0.2-0.5-0.4
		c-0.6,0-1.3,0.2-1.8,0.1c-0.8-0.2-1.7-0.5-2.4-0.9c-1-0.7-1.7-1.7-2.1-2.9c-0.1-0.4-0.5-0.7-0.8-1.1c-0.6-0.7-1.2-1.4-1.8-2
		c-0.3-0.3-0.8-0.5-1.4-0.8c-1.3-2.1-2.7-4.4-4.2-6.6c-1.5-2.2-2.2-4.9-4.1-7.2c0,0.6,0,1,0.1,1.4c0.4,3.9,0.5,7.8,0.4,11.7
		c0,2.3-0.2,4.6-0.4,6.9c0,0.8-0.2,1.5-0.9,2.1c-1.6,0.7-2.4-0.5-3.1-1.6c-1.1-0.2-1.5,1.2-2.6,0.9c-0.5-1.5-1-3-1.6-4.6
		c-0.2,0.2-0.3,0.4-0.5,0.6c-0.5-0.5-0.5-1.2-0.5-1.8c0.1-1.5,0.3-3.1,0.4-4.6c0.1-0.9,0-1.9,0-2.9c-0.1-1.6-0.1-3.2-0.2-4.7
		c-0.2-2.5-0.4-5.1-0.7-7.6c-0.2-1.8-0.5-3.5-0.5-5.3c0-1.2-0.2-2.3-0.3-3.5c-0.1-1.7-0.2-3.3,0-5c0.2-1.7,0.1-3.3,0.2-5
		c0-0.4,0.1-0.9,0.3-1.3C161.4,12.2,161.7,12.1,162,11.8z M161.7,16.2c0.1,0,0.2,0,0.3,0c0-0.1-0.1-0.3-0.1-0.4c-0.1,0-0.1,0-0.2,0
		C161.7,16,161.7,16.1,161.7,16.2z M161.7,17.3c0,0,0.1,0,0.1,0c0-0.1,0-0.2-0.1-0.3c0,0-0.1,0-0.1,0
		C161.7,17.1,161.7,17.2,161.7,17.3z M162,15L162,15L162,15L162,15z M161.8,25.3C161.8,25.3,161.8,25.3,161.8,25.3
		C161.7,25.2,161.7,25.2,161.8,25.3C161.7,25.3,161.7,25.3,161.8,25.3C161.7,25.3,161.8,25.3,161.8,25.3z"/>
	<path fill="#FFFFFF" d="M234.4,20.8c-0.4,0.4-0.6,0.6-0.9,0.9c0-0.2-0.1-0.4-0.1-0.6c1.2-1,1.5-2.3,1.7-3.8
		c0.1-0.7,0.5-1.4,0.8-2.1c0.1-0.4,0.2-0.7,0.4-1.3c1-0.3,1.9-0.9,2.3-2.2c0.6-0.1,1.3-0.2,1.9-0.1c0.6,0,1-0.1,1.4-0.6
		c1.6-1.6,3.9-1.4,5.3,0.4c0.8,1,1.6,2.1,2.3,3.2c0.7,1,0.8,2.1,0.2,3.4c0.3,0.5,0.6,1,0.9,1.6c0.7,1.5,1.5,3.1,2,4.7
		c0.8,2.5,1.5,5,2.1,7.6c0.9,3.6,1.5,7.3,1.6,11c0.1,3.1-0.6,6.1-2.3,8.8c-1,1.6-2.4,2.9-4.1,3.9c-1.4,0.9-2.9,1.8-4.5,2.2
		c-1.8,0.4-3.6,0.7-5.4,0.5c-1.4-0.2-2.9-0.2-4.4-0.3c0,0-0.2-0.2-0.3-0.3c-2.2-1-2.9-3.1-3.8-5.1c-0.4-0.9-0.6-1.8-0.9-2.7
		c-0.1-0.5-0.2-1-0.2-1.4c-0.1-0.6-0.1-1.3-0.7-1.8c0.2-0.2,0.4-0.3,0.5-0.4c-0.2-1.8-0.6-3.5-0.5-5.2c0.2-2-0.4-3.9-0.1-5.9
		c-0.2,0.4-0.3,0.7-0.5,1.1c-0.4-0.8-0.4-1.4,0.2-2.4c0.1,0.1,0.3,0.2,0.4,0.3c0.1,0,0.2-0.1,0.2-0.1c0.1-0.3,0-0.6,0.2-0.7
		c0.5-0.4,0.4-0.9,0.4-1.3c0.1-0.9,0.1-1.8,0.2-2.7c0-0.1,0-0.3,0.1-0.3c0.6-0.4,0.6-1.1,0.8-1.7c0.4-1,0.8-2.1,1.3-3.2
		c0.1-0.3,0.4-0.6,0.6-0.8C234.2,22.6,234.4,21.9,234.4,20.8z M235.7,18.7C235.8,18.6,235.8,18.5,235.7,18.7
		C235.8,18.5,235.8,18.6,235.7,18.7C235.7,18.7,235.6,18.7,235.7,18.7C235.7,18.8,235.7,18.7,235.7,18.7z M239.5,51.2
		c0.3-0.1,0.6-0.2,0.8-0.3c2-0.8,3.4-2.2,4.6-3.9c0.5-0.7,0.8-1.5,1.2-2.2c0.2-0.4,0.3-0.8,0.4-1.2c0.1-1.1,0.2-2.2,0.2-3.3
		c-0.1-1.8-0.1-3.6-0.4-5.3c-0.2-1.5-0.6-3-1-4.5c-0.7-2.6-1.7-5.2-2.1-7.9c0-0.1-0.2-0.3-0.4-0.5c-0.5,0.8-1,1.5-1.3,2.3
		c-1.3,2.8-2.6,5.6-3.4,8.7c-0.6,2.2-1.1,4.5-1.2,6.8c-0.2,3.6,0.3,7,1.1,10.5c0,0.2,0.2,0.3,0.2,0.5
		C238.6,50.9,239,51.1,239.5,51.2z M235.1,20c-0.1,0-0.1,0-0.2,0c0,0.1-0.1,0.3-0.1,0.4c0.1,0,0.1,0,0.2,0.1
		C235,20.3,235,20.1,235.1,20z"/>
	<path fill="#FFFFFF" d="M341.9,19.3c0.1-0.3,0.2-0.5,0.3-0.8c-0.1-0.1-0.2-0.1-0.3-0.1c-1.8,0.8-3.6,1.3-5.3,2.2
		c-1,0.5-2.1,0.9-3.1,1.4c-1.2,0.6-2.3,1.3-2.5,2.8c-0.1,1.1-0.6,2.1-0.9,3.2c-0.1,0.3-0.2,0.6-0.3,1.1c0.8-0.3,1.5-0.4,2.1-0.8
		c1-0.6,2.1-1.1,3.1-1.6c0.2-0.1,0.5-0.2,0.6-0.2c0.9,0.3,1.5-0.3,2.3-0.5c1.2-0.3,2.4-0.6,3.5-0.9c0.5,0.1,1,0.3,1.5,0.4
		c-0.1,0.2-0.4,0.4-0.6,0.7c0.4,0.2,0.8,0.4,1.2,0.7c0.2-0.1,0.5-0.1,0.9-0.2c0.1,0.2,0.2,0.3,0.3,0.6c0.3,0,0.6-0.1,1.1-0.1
		c-0.5,0.6-1.1,0.7-1.6,1c0.2,0.4,0.4,0.3,0.6,0.1c0.7-0.5,1.4-0.5,2.4-0.4c-0.4,0.3-0.6,0.5-0.8,0.6c-0.7,0.1-1.1,0.5-1.6,1
		c-1,1.1-2.2,1.8-3.4,2.6c-2,1.2-3.9,2.4-6,3.5c-2.2,1.1-4.4,2.1-6.9,2c-0.1,0-0.2,0.1-0.3,0.1c-1.1,1.9-1.3,11.2-0.3,13.2
		c0.7,0.1,1.4,0.1,2.2-0.1c1.3-0.4,2.7-0.6,4-1c0.3-0.1,0.6-0.2,1-0.3c0.8-0.3,1.5-0.6,2.4-0.5c0.6,0.1,1.3-0.1,2-0.3
		c1.2-0.3,2,0,2.6,1.1c0.3,0.4,0.3,1,0.6,1.4c0.4,0.8,0.9,1.7,1.4,2.4c0.5,0.7,0.6,1.5,0.2,2.2c-0.3,0.5-1,0.8-1.8,0.7
		c-0.4,0-0.8-0.1-1.2,0c-1.4,0.3-2.7,0.5-4.1,0.9c-1.6,0.5-3.2,0.7-4.8,0.8c-1.1,0.1-2.2-0.3-3.3-0.4c-0.8-0.1-1.6-0.2-2.4-0.1
		c-2.5,0-4.6-0.9-6-3c-0.8-1.1-1.3-2.3-1.4-3.7c0-0.3-0.1-0.5-0.2-0.8c-0.7-1.3-0.6-2.8-0.9-4.2c-0.2-0.9-0.1-1.8-0.1-2.7
		c0-1.5,0.1-3,0.2-4.5c0.1-1.3,0.3-2.6,0.5-3.9c0.1-0.7,0.1-1.4,0.2-2c0.4-1.9,0.8-3.8,1.2-5.7c0.1-0.5,0.2-1.1,0.3-1.7
		c-0.5-0.2-0.9-0.3-1.4-0.4c-0.2-0.6-0.5-1.2-0.7-2c0.5,0.1,0.8,0.2,1.2,0.2c0-0.2,0.1-0.4,0.1-0.5c-0.6-0.3-0.7-1-1.5-1.1
		c-0.2,0-0.4-0.4-0.6-0.6c0.1-0.7,0.5-0.9,1-1.1c1.4-0.5,2.7-1.2,3.8-2.2c0.3-0.3,0.5-0.7,0.6-1c0.3-0.9,0.7-1.2,1.6-1
		c0.5,0.1,0.9,0.6,1.4,0.2c0.4-0.3,0.8-0.8,1-1.2c0.6-1,0.9-1.1,1.9-0.7c0.8,0.3,1.4,0.3,2.1-0.2c0.3-0.2,0.6-0.3,0.9-0.4
		c1.7-0.8,3.5-1.6,5.2-2.5c0.2-0.1,0.4-0.3,0.6-0.4c0.5-0.3,1.1-0.6,1.8-0.7c1-0.2,2-0.7,3-1c0.3-0.1,0.7-0.3,1.1-0.6
		c0.3,0.3,0.5,0.6,0.7,0.8c0.2,0.3,0.4,0.6,0.7,0.7c0.8,0.5,1.2,1.3,1.8,2c0.4,0.5,0.8,1.1,1.2,1.6c0.5,0.5,0.7,1.1,0.6,1.8
		c-0.1,0.7-0.6,1.1-1.2,1.2c-1.1,0.2-2.1,0.6-3,1.2c-0.5,0.3-0.9,0.7-1.4,1c-0.3,0.2-0.6,0.5-1,0.7C342,19.5,342,19.4,341.9,19.3z
		 M321.3,26.1c-0.6,2.2-1.1,4.3-1.7,6.4c0,0.1,0,0.3-0.1,0.5c-0.2,1.5-0.3,3-0.5,4.5c-0.1,1.3-0.2,2.6-0.4,4c0,0.1,0,0.2,0,0.2
		c0.1,1.4,0.2,2.9,0.2,4.3c0,0.5,0.1,0.9,0.6,1.3c0-0.5,0-0.9,0-1.4c0.2,0.1,0.4,0.1,0.7,0.2c-0.2-0.3-0.3-0.4-0.4-0.5
		c-0.1-0.1-0.3-0.2-0.7-0.3c0.5-0.3,0.7-0.4,0.9-0.6c-0.2-0.1-0.3-0.2-0.5-0.3c0.1-0.5,0.3-1-0.1-1.5c-0.1-0.1-0.1-0.4-0.1-0.7
		c0-0.8,0-1.7,0.2-2.5c0.2-1.6,0.5-3.2,0.8-4.8c0.1-0.5,0.2-1,0.3-1.6c0.1-0.7,0.1-1.5,0.3-2.2c0.2-0.9,0.7-1.8,0.5-2.8
		c0-0.1,0.1-0.2,0.1-0.3c0.2-0.6,0.4-1.3,0.6-2C321.7,26.1,321.5,26.1,321.3,26.1z M319.8,48.1c0.1-0.2,0.2-0.3,0.2-0.3
		c0-0.1-0.1-0.2-0.2-0.2c-0.1,0-0.2,0.1-0.2,0.2C319.6,47.8,319.7,47.9,319.8,48.1z M341.2,27.9c0,0,0.1-0.1,0.1-0.1
		c-0.1,0-0.1,0-0.2-0.1c0,0-0.1,0.1-0.1,0.1C341.1,27.9,341.2,27.9,341.2,27.9z M343.4,28.5C343.4,28.5,343.4,28.4,343.4,28.5
		C343.4,28.4,343.3,28.5,343.4,28.5C343.3,28.5,343.4,28.5,343.4,28.5z M341.4,27C341.4,27,341.4,27,341.4,27
		C341.5,27,341.5,27,341.4,27C341.4,27,341.4,27,341.4,27C341.4,27,341.4,27,341.4,27z"/>
	<path fill="#FFFFFF" d="M219.1,60.3c-1.3,0.4-2.5,0.8-3.4-0.2c-0.5,0-0.9,0.1-1.4,0.1c-0.8,0.8-1.6,0.9-2.7,0.3
		c-0.1-0.1-0.3-0.1-0.4-0.2c-1.2-0.5-1.9-1.2-2.1-2.6c-0.1-0.8-0.5-1.7-0.7-2.5c-0.1-0.2-0.1-0.4-0.1-0.7c0-1.3-0.1-2.5-0.5-3.8
		c-0.7-2.1-1.3-4.3-1.9-6.4c-0.7-2.4-1.3-4.9-2-7.3c-0.6-2-1.3-3.9-2-5.9c-0.2-0.5-0.3-1-0.4-1.4c-0.3-0.7-0.6-1.4-0.9-2.1
		c-0.2-0.4-0.3-0.8-0.5-1.3c-0.3-0.9-0.6-1.8-0.9-2.7c-0.4-1.2-0.9-2.4-1.3-3.6c-0.2-0.6-0.5-1.1-0.9-1.8c-0.1-0.6-0.3-1.4-0.5-2.2
		c-0.3-0.9-0.4-1.8,0.4-2.4c-0.3-0.5-0.6-1-0.9-1.4c0.1-0.5,0.2-1,0.3-1.5c0.5,0,0.9,0.1,1.4,0.1c-0.2-0.9,0.4-1.5,0.8-2.2
		c0.1-0.2,0.6-0.4,0.9-0.4c0.7,0.1,1.5,0.4,1.9,1c0.9,1.3,1.7,2.6,2.5,3.9c0.2,0.3,0.2,0.7,0.3,1.1c0.1,0.4,0.2,0.9,0.3,1.3
		c0.3,2.1,1.3,4,2,5.9c0.7,2.1,1.5,4.1,2.2,6.2c0.9,2.9,1.8,5.8,2.8,8.7c0.3,0.8,0.6,1.7,1.2,2.5c0.1-0.7,0.2-1.3,0.3-2
		c0.3-2.6,0.7-5.2,1-7.9c0.3-2.5,0.6-5,1-7.5c0.3-2.3,0.7-4.6,1.4-6.8c0.1-0.2,0.1-0.3,0.2-0.6c0.2,2-0.4,3.8-0.7,5.7
		c0.5-0.8,0.9-1.6,1-2.5c0.2-1.2,0.4-2.4,0.6-3.6c0.3,0,0.6,0,0.9,0c0.3-0.5,0.5-1,0.8-1.6c0,0.4,0.1,0.6,0.1,0.9
		c0.5,0.2,0.7-0.2,0.7-0.5c0.2-1.1,0.9-1.5,1.8-1.8c0.1-0.1,0.3-0.2,0.4-0.2c0.1,0.1,0.2,0.3,0.4,0.4c0.2,0.1,0.5,0,0.6,0.1
		c0.8,0.9,1.7,1.6,2,2.9c0.5,1.8-0.2,3.4-0.4,5.1c-0.1,0.9-0.3,1.7-0.4,2.6c-0.2,1.7-0.4,3.5-0.6,5.2c-0.1,0.9-0.1,1.8-0.2,2.7
		c-0.2,1.4-0.4,2.9-0.5,4.3c-0.2,1.7-0.4,3.4-0.6,5.1c-0.4,2.9-0.8,5.9-1.3,8.8c-0.3,1.7-0.5,3.3-0.9,4.9c-0.3,1.3-0.5,2.7-0.5,4
		c0,0.5,0.1,1.1,0,1.6C219.5,59,219.3,59.7,219.1,60.3z M215.4,21.7c0.1,0,0.1,0,0.2,0c0-0.1,0-0.3,0-0.4c-0.1,0-0.1,0-0.2,0
		C215.5,21.4,215.5,21.5,215.4,21.7z M218,14.2c0,0.1,0,0.1,0,0.2C218,14.3,218,14.3,218,14.2z"/>
	<path fill="#FFFFFF" d="M308,53.3c-0.4,1-1,1.7-2.1,2.2c-0.4-0.2-1-0.4-1.5-0.7c-0.6-0.4-0.6-0.4-1.5-0.5c-0.2,0.2-0.5,0.5-0.8,0.8
		c-1.1,0.2-2.2,0.5-3.3,0.7c-0.8-0.8-1.3-1.7-1.5-2.8c-0.3-1.2-0.8-2.3-1.2-3.4c0-0.1-0.1-0.2-0.1-0.3c0-1.8-1.2-3.2-1.9-4.8
		c-0.4-1-0.9-2-1.4-3c-0.6-1.2-1.2-2.4-1.8-3.6c-0.1-0.1-0.1-0.2-0.1-0.3c-0.9-2.4-2.3-4.6-3.3-7c-0.8-1.7-1.8-3.2-2.8-4.8
		c-0.6-1-1.1-2-1.7-2.9c-0.3-0.5-0.7-1-1.1-1.4c-0.9-1-0.8-2-0.2-3.1c-0.5-0.7-1.2-1.3-1.1-2.3c0.3-0.1,0.6-0.2,0.9-0.4
		c0.5,0.3,0.9,0.5,1.5,0.9c0.2-0.5,0.4-0.9,0.6-1.3c0.7-1.4,0.9-1.6,2.5-1.4c0.6,0.6,1.3,1.2,1.9,1.8c0.2,0.2,0.4,0.6,0.6,0.8
		c0.4,0.5,0.7,1.1,1.1,1.6c0.1,0.2,0.3,0.4,0.4,0.7c0.7,1.9,1.9,3.6,2.9,5.4c1,1.9,2,3.9,3,5.9c0.5,0.9,0.9,1.8,1.3,2.7
		c0.7,1.4,1.3,2.8,2,4.2c0.3,0.7,0.7,1.3,1.2,2c0.2-0.3,0.3-0.5,0.4-0.7c0.5-1.7,1-3.4,1.5-5.1c0.6-2.3,1.2-4.6,1.9-6.8
		c0.6-2,1.3-4,2-5.9c0.8-2.2,1.7-4.4,2.6-6.5c0.2-0.6,0.6-0.9,1.3-1.1c0.5,0.4,1.1,0.8,1.7,1.2c0.8-1,1.4-2,2.5-2.7
		c0.4,0.3,0.9,0.6,1.2,1c0.2,0.3,0.3,0.5,0.8,0.6c0.1,0,0.3,0.2,0.4,0.3c0.6,0.8,1.1,1.6,1.7,2.4c0.3,0.4,0.5,0.7,0.9,1.1
		c0.6,0.6,0.6,0.7,0.2,1.6c-0.1,0.2-0.2,0.4-0.3,0.7c-1.3,0.5-1.7,1.7-2.2,2.9c-1.3,3.5-2.6,7.1-3.7,10.6c-0.7,2.1-1.1,4.2-1.6,6.3
		c-0.7,2.6-1.3,5.1-2.1,7.7c-0.3,0.9-0.6,1.9-0.9,2.8C308.1,50.6,307.7,52,308,53.3z M304.9,29.4L304.9,29.4L304.9,29.4L304.9,29.4z
		"/>
	<path fill="#FFFFFF" d="M90.9,11.9c0.1-0.1,0.2-0.2,0.4-0.3c0.7,0.4,1.3,0.2,2,0c1.3-0.3,2.6-0.5,3.9-0.7c0.5-0.1,1-0.1,1.5-0.2
		c1.3-0.3,2.6-0.6,3.9-1c1.4-0.4,2.8-0.9,4.3-1.2c1.6-0.3,3.2-1,4.9-1c0.8,0,1.6,0.1,2.2,0.1c0.9,1,1.7,1.6,2.3,2.4
		c0.6,0.7,1.3,1.4,1,2.6c-0.1,0.2-0.3,0.4-0.6,0.6c-1.9-0.1-3.6,0.4-5,1.7c-0.9-0.6-1.8,0-2.6,0.2c-3.6,1-7.3,1.8-11,2.4
		c-0.1,0-0.1,0.1-0.3,0.1c0.1,0.4,0.3,0.8,0.4,1.3c-0.2,0.8-0.5,1.6-0.7,2.5c-0.1,0.5,0,1,0,1.5c0,3,0,5.9,0,8.9
		c0,3.5,0.1,7,0.2,10.5c0.1,2.1,0.2,4.2,0.3,6.4c0,1.2,0,2.4,0,3.6c0,2.1,0,4.2,0.1,6.3c0,0.9,0.3,1.9,0.5,2.8
		c0.1,0.6,0.2,1.2-0.2,1.8c-0.4,0.8-1.2,0.9-1.9,0.4c-0.7-0.4-1.1-1.1-1.5-1.8c-0.1-0.2-0.2-0.4-0.4-0.6c-0.4,0.7-0.7,1.3-0.9,1.8
		c-0.4,0.1-0.8,0.2-1.1,0.3c-0.5,0.2-0.9,0.1-1.2-0.4c-0.1-0.1-0.1-0.2-0.2-0.3c-0.6-1.4-1.3-2.9-2-4.3c-0.4-0.9-0.4-1.9-0.5-2.9
		c-0.1-2.6-0.2-5.2-0.3-7.9c-0.1-1.3-0.2-2.5,0-3.7c0.1-0.7-0.2-1.5-0.2-2.3c-0.1-2.2-0.3-4.5-0.2-6.7c0-1.9,0-3.9,0-5.8
		c0-1.3-0.2-2.6-0.3-4c0-0.6-0.1-1.2-0.1-1.8c0-1,0.1-2,0.1-3.1c0-0.7-0.4-1.2-1-1.3c-1-0.3-2.1-0.2-3.1,0.1
		c-1.1,0.4-2.3,0.8-3.5,0.6c-0.4-0.1-0.9,0-1.2,0.2c-1,0.6-1.7,0.2-2.6-0.4c0.2-0.5,0.5-1,0.7-1.6c-0.4-0.1-0.8-0.3-1.2-0.4
		c0-0.2-0.1-0.5-0.1-0.7c-0.7-0.3-1.3-0.6-2.2-1c1.8-0.5,2.9-1.6,4.1-2.6c0.9-0.7,2-1,3.2-1.1c1.4-0.1,2.7-0.1,4.1,0
		c1.6,0,3.3-0.1,4.9-0.1C90.2,11.9,90.5,11.9,90.9,11.9z"/>
	<path fill="#FFFFFF" d="M268.9,55c-0.5-0.3-1-0.6-1.6-0.9c-0.6,0.2-1.3,0-2,0.5c-0.8,0.5-2.8-0.1-3.3-0.9c-0.5-0.8-1-1.5-0.8-2.5
		c0.1-0.4-0.1-0.8-0.2-1.2c-0.4-1.1-0.4-2.1,0.3-3.1c0.2-0.2,0.2-0.6,0.2-0.9c-0.2-2.3-0.4-4.7-0.6-7c-0.1-1.8-0.5-3.7-0.4-5.5
		c0-0.2-0.1-0.4-0.1-0.7c-0.2-1.2-0.3-2.4-0.5-3.6c-0.2-1.5-0.4-3-0.5-4.5c-0.1-0.9-0.1-1.9-0.2-2.8c0-0.3-0.2-0.6-0.2-0.9
		c-0.2-1.8-0.4-3.7-0.5-5.6c0-0.7-0.1-1.3-0.4-2c-0.2-0.5,0-1.1,0-1.8c1,0.1,1.9,0.2,2.9,0.3c0.1-0.1,0.2-0.4,0.3-0.6
		c0.7-1.4,0.7-1.4,2.3-1.5c0.6,0.5,1.3,0.9,1.9,1.4c0.6,0.5,1,1.2,1.5,1.8c1,1.4,1.3,2.9,1.1,4.7c-0.3,2.1-0.1,4.3,0.1,6.5
		c0.1,1.9,0.5,3.7,0.8,5.6c0,0.1,0,0.1,0,0.2c0,1.8,0.4,3.5,0.6,5.3c0.2,1.6,0.4,3.2,0.5,4.7c0.1,1.3,0.3,2.6,0.4,4
		c0.1,0.7,0.2,1.3,0.8,1.6c1.2-0.1,2.4-0.1,3.5-0.3c2.5-0.5,5.1-0.5,7.6-0.8c0.4,0,0.8-0.1,1.2,0c1.8,0.2,3.6,0.3,5.3,0.8
		c1.1,0.3,2.3,0.8,2.9,2.1c0.4,0.9,1.1,1.7,1.7,2.6c0.7,1,0.2,2-0.9,2.2c-0.6,0.1-1.2,0.1-1.8,0c-0.4,0-0.8,0-1.2,0.2
		c-1.3,0.6-2.6,0.7-3.9,0.3c-0.6-0.2-1.4-0.2-2-0.2c-2-0.1-4,0-6,0.3c-1.4,0.2-2.8,0.6-4.2,0.9c-0.4,0.1-0.8,0.1-1.1,0.2
		c-0.3,0.1-0.6,0.1-0.8,0.3c-0.4,0.2-0.7,0.6-1.1,0.8C269.9,54.9,269.5,54.9,268.9,55z"/>
	<path fill="#FFFFFF" d="M145.3,12.7c0.2-0.4,0.4-0.8,0.6-1.3c0.4-1.4,1.3-1.7,2.5-0.9c0.4,0.3,0.7,0.7,1,1c0.4,0.4,0.7,0.7,1.2,1.2
		c0.2,0.4,0.5,0.9,0.8,1.3c0.6,0.7,0.8,1.5,0.5,2.4c-0.3,1.1-0.4,2.2-0.3,3.3c0.3,4.2,0.5,8.4,0.9,12.6c0.4,4.7,1,9.5,1.5,14.2
		c0.4,3.2,0.7,6.5,1.1,9.7c0.1,0.6,0.2,1.2,0.1,1.8c0,0.4-0.4,0.9-0.6,1.4c-0.8-0.3-1.5-0.6-2.2-0.9c-0.1-0.4-0.3-0.8-0.4-1.3
		c-0.3,0.5-0.5,0.9-0.7,1.3c-0.3,0.1-0.6,0.2-0.9,0.3c-0.5-0.3-1.1-0.6-1.5-1c-0.2-0.2-0.2-0.5-0.3-0.8c-0.2-0.9-0.5-1.7-0.7-2.6
		c-0.1-0.5,0-1.1-0.1-1.7c-0.1-0.9-0.2-1.7-0.3-2.6c-0.1-1.3-0.2-2.6-0.4-4c-0.2-1.7-0.4-3.5-0.6-5.2c-0.2-1.4-0.4-2.7-0.6-4.1
		c-0.1-0.7-0.2-1.3-0.2-2c-0.1-1.4-0.2-2.9-0.3-4.3c0-0.5-0.1-1-0.2-1.6c-0.2-2-0.5-4-0.7-6c-0.1-0.8-0.1-1.5-0.2-2.3
		c-0.2-1.4-0.4-2.9-0.6-4.3c-0.1-0.5-0.4-1-0.7-1.7c0-0.1,0.1-0.3,0.2-0.7c-0.1-0.2-0.3-0.4-0.4-0.6
		C143.4,12.4,144.4,12.9,145.3,12.7z"/>
	<path fill="#FFFFFF" d="M146.5,43.8c0,0.1-0.1,0.3-0.1,0.4c0-0.1,0-0.3-0.1-0.4C146.4,43.9,146.5,43.8,146.5,43.8z"/>
</g>
</svg>
