<?xml version="1.0" encoding="utf-8"?>
<!-- Generator: Adobe Illustrator 18.1.1, SVG Export Plug-In . SVG Version: 6.00 Build 0)  -->
<svg version="1.1" id="Layer_1" xmlns="http://www.w3.org/2000/svg" xmlns:xlink="http://www.w3.org/1999/xlink" x="0px" y="0px"
	 viewBox="0 0 401.9 57.1" enable-background="new 0 0 401.9 57.1" xml:space="preserve">
<g>
	<g>
		<path fill="#FFFFFF" d="M5.2,42.8H0v-6h6.2l1.7-10.1H2.1v-6H9l1.6-9.1h6.2l-1.6,9.1h9.5l1.5-9.1h6.2l-1.6,9.1h5.1v6h-6.2L28,36.8
			h5.8v6H27l-1.6,9.3h-6.2l1.6-9.3h-9.5l-1.6,9.3H3.6L5.2,42.8z M21.9,36.8l1.7-10.1h-9.5l-1.7,10.1H21.9z"/>
		<path fill="#FFFFFF" d="M45.4,11.7H53l12.3,19.1l12.3-19.1h7.6v40.5h-7.1v-29L65.4,42.2h-0.2l-12.7-19v28.9h-7.1V11.7z"/>
		<path fill="#FFFFFF" d="M112,11.4h6.6l17.8,40.8h-7.5l-4.1-9.8h-19.1l-4.2,9.8h-7.3L112,11.4z M122.2,36.1l-7-16.2l-6.9,16.2
			H122.2z"/>
		<path fill="#FFFFFF" d="M145.4,11.7h7.1v16.8h19.4V11.7h7.1v40.5h-7.1V35.1h-19.4v17.1h-7.1V11.7z"/>
		<path fill="#FFFFFF" d="M205.7,11.4h6.6l17.8,40.8h-7.5l-4.1-9.8h-19.1l-4.2,9.8h-7.3L205.7,11.4z M215.8,36.1l-7-16.2l-6.9,16.2
			H215.8z"/>
	</g>
	<g>
		<path fill="#FFFFFF" d="M357.7,50.4c-0.1-0.4-0.2-0.8-0.3-1.3c-0.9-0.6-1.3-1.7-2.1-2.6c-1.3-1.6-2.1-3.4-2.8-5.2
			c-0.2-0.7-0.5-1.4-0.8-2c-0.3-0.7-0.1-1.3,0.2-2c0.6,0.1,1.1,0.2,1.7,0.2c0.5,0,1,0,1.5-0.1c0.2-0.2,0.5-0.3,0.7-0.5
			c1,0.4,2,0.7,3,0.7c0.3,0,0.6,0.1,0.9,0.2c1,0.2,2,0.5,3.1,0.8c0.4,0.4,1,0.8,1.1,1.5c0.1,0.4,0.4,0.8,0.7,1.2
			c-0.1,0.3-0.2,0.7-0.3,1c-0.6,0.7-1.4,0.7-2.3,1c0.1,0.4,0.1,0.8,0.3,1.2c0.9,2.1,2.2,3.9,4.2,5.1c0.7,0.4,1.3,0.9,2.1,1.2
			c1.1,0.4,2.3,0.7,3.4,0.6c1,0,2.1,0,3.1-0.1c0.9-0.1,1.8-0.3,2.7-0.5c1.8-0.4,3.6-1,5.2-1.9c0.7-0.4,1.4-0.7,2-1.1
			c0.8-0.5,3.9-2.8,4.6-3.5c0.7-0.7,1.3-1.4,1.9-2.1c0.9-1.1,1.3-2.5,1.3-3.9c0-1.8-0.3-3.6-1-5.3c-0.5-1.1-0.9-2.2-1.6-3.3
			c-0.8-1.4-2-2.5-3.2-3.4c-0.7-0.5-1.3-1-2.1-1.2c-0.9-0.7-2.1-0.9-3.2-1.1c-1.2-0.3-2.5-0.5-3.7-0.5c-2.8-0.2-5.6,0.1-8.4,0.5
			c-2.8,0.4-5.4,1.2-8.1,2.2c-1.1,0.4-1.9,1.2-2.7,2c0,0-0.1,0.1-0.1,0.1c-0.2,1.1-1.1,1.1-2,1.4c-0.2,0-0.4,0-0.5,0
			c-0.8-0.1-1.7-0.3-2.5-0.5c-0.5-0.1-1-0.4-1.5-0.6c-0.6-0.2-1.2-0.5-1.9-0.7c-0.2-0.1-0.4,0-0.6,0c-0.6-0.5-1.2-1-1.9-1.5
			c-0.2-0.4-0.4-0.9-0.7-1.3c0-0.3,0.1-0.6,0.1-0.9c0-0.5,0.2-0.9,0.6-1.2c0.6-0.5,0.9-1.2,1-2c0.1-0.6,0.3-1.1,0.5-1.7
			c0-0.1,0.1-0.2,0.1-0.3c0.2-1.2,0.3-2.4,0.5-3.6c0.1-0.9,0.3-1.8,0.4-2.7c0.1-0.7,0.2-1.4,0.2-2.1c0-0.4,0-0.9,0.1-1.4
			c0.1-1.1,0.2-2.2-0.5-3.2c0.1-1.4,0.1-1.4,0.7-2.3c1.2,0,2.5-0.1,3.5-1c0.5,0.1,1.1,0.2,1.3,0.2c1.1-0.1,2-0.1,2.7-0.2
			c1,0.6,1.9,1.2,2.9,1.8c0.1-0.4,0.1-0.6,0.2-0.9c0.2,0.1,0.4,0.2,0.6,0.2c0.3,0.6,0,1-0.1,1.5c1.1,0.9,2.3,1.3,3.7,1.7
			c0.2-0.4,0.3-0.7,0.5-1c0.2,0.1,0.3,0.1,0.4,0.2c0.1,0.4-0.2,0.5-0.3,0.8c0,0.1,0.1,0.2,0.1,0.2c0.5,0.2,0.9,0.4,1.4,0.5
			c1.4,0.3,2.7,0.8,4,1.1c0.6,0.2,1.3,0.2,2,0.4c0.8,0.2,1.6,0.4,2.4,0.6c1.7,0.4,3.4,0.7,5.2,1c1.6,0.4,3.3,0.7,4.9,1
			c0.5,0.1,1.1,0.2,1.6,0.4c0.3,0.1,0.7,0.2,1,0.3c0,0.1,0,0.2,0.1,0.4c0.3,0.3,0.7,0.5,1,0.9c0.2,0.3,0.4,0.6,0.7,0.9
			c-0.1,0.4-0.2,0.7-0.3,1c-0.4,0.4-0.8,0.6-1.3,0.6c-1.3-0.1-2.6,0.2-3.9-0.2c-0.1,0-0.2,0-0.3,0c-1.3,0.3-2.5-0.2-3.7-0.4
			c-1.5-0.3-3.1-0.6-4.6-1c-1.7-0.4-3.4-0.7-5.1-1.2c-1.1-0.4-2.2-0.4-3.3-0.7c-2.1-0.5-4.2-1.1-6.3-1.7c-0.2,0.1-0.5,0.2-0.8,0.3
			c-0.1,0.1-0.2,0.2-0.2,0.4c-0.2,0.9-0.3,1.9-0.5,2.8c-0.2,1.1-0.3,2.2-0.5,3.3c0,0.2,0,0.3,0,0.5c0.3,0.3,0.7,0.2,1.1,0.2
			c1.4-0.2,2.8-0.5,4.3-0.6c2.7-0.2,5.4-0.4,8.1-0.3c1.6,0.1,3.2,0.3,4.7,0.5c1,0.2,2,0.4,3,0.7c1.2,0.4,2.5,0.5,3.7,0.9
			c1.5,0.5,3,1.2,4.5,1.9c0.9,0.4,1.9,0.9,2.8,1.4c2.2,1.3,4.1,2.8,5.5,4.9c0.5,0.8,1,1.5,1.5,2.3c1.2,2,2,4.3,2.5,6.5
			c0.5,2.2,0.6,4.4,0.1,6.6c-0.4,1.5-1.1,2.8-2.3,3.9c-2.1,2-4.3,3.8-6.9,5.2c-2.1,1.2-4.3,2.3-6.6,3c-0.9,0.3-1.8,0.4-2.6,0.6
			c-0.9,0.2-1.7,0.4-2.7,0.3c-0.5-0.1-1.1,0.1-1.6,0.2c-2,0.4-4.1,0.1-6.1-0.1c-1.7-0.2-3.3-0.8-4.9-1.5c-0.7-0.3-1.4-0.4-2-0.7
			c-0.4-0.1-0.7-0.3-1.1-0.5c-2.1-1.2-4.2-2.4-6.2-3.9c-0.1-0.1-0.2-0.1-0.3-0.1C358.1,50.2,357.9,50.3,357.7,50.4L357.7,50.4z
			 M385.9,54.4c0.1,0,0.2,0,0.2,0c0,0,0.1-0.1,0.1-0.1c0,0-0.1,0-0.1,0C386,54.3,386,54.4,385.9,54.4c-0.1,0-0.2,0-0.4,0
			c-0.2,0-0.5,0.1-0.2,0.4C385.5,54.7,385.7,54.6,385.9,54.4z M398.9,46.1C399,46,399,46,398.9,46.1C399,46,399,46,398.9,46.1
			c-0.4,0.3-0.4,0.3-0.6,0.7C398.8,46.7,398.9,46.4,398.9,46.1z M396.7,48.2c0.2,0.1,0.3,0.3,0.5,0.4c0.3-0.2,0.4-0.4,0.2-0.7
			C397,47.6,396.9,47.9,396.7,48.2c-0.2,0.1-0.5,0.1-0.6,0.2c-0.4,0.5-1,0.9-1.6,1.2c0,0.2,0.1,0.4,0.1,0.6c0.4-0.2,0.9-0.4,1.2-0.6
			C396.3,49.2,396.8,48.9,396.7,48.2z M392.7,51.7c-0.2-0.2-0.3-0.4-0.4-0.5c-0.8,0.3-1.4,0.8-1.8,1.3c0,0,0.1,0.1,0.1,0.2
			C391.2,52.4,391.9,52.1,392.7,51.7z M389,53c-0.5,0.3-1.2,0.3-1.6,0.8c-0.1,0.1-0.3,0.2-0.1,0.4c0.5-0.2,1-0.3,1.5-0.5
			C389.1,53.6,389.3,53.4,389,53z M393,51.1c0.1,0,0.2-0.1,0.2-0.1c0-0.1,0-0.1-0.1-0.2c-0.1,0-0.2,0.1-0.3,0.1
			C392.9,51,392.9,51.1,393,51.1z M384.4,54.9c-0.1,0.1-0.1,0.1-0.2,0.2c0,0,0.1,0.1,0.1,0.1C384.4,55.1,384.4,55.1,384.4,54.9
			C384.4,55,384.4,55,384.4,54.9z M381,55.7c0,0,0.1,0,0.1,0C381.1,55.7,381,55.7,381,55.7C381,55.6,381,55.7,381,55.7z M394,50.9
			C394.1,50.8,394.1,50.8,394,50.9c0.1-0.1,0.1-0.1,0-0.1C394,50.8,394,50.8,394,50.9C394,50.8,394,50.8,394,50.9z"/>
		<path fill="#FFFFFF" d="M250.6,52.9c-1,0-1.9-0.3-2.6-1c-0.5-0.5-1-0.8-1.6-1c-1-0.3-1.8-1-2.5-1.8c-0.4-0.5-0.7-1-0.4-1.6
			c0.3-0.6,0.8-1,1.5-1c2.3-0.2,4.4-0.9,6.5-1.8c0.1-0.1,0.3-0.1,0.4-0.1c2.1-1.5,4.4-2.5,6.3-4.2c0.9-0.7,1.8-1.3,2.7-2
			c1.7-1.3,3.3-2.8,4.8-4.3c1.6-1.7,3.1-3.4,4.5-5.2c2.1-2.7,3.9-5.5,5.7-8.4c0.9-1.5,1.6-3.1,2.5-4.7c0.3-0.6,0.3-1.2,0-1.9
			c-0.1-0.1-0.4-0.1-0.5-0.3c-0.9-0.8-2-0.8-3.1-0.8c-1.7,0-3.4,0.4-5,1c-2.9,1.1-5.7,2.3-8.3,3.9c-1.9,1.1-3.6,2.4-5.3,3.8
			c-0.8,0.7-1.6,1.3-2.4,2c-1.3,1.2-2.6,2.4-3.7,3.8c-0.4,0.5-0.6,1.2-0.9,1.8c-0.2,0.5-0.4,1-1,1.5c-0.3,0.1-0.8,0.2-1.3,0.3
			c-0.4-0.2-0.7-0.4-1.2-0.6c-0.9,0.2-1.8-0.1-2.5-0.8c-0.5-0.5-1-0.8-1.7-1c-0.5-0.1-1-0.6-1.3-1.1c-0.5-0.8-1.1-1.6-1.2-2.8
			c0.1-0.1,0.1-0.4,0.3-0.6c1.9-2.6,4.1-5,6.6-6.9c0.8-0.6,1.6-1.2,2.3-1.9c2.3-1.9,4.9-3.4,7.5-4.8c1.7-0.8,3.4-1.5,5.1-2.2
			c0.1,0,0.3-0.1,0.4-0.1c1.4-0.7,3-1,4.5-1.3c1.5-0.3,3-0.3,4.4-0.1c1.5,0.1,3,0.3,4.4,0.5c0.4,0.1,0.9,0.1,1.3,0.2
			c2,0.6,4,0.9,5.9,2c0.7,0.4,1.4,0.7,2,1c2.6,1.4,4.3,4.9,3.8,8.1c-0.1,0.7-0.4,1.5-0.8,2.1c-1.3,2.5-2.7,4.9-4.3,7.2
			c-1.6,2.3-3.2,4.6-4.8,6.9c-1.4,1.9-3.1,3.7-4.8,5.3c-1.1,1-2.2,2-3.3,3c-0.1,0.1-0.2,0.3-0.4,0.5c0.2,0.1,0.4,0.2,0.5,0.2
			c1.5,0.2,3.1,0.3,4.6,0.4c1.1,0.1,2.2-0.1,3.4-0.3c0.2,0,0.4-0.2,0.5-0.1c0.8,0.3,1.6-0.1,2.5-0.1c0.3,0.2,0.6,0.5,0.9,0.7
			c0.7,0.2,1.4,0,2.2-0.1c0.4,0.5,0.8,1,1.5,1.1c0.2,0.5,0.4,1,0.7,1.7c-0.1,0.7-0.2,1.7-0.3,2.6c-0.1,0.7-0.4,1.4-1.3,1.7
			c-0.2,0-0.4-0.1-0.7-0.1c-0.7-0.1-1.3-0.2-2-0.3c-1.8-0.2-3.5-0.3-5.3-0.5c-2.5-0.2-5-0.3-7.6-0.2c-1.5,0.1-3,0.3-4.4,0.5
			c-1.9,0.3-3.7,0.6-5.6,0.9c-1.3,0.2-2.7,0.5-4,0.9c-1,0.2-1.9,0.5-2.7,1.3c-0.4,0-0.8-0.1-1.2-0.1C251,53.6,250.8,53.3,250.6,52.9
			z"/>
		<path fill="#FFFFFF" d="M341.1,0.4c0.2,0,0.4,0,0.5,0c1.4-0.3,2.5,0.3,3.6,1.1c0.4,0.3,0.7,0.6,1.1,0.9c0.5,1.1,0.3,2.2,0.2,3.5
			c-0.2,0.2-0.4,0.4-0.6,0.5c-0.4,0.4-0.7,0.8-0.8,1.4c-0.4,1.9-0.8,3.7-1.3,5.5c-0.3,1.4-0.6,2.7-0.8,4.1c-0.3,1.5-0.5,3-0.8,4.5
			c-0.2,1.5-0.4,3-0.7,4.6c-0.3,1.7-0.5,3.5-0.8,5.2c-0.4,2.2-0.5,4.5-0.8,6.7c-0.1,1-0.2,2-0.4,3c0,0.3,0,0.5,0.1,0.8
			c0.4,0,0.7,0.1,1,0.1c2.7-0.1,5.3-0.2,8-0.4c1.1-0.1,2.1-0.1,3.2,0.2c0.5,0.1,1,0.1,1.5,0.2c0.3,0.4,0.7,0.9,1.2,1.5
			c0.5,0.2,1.1,0.5,1.7,0.8c0.1,0.2,0.2,0.5,0.3,0.8c0.2-0.1,0.3-0.2,0.5-0.3c0.7,0.1,0.4,1,1,1.2c-0.5,0.6-1.1,0.8-1.7,0.7
			c-1.1-0.1-2.2,0.1-3.4,0.2c-1.3,0.1-2.6,0.2-3.9,0.5c-0.7,0.2-1.5,0.3-2.2,0.3c-0.6,0-1.2,0-1.9,0.1c-3.2,0.3-6.3,0.9-9.5,1.5
			c-2.4,0.5-4.9,0.9-7.3,1.4c-1.2,0.2-2.5,0.4-3.7,0.6c-0.4,0.1-0.8,0.1-1.2,0.3c-0.5,0.2-1,0.1-1.4-0.3c-0.3-0.3-0.6-0.3-0.9-0.4
			c-0.9-0.3-2-0.5-2.3-1.7c-1.9-0.3-3-1.7-3.8-3.2c-0.1-0.5,0.1-0.9,0.4-1.4c0.4,0.1,0.8,0.2,1.3,0.2c0.7,0,1.3-0.1,2-0.2
			c1.2-0.1,2.3-0.2,3.5-0.4c2.3-0.3,4.5-0.7,6.8-1c0.3-0.3,0.6-0.7,0.9-1c0.3-2.3,0.5-4.5,0.8-6.8c0.2-2,0.5-3.9,0.7-5.9
			c0.1-0.7,0-1.6,0.4-2.2c0,0,0-0.1,0-0.1c-0.2-1.1,0.2-2.2,0.3-3.3c0.2-1.6,0.4-3.1,0.6-4.7c0-0.2,0-0.4,0-0.6
			c-0.3-0.2-0.5,0-0.6,0.1c-1,0.8-2.2,1.5-3,2.5c-0.3,0.4-0.5,0.4-1.7,0.5c-0.4-0.3-0.9-0.5-1.5-0.4c-0.8,0.1-0.9-0.1-1.9-1
			c-0.6,0-1.2-0.1-1.8-0.1c-1.2-0.1-2.1-0.7-2.8-1.7c-0.2-0.3-0.3-0.6-0.4-1c-0.1-0.5,0.1-0.9,0.5-1.2c0.1-0.1,0.3-0.2,0.4-0.3
			c1.1-0.4,2-1.1,2.9-1.8c1.5-1.2,3.2-2.2,4.6-3.5c1.7-1.6,3.5-3.2,4.9-5c0.5-0.7,1.1-1.3,1.7-1.9c0.7-0.7,1.2-1.4,1.6-2.3
			c0.4-0.8,0.9-1.3,1.9-1.2c0.3,0,0.7,0,0.9-0.1c0.7-0.5,1.4-0.3,2.1,0C340.8,0.3,341,0.4,341.1,0.4z"/>
		<path fill="#FFFFFF" d="M305.8,10c0.3-0.2,0.6-0.3,1-0.5c0.4,0.1,0.8,0.2,1.1,0.3c0,0.2,0.1,0.3,0.1,0.4c0.1,0,0.2,0.1,0.2,0.1
			c0.8-0.4,1.4-0.3,2.2,0.2c1.1,0.6,2.1,1.2,3,2.1c0.2,0.2,0.5,0.4,0.7,0.6c0.9,0.7,1.6,1.5,2.1,2.5c1,1.8,1.7,3.8,2,5.9
			c0.4,2.4,0.7,4.7,0.6,7.1c-0.1,2.9-0.5,5.7-1.3,8.5c-0.7,2.2-1.5,4.3-2.8,6.3c-1.6,2.6-3.7,4.8-6.2,6.5c-1.1,0.7-2.3,1.2-3.6,1.5
			c-0.5,0.1-1.1,0.2-1.6,0.3c-0.8,0.2-1.6,0-2.4-0.4c-0.6-0.3-1.1-0.6-1.8-0.6c-0.5,0-1-0.4-1.4-0.7c-0.6-0.4-1.2-0.7-1.9-1
			c-1.6-0.7-2.8-1.9-3.6-3.5c0-0.1-0.1-0.2-0.1-0.3c-0.4-0.9-1-1.6-1.2-2.6c-0.2-0.9-0.6-1.7-0.9-2.5c-0.4-1.1-0.8-2.2-0.7-3.4
			c0-0.3-0.1-0.5-0.1-0.8c-0.3-2.4-0.5-4.8,0-7.3c0-0.2,0.1-0.4,0.1-0.5c-0.2-0.8,0-1.5,0.2-2.3c0.1-0.8,0.4-1.6,0.5-2.4
			c0.1-0.3,0.1-0.7,0.3-0.9c0.7-1,0.7-2.3,1.2-3.4c0.1-0.1,0.1-0.3,0.1-0.4c-0.1-0.8,0.3-1.5,0.7-2.2c0.7-1.2,1.6-2.3,2.6-3.3
			c1.2-1.1,2.7-1.7,4.2-2.2c0.3-0.1,0.5-0.1,0.8-0.3c1-0.5,2-0.7,3.1-0.7c0.4,0,0.8-0.1,1.2-0.1C304.6,10,305.2,10,305.8,10z
			 M304.7,19c-0.7,0.1-1.4,0.2-2.1,0.3c-0.1,0.1-0.2,0.2-0.3,0.4c-0.9,1.5-1.7,3-2.3,4.6c-1.2,3.5-1.9,7-1.9,10.7
			c0,2.8,0.4,5.6,1.1,8.3c0.2,0.6,0.4,1.2,0.8,1.7c0.2,0,0.4,0,0.5-0.1c1.2-0.8,2.4-1.5,3.1-2.7c0.1-0.2,0.2-0.4,0.4-0.5
			c0.7-0.4,1-1.1,1.4-1.8c0.4-0.5,0.8-1,1.1-1.6c0.3-0.5,0.5-1.2,0.8-1.7c0.9-1.7,1.3-3.5,1.8-5.2c0.4-1.4,0.5-2.8,0.6-4.3
			c0.1-2.3-0.1-4.5-0.5-6.7c-0.1-0.6-0.3-1.1-0.4-1.5c-0.6-0.4-1-0.6-1.5-0.9c-0.6,0.4-0.7,1.1-1.2,1.7c-0.3,0-0.6,0.1-1,0.1
			C304.9,19.4,304.8,19.2,304.7,19z M316.4,31c0,0.2-0.1,0.3,0,0.4c0,0.1,0.1,0.1,0.2,0.2c0-0.1,0.1-0.1,0.1-0.2
			C316.5,31.3,316.5,31.2,316.4,31z M316.6,29.6C316.6,29.6,316.7,29.6,316.6,29.6c0.1-0.1,0.1-0.1,0.1-0.1c0,0-0.1,0-0.1,0
			C316.6,29.5,316.6,29.6,316.6,29.6z"/>
	</g>
</g>
</svg>
