<?xml version="1.0" encoding="utf-8"?>
<!-- Generator: Adobe Illustrator 18.1.1, SVG Export Plug-In . SVG Version: 6.00 Build 0)  -->
<svg version="1.1" id="Layer_1" xmlns="http://www.w3.org/2000/svg" xmlns:xlink="http://www.w3.org/1999/xlink" x="0px" y="0px"
	 viewBox="0 0 44.2 62.1" enable-background="new 0 0 44.2 62.1" xml:space="preserve">
<path d="M28.3,14.8c0.3-0.2,0.5-0.4,0.8-0.5c1.3-0.5,2.7-1,4-1.5c1.8-0.6,3.5-1.4,5.3-1.7c2.2-0.4,4,0.3,5.3,2.1
	c0.7,0.9,0.5,1.9,0.1,2.8c-0.9,1.9-2,3.7-3.4,5.3c-1.2,1.4-2.3,2.8-3.5,4.2c-0.5,0.6-1.1,1.1-1.7,1.7c-0.1,0.1-0.3,0.2-0.4,0.4
	c-0.7,0.8-1.3,1.6-2,2.4c-0.8,0.9-1.6,1.6-2.4,2.5c-1.7,1.9-3.3,3.9-4.9,5.9c-2.5,3.2-4.9,6.5-7.3,11.6c-0.7,1.4-1.4,2.8-2.2,4.2
	c-0.3,0.5-0.4,1-0.2,1.6c0.3,0.9,0.5,1.8,0.7,2.7c0.1,0.3,0.1,0.6,0.2,0.8c0.3,1.8-0.4,2.7-2.3,2.8c-0.2-0.2-0.4-0.3-0.6-0.5
	c-0.2-0.2-0.3-0.5-0.5-0.7c-1.4,1-2.5,0.2-3.5-0.9c0-0.7,0-1.4,0.1-2.2c0-0.3,0.3-0.6,0.5-0.9c0.4-0.7,0.9-1.4,1.2-2.1
	c0.2-0.5,0.2-1.2,0.1-1.7c-0.6-2.4-1.3-4.9-2-7.3C9,42.8,8.2,40,7.4,37.2c-0.5-1.8-1.1-3.5-1.7-5.2c-0.2-0.8-0.4-1.7-0.6-2.5
	c0.2,0.3,0.4,0.5,0.8,1c0.1-0.6,0.1-1,0.2-1.5c0.2-0.2,0.6-0.3,0.6-1.1c-0.5,0.7-1.1,0.5-1.6,0.3c0,0.5,0.1,0.9,0.1,1.2
	C5,29.3,4.8,29.2,4.8,29c-0.4-1.5-0.8-3-1.2-4.4c0,0,0,0,0,0C3.1,24,3,23.2,2.8,22.5c-0.6-2-1.2-4-1.8-6C0.3,13.8-0.1,11.1,0,8.3
	c0.1-2.1,0.7-4,1.6-5.9C2,1.8,2.4,1.2,2.8,0.6C3.2,0.1,3.7,0,4.3,0c1.3,0,2.4,0.5,3.4,1.2c0.6,0.4,1.1,1,1.8,1.4
	c1,0.6,1.6,1.6,2.3,2.5c0.9,1.1,1.8,2.1,2.7,3.1c1,1.2,1.9,2.4,2.7,3.8c0.8,1.6,1.8,3.1,2.7,4.7c0.2,0.3,0.4,0.7,0.7,1.1
	c0.4-0.1,0.8-0.2,1.2-0.3c0.8-0.4,1.6-0.8,2.4-1.1C25.5,15.7,26.8,15,28.3,14.8c0,0.2,0,0.4,0,0.6c0.1,0,0.1,0,0.2,0
	C28.5,15.2,28.4,15,28.3,14.8z M12.8,9.7L12.8,9.7L12.8,9.7z M4.6,27L4.6,27L4.6,27z M33.4,13.7C33.4,13.7,33.4,13.7,33.4,13.7
	c-0.1,0-0.1,0-0.1,0C33.3,13.7,33.4,13.7,33.4,13.7z M27.7,16.7c0,0,0.1,0.1,0.1,0.1C27.7,16.8,27.7,16.8,27.7,16.7
	C27.6,16.7,27.6,16.6,27.7,16.7C27.6,16.6,27.6,16.7,27.7,16.7z M4.2,20.8c0.1-0.1,0.1-0.3,0.2-0.4c0.1,0,0.2,0,0.1,0
	c0.1-0.1,0,0,0,0C4.4,20.5,4.3,20.7,4.2,20.8c0.1,0,0.1,0.1,0.1,0.1C4.3,20.9,4.3,20.8,4.2,20.8z M26.5,33
	C26.6,33.1,26.7,33.1,26.5,33C26.7,33.1,26.6,33,26.5,33c0-0.1,0-0.1,0-0.1C26.5,32.9,26.5,33,26.5,33z M32.3,29.5
	C32.4,29.5,32.5,29.5,32.3,29.5C32.5,29.4,32.4,29.5,32.3,29.5C32.2,29.6,32.2,29.7,32.3,29.5C32.2,29.7,32.3,29.6,32.3,29.5z
	 M10.6,41.5C10.6,41.5,10.6,41.5,10.6,41.5c-0.1,0-0.2,0-0.3,0c0,0,0,0.1,0.1,0.1C10.5,41.6,10.6,41.5,10.6,41.5z M7.4,29.3
	c0-0.2,0-0.3,0-0.5c-0.1,0-0.1,0-0.2,0c0,0.1,0,0.3,0,0.4c-0.1,0-0.2,0-0.1,0c-0.1,0.1,0,0,0,0C7.3,29.2,7.3,29.3,7.4,29.3
	c0.1,0.1,0.1,0.2,0.1,0.3c-0.3,0.6-0.5,1.2-0.8,1.9c0.7,0,1-0.5,1.4-0.5c-0.2-0.5-0.4-1-0.6-1.4C7.4,29.5,7.4,29.4,7.4,29.3z
	 M10.1,39C10.1,39,10.1,39.1,10.1,39c-0.5,0-1.1,0-1.6,0.1C9.1,39.6,9.6,39.4,10.1,39z M13.3,47.6c-0.3-0.2-0.6-0.5-1.1-0.1
	C12.6,47.8,12.9,47.9,13.3,47.6c0.2,0.4,0.3,0.9,0.5,1.4c0.1,0.3,0,0.7,0.5,0.8c0.1-0.2,0.3-0.3,0.4-0.5c0.8-1.4,1.5-2.8,2.3-4.2
	c0.5-1.1,1.2-2,2.2-2.7c0.3,0,0.5,0,0.8-0.1c-0.1-0.2-0.1-0.3-0.1-0.3c-0.1-0.1-0.3-0.2-0.6-0.3c1.5-2,2.9-4,4.3-6
	c0.3,0.1,0.4,0.1,0.5,0.1c0.1-0.4,0.1-0.8,0.3-1.1c0.8-1,1.6-2,2.5-3c1.4-1.6,2.8-3.1,4.2-4.7c1-1.1,2.1-2.3,3.1-3.4
	c0.3-0.3,0.6-0.7,0.9-1.1c0.9-1.1,1.8-2.3,2.7-3.4c1-1.4,2.1-2.7,2.7-4.4c-1-0.4-2-0.3-3,0.1c-1.3,0.5-2.6,1-3.8,1.5
	c-1.7,0.7-3.4,1.4-5.1,2.1c-0.9,0.4-1.7,0.8-2.5,1.2c-0.7,0.3-1.5,0.6-2.1,1.1c-0.8,0.5-1.4,1.1-1.8,2.1c-0.8,1.8-0.8,1.7-2.3,2.6
	c-0.6,0.3-2.1,0.2-2.4-0.3c-0.4-0.6-0.7-1.3-0.7-2.1c0-0.9-0.1-1.7-0.1-2.6c0-0.7-0.4-1.4,0-2.1c0.1-0.1,0-0.3,0-0.4
	c-0.3-0.9-0.5-1.9-1-2.7c-1.6-2.7-3.4-5.3-5.6-7.6C8.6,6.1,7.5,4.6,5.8,4C5.3,4,5,4.2,4.8,4.6C4,5.9,3.6,7.2,3.5,8.6
	c-0.1,1.2-0.1,2.5,0,3.8c0.1,1.4,0.4,2.9,0.8,4.2c0.4,1.7,1,3.5,1.5,5.2c0.7,3,1.7,6,2.7,8.9c0.5,1.4,0.9,2.7,1.2,4.1
	c0.2,1.1,0.7,2.1,1,3.2c0.1,0.2,0.1,0.4,0.2,0.6c0.8,2.7,1.6,5.3,2.3,8C13.3,46.9,13.2,47.2,13.3,47.6z M33.1,25.6
	c0.6,0.2,0.9,0,1-0.6C33.6,25,33.3,25.1,33.1,25.6z M7.6,36.5c0.1,0,0.2,0,0.3,0c0.2-0.3,0.3-0.6-0.4-0.9
	C7.5,35.9,7.6,36.2,7.6,36.5z M28.5,31.2c0.4,0.2,0.6,0.1,0.8-0.2c0-0.1-0.1-0.3-0.3-0.6C28.8,30.7,28.7,30.9,28.5,31.2z M32.9,14.5
	c-0.2-0.4-0.3-0.7-0.9-0.6C32.2,14.4,32.4,14.5,32.9,14.5z M5,24c0,0.1,0.1,0.2,0.1,0.3c0.2-0.1,0.4-0.2,0.6-0.4c0,0,0-0.2,0-0.4
	C5.5,23.7,5.3,23.9,5,24z M30.2,15.5c0.4-0.6,0.4-0.6-0.1-0.9C30.1,14.9,30.1,15.2,30.2,15.5z M30.4,30.9c-0.1-0.6-0.1-0.6-0.6-0.4
	C30,30.7,30.2,30.8,30.4,30.9z M22,38.7c0.6-0.2,0.6-0.2,0.7-0.5c0,0-0.1-0.1-0.2-0.2C22.4,38.2,22.2,38.4,22,38.7z M7.9,35.1
	c-0.3-0.5-0.3-0.5-0.9-0.3C7.3,34.9,7.6,35,7.9,35.1z M3,21.2c0.1,0,0.1,0.1,0.2,0.1c0.1-0.1,0.2-0.2,0.3-0.3c0-0.1-0.1-0.2-0.1-0.5
	C3.2,20.8,3.1,21,3,21.2z M8.8,37.7c0.6-0.2,0.6-0.6,0.4-1C9.1,37,9,37.3,8.8,37.7z M27,32.2c0.4,0.3,0.6,0.3,0.7-0.2
	C27.4,32.1,27.2,32.1,27,32.2z M15.4,49.5c-0.1,0-0.2,0-0.2,0c-0.1,0.2-0.3,0.4,0.2,0.5C15.4,49.8,15.4,49.6,15.4,49.5z M6.2,25.4
	c-0.1,0-0.1,0-0.2-0.1c-0.1,0.1-0.1,0.3-0.2,0.4c0.1,0,0.1,0,0.2,0.1C6.1,25.7,6.1,25.5,6.2,25.4z M10.2,44.2c-0.1,0-0.1,0-0.2,0
	c0,0.2,0.1,0.4,0.1,0.6c0.1,0,0.1,0,0.2,0C10.3,44.6,10.2,44.4,10.2,44.2z M16,50.1c0,0.1,0,0.1,0,0.2c0.1,0,0.3,0.1,0.4,0.1
	c0-0.1,0-0.1,0-0.2C16.3,50.2,16.2,50.2,16,50.1z M29.5,16.9c0,0,0.1-0.1,0.1-0.1c-0.1-0.1-0.2-0.2-0.4-0.3c0,0-0.1,0.1-0.1,0.1
	C29.3,16.7,29.4,16.8,29.5,16.9z M9.7,38c0.1,0.1,0.1,0.2,0.1,0.3c0,0,0.2,0,0.2,0c0-0.1,0-0.2,0-0.3C10,38,9.9,38,9.7,38z
	 M3.5,22.5c0.1,0.1,0.1,0.1,0.2,0.2c0.1-0.1,0.1-0.2,0.2-0.3c0,0-0.1-0.1-0.1-0.1C3.6,22.3,3.6,22.4,3.5,22.5z M9.4,42.2
	c0.1,0,0.2-0.1,0.2-0.1c0,0,0-0.1,0-0.2c-0.1,0-0.2,0-0.3,0.1C9.3,42,9.4,42.1,9.4,42.2z M16.1,12.6c0,0.1,0,0.2,0,0.2
	c0.1,0,0.2,0,0.3,0c0,0,0-0.1,0-0.2C16.3,12.6,16.2,12.6,16.1,12.6z M19.6,43.5c0,0.1-0.1,0.1-0.1,0.2c0.1,0,0.2,0.1,0.4,0.1
	c0,0,0-0.1,0.1-0.1C19.8,43.6,19.7,43.6,19.6,43.5z M34.4,24.4c0-0.1,0-0.1,0-0.2c-0.1,0-0.1,0-0.2,0.1c0,0,0,0.1,0,0.2
	C34.3,24.5,34.4,24.4,34.4,24.4z M9.4,3.9c0.1,0,0.1,0,0.2,0c0-0.1-0.1-0.2-0.1-0.3c0,0-0.1,0-0.1,0C9.4,3.7,9.4,3.8,9.4,3.9z
	 M11.5,43.2c0-0.1,0-0.1,0-0.2c0,0-0.1,0-0.2,0c0,0.1,0,0.2,0,0.3C11.3,43.2,11.4,43.2,11.5,43.2z M24.8,19.6c0.1,0,0.1-0.1,0.2-0.1
	c0,0-0.1-0.1-0.1-0.1c0,0-0.1,0-0.1,0C24.8,19.5,24.8,19.6,24.8,19.6z M17,46c0.1,0,0.1,0,0.2,0c0,0,0-0.1,0-0.1
	c0,0-0.1-0.1-0.1-0.1C17.1,45.8,17.1,45.9,17,46z M18.6,43.4c0,0-0.1,0.1-0.1,0.1c0.1,0,0.1,0.1,0.2,0.1c0,0,0.1-0.1,0.1-0.1
	C18.7,43.5,18.6,43.5,18.6,43.4z M35.3,23.3c0.1,0,0.1-0.1,0.2-0.1c0,0-0.1-0.1-0.1-0.1c0,0-0.1,0-0.1,0
	C35.3,23.2,35.3,23.3,35.3,23.3z M41.5,15.3c0-0.1-0.1-0.1-0.1-0.2c0,0-0.1,0.1-0.1,0.1c0,0,0.1,0.1,0.1,0.2
	C41.4,15.4,41.5,15.3,41.5,15.3z M27.5,33.7c0,0,0.1-0.1,0.1-0.1c0,0,0-0.1,0-0.1c-0.1,0-0.1,0-0.2,0C27.4,33.6,27.4,33.6,27.5,33.7
	z M36.8,22.4c0.1,0,0.1,0,0.2,0c0,0-0.1-0.1-0.1-0.1c0,0-0.1,0-0.1,0C36.8,22.3,36.8,22.3,36.8,22.4z M33.3,27.2c0.1,0,0.1,0,0.2,0
	c0,0,0-0.1,0-0.1C33.4,27.1,33.3,27.1,33.3,27.2C33.2,27.1,33.2,27.2,33.3,27.2z M1.9,5.1C1.9,5.2,1.9,5.2,1.9,5.1
	c-0.1,0.1,0,0.1,0,0.1C1.9,5.3,2,5.2,1.9,5.1C2,5.2,1.9,5.2,1.9,5.1z M1.7,9.1C1.7,9.2,1.6,9.2,1.7,9.1c-0.1,0.1,0,0.1,0,0.1
	C1.7,9.2,1.7,9.2,1.7,9.1C1.7,9.2,1.7,9.2,1.7,9.1z M2.6,17.1C2.6,17.2,2.6,17.2,2.6,17.1c0.1,0.1,0.1,0,0.1,0
	C2.7,17.1,2.7,17.1,2.6,17.1C2.6,17.1,2.6,17.1,2.6,17.1z M9.9,4.8c0.1,0,0.1,0,0.2,0c0,0,0-0.1-0.1-0.1c0,0-0.1,0-0.1,0
	C9.9,4.7,9.9,4.7,9.9,4.8z M4.2,18.9c0,0,0.1-0.1,0.1-0.1c0,0-0.1,0-0.1,0C4.2,18.8,4.2,18.9,4.2,18.9z M10.8,5.7
	C10.9,5.7,10.9,5.7,10.8,5.7c0.1-0.1,0-0.1,0-0.1C10.8,5.6,10.8,5.7,10.8,5.7C10.8,5.7,10.8,5.7,10.8,5.7z M13.5,51.2
	C13.4,51.2,13.4,51.2,13.5,51.2c-0.1-0.1-0.1,0-0.1,0C13.4,51.2,13.4,51.3,13.5,51.2C13.4,51.3,13.4,51.3,13.5,51.2z M18,44.8
	c0-0.1-0.1-0.1-0.1-0.2c0,0-0.1,0.1-0.1,0.1C17.8,44.7,17.9,44.8,18,44.8C17.9,44.8,17.9,44.8,18,44.8z M21.6,39.1
	C21.6,39.1,21.6,39.1,21.6,39.1c-0.1,0.1-0.1,0.1-0.1,0.2c0,0,0.1,0,0.1,0C21.6,39.2,21.6,39.2,21.6,39.1z M20.5,42.1
	c0-0.1,0-0.1-0.1-0.2c0,0-0.1,0-0.1,0C20.4,42,20.4,42,20.5,42.1C20.5,42.1,20.5,42.1,20.5,42.1z M35.9,14.3c0,0-0.1-0.1-0.1-0.1
	c0,0,0,0.1,0,0.1C35.8,14.3,35.8,14.3,35.9,14.3C35.9,14.3,35.9,14.3,35.9,14.3z M25,37.5C25,37.6,25,37.6,25,37.5
	c0,0.1,0.1,0.1,0.1,0.1C25.1,37.6,25.1,37.6,25,37.5C25.1,37.5,25,37.5,25,37.5z M12.2,7.4C12.2,7.4,12.3,7.3,12.2,7.4
	c0.1-0.1,0-0.1,0-0.1C12.2,7.3,12.2,7.3,12.2,7.4C12.2,7.3,12.2,7.4,12.2,7.4z M12.5,8.6C12.5,8.6,12.5,8.7,12.5,8.6
	C12.5,8.7,12.5,8.7,12.5,8.6C12.6,8.7,12.6,8.6,12.5,8.6C12.6,8.6,12.5,8.6,12.5,8.6z M16.3,11.9C16.3,11.9,16.3,11.9,16.3,11.9
	c-0.1-0.1-0.1,0-0.1,0C16.2,11.9,16.2,12,16.3,11.9C16.3,12,16.3,11.9,16.3,11.9z M6.5,32.6c0,0,0.1-0.1,0.1-0.1c0,0-0.1,0-0.1,0
	C6.5,32.5,6.5,32.5,6.5,32.6z M16.3,15.7c0,0,0.1,0.1,0.1,0.1c0,0,0.1-0.1,0-0.1C16.4,15.7,16.4,15.6,16.3,15.7
	C16.3,15.6,16.3,15.6,16.3,15.7z M8.2,38.1c0,0,0,0.1,0,0.1c0.1,0,0.1,0,0.2,0c0,0,0-0.1,0-0.1C8.3,38.1,8.3,38.1,8.2,38.1z
	 M29.2,32.8C29.2,32.8,29.3,32.9,29.2,32.8c0.1,0,0.1,0,0.1-0.1c0,0,0,0-0.1-0.1C29.3,32.7,29.2,32.8,29.2,32.8z M18.3,25
	c0,0,0.1-0.1,0.1-0.1c0,0-0.1,0-0.1,0C18.3,25,18.3,25,18.3,25z M8.1,32.3C8.1,32.2,8.1,32.2,8.1,32.3c-0.1-0.1-0.1,0-0.1,0
	C8.1,32.3,8.1,32.3,8.1,32.3z M12.4,50.9C12.4,50.8,12.5,50.8,12.4,50.9c0-0.1,0-0.1,0-0.1C12.4,50.8,12.4,50.8,12.4,50.9
	C12.4,50.8,12.4,50.8,12.4,50.9z M29.6,15c0,0-0.1-0.1-0.1-0.1c0,0,0,0.1,0,0.1C29.5,15,29.5,15,29.6,15z M12.5,50.2L12.5,50.2
	L12.5,50.2L12.5,50.2z M10.9,40.6c0,0-0.1,0-0.1,0C10.8,40.7,10.8,40.7,10.9,40.6C10.9,40.7,10.9,40.7,10.9,40.6z M17.8,14.2
	C17.9,14.1,17.9,14.1,17.8,14.2c0.1-0.1,0-0.1,0-0.1C17.8,14.1,17.8,14.1,17.8,14.2z M9.1,34.6C9.1,34.5,9.2,34.5,9.1,34.6
	c0.1-0.1,0-0.1,0-0.1C9.1,34.5,9.1,34.5,9.1,34.6z M13.4,49.6L13.4,49.6L13.4,49.6L13.4,49.6z M0.8,12.6C0.8,12.6,0.9,12.6,0.8,12.6
	C0.8,12.5,0.8,12.5,0.8,12.6C0.8,12.6,0.8,12.6,0.8,12.6C0.8,12.6,0.8,12.6,0.8,12.6z M32.4,27.4c-0.1,0-0.1,0-0.1,0
	C32.3,27.4,32.3,27.4,32.4,27.4C32.4,27.4,32.4,27.4,32.4,27.4z M39.4,17.6C39.4,17.6,39.3,17.6,39.4,17.6c0,0.1,0,0.1,0,0.1
	C39.4,17.7,39.4,17.7,39.4,17.6C39.4,17.6,39.4,17.6,39.4,17.6z M36.6,12.7C36.6,12.7,36.7,12.7,36.6,12.7c0.1,0,0.1-0.1,0.1-0.1
	C36.7,12.6,36.6,12.6,36.6,12.7C36.6,12.6,36.6,12.7,36.6,12.7z M34.8,14.5C34.8,14.5,34.9,14.4,34.8,14.5c0.1-0.1,0-0.1,0-0.1
	C34.8,14.4,34.8,14.4,34.8,14.5C34.8,14.4,34.8,14.5,34.8,14.5z M23.9,40c0,0,0.1,0,0.1,0C24,40,23.9,39.9,23.9,40
	C23.9,39.9,23.9,40,23.9,40z"/>
</svg>
