<?xml version="1.0" encoding="iso-8859-1"?>
<!-- Generator: Adobe Illustrator 19.1.0, SVG Export Plug-In . SVG Version: 6.00 Build 0)  -->
<svg version="1.1" id="Layer_1" xmlns="http://www.w3.org/2000/svg" xmlns:xlink="http://www.w3.org/1999/xlink" x="0px" y="0px"
	 viewBox="0 0 29.615 29.615" style="enable-background:new 0 0 29.615 29.615;" xml:space="preserve">
<g id="XMLID_168_">
	<g id="XMLID_148_">
		<circle id="XMLID_150_" style="fill:#F15B4B;" cx="14.808" cy="14.808" r="14.808"/>
		<g id="XMLID_701_">
			<path id="XMLID_702_" style="fill:#FFFFFF;" d="M14.187,19.479c-0.66,0-1.222-0.15-1.684-0.45
				c-0.463-0.3-0.851-0.691-1.163-1.175l1.105-1.348c0.25,0.364,0.513,0.642,0.787,0.833s0.6,0.287,0.976,0.287
				c0.306,0,0.555-0.102,0.745-0.305c0.191-0.204,0.287-0.478,0.287-0.823v-0.026c0-0.38-0.125-0.672-0.375-0.875
				c-0.251-0.204-0.602-0.305-1.054-0.305h-0.668l-0.25-1.3l1.742-2.229h-2.868V9.99h4.942v1.546l-1.855,2.252
				c0.25,0.053,0.492,0.138,0.728,0.253c0.234,0.116,0.444,0.275,0.63,0.479c0.185,0.205,0.334,0.46,0.445,0.767
				c0.112,0.307,0.168,0.677,0.168,1.113v0.026c0,0.444-0.061,0.851-0.184,1.22c-0.122,0.369-0.297,0.691-0.524,0.966
				c-0.228,0.276-0.506,0.489-0.833,0.64C14.957,19.403,14.59,19.479,14.187,19.479z"/>
		</g>
	</g>
	<g id="XMLID_69_">
		<circle id="XMLID_71_" style="fill:#F15B4B;" cx="14.808" cy="14.808" r="14.808"/>
		<g id="XMLID_698_">
			<path id="XMLID_699_" style="fill:#FFFFFF;" d="M14.187,19.479c-0.66,0-1.222-0.15-1.684-0.45
				c-0.463-0.3-0.851-0.691-1.163-1.175l1.105-1.348c0.25,0.364,0.513,0.642,0.787,0.833s0.6,0.287,0.976,0.287
				c0.306,0,0.555-0.102,0.745-0.305c0.191-0.204,0.287-0.478,0.287-0.823v-0.026c0-0.38-0.125-0.672-0.375-0.875
				c-0.251-0.204-0.602-0.305-1.054-0.305h-0.668l-0.25-1.3l1.742-2.229h-2.868V9.99h4.942v1.546l-1.855,2.252
				c0.25,0.053,0.492,0.138,0.728,0.253c0.234,0.116,0.444,0.275,0.63,0.479c0.185,0.205,0.334,0.46,0.445,0.767
				c0.112,0.307,0.168,0.677,0.168,1.113v0.026c0,0.444-0.061,0.851-0.184,1.22c-0.122,0.369-0.297,0.691-0.524,0.966
				c-0.228,0.276-0.506,0.489-0.833,0.64C14.957,19.403,14.59,19.479,14.187,19.479z"/>
		</g>
	</g>
</g>
</svg>
