<?xml version="1.0" encoding="iso-8859-1"?>
<!-- Generator: Adobe Illustrator 19.1.0, SVG Export Plug-In . SVG Version: 6.00 Build 0)  -->
<svg version="1.1" id="Layer_1" xmlns="http://www.w3.org/2000/svg" xmlns:xlink="http://www.w3.org/1999/xlink" x="0px" y="0px"
	 viewBox="0 0 29.615 29.615" style="enable-background:new 0 0 29.615 29.615;" xml:space="preserve">
<g id="XMLID_180_">
	<g id="XMLID_112_">
		<circle id="XMLID_114_" style="fill:#F15B4B;" cx="14.808" cy="14.808" r="14.808"/>
		<g id="XMLID_593_">
			<path id="XMLID_594_" style="fill:#FFFFFF;" d="M9.925,12.004l-1.272,0.399l-0.334-1.679l2.097-0.8h1.095v9.396H9.925V12.004z"/>
			<path id="XMLID_596_" style="fill:#FFFFFF;" d="M16.903,19.48c-0.591,0-1.105-0.124-1.543-0.371
				c-0.438-0.246-0.835-0.586-1.189-1.019l0.97-1.476c0.278,0.319,0.557,0.568,0.835,0.746s0.58,0.267,0.907,0.267
				c0.376,0,0.673-0.111,0.892-0.335s0.329-0.545,0.329-0.965v-0.026c0-0.402-0.12-0.715-0.36-0.938
				c-0.24-0.224-0.551-0.335-0.934-0.335c-0.229,0-0.446,0.033-0.651,0.1s-0.395,0.149-0.568,0.247l-0.929-0.787l0.209-4.598h4.493
				v1.8h-3.116l-0.084,1.624c0.146-0.044,0.292-0.081,0.438-0.112c0.146-0.03,0.319-0.046,0.521-0.046
				c0.354,0,0.687,0.058,0.997,0.173s0.583,0.292,0.817,0.532c0.234,0.239,0.419,0.547,0.552,0.924s0.199,0.826,0.199,1.35v0.026
				c0,0.497-0.066,0.942-0.199,1.337s-0.32,0.731-0.562,1.011c-0.241,0.279-0.534,0.494-0.88,0.645
				C17.702,19.405,17.321,19.48,16.903,19.48z"/>
		</g>
	</g>
	<g id="XMLID_33_">
		<circle id="XMLID_35_" style="fill:#F15B4B;" cx="14.808" cy="14.808" r="14.808"/>
		<g id="XMLID_588_">
			<path id="XMLID_589_" style="fill:#FFFFFF;" d="M9.925,12.004l-1.272,0.399l-0.334-1.679l2.097-0.8h1.095v9.396H9.925V12.004z"/>
			<path id="XMLID_591_" style="fill:#FFFFFF;" d="M16.903,19.48c-0.591,0-1.105-0.124-1.543-0.371
				c-0.438-0.246-0.835-0.586-1.189-1.019l0.97-1.476c0.278,0.319,0.557,0.568,0.835,0.746s0.58,0.267,0.907,0.267
				c0.376,0,0.673-0.111,0.892-0.335s0.329-0.545,0.329-0.965v-0.026c0-0.402-0.12-0.715-0.36-0.938
				c-0.24-0.224-0.551-0.335-0.934-0.335c-0.229,0-0.446,0.033-0.651,0.1s-0.395,0.149-0.568,0.247l-0.929-0.787l0.209-4.598h4.493
				v1.8h-3.116l-0.084,1.624c0.146-0.044,0.292-0.081,0.438-0.112c0.146-0.03,0.319-0.046,0.521-0.046
				c0.354,0,0.687,0.058,0.997,0.173s0.583,0.292,0.817,0.532c0.234,0.239,0.419,0.547,0.552,0.924s0.199,0.826,0.199,1.35v0.026
				c0,0.497-0.066,0.942-0.199,1.337s-0.32,0.731-0.562,1.011c-0.241,0.279-0.534,0.494-0.88,0.645
				C17.702,19.405,17.321,19.48,16.903,19.48z"/>
		</g>
	</g>
</g>
</svg>
