<?xml version="1.0" encoding="iso-8859-1"?>
<!-- Generator: Adobe Illustrator 19.1.0, SVG Export Plug-In . SVG Version: 6.00 Build 0)  -->
<svg version="1.1" id="Layer_1" xmlns="http://www.w3.org/2000/svg" xmlns:xlink="http://www.w3.org/1999/xlink" x="0px" y="0px"
	 viewBox="0 0 29.615 29.615" style="enable-background:new 0 0 29.615 29.615;" xml:space="preserve">
<g id="XMLID_163_">
	<g id="XMLID_85_">
		<circle id="XMLID_87_" style="fill:#F15B4B;" cx="14.808" cy="14.808" r="14.808"/>
		<g id="XMLID_558_">
			<path id="XMLID_559_" style="fill:#FFFFFF;" d="M4.671,9.749h2.37l1.736,6.182l1.736-6.182h2.326l-3.102,9.838H7.773L4.671,9.749
				z"/>
			<path id="XMLID_561_" style="fill:#FFFFFF;" d="M14.5,9.749h2.13v9.769H14.5V9.749z"/>
			<path id="XMLID_563_" style="fill:#FFFFFF;" d="M19.12,9.749h3.276c0.48,0,0.918,0.077,1.311,0.23
				c0.394,0.153,0.729,0.377,1.005,0.67s0.49,0.653,0.639,1.082c0.149,0.428,0.225,0.912,0.225,1.451v0.028
				c0,0.577-0.082,1.084-0.246,1.521c-0.164,0.438-0.392,0.805-0.683,1.103c-0.291,0.298-0.639,0.521-1.043,0.67
				s-0.843,0.223-1.315,0.223h-1.049v2.791H19.12V9.749z M22.244,14.605c0.378,0,0.675-0.114,0.89-0.344
				c0.215-0.229,0.322-0.54,0.322-0.933v-0.028c0-0.421-0.107-0.741-0.322-0.961c-0.215-0.22-0.515-0.33-0.9-0.33h-0.994v2.596
				H22.244z"/>
		</g>
	</g>
	<g id="XMLID_6_">
		<circle id="XMLID_8_" style="fill:#F15B4B;" cx="14.808" cy="14.808" r="14.808"/>
		<g id="XMLID_550_">
			<path id="XMLID_551_" style="fill:#FFFFFF;" d="M4.671,9.749h2.37l1.736,6.182l1.736-6.182h2.326l-3.102,9.838H7.773L4.671,9.749
				z"/>
			<path id="XMLID_553_" style="fill:#FFFFFF;" d="M14.5,9.749h2.13v9.769H14.5V9.749z"/>
			<path id="XMLID_555_" style="fill:#FFFFFF;" d="M19.12,9.749h3.276c0.48,0,0.918,0.077,1.311,0.23
				c0.394,0.153,0.729,0.377,1.005,0.67s0.49,0.653,0.639,1.082c0.149,0.428,0.225,0.912,0.225,1.451v0.028
				c0,0.577-0.082,1.084-0.246,1.521c-0.164,0.438-0.392,0.805-0.683,1.103c-0.291,0.298-0.639,0.521-1.043,0.67
				s-0.843,0.223-1.315,0.223h-1.049v2.791H19.12V9.749z M22.244,14.605c0.378,0,0.675-0.114,0.89-0.344
				c0.215-0.229,0.322-0.54,0.322-0.933v-0.028c0-0.421-0.107-0.741-0.322-0.961c-0.215-0.22-0.515-0.33-0.9-0.33h-0.994v2.596
				H22.244z"/>
		</g>
	</g>
</g>
</svg>
