<?xml version="1.0" encoding="iso-8859-1"?>
<!-- Generator: Adobe Illustrator 19.1.0, SVG Export Plug-In . SVG Version: 6.00 Build 0)  -->
<svg version="1.1" id="Layer_1" xmlns="http://www.w3.org/2000/svg" xmlns:xlink="http://www.w3.org/1999/xlink" x="0px" y="0px"
	 viewBox="0 0 29.615 29.615" style="enable-background:new 0 0 29.615 29.615;" xml:space="preserve">
<g id="XMLID_177_">
	<g id="XMLID_121_">
		<circle id="XMLID_123_" style="fill:#F15B4B;" cx="14.808" cy="14.808" r="14.808"/>
		<g id="XMLID_625_">
			<path id="XMLID_626_" style="fill:#FFFFFF;" d="M9.963,12.003l-1.272,0.399l-0.334-1.679l2.097-0.8h1.095v9.396H9.963V12.003z"/>
			<path id="XMLID_628_" style="fill:#FFFFFF;" d="M14.271,17.696l2.431-2.541c0.229-0.239,0.424-0.454,0.584-0.646
				c0.16-0.19,0.29-0.372,0.391-0.545s0.174-0.342,0.22-0.506c0.045-0.164,0.067-0.344,0.067-0.539c0-0.398-0.091-0.7-0.271-0.904
				s-0.417-0.306-0.709-0.306c-0.285,0-0.537,0.102-0.756,0.307c-0.219,0.204-0.464,0.52-0.735,0.946l-1.127-1.16
				c0.182-0.312,0.363-0.59,0.548-0.831s0.383-0.445,0.595-0.611c0.212-0.165,0.446-0.29,0.704-0.375
				c0.257-0.085,0.549-0.128,0.876-0.128c0.375,0,0.718,0.068,1.027,0.206c0.31,0.139,0.573,0.331,0.793,0.58
				c0.219,0.249,0.389,0.551,0.511,0.906c0.121,0.355,0.183,0.751,0.183,1.187v0.026c0,0.391-0.04,0.739-0.12,1.046
				s-0.198,0.596-0.354,0.866c-0.156,0.271-0.356,0.542-0.6,0.813c-0.244,0.271-0.525,0.566-0.845,0.886l-1.189,1.173h3.182v1.772
				h-5.403V17.696z"/>
		</g>
	</g>
	<g id="XMLID_42_">
		<circle id="XMLID_44_" style="fill:#F15B4B;" cx="14.808" cy="14.808" r="14.808"/>
		<g id="XMLID_620_">
			<path id="XMLID_621_" style="fill:#FFFFFF;" d="M9.963,12.003l-1.272,0.399l-0.334-1.679l2.097-0.8h1.095v9.396H9.963V12.003z"/>
			<path id="XMLID_623_" style="fill:#FFFFFF;" d="M14.271,17.696l2.431-2.541c0.229-0.239,0.424-0.454,0.584-0.646
				c0.16-0.19,0.29-0.372,0.391-0.545s0.174-0.342,0.22-0.506c0.045-0.164,0.067-0.344,0.067-0.539c0-0.398-0.091-0.7-0.271-0.904
				s-0.417-0.306-0.709-0.306c-0.285,0-0.537,0.102-0.756,0.307c-0.219,0.204-0.464,0.52-0.735,0.946l-1.127-1.16
				c0.182-0.312,0.363-0.59,0.548-0.831s0.383-0.445,0.595-0.611c0.212-0.165,0.446-0.29,0.704-0.375
				c0.257-0.085,0.549-0.128,0.876-0.128c0.375,0,0.718,0.068,1.027,0.206c0.31,0.139,0.573,0.331,0.793,0.58
				c0.219,0.249,0.389,0.551,0.511,0.906c0.121,0.355,0.183,0.751,0.183,1.187v0.026c0,0.391-0.04,0.739-0.12,1.046
				s-0.198,0.596-0.354,0.866c-0.156,0.271-0.356,0.542-0.6,0.813c-0.244,0.271-0.525,0.566-0.845,0.886l-1.189,1.173h3.182v1.772
				h-5.403V17.696z"/>
		</g>
	</g>
</g>
</svg>
