<?xml version="1.0" encoding="iso-8859-1"?>
<!-- Generator: Adobe Illustrator 19.1.0, SVG Export Plug-In . SVG Version: 6.00 Build 0)  -->
<svg version="1.1" id="Layer_1" xmlns="http://www.w3.org/2000/svg" xmlns:xlink="http://www.w3.org/1999/xlink" x="0px" y="0px"
	 viewBox="0 0 29.615 29.615" style="enable-background:new 0 0 29.615 29.615;" xml:space="preserve">
<g id="XMLID_162_">
	<circle id="XMLID_82_" style="fill:#00A19B;" cx="14.808" cy="14.808" r="14.808"/>
	<path id="XMLID_81_" style="fill:#FFFFFF;" d="M9.182,23.781V13.87H6.369L4.963,8.847l6.027-3.014h0.996
		c0,0,0.879,1.591,2.662,1.591c1.783,0,2.687-1.591,2.687-1.591h1.088l6.228,3.081l-1.54,4.688h-2.746v10.112L9.182,23.781z"/>
	<circle id="XMLID_3_" style="fill:#00A19B;" cx="14.808" cy="14.808" r="14.808"/>
	<path id="XMLID_2_" style="fill:#FFFFFF;" d="M9.182,23.781V13.87H6.369L4.963,8.847l6.027-3.014h0.996
		c0,0,0.879,1.591,2.662,1.591c1.783,0,2.687-1.591,2.687-1.591h1.088l6.228,3.081l-1.54,4.688h-2.746v10.112L9.182,23.781z"/>
</g>
</svg>
