<?xml version="1.0" encoding="iso-8859-1"?>
<!-- Generator: Adobe Illustrator 19.1.0, SVG Export Plug-In . SVG Version: 6.00 Build 0)  -->
<svg version="1.1" id="Layer_1" xmlns="http://www.w3.org/2000/svg" xmlns:xlink="http://www.w3.org/1999/xlink" x="0px" y="0px"
	 viewBox="0 0 29.615 29.615" style="enable-background:new 0 0 29.615 29.615;" xml:space="preserve">
<g id="XMLID_161_">
	<circle id="XMLID_84_" style="fill:#732282;" cx="14.808" cy="14.808" r="14.808"/>
	<g id="XMLID_542_">
		<path id="XMLID_543_" style="fill:#FFFFFF;" d="M5.673,9.678h2.042l3.255,9.838H8.697l-0.557-1.744H5.192l-0.547,1.744H2.418
			L5.673,9.678z M7.529,15.679l-0.852-2.777l-0.863,2.777H7.529z"/>
		<path id="XMLID_546_" style="fill:#FFFFFF;" d="M12.925,12.121h-2.294V9.748h6.706v2.373h-2.294v7.396h-2.118V12.121z"/>
		<path id="XMLID_548_" style="fill:#FFFFFF;" d="M18.92,9.748h2.239l1.824,3.782l1.823-3.782h2.239v9.769h-2.108v-5.61
			l-1.949,3.824h-0.044l-1.938-3.796v5.582H18.92V9.748z"/>
	</g>
	<circle id="XMLID_5_" style="fill:#732282;" cx="14.808" cy="14.808" r="14.808"/>
	<g id="XMLID_534_">
		<path id="XMLID_535_" style="fill:#FFFFFF;" d="M5.673,9.678h2.042l3.255,9.838H8.697l-0.557-1.744H5.192l-0.547,1.744H2.418
			L5.673,9.678z M7.529,15.679l-0.852-2.777l-0.863,2.777H7.529z"/>
		<path id="XMLID_538_" style="fill:#FFFFFF;" d="M12.925,12.121h-2.294V9.748h6.706v2.373h-2.294v7.396h-2.118V12.121z"/>
		<path id="XMLID_540_" style="fill:#FFFFFF;" d="M18.92,9.748h2.239l1.824,3.782l1.823-3.782h2.239v9.769h-2.108v-5.61
			l-1.949,3.824h-0.044l-1.938-3.796v5.582H18.92V9.748z"/>
	</g>
</g>
</svg>
