<?xml version="1.0" encoding="iso-8859-1"?>
<!-- Generator: Adobe Illustrator 19.1.0, SVG Export Plug-In . SVG Version: 6.00 Build 0)  -->
<svg version="1.1" id="Layer_1" xmlns="http://www.w3.org/2000/svg" xmlns:xlink="http://www.w3.org/1999/xlink" x="0px" y="0px"
	 viewBox="0 0 29.615 29.615" style="enable-background:new 0 0 29.615 29.615;" xml:space="preserve">
<g id="XMLID_160_">
	<g id="XMLID_96_">
		<circle id="XMLID_101_" style="fill:#2075BC;" cx="14.808" cy="14.808" r="14.808"/>
		<g id="w6zakH_6_">
			<path id="XMLID_97_" style="fill:#FFFFFF;" d="M8.501,17.22c0,3.481,2.822,6.303,6.303,6.303c3.481,0,6.303-2.822,6.303-6.303
				c0-1.402-0.419-2.52-1.142-3.76c-1.572-2.551-2.72-4.164-4.725-7.675c-0.09-0.18-0.241-0.31-0.436-0.31
				c-0.139,0-0.261,0.07-0.333,0.177c-0.028,0.029-0.051,0.068-0.069,0.121c-0.154,0.473-4.116,6.602-5.395,8.968
				C8.682,15.502,8.501,16.34,8.501,17.22z M19.706,13.257l-0.07-0.115C19.689,13.219,19.733,13.291,19.706,13.257z M15.207,5.876"
				/>
		</g>
	</g>
	<g id="XMLID_17_">
		<circle id="XMLID_22_" style="fill:#2075BC;" cx="14.808" cy="14.808" r="14.808"/>
		<g id="w6zakH_9_">
			<path id="XMLID_18_" style="fill:#FFFFFF;" d="M8.501,17.22c0,3.481,2.822,6.303,6.303,6.303c3.481,0,6.303-2.822,6.303-6.303
				c0-1.402-0.419-2.52-1.142-3.76c-1.572-2.551-2.72-4.164-4.725-7.675c-0.09-0.18-0.241-0.31-0.436-0.31
				c-0.139,0-0.261,0.07-0.333,0.177c-0.028,0.029-0.051,0.068-0.069,0.121c-0.154,0.473-4.116,6.602-5.395,8.968
				C8.682,15.502,8.501,16.34,8.501,17.22z M19.706,13.257l-0.07-0.115C19.689,13.219,19.733,13.291,19.706,13.257z M15.207,5.876"
				/>
		</g>
	</g>
</g>
</svg>
