<?xml version="1.0" encoding="iso-8859-1"?>
<!-- Generator: Adobe Illustrator 19.1.0, SVG Export Plug-In . SVG Version: 6.00 Build 0)  -->
<svg version="1.1" id="Layer_1" xmlns="http://www.w3.org/2000/svg" xmlns:xlink="http://www.w3.org/1999/xlink" x="0px" y="0px"
	 viewBox="0 0 29.615 29.615" style="enable-background:new 0 0 29.615 29.615;" xml:space="preserve">
<g id="XMLID_174_">
	<g id="XMLID_130_">
		<circle id="XMLID_132_" style="fill:#F15B4B;" cx="14.808" cy="14.808" r="14.808"/>
		<g id="XMLID_656_">
			<path id="XMLID_657_" style="fill:#FFFFFF;" d="M14.083,19.48c-0.535,0-0.99-0.102-1.366-0.305
				c-0.375-0.202-0.72-0.467-1.032-0.794l0.845-1.554c0.265,0.275,0.518,0.478,0.762,0.606c0.243,0.129,0.521,0.193,0.834,0.193
				c0.452,0,0.798-0.196,1.038-0.59c0.239-0.394,0.388-0.907,0.443-1.543c-0.182,0.196-0.394,0.352-0.637,0.467
				s-0.525,0.173-0.845,0.173c-0.396,0-0.755-0.068-1.074-0.206c-0.32-0.138-0.595-0.335-0.824-0.593s-0.405-0.573-0.526-0.946
				c-0.122-0.373-0.183-0.795-0.183-1.267v-0.026c0-0.471,0.067-0.906,0.203-1.306c0.136-0.4,0.325-0.744,0.568-1.033
				c0.244-0.288,0.537-0.515,0.882-0.68c0.344-0.164,0.721-0.246,1.132-0.246c0.243,0,0.464,0.02,0.662,0.06s0.381,0.1,0.548,0.18
				c0.166,0.08,0.323,0.185,0.469,0.313c0.146,0.129,0.288,0.282,0.428,0.46c0.132,0.169,0.25,0.359,0.354,0.573
				c0.104,0.213,0.194,0.462,0.271,0.746c0.076,0.284,0.136,0.606,0.177,0.966c0.042,0.36,0.062,0.771,0.062,1.232v0.027
				c0,0.755-0.069,1.445-0.208,2.072c-0.14,0.626-0.343,1.161-0.61,1.605s-0.6,0.791-0.996,1.04
				C15.063,19.355,14.604,19.48,14.083,19.48z M14.38,14.429c0.397,0,0.706-0.131,0.927-0.392c0.22-0.261,0.33-0.59,0.33-0.988
				v-0.026c0-0.416-0.114-0.756-0.341-1.021s-0.543-0.397-0.947-0.397c-0.398,0-0.706,0.13-0.922,0.391
				c-0.217,0.261-0.325,0.6-0.325,1.015v0.027c0,0.415,0.114,0.751,0.341,1.008S13.982,14.429,14.38,14.429z"/>
		</g>
	</g>
	<g id="XMLID_51_">
		<circle id="XMLID_53_" style="fill:#F15B4B;" cx="14.808" cy="14.808" r="14.808"/>
		<g id="XMLID_652_">
			<path id="XMLID_653_" style="fill:#FFFFFF;" d="M14.083,19.48c-0.535,0-0.99-0.102-1.366-0.305
				c-0.375-0.202-0.72-0.467-1.032-0.794l0.845-1.554c0.265,0.275,0.518,0.478,0.762,0.606c0.243,0.129,0.521,0.193,0.834,0.193
				c0.452,0,0.798-0.196,1.038-0.59c0.239-0.394,0.388-0.907,0.443-1.543c-0.182,0.196-0.394,0.352-0.637,0.467
				s-0.525,0.173-0.845,0.173c-0.396,0-0.755-0.068-1.074-0.206c-0.32-0.138-0.595-0.335-0.824-0.593s-0.405-0.573-0.526-0.946
				c-0.122-0.373-0.183-0.795-0.183-1.267v-0.026c0-0.471,0.067-0.906,0.203-1.306c0.136-0.4,0.325-0.744,0.568-1.033
				c0.244-0.288,0.537-0.515,0.882-0.68c0.344-0.164,0.721-0.246,1.132-0.246c0.243,0,0.464,0.02,0.662,0.06s0.381,0.1,0.548,0.18
				c0.166,0.08,0.323,0.185,0.469,0.313c0.146,0.129,0.288,0.282,0.428,0.46c0.132,0.169,0.25,0.359,0.354,0.573
				c0.104,0.213,0.194,0.462,0.271,0.746c0.076,0.284,0.136,0.606,0.177,0.966c0.042,0.36,0.062,0.771,0.062,1.232v0.027
				c0,0.755-0.069,1.445-0.208,2.072c-0.14,0.626-0.343,1.161-0.61,1.605s-0.6,0.791-0.996,1.04
				C15.063,19.355,14.604,19.48,14.083,19.48z M14.38,14.429c0.397,0,0.706-0.131,0.927-0.392c0.22-0.261,0.33-0.59,0.33-0.988
				v-0.026c0-0.416-0.114-0.756-0.341-1.021s-0.543-0.397-0.947-0.397c-0.398,0-0.706,0.13-0.922,0.391
				c-0.217,0.261-0.325,0.6-0.325,1.015v0.027c0,0.415,0.114,0.751,0.341,1.008S13.982,14.429,14.38,14.429z"/>
		</g>
	</g>
</g>
</svg>
