<?xml version="1.0" encoding="iso-8859-1"?>
<!-- Generator: Adobe Illustrator 19.1.0, SVG Export Plug-In . SVG Version: 6.00 Build 0)  -->
<svg version="1.1" id="Layer_1" xmlns="http://www.w3.org/2000/svg" xmlns:xlink="http://www.w3.org/1999/xlink" x="0px" y="0px"
	 viewBox="0 0 29.615 29.615" style="enable-background:new 0 0 29.615 29.615;" xml:space="preserve">
<g id="XMLID_181_">
	<g id="XMLID_109_">
		<circle id="XMLID_111_" style="fill:#F15B4B;" cx="14.808" cy="14.808" r="14.808"/>
		<g id="XMLID_582_">
			<path id="XMLID_583_" style="fill:#FFFFFF;" d="M9.759,12.003l-1.272,0.399l-0.334-1.679l2.097-0.8h1.095v9.396H9.759V12.003z"/>
			<path id="XMLID_585_" style="fill:#FFFFFF;" d="M17.092,19.48c-0.48,0-0.887-0.085-1.221-0.254
				c-0.334-0.168-0.63-0.417-0.887-0.746c-0.265-0.337-0.475-0.779-0.631-1.326c-0.156-0.546-0.234-1.281-0.234-2.205v-0.026
				c0-0.72,0.063-1.391,0.192-2.013s0.325-1.159,0.59-1.612c0.264-0.453,0.598-0.811,1.001-1.073
				c0.403-0.262,0.876-0.393,1.418-0.393c0.251,0,0.48,0.021,0.688,0.065c0.209,0.045,0.403,0.11,0.584,0.199
				c0.181,0.088,0.355,0.196,0.521,0.324c0.167,0.128,0.331,0.271,0.49,0.43l-0.845,1.58c-0.118-0.115-0.232-0.22-0.344-0.313
				s-0.227-0.171-0.345-0.233c-0.118-0.062-0.243-0.11-0.375-0.146c-0.132-0.035-0.274-0.054-0.428-0.054
				c-0.229,0-0.43,0.057-0.6,0.168c-0.171,0.112-0.316,0.264-0.438,0.456c-0.121,0.192-0.217,0.423-0.286,0.69
				c-0.07,0.269-0.118,0.555-0.146,0.858c0.181-0.151,0.388-0.289,0.621-0.413c0.232-0.124,0.529-0.187,0.892-0.187
				c0.361,0,0.698,0.064,1.012,0.193c0.312,0.129,0.584,0.317,0.813,0.566c0.229,0.248,0.41,0.558,0.542,0.926
				c0.132,0.369,0.198,0.798,0.198,1.286v0.026c0,0.48-0.071,0.918-0.214,1.312c-0.143,0.396-0.337,0.735-0.584,1.02
				c-0.247,0.285-0.541,0.505-0.881,0.66C17.857,19.401,17.488,19.48,17.092,19.48z M17.035,17.707c0.397,0,0.707-0.128,0.927-0.385
				s0.33-0.584,0.33-0.981v-0.026c0-0.398-0.114-0.723-0.341-0.975s-0.539-0.378-0.938-0.378c-0.397,0-0.706,0.123-0.927,0.371
				c-0.22,0.247-0.33,0.57-0.33,0.968v0.026c0,0.398,0.114,0.728,0.341,0.988S16.636,17.707,17.035,17.707z"/>
		</g>
	</g>
	<g id="XMLID_30_">
		<circle id="XMLID_32_" style="fill:#F15B4B;" cx="14.808" cy="14.808" r="14.808"/>
		<g id="XMLID_576_">
			<path id="XMLID_577_" style="fill:#FFFFFF;" d="M9.759,12.003l-1.272,0.399l-0.334-1.679l2.097-0.8h1.095v9.396H9.759V12.003z"/>
			<path id="XMLID_579_" style="fill:#FFFFFF;" d="M17.092,19.48c-0.48,0-0.887-0.085-1.221-0.254
				c-0.334-0.168-0.63-0.417-0.887-0.746c-0.265-0.337-0.475-0.779-0.631-1.326c-0.156-0.546-0.234-1.281-0.234-2.205v-0.026
				c0-0.72,0.063-1.391,0.192-2.013s0.325-1.159,0.59-1.612c0.264-0.453,0.598-0.811,1.001-1.073
				c0.403-0.262,0.876-0.393,1.418-0.393c0.251,0,0.48,0.021,0.688,0.065c0.209,0.045,0.403,0.11,0.584,0.199
				c0.181,0.088,0.355,0.196,0.521,0.324c0.167,0.128,0.331,0.271,0.49,0.43l-0.845,1.58c-0.118-0.115-0.232-0.22-0.344-0.313
				s-0.227-0.171-0.345-0.233c-0.118-0.062-0.243-0.11-0.375-0.146c-0.132-0.035-0.274-0.054-0.428-0.054
				c-0.229,0-0.43,0.057-0.6,0.168c-0.171,0.112-0.316,0.264-0.438,0.456c-0.121,0.192-0.217,0.423-0.286,0.69
				c-0.07,0.269-0.118,0.555-0.146,0.858c0.181-0.151,0.388-0.289,0.621-0.413c0.232-0.124,0.529-0.187,0.892-0.187
				c0.361,0,0.698,0.064,1.012,0.193c0.312,0.129,0.584,0.317,0.813,0.566c0.229,0.248,0.41,0.558,0.542,0.926
				c0.132,0.369,0.198,0.798,0.198,1.286v0.026c0,0.48-0.071,0.918-0.214,1.312c-0.143,0.396-0.337,0.735-0.584,1.02
				c-0.247,0.285-0.541,0.505-0.881,0.66C17.857,19.401,17.488,19.48,17.092,19.48z M17.035,17.707c0.397,0,0.707-0.128,0.927-0.385
				s0.33-0.584,0.33-0.981v-0.026c0-0.398-0.114-0.723-0.341-0.975s-0.539-0.378-0.938-0.378c-0.397,0-0.706,0.123-0.927,0.371
				c-0.22,0.247-0.33,0.57-0.33,0.968v0.026c0,0.398,0.114,0.728,0.341,0.988S16.636,17.707,17.035,17.707z"/>
		</g>
	</g>
</g>
</svg>
