<?xml version="1.0" encoding="iso-8859-1"?>
<!-- Generator: Adobe Illustrator 19.1.0, SVG Export Plug-In . SVG Version: 6.00 Build 0)  -->
<svg version="1.1" id="Layer_1" xmlns="http://www.w3.org/2000/svg" xmlns:xlink="http://www.w3.org/1999/xlink" x="0px" y="0px"
	 viewBox="0 0 29.615 29.615" style="enable-background:new 0 0 29.615 29.615;" xml:space="preserve">
<g id="XMLID_167_">
	<g id="XMLID_151_">
		<circle id="XMLID_153_" style="fill:#F15B4B;" cx="14.808" cy="14.808" r="14.808"/>
		<g id="XMLID_707_">
			<path id="XMLID_708_" style="fill:#FFFFFF;" d="M11.444,17.695l2.431-2.541c0.229-0.239,0.424-0.454,0.584-0.645
				s0.29-0.373,0.391-0.545s0.174-0.342,0.22-0.506c0.045-0.164,0.067-0.343,0.067-0.539c0-0.399-0.091-0.701-0.271-0.905
				c-0.181-0.204-0.417-0.306-0.709-0.306c-0.285,0-0.537,0.102-0.756,0.306c-0.219,0.205-0.464,0.52-0.735,0.946l-1.127-1.159
				c0.182-0.313,0.363-0.59,0.548-0.832c0.185-0.242,0.383-0.445,0.595-0.611s0.446-0.291,0.704-0.376
				c0.257-0.085,0.549-0.127,0.876-0.127c0.375,0,0.718,0.069,1.027,0.207s0.573,0.331,0.793,0.58
				c0.219,0.249,0.389,0.551,0.511,0.906c0.121,0.355,0.183,0.751,0.183,1.186v0.027c0,0.391-0.04,0.74-0.12,1.046
				c-0.08,0.307-0.198,0.595-0.354,0.866c-0.156,0.271-0.356,0.542-0.6,0.813c-0.244,0.271-0.525,0.566-0.845,0.886l-1.189,1.173
				h3.182v1.772h-5.403V17.695z"/>
		</g>
	</g>
	<g id="XMLID_72_">
		<circle id="XMLID_74_" style="fill:#F15B4B;" cx="14.808" cy="14.808" r="14.808"/>
		<g id="XMLID_704_">
			<path id="XMLID_705_" style="fill:#FFFFFF;" d="M11.444,17.695l2.431-2.541c0.229-0.239,0.424-0.454,0.584-0.645
				s0.29-0.373,0.391-0.545s0.174-0.342,0.22-0.506c0.045-0.164,0.067-0.343,0.067-0.539c0-0.399-0.091-0.701-0.271-0.905
				c-0.181-0.204-0.417-0.306-0.709-0.306c-0.285,0-0.537,0.102-0.756,0.306c-0.219,0.205-0.464,0.52-0.735,0.946l-1.127-1.159
				c0.182-0.313,0.363-0.59,0.548-0.832c0.185-0.242,0.383-0.445,0.595-0.611s0.446-0.291,0.704-0.376
				c0.257-0.085,0.549-0.127,0.876-0.127c0.375,0,0.718,0.069,1.027,0.207s0.573,0.331,0.793,0.58
				c0.219,0.249,0.389,0.551,0.511,0.906c0.121,0.355,0.183,0.751,0.183,1.186v0.027c0,0.391-0.04,0.74-0.12,1.046
				c-0.08,0.307-0.198,0.595-0.354,0.866c-0.156,0.271-0.356,0.542-0.6,0.813c-0.244,0.271-0.525,0.566-0.845,0.886l-1.189,1.173
				h3.182v1.772h-5.403V17.695z"/>
		</g>
	</g>
</g>
</svg>
