<?xml version="1.0" encoding="iso-8859-1"?>
<!-- Generator: Adobe Illustrator 19.1.0, SVG Export Plug-In . SVG Version: 6.00 Build 0)  -->
<svg version="1.1" id="Layer_1" xmlns="http://www.w3.org/2000/svg" xmlns:xlink="http://www.w3.org/1999/xlink" x="0px" y="0px"
	 viewBox="0 0 29.615 29.615" style="enable-background:new 0 0 29.615 29.615;" xml:space="preserve">
<g id="XMLID_175_">
	<g id="XMLID_127_">
		<circle id="XMLID_129_" style="fill:#F15B4B;" cx="14.808" cy="14.808" r="14.808"/>
		<g id="XMLID_646_">
			<path id="XMLID_647_" style="fill:#FFFFFF;" d="M9.405,12.002l-1.272,0.399l-0.334-1.679l2.097-0.8h1.095v9.396H9.405V12.002z"/>
			<path id="XMLID_649_" style="fill:#FFFFFF;" d="M16.999,19.479c-0.487,0-0.931-0.122-1.33-0.367
				c-0.4-0.244-0.74-0.581-1.022-1.013c-0.281-0.431-0.499-0.939-0.651-1.525c-0.153-0.587-0.229-1.218-0.229-1.893v-0.026
				c0-0.676,0.078-1.307,0.234-1.893c0.156-0.587,0.377-1.098,0.662-1.532c0.285-0.436,0.628-0.777,1.027-1.026
				c0.4-0.249,0.843-0.373,1.33-0.373c0.479,0,0.919,0.122,1.319,0.366c0.399,0.244,0.74,0.582,1.022,1.013
				c0.281,0.431,0.5,0.939,0.656,1.526c0.157,0.586,0.235,1.217,0.235,1.892v0.027c0,0.675-0.078,1.306-0.235,1.893
				c-0.156,0.586-0.377,1.097-0.662,1.532s-0.627,0.777-1.027,1.026C17.928,19.354,17.485,19.479,16.999,19.479z M17.019,17.626
				c0.243,0,0.462-0.073,0.657-0.22c0.194-0.146,0.361-0.352,0.5-0.613c0.14-0.262,0.245-0.573,0.318-0.933
				c0.073-0.36,0.109-0.753,0.109-1.18v-0.026c0-0.427-0.038-0.82-0.114-1.18c-0.077-0.359-0.187-0.673-0.329-0.939
				s-0.312-0.476-0.511-0.627c-0.198-0.15-0.416-0.227-0.651-0.227c-0.244,0-0.463,0.074-0.657,0.221
				c-0.195,0.146-0.36,0.351-0.496,0.612c-0.135,0.263-0.241,0.573-0.317,0.934c-0.077,0.359-0.115,0.753-0.115,1.179v0.027
				c0,0.426,0.038,0.821,0.115,1.186c0.076,0.364,0.184,0.678,0.323,0.939c0.139,0.263,0.308,0.469,0.506,0.62
				S16.776,17.626,17.019,17.626z"/>
		</g>
	</g>
	<g id="XMLID_48_">
		<circle id="XMLID_50_" style="fill:#F15B4B;" cx="14.808" cy="14.808" r="14.808"/>
		<g id="XMLID_640_">
			<path id="XMLID_641_" style="fill:#FFFFFF;" d="M9.405,12.002l-1.272,0.399l-0.334-1.679l2.097-0.8h1.095v9.396H9.405V12.002z"/>
			<path id="XMLID_643_" style="fill:#FFFFFF;" d="M16.999,19.479c-0.487,0-0.931-0.122-1.33-0.367
				c-0.4-0.244-0.74-0.581-1.022-1.013c-0.281-0.431-0.499-0.939-0.651-1.525c-0.153-0.587-0.229-1.218-0.229-1.893v-0.026
				c0-0.676,0.078-1.307,0.234-1.893c0.156-0.587,0.377-1.098,0.662-1.532c0.285-0.436,0.628-0.777,1.027-1.026
				c0.4-0.249,0.843-0.373,1.33-0.373c0.479,0,0.919,0.122,1.319,0.366c0.399,0.244,0.74,0.582,1.022,1.013
				c0.281,0.431,0.5,0.939,0.656,1.526c0.157,0.586,0.235,1.217,0.235,1.892v0.027c0,0.675-0.078,1.306-0.235,1.893
				c-0.156,0.586-0.377,1.097-0.662,1.532s-0.627,0.777-1.027,1.026C17.928,19.354,17.485,19.479,16.999,19.479z M17.019,17.626
				c0.243,0,0.462-0.073,0.657-0.22c0.194-0.146,0.361-0.352,0.5-0.613c0.14-0.262,0.245-0.573,0.318-0.933
				c0.073-0.36,0.109-0.753,0.109-1.18v-0.026c0-0.427-0.038-0.82-0.114-1.18c-0.077-0.359-0.187-0.673-0.329-0.939
				s-0.312-0.476-0.511-0.627c-0.198-0.15-0.416-0.227-0.651-0.227c-0.244,0-0.463,0.074-0.657,0.221
				c-0.195,0.146-0.36,0.351-0.496,0.612c-0.135,0.263-0.241,0.573-0.317,0.934c-0.077,0.359-0.115,0.753-0.115,1.179v0.027
				c0,0.426,0.038,0.821,0.115,1.186c0.076,0.364,0.184,0.678,0.323,0.939c0.139,0.263,0.308,0.469,0.506,0.62
				S16.776,17.626,17.019,17.626z"/>
		</g>
	</g>
</g>
</svg>
