<?xml version="1.0" encoding="iso-8859-1"?>
<!-- Generator: Adobe Illustrator 19.1.0, SVG Export Plug-In . SVG Version: 6.00 Build 0)  -->
<svg version="1.1" id="Layer_1" xmlns="http://www.w3.org/2000/svg" xmlns:xlink="http://www.w3.org/1999/xlink" x="0px" y="0px"
	 viewBox="0 0 29.669 29.615" style="enable-background:new 0 0 29.669 29.615;" xml:space="preserve">
<g id="XMLID_164_">
	<g id="XMLID_88_">
		<circle id="XMLID_95_" style="fill:#FFFFFF;" cx="14.808" cy="14.808" r="14.808"/>
		<g id="XMLID_92_">
			<path id="XMLID_94_" style="fill:#010101;" d="M24.115,3.258c0.025,1.129,0.219,2.409,0.772,3.625
				c2.307,5.08,0.362,8.21,0.278,8.341c-0.123,0.191-0.331,0.295-0.542,0.295c-0.119,0-0.24-0.033-0.348-0.102
				c-0.298-0.192-0.385-0.588-0.195-0.886c0.073-0.117,1.632-2.72-0.365-7.115c-0.804-1.769-0.95-3.607-0.88-5.072
				C20.532,0.867,17.8,0,14.861,0C6.683,0,0.054,6.63,0.054,14.808c0,8.178,6.629,14.808,14.808,14.808s14.808-6.63,14.808-14.808
				C29.669,10.133,27.498,5.972,24.115,3.258z"/>
			<path id="XMLID_93_" style="fill:#FFFFFF;" d="M23.715,7.416c1.997,4.395,0.438,6.998,0.365,7.115
				c-0.19,0.298-0.103,0.694,0.195,0.886c0.108,0.069,0.229,0.102,0.348,0.102c0.211,0,0.419-0.104,0.542-0.295
				c0.084-0.131,2.029-3.261-0.278-8.341c-0.553-1.216-0.772-3.625-0.772-3.625l-1.28-0.914C22.835,2.344,22.911,5.647,23.715,7.416
				z"/>
		</g>
		<rect id="XMLID_91_" x="5.807" y="13.004" style="fill:#FFFFFF;" width="3.858" height="3.963"/>
		<rect id="XMLID_90_" x="11.021" y="13.004" style="fill:#FFFFFF;" width="10.805" height="3.963"/>
		<path id="XMLID_89_" style="fill:#FFFFFF;" d="M26.715,15.197c-0.059,0-0.119-0.016-0.172-0.052
			c-0.15-0.094-0.194-0.293-0.099-0.444c0.014-0.021,1.381-2.245,0.223-5.945c-0.054-0.168,0.041-0.35,0.211-0.402
			c0.172-0.052,0.351,0.041,0.402,0.211c1.255,4.005-0.23,6.384-0.294,6.483C26.925,15.144,26.821,15.197,26.715,15.197z"/>
	</g>
	<g id="XMLID_9_">
		<circle id="XMLID_16_" style="fill:#FFFFFF;" cx="14.808" cy="14.808" r="14.808"/>
		<g id="XMLID_13_">
			<path id="XMLID_15_" style="fill:#010101;" d="M24.115,3.258c0.025,1.129,0.219,2.409,0.772,3.625
				c2.307,5.08,0.362,8.21,0.278,8.341c-0.123,0.191-0.331,0.295-0.542,0.295c-0.119,0-0.24-0.033-0.348-0.102
				c-0.298-0.192-0.385-0.588-0.195-0.886c0.073-0.117,1.632-2.72-0.365-7.115c-0.804-1.769-0.95-3.607-0.88-5.072
				C20.532,0.867,17.8,0,14.861,0C6.683,0,0.054,6.63,0.054,14.808c0,8.178,6.629,14.808,14.808,14.808s14.808-6.63,14.808-14.808
				C29.669,10.133,27.498,5.972,24.115,3.258z"/>
			<path id="XMLID_14_" style="fill:#FFFFFF;" d="M23.715,7.416c1.997,4.395,0.438,6.998,0.365,7.115
				c-0.19,0.298-0.103,0.694,0.195,0.886c0.108,0.069,0.229,0.102,0.348,0.102c0.211,0,0.419-0.104,0.542-0.295
				c0.084-0.131,2.029-3.261-0.278-8.341c-0.553-1.216-0.772-3.625-0.772-3.625l-1.28-0.914C22.835,2.344,22.911,5.647,23.715,7.416
				z"/>
		</g>
		<rect id="XMLID_12_" x="5.807" y="13.004" style="fill:#FFFFFF;" width="3.858" height="3.963"/>
		<rect id="XMLID_11_" x="11.021" y="13.004" style="fill:#FFFFFF;" width="10.805" height="3.963"/>
		<path id="XMLID_10_" style="fill:#FFFFFF;" d="M26.715,15.197c-0.059,0-0.119-0.016-0.172-0.052
			c-0.15-0.094-0.194-0.293-0.099-0.444c0.014-0.021,1.381-2.245,0.223-5.945c-0.054-0.168,0.041-0.35,0.211-0.402
			c0.172-0.052,0.351,0.041,0.402,0.211c1.255,4.005-0.23,6.384-0.294,6.483C26.925,15.144,26.821,15.197,26.715,15.197z"/>
	</g>
</g>
</svg>
