<?xml version="1.0" encoding="iso-8859-1"?>
<!-- Generator: Adobe Illustrator 19.1.0, SVG Export Plug-In . SVG Version: 6.00 Build 0)  -->
<svg version="1.1" id="Layer_1" xmlns="http://www.w3.org/2000/svg" xmlns:xlink="http://www.w3.org/1999/xlink" x="0px" y="0px"
	 viewBox="0 0 29.615 29.615" style="enable-background:new 0 0 29.615 29.615;" xml:space="preserve">
<g id="XMLID_178_">
	<g id="XMLID_118_">
		<circle id="XMLID_120_" style="fill:#F15B4B;" cx="14.808" cy="14.808" r="14.808"/>
		<g id="XMLID_615_">
			<path id="XMLID_616_" style="fill:#FFFFFF;" d="M9.973,12.003l-1.272,0.399l-0.334-1.679l2.097-0.8h1.095v9.396H9.973V12.003z"/>
			<path id="XMLID_618_" style="fill:#FFFFFF;" d="M17.013,19.48c-0.66,0-1.222-0.15-1.684-0.45c-0.463-0.3-0.851-0.691-1.163-1.174
				l1.105-1.348c0.25,0.364,0.513,0.642,0.787,0.832c0.274,0.191,0.6,0.287,0.976,0.287c0.306,0,0.555-0.102,0.745-0.306
				c0.191-0.203,0.287-0.478,0.287-0.822v-0.026c0-0.38-0.125-0.672-0.375-0.875c-0.251-0.204-0.602-0.306-1.054-0.306H15.97
				l-0.25-1.3l1.742-2.229h-2.868V9.991h4.942v1.546l-1.855,2.253c0.25,0.053,0.492,0.138,0.728,0.253
				c0.234,0.115,0.444,0.275,0.63,0.479c0.185,0.205,0.334,0.46,0.445,0.767c0.112,0.307,0.168,0.678,0.168,1.112v0.027
				c0,0.444-0.061,0.851-0.184,1.219c-0.122,0.369-0.297,0.691-0.524,0.967s-0.506,0.488-0.833,0.64
				C17.783,19.404,17.417,19.48,17.013,19.48z"/>
		</g>
	</g>
	<g id="XMLID_39_">
		<circle id="XMLID_41_" style="fill:#F15B4B;" cx="14.808" cy="14.808" r="14.808"/>
		<g id="XMLID_610_">
			<path id="XMLID_611_" style="fill:#FFFFFF;" d="M9.973,12.003l-1.272,0.399l-0.334-1.679l2.097-0.8h1.095v9.396H9.973V12.003z"/>
			<path id="XMLID_613_" style="fill:#FFFFFF;" d="M17.013,19.48c-0.66,0-1.222-0.15-1.684-0.45c-0.463-0.3-0.851-0.691-1.163-1.174
				l1.105-1.348c0.25,0.364,0.513,0.642,0.787,0.832c0.274,0.191,0.6,0.287,0.976,0.287c0.306,0,0.555-0.102,0.745-0.306
				c0.191-0.203,0.287-0.478,0.287-0.822v-0.026c0-0.38-0.125-0.672-0.375-0.875c-0.251-0.204-0.602-0.306-1.054-0.306H15.97
				l-0.25-1.3l1.742-2.229h-2.868V9.991h4.942v1.546l-1.855,2.253c0.25,0.053,0.492,0.138,0.728,0.253
				c0.234,0.115,0.444,0.275,0.63,0.479c0.185,0.205,0.334,0.46,0.445,0.767c0.112,0.307,0.168,0.678,0.168,1.112v0.027
				c0,0.444-0.061,0.851-0.184,1.219c-0.122,0.369-0.297,0.691-0.524,0.967s-0.506,0.488-0.833,0.64
				C17.783,19.404,17.417,19.48,17.013,19.48z"/>
		</g>
	</g>
</g>
</svg>
