<?xml version="1.0" encoding="iso-8859-1"?>
<!-- Generator: Adobe Illustrator 19.1.0, SVG Export Plug-In . SVG Version: 6.00 Build 0)  -->
<svg version="1.1" id="Layer_1" xmlns="http://www.w3.org/2000/svg" xmlns:xlink="http://www.w3.org/1999/xlink" x="0px" y="0px"
	 viewBox="0 0 29.615 29.615" style="enable-background:new 0 0 29.615 29.615;" xml:space="preserve">
<g id="XMLID_170_">
	<g id="XMLID_142_">
		<circle id="XMLID_144_" style="fill:#F15B4B;" cx="14.808" cy="14.808" r="14.808"/>
		<g id="XMLID_687_">
			<path id="XMLID_688_" style="fill:#FFFFFF;" d="M14.077,19.479c-0.591,0-1.105-0.124-1.543-0.371
				c-0.438-0.247-0.835-0.586-1.189-1.019l0.97-1.476c0.278,0.32,0.557,0.569,0.835,0.747s0.58,0.267,0.907,0.267
				c0.376,0,0.673-0.112,0.892-0.335s0.329-0.545,0.329-0.964V16.3c0-0.402-0.12-0.715-0.36-0.938s-0.551-0.334-0.934-0.334
				c-0.229,0-0.446,0.033-0.651,0.1c-0.205,0.067-0.395,0.149-0.568,0.247l-0.929-0.786l0.209-4.598h4.493v1.799H13.42l-0.084,1.625
				c0.146-0.044,0.292-0.082,0.438-0.113c0.146-0.031,0.319-0.046,0.521-0.046c0.354,0,0.687,0.058,0.997,0.173
				s0.583,0.292,0.817,0.532c0.234,0.24,0.419,0.547,0.552,0.924s0.199,0.827,0.199,1.35v0.027c0,0.496-0.066,0.942-0.199,1.336
				s-0.32,0.731-0.562,1.011c-0.241,0.279-0.534,0.494-0.88,0.645C14.876,19.403,14.495,19.479,14.077,19.479z"/>
		</g>
	</g>
	<g id="XMLID_63_">
		<circle id="XMLID_65_" style="fill:#F15B4B;" cx="14.808" cy="14.808" r="14.808"/>
		<g id="XMLID_684_">
			<path id="XMLID_685_" style="fill:#FFFFFF;" d="M14.077,19.479c-0.591,0-1.105-0.124-1.543-0.371
				c-0.438-0.247-0.835-0.586-1.189-1.019l0.97-1.476c0.278,0.32,0.557,0.569,0.835,0.747s0.58,0.267,0.907,0.267
				c0.376,0,0.673-0.112,0.892-0.335s0.329-0.545,0.329-0.964V16.3c0-0.402-0.12-0.715-0.36-0.938s-0.551-0.334-0.934-0.334
				c-0.229,0-0.446,0.033-0.651,0.1c-0.205,0.067-0.395,0.149-0.568,0.247l-0.929-0.786l0.209-4.598h4.493v1.799H13.42l-0.084,1.625
				c0.146-0.044,0.292-0.082,0.438-0.113c0.146-0.031,0.319-0.046,0.521-0.046c0.354,0,0.687,0.058,0.997,0.173
				s0.583,0.292,0.817,0.532c0.234,0.24,0.419,0.547,0.552,0.924s0.199,0.827,0.199,1.35v0.027c0,0.496-0.066,0.942-0.199,1.336
				s-0.32,0.731-0.562,1.011c-0.241,0.279-0.534,0.494-0.88,0.645C14.876,19.403,14.495,19.479,14.077,19.479z"/>
		</g>
	</g>
</g>
</svg>
