<?xml version="1.0" encoding="iso-8859-1"?>
<!-- Generator: Adobe Illustrator 19.1.0, SVG Export Plug-In . SVG Version: 6.00 Build 0)  -->
<svg version="1.1" id="Layer_1" xmlns="http://www.w3.org/2000/svg" xmlns:xlink="http://www.w3.org/1999/xlink" x="0px" y="0px"
	 viewBox="0 0 29.615 29.615" style="enable-background:new 0 0 29.615 29.615;" xml:space="preserve">
<g id="XMLID_165_">
	<g id="XMLID_154_">
		<circle id="XMLID_156_" style="fill:#F15B4B;" cx="14.808" cy="14.808" r="14.808"/>
		<g id="XMLID_714_">
			<path id="XMLID_715_" style="fill:#FFFFFF;" d="M12.856,9.99h2.983c0.438,0,0.829,0.078,1.173,0.233
				c0.345,0.156,0.637,0.375,0.876,0.66c0.24,0.285,0.424,0.625,0.553,1.02c0.129,0.396,0.193,0.833,0.193,1.313v0.026
				c0,0.542-0.077,1.018-0.229,1.426c-0.153,0.409-0.363,0.75-0.631,1.026s-0.581,0.482-0.938,0.62
				c-0.358,0.138-0.743,0.207-1.153,0.207h-1.22v2.799h-1.606V9.99z M15.735,14.694c0.403,0,0.716-0.135,0.938-0.406
				s0.334-0.606,0.334-1.006v-0.026c0-0.462-0.117-0.813-0.35-1.053c-0.233-0.24-0.551-0.36-0.954-0.36h-1.241v2.852H15.735z"/>
		</g>
	</g>
	<g id="XMLID_75_">
		<circle id="XMLID_77_" style="fill:#F15B4B;" cx="14.808" cy="14.808" r="14.808"/>
		<g id="XMLID_710_">
			<path id="XMLID_711_" style="fill:#FFFFFF;" d="M12.856,9.99h2.983c0.438,0,0.829,0.078,1.173,0.233
				c0.345,0.156,0.637,0.375,0.876,0.66c0.24,0.285,0.424,0.625,0.553,1.02c0.129,0.396,0.193,0.833,0.193,1.313v0.026
				c0,0.542-0.077,1.018-0.229,1.426c-0.153,0.409-0.363,0.75-0.631,1.026s-0.581,0.482-0.938,0.62
				c-0.358,0.138-0.743,0.207-1.153,0.207h-1.22v2.799h-1.606V9.99z M15.735,14.694c0.403,0,0.716-0.135,0.938-0.406
				s0.334-0.606,0.334-1.006v-0.026c0-0.462-0.117-0.813-0.35-1.053c-0.233-0.24-0.551-0.36-0.954-0.36h-1.241v2.852H15.735z"/>
		</g>
	</g>
</g>
</svg>
