<?xml version="1.0" encoding="iso-8859-1"?>
<!-- Generator: Adobe Illustrator 19.1.0, SVG Export Plug-In . SVG Version: 6.00 Build 0)  -->
<svg version="1.1" id="Layer_1" xmlns="http://www.w3.org/2000/svg" xmlns:xlink="http://www.w3.org/1999/xlink" x="0px" y="0px"
	 viewBox="0 0 29.615 29.615" style="enable-background:new 0 0 29.615 29.615;" xml:space="preserve">
<g id="XMLID_171_">
	<g id="XMLID_139_">
		<circle id="XMLID_141_" style="fill:#F15B4B;" cx="14.808" cy="14.808" r="14.808"/>
		<g id="XMLID_680_">
			<path id="XMLID_681_" style="fill:#FFFFFF;" d="M14.266,19.479c-0.48,0-0.887-0.085-1.221-0.254
				c-0.334-0.168-0.63-0.417-0.887-0.746c-0.265-0.338-0.475-0.779-0.631-1.326c-0.156-0.546-0.234-1.281-0.234-2.205v-0.027
				c0-0.72,0.063-1.39,0.192-2.012s0.325-1.16,0.59-1.613c0.264-0.452,0.598-0.811,1.001-1.072s0.876-0.394,1.418-0.394
				c0.251,0,0.48,0.022,0.688,0.066c0.209,0.044,0.403,0.11,0.584,0.198c0.181,0.089,0.355,0.196,0.521,0.324
				c0.167,0.128,0.331,0.271,0.49,0.431l-0.845,1.579c-0.118-0.115-0.232-0.22-0.344-0.312c-0.111-0.094-0.227-0.171-0.345-0.233
				s-0.243-0.111-0.375-0.146s-0.274-0.054-0.428-0.054c-0.229,0-0.43,0.057-0.6,0.168c-0.171,0.111-0.316,0.264-0.438,0.456
				c-0.121,0.192-0.217,0.422-0.286,0.69c-0.07,0.269-0.118,0.555-0.146,0.858c0.181-0.151,0.388-0.289,0.621-0.413
				c0.232-0.125,0.529-0.187,0.892-0.187c0.361,0,0.698,0.064,1.012,0.192c0.312,0.129,0.584,0.318,0.813,0.566
				c0.229,0.249,0.41,0.558,0.542,0.927c0.132,0.368,0.198,0.798,0.198,1.286v0.026c0,0.479-0.071,0.918-0.214,1.312
				c-0.143,0.396-0.337,0.735-0.584,1.02s-0.541,0.505-0.881,0.66C15.031,19.401,14.662,19.479,14.266,19.479z M14.209,17.707
				c0.397,0,0.707-0.129,0.927-0.385c0.22-0.257,0.33-0.584,0.33-0.981v-0.027c0-0.397-0.114-0.723-0.341-0.975
				s-0.539-0.378-0.938-0.378c-0.397,0-0.706,0.124-0.927,0.372c-0.22,0.247-0.33,0.57-0.33,0.968v0.026
				c0,0.398,0.114,0.728,0.341,0.988S13.81,17.707,14.209,17.707z"/>
		</g>
	</g>
	<g id="XMLID_60_">
		<circle id="XMLID_62_" style="fill:#F15B4B;" cx="14.808" cy="14.808" r="14.808"/>
		<g id="XMLID_676_">
			<path id="XMLID_677_" style="fill:#FFFFFF;" d="M14.266,19.479c-0.48,0-0.887-0.085-1.221-0.254
				c-0.334-0.168-0.63-0.417-0.887-0.746c-0.265-0.338-0.475-0.779-0.631-1.326c-0.156-0.546-0.234-1.281-0.234-2.205v-0.027
				c0-0.72,0.063-1.39,0.192-2.012s0.325-1.16,0.59-1.613c0.264-0.452,0.598-0.811,1.001-1.072s0.876-0.394,1.418-0.394
				c0.251,0,0.48,0.022,0.688,0.066c0.209,0.044,0.403,0.11,0.584,0.198c0.181,0.089,0.355,0.196,0.521,0.324
				c0.167,0.128,0.331,0.271,0.49,0.431l-0.845,1.579c-0.118-0.115-0.232-0.22-0.344-0.312c-0.111-0.094-0.227-0.171-0.345-0.233
				s-0.243-0.111-0.375-0.146s-0.274-0.054-0.428-0.054c-0.229,0-0.43,0.057-0.6,0.168c-0.171,0.111-0.316,0.264-0.438,0.456
				c-0.121,0.192-0.217,0.422-0.286,0.69c-0.07,0.269-0.118,0.555-0.146,0.858c0.181-0.151,0.388-0.289,0.621-0.413
				c0.232-0.125,0.529-0.187,0.892-0.187c0.361,0,0.698,0.064,1.012,0.192c0.312,0.129,0.584,0.318,0.813,0.566
				c0.229,0.249,0.41,0.558,0.542,0.927c0.132,0.368,0.198,0.798,0.198,1.286v0.026c0,0.479-0.071,0.918-0.214,1.312
				c-0.143,0.396-0.337,0.735-0.584,1.02s-0.541,0.505-0.881,0.66C15.031,19.401,14.662,19.479,14.266,19.479z M14.209,17.707
				c0.397,0,0.707-0.129,0.927-0.385c0.22-0.257,0.33-0.584,0.33-0.981v-0.027c0-0.397-0.114-0.723-0.341-0.975
				s-0.539-0.378-0.938-0.378c-0.397,0-0.706,0.124-0.927,0.372c-0.22,0.247-0.33,0.57-0.33,0.968v0.026
				c0,0.398,0.114,0.728,0.341,0.988S13.81,17.707,14.209,17.707z"/>
		</g>
	</g>
</g>
</svg>
