<?xml version="1.0" encoding="iso-8859-1"?>
<!-- Generator: Adobe Illustrator 19.1.0, SVG Export Plug-In . SVG Version: 6.00 Build 0)  -->
<svg version="1.1" id="Layer_1" xmlns="http://www.w3.org/2000/svg" xmlns:xlink="http://www.w3.org/1999/xlink" x="0px" y="0px"
	 viewBox="0 0 29.615 29.615" style="enable-background:new 0 0 29.615 29.615;" xml:space="preserve">
<g id="XMLID_179_">
	<g id="XMLID_115_">
		<circle id="XMLID_117_" style="fill:#F15B4B;" cx="14.808" cy="14.808" r="14.808"/>
		<g id="XMLID_604_">
			<path id="XMLID_605_" style="fill:#FFFFFF;" d="M9.619,12.004l-1.272,0.399l-0.334-1.679l2.097-0.8h1.095v9.396H9.619V12.004z"/>
			<path id="XMLID_607_" style="fill:#FFFFFF;" d="M17.567,17.308H14l-0.261-1.452l4.005-5.931H19.1v5.718h0.979v1.665H19.1v2.013
				h-1.533V17.308z M17.567,15.643v-2.905l-1.94,2.905H17.567z"/>
		</g>
	</g>
	<g id="XMLID_36_">
		<circle id="XMLID_38_" style="fill:#F15B4B;" cx="14.808" cy="14.808" r="14.808"/>
		<g id="XMLID_598_">
			<path id="XMLID_599_" style="fill:#FFFFFF;" d="M9.619,12.004l-1.272,0.399l-0.334-1.679l2.097-0.8h1.095v9.396H9.619V12.004z"/>
			<path id="XMLID_601_" style="fill:#FFFFFF;" d="M17.567,17.308H14l-0.261-1.452l4.005-5.931H19.1v5.718h0.979v1.665H19.1v2.013
				h-1.533V17.308z M17.567,15.643v-2.905l-1.94,2.905H17.567z"/>
		</g>
	</g>
</g>
</svg>
