<?xml version="1.0" encoding="iso-8859-1"?>
<!-- Generator: Adobe Illustrator 19.1.0, SVG Export Plug-In . SVG Version: 6.00 Build 0)  -->
<svg version="1.1" id="Layer_1" xmlns="http://www.w3.org/2000/svg" xmlns:xlink="http://www.w3.org/1999/xlink" x="0px" y="0px"
	 viewBox="0 0 29.615 29.615" style="enable-background:new 0 0 29.615 29.615;" xml:space="preserve">
<g>
	<circle style="fill:#F15B4B;" cx="14.807" cy="14.808" r="14.808"/>
	<g>
		<path style="fill:#FFFFFF;" d="M9.983,12.003l-1.272,0.399l-0.334-1.679l2.097-0.8h1.095v9.396H9.983V12.003z"/>
		<path style="fill:#FFFFFF;" d="M17.065,19.452c-0.403,0-0.776-0.064-1.121-0.192c-0.344-0.129-0.642-0.312-0.892-0.547
			s-0.447-0.518-0.589-0.846c-0.143-0.329-0.214-0.698-0.214-1.106v-0.026c0-0.569,0.099-1.028,0.297-1.38
			c0.198-0.351,0.492-0.642,0.881-0.873c-0.285-0.222-0.511-0.49-0.678-0.806s-0.25-0.727-0.25-1.233v-0.026
			c0-0.355,0.061-0.688,0.183-0.999c0.121-0.312,0.295-0.582,0.521-0.813c0.226-0.23,0.495-0.413,0.809-0.546
			c0.312-0.134,0.663-0.2,1.053-0.2c0.383,0,0.731,0.066,1.049,0.2c0.315,0.133,0.587,0.312,0.813,0.539
			c0.226,0.227,0.399,0.498,0.521,0.813c0.121,0.315,0.182,0.65,0.182,1.006v0.026c0,0.507-0.083,0.918-0.25,1.233
			s-0.393,0.584-0.678,0.806c0.368,0.249,0.657,0.54,0.865,0.873c0.209,0.333,0.313,0.775,0.313,1.326v0.026
			c0,0.436-0.071,0.822-0.214,1.16c-0.143,0.337-0.339,0.624-0.59,0.859c-0.25,0.235-0.547,0.415-0.892,0.539
			C17.842,19.391,17.468,19.452,17.065,19.452z M17.065,17.76c0.396,0,0.706-0.11,0.929-0.333c0.222-0.222,0.333-0.497,0.333-0.826
			v-0.026c0-0.364-0.118-0.646-0.354-0.847c-0.236-0.199-0.539-0.3-0.907-0.3s-0.671,0.101-0.907,0.3
			c-0.236,0.2-0.354,0.482-0.354,0.847v0.026c0,0.32,0.111,0.593,0.334,0.819C16.359,17.646,16.669,17.76,17.065,17.76z
			 M17.065,13.802c0.32,0,0.574-0.106,0.762-0.319c0.188-0.214,0.281-0.484,0.281-0.813v-0.026c0-0.284-0.09-0.537-0.271-0.76
			c-0.182-0.222-0.438-0.333-0.772-0.333s-0.591,0.109-0.771,0.326c-0.181,0.218-0.271,0.469-0.271,0.753v0.027
			c0,0.328,0.094,0.602,0.282,0.819C16.492,13.693,16.746,13.802,17.065,13.802z"/>
	</g>
</g>
</svg>
