<?xml version="1.0" encoding="utf-8"?>
<!-- Generator: Adobe Illustrator 18.1.1, SVG Export Plug-In . SVG Version: 6.00 Build 0)  -->
<svg version="1.1" xmlns="http://www.w3.org/2000/svg" xmlns:xlink="http://www.w3.org/1999/xlink" x="0px" y="0px"
	 viewBox="197 392.3 603 236.7" enable-background="new 197 392.3 603 236.7" xml:space="preserve">
<g id="Layer_2">
</g>
<g id="Layer_1">
	<g>
		<path fill="#fff" d="M754.2,494.4c0.6,0.3,1.2,0.3,2.2,0.6c-0.3,1.5-1.5,2.2-2.5,3.1c-5.3,3.7-10.8,6.8-16.7,10.2
			c0.6,0.3,0.9,0.6,1.5,0.9c0,0.3-0.3,0.9-0.3,0.9c-2.2,1.2-4.3,2.8-6.5,3.7c-7.1,3.4-14.6,6.5-22,9.6c-3.4,1.5-6.8,3.1-9.9,4.6
			c-0.9,0.6-1.9,1.2-2.8,1.9c0,3.7,0,3.7,3.1,7.7c0,2.2,0,4.6,0.3,6.8c0.3,2.5-0.3,4.3-2.2,5.9c-0.9,0.6-1.9,1.2-2.8,2.2
			c-1.2-0.6-2.5-0.9-3.4-1.5c-6.2,0-8.1-0.3-10.5-2.5c-5,1.9-9.3,0-13.6-2.2c-2.8-1.2-3.7-3.4-3.4-6.2c0.3-3.1,0.3-6.2-0.6-9.3
			c-1.9-2.8-6.2-2.8-7.7-6.8c0-3.4,3.4-3.7,5.6-5.3c0.6-1.2,0.6-2.5,0.3-3.7c-2.2-9.9-2.5-20.1-2.5-30.4c0-0.9,0-1.9,0-2.8
			c0.3-2.8-1.2-4.3-3.7-5.6c-0.9-0.3-1.5-0.6-2.5-0.6c-1.9-0.3-3.7-0.9-5.6-1.2c-0.6,0-1.2,0-1.9,0c-0.3,0.9-0.6,1.9-0.6,2.5
			c-0.9,10.5-1.9,20.8-3.7,31.3c-1.2,7.1-3.1,14.3-5.6,21.1c-2.2,5.9-5.6,11.2-9.6,15.8c-0.6,0.6-1.5,1.5-2.2,2.2
			c-3.7,2.8-8.1,4.3-12.4,5.9c-3.1-1.2-5.9-1.9-9-1.9h-0.3c-2.2-0.6-4-1.5-6.2-2.2c-1.9-0.3-4.3,0-6.2-0.6c-4-1.5-8.1-3.7-10.5-7.4
			c-2.5-3.7-4.6-7.4-6.5-11.8c-2.2-5-3.7-9.9-5.3-15.2c-1.9-6.8-4-13.3-5.3-20.1c-1.9-8.4-3.4-16.4-4.6-24.8
			c-0.6-3.4-0.9-6.8-1.5-10.2c0-0.6,0-1.2,0-1.9c3.4-3.7,8.1-3.4,12.1-4.6c4.6,1.2,9.6,2.2,14.6,1.5c0.6,0.3,1.2,0.9,1.9,1.5
			c1.5,0.3,3.1,0.6,4.6,0.9c2.8,3.4,3.4,6.8,1.9,10.5c-0.6,1.5-0.3,3.1-0.3,5c0.6,8.7,1.9,17,4,25.4c2.2,8.4,4.6,16.7,6.8,25.1
			c0.3,0.6,0.6,1.5,1.2,2.5c0.6-0.9,0.9-1.2,1.2-1.9c2.8-7.1,5.3-14.3,6.5-21.7c1.2-8.1,2.2-16.4,3.1-24.8c0.3-3.7,0.9-7.7,0.6-11.5
			c0-0.9,0.3-1.9,0.6-3.1c0.9-0.3,1.5-0.9,2.5-0.9c1.9-0.3,3.7-0.9,5.6-1.2c0.9,0,2.5-0.3,3.1,0.3c2.2,1.9,4.6,1.2,7.1,0.6
			c0.3,0,0.6,0,1.2,0c0.6,0.6,1.2,1.2,1.9,2.2c0.9-0.3,1.9-0.9,2.8-1.2c0.9,0.6,1.5,0.9,2.8,1.9c4-0.3,8.1-1.2,12.1-2.2
			c3.1-0.9,6.2-2.2,9.3-3.1c9.3-2.5,18.3-5.6,27.9-7.1c9.9-1.9,20.1-1.9,30.1-0.3c1.2,0.3,2.5,0.6,3.7,1.2c1.5,0.3,2.8,0.9,4.3,1.2
			c5.3,0.9,10.5,2.8,15.8,4.6c0.9,0.3,1.9,0.6,2.8,1.2c3.1,1.5,6.5,3.1,9.6,4.6c1.5,0.6,3.1,1.5,4,3.1c0.6,1.2,2.2,2.2,3.1,3.1
			c3.1,3.7,3.7,6.5,0.6,11.2c-2.5,4.3-5.9,7.7-9.9,10.8C755.1,493.5,754.8,494.1,754.2,494.4C754.2,494.7,754.2,494.7,754.2,494.4
			c-0.3,0.3-0.3,0.3-0.3,0.3C753.9,494.7,754.2,494.7,754.2,494.4z M694,506.5c1.2-0.3,2.5-0.3,3.4-0.6c2.8-0.9,5.6-1.9,8.4-3.1
			c2.5-0.9,4.6-1.9,7.1-2.8c1.9-0.9,3.7-1.5,5.6-2.5c2.8-1.2,5.9-2.2,8.4-4c3.7-2.8,8.1-4.3,11.5-7.4c3.4-2.5,6.2-5.6,8.4-9
			c0.6-0.9,0.9-2.2,1.2-3.1c-0.9-4.3-4-6.5-7.1-8.4c-4.6-2.2-9.3-3.7-14.3-4.3c-4-0.3-8.1,0-11.8,0.6c-8.7,1.9-17,5-25.4,8.1
			c-0.6,0.3-1.2,0.9-1.9,1.2c0.6,0.9,1.2,1.5,1.5,2.2c0.9-0.3,1.9-0.3,2.5-0.6c1.5,0.6,2.5,1.9,2.8,3.4c-1.5,4.6-1.5,9.6-1.5,14.6
			C692.8,496.3,692.8,500.9,694,506.5z"/>
		<path fill="#fff" d="M417.2,456.9c-0.3-1.5-0.3-3.1-0.6-4.3c0.9-2.2,2.8-2.2,4.3-3.1c1.5-0.9,2.8-1.9,4.3-2.8c1.2,0,2.8,0,4,0
			c1.9,0.3,3.4-0.3,5.3-1.2c4.3-1.9,8.1-1.2,11.2,2.2c2.2,2.2,2.8,3.7,4,7.1c-1.9,3.1-1.5,6.5-0.9,10.2c0.9,6.8,0.9,13.9,0.9,20.8
			c0,7.4,0,14.9-0.3,22c-0.3,6.8-0.6,13.3-1.2,20.1c-0.3,5-0.9,9.9-1.5,15.2c-0.3,2.2-0.3,4.3,0.3,6.5c0.6,2.2-0.6,4-1.5,5.9
			c-1.5,1.5-3.4,1.5-5.3,0.6c-4,2.2-7.7,1.9-11.5,0.3c-2.8,0.9-5.3,0.6-8.1-0.3c-2.5-0.9-5.3-1.5-8.1-1.9c-3.7-0.6-7.1-1.9-9.3-5.6
			c0-3.1-0.6-6.2-2.8-9c-1.2-1.5-1.2-4-3.7-5.3c-0.3,5.6-0.6,10.8,0,16.1c0.3,2.5,0.9,4.6,1.5,7.4c-0.3,0.9-0.6,1.9-0.9,3.1
			c-1.9,2.5-4.3,2.8-6.8,0.9c-3.7,1.5-7.4,1.9-10.5-1.2c-1.5,0-3.1,0.6-4.3,0.3c-1.5-0.3-3.1-1.5-4.3-2.2c-0.9-0.3-1.5-0.9-2.5-1.5
			c-0.6-0.9-1.2-1.9-1.5-3.1c-0.3-4.3-0.3-8.4,0.3-12.7c0-0.9,0-1.9,0-2.8c0.3-7.4,0.6-14.9,0.6-22.3c0-3.7,0.3-7.1,0.3-10.8
			c-0.3-5.9-0.6-11.5-0.9-17.4c0-0.6-0.3-0.9-0.3-1.5c-0.3-4.3-0.6-8.4-0.9-12.7c-0.9-1.2-1.5-2.5-2.5-3.4c-1.5-1.5-2.2-3.4-1.5-5.3
			c0.3-2.2,0.9-4.3,1.9-6.2c0.3-0.6,0.9-0.9,1.2-1.2c0.3-0.3,0.9-0.6,1.5-0.6c4-1.2,8.1-2.5,12.4-1.5c0.3,0,0.6,0,1.2,0
			c0.3,0,0.6-0.3,0.6-0.3c1.9-2.2,3.7-1.9,5.9-0.6c1.2,0.6,2.8,1.5,4.3,1.9c3.1,0.9,4,3.7,5.9,5.9c-0.6,1.5,1.2,2.8,0.6,4.3
			c0,0.6,0.3,1.2,0.6,1.9c1.9,6.8,5.3,13,7.7,19.5s5,12.7,7.7,19.2c1.5,4,3.4,8.1,5.3,12.1c0.3,0.3,0.6,0.6,1.2,1.2
			c0.3-0.6,0.6-0.9,0.6-1.2c0.3-5.9,0.6-11.8,1.2-17.7c0.3-2.8,0.3-5.6,0.3-8.4c0-4,0-8.4,0-12.4c0-1.5-0.6-3.4-0.6-5
			c0.3-4-0.6-8.1-0.9-12.1C419.7,460.3,419.4,460.3,417.2,456.9z"/>
		<path fill="#fff" d="M232.5,434.9c3.1-2.2,6.5-3.1,10.2-3.7c0.6,0,1.5,0,2.2,0c1.5,0.3,3.1,0.3,4.3-0.6c1.5-0.9,3.4-0.9,5-1.2
			c0.9-0.3,2.5,0.3,3.4,0.9c1.5,0.9,3.1,1.9,4.3,2.8c1.2,2.8,1.2,5.3,0.9,8.1c-0.3,1.5-0.3,2.8,0,4.3c0.3,3.1,0.9,6.2,1.2,9.3
			c0.6,5,1.5,9.6,2.2,14.6c0.6,4.3,1.5,8.7,2.5,13c0.6,3.1,1.2,6.2,1.9,9.3c1.2,6.5,2.5,13.3,3.7,19.8c1.2,7.7,2.5,15.8,3.7,23.6
			c0.3,2.5,0.6,5,0.9,7.1c0,0.9,0.3,1.5,0.6,2.5c1.5,0.6,2.8,0.3,4,0.3c4-0.3,8.4-0.9,12.4-2.2c0.6,0,1.2-0.3,1.9-0.3
			c1.5-0.3,2.8-0.6,4.3-0.9c1.2-0.3,2.5-0.6,3.7-0.6c3.1,0,6.2,0,9.6,0c1.5,0,3.1,0.3,4,1.2c1.2,1.2,3.1,2.2,4.6,2.8
			c0.6,1.2,1.5,2.5,1.9,3.7c0.6,2.8,0,5.6-1.5,8.1c-0.6,1.2-1.9,2.2-3.1,2.2c-2.8,0.3-5.9,0.9-9.3,1.2c-1.2,0.9-2.8,2.5-4,3.4
			c-5,2.2-9.9,2.2-14.9,2.8c-1.9,0.3-3.7,0.6-5.3,1.2c-4,1.5-8.1,2.5-12.4,3.1c-0.9,0.3-1.9,0-2.8,0c-1.2,0-2.2-0.3-3.1,0
			c-2.2,0.3-4.3-0.6-6.5-0.9c-1.9-0.3-3.4-0.9-5.3-1.5c-0.6,0-0.9-0.3-1.5-0.3c-2.8-1.2-5.3-2.5-5.9-5.9c0.3-1.9,1.2-3.4,2.8-4
			c0.9-1.2,0.9-2.5,0.9-4c-0.6-4.3-1.2-9-1.9-13.3c-0.6-5-1.5-10.2-2.2-15.2c-0.3-2.2-0.6-4-0.9-6.2c-1.5-8.4-3.1-16.7-4.6-25.1
			c-1.2-6.2-2.5-12.7-3.7-18.9c-0.9-5.3-1.9-10.5-2.5-15.8c0-0.9,0-1.9,0-2.8c0-0.6,0-0.9-0.3-1.5c-1.5-2.8-1.5-5.9-2.2-8.7
			c-0.3-1.5-0.9-3.4-1.2-5C233.1,439.2,231.9,437.4,232.5,434.9z"/>
		<path fill="#fff" d="M512.7,491.9c0.6,0.9,1.2,1.9,1.9,2.8c-0.6,2.2-1.5,3.4-3.7,4c-2.5,0.6-5.3,1.5-7.7,1.9
			c-1.5,0-3.4,0.6-5,0.9c-3.7,0.9-7.4,1.9-11.2,2.8c-0.3,0.6-0.3,0.9-0.3,1.2c0.3,5.3,0.3,10.5,0.6,15.8c0.3,5.9,0.9,11.5,1.9,17.4
			c0.3,3.1,0.9,6.2,1.5,9c0.3,0.9,0.6,1.9,1.2,3.1c3.4,0.9,7.1,2.5,11.2,0.9c2.8,1.2,6.2,0.9,9.3,0.6c2.5,0,5.3-0.3,7.7-0.3
			c2.5,0,5-0.3,7.1-1.5c2.2,2.2,3.7,4.3,5.3,6.8c1.5,0,3.4,0.3,4.6,1.5c0.9,1.5,1.5,3.4,0.9,5.6c-0.3,1.2-0.9,2.2-2.2,2.2
			c-5,0.3-9.9,1.5-14.9,0.9c-6.8-0.6-13.9-0.9-20.8-1.2c-1.9,0-3.7,0-5.3,0.3c-1.5,0.3-3.4,0.3-5,0c-3.1-0.6-6.5-0.3-9.3-2.2
			c-3.4,0.3-6.5,0-9.6-0.6c-1.9-0.3-2.8-1.9-4.3-2.2c-1.2-1.5-1.5-3.4-1.9-5.3c-0.3-3.1-1.2-6.2-1.9-9.6c-1.2-7.1-2.8-14.3-3.1-21.4
			c-0.3-5.3-0.6-10.5-0.9-15.8c-0.3-6.2-0.3-12.1-0.9-18.3c-0.6-7.4-0.3-14.9-0.3-22.6c0-0.3,0-0.6-0.3-0.9
			c-1.2-1.9-2.5-3.7-3.7-5.6c0.3-0.9,0.3-2.2,0.6-2.8c0.6-0.3,0.6-0.6,1.2-0.6c1.5-0.6,3.1-1.5,4.6-2.2c2.5-0.9,5-1.5,7.4-2.2
			c3.7-0.6,7.4-1.9,11.2-3.1c1.9-0.6,3.4-1.9,5.3-2.8c1.2-0.3,2.8-0.3,4-0.9c1.2-0.3,2.8-0.9,4-1.5c1.5,0.3,3.1,0.9,4.3,1.2
			c1.9-0.6,3.7-1.2,5.6-1.5c0.6,0.3,1.2,0.9,1.9,1.2c1.2,0.6,3.1,0.9,3.7,1.9c0.9,0.9,2.2,1.5,3.1,2.2s1.9,1.5,1.9,2.8
			c0.3,0.9,0.3,1.9,0.6,2.5c-0.9,2.5-2.5,3.7-5,4.3c-4.3,0.9-8.4,2.5-12.7,3.4c-3.1,0.9-5.9,2.8-8.4,5.6c-0.9,5-0.3,10.2-0.6,15.5
			c0.9,0.3,1.5,0.6,2.5,0.6s2.2,0,3.1,0c3.7-0.3,7.1-0.6,10.8-0.9c0.6,0,1.5,0,2.2,0c0.9,0.3,1.9,0.3,3.1,0.6
			c0.3,0.9,0.6,1.9,0.9,3.1C509.9,490.4,511.2,491,512.7,491.9z"/>
		<path fill="#fff" d="M314.9,456c0.3-2.5,2.5-3.4,4.3-4.6c3.1-1.5,6.2-3.4,10.2-3.4c1.2,0,2.2-0.6,3.4-0.9
			c1.5-0.6,3.1-1.2,4.3-1.5c3.4,0.6,5.9,1.9,8.4,3.7c2.8,2.2,4.3,4.6,4.3,8.1c0,2.2,0.6,4,1.2,5.9c0.3,0.9,0.3,1.9,0,3.1
			c0,0.3,0,0.6-0.3,1.2c-2.2,5-1.5,10.2-0.9,15.2c0.9,7.1,1.9,13.9,2.8,21.1c0.9,8.1,1.5,15.8,2.5,23.9c0,1.2,0.3,2.2,0.3,3.4
			c0.3,2.8,1.2,5.6,3.4,7.4c1.5,1.2,1.5,3.4,1.5,5.3c0,3.1,0,6.5,0,9.6c0,1.9,0.3,3.7,0.3,6.5c0,0-0.3,0.9-0.3,1.9
			c-0.3,2.2-2.8,3.7-5,1.9c-0.3-0.3-0.9-0.6-1.2-0.9c-2.2,1.9-4.6,0.9-6.8,0.3c-1.2-0.3-2.2-0.9-3.1-1.2c-2.5,0.6-6.5,0.6-8.7,0.3
			c-2.8-0.6-4.6-2.8-5-5.6c-0.6-3.7-1.2-7.7-1.5-11.5c-0.6-4-1.2-8.1-1.5-12.4c-0.6-5.9-1.2-12.1-1.9-18c-0.9-7.4-1.5-14.6-2.5-22
			c-0.9-6.5-1.9-13-2.8-19.5c-0.3-1.5-0.6-3.1-2.2-4.3c-1.5-1.5-2.8-3.1-1.9-5.6C315.9,461.2,315.2,458.7,314.9,456z"/>
	</g>
</g>
</svg>
