<?xml version="1.0" encoding="utf-8"?>
<!-- Generator: Adobe Illustrator 18.1.1, SVG Export Plug-In . SVG Version: 6.00 Build 0)  -->
<svg version="1.1" id="Layer_1" xmlns="http://www.w3.org/2000/svg" xmlns:xlink="http://www.w3.org/1999/xlink" x="0px" y="0px"
	 viewBox="0 0 322.6 141.1" enable-background="new 0 0 322.6 141.1" xml:space="preserve">
<g> 
	<g>
		<path fill="#FFFFFF" d="M318.3,20.9c0.2,0.1,0.4,0.1,0.7,0.2c-0.1,0.5-0.5,0.7-0.8,1c-1.7,1.2-3.5,2.2-5.4,3.3
			c0.2,0.1,0.3,0.2,0.5,0.3c0,0.1-0.1,0.3-0.1,0.3c-0.7,0.4-1.4,0.9-2.1,1.2c-2.3,1.1-4.7,2.1-7.1,3.1c-1.1,0.5-2.2,1-3.2,1.5
			c-0.3,0.2-0.6,0.4-0.9,0.6c0,1.2,0,1.2,1,2.5c0,0.7,0,1.5,0.1,2.2c0.1,0.8-0.1,1.4-0.7,1.9c-0.3,0.2-0.6,0.4-0.9,0.7
			c-0.4-0.2-0.8-0.3-1.1-0.5c-2,0-2.6-0.1-3.4-0.8c-1.6,0.6-3,0-4.4-0.7c-0.9-0.4-1.2-1.1-1.1-2c0.1-1,0.1-2-0.2-3
			c-0.6-0.9-2-0.9-2.5-2.2c0-1.1,1.1-1.2,1.8-1.7c0.2-0.4,0.2-0.8,0.1-1.2c-0.7-3.2-0.8-6.5-0.8-9.8c0-0.3,0-0.6,0-0.9
			c0.1-0.9-0.4-1.4-1.2-1.8c-0.3-0.1-0.5-0.2-0.8-0.2c-0.6-0.1-1.2-0.3-1.8-0.4c-0.2,0-0.4,0-0.6,0c-0.1,0.3-0.2,0.6-0.2,0.8
			c-0.3,3.4-0.6,6.7-1.2,10.1c-0.4,2.3-1,4.6-1.8,6.8c-0.7,1.9-1.8,3.6-3.1,5.1c-0.2,0.2-0.5,0.5-0.7,0.7c-1.2,0.9-2.6,1.4-4,1.9
			c-1-0.4-1.9-0.6-2.9-0.6c0,0-0.1,0-0.1,0c-0.7-0.2-1.3-0.5-2-0.7c-0.6-0.1-1.4,0-2-0.2c-1.3-0.5-2.6-1.2-3.4-2.4
			c-0.8-1.2-1.5-2.4-2.1-3.8c-0.7-1.6-1.2-3.2-1.7-4.9c-0.6-2.2-1.3-4.3-1.7-6.5c-0.6-2.7-1.1-5.3-1.5-8c-0.2-1.1-0.3-2.2-0.5-3.3
			c0-0.2,0-0.4,0-0.6c1.1-1.2,2.6-1.1,3.9-1.5c1.5,0.4,3.1,0.7,4.7,0.5c0.2,0.1,0.4,0.3,0.6,0.5c0.5,0.1,1,0.2,1.5,0.3
			c0.9,1.1,1.1,2.2,0.6,3.4c-0.2,0.5-0.1,1-0.1,1.6c0.2,2.8,0.6,5.5,1.3,8.2c0.7,2.7,1.5,5.4,2.2,8.1c0.1,0.2,0.2,0.5,0.4,0.8
			c0.2-0.3,0.3-0.4,0.4-0.6c0.9-2.3,1.7-4.6,2.1-7c0.4-2.6,0.7-5.3,1-8c0.1-1.2,0.3-2.5,0.2-3.7c0-0.3,0.1-0.6,0.2-1
			c0.3-0.1,0.5-0.3,0.8-0.3c0.6-0.1,1.2-0.3,1.8-0.4c0.3,0,0.8-0.1,1,0.1c0.7,0.6,1.5,0.4,2.3,0.2c0.1,0,0.2,0,0.4,0
			c0.2,0.2,0.4,0.4,0.6,0.7c0.3-0.1,0.6-0.3,0.9-0.4c0.3,0.2,0.5,0.3,0.9,0.6c1.3-0.1,2.6-0.4,3.9-0.7c1-0.3,2-0.7,3-1
			c3-0.8,5.9-1.8,9-2.3c3.2-0.6,6.5-0.6,9.7-0.1c0.4,0.1,0.8,0.2,1.2,0.4c0.5,0.1,0.9,0.3,1.4,0.4c1.7,0.3,3.4,0.9,5.1,1.5
			c0.3,0.1,0.6,0.2,0.9,0.4c1,0.5,2.1,1,3.1,1.5c0.5,0.2,1,0.5,1.3,1c0.2,0.4,0.7,0.7,1,1c1,1.2,1.2,2.1,0.2,3.6
			c-0.8,1.4-1.9,2.5-3.2,3.5C318.6,20.6,318.5,20.8,318.3,20.9C318.3,21,318.3,21,318.3,20.9c-0.1,0.1-0.1,0.1-0.1,0.1
			C318.2,21,318.3,21,318.3,20.9z M298.9,24.8c0.4-0.1,0.8-0.1,1.1-0.2c0.9-0.3,1.8-0.6,2.7-1c0.8-0.3,1.5-0.6,2.3-0.9
			c0.6-0.3,1.2-0.5,1.8-0.8c0.9-0.4,1.9-0.7,2.7-1.3c1.2-0.9,2.6-1.4,3.7-2.4c1.1-0.8,2-1.8,2.7-2.9c0.2-0.3,0.3-0.7,0.4-1
			c-0.3-1.4-1.3-2.1-2.3-2.7c-1.5-0.7-3-1.2-4.6-1.4c-1.3-0.1-2.6,0-3.8,0.2c-2.8,0.6-5.5,1.6-8.2,2.6c-0.2,0.1-0.4,0.3-0.6,0.4
			c0.2,0.3,0.4,0.5,0.5,0.7c0.3-0.1,0.6-0.1,0.8-0.2c0.5,0.2,0.8,0.6,0.9,1.1c-0.5,1.5-0.5,3.1-0.5,4.7
			C298.5,21.5,298.5,23,298.9,24.8z"/>
		<path fill="#FFFFFF" d="M18,6.3c1.5-0.7,3.1-1.5,4.8-1.9c0.3-0.1,0.6,0,0.8-0.2c1.4-0.8,2.7-0.4,4,0.3c1.1,0.6,1.8,1.4,2.3,2.4
			c0.2,0.5,0.4,1,0.5,1.5c0,0.4,0.1,0.8,0.3,1.2c1.1,2.3,2.3,4.6,3.4,6.8c0.1,0.2,0.2,0.4,0.4,0.6c1.3-1.4,2.3-3,3.2-4.6
			c0.2-0.3,0.3-0.6,0.5-1c0.2-0.5,0.4-0.9,0.3-1.4c0-0.4,0-0.8,0.1-1.3c0.3-0.3,0.5-0.6,0.9-0.8c1.1-0.5,2.1-1.1,3.3-1.2
			c0.3,0,0.5-0.1,0.8-0.2c0.9-0.1,1.9-0.3,2.8,0.2c0.7,0.4,1.5,0.3,2.4,0.3c0.5,0.4,1,0.8,1.7,1.2c0.1,0,0.4,0.1,0.7,0.1
			c0.4,0.2,0.5,0.5,0.5,0.9c0,0.7-0.1,1.5-0.1,2.2c0,0.3-0.1,0.6-0.1,1c0.2,3.1,0.3,6.2,0.5,9.3c0.4,4.8,0.8,9.6,1.3,14.4
			c0.2,1.7,0.5,3.4,0.7,5.1c0.1,0.4,0.2,0.7,0.4,1c0.4,0.5,0.5,1,0.4,1.5c0,0.3-0.1,0.5-0.1,0.8c0.2,1.1-0.5,1.8-1.3,2.3
			c-0.3-0.2-0.6-0.4-1-0.6c-0.3,0-0.7,0-1,0.1c-0.8,0.3-1.6,0.2-2.3-0.4c-1.1,0.6-2.2,0-3.3-0.3c-0.3-0.1-0.7-0.2-1.1-0.4
			c-0.3-0.3-0.4-0.7-0.4-1.2c0-0.8-0.1-1.6-0.1-2.4c-0.2-1.9-0.5-3.8-0.7-5.7c-0.1-0.5-0.1-1-0.1-1.5c-0.3-2.9-0.5-5.9-0.8-8.8
			c0-0.5,0-1-0.1-1.5c0-0.2-0.1-0.5-0.3-0.8c-0.2,0.2-0.4,0.3-0.5,0.4c-0.4,0.6-0.8,1.3-1.3,1.9c-0.5,0.7-0.9,1.5-1.1,2.3
			c-0.2,0.7-0.5,1.3-0.7,1.8c-0.8,0.6-1.5,0.4-2.1,0.2c-0.4,0.1-0.8,0.3-1.2,0.4c-0.6,0.2-1.1,0.1-1.6-0.2c-0.5-0.4-1-0.5-1.5-0.5
			c-0.8,0.1-1.5-0.3-2.2-0.5c-1.1-0.3-1.7-1.2-2.1-2.2c-0.1-0.2-0.1-0.5,0-0.8c0.1-0.6,0.1-1.1-0.1-1.6c-0.4-1-0.8-2-1.3-3
			c-0.1-0.2-0.3-0.4-0.5-0.8c-0.2,0.4-0.3,0.7-0.4,1c-0.6,2.9-1.2,5.7-2.1,8.4c-0.4,1.1-0.6,2.2-1,3.3c-0.3,1-0.6,2-1.1,2.9
			c-0.5,1-1,2-0.9,3.1c0,0.5-0.2,0.9-0.5,1.2c-0.3,0.4-0.7,0.7-1,1C18,42,17.5,42.1,17,42.2c-1,0.1-2,0-2.9-0.3
			c-0.7-0.2-1.5-0.4-2.2-0.6c-0.5-0.1-0.9-0.4-1.3-0.6c-1.2-0.7-1.6-1.7-1.4-3.1c0.6-0.8,1.3-1.6,1.7-2.7c-0.4-0.6-0.9-1.2-1.3-1.8
			c0.2-0.9,0.5-1.6,1.1-2.2c0.8-0.8,1.2-1.9,1.5-3c0.4-1.5,0.7-3.1,1.4-4.6c0.1-0.3,0.3-0.7,0.3-1c0.1-1.3,0.6-2.6,1.2-3.7
			c0.5-1,0.8-2,1.1-3.1c0.3-1.3,0.8-2.6,1.2-3.9c0.3-0.9,0.5-1.8,0.3-2.7C17.4,7.9,17.6,7.1,18,6.3z"/>
		<path fill="#FFFFFF" d="M103.9,43.2c-1.5,0.3-2.7,0.1-4-0.3c-0.7-0.2-1.4-1-1.3-1.9c0.1-1.1,0-2.3,0-3.4c0-0.1,0-0.3,0-0.4
			c0.4-0.5,0.3-1.1,0.2-1.7c-0.1-1-0.1-2-0.2-3c0-0.3-0.1-0.5-0.2-0.8c-1.7-0.1-3.3,0.5-5,0.7c-0.2,1.6,0.1,6.7,0.5,8.4
			c0.2-0.2,0.3-0.3,0.5-0.4c0.6,0.5,0.5,1.2,0.4,1.9c-0.3,1.6-0.6,3.1-0.5,4.8c-0.3,0.3-0.6,0.7-0.8,0.9c-0.7,0.3-1.1,0.1-1.5-0.3
			c-1.1,0.2-2.1,0.2-3-0.4c-0.4-0.2-0.8-0.3-1.2-0.2c-1.2,0.2-2.3-0.4-3.4-0.8c-0.3-0.1-0.5-0.4-0.7-0.7c0-0.5-0.1-1,0-1.5
			c0.2-2.2,0-4.4-0.1-6.7c0-0.6-0.1-1.3-0.1-1.9c0-1.6-0.1-3.2-0.2-4.8c-0.1-1.6-0.1-3.2-0.1-4.8c0-3.3,0-6.6-0.2-9.9
			c-0.1-1.1-0.1-2.2-0.1-3.3c0-0.7-0.1-1.4-0.4-2.1c-0.3-0.9-0.3-1.8,0.4-2.6c0.8-0.5,1.8-0.6,2.7-0.8c0.3-0.1,0.7-0.1,0.9,0
			c1.4,0.4,2.8,0.5,4.2,0.2c0.1,0,0.2,0,0.3,0c0.5,0.3,1,0.6,1.6,0.8c0.8,0.3,1.2,0.9,1.3,1.7c0,0.2,0.1,0.4,0.1,0.5
			c0,0.1,0,0.2-0.1,0.3c-0.5,0.9-0.7,2-0.7,3c0,2.6,0,5.3,0,7.9c0,1.4,0,2.8,0,4.2c0,0.3,0.1,0.5,0.1,0.8c0.5,0.2,1,0,1.4-0.2
			c0.6-0.3,1.2-0.3,1.9-0.3c0.4,0,0.8,0.1,1.2-0.3c0.2-0.4,0.1-0.9,0.1-1.4c-0.3-2.6-0.5-5.2-0.8-7.9c-0.2-2.1-0.4-4.2-0.6-6.2
			c0-0.4-0.2-0.9-0.3-1.3c-0.1-1,0.2-1.4,1.1-1.8c1.4-0.6,2.8-0.6,4.3-0.2c0.4,0.1,0.9,0.2,1.3,0.3c1.1,0.1,1.1,0,2.1,0.8
			c0.4,0,0.7-0.1,1.1-0.1c0.1,0,0.2,0,0.3,0.1c0.4,0.4,0.6,0.8,0.5,1.4c-0.2,0.8-0.1,1.5,0,2.3c0.1,1.4,0.1,2.9,0.2,4.4
			c0.2,3.1,0.5,6.2,0.9,9.4c0.3,2.3,0.7,4.6,0.7,6.9c0,1.6,0.3,3.2,0.4,4.8c0,0.5,0,0.9,0.1,1.4c0.1,0.7,0.1,1.5,0.4,2.1
			c0.2,0.7,0.2,1.3,0.1,2c-0.4,0.5-0.9,0.8-1.4,1.1c-0.3-0.2-0.6-0.3-0.9-0.5C106.1,43.6,105,43.8,103.9,43.2z"/>
		<path fill="#FFFFFF" d="M75.4,43.8c-0.9,0.2-1.6,0-2.3-0.4c-0.5-0.3-1-0.7-1.6-1.1c-0.6-0.4-0.8-1-0.7-1.7
			c0.1-1.2,0.3-2.3,0.4-3.5c0.1-1.2,0.2-2.4,0.3-3.7c0-0.4,0.1-0.8-0.2-1.2c-0.5-0.2-1.1-0.1-1.6,0c-1,0.2-2,0.4-2.9,0.6
			c-0.5,0.1-1,0.3-1.4,0.8c-0.3,2.5,0.1,5.2,0.2,7.6c-0.3,0.6-0.7,0.8-1.2,1c-0.7-0.1-1.3-0.2-2.1,0c-1.1,0.3-2.1,0-3-0.7
			c-0.1,0-0.3,0-0.4,0c-1.3,0-2.3-0.5-3.1-1.4c-0.5-0.6-0.7-1.2-0.6-2c0.2-1.8,0.2-3.5,0.2-5.3c0-2.5-0.2-5-0.2-7.5
			c0-2.1-0.1-4.3-0.1-6.4c0-0.7-0.3-1.3-0.6-1.9c-0.2-0.5-0.4-0.9-0.3-1.4c0-0.6,0.2-1.2,0.5-1.7c0.3-0.4,0.6-0.9,1-1.5
			c0.4-0.1,0.9-0.3,1.3-0.5c0.7-0.2,1.4-0.5,2-0.7c0.9-0.3,1.5-0.8,2.1-1.4c0.9-1,2-1.5,3.3-1.7c1.1-0.1,2.2-0.4,3.4-0.5
			c0.4-0.1,0.9-0.1,1.3,0c0.8,0.2,1.6,0.3,2.4,0c1,0.4,1.9,0.9,2.7,1.5c0.5,0.4,0.9,0.9,1,1.5c0.2,1,0.8,1.9,1.3,2.8
			c1.1,1.7,1.9,3.5,2.5,5.4c0.1,0.4,0.3,0.8,0.5,1.1c0.7,1.9,1.1,3.8,1.5,5.8c0.2,1.5,0.4,3,0.5,4.5c0.1,1.9,0.4,3.7,0.3,5.6
			c-0.1,2.1-0.2,4.2-0.3,6.3c0,0.2-0.1,0.4-0.1,0.7c-0.2,0.8-0.7,1.3-1.5,1.3c-0.7,0-1.4,0.2-2.1,0.2C76.9,44.5,76.2,44.3,75.4,43.8
			z M67.7,16.7c-0.3,0.2-0.5,0.3-0.6,0.5c-0.9,1.4-2.1,2.8-1.7,4.7c0,0.2,0,0.4,0,0.5c0,1.4,0,2.7,0,4.1c0,0.3,0,0.7,0.4,1.1
			c1-0.2,2.2-0.3,3.3-0.6c0.5-0.1,1-0.2,1.4-0.4c0.2,0,0.3-0.2,0.5-0.3c-0.1-1.8-0.6-3.5-1.2-5.2C69.2,19.7,68.8,18.1,67.7,16.7z"/>
		<path fill="#FFFFFF" d="M131.2,18.3c0.1,0.2,0.3,0.4,0.4,0.7c0.6,2.2,1.4,4.3,1.7,6.6c0.2,1.5,0.4,3,1.2,4.3
			c-0.2,0.8-0.1,1.6,0,2.4c0.3,2.1,0.5,4.1,0.8,6.2c0.1,0.4,0.2,0.8,0.3,1.2c0.4,1.2,0.4,1.2-0.5,2.3c-0.1,0-0.2,0.1-0.3,0
			c-0.2,0-0.4-0.1-0.7-0.2c-0.1-0.2-0.2-0.4-0.3-0.6c-0.4-0.6-0.8-0.6-1.2,0c-0.1,0.1-0.1,0.2-0.2,0.3c-1.2,0-2.4-0.1-3.6-0.1
			c-0.9,0-1.8-0.1-2.6-0.6c-0.2-0.1-0.4-0.2-0.6-0.4c-0.2-0.1-0.3-0.3-0.4-0.5c-0.3-1.3,0.3-2.5,0.1-3.7c-0.2-1.2-0.1-2.4-0.5-3.5
			c-0.3,0-0.5-0.1-0.8-0.1c-1,0-1.9,0-2.9,0c-0.1,0.3-0.2,0.6-0.2,0.8c0,0.9,0,1.7,0,2.6c0,0.6,0.1,1.3,0.1,1.9
			c-0.1,1.4,0.2,2.7,0.4,4.1c0,0.2,0.1,0.4,0.1,0.5c0.1,0.7-0.1,1.1-0.7,1.5c-0.3,0.2-0.7,0.3-1,0.2c-0.4-0.2-0.8-0.3-1.2-0.1
			c-1.1,0.4-2.1,0.2-2.9-0.6c-0.5-0.1-0.9-0.1-1.3-0.2c-0.4-0.1-0.8-0.2-1.2-0.3c-0.5-0.4-1.1-0.8-1.6-1.3c-0.3-0.2-0.4-0.6-0.7-1
			c0-1,0-2.1,0-3.3c0-2.8-0.1-5.5-0.1-8.3c0-1.8,0.2-3.6,0.3-5.4c0.1-1.5,0.3-3,0.6-4.4c0.4-1.7,0.9-3.4,1.4-5.1
			c0.5-1.6,1-3.2,1.5-4.8c0.1-0.3,0.1-0.6,0.1-0.9c0-0.6,0.4-1,0.9-1.2c0.5-0.2,0.9-0.4,1.4-0.3c0.5,0.1,1.1,0,1.6-0.3
			c0.6,0.4,1.3,0.6,2,0.4c0.4-0.1,0.8-0.1,1.2,0c0.5,0.1,0.8-0.2,1.1-0.3c0.6,0.3,1.1,0.6,2,1c0.1,0.2,0.5,0.5,0.7,1
			c0.6,1.2,1.5,2.2,2.3,3.2c0.6,0.7,1,1.4,1.4,2.2c0.5,1.1,1.1,2.2,1.5,3.3C131.2,17.8,131.2,18.1,131.2,18.3
			c-0.2-0.2-0.4-0.5-0.6-0.8c-0.4-0.8-0.8-1.6-1.2-2.4c-0.1-0.1-0.2-0.2-0.3-0.3c-0.1,0.1-0.1,0.1-0.1,0.2c0,0.2,0,0.4,0.1,0.5
			c0.6,1,0.8,2.1,1.1,3.2c0,0,0,0.1-0.1,0.1c0,0,0-0.1,0-0.1c0.3,0.5,0.8,0.8,0.8,1.5c0,0.1-0.1,0.1-0.1,0.2
			c-0.2-0.2-0.1-0.6-0.6-0.6c0,0.9,0.1,1.5,0.4,2.3l0,0c0,0.3,0,0.6,0.1,0.9c0,0.1,0.1,0.1,0.1,0.2c0.1-0.2,0.2-0.3,0.3-0.4
			c0.3,0,0.6,0,0.8-0.1c0.1,0.2,0.2,0.3,0.5,0.6c-0.1-0.8-0.2-1.3-0.3-1.9c-0.1-0.5-0.4-1-0.5-1.5C131.3,19.3,131.1,18.9,131.2,18.3
			z M128.8,14.2C128.8,14.3,128.8,14.3,128.8,14.2C128.8,14.3,128.8,14.3,128.8,14.2C128.7,14.3,128.7,14.2,128.8,14.2
			C128.7,14.2,128.7,14.2,128.8,14.2z M131.8,27.6c0,0.1,0,0.2,0.1,0.3c0,0,0.1,0,0.2,0.1c0-0.1,0-0.3,0-0.3
			C132,27.7,131.8,27.7,131.8,27.6c0-0.1,0-0.2,0-0.3c0.2-0.2,0.4-0.4,0.6-0.7c0.4,0.4,0.1,1,0.3,1.4c0.2,0.1,0.3,0.4,0.6,0.1
			c-0.3-1.4-0.3-3-0.9-4.7c0,0.7,0,1.2-0.1,1.6c0,0.2-0.2,0.4-0.2,0.6l0,0c0-0.3,0-0.6-0.1-1c-0.3,0-0.5,0-0.7,0.1
			c-0.2,1,0.1,1.8,0.4,2.6C131.8,27.5,131.8,27.5,131.8,27.6z M122.3,18.9c-0.4,1.1-0.6,2-0.7,2.9c-0.2,1-0.4,2-0.4,3
			c0,0.9-0.4,1.9,0,2.8c1.1,0.3,2.1,0.2,3-0.3C124.2,25.1,123.2,20.5,122.3,18.9z M132.9,33.4c0.1,0,0.1,0,0.2,0
			c0.1,0.2,0.2,0.5,0.3,0.7c0.1,0.4,0,0.8,0.1,1.2c0.1,0.7,0.1,1.4,0.2,2.1c0,0.2,0.1,0.3,0.4,0.2c0.1-1,0.2-2.1,0-3.2
			c-0.1-0.9,0-1.8-0.6-2.6c0,0-0.2,0-0.2-0.1c-0.1,0.2-0.2,0.4-0.3,0.5c-0.2-0.1-0.3-0.3-0.5-0.4c-0.1,0.8,0.1,2.7,0.4,4
			c0.5-0.4,0.1-0.9,0.3-1.3C133.1,34.3,133,33.8,132.9,33.4z M131.9,23.5c-0.5-0.1-0.8,0.1-0.9,0.4c0,0.1,0,0.2,0,0.3
			c0.3,0,0.5,0,0.7,0C131.8,23.9,131.8,23.7,131.9,23.5z"/>
		<path fill="#FFFFFF" d="M209.6,8.8c-0.1-0.5-0.1-1-0.2-1.4c0.3-0.7,0.9-0.7,1.4-1c0.5-0.3,0.9-0.6,1.4-0.9c0.4,0,0.9,0,1.3,0
			c0.6,0.1,1.1-0.1,1.7-0.4c1.4-0.6,2.6-0.4,3.6,0.7c0.7,0.7,0.9,1.2,1.3,2.3c-0.6,1-0.5,2.1-0.3,3.3c0.3,2.2,0.3,4.5,0.3,6.7
			c0,2.4,0,4.8-0.1,7.1c-0.1,2.2-0.2,4.3-0.4,6.5c-0.1,1.6-0.3,3.2-0.5,4.9c-0.1,0.7-0.1,1.4,0.1,2.1c0.2,0.7-0.2,1.3-0.5,1.9
			c-0.5,0.5-1.1,0.5-1.7,0.2c-1.3,0.7-2.5,0.6-3.7,0.1c-0.9,0.3-1.7,0.2-2.6-0.1c-0.8-0.3-1.7-0.5-2.6-0.6c-1.2-0.2-2.3-0.6-3-1.8
			c0-1-0.2-2-0.9-2.9c-0.4-0.5-0.4-1.3-1.2-1.7c-0.1,1.8-0.2,3.5,0,5.2c0.1,0.8,0.3,1.5,0.5,2.4c-0.1,0.3-0.2,0.6-0.3,1
			c-0.6,0.8-1.4,0.9-2.2,0.3c-1.2,0.5-2.4,0.6-3.4-0.4c-0.5,0-1,0.2-1.4,0.1c-0.5-0.1-1-0.5-1.4-0.7c-0.3-0.1-0.5-0.3-0.8-0.5
			c-0.2-0.3-0.4-0.6-0.5-1c-0.1-1.4-0.1-2.7,0.1-4.1c0-0.3,0-0.6,0-0.9c0.1-2.4,0.2-4.8,0.2-7.2c0-1.2,0.1-2.3,0.1-3.5
			c-0.1-1.9-0.2-3.7-0.3-5.6c0-0.2-0.1-0.3-0.1-0.5c-0.1-1.4-0.2-2.7-0.3-4.1c-0.3-0.4-0.5-0.8-0.8-1.1c-0.5-0.5-0.7-1.1-0.5-1.7
			c0.1-0.7,0.3-1.4,0.6-2c0.1-0.2,0.3-0.3,0.4-0.4c0.1-0.1,0.3-0.2,0.5-0.2c1.3-0.4,2.6-0.8,4-0.5c0.1,0,0.2,0,0.4,0
			c0.1,0,0.2-0.1,0.2-0.1c0.6-0.7,1.2-0.6,1.9-0.2c0.4,0.2,0.9,0.5,1.4,0.6c1,0.3,1.3,1.2,1.9,1.9c-0.2,0.5,0.4,0.9,0.2,1.4
			c0,0.2,0.1,0.4,0.2,0.6c0.6,2.2,1.7,4.2,2.5,6.3c0.8,2.1,1.6,4.1,2.5,6.2c0.5,1.3,1.1,2.6,1.7,3.9c0.1,0.1,0.2,0.2,0.4,0.4
			c0.1-0.2,0.2-0.3,0.2-0.4c0.1-1.9,0.2-3.8,0.4-5.7c0.1-0.9,0.1-1.8,0.1-2.7c0-1.3,0-2.7,0-4c0-0.5-0.2-1.1-0.2-1.6
			c0.1-1.3-0.2-2.6-0.3-3.9C210.4,9.9,210.3,9.9,209.6,8.8z"/>
		<path fill="#FFFFFF" d="M150,1.7c1-0.7,2.1-1,3.3-1.2c0.2,0,0.5,0,0.7,0c0.5,0.1,1,0.1,1.4-0.2c0.5-0.3,1.1-0.3,1.6-0.4
			c0.3-0.1,0.8,0.1,1.1,0.3c0.5,0.3,1,0.6,1.4,0.9c0.4,0.9,0.4,1.7,0.3,2.6c-0.1,0.5-0.1,0.9,0,1.4c0.1,1,0.3,2,0.4,3
			c0.2,1.6,0.5,3.1,0.7,4.7c0.2,1.4,0.5,2.8,0.8,4.2c0.2,1,0.4,2,0.6,3c0.4,2.1,0.8,4.3,1.2,6.4c0.4,2.5,0.8,5.1,1.2,7.6
			c0.1,0.8,0.2,1.6,0.3,2.3c0,0.3,0.1,0.5,0.2,0.8c0.5,0.2,0.9,0.1,1.3,0.1c1.3-0.1,2.7-0.3,4-0.7c0.2,0,0.4-0.1,0.6-0.1
			c0.5-0.1,0.9-0.2,1.4-0.3c0.4-0.1,0.8-0.2,1.2-0.2c1,0,2,0,3.1,0c0.5,0,1,0.1,1.3,0.4c0.4,0.4,1,0.7,1.5,0.9
			c0.2,0.4,0.5,0.8,0.6,1.2c0.2,0.9,0,1.8-0.5,2.6c-0.2,0.4-0.6,0.7-1,0.7c-0.9,0.1-1.9,0.3-3,0.4c-0.4,0.3-0.9,0.8-1.3,1.1
			c-1.6,0.7-3.2,0.7-4.8,0.9c-0.6,0.1-1.2,0.2-1.7,0.4c-1.3,0.5-2.6,0.8-4,1c-0.3,0.1-0.6,0-0.9,0c-0.4,0-0.7-0.1-1,0
			c-0.7,0.1-1.4-0.2-2.1-0.3c-0.6-0.1-1.1-0.3-1.7-0.5c-0.2,0-0.3-0.1-0.5-0.1c-0.9-0.4-1.7-0.8-1.9-1.9c0.1-0.6,0.4-1.1,0.9-1.3
			c0.3-0.4,0.3-0.8,0.3-1.3c-0.2-1.4-0.4-2.9-0.6-4.3c-0.2-1.6-0.5-3.3-0.7-4.9c-0.1-0.7-0.2-1.3-0.3-2c-0.5-2.7-1-5.4-1.5-8.1
			c-0.4-2-0.8-4.1-1.2-6.1c-0.3-1.7-0.6-3.4-0.8-5.1c0-0.3,0-0.6,0-0.9c0-0.2,0-0.3-0.1-0.5c-0.5-0.9-0.5-1.9-0.7-2.8
			c-0.1-0.5-0.3-1.1-0.4-1.6C150.2,3.1,149.8,2.5,150,1.7z"/>
		<path fill="#FFFFFF" d="M240.4,20.1c0.2,0.3,0.4,0.6,0.6,0.9c-0.2,0.7-0.5,1.1-1.2,1.3c-0.8,0.2-1.7,0.5-2.5,0.6
			c-0.5,0-1.1,0.2-1.6,0.3c-1.2,0.3-2.4,0.6-3.6,0.9c-0.1,0.2-0.1,0.3-0.1,0.4c0.1,1.7,0.1,3.4,0.2,5.1c0.1,1.9,0.3,3.7,0.6,5.6
			c0.1,1,0.3,2,0.5,2.9c0.1,0.3,0.2,0.6,0.4,1c1.1,0.3,2.3,0.8,3.6,0.3c0.9,0.4,2,0.3,3,0.2c0.8,0,1.7-0.1,2.5-0.1
			c0.8,0,1.6-0.1,2.3-0.5c0.7,0.7,1.2,1.4,1.7,2.2c0.5,0,1.1,0.1,1.5,0.5c0.3,0.5,0.5,1.1,0.3,1.8c-0.1,0.4-0.3,0.7-0.7,0.7
			c-1.6,0.1-3.2,0.5-4.8,0.3c-2.2-0.2-4.5-0.3-6.7-0.4c-0.6,0-1.2,0-1.7,0.1c-0.5,0.1-1.1,0.1-1.6,0c-1-0.2-2.1-0.1-3-0.7
			c-1.1,0.1-2.1,0-3.1-0.2c-0.6-0.1-0.9-0.6-1.4-0.7c-0.4-0.5-0.5-1.1-0.6-1.7c-0.1-1-0.4-2-0.6-3.1c-0.4-2.3-0.9-4.6-1-6.9
			c-0.1-1.7-0.2-3.4-0.3-5.1c-0.1-2-0.1-3.9-0.3-5.9c-0.2-2.4-0.1-4.8-0.1-7.3c0-0.1,0-0.2-0.1-0.3c-0.4-0.6-0.8-1.2-1.2-1.8
			c0.1-0.3,0.1-0.7,0.2-0.9c0.2-0.1,0.2-0.2,0.4-0.2c0.5-0.2,1-0.5,1.5-0.7c0.8-0.3,1.6-0.5,2.4-0.7c1.2-0.2,2.4-0.6,3.6-1
			c0.6-0.2,1.1-0.6,1.7-0.9c0.4-0.1,0.9-0.1,1.3-0.3c0.4-0.1,0.9-0.3,1.3-0.5c0.5,0.1,1,0.3,1.4,0.4c0.6-0.2,1.2-0.4,1.8-0.5
			c0.2,0.1,0.4,0.3,0.6,0.4c0.4,0.2,1,0.3,1.2,0.6c0.3,0.3,0.7,0.5,1,0.7c0.3,0.2,0.6,0.5,0.6,0.9c0.1,0.3,0.1,0.6,0.2,0.8
			c-0.3,0.8-0.8,1.2-1.6,1.4c-1.4,0.3-2.7,0.8-4.1,1.1c-1,0.3-1.9,0.9-2.7,1.8c-0.3,1.6-0.1,3.3-0.2,5c0.3,0.1,0.5,0.2,0.8,0.2
			c0.3,0,0.7,0,1,0c1.2-0.1,2.3-0.2,3.5-0.3c0.2,0,0.5,0,0.7,0c0.3,0.1,0.6,0.1,1,0.2c0.1,0.3,0.2,0.6,0.3,1
			C239.5,19.6,239.9,19.8,240.4,20.1z"/>
		<path fill="#FFFFFF" d="M176.6,8.5c0.1-0.8,0.8-1.1,1.4-1.5c1-0.5,2-1.1,3.3-1.1c0.4,0,0.7-0.2,1.1-0.3c0.5-0.2,1-0.4,1.4-0.5
			c1.1,0.2,1.9,0.6,2.7,1.2c0.9,0.7,1.4,1.5,1.4,2.6c0,0.7,0.2,1.3,0.4,1.9c0.1,0.3,0.1,0.6,0,1c0,0.1,0,0.2-0.1,0.4
			c-0.7,1.6-0.5,3.3-0.3,4.9c0.3,2.3,0.6,4.5,0.9,6.8c0.3,2.6,0.5,5.1,0.8,7.7c0,0.4,0.1,0.7,0.1,1.1c0.1,0.9,0.4,1.8,1.1,2.4
			c0.5,0.4,0.5,1.1,0.5,1.7c0,1,0,2.1,0,3.1c0,0.6,0.1,1.2,0.1,2.1c0,0-0.1,0.3-0.1,0.6c-0.1,0.7-0.9,1.2-1.6,0.6
			c-0.1-0.1-0.3-0.2-0.4-0.3c-0.7,0.6-1.5,0.3-2.2,0.1c-0.4-0.1-0.7-0.3-1-0.4c-0.8,0.2-2.1,0.2-2.8,0.1c-0.9-0.2-1.5-0.9-1.6-1.8
			c-0.2-1.2-0.4-2.5-0.5-3.7c-0.2-1.3-0.4-2.6-0.5-4c-0.2-1.9-0.4-3.9-0.6-5.8c-0.3-2.4-0.5-4.7-0.8-7.1c-0.3-2.1-0.6-4.2-0.9-6.3
			c-0.1-0.5-0.2-1-0.7-1.4c-0.5-0.5-0.9-1-0.6-1.8C176.9,10.2,176.7,9.4,176.6,8.5z"/>
	</g>
	<g>
		<path fill="#FFFFFF" d="M214.6,131.4c-0.1-0.6-0.2-1.1-0.4-1.8c-1.2-0.9-1.9-2.4-3-3.7c-1.8-2.2-3-4.8-3.9-7.5
			c-0.3-1-0.7-1.9-1.1-2.9c-0.4-1-0.1-1.9,0.2-2.8c0.9,0.1,1.6,0.3,2.4,0.3c0.7,0,1.4-0.1,2.1-0.1c0.4-0.2,0.7-0.5,1-0.7
			c1.4,0.6,2.8,1,4.3,1c0.4,0,0.9,0.1,1.3,0.2c1.4,0.3,2.9,0.7,4.4,1.1c0.6,0.6,1.4,1.1,1.5,2.2c0.1,0.6,0.6,1.1,0.9,1.7
			c-0.1,0.5-0.3,1-0.4,1.4c-0.8,1-2.1,1-3.3,1.4c0.1,0.6,0.2,1.2,0.4,1.7c1.3,3,3.1,5.6,6.1,7.3c1,0.6,1.9,1.3,3,1.7
			c1.6,0.6,3.2,0.9,4.9,0.9c1.5,0,3,0,4.5-0.1c1.3-0.1,2.5-0.5,3.8-0.7c2.6-0.6,5.1-1.4,7.4-2.7c1-0.5,2-0.9,2.9-1.5
			c1.2-0.8,5.6-4,6.6-5c0.9-1,1.9-2,2.7-3c1.3-1.6,1.8-3.6,1.8-5.6c0-2.6-0.5-5.1-1.4-7.6c-0.6-1.6-1.3-3.2-2.2-4.7
			c-1.2-2-2.8-3.5-4.6-4.9c-0.9-0.7-1.8-1.5-3-1.7c-1.4-0.9-3-1.3-4.5-1.6c-1.8-0.4-3.6-0.6-5.4-0.7c-4-0.2-8,0.1-12,0.7
			c-4,0.6-7.8,1.7-11.5,3.2c-1.6,0.6-2.7,1.8-3.9,2.8c0,0-0.1,0.1-0.1,0.2c-0.3,1.5-1.6,1.6-2.8,1.9c-0.2,0.1-0.5,0.1-0.8,0
			c-1.2-0.2-2.4-0.4-3.6-0.7c-0.7-0.2-1.4-0.5-2.2-0.8c-0.9-0.4-1.8-0.7-2.7-1c-0.2-0.1-0.5,0-0.8,0.1c-0.9-0.7-1.8-1.4-2.7-2.1
			c-0.3-0.6-0.6-1.3-0.9-1.9c0-0.5,0.1-0.9,0.1-1.4c0-0.7,0.3-1.3,0.8-1.7c0.9-0.8,1.3-1.7,1.5-2.9c0.2-0.8,0.5-1.6,0.7-2.4
			c0-0.1,0.1-0.2,0.1-0.4c0.2-1.7,0.4-3.4,0.7-5.2c0.2-1.3,0.4-2.6,0.6-3.8c0.1-1,0.2-2,0.3-3.1c0.1-0.6,0-1.3,0.1-1.9
			c0.2-1.6,0.2-3.2-0.7-4.6c0.2-2.1,0.2-2.1,1-3.2c1.8,0,3.5-0.1,5.1-1.4c0.8,0.1,1.5,0.3,1.9,0.3c1.6-0.1,2.8-0.2,3.8-0.3
			c1.5,0.9,2.8,1.7,4.1,2.5c0.1-0.5,0.2-0.9,0.3-1.3c0.3,0.1,0.6,0.2,0.8,0.3c0.4,0.8,0,1.5-0.1,2.2c1.6,1.3,3.4,1.9,5.3,2.5
			c0.3-0.5,0.5-0.9,0.8-1.5c0.2,0.1,0.5,0.2,0.6,0.3c0.2,0.6-0.3,0.8-0.4,1.1c0.1,0.1,0.1,0.3,0.2,0.3c0.6,0.3,1.3,0.6,2,0.8
			c2,0.4,3.9,1.1,5.8,1.6c0.9,0.3,1.9,0.4,2.8,0.6c1.1,0.3,2.2,0.6,3.4,0.8c2.4,0.6,4.9,1,7.4,1.5c2.3,0.5,4.7,1,7,1.4
			c0.8,0.1,1.5,0.3,2.2,0.6c0.5,0.2,1,0.3,1.5,0.5c0,0.2,0.1,0.3,0.1,0.6c0.5,0.4,1,0.8,1.5,1.3c0.4,0.4,0.6,0.8,0.9,1.3
			c-0.2,0.5-0.3,1-0.5,1.4c-0.6,0.5-1.2,0.8-1.9,0.8c-1.9-0.1-3.7,0.4-5.6-0.2c-0.1,0-0.3,0-0.4,0c-1.8,0.4-3.6-0.3-5.3-0.6
			c-2.2-0.4-4.4-0.9-6.6-1.4c-2.4-0.6-4.9-1-7.3-1.8c-1.5-0.5-3.2-0.6-4.7-1c-3-0.8-6-1.6-9.1-2.5c-0.3,0.1-0.7,0.2-1.2,0.4
			c-0.1,0.2-0.3,0.3-0.3,0.5c-0.2,1.3-0.5,2.7-0.7,4c-0.2,1.6-0.5,3.2-0.7,4.8c0,0.2,0,0.5,0,0.7c0.5,0.4,1,0.3,1.5,0.3
			c2-0.3,4.1-0.7,6.1-0.8c3.9-0.3,7.7-0.6,11.6-0.4c2.3,0.1,4.5,0.4,6.7,0.7c1.5,0.2,2.9,0.6,4.3,1.1c1.7,0.5,3.5,0.7,5.3,1.3
			c2.2,0.8,4.3,1.8,6.4,2.7c1.4,0.6,2.7,1.3,4,2c3.1,1.8,5.9,4,7.9,7c0.7,1.1,1.4,2.1,2.1,3.3c1.7,2.9,2.9,6.1,3.6,9.4
			c0.7,3.1,0.9,6.3,0.1,9.4c-0.6,2.2-1.6,4.1-3.3,5.6c-3,2.8-6.2,5.4-9.9,7.5c-3.1,1.7-6.2,3.3-9.5,4.3c-1.2,0.4-2.5,0.6-3.8,0.9
			c-1.3,0.3-2.5,0.6-3.8,0.4c-0.7-0.1-1.5,0.1-2.3,0.2c-2.9,0.6-5.8,0.1-8.7-0.2c-2.5-0.3-4.7-1.2-7-2.1c-1-0.4-2-0.6-2.9-1
			c-0.5-0.2-1.1-0.4-1.6-0.7c-3.1-1.7-6-3.5-8.8-5.6c-0.1-0.1-0.2-0.1-0.4-0.2C215.2,131.1,214.9,131.3,214.6,131.4L214.6,131.4z
			 M254.9,137.2c0.1,0,0.2,0,0.4,0c0.1,0,0.1-0.1,0.1-0.2c-0.1,0-0.1,0-0.2,0C255.1,137.1,255.1,137.2,254.9,137.2
			c-0.1,0.1-0.3,0-0.5,0.1c-0.3,0-0.6,0.1-0.3,0.6C254.4,137.6,254.7,137.4,254.9,137.2z M273.6,125.2c0,0,0.1-0.1,0.1-0.1
			C273.7,125.1,273.7,125.2,273.6,125.2c-0.6,0.4-0.6,0.4-0.8,1C273.5,126.1,273.6,125.7,273.6,125.2z M270.5,128.2
			c0.2,0.2,0.5,0.4,0.7,0.5c0.4-0.3,0.6-0.6,0.3-1.1C270.9,127.5,270.7,127.8,270.5,128.2c-0.3,0.2-0.7,0.2-0.8,0.4
			c-0.6,0.8-1.4,1.3-2.3,1.6c0,0.3,0.1,0.6,0.1,0.8c0.6-0.3,1.2-0.5,1.7-0.9C269.9,129.7,270.6,129.2,270.5,128.2z M264.7,133.3
			c-0.3-0.3-0.4-0.5-0.6-0.7c-1.1,0.5-2,1.2-2.6,1.9c0,0,0.1,0.2,0.2,0.3C262.6,134.3,263.5,133.9,264.7,133.3z M259.5,135.2
			c-0.7,0.4-1.7,0.4-2.3,1.1c-0.1,0.2-0.5,0.3-0.1,0.6c0.7-0.2,1.4-0.5,2.1-0.8C259.5,136,259.8,135.7,259.5,135.2z M265.1,132.4
			c0.1-0.1,0.2-0.1,0.3-0.2c0-0.1,0-0.2-0.1-0.3c-0.1,0.1-0.3,0.1-0.4,0.2C264.9,132.3,265,132.4,265.1,132.4z M252.8,137.9
			c-0.1,0.1-0.2,0.2-0.3,0.2c0,0,0.1,0.1,0.1,0.1c0.1-0.1,0.2-0.2,0.2-0.2C252.9,138,252.8,137.9,252.8,137.9z M247.9,139
			c0.1,0,0.1,0,0.2,0.1c0-0.1-0.1-0.1-0.1-0.2C247.9,138.9,247.9,139,247.9,139z M266.6,132.1c0,0,0.1,0,0.1-0.1c0,0,0-0.1-0.1-0.1
			c-0.1,0-0.1,0.1-0.2,0.1C266.5,132,266.6,132.1,266.6,132.1z"/>
		<path fill="#FFFFFF" d="M61.2,135c-1.5-0.1-2.7-0.5-3.7-1.5c-0.7-0.7-1.4-1.1-2.3-1.4c-1.5-0.5-2.6-1.4-3.6-2.6
			c-0.6-0.7-0.9-1.4-0.6-2.3c0.4-0.9,1.1-1.4,2.1-1.5c3.2-0.3,6.3-1.3,9.3-2.6c0.2-0.1,0.4-0.1,0.5-0.2c2.9-2.1,6.3-3.6,9.1-6
			c1.2-1,2.6-1.9,3.9-2.9c2.5-1.9,4.8-4,6.9-6.2c2.3-2.4,4.4-4.9,6.4-7.5c3-3.8,5.6-7.9,8.2-12c1.3-2.1,2.4-4.5,3.5-6.7
			c0.5-0.9,0.5-1.7,0-2.7c-0.2-0.1-0.5-0.2-0.8-0.4c-1.3-1.1-2.8-1.2-4.4-1.1c-2.5,0-4.9,0.6-7.2,1.4c-4.1,1.6-8.1,3.3-11.9,5.6
			c-2.7,1.6-5.1,3.5-7.5,5.4c-1.1,0.9-2.3,1.8-3.4,2.8c-1.9,1.7-3.7,3.4-5.2,5.4c-0.6,0.7-0.9,1.7-1.3,2.6c-0.3,0.7-0.6,1.4-1.4,2.1
			c-0.5,0.1-1.2,0.3-1.8,0.5c-0.5-0.3-1.1-0.6-1.7-0.9c-1.3,0.3-2.5-0.2-3.6-1.2c-0.7-0.6-1.4-1.2-2.4-1.5c-0.7-0.2-1.5-0.9-1.9-1.5
			c-0.8-1.2-1.6-2.4-1.7-4c0.1-0.2,0.2-0.6,0.4-0.9c2.7-3.7,5.8-7.1,9.5-9.9c1.1-0.9,2.2-1.8,3.3-2.7c3.3-2.7,7-4.9,10.8-6.9
			c2.4-1.2,4.8-2.2,7.3-3.1c0.2-0.1,0.4-0.1,0.6-0.2c2-1.1,4.3-1.4,6.5-1.8c2.1-0.4,4.2-0.4,6.4-0.2c2.1,0.2,4.2,0.5,6.3,0.7
			c0.6,0.1,1.3,0.2,1.9,0.3c2.9,0.8,5.8,1.3,8.4,2.9c0.9,0.6,2,1,2.9,1.5c3.8,2.1,6.1,7.1,5.5,11.6c-0.2,1.1-0.6,2.1-1.1,3.1
			c-1.9,3.5-3.9,7-6.1,10.3c-2.3,3.3-4.6,6.6-6.9,9.8c-2,2.8-4.4,5.3-6.9,7.6c-1.5,1.5-3.1,2.9-4.7,4.3c-0.2,0.2-0.3,0.4-0.6,0.7
			c0.3,0.1,0.5,0.3,0.8,0.3c2.2,0.2,4.4,0.4,6.6,0.6c1.6,0.1,3.2-0.2,4.8-0.4c0.3,0,0.5-0.2,0.7-0.2c1.2,0.4,2.3-0.1,3.5-0.1
			c0.4,0.3,0.8,0.7,1.3,1.1c1,0.3,2,0,3.1-0.1c0.6,0.6,1.2,1.5,2.2,1.6c0.3,0.7,0.6,1.4,1.1,2.4c-0.1,1-0.3,2.4-0.5,3.7
			c-0.2,1-0.5,2-1.8,2.5c-0.2,0-0.6-0.1-1-0.2c-1-0.1-1.9-0.3-2.9-0.4c-2.5-0.2-5-0.5-7.5-0.7c-3.6-0.3-7.2-0.5-10.8-0.3
			c-2.1,0.1-4.3,0.4-6.4,0.7c-2.7,0.4-5.4,0.8-8,1.3c-1.9,0.4-3.8,0.8-5.7,1.3c-1.4,0.4-2.7,0.8-3.9,1.8c-0.6,0-1.1-0.1-1.7-0.2
			C61.7,136,61.5,135.5,61.2,135z"/>
		<path fill="#FFFFFF" d="M190.8,59.8c0.3,0,0.5,0,0.7-0.1c2-0.4,3.6,0.4,5.2,1.6c0.5,0.4,1,0.8,1.5,1.3c0.7,1.5,0.5,3.2,0.3,5
			c-0.3,0.2-0.5,0.5-0.8,0.8c-0.6,0.5-1,1.2-1.1,2c-0.6,2.7-1.2,5.3-1.8,7.9c-0.4,2-0.8,3.9-1.2,5.9c-0.4,2.2-0.8,4.3-1.1,6.5
			c-0.3,2.2-0.6,4.3-0.9,6.5c-0.4,2.5-0.6,5-1.1,7.5c-0.6,3.2-0.7,6.4-1.2,9.6c-0.2,1.4-0.4,2.8-0.5,4.2c0,0.4,0.1,0.7,0.1,1.2
			c0.5,0.1,1,0.2,1.4,0.2c3.8-0.2,7.6-0.3,11.4-0.6c1.6-0.1,3-0.1,4.6,0.3c0.7,0.2,1.4,0.2,2.2,0.3c0.5,0.6,1,1.3,1.7,2.1
			c0.7,0.3,1.5,0.7,2.5,1.1c0.1,0.3,0.3,0.7,0.4,1.1c0.3-0.1,0.4-0.3,0.7-0.4c1,0.1,0.6,1.4,1.4,1.7c-0.7,0.8-1.6,1.1-2.5,1
			c-1.6-0.2-3.2,0.2-4.8,0.3c-1.9,0.1-3.8,0.3-5.6,0.8c-1,0.3-2.1,0.4-3.2,0.5c-0.9,0.1-1.8,0-2.7,0.1c-4.6,0.4-9.1,1.2-13.6,2.1
			c-3.5,0.7-7,1.4-10.5,2c-1.8,0.3-3.6,0.5-5.4,0.8c-0.6,0.1-1.2,0.2-1.7,0.4c-0.7,0.2-1.4,0.2-2-0.4c-0.4-0.4-0.9-0.5-1.4-0.6
			c-1.3-0.4-2.8-0.7-3.2-2.5c-2.8-0.4-4.3-2.4-5.5-4.6c-0.1-0.8,0.2-1.3,0.6-2c0.6,0.1,1.2,0.3,1.8,0.2c1,0,1.9-0.2,2.9-0.3
			c1.7-0.2,3.3-0.3,5-0.5c3.3-0.5,6.5-1,9.8-1.5c0.5-0.5,0.9-1,1.3-1.4c0.4-3.3,0.8-6.5,1.1-9.7c0.3-2.8,0.7-5.6,1.1-8.5
			c0.1-1.1,0-2.2,0.6-3.2c0,0,0-0.1,0-0.2c-0.3-1.6,0.3-3.2,0.5-4.8c0.3-2.2,0.6-4.5,0.9-6.7c0-0.3,0-0.6,0-0.9
			c-0.4-0.3-0.7,0-0.9,0.2c-1.5,1.1-3.1,2.1-4.3,3.6c-0.4,0.5-0.7,0.5-2.4,0.7c-0.6-0.4-1.2-0.7-2.1-0.6c-1.1,0.1-1.3-0.1-2.7-1.4
			c-0.8-0.1-1.7-0.1-2.6-0.2c-1.7-0.2-3-1-4-2.4c-0.3-0.5-0.5-0.9-0.5-1.4c-0.1-0.7,0.2-1.3,0.7-1.7c0.2-0.2,0.4-0.4,0.6-0.4
			c1.6-0.5,2.8-1.5,4.1-2.5c2.2-1.7,4.6-3.1,6.6-5c2.4-2.3,4.9-4.5,7-7.2c0.7-1,1.6-1.9,2.5-2.7c1-1,1.8-2.1,2.3-3.3
			c0.5-1.2,1.3-1.8,2.7-1.7c0.4,0.1,1,0,1.3-0.2c1-0.7,2-0.4,3,0C190.4,59.7,190.6,59.7,190.8,59.8z"/>
		<path fill="#FFFFFF" d="M140.2,73.5c0.4-0.2,0.9-0.5,1.4-0.8c0.5,0.1,1.1,0.3,1.6,0.4c0.1,0.2,0.1,0.4,0.1,0.6
			c0.1,0,0.3,0.1,0.4,0.1c1.1-0.5,2.1-0.4,3.1,0.2c1.5,0.9,3.1,1.7,4.3,3c0.3,0.3,0.7,0.6,1.1,0.8c1.3,0.9,2.2,2.2,3,3.5
			c1.4,2.6,2.4,5.4,2.9,8.4c0.5,3.4,1,6.8,0.9,10.2c-0.2,4.1-0.7,8.2-1.9,12.2c-0.9,3.2-2.2,6.2-3.9,9c-2.3,3.8-5.3,6.9-8.9,9.3
			c-1.6,1.1-3.3,1.7-5.2,2.1c-0.8,0.2-1.5,0.2-2.3,0.4c-1.2,0.2-2.3,0-3.4-0.6c-0.8-0.4-1.5-0.8-2.5-0.9c-0.7,0-1.4-0.6-2.1-1
			c-0.9-0.5-1.8-1-2.7-1.4c-2.3-1-4.1-2.7-5.2-5c-0.1-0.1-0.1-0.2-0.1-0.4c-0.6-1.2-1.4-2.3-1.7-3.7c-0.3-1.3-0.9-2.4-1.3-3.6
			c-0.5-1.6-1.1-3.2-1-4.9c0-0.4-0.1-0.8-0.1-1.1c-0.4-3.5-0.7-6.9,0-10.4c0.1-0.3,0.1-0.5,0.1-0.8c-0.3-1.1,0.1-2.2,0.2-3.2
			c0.2-1.1,0.5-2.3,0.8-3.4c0.1-0.4,0.2-0.9,0.4-1.3c1.1-1.5,1-3.3,1.7-4.9c0.1-0.2,0.2-0.4,0.1-0.6c-0.2-1.2,0.4-2.2,0.9-3.1
			c1.1-1.7,2.2-3.3,3.7-4.7c1.7-1.6,3.8-2.4,6-3.2c0.4-0.1,0.7-0.2,1.1-0.4c1.4-0.8,2.9-1,4.5-1c0.6,0,1.1-0.2,1.7-0.2
			C138.5,73.5,139.4,73.5,140.2,73.5z M138.6,86.4c-1,0.1-2,0.2-3,0.4c-0.1,0.2-0.3,0.3-0.5,0.5c-1.3,2.1-2.5,4.3-3.3,6.6
			c-1.8,5-2.7,10.1-2.8,15.4c0,4,0.5,8,1.6,11.9c0.2,0.9,0.6,1.7,1.2,2.5c0.3-0.1,0.6-0.1,0.8-0.2c1.7-1.1,3.4-2.1,4.5-3.9
			c0.2-0.3,0.3-0.6,0.6-0.8c1-0.6,1.4-1.6,2.1-2.5c0.5-0.7,1.1-1.4,1.5-2.2c0.4-0.8,0.7-1.7,1.1-2.5c1.2-2.4,1.8-5,2.6-7.5
			c0.6-2,0.7-4.1,0.8-6.1c0.2-3.2-0.2-6.5-0.7-9.6c-0.1-0.8-0.5-1.6-0.6-2.2c-0.9-0.5-1.5-0.9-2.2-1.3c-0.8,0.5-0.9,1.6-1.7,2.4
			c-0.4,0-0.9,0.1-1.4,0.2C139,87,138.8,86.7,138.6,86.4z M155.3,103.6c0,0.3-0.1,0.4,0,0.6c0,0.1,0.2,0.2,0.2,0.2
			c0-0.1,0.1-0.2,0.1-0.3C155.6,104,155.5,103.9,155.3,103.6z M155.7,101.6c0,0,0.1,0,0.1,0c0,0,0-0.1,0-0.2c-0.1,0-0.1,0-0.2,0
			C155.7,101.5,155.7,101.6,155.7,101.6z"/>
	</g>
	<g>
		<path d="M8.7,111.9c-0.1-0.6-0.1-0.6,0.4-1.1c-0.1,0-0.2-0.1-0.3-0.1c-0.1,0-0.2,0-0.3-0.1c0-0.1-0.1-0.2-0.1-0.3
			c0-0.1,0-0.2,0-0.3c-0.4-0.1-0.5,0.1-0.6,0.4c-0.1,0.2,0,0.5-0.1,0.8c0.1,0,0.3,0,0.4,0c0,0,0,0,0,0c-0.1,0.2-0.1,0.4-0.2,0.5
			c-0.2,0.3-0.1,0.5,0,0.8c-0.5-0.2-0.5-0.2-0.5-0.9c-0.1,0-0.2,0-0.3-0.1c0.2-0.6,0.2-1.2,0.5-1.7c0,0,0.1-0.1,0.1-0.1
			c-0.1-0.9,0.4-1.6,0.8-2.3c0-0.1,0-0.2,0.1-0.2c0.1-0.4,0.2-0.9,0.4-1.3c0.3-0.5,0.2-1-0.2-1.5c-0.1,0.1-0.3,0.1-0.5,0.2
			c0.1,0.1,0.1,0.2,0.2,0.2c0.1,0,0.2,0.1,0.4,0.2c-0.4,0.1-0.7,0.1-1-0.2l0,0c0-0.2,0.1-0.4,0.1-0.6l0,0c0-0.1,0.1-0.2,0.1-0.3
			c-0.6-0.1-1.2-0.1-1.7-0.1c-0.3-0.1-0.6-0.2-1-0.3c0,0-0.1-0.1-0.1-0.2l0,0c0.4,0,0.8,0,1.2,0c0.3-0.2,0-0.5,0-0.7
			c0.5,0.1,1,0.2,1.6,0.3c-0.1,0.1-0.2,0.2-0.4,0.4c0.2,0.1,0.4,0.2,0.6,0.3c0.2-0.1,0.3-0.3,0.5-0.4c0-0.5-0.4-0.8-0.7-1.1
			c-1-1-2-2-3-2.9c-0.3-0.2-0.5-0.4-0.8-0.7c-0.5-0.6-0.4-1.2-0.1-1.9c0.1,0,0.2-0.1,0.3-0.1c1.3-0.6,1.9-0.1,2.6,0.9
			c0.4,0.6,0.8,1.2,1.3,1.8c0.2,0.3,0.5,0.6,0.8,0.8c0.1,0.1,0.2,0.1,0.4,0.2c0-0.4-0.1-0.7-0.1-1.2C9.5,99,9.6,99,9.6,99.1
			c0,0.3,0.3,0.6,0.3,0.9c0,0,0,0,0,0c0.1,0,0.2,0.1,0.3,0.2c0-0.4,0-0.6,0-0.9c0.1,0,0.2,0,0.3,0.1c0.5-0.4,0.4-0.9,0.6-1.4l0,0
			c0.1,0.6,0.3,1.1,0.4,1.7l0,0c0.2-0.3,0.3,0.2,0.5,0.1c0.4-0.3,0.3-0.9,0.4-1.3c-0.2-0.3-0.3-0.5-0.4-0.8l0,0
			c0.4-0.1,0.6-0.4,0.6-0.8c0.2-0.1,0.4-0.2,0.5,0c0.2,0.3-0.1,0.5-0.3,0.8c0.2,0,0.4,0.1,0.5,0.1c0.1,0.3,0.1,0.5-0.1,0.7
			c-0.1-0.2-0.2-0.3-0.4-0.6c0.1,0.6-0.1,1.1,0.2,1.5c0-0.2,0.1-0.3,0.1-0.5c0.1,0,0.2,0,0.4-0.1c0.1-0.3,0.2-0.7,0.2-1
			c0-0.4-0.1-0.8,0.2-1.1c0,0-0.1-0.1-0.1-0.2l0,0c0.2-0.2,0.4-0.4,0.6-0.6c-0.4-0.2-0.7-0.3-1-0.5c0.1-0.2,0.4-0.3,0.2-0.6
			c0-0.1-0.1-0.1-0.2-0.1c0,0.1,0,0.2,0,0.3c-0.2,0.1-0.5,0-0.8-0.5l0,0c0.1-0.3,0.2-0.6,0.3-0.9c0.2,0,0.5,0,0.5-0.4
			c-0.2,0.2-0.4,0.3-0.5,0.5c0-0.7,0.2-1.4,0.4-2.1c0.2-0.5,0.6-0.8,1.1-0.8c0.3,0.1,0.6,0.2,1,0.3c0.1,0.1,0.2,0.3,0.4,0.5
			c0.3,0.5,0.4,0.9,0,1.5c-0.3,0.5-0.6,1-0.8,1.6l0,0c-0.1-0.2-0.2-0.3-0.3-0.5c-0.2,0-0.4,0-0.6,0c0.2,0.3,0.3,0.6,0.5,0.8
			c-0.1,0-0.2-0.1-0.4-0.1c0,0.2,0,0.3,0,0.5c0.2-0.1,0.3-0.1,0.3-0.2c0.1-0.1,0-0.2,0.1-0.2c0.1,0,0.2,0,0.3,0.1
			c-0.1,0.8-0.3,1.3-0.7,1.6c0.2,0.6-0.1,1-0.2,1.5c-0.4,1.1-0.8,2.2-1.2,3.4c-0.1,0.3-0.2,0.5-0.3,0.8c-0.2,0.6,0,1,0.7,1.2
			c0.8,0.2,1.6,0.5,2.4,0.7l0,0c-0.1,0.6-0.1,0.6,0.5,0.9c0-0.3,0-0.5-0.1-0.8c1.9,0.4,3.6,1,5.5,0.9c0.2,0.1,0.3,0.3,0.4,0.4
			c0.5,0.3,0.6,0.7,0.7,1.2c0.1,0.6-0.1,0.7-0.7,0.6c0,0-0.1,0-0.2,0c0.1,0.1,0.2,0.3,0.3,0.4c-1.3-0.1-2.4-0.6-3.6-0.8l0,0
			c0.1-0.2,0.1-0.3-0.2-0.2l0,0c0-0.1,0-0.2,0-0.3c0.3-0.3,0.6-0.6,1-0.9c0,0,0-0.1,0-0.2c-0.3,0.1-0.6,0.3-0.9,0.4
			c-0.2,0.3-0.4,0.6-0.6,0.9c0,0-0.1,0-0.1,0c0,0,0-0.1,0-0.1c0,0,0,0,0,0.1c-0.2-0.1-0.5-0.1-0.7-0.1c-0.2-0.4-0.1-0.9-0.8-0.9
			c0.2,0.2,0.3,0.3,0.4,0.4c-0.1,0.1-0.2,0.2-0.3,0.3c0.2,0.2,0.4,0.4,0.5,0.6c0,0.2,0,0.4,0,0.6c0,0,0,0.1,0,0.1c0,0,0,0,0-0.1
			c0.2,0,0.3,0,0.5,0c0,0,0,0,0,0c0,0.1,0.1,0.1,0.2,0.3c0.1-0.1,0.2-0.2,0.2-0.2c0.4,0.1,0.6,1.2,0.3,1.8c-0.5,0.1-0.9,0.2-1.5,0.1
			c-0.3-0.1-0.5-0.2-0.7-0.5c-0.4-0.5-0.9-0.8-1.4-1.3c-0.2-0.2-0.4-0.3-0.6-0.5c-0.2-0.2-0.4-0.3-0.7-0.3c-0.3,0.3-0.6,0.6-0.9,1
			c-0.2-0.1-0.4-0.2-0.6-0.4c0.1-0.3-0.1-0.5-0.4-0.6c-0.3,0.6-0.6,1.2-0.9,1.7l0,0c0-0.1,0-0.2-0.1-0.3c0.1-0.1,0.1-0.1,0.2-0.2
			c0,0-0.1,0-0.1-0.1c0,0.1,0,0.2-0.1,0.3c-0.2-0.1-0.2-0.2-0.1-0.4c0.1-0.2,0.3-0.3,0.4-0.4c0.2-0.3,0.4-0.7,0.1-1.2
			c-0.1,0.4-0.2,0.7-0.3,1c-0.2-0.1-0.3-0.2-0.4-0.2c-0.1,0.3-0.2,0.6-0.2,0.9c-0.2-0.1-0.3-0.2-0.4-0.2c-0.1,0.1-0.1,0.1-0.2,0.2
			l0,0c-0.1,0-0.3,0-0.4-0.1l0,0c-0.1,0.1-0.1,0.1-0.2,0.2l0,0c0,0.2-0.1,0.4-0.1,0.6l0,0c-0.4,0.5-0.4,0.6-0.1,1.1
			c0.2,0.2,0.5,0.4,0.4,0.7l0,0c0,0.1,0,0.1-0.1,0.3c0.2-0.1,0.3-0.1,0.4-0.1c0,0,0,0,0,0c0.1,0.1,0.2,0.3,0.3,0.4
			c-0.1,0.3-0.1,0.6-0.3,0.8C8.9,111.7,8.8,111.8,8.7,111.9L8.7,111.9z M20.1,106.6L20.1,106.6L20.1,106.6z M12.4,101.7L12.4,101.7
			L12.4,101.7c0-0.1,0.1-0.2,0.1-0.3c0,0-0.1,0-0.1,0C12.5,101.5,12.4,101.6,12.4,101.7z M10.3,100.5c0.1,0.1,0.2,0.2,0.3,0.4
			C10.6,100.5,10.5,100.4,10.3,100.5c-0.1,0-0.1-0.1-0.2-0.1c0,0,0,0.1,0,0.1C10.2,100.5,10.3,100.5,10.3,100.5z M15.5,107.2
			c0-0.1,0.1-0.1,0.1-0.2c0,0-0.1,0-0.1,0C15.4,107.1,15.5,107.2,15.5,107.2c0,0.1,0,0.2,0,0.3c0.1,0,0.2,0,0.4,0
			C15.6,107.4,15.6,107.3,15.5,107.2z M11.9,100.6c0.1-0.1,0.2-0.2-0.1-0.3C11.8,100.4,11.9,100.5,11.9,100.6
			c-0.1,0.4-0.1,0.4,0.2,0.7C12.1,101,12,100.8,11.9,100.6z M16.5,108.4c-0.1,0.1-0.2,0.3,0,0.4C16.7,108.7,16.6,108.6,16.5,108.4
			c0.1-0.5,0.1-0.5-0.4-0.5C16.3,108.1,16.4,108.3,16.5,108.4z M9.1,106.9c0,0.1,0,0.3,0,0.4c0,0,0.1,0,0.1,0
			C9.1,107.2,9.1,107.1,9.1,106.9c0.1,0,0.3-0.1,0.5-0.2c-0.2-0.3-0.3-0.4-0.7-0.3C9,106.7,9,106.8,9.1,106.9z M11.8,107.1
			c0.7-0.4,0.7-0.4,0.5-1C12.1,106.4,11.9,106.8,11.8,107.1z M13.6,94.2c-0.2-0.1-0.3-0.2-0.5-0.4c0,0.3-0.1,0.4-0.1,0.6
			C13.2,94.4,13.3,94.3,13.6,94.2z M8.8,100c-0.1,0-0.1,0-0.2,0.1c0.1,0.1,0.1,0.3,0.2,0.4c0.1,0,0.1,0,0.2-0.1
			C8.9,100.3,8.9,100.1,8.8,100z M12.2,100.9c0.3-0.2,0.2-0.3,0.2-0.5c0,0-0.1,0-0.1-0.1C12.2,100.5,12.2,100.7,12.2,100.9z
			 M19.2,106.1c0,0-0.1,0.1-0.1,0.1c0.1,0.1,0.1,0.2,0.2,0.3c0,0,0.1-0.1,0.1-0.1C19.4,106.3,19.3,106.2,19.2,106.1z M17.7,105.5
			c0,0-0.1,0-0.1,0c0,0.1,0,0.2,0.1,0.3c0,0,0.1,0,0.1,0C17.8,105.7,17.8,105.6,17.7,105.5z M17.9,105.2c0-0.1,0-0.1,0-0.2
			c-0.1,0-0.2,0-0.4,0c0,0,0,0.1,0,0.1C17.7,105.1,17.8,105.1,17.9,105.2z M9.3,101.9C9.3,101.9,9.2,102,9.3,101.9
			c0,0.1,0.1,0.2,0.1,0.2c0,0,0-0.1,0.1-0.1C9.4,102,9.4,102,9.3,101.9z M9.4,105.9c0,0-0.1,0-0.1,0c0,0.1,0,0.1,0,0.2
			c0,0,0.1,0,0.1,0C9.3,106.1,9.3,106,9.4,105.9z M9.9,102.5C9.9,102.5,9.8,102.6,9.9,102.5c0,0.1,0.1,0.2,0.1,0.2
			c0,0,0-0.1,0.1-0.1C10,102.6,9.9,102.5,9.9,102.5z M17.8,108.8c0-0.1,0-0.1-0.1-0.2c0,0-0.1,0-0.1,0c0,0.1,0,0.1,0,0.2
			C17.6,108.9,17.7,108.8,17.8,108.8z M10.1,105.3c0,0,0,0.1,0,0.1c0,0,0.1,0,0.1-0.1c0,0,0-0.1,0-0.1
			C10.2,105.3,10.2,105.3,10.1,105.3z M8.3,101.4c0,0,0-0.1,0-0.1c0,0-0.1,0-0.1,0c0,0,0,0.1,0,0.1C8.2,101.4,8.2,101.4,8.3,101.4z
			 M17.2,105.6C17.2,105.6,17.2,105.5,17.2,105.6c0.1-0.1,0-0.1,0-0.1C17.2,105.5,17.1,105.5,17.2,105.6
			C17.1,105.5,17.1,105.6,17.2,105.6z M13.7,105.8C13.8,105.8,13.8,105.8,13.7,105.8c0.1,0,0.1,0,0.1,0
			C13.8,105.7,13.8,105.7,13.7,105.8C13.8,105.7,13.8,105.7,13.7,105.8z M21.7,107C21.7,106.9,21.7,106.9,21.7,107
			C21.7,106.9,21.6,106.9,21.7,107c-0.1-0.1-0.1-0.1-0.1,0C21.6,106.9,21.6,106.9,21.7,107z M13.5,106.2c0,0-0.1,0-0.1,0
			C13.4,106.3,13.4,106.3,13.5,106.2C13.5,106.3,13.5,106.3,13.5,106.2C13.5,106.3,13.5,106.3,13.5,106.2z M17.6,108.1
			c0,0-0.1,0-0.1,0C17.5,108.2,17.5,108.2,17.6,108.1C17.6,108.2,17.6,108.2,17.6,108.1C17.6,108.2,17.6,108.2,17.6,108.1z
			 M14,104.1C14,104,14,104,14,104.1C14,104,14,104,14,104.1C14,104,14,104,14,104.1C14,104,14,104,14,104.1z M7.7,101.3
			C7.8,101.3,7.8,101.3,7.7,101.3C7.8,101.3,7.8,101.2,7.7,101.3C7.8,101.2,7.7,101.2,7.7,101.3C7.7,101.3,7.7,101.3,7.7,101.3z
			 M11.1,105.6C11.1,105.6,11,105.6,11.1,105.6C11,105.6,11,105.6,11.1,105.6C11,105.6,11,105.6,11.1,105.6z M14.9,106.8
			C14.9,106.8,14.9,106.8,14.9,106.8c0-0.1,0-0.1,0-0.1c0,0,0,0-0.1,0C14.8,106.8,14.9,106.8,14.9,106.8z M11.1,100.2L11.1,100.2
			L11.1,100.2L11.1,100.2z M9.8,105.7C9.8,105.7,9.8,105.6,9.8,105.7C9.8,105.7,9.8,105.7,9.8,105.7C9.8,105.7,9.8,105.7,9.8,105.7
			C9.8,105.7,9.8,105.7,9.8,105.7z M9.1,101.2C9.1,101.2,9,101.3,9.1,101.2C9.1,101.3,9.1,101.3,9.1,101.2
			C9.1,101.3,9.1,101.2,9.1,101.2z M15.2,107.9C15.2,107.9,15.2,107.9,15.2,107.9C15.2,107.9,15.2,107.9,15.2,107.9
			C15.2,107.9,15.2,107.9,15.2,107.9z M15.5,106.4C15.5,106.4,15.5,106.4,15.5,106.4C15.5,106.4,15.5,106.4,15.5,106.4
			C15.5,106.4,15.5,106.4,15.5,106.4z M15.9,106.8C15.8,106.8,15.8,106.8,15.9,106.8C15.8,106.8,15.8,106.9,15.9,106.8
			C15.8,106.8,15.9,106.8,15.9,106.8z"/>
		<path d="M9.9,97.7c0.7-0.2,0.7-0.2,0.6-0.9c-0.3-0.2-0.7-0.5-1.1-0.8c0.1-0.2,0.2-0.4,0.3-0.6c-0.1-0.4-0.1-0.7-0.2-1.2
			c-0.2,0-0.4,0.1-0.5,0.1l0,0c0-0.2-0.1-0.4-0.1-0.6c0.2-0.3,0.1-0.6-0.3-0.8c0,0.3,0,0.5-0.1,0.8c0.1,0,0.2,0.1,0.3,0.1
			c-0.1,0.2-0.2,0.4-0.4,0.7c-0.1-0.3-0.2-0.5-0.2-0.7c-0.2-1.4-0.3-2.9-0.5-4.3c0-0.1,0.1-0.3,0.1-0.4c0.1,0.1,0.1,0.2,0.2,0.3
			c0,0,0.1,0,0.1,0c0-0.1-0.1-0.2-0.1-0.4l0,0C8.1,88.9,8,88.9,7.9,89c-0.1-0.3,0-0.5,0.2-0.6c0.1-0.1,0.3-0.2,0.4-0.3
			c1.4-0.1,1.4,0,1.8,1.2c0,0.5-0.1,0.9-0.1,1.4c0,1.3,0.1,2.6,0.3,3.9c0.2,1,0.3,1.9,0.5,2.9c0,0.1,0,0.2,0,0.3l0,0
			c-0.1-0.1-0.1-0.1-0.2-0.2c-0.1,0.3-0.1,0.5-0.2,0.8c-0.1-0.1-0.1-0.2-0.2-0.4c-0.1,0.2-0.2,0.4-0.2,0.5c0,0-0.1,0-0.1-0.1
			C9.9,98.1,9.9,97.9,9.9,97.7L9.9,97.7z M8.5,91.2c0.1,0.2,0.3,0.3,0.6,0.2C8.9,91.3,8.7,91.2,8.5,91.2c0-0.1-0.1-0.2-0.1-0.4
			C8.2,91.1,8.3,91.2,8.5,91.2z M10,91.7c-0.3,0-0.5,0.1-0.8,0.1c0,0.2-0.2,0.4,0,0.6c0.3-0.1,0.5-0.1,0.8-0.2
			C10,92.1,10,91.9,10,91.7z M10.2,93.3c-0.2-0.2-0.3-0.4-0.4-0.6c0,0-0.1,0-0.1,0c0,0.3,0.1,0.5,0.1,0.9
			C10,93.4,10.1,93.4,10.2,93.3z M10.5,95.9c0-0.2,0-0.4-0.3-0.5C10.1,95.9,10.1,95.9,10.5,95.9z M9.3,93.1
			c-0.1,0.3-0.1,0.5,0.2,0.7C9.6,93.5,9.5,93.4,9.3,93.1z M10,93.9C10,94,10,94,10,94c0.1,0.1,0.2,0.1,0.2,0.2c0,0,0.1-0.1,0.1-0.1
			C10.2,94.1,10.1,94,10,93.9z M8.4,92.6C8.5,92.6,8.5,92.6,8.4,92.6c0.1-0.1,0.1-0.1,0.1-0.2c-0.1,0-0.1,0-0.2,0
			C8.4,92.4,8.4,92.5,8.4,92.6z M8.6,91.9c0-0.1,0-0.1,0-0.2c-0.1,0-0.2,0-0.2,0c0,0.1,0,0.1,0,0.2C8.4,91.9,8.5,91.9,8.6,91.9z
			 M8.9,91C8.9,91,9,91,8.9,91c0.1-0.1,0-0.1,0-0.1C8.9,90.9,8.9,90.9,8.9,91C8.9,91,8.9,91,8.9,91z M8.3,89.6
			C8.3,89.6,8.3,89.6,8.3,89.6c0,0.1,0.1,0.1,0.2,0.1c0,0,0-0.1,0-0.1C8.5,89.6,8.4,89.6,8.3,89.6z M9.9,88.9c0,0,0-0.1,0-0.1
			c0,0-0.1,0-0.1,0.1C9.8,88.8,9.8,88.9,9.9,88.9C9.8,88.9,9.9,88.9,9.9,88.9z M9.6,91C9.6,91,9.7,91,9.6,91C9.7,91,9.7,91,9.6,91
			C9.6,91,9.6,91,9.6,91C9.6,91,9.6,91,9.6,91z M9.3,88.9C9.3,89,9.2,89,9.3,88.9C9.2,89,9.3,89,9.3,88.9C9.3,89,9.3,89,9.3,88.9z"
			/>
		<path d="M3,100.7c0.3,0.5,0.7,0.8,1.2,1c0.5,0.2,1,0.5,1.6,0.7c-0.2,0.3-0.5,0.6-0.7,0.9l0,0c-0.1,0-0.3,0.1-0.5,0.2
			c0-0.3,0-0.6,0.1-1c-0.2,0.1-0.3,0.2-0.3,0.3c-0.1,0.3-0.2,0.6-0.3,0.8l0,0c0.1,0.1,0.2,0.2,0.2,0.3l0,0c-1-0.2-1.8-0.7-2.6-1.3
			c0-0.2,0.1-0.3,0.1-0.5c-0.2,0.1-0.4,0.1-0.6,0.2c-0.2-0.2-0.3-0.4-0.5-0.6c-0.1-0.2-0.3-0.4-0.4-0.6c-0.1-0.2-0.2-0.4-0.2-0.6
			c-0.1-1,0.8-1.6,1.7-1.1c0.4,0.2,0.7,0.4,0.9,0.8c0.1,0.1,0.2,0.2,0.3,0.4l0,0c-0.1,0.1-0.2,0.3,0,0.4C2.9,100.8,3,100.8,3,100.7
			L3,100.7z M3.8,103.3c-0.1-0.3-0.1-0.4-0.2-0.6C3.3,103.2,3.3,103.2,3.8,103.3z M1.5,100.1C1.3,100,1.2,100,1,100.3
			C1.2,100.2,1.4,100.2,1.5,100.1z M2.7,102.8c0-0.1,0-0.1,0-0.2c-0.2,0-0.3-0.1-0.5-0.1c0,0,0,0.1,0,0.1
			C2.4,102.8,2.6,102.8,2.7,102.8z M3,101.3c0,0,0,0.1-0.1,0.1c0.1,0.1,0.2,0.1,0.4,0.2c0,0,0-0.1,0.1-0.1
			C3.3,101.5,3.1,101.4,3,101.3z M2.5,101.9C2.6,101.9,2.6,101.9,2.5,101.9C2.6,101.9,2.6,101.9,2.5,101.9
			C2.6,101.9,2.5,101.9,2.5,101.9C2.5,101.9,2.5,101.9,2.5,101.9z M5.1,102.6L5.1,102.6L5.1,102.6L5.1,102.6z"/>
		<path d="M13.7,115.9c-0.1-0.4-0.3-0.8-0.2-1.2c0.1,0.2,0.2,0.3,0.3,0.5c0.1,0,0.2-0.1,0.3-0.1c0.1,0,0.2-0.1,0.3-0.1
			c0.1-0.2,0.1-0.3,0.1-0.5c0.1,0.2,0.2,0.3,0.3,0.5c-0.1,0.1-0.2,0.2-0.2,0.3c0.5,0.2,0.5-0.1,0.7-0.3c-0.1-0.2-0.2-0.4-0.2-0.6
			c0.1-0.4-0.1-0.6-0.3-0.9c0-0.1,0-0.1,0,0c0-0.1,0,0,0,0c-0.2,0.2-0.3,0.4-0.2,0.6c0.1,0.2,0,0.3-0.1,0.4
			c-0.1-0.1-0.2-0.1-0.3-0.2c-0.2,0-0.4,0-0.6,0c0,0.1-0.1,0.2-0.1,0.3c-0.1-0.4-0.2-0.7-0.3-1.1l0,0c0.1,0,0.3,0,0.4,0
			c0,0,0.1,0,0.1,0c0,0,0,0-0.1,0c-0.1-0.1-0.2-0.2-0.3-0.2c0,0,0,0,0,0c-0.2-0.7-0.5-1.3-0.7-2c-0.1-0.3-0.2-0.6-0.3-1
			c0-0.1,0-0.3,0.1-0.4c0.4,0,0.3,0.3,0.5,0.5l0,0c-0.1,0.1-0.2,0.1-0.3,0.2c0,0,0,0.1,0,0.1c0.1,0,0.2,0,0.3,0c0,0,0,0,0,0
			c0.1,0.1,0.1,0.1,0.2,0.2c-0.1,0.1-0.2,0.1-0.3,0.2c0.3,0.1,0.4-0.1,0.3-0.2c0.1,0,0.3-0.1,0.4-0.1c0.2-0.1,0.4-0.1,0.6-0.2
			c-0.1-0.5-0.2-0.9-0.3-1.4c0.3,0.4,0.4,0.6,0.5,1.2c0,0.2,0.1,0.4,0.2,0.6c0.4,1.2,0.8,2.5,1.1,3.7c0.2,0.9,0.2,1.9,0.3,2.8
			c0,0.1,0,0.3-0.1,0.5c-0.2,0.1-0.5,0.2-0.8,0.4c-0.6-0.3-0.9-0.8-1-1.4C13.9,116.7,13.8,116.3,13.7,115.9c0.1,0,0.2,0.1,0.4,0.2
			c0-0.2,0.1-0.4,0.1-0.6c0,0-0.1,0-0.1-0.1C14,115.6,13.8,115.8,13.7,115.9z M14.6,116.2c-0.2-0.1-0.4-0.1-0.5,0.2
			c0,0.3,0,0.7,0.3,1c0,0,0,0.1,0,0.1c0,0,0-0.1,0-0.1c0.1-0.1,0.5,0.2,0.5-0.3c-0.2-0.1-0.4-0.3-0.6-0.4
			C14.4,116.5,14.5,116.4,14.6,116.2C14.6,116.2,14.7,116.3,14.6,116.2C14.7,116.3,14.6,116.2,14.6,116.2z M13.2,113.1
			c0.4-0.1,0.8-0.3,1.2-0.4c0.1,0,0.1-0.2,0.1-0.3c-0.3,0.1-0.5,0.2-0.7,0.3c0.1-0.4,0.1-0.6,0.2-0.9c0.1,0.1,0.1,0.2,0.3,0.3
			c0-0.4,0-0.7-0.4-0.9c-0.2,0.2-0.3,0.3-0.5,0.5c-0.1,0-0.3,0-0.5,0.1C13,112.1,13.1,112.5,13.2,113.1z M15.6,117.3
			c-0.7,0.1-0.9,0.4-0.7,0.9c0.1-0.1,0.2-0.2,0.3-0.3c0.1,0,0.2,0,0.4,0.1C15.6,117.7,15.6,117.5,15.6,117.3z M14.9,115.8
			c0.1,0.4,0.3,0.9,0.4,1.3C15.6,116.6,15.5,116.1,14.9,115.8z M14.1,113.8c0.5-0.2,0.1-0.5,0.4-0.8
			C13.9,113.2,13.9,113.2,14.1,113.8z"/>
		<path d="M10.1,108.8c-0.2,0.5-0.5,1-0.7,1.5l0,0c0-0.2-0.1-0.3-0.1-0.5c0.1-0.1,0.2-0.3,0.3-0.5c-0.2,0-0.4-0.1-0.7-0.1
			c0-0.1,0-0.3,0-0.4c0.1,0,0.1,0.1,0.2,0.1c0,0,0-0.1,0-0.1c-0.1,0-0.1,0-0.2,0c0-0.4-0.4-0.2-0.6-0.4l0,0c0.2-0.2,0.2-0.4,0.1-0.6
			l0,0c0.1-0.1,0.1-0.1,0.2-0.2l0,0c0.1,0,0.3,0,0.4,0.1l0,0c0.2,0.3,0.4,0.6,0.6,0.9C9.8,108.9,10,108.9,10.1,108.8L10.1,108.8z"/>
		<path d="M9.9,97.7c-0.2,0.2-0.4,0.5-0.7,0.7c-0.1-0.4-0.3-0.8-0.3-1.3c0-0.3,0.2-0.5,0.3-0.9C9.4,96.8,9.6,97.2,9.9,97.7L9.9,97.7
			z"/>
		<path d="M11.8,97.4c0.1-0.8,0.4-1.7,0.8-2.3c0,0.4,0,0.8,0,1.1C12.3,96.6,12,97,11.8,97.4L11.8,97.4z"/>
		<path d="M8.8,96.3c-0.2-0.5-0.4-0.9-0.3-1.5c0.3,0.2,0.5,0.3,0.3,0.7C8.7,95.7,8.8,96,8.8,96.3z"/>
		<path d="M12,109.3c-0.2-0.4-0.4-0.8-0.4-1.3c0.2,0,0.4,0,0.6,0.1c-0.1,0.2-0.2,0.4-0.3,0.4C12,108.8,12,109.1,12,109.3L12,109.3z"
			/>
		<path d="M11.8,97.4c0.1,0.1,0.1,0.1,0.2,0.2l0,0c-0.2,0.1-0.2,0.3-0.1,0.5c0.1,0.1,0.1,0.3,0.2,0.4c-0.2,0-0.4,0-0.6,0.1
			C11.5,98.2,11.4,97.7,11.8,97.4L11.8,97.4z"/>
		<path d="M5.2,104.2c0.4-0.3,0.9-0.1,1.4,0C6.1,104.7,5.6,104.4,5.2,104.2L5.2,104.2z"/>
		<path d="M12.8,110.6c0-0.2,0-0.5,0-0.7c0.1,0,0.3,0,0.4,0.1c-0.1,0.4,0,0.7-0.4,1l0,0C12.9,110.8,12.8,110.7,12.8,110.6
			L12.8,110.6z"/>
		<path d="M12.6,109.1c0.1-0.3,0.2-0.6,0.3-0.9c0,0,0.1,0,0.1,0c0,0.3,0.1,0.5,0.1,0.8C12.8,109.1,12.7,109.1,12.6,109.1L12.6,109.1
			z"/>
		<path d="M13.5,107.9c0.1,0.2,0.2,0.4,0.2,0.7c0,0.1-0.1,0.2-0.2,0.3C13.3,108.6,13.4,108.3,13.5,107.9L13.5,107.9z"/>
		<path d="M13.4,95.8c-0.5,0.1-0.5,0.1-0.6-0.4C13,95.5,13.2,95.6,13.4,95.8z"/>
		<path d="M13.5,107.9c-0.2-0.2-0.4-0.4-0.4-0.9C13.4,107.3,13.5,107.6,13.5,107.9L13.5,107.9z"/>
		<path d="M7.3,104.6c-0.2,0.1-0.2,0.1-0.6-0.1C6.9,104.3,7.1,104.6,7.3,104.6L7.3,104.6z"/>
		<path d="M13.6,109.3c-0.2,0.4-0.3,0.3-0.6,0.1C13.2,109.3,13.3,109.3,13.6,109.3z"/>
		<path d="M5.2,104.2c-0.3,0.1-0.5,0-0.6-0.2l0,0C4.8,103.9,5,104,5.2,104.2L5.2,104.2z"/>
		<path d="M9,94.3c0.1,0.1,0.2,0.1,0.4,0.2C9,94.6,9,94.6,9,94.3L9,94.3z"/>
		<path d="M7.8,104.2c-0.2,0.1-0.4,0.3-0.5,0.4c0,0,0,0,0,0C7.4,104.1,7.4,104.1,7.8,104.2C7.8,104.2,7.8,104.2,7.8,104.2z"/>
		<path d="M12,109.3c0.1,0.2,0.2,0.3,0.3,0.5C12,109.7,12,109.5,12,109.3L12,109.3z"/>
		<path d="M13.8,96.5c-0.1,0-0.2,0.1-0.4,0.1c0-0.1,0-0.2,0-0.3C13.6,96.4,13.7,96.5,13.8,96.5L13.8,96.5z"/>
		<path d="M10.1,97.2C10.1,97.1,10,97.1,10.1,97.2c-0.1-0.1,0-0.1,0-0.2C10.1,97,10.1,97,10.1,97.2C10.2,97.1,10.1,97.1,10.1,97.2z"
			/>
		<path d="M6.1,102.9c0,0,0,0.1,0,0.1c0,0-0.1,0-0.1,0c0,0,0-0.1,0-0.1C6,102.9,6.1,102.9,6.1,102.9z"/>
		<path d="M13.6,110.1c0,0.1,0.1,0.2,0.1,0.3C13.5,110.4,13.6,110.2,13.6,110.1L13.6,110.1z"/>
		<path d="M10.5,98.8c-0.1,0-0.1,0.1-0.2,0.1c0,0,0,0-0.1-0.1c0.1,0,0.1-0.1,0.2-0.1C10.4,98.7,10.5,98.7,10.5,98.8z"/>
		<path d="M17.2,107.4c0-0.1-0.1-0.2-0.1-0.3C17.4,107.2,17.3,107.3,17.2,107.4L17.2,107.4z"/>
		<path d="M8.7,110.2c0.1-0.1,0.2-0.2,0.3-0.4c0,0.3-0.1,0.4-0.1,0.5l0,0C8.9,110.3,8.8,110.2,8.7,110.2L8.7,110.2z"/>
		<path d="M8.5,112.2c-0.2,0.1-0.2-0.1-0.3-0.3C8.4,112,8.5,112.1,8.5,112.2C8.5,112.2,8.5,112.2,8.5,112.2z"/>
		<path d="M12.5,109.1c0,0.1,0.1,0.2,0.1,0.3c0,0-0.1,0-0.1,0C12.6,109.3,12.6,109.2,12.5,109.1L12.5,109.1z"/>
		<path d="M12.3,108.7C12.3,108.7,12.4,108.7,12.3,108.7c0.1,0,0.1,0.1,0.1,0.1c0,0,0,0-0.1,0C12.3,108.8,12.3,108.7,12.3,108.7z"/>
		<path d="M11.8,99C11.8,99,11.8,99,11.8,99c0.1,0,0.1,0,0.1,0c0,0,0,0,0,0.1C11.9,99.1,11.9,99.1,11.8,99z"/>
		<path d="M18.5,106.9c-0.1-0.1-0.1-0.1-0.2-0.2l0,0C18.4,106.8,18.5,106.8,18.5,106.9L18.5,106.9z"/>
		<path d="M11,97.6c0,0.1,0,0.2,0.1,0.3c0,0,0,0,0,0C11,97.8,11,97.7,11,97.6C11,97.6,11,97.6,11,97.6z"/>
		<path d="M13.7,110.1C13.6,110.1,13.6,110.1,13.7,110.1C13.6,110.1,13.6,110.1,13.7,110.1L13.7,110.1z"/>
		<path d="M4.3,103.9c0.1,0,0.2,0.1,0.3,0.1l0,0C4.4,104,4.4,103.9,4.3,103.9L4.3,103.9z"/>
		<path d="M9.4,110.3C9.4,110.3,9.4,110.4,9.4,110.3C9.4,110.4,9.4,110.3,9.4,110.3L9.4,110.3z"/>
		<path d="M2.8,100.5c0.1,0.1,0.1,0.1,0.2,0.2c0,0,0,0,0,0C3,100.6,2.9,100.6,2.8,100.5C2.8,100.5,2.8,100.5,2.8,100.5z"/>
		<path d="M8.1,111.2L8.1,111.2L8.1,111.2z"/>
		<path d="M8.7,111.9c0,0.1,0,0.1,0,0.2l0,0C8.7,112,8.7,112,8.7,111.9L8.7,111.9z"/>
		<path d="M8.5,112.2c0,0,0.1-0.1,0.1-0.1c0,0,0,0,0,0C8.6,112.1,8.6,112.1,8.5,112.2C8.5,112.2,8.5,112.2,8.5,112.2z"/>
		<path d="M12.7,94.5L12.7,94.5L12.7,94.5z"/>
		<path d="M15.6,104.1L15.6,104.1L15.6,104.1z"/>
		<path d="M10.2,108.4c0,0.1,0,0.1,0,0.2l0,0C10.2,108.5,10.2,108.5,10.2,108.4L10.2,108.4z"/>
		<path d="M10.2,108.6c0,0.1,0,0.1,0,0.2l0,0C10.1,108.7,10.2,108.7,10.2,108.6L10.2,108.6z"/>
		<path d="M13.2,113.7c0-0.1,0-0.1,0-0.2l0,0C13.2,113.5,13.2,113.6,13.2,113.7L13.2,113.7z"/>
		<polygon points="15,94.6 15,94.6 15,94.6 		"/>
		<path d="M7.8,104.8L7.8,104.8L7.8,104.8z"/>
		<path d="M13.5,112.1C13.5,112.1,13.5,112.1,13.5,112.1C13.5,112.1,13.5,112.1,13.5,112.1C13.4,112.1,13.4,112.1,13.5,112.1
			C13.4,112.1,13.5,112.1,13.5,112.1z"/>
	</g>
	<g>
		<path d="M306.3,102.8c0,0.1,0.1,0.1,0.1,0.2c-0.1,0.1-0.2,0.2-0.3,0.3c0.2,0,0.3,0,0.4,0.1c0,0.1,0,0.1,0,0.2c0,0-0.1,0.1-0.1,0.1
			l0,0c0,0,0.1-0.1,0.1-0.1c0.1,0.3,0.3,0.7,0.3,1c0,0.2,0,0.4,0,0.6c-0.2,0-0.4,0-0.6,0.1c-0.1-0.1-0.1-0.2-0.2-0.3
			c0.2-0.1,0.3-0.1,0.5-0.2c-0.2-0.1-0.4-0.2-0.6-0.3c0.1-0.1,0.2-0.1,0.2-0.2l0,0c-0.1-0.2-0.2-0.4-0.5-0.4
			c-0.1,0.1-0.1,0.3-0.2,0.4c0.1,0.1,0.1,0.1,0.2,0.2c-0.2,0.2-0.2,0.2-0.1,0.5c0.1,0,0.3,0,0.4-0.1c-0.1,0.1-0.2,0.2-0.3,0.3
			c0,0.2,0,0.4,0,0.6l0,0c-0.2-0.6-0.4-1.1-0.6-1.7c-0.1-0.3-0.1-0.6-0.3-0.8c-0.1-0.2-0.3-0.4-0.5-0.6c-0.2,0.1-0.4,0.2-0.3,0.5
			c0.1,0,0.3-0.1,0.4-0.1c0,0,0,0.1,0,0.1c-0.1,0.4-0.3,0.7-0.4,1.1c-0.2,0.5-0.3,1-0.5,1.5c-0.3,0.7-0.6,1.3-0.8,2
			c-0.1,0.3-0.3,0.5-0.7,0.5c-0.2,0.4-0.3,0.8-0.5,1.3c-0.2,0.8-0.5,1.5-0.6,2.3c0,0.4-0.2,0.7-0.4,1.1c-0.1,0.3-0.3,0.4-0.6,0.3
			c0-0.1-0.1-0.2-0.1-0.4c-0.4,0.3-0.5,0.3-0.8-0.1c-0.4-0.4-0.4-0.8-0.2-1.3c0.5-1.4,1-2.8,1.5-4.2c0.1-0.2,0.2-0.5,0.3-0.7
			c0.1-0.2,0.1-0.3,0.2-0.6c0.1,0,0.1,0,0.2,0.1c0.1-0.1,0.1-0.2,0.2-0.3c-0.1,0-0.2-0.1-0.4-0.1c0.2-0.4,0.3-0.8,0.5-1.2
			c0.2,0,0.4-0.1,0.6-0.1c0,0,0-0.1,0-0.1c-0.1,0-0.3-0.1-0.4-0.1c-0.1-0.6-0.1-0.6,0.7-0.8c0.1-0.2,0.2-0.5,0.3-0.8
			c-0.3,0.2-0.5,0.3-0.7,0.5c-0.1-0.6,0.2-1.3,0.8-1.6c-0.2,0-0.4,0-0.6-0.1c0-0.3-0.1-0.6-0.1-0.9c0,0-0.1,0-0.1,0
			c-0.1,0.1-0.2,0.3-0.3,0.5c-0.1-0.1-0.2-0.2-0.2-0.4c0,0-0.1,0.1-0.1,0.1c0,0.1,0.1,0.3,0.1,0.4c0,0.1,0.1,0.2,0.2,0.3l0,0
			c0,0-0.1,0.1-0.1,0.1l0,0c-0.2,0-0.3,0-0.5,0c0-0.1,0-0.2,0.1-0.2c-0.1-0.3-0.4-0.4-0.7-0.4l0,0c0.2-0.4,0.6-0.6,0.9-0.9
			c0.2-0.2,0.4-0.3,0.5-0.6c-0.3,0-0.5,0-0.7,0c0-0.2,0-0.3,0.1-0.5c-0.2,0.2-0.3,0.2-0.4,0.3c-0.1-0.1-0.2-0.1-0.4-0.2
			c-0.4-0.2-0.8-0.4-1.2-0.5c-0.6-0.3-1-0.8-0.9-1.5c0,0,0,0,0,0c0.1,0,0.1,0,0.2,0.1c0-0.1,0-0.1,0-0.2c-0.1-0.5,0.2-0.8,0.7-0.7
			c0.4,0.1,0.9,0.2,1.2,0.6c0.1,0.2,0.2,0.3,0.4,0.4c0.1,0,0.2,0.2,0.3,0.3c-0.1,0.1-0.1,0.1-0.2,0.2c0,0,0,0,0.1,0
			c0-0.1,0.1-0.1,0.1-0.2c0.4,0.2,0.9,0.4,1.3,0.6c0.2,0.1,0.4,0.2,0.6,0c-0.2-0.6-0.4-1.2-0.6-1.9c0.2,0,0.2,0,0.4,0.1
			c0-0.1,0-0.2,0-0.4c-0.1,0-0.3-0.1-0.4-0.1c0,0-0.1-0.1-0.1-0.1c-0.1-0.2-0.2-0.5-0.3-0.7c-0.1-0.4-0.3-0.8-0.4-1.2
			c-0.3-0.8-0.5-1.6-0.8-2.4c-0.2-0.4-0.4-0.8-0.7-1.2c-0.2-0.3-0.2-0.4,0-0.7c0.1,0.4,0.1,0.4,0.4,0.3c-0.1-0.1-0.2-0.2-0.3-0.3
			l0,0c0,0-0.1,0-0.1,0c0.1-0.1,0.1-0.3,0.2-0.4c0.1-0.1,0.2-0.2,0.3-0.3c0.1,0,0.3,0.1,0.4,0.1c0,0.1,0,0.3,0,0.4
			c0.2-0.1,0.3-0.2,0.4-0.3c0.3,0.3,0.5,0.6,0.5,1c0,0.2,0.1,0.4,0.2,0.6c0.3,0.9,0.6,1.7,0.9,2.6c0.1,0.4,0.2,0.8,0.3,1.2
			c-0.1,0-0.2,0-0.2,0c0,0,0,0.1,0,0.1c0.1,0,0.1-0.1,0.2-0.1c0.1,0.2,0.2,0.5,0.3,0.7c-0.2,0.9-0.2,0.9,0,1.2c0-0.3,0-0.5,0.1-0.7
			c0,0,0.1,0,0.1,0c0,0.2,0.1,0.3,0.1,0.5c0.2,0.1,0.4,0.1,0.6,0.2c-0.1-0.2-0.1-0.3-0.1-0.4c0-0.2-0.1-0.3,0-0.5
			c0.4-1.1,0.7-2.2,1.1-3.3c0.1-0.3,0.3-0.6,0.7-0.6c0,0-0.1-0.1-0.1-0.1c-0.1,0-0.2-0.1-0.3-0.1c0-0.1,0-0.3,0.1-0.4
			c0.2-0.8,0.5-1.6,0.7-2.4c0.4-1.3,1-2.5,1.5-3.7c0.1-0.4,0.3-0.8,0.5-1.2c0.3-0.6,0.4-0.8,1.1-0.8l0,0c0.2-0.3,0.3-0.3,0.5-0.1
			c0.2,0.2,0.5,0.4,0.7,0.6c0.1,0.1,0.1,0.3,0.2,0.5c0,0.1-0.1,0.3-0.1,0.4c-0.1,0.2-0.2,0.4-0.3,0.6c-0.1,0.3-0.3,0.5-0.5,0.8
			c-0.2,0.3-0.4,0.7-0.5,1c-0.2,0.7-0.6,1.2-0.8,1.9c-0.1,0.4-0.3,0.7-0.4,1.1c0.2,0.1,0.3,0.2,0.4,0.2c0.1,0.4,0.1,0.8-0.2,1.2
			c-0.3,0.4-0.5,0.8-0.7,1.2c-0.4,0.9-0.8,1.9-1.2,2.9c0,0.1,0,0.2-0.1,0.3c0.1,0,0.2,0,0.4,0l0,0c-0.1,0.1-0.1,0.2-0.2,0.2
			c-0.3,0.1-0.3,0.3-0.2,0.5c0.2,0,0.3,0.1,0.5,0.1c-0.1,0.1-0.2,0.2-0.3,0.3c0,0.2,0,0.4,0,0.7c-0.1,0-0.2,0.1-0.4,0.1
			c0.1,0.1,0.2,0.2,0.3,0.3l0,0c-0.2,0-0.3,0.1-0.5,0.2c-0.1,0-0.1,0.1-0.3,0.3c0.2,0,0.3-0.1,0.4-0.1c0,0,0,0.1,0,0.1
			c-0.1,0.1-0.3,0.3-0.4,0.4c-0.1,0.2-0.2,0.4-0.1,0.7c0.4,0.1,0.8,0.3,1.3,0.5c-0.1,0.2-0.3,0.4-0.4,0.6c0.2,0.1,0.5,0.3,0.8,0.4
			c-0.1-0.3-0.1-0.4-0.2-0.6c0-0.1,0.1-0.2,0.2-0.2c0.2-0.1,0.4,0,0.6,0.4c-0.1,0.3-0.2,0.6-0.5,0.9c-0.1-0.1-0.2-0.3-0.3-0.4
			c0,0-0.1,0-0.1,0c0,0.1,0.1,0.3,0.1,0.5c0.4,0.1,0.7,0.3,1.1-0.1c0,0,0.1,0,0.2-0.1c0.1,0,0.1,0,0.2-0.1c-0.2-0.3-0.4-0.6-0.1-0.9
			c0.2,0.2,0.4,0.4,0.7,0.6c0,0,0.1,0,0.1-0.1c0-0.1,0-0.1,0-0.2c0,0,0-0.1,0-0.2c0.3,0.1,0.6,0.1,0.9,0.2c0.6,0.1,1.2,0.3,1.7,0.4
			c0.1,0,0.3,0,0.4,0c0.7-0.1,1.3,0.1,1.7,0.7c0.2,0.4,0.1,0.8-0.1,1.2c-0.1,0.3-0.5,0.4-0.8,0.3c-0.5,0-0.9-0.2-1.5-0.6
			c0.1,0,0.2-0.1,0.3-0.1c0-0.1-0.2-0.2-0.6-0.1l0,0c0,0.1,0,0.2,0,0.4c-1.9-0.6-3.8-1-5.8-1.5C305.9,101.7,306.2,102.2,306.3,102.8
			C306.3,102.8,306.3,102.8,306.3,102.8C306.3,102.8,306.3,102.8,306.3,102.8z M312.2,101.8L312.2,101.8L312.2,101.8z M306.1,97.4
			C306.1,97.4,306.1,97.4,306.1,97.4C306.2,97.4,306.2,97.4,306.1,97.4C306.2,97.4,306.2,97.4,306.1,97.4z M302.9,93.1
			C303,93.1,303,93.1,302.9,93.1C303,93.1,303,93.1,302.9,93.1c0,0-0.1,0-0.1,0.1c0,0,0,0,0,0.1C302.8,93.1,302.9,93.1,302.9,93.1z
			 M302,93.8L302,93.8c0.1-0.1,0.1-0.1,0.2-0.2c0,0,0,0-0.1,0C302.1,93.6,302.1,93.7,302,93.8z M303.3,94.9c0.1,0,0.1,0,0.2,0
			c0,0,0-0.1,0-0.1C303.4,94.8,303.4,94.8,303.3,94.9c-0.2,0.1-0.3,0.2-0.1,0.4c0,0.1,0.2,0,0.3,0C303.4,95.1,303.4,95,303.3,94.9z
			 M301.9,92.6c0,0.1,0.1,0.1,0.2,0.2c0.2-0.3,0.3-0.5,0.5-0.8c-0.2,0-0.4,0-0.5-0.1c0,0.1,0,0.2,0,0.3c-0.2,0-0.4,0.1-0.5,0.1
			C301.5,92.8,301.8,92.6,301.9,92.6L301.9,92.6z M305.2,102c-0.1,0.2-0.3,0.4-0.4,0.7c0.1,0.1,0.2,0.1,0.3,0.2
			c0.2-0.2,0.4-0.3,0.5-0.5c0.1-0.1,0.2-0.2,0.3-0.4c0,0,0-0.1-0.1-0.1c-0.1,0.1-0.2,0.2-0.3,0.3C305.3,102.1,305.3,102.1,305.2,102
			z M302.8,94.3c-0.1-0.3-0.3-0.3-0.4-0.2c-0.2,0.1-0.2,0.3-0.1,0.5c0.1,0.3,0.3,0.4,0.6,0.4c0.1-0.3-0.3-0.3-0.4-0.6
			C302.5,94.4,302.6,94.3,302.8,94.3z M301.3,91.6c0.2-0.2,0.3-0.3,0.5-0.5c-0.2-0.1-0.3-0.1-0.5-0.2
			C301.1,91.2,301.1,91.4,301.3,91.6z M310.3,101.9c-0.1-0.2-0.1-0.3-0.2-0.5c-0.2,0.1-0.4,0.2-0.6,0.3
			C309.8,101.8,310,101.9,310.3,101.9z M310.1,100.5c0.6,0.4,0.6,0.4,0.8,0.2C310.6,100.5,310.6,100.5,310.1,100.5z M301.5,97.7
			c0,0.1-0.1,0.1-0.1,0.2c0.2,0.3,0.5,0.2,0.8,0.1C302,97.9,301.7,97.8,301.5,97.7z M301.5,104.5c-0.2,0.3-0.1,0.5,0.1,0.8
			C301.8,105,301.8,104.8,301.5,104.5z M311.9,100.9c-0.5,0.2-0.5,0.2-0.6,0.5c0.2-0.1,0.3-0.2,0.4-0.3c0.1,0,0.2,0.1,0.3,0.2
			C312,101.1,312,101,311.9,100.9z M305.7,103.5c-0.1-0.2-0.3-0.3-0.4-0.5c-0.1,0.3-0.1,0.3,0.2,0.6
			C305.5,103.6,305.6,103.6,305.7,103.5z M300.8,106.7c-0.1,0.2-0.2,0.4-0.2,0.5C300.8,107.1,301,106.9,300.8,106.7z M299.2,96.6
			c-0.2,0.1-0.3,0.3-0.2,0.5C299.1,96.9,299.2,96.7,299.2,96.6z M301.6,99.8c0,0.4,0.1,0.4,0.4,0.2C301.9,100,301.8,99.9,301.6,99.8
			z M303.3,100.9c-0.3,0.2-0.3,0.2,0,0.5C303.2,101.2,303.2,101.1,303.3,100.9z M300.6,110.7c0,0,0,0.1,0.1,0.1
			c0.1-0.1,0.3-0.1,0.4-0.2c0,0,0-0.1,0-0.1C300.8,110.6,300.7,110.6,300.6,110.7z M301.8,93.2c0.3,0.1,0.4,0,0.4-0.3
			C302,93,301.9,93.1,301.8,93.2z M306.8,101c0.1-0.1,0.2-0.2,0-0.4C306.8,100.8,306.8,100.9,306.8,101z M306.6,99.8
			C306.6,99.8,306.6,99.9,306.6,99.8c0.1,0.1,0.2,0.1,0.3,0c0,0,0-0.1,0-0.1C306.8,99.8,306.7,99.8,306.6,99.8z M301.1,100.6
			c0.1,0,0.1-0.1,0.1-0.1c0,0,0-0.1,0-0.1c0,0-0.1,0-0.1,0C301,100.5,301.1,100.5,301.1,100.6z M301.2,108.5c0.1,0,0.1-0.1,0.1-0.1
			c0,0,0-0.1,0-0.1c0,0-0.1,0-0.1,0C301.1,108.4,301.2,108.4,301.2,108.5z M302.5,101.9C302.5,101.9,302.5,101.9,302.5,101.9
			c-0.1,0.1-0.1,0.1-0.1,0.2c0,0,0.1,0,0.1,0C302.6,102,302.6,101.9,302.5,101.9z M312.2,101.3C312.3,101.3,312.3,101.2,312.2,101.3
			c0.1-0.1,0.1-0.1,0.1-0.2c0,0-0.1,0-0.1,0C312.2,101.1,312.2,101.2,312.2,101.3z M303.9,104.5c-0.1,0-0.1,0.1-0.1,0.1
			c0,0,0,0.1,0,0.1C303.9,104.6,303.9,104.6,303.9,104.5z M310.3,100.9c0,0-0.1,0-0.1,0c0,0.1,0,0.1,0.1,0.2c0,0,0,0,0.1,0
			C310.3,101,310.3,101,310.3,100.9z M301.5,92c0,0,0,0.1,0,0.1c0,0,0.1,0,0.1,0c0,0,0-0.1,0-0.1C301.6,92,301.5,92,301.5,92z
			 M302.8,93.7c0,0,0.1-0.1,0.1-0.1c0,0,0,0-0.1-0.1C302.8,93.6,302.7,93.6,302.8,93.7C302.7,93.6,302.7,93.7,302.8,93.7z
			 M301,107.4C301,107.4,300.9,107.4,301,107.4c-0.1,0.1,0,0.1,0,0.2c0,0,0,0,0.1,0C301.1,107.5,301,107.4,301,107.4z M310.8,102
			C310.8,102,310.8,102,310.8,102c-0.1-0.1-0.1-0.1-0.2-0.1c0,0,0,0,0,0.1C310.7,102,310.8,102,310.8,102z M305.7,98.7
			C305.7,98.7,305.7,98.7,305.7,98.7C305.7,98.6,305.7,98.7,305.7,98.7C305.7,98.7,305.7,98.7,305.7,98.7
			C305.7,98.7,305.7,98.7,305.7,98.7z M303.5,96.6C303.6,96.6,303.6,96.6,303.5,96.6c0.1-0.1,0-0.1,0-0.1
			C303.5,96.5,303.5,96.5,303.5,96.6C303.5,96.6,303.5,96.6,303.5,96.6z M305.3,93.8C305.3,93.8,305.3,93.8,305.3,93.8
			c0.1,0,0.1-0.1,0.1-0.1c0,0,0,0-0.1,0C305.3,93.7,305.3,93.8,305.3,93.8z M300.6,107.7C300.6,107.6,300.6,107.6,300.6,107.7
			C300.5,107.6,300.5,107.6,300.6,107.7C300.5,107.6,300.5,107.7,300.6,107.7C300.5,107.7,300.6,107.7,300.6,107.7z M312.6,101.2
			C312.7,101.2,312.7,101.2,312.6,101.2C312.7,101.1,312.7,101.1,312.6,101.2C312.7,101.1,312.6,101.1,312.6,101.2
			C312.6,101.1,312.6,101.1,312.6,101.2z M312.7,101.9C312.7,101.9,312.7,101.9,312.7,101.9C312.7,101.9,312.6,101.9,312.7,101.9
			C312.6,101.9,312.7,101.9,312.7,101.9C312.7,101.9,312.7,101.9,312.7,101.9z M302.6,92.8C302.6,92.8,302.6,92.8,302.6,92.8
			C302.6,92.8,302.6,92.8,302.6,92.8C302.7,92.8,302.7,92.8,302.6,92.8C302.7,92.8,302.7,92.8,302.6,92.8z M298.9,112.2
			C298.9,112.2,299,112.2,298.9,112.2C299,112.2,298.9,112.2,298.9,112.2C298.9,112.2,298.9,112.2,298.9,112.2
			C298.9,112.2,298.9,112.2,298.9,112.2z M300,97.9C300,97.9,300,97.9,300,97.9C300,97.8,300,97.8,300,97.9
			C300,97.8,299.9,97.8,300,97.9C299.9,97.9,300,97.9,300,97.9z M307.4,93.5C307.4,93.5,307.4,93.6,307.4,93.5
			C307.4,93.6,307.4,93.6,307.4,93.5C307.4,93.6,307.4,93.6,307.4,93.5C307.5,93.5,307.4,93.5,307.4,93.5z M306.1,99.5
			C306.1,99.5,306.1,99.5,306.1,99.5C306.1,99.5,306.1,99.4,306.1,99.5C306.1,99.4,306.1,99.4,306.1,99.5
			C306.1,99.5,306.1,99.5,306.1,99.5z M304.8,95.4C304.7,95.3,304.7,95.3,304.8,95.4C304.7,95.3,304.7,95.4,304.8,95.4
			C304.7,95.4,304.7,95.4,304.8,95.4z M301.5,108.1C301.5,108.1,301.5,108.1,301.5,108.1C301.5,108.1,301.5,108.1,301.5,108.1
			C301.6,108.1,301.6,108.1,301.5,108.1C301.5,108.1,301.5,108.1,301.5,108.1z M301.3,109.3C301.3,109.3,301.3,109.3,301.3,109.3
			C301.3,109.3,301.3,109.3,301.3,109.3C301.3,109.3,301.3,109.3,301.3,109.3z M299.4,112.9C299.5,112.8,299.5,112.8,299.4,112.9
			C299.5,112.8,299.4,112.8,299.4,112.9C299.4,112.8,299.4,112.8,299.4,112.9z M299.3,111.9C299.3,111.9,299.3,112,299.3,111.9
			C299.3,112,299.3,112,299.3,111.9C299.3,111.9,299.3,111.9,299.3,111.9C299.3,111.9,299.3,111.9,299.3,111.9z M306.9,94.9
			C306.9,94.9,306.9,94.9,306.9,94.9C306.9,94.9,306.9,94.9,306.9,94.9C306.8,94.9,306.8,94.9,306.9,94.9
			C306.8,94.9,306.8,94.9,306.9,94.9z M308,87.8C308.1,87.8,308.1,87.8,308,87.8C308.1,87.8,308.1,87.8,308,87.8
			C308.1,87.8,308.1,87.8,308,87.8z M303.1,96.4C303.1,96.4,303.1,96.4,303.1,96.4C303.1,96.4,303.1,96.4,303.1,96.4
			C303.1,96.4,303.1,96.4,303.1,96.4C303.1,96.4,303.1,96.4,303.1,96.4z M301.4,105.4C301.4,105.4,301.3,105.4,301.4,105.4
			C301.3,105.4,301.3,105.4,301.4,105.4C301.3,105.5,301.4,105.5,301.4,105.4C301.4,105.5,301.4,105.4,301.4,105.4z M299.8,112.6
			C299.7,112.5,299.7,112.5,299.8,112.6C299.7,112.5,299.7,112.5,299.8,112.6C299.7,112.5,299.7,112.6,299.8,112.6z M304,97.2
			C304,97.2,304,97.2,304,97.2C304,97.1,304,97.1,304,97.2C304,97.1,304,97.1,304,97.2C303.9,97.1,304,97.1,304,97.2z M301.3,108.8
			C301.4,108.8,301.4,108.8,301.3,108.8C301.4,108.8,301.4,108.8,301.3,108.8C301.4,108.8,301.4,108.8,301.3,108.8z M299.3,96.2
			C299.3,96.2,299.3,96.2,299.3,96.2C299.3,96.2,299.3,96.2,299.3,96.2C299.3,96.2,299.3,96.2,299.3,96.2
			C299.3,96.2,299.3,96.2,299.3,96.2z M307.9,100.1C307.9,100,307.9,100,307.9,100.1C307.9,100,307.9,100,307.9,100.1
			C307.9,100,307.9,100,307.9,100.1z M312.8,102.6L312.8,102.6L312.8,102.6L312.8,102.6z M312.7,102.3
			C312.7,102.3,312.7,102.3,312.7,102.3C312.7,102.3,312.7,102.3,312.7,102.3C312.7,102.3,312.7,102.3,312.7,102.3z M307.9,92.7
			C307.9,92.7,307.8,92.7,307.9,92.7C307.8,92.7,307.8,92.7,307.9,92.7C307.9,92.7,307.9,92.7,307.9,92.7z"/>
		<path d="M306.3,106.1c0-0.2-0.1-0.3-0.1-0.4c0.2-0.4,0.6-0.3,1-0.4c0.3,0.9,0.6,1.8,0.9,2.8c0.4,1.1,0.7,2.2,1.1,3.3
			c0.1,0.3,0.3,0.6,0.4,0.8c0.4,0.7,0.4,1.1-0.1,1.9c-0.3,0-0.6,0-0.9,0c-0.1-0.2-0.1-0.3-0.2-0.5c-0.1,0-0.2,0-0.4,0
			c-0.3-1.1-0.6-2.2-0.9-3.3c0.3-0.2,0.6-0.3,0.4-0.7c-0.3,0-0.2,0.4-0.5,0.5c-0.1-0.4-0.3-0.8-0.4-1.2c0-0.1,0-0.2-0.1-0.3
			c-0.3-0.3-0.3-0.7-0.3-1.1c0,0,0,0,0,0c0,0,0,0,0,0.1c-0.2-0.5-0.4-1.1-0.5-1.6l0,0C306,105.9,306.1,106,306.3,106.1
			C306.3,106.1,306.3,106.1,306.3,106.1z M308,109.1L308,109.1C307.9,109.1,307.9,109.2,308,109.1
			C307.9,109.2,307.9,109.1,308,109.1z M308.1,110.4c0.1-0.1,0.1-0.2-0.1-0.2C308.1,110.3,308.1,110.4,308.1,110.4
			c-0.4,0.1-0.4,0.1-0.3,0.6C308,110.8,308.1,110.6,308.1,110.4z M307.5,108.2c0,0,0.1,0,0.1,0.1c0.1-0.1,0.1-0.2,0.2-0.4
			c0,0-0.1,0-0.1,0C307.7,108,307.6,108.1,307.5,108.2z M306.7,107.8C306.7,107.8,306.7,107.8,306.7,107.8c0.2,0.1,0.3,0,0.2-0.2
			C306.8,107.6,306.7,107.7,306.7,107.8z M307.1,105.9C307.1,105.9,307,105.9,307.1,105.9c-0.1,0.1-0.1,0.2-0.1,0.4c0,0,0,0,0.1,0
			C307,106.2,307.1,106.1,307.1,105.9z M308,111.2C308,111.2,308,111.2,308,111.2c-0.1,0.1-0.1,0.2-0.1,0.3c0.1-0.1,0.1-0.1,0.1-0.1
			C308.1,111.3,308.1,111.2,308,111.2z M307.3,107.7C307.2,107.7,307.2,107.7,307.3,107.7c-0.1,0.1-0.1,0.1-0.1,0.2
			c0,0,0,0.1,0.1,0.1c0,0,0,0,0.1,0C307.3,107.9,307.3,107.8,307.3,107.7z M307.5,109.2c0,0,0.1,0,0.1,0c0-0.1,0-0.1,0-0.2
			c0,0,0,0-0.1,0C307.5,109.1,307.5,109.2,307.5,109.2z M307,107.1C307,107.1,307,107.1,307,107.1
			C306.9,107.1,306.9,107.1,307,107.1C307,107.1,307,107.1,307,107.1z M306.8,106.7C306.8,106.7,306.8,106.7,306.8,106.7
			C306.8,106.8,306.8,106.8,306.8,106.7C306.8,106.8,306.8,106.8,306.8,106.7C306.8,106.7,306.8,106.7,306.8,106.7z M307.9,109.8
			C307.9,109.8,307.9,109.8,307.9,109.8C307.9,109.9,308,109.9,307.9,109.8C308,109.8,308,109.8,307.9,109.8
			C308,109.8,307.9,109.8,307.9,109.8z M308.3,109.6C308.3,109.6,308.3,109.6,308.3,109.6C308.3,109.6,308.3,109.6,308.3,109.6
			C308.3,109.6,308.3,109.6,308.3,109.6z"/>
		<path d="M309,94.7c0.3,0,0.4-0.2,0.5-0.5c0.3-0.2,0.5,0,0.7,0.2c0-0.4-0.1-0.7-0.1-1l0,0c0.5-0.3,1-0.7,1.6-1
			c0.5-0.3,1-0.5,1.5-0.8c0.3-0.1,0.6-0.2,0.9-0.4c0,0,0.1,0,0.1,0c0.1,0.1,0.2,0.2,0.4,0.4c0.1-0.1,0.2-0.2,0.4-0.3
			c-0.2-0.1-0.3-0.2-0.4-0.3c0.4-0.2,0.8-0.4,1.2-0.6c0.5-0.2,0.9-0.1,1.2,0.3c0.1,0.2,0.2,0.4,0.3,0.6c0.1,0.3,0.1,0.4-0.1,1
			c-0.3,0.2-0.6,0.3-1,0.3c-0.4,0.1-0.8,0.2-1.3,0.4c-0.6-0.6-1-0.1-1.5,0.3c-0.1-0.1-0.2-0.2-0.3-0.3c-0.6,0.8-0.6,0.8-0.9,0.7
			c0.1-0.4,0.7-0.4,0.6-0.9c-0.1,0-0.2-0.1-0.3-0.2c0-0.1,0.1-0.2,0.1-0.3c-0.2,0.1-0.3,0.2-0.1,0.3c-0.2,0.4-0.2,0.4-0.6,0.6
			c0-0.1-0.1-0.3-0.1-0.4c-0.4-0.1-0.4-0.1-0.6,0.3c0.1,0.1,0.1,0.1,0.2,0.3c-0.1,0-0.2,0.1-0.3,0.1c0.1,0.1,0.1,0.1,0.1,0.1
			c0.2,0,0.3-0.1,0.5-0.2c0,0.3,0,0.3-0.4,0.4c0.1,0.3,0.2,0.6,0.3,0.9c-0.3,0.1-0.6,0.3-0.9,0.4l0,0c0-0.3,0.1-0.7,0.1-1
			c0.1,0,0.2,0.1,0.3,0.1c-0.1-0.4-0.2-0.8-0.3-1.1c-0.4,0.1-0.6,0.3-0.5,0.5c0.1,0,0.2,0.1,0.2,0.1c0.1,0.6-0.5,0.9-0.4,1.4
			c0.2,0.1,0.3,0.1,0.4,0.2l0,0c-0.4,0.3-0.9,0.5-1.3,0.8c0,0,0,0,0,0c-0.1-0.2-0.1-0.4-0.2-0.6c0.2,0,0.3,0.1,0.4,0.1
			c0.1,0.1,0.2,0.2,0.3,0c-0.5-0.4-0.7-0.4-1.2,0c0.1,0.2,0.1,0.4,0.2,0.6l0,0c0.1,0.1,0.1,0.2,0.2,0.3l0,0
			c-0.1,0.1-0.2,0.2-0.4,0.2l0,0c0-0.2,0-0.5-0.4-0.4c0,0,0,0,0,0c0-0.1,0-0.2,0-0.2c-0.2,0.1-0.3,0.1-0.4,0.2
			c-0.1-0.1-0.1-0.1-0.2-0.2c0,0,0-0.1,0-0.1c0.1-0.2,0.2-0.4,0.3-0.4c0.2-0.1,0-0.4,0.3-0.4l0,0c0.1,0,0.1,0,0.2,0l0,0
			c0.4,0,0.7-0.3,1.1-0.1C309.3,94.9,309.2,94.8,309,94.7L309,94.7z M316.8,91.4c0,0-0.1,0.1-0.1,0.1c0,0,0,0,0,0c0,0,0,0,0-0.1
			C316.7,91.4,316.8,91.4,316.8,91.4c0,0,0.1-0.1,0.1-0.1l0,0C316.9,91.3,316.9,91.3,316.8,91.4z M314.2,92.1
			c-0.2,0-0.3-0.1-0.4-0.2c-0.2-0.2-0.5-0.2-0.7,0.1c-0.2,0.2-0.2,0.4,0.1,0.7C313.4,92.4,313.9,92.6,314.2,92.1z M315.5,91.1
			c0,0-0.1,0-0.1,0c0,0.1,0,0.2,0,0.3c0,0,0.1,0,0.1,0C315.5,91.3,315.5,91.2,315.5,91.1z M315.2,92.7c0.2-0.1,0.2-0.1,0.1-0.3
			C315.3,92.5,315.3,92.6,315.2,92.7z M317,91.8C317,91.8,317.1,91.8,317,91.8C317.1,91.8,317.1,91.8,317,91.8
			C317.1,91.7,317,91.7,317,91.8C317,91.8,317,91.8,317,91.8z M315.7,91.9C315.8,91.9,315.8,91.9,315.7,91.9c0.1-0.1,0-0.1,0-0.1
			C315.7,91.8,315.7,91.8,315.7,91.9C315.7,91.9,315.7,91.9,315.7,91.9z M316.1,91.6C316.1,91.6,316.1,91.6,316.1,91.6
			C316.1,91.7,316.1,91.7,316.1,91.6C316.1,91.7,316.2,91.7,316.1,91.6C316.1,91.6,316.1,91.6,316.1,91.6z M314.6,92.5
			C314.7,92.4,314.7,92.4,314.6,92.5C314.7,92.4,314.7,92.4,314.6,92.5C314.6,92.4,314.6,92.4,314.6,92.5
			C314.6,92.4,314.6,92.4,314.6,92.5z M314.5,92C314.5,92,314.5,92,314.5,92C314.5,92,314.5,92,314.5,92C314.5,92,314.5,92,314.5,92
			C314.5,92,314.5,92,314.5,92z M313.9,91.7C313.9,91.7,313.9,91.7,313.9,91.7C313.9,91.7,313.9,91.7,313.9,91.7
			C313.9,91.7,313.9,91.7,313.9,91.7z"/>
		<path d="M299.4,101.6c0,0.1,0,0.2,0,0.3c0,0,0.1,0,0.1,0c0.1-0.1,0.1-0.2,0.2-0.3c0-0.2,0.1-0.4,0.3-0.5l0,0
			c0,0.1,0.1,0.1,0.1,0.2c0.3,0,0.5-0.4,0.8-0.3c-0.1,0.1-0.2,0.3-0.3,0.4c0.2,0,0.3,0.1,0.5,0.1c0,0.1,0.1,0.2,0.1,0.4
			c-0.5-0.1-0.8,0.3-1.2,0.5c0,0.3,0.1,0.4,0.3,0.6c0.2-0.2,0.3-0.5,0.5-0.7c0.1-0.1,0.3-0.1,0.4-0.2c0-0.1,0-0.2,0-0.3
			c0.4-0.1,0.5-0.3,0.6-0.6l0,0c0,0,0.1-0.1,0.1-0.1l0,0c0.1,0.3,0,0.6-0.3,0.8c-0.4,0.4-0.9,0.8-1.3,1.2c-0.2,0.1-0.4,0.2-0.6,0.4
			c0.1-0.1,0.1-0.3,0.3-0.5c-0.3,0.2-0.6,0.2-0.7-0.1c0-0.2,0-0.5,0.1-0.7c0.1,0.1,0.2,0.2,0.2,0.3c0,0.1,0,0.2,0,0.3
			c0,0,0.1,0,0.1,0c0.1-0.2,0.2-0.4,0.2-0.6l0,0c0.1,0,0.1-0.1,0.2-0.2c-0.4-0.2-0.8-0.2-1.1,0c0.1,0.2,0.2,0.3,0.2,0.5
			c-0.1,0.1-0.1,0.2-0.2,0.2c0,0.4,0.3,0.5,0.5,0.7c0,0-0.1,0.1-0.1,0.1c0,0,0,0,0,0.1c0,0,0.1-0.1,0.1-0.1c0.1,0,0.1,0,0.2,0
			c-0.3,0.3-0.6,0.5-0.9,0.8c0-0.2-0.1-0.1-0.2,0c-0.1-0.1-0.2-0.2-0.3-0.3c-0.3,0.4-0.6,0.8-0.9,1.2c-0.1,0-0.2,0-0.4,0
			c0.1,0.2,0.1,0.3,0.2,0.5c0.2-0.2,0.3-0.4,0.5-0.6c0.1-0.1,0.4-0.2,0.5-0.4c0-0.3,0.4-0.2,0.4-0.4c0,0,0,0,0,0c0.1,0,0.1,0,0.2,0
			c-0.7,0.8-2.2,2.2-2.4,2.3c-0.6-0.2-0.8-0.6-0.8-1.6c0.3-0.4,0.7-0.8,1-1.2c0.1-0.1,0.2-0.2,0.3-0.2c0,0,0,0.1,0,0.1
			c0,0,0,0,0-0.1c0.2-0.3,0.4-0.6,0.7-0.7C298.3,102.6,298.8,102.1,299.4,101.6L299.4,101.6z M300.2,101.6
			C300.2,101.6,300.2,101.6,300.2,101.6C300.2,101.6,300.2,101.6,300.2,101.6c-0.1,0-0.2,0-0.4,0C300,101.8,300.1,101.8,300.2,101.6
			z M297.7,103.5c-0.1,0.1-0.1,0.1-0.2,0.2c0.2,0.2,0.3,0.3,0.5,0.1C297.9,103.7,297.8,103.6,297.7,103.5c0.1-0.1,0.3-0.1,0.5-0.2
			c0.1,0.1,0.1,0.3,0.1,0.4l0,0c0.1-0.2,0.2-0.3,0.3-0.5c0-0.3-0.2-0.4-0.5-0.4C298,103.1,297.6,103.1,297.7,103.5z M296.1,105.1
			c0.2-0.2,0.4-0.3,0.4-0.7C296.3,104.7,296.1,104.8,296.1,105.1z M297,104.4c0,0-0.1-0.1-0.1-0.1c0,0-0.1,0.1-0.1,0.1
			c0,0,0,0.1,0,0.3C297,104.5,297,104.4,297,104.4z M296,106.2C296,106.2,296.1,106.2,296,106.2C296.1,106.1,296.1,106.1,296,106.2
			C296,106.1,296,106.1,296,106.2C296,106.1,296,106.1,296,106.2z M298.6,104C298.6,104,298.6,104,298.6,104
			C298.6,104,298.6,104,298.6,104C298.6,104,298.6,104,298.6,104C298.6,104,298.6,104,298.6,104z"/>
		<path d="M313.5,93.7c-0.1,0.1-0.3,0.2-0.4,0.3c-0.3,0.2-0.6,0.3-1,0.5c0-0.3,0.3-0.4,0.5-0.6c0.1-0.2,0.4-0.3,0.6-0.4
			C313.2,93.6,313.3,93.7,313.5,93.7C313.5,93.7,313.5,93.7,313.5,93.7z"/>
		<path d="M307.8,97.1c-0.2,0.2-0.3,0.3-0.5,0.5c-0.1,0.1-0.2,0-0.3,0l0,0c0.4-0.1,0.5-0.5,0.5-0.8c0-0.1,0.1-0.2,0.1-0.3
			C307.7,96.8,307.8,96.9,307.8,97.1L307.8,97.1z"/>
		<path d="M313.5,93.7c0.5-0.4,0.9-0.6,1.2-0.5c-0.3,0.2-0.5,0.3-0.8,0.4C313.8,93.7,313.6,93.7,313.5,93.7L313.5,93.7z"/>
		<path d="M309,94.7c-0.1,0-0.3-0.1-0.5-0.2c0.1-0.1,0.2-0.2,0.4-0.3C309,94.4,309,94.5,309,94.7L309,94.7z"/>
		<path d="M308.5,96.7c-0.2,0.1-0.5,0.3-0.7,0.4l0,0C308,96.9,308.2,96.7,308.5,96.7L308.5,96.7z"/>
		<path d="M309.2,94c0.1-0.1,0.3-0.2,0.5-0.3c-0.1,0.3-0.3,0.3-0.4,0.4C309.2,94.1,309.2,94,309.2,94z"/>
		<path d="M307.4,95.3c0.1-0.3,0.3-0.4,0.6-0.4l0,0C307.8,95,307.6,95.2,307.4,95.3L307.4,95.3z"/>
		<path d="M309.1,96.3c-0.1,0.1-0.2,0.1-0.2,0.2l0,0c-0.1-0.1-0.1-0.2-0.2-0.3l0,0C308.9,96,309,96.2,309.1,96.3L309.1,96.3z"/>
		<path d="M300.5,100.7c-0.1,0.1-0.2,0.1-0.2,0.2c0,0,0-0.1,0-0.1C300.3,100.8,300.4,100.8,300.5,100.7L300.5,100.7z"/>
		<path d="M308.2,94.9c0.1,0.1,0.1,0.2,0.2,0.2l0,0c-0.1,0-0.1,0-0.2,0l0,0C308.2,95.1,308.2,95,308.2,94.9
			C308.2,94.9,308.2,94.9,308.2,94.9z"/>
		<path d="M310.1,93.5C310.1,93.5,310,93.5,310.1,93.5C310,93.5,310.1,93.5,310.1,93.5L310.1,93.5z"/>
		<path d="M308,94.9c0.1-0.1,0.2-0.1,0.2-0.2c0,0,0,0,0,0c0,0.1,0,0.1,0,0.2l0,0C308.2,94.9,308.1,94.9,308,94.9L308,94.9z"/>
		<path d="M310.7,95.3c0,0-0.1,0.1-0.1,0.1l0,0C310.6,95.4,310.7,95.3,310.7,95.3L310.7,95.3z"/>
		<path d="M308.3,94.7L308.3,94.7L308.3,94.7z"/>
		<path d="M309.3,96.2c0,0-0.1,0.1-0.1,0.1l0,0C309.2,96.3,309.2,96.2,309.3,96.2L309.3,96.2z"/>
		<polygon points="299.4,101.6 299.4,101.6 299.4,101.6 		"/>
		<path d="M299.9,101.1L299.9,101.1L299.9,101.1z"/>
		<path d="M308.2,96.3C308.1,96.4,308.1,96.4,308.2,96.3C308.1,96.4,308.1,96.4,308.2,96.3L308.2,96.3z"/>
		<path d="M307.4,96.2c0,0,0.1-0.1,0.1-0.1C307.5,96.1,307.5,96.2,307.4,96.2z"/>
		<polygon points="301.9,92.6 302,92.6 301.9,92.6 		"/>
		<path d="M299.7,102.4L299.7,102.4L299.7,102.4z"/>
	</g>
</g>
</svg>
