<?xml version="1.0" encoding="utf-8"?>
<!-- Generator: Adobe Illustrator 18.1.1, SVG Export Plug-In . SVG Version: 6.00 Build 0)  -->
<svg version="1.1" id="Layer_1" xmlns="http://www.w3.org/2000/svg" xmlns:xlink="http://www.w3.org/1999/xlink" x="0px" y="0px"
	 viewBox="0 0 377.6 324.2" enable-background="new 0 0 377.6 324.2" xml:space="preserve" preserveAspectRatio="xMinYMin meet">
<g>
	<path fill="#FFFFFF" d="M271.4,28.9l-60,31.4l-5.8-42.5L225.8,0h-40.4c-6.1,0-11.4,4.5-12.3,10.7l-5.1,37.5l20.9,24l-82.6-43.3
		c-4.4-2.3-9-0.2-10.1,4.6l-31,129.7l13.7,2.8c4.9,1,9.7-2.2,10.7-7.1l4.1-20l12.7,2.6c4.9,1,9.6-2.2,10.4-7.1l0,0l3.4-20.1
		l11.8,2.4c0,0,0,0,0,0c4.9,1,9.4-2.3,10.1-7.2l2.8-20.3l17.1,3.4l-10,73l24.5,4.9l12.5,20l12.4-19.9l24.5-4.8l-10-73.2l17.2-3.5
		l2.8,20.3c0.7,4.9,5.2,8.2,10.1,7.2l0,0l11.8-2.4l3.4,20.1c0.8,4.9,5.5,8.1,10.4,7.1l12.7-2.6l4.1,20c1,4.9,5.8,8.1,10.7,7.1
		l13.7-2.8l-31-129.7C280.4,28.7,275.8,26.6,271.4,28.9z"/>
	<g>
		<path fill="#FFFFFF" d="M255.6,307.7h-17.9c-0.1,0-0.3,0.1-0.4,0.2c-0.1,0.1-0.2,0.3-0.2,0.4v0.8v1.6v1.4c0,0.2,0.1,0.3,0.2,0.4
			c0.1,0.1,0.3,0.2,0.4,0.2h2c0.1,0,0.3-0.1,0.4-0.2c0.1-0.1,0.2-0.2,0.2-0.4v-1.2h4.4v10.1h-1.2c-0.2,0-0.3,0.1-0.4,0.2
			c-0.1,0.1-0.2,0.3-0.2,0.4v2.2c0,0.2,0,0.3,0.2,0.4c0.1,0.1,0.3,0.2,0.4,0.2h1.4h0.4h3h0.4h1.4c0.1,0,0.3-0.1,0.4-0.2
			c0.1-0.1,0.2-0.3,0.2-0.4v-2.2c0-0.1-0.1-0.3-0.2-0.4c-0.1-0.1-0.3-0.2-0.4-0.2h-1.3l0-10.1h4.4v1.2c0,0.2,0.1,0.3,0.2,0.4
			c0.1,0.1,0.3,0.2,0.4,0.2h2c0.2,0,0.3-0.1,0.4-0.2c0.1-0.1,0.2-0.2,0.2-0.4v-1.4v-1.6v-0.8c0-0.2-0.1-0.3-0.2-0.4
			C255.9,307.7,255.7,307.7,255.6,307.7z"/>
		<path fill="#FFFFFF" d="M146.2,308.5c-0.6-0.5-1.7-0.8-3.2-0.8c0,0,0,0,0,0c0,0,0,0,0,0l-9.7,0c0,0,0,0-0.1,0
			c-1.6,0-2.6,0.3-3.2,0.8c-0.6,0.6-0.9,1.6-0.9,3.1c0,0,0,0,0,0.1v8.6c0,0,0,0,0,0c0,1.5,0.3,2.5,0.9,3.1c0.6,0.5,1.6,0.8,3.2,0.8
			l0,0h0.1h9.7c0.1,0,0.1,0,0.1,0c0,0,0,0,0,0c1.5,0,2.5-0.3,3.2-0.8c0.1-0.1,0.2-0.2,0.3-0.4c0,0,0,0,0,0l0,0c0,0,0,0,0,0
			c0,0,0,0,0,0c0-0.1,0.1-0.1,0.1-0.2c0.3-0.6,0.4-1.3,0.4-2.3v-0.6c0-0.2-0.1-0.3-0.2-0.4c-0.1-0.1-0.2-0.2-0.4-0.2h-2.8
			c-0.3,0-0.6,0.3-0.6,0.6v1.1h-10.1l0-10.1h10.1v1.3c0,0.3,0.3,0.6,0.6,0.6h2.8c0.1,0,0.3-0.1,0.4-0.2c0.1-0.1,0.2-0.2,0.2-0.4
			v-0.6c0,0,0,0,0,0C147.1,310,146.9,309,146.2,308.5z"/>
		<path fill="#FFFFFF" d="M322.3,320.9H321l-7.4-13c-0.1-0.2-0.3-0.3-0.5-0.3h-3c-0.2,0-0.4,0.1-0.5,0.3l-7.3,13h-1.2
			c-0.2,0-0.3,0.1-0.4,0.2c-0.1,0.1-0.2,0.3-0.2,0.4v2.2c0,0.2,0.1,0.3,0.2,0.4c0.1,0.1,0.3,0.2,0.4,0.2h2.8c0.2,0,0.4-0.1,0.5-0.3
			l1.9-3.3h10.8l1.9,3.3c0.1,0.2,0.3,0.3,0.5,0.3h2.8c0.2,0,0.3-0.1,0.4-0.2c0.1-0.1,0.2-0.2,0.2-0.4v-2.2c0-0.1-0.1-0.3-0.2-0.4
			C322.6,321,322.4,320.9,322.3,320.9z M308.1,317.5l3.6-6.4l3.6,6.4H308.1z"/>
		<path fill="#FFFFFF" d="M208.3,319.1h-2.2c-0.1,0-0.3,0.1-0.4,0.2c-0.1,0.1-0.2,0.2-0.2,0.4v1.3h-9.8v-3.8h7
			c0.2,0,0.3-0.1,0.4-0.2c0.1-0.1,0.2-0.2,0.2-0.4v-1.9c0-0.2-0.1-0.3-0.2-0.4c-0.1-0.1-0.2-0.2-0.4-0.2h-7v-3.3h9.8v1.7
			c0,0.1,0.1,0.3,0.2,0.4c0.1,0.1,0.3,0.2,0.4,0.2h2c0.2,0,0.3-0.1,0.4-0.2c0.1-0.1,0.2-0.3,0.2-0.4v-1.9v-2.4
			c0-0.2-0.1-0.3-0.2-0.4c-0.1-0.1-0.3-0.2-0.4-0.2h-2.5l-10.4,0l-3.4,0h-1.4c-0.1,0-0.3,0.1-0.4,0.2c-0.1,0.1-0.2,0.3-0.2,0.4v2
			c0,0.2,0.1,0.3,0.2,0.4c0.1,0.1,0.2,0.2,0.4,0.2h1.3v10.1h-1.3c-0.1,0-0.3,0.1-0.4,0.2c-0.1,0.1-0.2,0.3-0.2,0.4v2.2
			c0,0.2,0.1,0.3,0.2,0.4c0.1,0.1,0.2,0.2,0.4,0.2h1.4h3.4h13c0.2,0,0.3-0.1,0.4-0.2c0.1-0.1,0.2-0.3,0.2-0.4v-0.9v-1.7v-1.4
			c0-0.1-0.1-0.3-0.2-0.4C208.6,319.2,208.4,319.1,208.3,319.1z"/>
		<path fill="#FFFFFF" d="M184.2,307.7h-2.5h-10.2h-3.4h-1.4c-0.2,0-0.3,0.1-0.4,0.2c-0.1,0.1-0.2,0.3-0.2,0.4v2
			c0,0.1,0.1,0.3,0.2,0.4c0.1,0.1,0.2,0.2,0.4,0.2h1.3v10.1h-1.3c-0.2,0-0.3,0.1-0.4,0.2c-0.1,0.1-0.2,0.3-0.2,0.4v2.2
			c0,0.2,0.1,0.3,0.2,0.4c0.1,0.1,0.2,0.2,0.4,0.2h1.4h0.4h3h0.4h1.4c0.3,0,0.6-0.3,0.6-0.6v-2.2c0-0.1-0.1-0.3-0.2-0.4
			c-0.1-0.1-0.3-0.2-0.4-0.2H172V318l6.3,0c0.1,0,0.3-0.1,0.4-0.2c0.1-0.1,0.2-0.3,0.2-0.4v-2.1c0-0.1-0.1-0.3-0.2-0.4
			c-0.1-0.1-0.3-0.2-0.4-0.2H172v-4h9.6v1.7c0,0.1,0.1,0.3,0.2,0.4c0.1,0.1,0.3,0.2,0.4,0.2h2c0.2,0,0.3-0.1,0.4-0.2
			c0.1-0.1,0.2-0.2,0.2-0.4v-1.9v-2.4c0-0.2-0.1-0.3-0.2-0.4C184.4,307.7,184.3,307.7,184.2,307.7z"/>
		<path fill="#FFFFFF" d="M123.3,307.7h-3.2l-1.6,0h-0.6h-1.6l-3.2,0c-0.2,0-0.3,0.1-0.4,0.2c-0.1,0.1-0.2,0.3-0.2,0.4v2
			c0,0.2,0.1,0.3,0.2,0.4c0.1,0.1,0.2,0.2,0.4,0.2h3.1v10.1h-3.1c-0.2,0-0.3,0.1-0.4,0.2c-0.1,0.1-0.2,0.3-0.2,0.4v2.2
			c0,0.2,0.1,0.3,0.2,0.4c0.1,0.1,0.2,0.2,0.4,0.2h3.2h1.6h0.6h1.6h3.2c0.1,0,0.3-0.1,0.4-0.2c0.1-0.1,0.2-0.3,0.2-0.4v-2.2
			c0-0.1-0.1-0.3-0.2-0.4c-0.1-0.1-0.3-0.2-0.4-0.2h-3.1v-10.1h3.1c0.1,0,0.3-0.1,0.4-0.2c0.1-0.1,0.2-0.2,0.2-0.4v-2
			c0-0.2-0.1-0.3-0.2-0.4C123.6,307.7,123.4,307.7,123.3,307.7z"/>
		<path fill="#FFFFFF" d="M272.1,307.7h-3.2l-1.6,0h-0.6h-1.6l-3.2,0c-0.2,0-0.3,0.1-0.4,0.2c-0.1,0.1-0.2,0.3-0.2,0.4v2
			c0,0.2,0.1,0.3,0.2,0.4c0.1,0.1,0.3,0.2,0.4,0.2h3.1v10.1h-3.1c-0.2,0-0.3,0.1-0.4,0.2c-0.1,0.1-0.2,0.3-0.2,0.4v2.2
			c0,0.2,0.1,0.3,0.2,0.4c0.1,0.1,0.3,0.2,0.4,0.2h3.2h1.6h0.6h1.6h3.2c0.1,0,0.3-0.1,0.4-0.2c0.1-0.1,0.2-0.3,0.2-0.4v-2.2
			c0-0.1-0.1-0.3-0.2-0.4c-0.1-0.1-0.3-0.2-0.4-0.2H269v-10.1h3.1c0.1,0,0.3-0.1,0.4-0.2c0.1-0.1,0.2-0.2,0.2-0.4v-2
			c0-0.2-0.1-0.3-0.2-0.4C272.4,307.7,272.2,307.7,272.1,307.7z"/>
		<path fill="#FFFFFF" d="M345.6,319.1h-2.2c-0.1,0-0.3,0.1-0.4,0.2c-0.1,0.1-0.2,0.2-0.2,0.4v1.3h-9v-10.1h1.3
			c0.3,0,0.6-0.3,0.6-0.6v-2c0-0.2-0.1-0.3-0.2-0.4c-0.1-0.1-0.2-0.2-0.4-0.2h-1.4h-0.4h-3H330h-1.4c-0.1,0-0.3,0.1-0.4,0.2
			c-0.1,0.1-0.2,0.3-0.2,0.4v2c0,0.1,0,0.3,0.2,0.4c0.1,0.1,0.3,0.2,0.4,0.2h1.2v10.1h-1.2c-0.1,0-0.3,0.1-0.4,0.2
			c-0.1,0.1-0.2,0.3-0.2,0.4v2.2c0,0.2,0,0.3,0.2,0.4c0.1,0.1,0.3,0.2,0.4,0.2h1.4h3.4h12.2c0.2,0,0.3-0.1,0.4-0.2
			c0.1-0.1,0.2-0.3,0.2-0.4v-0.9v-1.7v-1.4c0-0.1-0.1-0.3-0.2-0.4C345.9,319.2,345.7,319.1,345.6,319.1z"/>
		<path fill="#FFFFFF" d="M56.3,307.7h-1.4h-3.4h-0.2c-0.2,0-0.3,0.1-0.5,0.2l-6.7,8.5l-6.7-8.5c-0.1-0.1-0.3-0.2-0.4-0.2h-0.2h-3.4
			h-1.4c-0.1,0-0.3,0.1-0.4,0.2c-0.1,0.1-0.2,0.3-0.2,0.4v2c0,0.1,0.1,0.3,0.2,0.4c0.1,0.1,0.3,0.2,0.4,0.2h1.3v10.1h-1.3
			c-0.1,0-0.3,0.1-0.4,0.2c-0.1,0.1-0.2,0.3-0.2,0.4v2.2c0,0.2,0.1,0.3,0.2,0.4c0.1,0.1,0.3,0.2,0.4,0.2h1.4h0.4h3h0.4h1.4
			c0.3,0,0.6-0.3,0.6-0.6v-2.2c0-0.1-0.1-0.3-0.2-0.4c-0.1-0.1-0.3-0.2-0.4-0.2h-1.3v-7.7l6.4,8.1c0.1,0.1,0.3,0.2,0.5,0.2
			c0.2,0,0.3-0.1,0.4-0.2l6.3-8.1v7.6h-1.2c-0.1,0-0.3,0.1-0.4,0.2c-0.1,0.1-0.2,0.3-0.2,0.4v2.2c0,0.2,0.1,0.3,0.2,0.4
			c0.1,0.1,0.3,0.2,0.4,0.2h1.4h0.4h3h0.4h1.4c0.2,0,0.3-0.1,0.4-0.2c0.1-0.1,0.2-0.3,0.2-0.4v-2.2c0-0.1-0.1-0.3-0.2-0.4
			c-0.1-0.1-0.2-0.2-0.4-0.2H55v-10.1h1.3c0.2,0,0.3-0.1,0.4-0.2c0.1-0.1,0.2-0.2,0.2-0.4v-2c0-0.2-0.1-0.3-0.2-0.4
			C56.5,307.7,56.4,307.7,56.3,307.7z"/>
		<path fill="#FFFFFF" d="M83.7,307.7h-1.4H82h-3l-0.4,0h-1.4c-0.1,0-0.3,0.1-0.4,0.2c-0.1,0.1-0.2,0.3-0.2,0.4v2
			c0,0.2,0.1,0.3,0.2,0.4c0.1,0.1,0.3,0.2,0.4,0.2h1.3v10.1H67.9l0-10.1h1.2c0.1,0,0.3-0.1,0.4-0.2c0.1-0.1,0.2-0.2,0.2-0.4v-2
			c0-0.2-0.1-0.3-0.2-0.4c-0.1-0.1-0.2-0.2-0.4-0.2h-1.4h-0.4h-3l-0.4,0h-1.4c-0.2,0-0.3,0.1-0.4,0.2c-0.1,0.1-0.2,0.3-0.2,0.4v2
			c0,0.2,0.1,0.3,0.2,0.4c0.1,0.1,0.2,0.2,0.4,0.2h1.2v9.4c0,0,0,0,0,0.1c0,1.5,0.3,2.5,0.9,3.1c0.6,0.5,1.6,0.8,3.2,0.8l0,0l0,0H68
			h10.3c0,0,0.1,0,0.1,0c1.6,0,2.6-0.3,3.2-0.8c0.6-0.6,0.9-1.6,0.9-3.1h0l0-0.1v-9.4h1.2c0.2,0,0.3-0.1,0.4-0.2
			c0.1-0.1,0.2-0.2,0.2-0.4v-2c0-0.2-0.1-0.3-0.2-0.4C84,307.7,83.9,307.7,83.7,307.7z"/>
		<path fill="#FFFFFF" d="M299.5,307.7h-3.1h-3.1c-0.2,0-0.3,0.1-0.4,0.2c-0.1,0.1-0.2,0.3-0.2,0.4v2c0,0.2,0.1,0.3,0.2,0.4
			c0.1,0.1,0.2,0.2,0.4,0.2h1.2l-5.6,10l-5.7-10h1.2c0.1,0,0.3-0.1,0.4-0.2c0.1-0.1,0.2-0.2,0.2-0.4v-2c0-0.2-0.1-0.3-0.2-0.4
			c-0.1-0.1-0.2-0.2-0.4-0.2h-3.1h-3.1c-0.2,0-0.3,0.1-0.4,0.2c-0.1,0.1-0.2,0.3-0.2,0.4v2c0,0.2,0,0.3,0.2,0.4
			c0.1,0.1,0.2,0.2,0.4,0.2h1.1L287,324c0.1,0.2,0.3,0.3,0.5,0.3h3c0.2,0,0.4-0.1,0.5-0.3l7.4-13.1h1.1c0.1,0,0.3-0.1,0.4-0.2
			c0.1-0.1,0.2-0.2,0.2-0.4v-2c0-0.2-0.1-0.3-0.2-0.4C299.8,307.7,299.7,307.7,299.5,307.7z"/>
		<path fill="#FFFFFF" d="M103.2,307.7C103.2,307.7,103.2,307.7,103.2,307.7C103.2,307.7,103.2,307.7,103.2,307.7l-9.6,0
			c0,0,0,0-0.1,0c-1.6,0-2.6,0.3-3.2,0.8c-0.6,0.6-0.9,1.6-0.9,3.1c0,0,0,0,0,0.1v1.8c0,0,0,0,0,0c0,1.5,0.3,2.5,0.9,3.1
			c0.6,0.6,1.7,0.8,3.2,0.8l0,0h0.1h10.1v3.5H93.1v-1.4c0-0.3-0.3-0.6-0.6-0.6h-2.5c-0.1,0-0.3,0.1-0.4,0.2
			c-0.1,0.1-0.2,0.3-0.2,0.4v0.8c0,0,0,0,0,0c0,1.5,0.3,2.4,0.9,3c0.6,0.5,1.7,0.8,3.2,0.8l0,0h9.5c0,0,0,0,0,0
			c1.6,0,2.6-0.3,3.2-0.8c0.6-0.6,0.9-1.6,0.9-3.1v0l0,0v0V318c0,0,0,0,0,0c0-1.5-0.3-2.5-0.9-3.1c-0.6-0.6-1.7-0.8-3.2-0.8
			c0,0,0,0,0,0c0,0,0,0-0.1,0H93v-3.2h10.7v1.3c0,0.3,0.3,0.6,0.6,0.6h2.5c0.1,0,0.3-0.1,0.4-0.2c0.1-0.1,0.2-0.3,0.2-0.4v-0.6
			c0,0,0,0,0,0c0-1.4-0.3-2.4-0.9-3C105.8,307.9,104.8,307.7,103.2,307.7z"/>
		<path fill="#FFFFFF" d="M227.8,307.7C227.8,307.7,227.8,307.7,227.8,307.7C227.7,307.7,227.7,307.7,227.8,307.7l-9.6,0
			c0,0,0,0-0.1,0c-1.6,0-2.6,0.3-3.2,0.8c-0.6,0.6-0.9,1.6-0.9,3.1c0,0,0,0,0,0.1v1.8c0,0,0,0,0,0c0,1.5,0.3,2.5,0.9,3.1
			c0.6,0.6,1.7,0.8,3.2,0.8l0,0h0.1h10.1v3.5h-10.7v-1.4c0-0.3-0.2-0.6-0.6-0.6h-2.5c-0.2,0-0.3,0.1-0.4,0.2
			c-0.1,0.1-0.2,0.3-0.2,0.4v0.8c0,0,0,0,0,0c0,1.5,0.3,2.4,0.9,3c0.6,0.5,1.7,0.8,3.2,0.8l0,0h9.5c0,0,0,0,0.1,0
			c1.6,0,2.6-0.3,3.2-0.8c0.6-0.6,0.9-1.6,0.9-3.1v0l0,0v0V318c0,0,0,0,0,0c0-1.5-0.3-2.5-0.9-3.1c-0.6-0.6-1.7-0.8-3.2-0.8
			c0,0,0,0,0,0c0,0,0,0-0.1,0h-10.1v-3.2h10.7v1.3c0,0.3,0.2,0.6,0.6,0.6h2.5c0.1,0,0.3-0.1,0.4-0.2c0.1-0.1,0.2-0.3,0.2-0.4v-0.6
			c0,0,0,0,0,0c0-1.4-0.3-2.4-0.9-3C230.3,307.9,229.3,307.7,227.8,307.7z"/>
	</g>
	<g>
		<path fill="#FFFFFF" d="M282.8,204.9h-11.4h-5.2v5.2v33.1v5.2h-5.2h-16.9H239v-5.2v-33.1c0-2.9-2.3-5.2-5.2-5.2h-11.4h-5.2v5.2
			V287c0,2.8,2.3,5.2,5.2,5.2h11.4h5.2V287v-11.6v-5.2h5.2h16.9h5.2v5.2V287c0,2.8,2.3,5.2,5.2,5.2h11.4h5.2V287v-76.9
			C288,207.2,285.7,204.9,282.8,204.9z"/>
		<path fill="#FFFFFF" d="M93.6,204.9h-6.9h-12H0v81.8c0,2.9,2.3,5.2,5.2,5.2h11.4h5.2v-5.2v-54.9v-5.2h5.2h11.4h5.2v5.2v54.9
			c0,2.9,2.3,5.2,5.2,5.2h11.4h5.2v-5.2v-54.9v-5.2h5.2h11.4H87v5.2v54.9c0,2.9,2.3,5.2,5.2,5.2h11.4h5.2v-5.2v-55.5V227v-6.9
			C108.8,211.7,102,204.9,93.6,204.9z"/>
		<path fill="#FFFFFF" d="M183.2,204.9h-6.9h-12h-36.6v81.8c0,2.9,2.3,5.2,5.2,5.2h11.4h5.2v-5.2v-11.4v-5.2h5.2h16.9h5.2v5.2v11.4
			c0,2.9,2.3,5.2,5.2,5.2h11.4h5.2v-5.2v-55.5V227v-6.9C198.4,211.7,191.6,204.9,183.2,204.9z M176.7,243.2v5.2h-5.2h-16.9h-5.2
			v-5.2v-16.6h22.1c2.9,0,5.2,2.3,5.2,5.2V243.2z"/>
		<path fill="#FFFFFF" d="M362.4,204.9h-6.9h-12.1h-36.6v81.8c0,2.9,2.3,5.2,5.2,5.2h11.4h5.2v-5.2v-11.4v-5.2h5.2h16.9h5.2v5.2
			v11.4c0,2.9,2.3,5.2,5.2,5.2h11.4h5.2v-5.2v-55.5V227v-6.9C377.6,211.7,370.8,204.9,362.4,204.9z M355.9,243.2v5.2h-5.2h-16.9
			h-5.2v-5.2v-16.6h22.1c2.9,0,5.2,2.3,5.2,5.2V243.2z"/>
	</g>
</g>
</svg>
