<?xml version="1.0" encoding="utf-8"?>
<!-- Generator: Adobe Illustrator 19.0.0, SVG Export Plug-In . SVG Version: 6.00 Build 0)  -->
<svg version="1.1" id="Layer_1" xmlns="http://www.w3.org/2000/svg" xmlns:xlink="http://www.w3.org/1999/xlink" x="0px" y="0px"
	 viewBox="127 -121 1021.9 1011" style="enable-background:new 127 -121 1021.9 1011;" xml:space="preserve">
<style type="text/css">
	.st0{fill:#C0A475;}
	.st1{fill:#F0594A;}
	.st2{fill:#1C75BC;}
	.st3{fill:#FFFFFF;}
	.st4{fill:#732282;}
	.st5{enable-background:new    ;}
	.st6{fill:#F0594A;stroke:#FFFFFF;stroke-miterlimit:10;}
	.st7{fill:none;stroke:#FFFFFF;stroke-width:5;stroke-miterlimit:10;}
	.st8{fill:none;}
	.st9{fill:#00A19B;}
</style>
<g id="XMLID_1_">
	<g id="XMLID_217_">
		<path id="XMLID_229_" class="st0" d="M1148.9,526.4c-2,0.5-3.8,1.1-5.6,2.1c-1.6,1-3,0.1-4.2-1.2c-0.5-0.5-0.3-1.4,0.1-1.8
			c1.2-1.3,2.9-1.1,4.4-1.5c1.8-0.5,3.6-0.4,5.3,0.3v-50c-1,0.3-2,0.5-3,0.7c-8.7,1.6-17.5,3.2-26.3,4.6
			c-10.4,1.7-20.8,2.4-31.3,3.1c-11.5,0.7-13.4,0.5-23.8-4.3c-9.7-4.5-17.8-10.9-24.2-19.5c-4.5-6.1-8.6-12.3-12.2-19
			c-3.2-6-6.4-12.1-10-17.9c-5.5-8.9-11.2-17.7-16.9-26.5c-2.3-3.6-4.8-7.2-7-10.9c-5.4-9-10.7-18-16.1-27
			c-5.1-8.4-10.3-16.7-15.4-25c-5.9-9.5-11.7-19-17.5-28.5c-6.5-10.7-12.9-21.5-19.5-32.1c-2.7-4.5-5.7-8.8-8.6-13.2
			c-5.3-8-10.5-16-15.8-24c-1.4-2.1-2.8-4.2-4.1-6.3c-3.4-5.4-6.8-10.8-10.3-16.2c-5.3-8.2-10.8-16.4-16.2-24.5
			c-2.6-4-5.4-7.9-7.9-12c-3.9-6.4-7.7-12.9-11.4-19.5c-2.7-4.7-5.4-9.5-7.8-14.4c-4.7-9.4-8.6-19.1-12.4-28.9
			c-2.1-5.5-4.2-11.1-6.1-16.7c-2.4-7.1-4.6-14.3-6.8-21.5c-2-6.3-4.1-12.6-4.2-19.3c0-3.2-1.1-6.4-0.7-9.5c0.4-3.4-1.2-6.2-1.2-9.4
			c0-1.6-0.3-3.2-0.8-4.7c-0.7-2.3-0.9-4.5-0.2-6.7c1-2.9,0.9-5.9,0.2-8.8c-0.9-3.6-1.1-7.2-0.9-10.8c0.1-1.4-0.2-2.7-0.3-4.1
			c-0.3-5.7-0.7-11.4-0.7-17.1c0.3-10.7,0.5-21.4,0.5-32.1c0-9.1-0.3-18.2-0.4-27.3c0-2.5,0.5-5,0.8-7.5c0.1-0.9,0.3-1.8,0.4-2.7
			c0.1-0.9-0.7-1.8-1.6-1.8c-2.2-0.1-4.6,0.7-6.7-0.6c-2.1-1.3-3.8-1-5.3,1c-0.6,0.8-1.6,0.6-2.5,0.5c-1.7-0.3-2.6,0.7-3.1,2
			c-1.2,3.5-1.9,7-2,10.7c-0.1,1.8-0.1,3.7-0.4,5.4c-0.2,1.1-0.8,2.1-1.5,3s-1.8,1.4-3,1c-0.9-0.3-1.6-0.8-2.5-1.1
			c-1-0.4-1.8-0.1-2.4,0.7c-0.1,0.2-0.3,0.3-0.4,0.5c-0.1,0.2-0.2,0.4-0.4,0.5c-0.5,0.4-1.1,0.9-1.6,1c-0.8,0.1-1.1-0.7-1.2-1.4
			c-0.5-2.5-0.8-4.9-1.4-7.4c-0.1-0.4-1-0.7-1.6-1c-0.2-0.1-0.5,0-0.6,0.1c-2.5,1.3-4.8,1.3-6.8-0.9c-0.4-0.5-1.2-0.7-1.8-0.9
			c-1.5-0.5-3.7,0.5-3.9,2c-0.4,2.5-0.8,5-0.8,7.4c0,4.3,0.5,8.7,0.3,13c-0.4,8.4,0.5,16.8,0.6,25.3c0.2,14.8,1,29.6,1.2,44.4
			c0.1,10.6,2.3,20.8,4.1,31.1c0.6,3.4,1.4,6.7,2.1,10c0.3,1.6,0.5,3.2,1,4.7c3.5,10.7,3.2,21.6,1.2,32.4
			c-1.9,10.2-7.7,17.8-15.9,23.8c-1.1,0.8-2.3,1.5-3.8,1.4c-1.7-0.1-3.1,0.5-4.3,1.7c-0.8,0.8-1.8,1.5-2.8,1.8
			c-4.1,1.5-8.1,3.1-12.3,4.1c-5.6,1.4-10.8,3.5-16.1,5.7c-3.6,1.5-7.2,2.8-10.8,4.3c-5.5,2.3-11.2,3.7-16.6,6.3
			c-6.8,3.3-13.7,6.2-20.5,9.3c-2.3,1-4.7,1.9-6.7,3.3c-5.7,3.9-12.1,6.3-18,9.8c-3.1,1.8-6.4,3.4-9.3,5.7c-1.4,1.1-3.1,1.9-4.6,2.8
			c-3.9,2.3-7.9,4.5-11.9,6.8c-1.6,0.9-3,2-4.6,2.9c-10.3,5.9-20.7,11.6-30.5,18.1c-9.7,6.4-19.7,12.3-29.5,18.5
			c-11.2,7-22.7,13.5-34.4,19.6c-5.4,2.9-11,5.6-16.3,8.6c-14.1,7.9-28.4,15.4-42.3,23.8c-3.3,2-6.7,3.9-10.1,5.8
			c-7.3,4.2-14.7,8.3-21.9,12.6c-8.8,5.3-17.5,10.7-26.1,16.2c-12.3,7.8-24.6,15.7-36.9,23.5c-7.1,4.5-14.3,9-21.4,13.5
			c-7.7,4.8-15.5,9.5-23.3,14.4c-11.8,7.4-23.9,14.1-36.6,20c-9.1,4.2-18.5,7.9-28.7,8.4c-4.5,0.2-9.1,0.3-13.7,0.3
			c-0.9,0-1.8-0.2-2.7-0.4c-6.7-1.1-12.4-4.3-17.9-8.1c-1.9-1.3-3.3-3.1-4.2-5.3c-1.1-2.8-2.2-5.5-3.5-8.2c-2.6-5.6-5-11.3-8.1-16.6
			c-2-3.4-4-6.6-5-10.4c-0.3-1.1-0.7-2.2-1.2-3.2c-1.9-4.1-4-8.2-5.9-12.3c-1.2-2.7-2.6-5.4-3.4-8.2c-2.1-6.8-5.2-13.1-8.2-19.5
			c-2.5-5.3-5.8-10.3-7.6-16c-0.1-0.4-0.4-0.8-0.6-1.2c-2.8-6.2-5.7-12.4-8.5-18.7c-2-4.4-4.2-8.6-5.8-13.1
			c-4.2-11.3-9.6-22.2-13.2-33.7c-0.6-1.9-1.6-3.8-2.4-5.7c-0.6-1.5-1.3-2.9-1.9-4.4c-2.4-5.4-4.7-10.9-7.4-16.2
			c-1.8-3.5-3.6-7-5.5-10.4v100.9c0.7,1.7,1.5,3.4,2.2,5.2c3.1,7.4,6.2,14.7,9,22.1c3.7,9.6,7,19.2,10.6,28.9
			c1.7,4.5,3.6,8.9,5.2,13.4c2.3,6.7,4.4,13.4,8.1,19.5c0.3,0.6,0.5,1.3,0.8,1.9c3.9,8.8,6.6,17.9,9.1,27.2c1.8,6.9,2.2,13.9,0.9,21
			c-0.7,3.8-2.2,7-4.9,9.5c-4.5,4.1-9.1,8.4-14.9,10.6c-2.8,1.1-5.5,2.3-8.2,3.4c-1.5,0.6-2.9,1.3-4.3,2c-2.1,0.9-4.1,1.9-6.2,2.9
			c-2.4,1.1-4.8,2.1-7.2,3.1V510c1.4-0.8,2.8-1.6,4.2-2.3c7.2-4,14.6-7.5,22.1-10.7c2.7-1.2,5.5-2.2,8.1-3.7
			c9.3-5.3,19.6-8.7,28.5-14.6c0.2-0.1,0.4-0.2,0.6-0.3c7.5-2.8,14.1-7.4,21.2-11c10.4-5.2,20.4-11.1,30.8-16.2
			c4.9-2.4,9.6-5.2,14.4-7.8c4.4-2.4,8.6-4.9,13.2-7c5.4-2.4,10.6-5.3,15.7-8.2c2.4-1.3,4.4-3.3,6.7-4.7c2.3-1.4,4.9-2.4,7.3-3.7
			c4.4-2.4,8.7-5,13.1-7.3c9.9-5.1,19.6-10.7,28.9-16.8c6.9-4.4,13.7-9,20.5-13.5c1.5-1,3.1-1.8,4.8-2.6c6-2.7,12.1-5.3,17.1-9.8
			c0.3-0.3,0.7-0.5,1.1-0.8c5.3-3.6,10.7-6.9,16.4-9.9c5.6-3,11.3-5.9,16.8-9.1c7.3-4.3,14.3-8.8,21.2-13.7c2.2-1.6,4.7-2.7,7.1-4.1
			c1.6-0.9,3.2-1.7,4.8-2.6c6.8-3.6,13.3-8,20.2-11.5c10.1-5.2,20-10.8,29.8-16.8c6-3.7,12.3-7,18.3-10.6
			c6.5-3.8,12.8-7.9,19.4-11.4c8.4-4.6,17-8.8,25.5-13.1c0.8-0.4,1.7-0.8,2.4-1.3c3.4-2.4,7.1-4,10.8-5.8c3.7-1.8,7.2-3.9,10.7-6
			c5.7-3.3,11.5-6.3,16.9-10.1c0.9-0.7,2-1,3-1.6c2-1.1,4.1-2,6-3.3c7.6-5.1,15.8-9.1,23.8-13.4c2.4-1.3,4.7-2.8,7.2-3.9
			c8.4-3.7,16.1-8.5,24.1-12.9c2.6-1.4,5.2-2.8,7.9-4c3.5-1.6,7-3.2,10.1-5.6c1.8-1.4,3.8-2.5,5.8-3.5c2.8-1.5,5.9-2.5,8.5-4.3
			c5.5-3.7,11.6-6.2,17.4-9.4c0.8-0.4,1.6-0.9,2.4-1.3c4.9-1.9,9.7-3.9,14.6-5.7c4.7-1.8,9.1-4.3,14.2-4.7c1.1-0.1,2.1-0.8,3.2-1.1
			c1.3-0.4,2.6-0.8,3.9-1.1c2.7-0.6,5.3-1.2,8-1.8c6.3-1.2,12.5-2.3,19-1.9c3.5,0.3,6,1.6,8.1,4.3c1.5,2,3.1,4,4.9,5.7
			c2.2,2.1,3.9,4.4,5.5,6.9c5.7,8.5,11.5,16.9,17.2,25.5c8.1,12.2,17.9,23,26.3,34.9c6.3,8.9,13.5,17.2,19.3,26.5
			c4.6,7.3,9.1,14.7,13.6,22.1c9.1,15.3,18,30.7,27,46c3.2,5.5,6.7,10.9,9.9,16.4c7.5,12.8,14.8,25.6,22.9,38.1
			c3.2,5,6.4,10,9.8,14.8c6.1,8.8,12.5,17.4,18.7,26.1c5.9,8.4,11.1,17.2,15.9,26.3c1.3,2.4,2.5,4.8,3.8,7.3c2.2,4.3,4.1,8.6,5,13.4
			c0.5,2.7,0.5,5.4-0.4,8.1c-1.7,5-3.2,10-5,14.9c-1.2,3.2-2.6,6.4-4.3,9.3c-2.8,4.9-7.6,7.8-12.6,10.1c-8.3,3.8-16.1,8.5-24.5,12
			c-5.7,2.4-11.1,5.2-16.8,7.7c-4.4,1.9-8.8,3.6-13.6,4.6c-2,0.4-3.9,1.2-5.8,1.9c-7.9,2.8-15.7,6.1-23.4,9.5
			c-4.4,1.9-8.8,3.8-13.2,5.6c-6.8,2.7-13.6,5.3-20.1,8.5c-3.9,1.9-7.9,3.6-11.8,5.3c-13.4,5.7-26.6,11.9-39.7,18.3
			c-5.3,2.6-10.5,5.4-16,7.8c-10,4.4-19.6,9.7-29,15.3c-3.9,2.3-7.9,4.5-11.9,6.8c-3.2,1.8-6.4,3.6-9.5,5.4
			c-6.3,3.7-12.5,7.5-18.8,11.1c-7.8,4.3-15.6,8.5-23.4,12.7c-1,0.5-2,1.1-2.9,1.7c-8.8,5.7-17.9,10.8-26.7,16.6
			c-6.9,4.5-13.5,9.2-20.2,14c-5.9,4.2-11.7,8.7-18.5,11.6c-7.9,3.5-15.5,7.7-23.1,11.9c-10.3,5.8-20.6,11.7-30.9,17.6
			c-3.4,1.9-6.7,3.9-10,6c-6,3.7-11.9,7.7-18,11.1c-7.6,4.2-14.9,8.8-22.4,13c-15.3,8.6-30.5,17.3-45.7,26
			c-7.3,4.2-14.4,8.7-21.6,13.1c-2.2,1.3-4.1,2.9-5.2,5.3c-0.8,1.7-2.3,2.7-3.9,3.7c-3.8,2.5-7.6,5-11.3,7.7
			c-10.1,7.4-20.5,14.3-31,21.3c-7,4.7-13.7,9.8-20.6,14.7c-2.6,1.9-5.1,3.8-7.7,5.7c-1.1,0.8-2.2,1.6-3.1,2.6
			c-2.4,2.5-1.9,7.6,0.9,9.8c1.4,1.1,3.7,1.3,5.1,0.3c1.1-0.8,2.2-1.7,3.2-2.5c1.6-1.3,3.2-2.6,4.8-3.8
			c13.4-9.9,26.9-19.5,40.8-28.7c0.6-0.4,1.1-0.8,1.7-1.1c0.9-0.6,2.4-0.6,2.5-0.1c0.2,1.1-0.5,1.7-1.2,2.3
			c-0.8,0.8-1.8,1.4-2.7,2.1c-4.4,3.2-8.8,6.4-13.3,9.6c-2.3,1.6-4.3,3.4-5.5,5.9c-1.1,2.3-3.1,3.8-5.3,5.1
			c-2.1,1.3-4.1,2.9-5.9,4.6c-0.8,0.7-1.3,1.9-1.5,3c-0.6,2.8-0.2,5.4,1.3,7.9c0.6,1,1.6,1.7,2.8,1.6c3-0.1,5.8-0.9,8.3-2.7
			c5.5-4.1,11.5-7.3,17.5-10.5c7.6-4.1,15.4-8,23-12c1.6-0.8,3-2.1,5-1.8c0.7,1.1,1.4,2.3,2.2,3.4c0.7,1,1.6,1.6,2.8,1.7
			c4.9,0.1,9.6-0.7,13.3-4.3c3.6-3.5,7.8-6.1,12.1-8.6c4.7-2.7,9.3-5.7,13.4-9.4c1.5-1.3,3.1-2.8,5.4-2.2c1.1,0.3-0.6,2.8-3.7,5
			c-0.9,0.7-2,1.2-2.8,1.9c-1.8,1.4-3.5,2.9-5.2,4.4c-0.7,0.6-0.8,1.8-0.2,2.5c2.1,2.4,4.2,4.8,6.3,7.2c0.5,0.6,1.7,0.3,2.4-0.3
			c1.6-1.3,1.3-3.3,2.3-4.9c2.1,0.6,4,0.7,5.5-1.2c1-1.2,2.1-2.5,3.4-3.4c1.7-1.2,2.4-2.6,2.6-4.5c0.1-1,1.1-1.6,2-1.5
			s1.8,0.5,2.6,0.6c1.2,0.2,2.4-0.3,2.8-1.5c0.7-2.6,1.7-4.7,5-4.1c1.6-0.9,3.2-1.8,4.7-2.8c1.3-0.9,2.3-2.3,3.7-3
			c2.5-1.3,3.8-3,4.2-5.8c0.1-0.9,0.9-1.6,1.9-1.7c1.3-0.1,2.7-0.3,4-0.1c1.4,0.2,2.3-0.3,2.7-1.4c0.8-1.9,1.8-2.8,4-2.9
			c1.7-0.1,3.5-1,5.2-1.5c0.4-0.1,1-0.4,1.1-0.8c0.2-0.6,0.4-1.5,0.1-1.8c-0.6-0.6-1.4-1.1-2.2-1.4c-0.8-0.4-1.8-0.4-2.6-0.7
			c-0.9-0.3-1.6-2.8-1.2-3.7c0.1-0.2,0.3-0.5,0.4-0.5c2.2,0.8,4.5,0,6.7,0.3c0.4,0.1,0.6,0.6,1,0.9c1,0.9,2.4,0.3,2.6-0.9
			c0.2-0.9,0-1.8,0.2-2.7c0.1-0.3,0.6-0.7,0.9-0.8c0.3,0,0.9,0.4,1,0.6c0.2,1.9,1.6,2.6,3,3.4c0.7,0.4,0.9,1.8,0.4,2.4
			c-0.7,0.9-1.3,1.9-2.2,2.5c-1.7,1.2-3.5,2.1-5.2,3.2c-7.2,4.8-14.5,9.4-21.5,14.5c-3.5,2.5-7.3,4.6-10.4,7.6
			c-1.5,1.5-2.8,2.9-3.1,5.1c-0.1,0.6-0.5,1.3-0.8,1.8c-1.2,1.8-4.1,0.9-5,3.3c-0.1,0.2-0.8,0.2-1.2,0.2c-0.2,0-0.4-0.1-0.6-0.2
			c-1-0.4-1.8-0.1-2.1,1c-0.3,1.4-0.7,2.9-2.2,3.1c-1.9,0.3-3.3,1.3-4.7,2.4c-2.4,1.7-4.8,3.4-7.5,4.6c-3.8,1.7-7,4.2-9.8,7.3
			c-1.3,1.5-1.9,3-0.3,4.8c0.9,1.1,0.7,2.3-0.2,3.1c-0.7,0.6-1.3,1.3-2,1.8c-4,2.7-8,5.3-12,7.9c-1.5,1-3.1,1.9-4.5,3.1
			c-2.5,2.2-2.2,7.9,0.4,9.8c0.5,0.4,1.2,0.7,1.9,0.8c1.1,0.1,2.3,0.1,3.3-0.2c1.9-0.7,3.7-1.7,5.5-2.8
			c10.4-6.6,20.8-13.1,31.1-19.8c3.2-2.1,6.4-4.4,9.2-7c2.7-2.5,5.7-4.6,9-6.1c6.2-2.9,12-6.5,17.8-10.1c6.2-3.8,12.4-7.7,18.6-11.5
			c8-4.9,16.1-9.5,24-14.5c18.1-11.5,36.3-22.8,54.6-33.9c1.4-0.8,2.7-1.7,4.1-2.5c14.1-8,28.2-15.9,42.2-23.9
			c8.3-4.8,16.4-9.8,24.7-14.6c10.3-5.9,20.7-11.6,31-17.3c16.6-9.1,33.6-17.3,50.4-26.1c11.5-6,23.4-11.3,35.2-16.7
			c6.2-2.8,12.6-5.4,18.9-7.8c12.1-4.6,24.1-9.7,35.7-15.5c9.2-4.5,18.5-8.9,27.8-13.2c8.7-4,17.6-7.6,26.4-11.4
			c11.3-4.9,22.5-9.9,33.8-14.7c7.8-3.3,15.6-6.5,23.5-9.4c12.1-4.6,24.3-9.2,36.6-13.4c12.7-4.4,25.6-8.3,38.3-12.5
			c6.5-2.1,13-4.4,19.4-6.5c8.9-3,17.7-5.9,26.6-8.8c3.9-1.3,7.8-2.4,11.8-3.4c5.6-1.4,11.3-2.8,16.8-4.6L1148.9,526.4L1148.9,526.4
			z M180.1,358.2l0.2-0.5l0.2,0.5H180.1z M185.6,399.3c-0.4-0.2-0.9-0.3-1.1-0.6c-0.4-0.5-0.6-1.2-0.1-1.8c0.1-0.1,0.6-0.4,0.8-0.2
			c0.4,0.3,0.7,0.9,0.8,1.4C186.1,398.5,185.8,398.9,185.6,399.3z M203.6,394.4V394l0.5,0.2L203.6,394.4z M221.2,396.1
			c-0.4,0.1-0.9,0.1-1.2,0.1c-1.2,0-2.4,0-3.5-0.1c-2.5-0.1-3.2-1-3.6-3.9c-0.1-0.7,0.7-1.3,1.3-1.1c2.4,1.1,4.8,2.3,7.2,3.5
			c0.2,0.1,0.3,0.7,0.3,1.1C221.7,395.8,221.4,396.1,221.2,396.1z M293.1,412.2c-2,1.4-4.1,2.7-5.9,3.8c-0.8,0-1.4,0.1-1.6-0.1
			c-0.2-0.2-0.3-0.9-0.1-1.2c1.8-2,3.9-3.8,6.6-4.4c0.3-0.1,0.9,0.3,1.1,0.6C293.4,411.3,293.3,412.1,293.1,412.2z M481,284.5
			c-2.8,1.4-5.7,2.6-9,3.2c-0.9-1.5-1.8-3-2.7-4.5c-0.4-0.7,0.2-1.9,1-2.1s1.8-0.5,2.6-0.4c0.8,0.1,1.6,0.7,2.4,1.1
			c1.6,1,3.3,1.4,5.1,1.1c0.3-0.1,0.9,0.3,1,0.6C481.6,283.7,481.3,284.3,481,284.5z M562.7,256.9c-0.1,0.1-0.3-0.1-0.4-0.1
			c0.3-0.2,0.6-0.3,0.9-0.5C563,256.5,562.9,256.7,562.7,256.9z M574.7,250.3c-3.4,2.5-7,4.6-11.1,5.7c2.4-3.5,6.2-4.7,9.8-6.3
			c0.7-0.3,1.5-0.5,2.3-0.7C575.5,249.4,575.2,249.9,574.7,250.3z M582,246.2c-0.6,0.6-1.4,1.2-2.2,1.5c-1.2,0.4-2.4,0.6-3.6,0.9
			c0.7-1,1.4-2.2,2.2-3.1c0.6-0.6,1.4-1.1,2.2-1.3c0.5-0.2,1.2,0.2,1.8,0.3C582.3,245.1,582.4,245.9,582,246.2z M582.5,216.6
			c-0.2,0.1-0.6,0.3-0.6,0.3c-0.2-0.4,0-0.6,0.6-0.6c0.1,0,0.2,0,0.4,0C582.8,216.5,582.7,216.6,582.5,216.6z M585.4,215.2
			c-0.7,0.4-1.4,0.7-2.1,1c0-1.2,0.8-1.7,1.8-2.1c0.2-0.1,0.5,0.1,0.5,0.1C585.6,214.6,585.6,215.1,585.4,215.2z M681.4,172
			c-0.1,0-0.5-0.3-0.4-0.4c0.1-0.4,0.4-0.7,0.6-1c0.3,0.2,0.6,0.5,0.8,0.7C682,171.6,681.7,171.8,681.4,172z M702.9,179.6
			c-5.4,3.2-10.6,6.7-16.8,8.4c-0.1,0-0.4-0.2-0.6-0.3c0.8-1.7,2.2-2.9,3.7-3.8c4.1-2.3,8.4-4.4,13-5.4c0.3-0.1,0.6,0.3,0.9,0.6
			C703.2,179.1,703,179.5,702.9,179.6z M753.5,141.6c-5,0-8.9,2.7-12.9,5.1c-0.8,0.5-1.5,1-2.3,1.3c-0.5,0.1-1.1-0.3-1.7-0.5
			c0.2-0.4,0.2-1,0.5-1.1c5-2.4,9.8-5.3,15.1-7.1c1.3-0.5,2.6-0.3,3.9,0.5C755.6,140.9,754.5,141.6,753.5,141.6z M799,124.8
			c-0.9,0.1-1.6-0.7-1.5-1.7c0-0.4,0.1-0.8,0.2-1.3c0.1-0.2,0.2-0.4,0.3-0.6c0.3-0.6,1.2-0.6,1.6,0c0.3,0.5,0.6,1.1,0.8,1.5
			C800.5,124,799.9,124.8,799,124.8z M887.3,227.4c-3.6-4.6-7.2-9.3-10.7-14c-2.2-2.9-4.2-5.9-6.2-9c-0.5-0.7-0.6-1.7-0.8-2.5
			c0-0.2,0.6-0.6,0.9-0.6c0.4,0,0.9,0.2,1.2,0.4c0.9,0.7,1.8,1.4,2.4,2.4c5.3,8.1,10.8,16,15.1,24.6
			C888.6,228.3,887.8,228,887.3,227.4z M909.8,261.9c-1-0.9-1.7-2.1-2.5-3.2c-1.1-1.5-2.1-3-3.3-4.3c-2.6-2.9-4.9-5.9-6.6-9.4
			c-0.9-1.8-2.3-3.4-3.4-5.1c-0.4-0.7-0.5-1.7-0.7-2.5c0-0.2,0.2-0.4,0.4-0.5s0.4-0.1,0.6,0c0.4,0.2,0.9,0.4,1.1,0.7
			c0.9,1,1.8,2.1,2.5,3.2c4.7,7.4,9.3,14.9,14,22.3C911.2,262.6,910.3,262.4,909.8,261.9z M914.7,269.1c-0.1-0.1,0.1-0.5,0.1-0.5
			c0.7,0.1,0.7,0.5,0.7,1C915.2,269.5,914.9,269.3,914.7,269.1z M919.1,279.2c-1.2-3-2.2-6-3.3-9c2.9,2.7,5,5.9,7,9.2
			c0.7,1.3,1.1,2.8,1.6,4.2C921.6,283.3,920.1,281.5,919.1,279.2z M924.5,283.8c0.9,0.5,1.2,1.5,1.4,2.4
			C925.1,285.6,924.6,284.8,924.5,283.8z M926.2,286.6c2.1,1.5,2.8,3.7,3.3,6C928.1,290.8,926.4,289.1,926.2,286.6z M933.2,298.4
			c-0.2,0.1-0.4,0.1-0.6,0.1c-0.3-0.2-0.8-0.4-0.9-0.8c-0.7-1.5-1.3-3-1.9-4.5c1.9,1.1,3.2,2.6,3.8,4.8
			C933.6,298,933.3,298.3,933.2,298.4z M980.4,376.5c0.1,0,0.3,0,0.4,0.1c0,0.1,0.1,0.2,0.1,0.2
			C980.7,376.7,980.6,376.6,980.4,376.5z M986.6,385.3c-0.1,0.1-0.5,0.1-0.5,0.1c-2-2.6-4-5.2-5-8.3c0.6,0.2,1.3,0.4,1.5,0.8
			c1.5,2.2,2.8,4.6,4.2,6.9C986.9,384.9,986.7,385.2,986.6,385.3z M461.5,832c-0.1,0-0.6-0.7-0.6-0.8c0.2-0.3,0.6-0.6,0.9-0.7
			c0.2,0,0.4,0.5,0.6,0.8C462.2,831.6,461.8,831.9,461.5,832z M469.6,826.1c-0.8,1.6-2.1,2.7-3.7,3.3c-0.2-0.1-0.5-0.2-0.6-0.3
			s-0.2-0.4-0.2-0.6c0.6-1.8,2.2-2.6,3.8-3.2c0.1,0,0.4,0.1,0.5,0.3C469.6,825.7,469.7,826,469.6,826.1z M481.6,820.1
			c-1.9,1.5-3.9,3-5.9,4.4c-0.3,0.2-0.9,0.1-1.6,0.2c-0.3-0.2-0.8-0.5-1.2-1c-0.2-0.3-0.2-1,0.1-1.2c2.1-2.1,4.3-3.9,7-5
			c0.4-0.2,1.3,0.4,1.6,0.8C481.9,818.7,481.9,819.8,481.6,820.1z M495.9,786.1l-0.1-0.5l0.5,0.2L495.9,786.1z M538.8,780.1
			c-0.2,0.1-0.6,0.2-0.6,0.1c-0.2-0.3-0.4-0.7-0.3-1c0.1-0.3,0.6-0.5,0.9-0.8c0.2,0.1,0.4,0.1,0.6,0.2
			C539.7,778.9,539.5,779.6,538.8,780.1z M545.6,774.6c-0.1,0.1-0.4,0.1-0.6,0c-0.1-0.1-0.1-0.3-0.1-0.5c0.2-0.1,0.4-0.3,0.5-0.3
			C546,773.8,546,774.2,545.6,774.6z M568.1,762.3c0,0,0-0.4,0-0.5c0.3,0,0.7,0,1,0c0,0,0,0.3,0,0.5
			C568.8,762.3,568.4,762.3,568.1,762.3z M577.6,786.8c-0.3,0.4-0.7,0.5-0.9,0c-0.1-0.1,0-0.5,0.1-0.5c0.3-0.1,0.7,0,1-0.1
			C577.7,786.4,577.7,786.6,577.6,786.8z M597.4,798.7l-0.5-0.2l0.5-0.2V798.7z M605.9,771.9c-0.1,0.3-0.7,0.5-1.1,0.7
			c-0.8,0.1-1.7-0.9-1.6-1.7c0.3-1.7,1.4-2.8,2.4-3.9c0.2-0.2,0.8-0.1,1.2,0c0.1,0,0.2,0.4,0.2,0.5
			C606.7,768.9,606.4,770.4,605.9,771.9z M610.1,791.4c-0.2,0-0.4-0.4-0.3-0.4c0.3-0.4,0.7-0.8,1-1.3c0.3,0.3,0.5,0.5,0.5,0.6
			C611.3,790.9,610.6,791.5,610.1,791.4z M617.3,765.6c-0.3-0.2-0.5-0.5-0.8-0.7c0.1-0.1,0.4-0.4,0.4-0.4c0.3,0.2,0.6,0.5,0.8,0.7
			C617.6,765.4,617.3,765.7,617.3,765.6z M618,759.8c-0.1-0.1-0.1-0.3-0.1-0.5c0.2-0.1,0.3-0.3,0.5-0.3c0.1,0,0.3,0.2,0.3,0.3
			C618.7,759.9,618.5,760,618,759.8z M622.1,758.7c-0.4,0.5-0.8,0.4-0.8-0.2c0-0.2,0.2-0.3,0.3-0.5c0.2,0,0.5,0,0.6,0.2
			C622.3,758.3,622.2,758.6,622.1,758.7z M633.8,759.9c-0.1,0.3-0.9,0.6-1.1,0.5c-0.9-0.5-1.8-1.2-2.7-1.9c-0.3-0.2-0.4-0.9-0.2-1.2
			c0.6-1.4,1.2-2.8,1.9-4.3c0.2-0.5,1.4-0.4,1.7,0.1c0.5,0.7,1,1.5,1.6,2.4C634.6,756.9,634.3,758.4,633.8,759.9z M636.1,775.2
			c0,0-0.4-0.4-0.4-0.5c0.1-0.3,0.4-0.7,0.6-1c0.3,0.2,0.5,0.5,0.8,0.7C636.7,774.7,636.4,775,636.1,775.2z M640.5,755.7
			c-0.2,0.1-0.5,0-0.6-0.1c-0.2-0.3-0.4-0.9-0.3-1c1.1-1,2.3-1.9,3.4-2.8C643.2,753.7,642.3,754.9,640.5,755.7z M646.5,749.9
			c-0.3,1-1.1,1.4-2,1.5c-0.4,0.1-0.8,0.1-1.3,0.1c-0.7-1.1-1.3-2.2-1.1-3.6c0.2-1.3,1.2-1.8,2.4-1c0.4,0.2,0.8,0.5,1.1,0.7
			C646.4,748.2,646.8,749,646.5,749.9z M650.5,766.8l-0.1-0.5l0.6,0.2L650.5,766.8z M653.2,746.8c-0.1-0.2-0.4-0.4-0.4-0.5
			c0.2-0.3,0.5-0.5,0.7-0.8c0.1,0.2,0.3,0.3,0.4,0.5C653.7,746.3,653.5,746.6,653.2,746.8z M654.6,727.1c-0.1,0.3-0.3,0.7-0.4,1
			c-0.1-0.4-0.1-0.7-0.1-1.1c0-0.3,0.2-0.7,0.4-1c0.1,0.2,0.3,0.3,0.3,0.5C654.7,726.6,654.7,726.9,654.6,727.1z M665.6,740.5
			c-0.2,0.7-0.8,1-1.5,0.9c-1.1,0-2.2,0-3.3-0.2c-0.3,0-0.7-0.6-0.8-0.9c0-0.3,0.3-0.9,0.6-1.1c0.3-0.2,0.9-0.2,1.3-0.2l0,0
			c0.7-0.1,1.3-0.2,2-0.3C664.8,738.9,665.8,739.9,665.6,740.5z M666.6,725.6c0-0.3,0-0.5,0-0.8c0.1,0.1,0.2,0.3,0.3,0.4
			C666.8,725.3,666.7,725.4,666.6,725.6z M667.3,707.7c-0.1,0-0.3-0.3-0.3-0.4c0-0.1,0.2-0.3,0.2-0.4c0.2,0.1,0.4,0.1,0.5,0.2
			C668,707.5,667.8,707.7,667.3,707.7z M673.3,736.8c-0.3,0.1-1,0-1.1-0.3c-0.2-0.3-0.1-1,0.2-1.2c0.5-0.4,1.1-0.6,1.6-0.9
			c0.3,0.5,0.8,1,0.7,1.1C674.4,736.1,673.9,736.6,673.3,736.8z M689.5,708.8c-0.1-0.2-0.2-0.3-0.2-0.5s0.2-0.3,0.3-0.5
			c0.3,0.2,0.5,0.4,0.8,0.5C690.1,708.5,689.8,708.7,689.5,708.8z M707.9,657.2c3.5-2.3,6.7-5.2,11-6.2c0.4-0.1,1,0.1,1.2,0.3
			c0.2,0.3-0.1,0.8-0.3,1.2c-0.1,0.2-0.3,0.4-0.5,0.5c-3,1.5-6,3-8.8,4.5c-0.8,0.3-1.4,0.5-2.1,0.7c-0.2,0-0.4-0.2-0.5-0.3
			C707.8,657.7,707.8,657.3,707.9,657.2z M718.3,677c-0.1,0.1-0.2,0.3-0.3,0.4c-0.1-0.1-0.3-0.3-0.3-0.4c0-0.1,0.2-0.3,0.2-0.4
			C718.1,676.7,718.2,676.9,718.3,677z M713.2,695.2c-0.4,0.5-0.7,1.1-1.2,1.4c-0.2,0.1-0.9-0.2-1.1-0.5c-0.3-0.6,0.1-1.4,0.9-1.5
			C712.2,694.5,712.6,694.9,713.2,695.2z M695.7,704.5l-0.2,0.5l-0.2-0.4L695.7,704.5z M694.1,694.9h0.4l-0.2,0.5L694.1,694.9z
			 M697,718.9c-0.4,0.2-1.3-0.1-1.8-0.5c-0.7-0.6-1-1.5-0.5-2.3c0.2-0.4,0.6-0.8,1-0.8c1.1,0,2.2,0.1,3.2,0.4c0.2,0,0.3,0.7,0.5,1.3
			C698.7,717.6,697.9,718.4,697,718.9z M699.5,687.1c-0.2,0.3-0.6,0.5-1,0.7c-0.2,0-0.6,0-0.6,0c-0.1-0.4-0.2-0.8-0.1-1.1
			c0.2-0.3,0.6-0.6,0.9-0.8c0.1-0.1,0.5,0,0.6,0.1C699.5,686.3,699.7,686.8,699.5,687.1z M703,660.4l-0.5,0.3v-0.5L703,660.4z
			 M707.2,711.5c-0.2,0.4-1,0.6-1.6,0.7c-0.1,0-0.5-0.6-0.6-1s0-0.9,0.1-1.3c0.4-1.8-0.3-2.9-1.7-4c-1.3-1-0.9-2.7,0.5-3.2
			c4-1.2,8.1-2.4,12.2-3.6c0.1,0.4,0.3,0.7,0.3,1.1c0.1,0.9,0.1,1.8-1,2.1c-0.6,0.2-1.4,0-2,0.2c-2,0.6-3.7,1.6-4.3,3.8
			C708.5,708.2,708,709.9,707.2,711.5z M710.1,732.1c-0.4,0-0.7,0-1.1,0c0-0.2,0-0.6,0-0.6c0.4,0,0.7,0,1.1,0
			C710.2,731.7,710.1,731.9,710.1,732.1z M716.2,730.1c-0.5,0.4-1.2,0.6-1.8,0.7c-0.3,0-1-0.4-1-0.6c-0.4-2.6,1.8-5.7,4.7-6.7
			c0.2-0.1,0.6,0.4,1.1,0.7C718.5,726.3,718,728.6,716.2,730.1z M718.6,699.3c-0.8-0.2-1.6-0.2-2.4-0.3c0.2-0.4,0.3-0.7,0.4-1.1
			c0.3-1.1,0.6-1.9,1-2.6c1.3,1.3,2.9,2.2,4.8,2.6C721.4,699.2,720.2,699.6,718.6,699.3z M724.2,666.4c0.3-0.3,0.6-0.6,1-0.8
			c0.2-0.1,0.5-0.1,0.6,0c0.8,0.6,1.6,1.2,2.4,1.8c-0.5,0.5-1.1,1.1-1.6,1.6c-0.9-0.5-1.8-1.2-2.5-2
			C724,667,724.1,666.6,724.2,666.4z M728.8,721.9c-0.8,0.4-1.6,0.8-2.4,1c-0.3,0.1-0.8-0.3-1-0.6s-0.3-1-0.1-1.2
			c0.8-1,1.7-2,2.6-2.9c0.2-0.2,0.8-0.3,1.1-0.2c0.3,0.2,0.5,0.7,0.7,1C730.1,720.2,730,721.3,728.8,721.9z M737.1,718.3
			c-0.9,0.7-1.8,1.2-2.8,1.7c-0.3,0.2-0.9,0.1-1.2-0.1c-0.2-0.1-0.2-0.8-0.1-1.1c0.6-0.9,1.2-1.9,2-2.7c0.5-0.6,1.2-0.5,1.8-0.1
			c0.3,0.3,0.5,0.7,0.7,1C737.4,717.5,737.4,718.1,737.1,718.3z M740.6,715.8c-0.5-0.1-1.1-0.8-1.2-1.3c-0.2-1.3,0.6-2.5,1.6-2.5
			c0.8,0,1.7,0.9,1.7,1.8C742.8,714.9,741.7,716.1,740.6,715.8z M739.7,657.7c-0.2-0.8,0.1-1.7,0.9-2.3c0.4-0.3,1.4-0.6,1.8-0.3
			c0.2,0.1,0.3,0.2,0.4,0.3C741.8,656.2,740.8,656.9,739.7,657.7z M769.2,701.4c-0.7,0.6-1.4,1.3-2.2,1.4c-2.3,0.4-4.1,1.2-5.9,2.9
			c-1.5,1.4-4,1.8-6,2.6c-0.1,0.1-0.4-0.1-0.5-0.3s-0.2-0.5-0.2-0.6c0.9-1.5,1.8-3.1,2.9-4.5c0.9-1.1,1.8-2,2.2-3.4
			c0.2-0.6,0.7-1.2,1.2-1.5c2.9-1.3,5.7-1.2,8.3,0.9c0.3,0.3,0.4,0.8,0.6,1.2C769.4,700.5,769.4,701.1,769.2,701.4z M773.1,697.9
			c-0.5-0.7-1-1.2-1-1.6c0-0.6,0.6-1.1,1.3-0.8c0.3,0.1,0.8,0.7,0.7,0.8C774,696.8,773.6,697.2,773.1,697.9z M775.6,688.9
			c-0.2,0-0.5,0-0.6-0.1c-0.2-0.5,0-0.9,0.5-0.8c0.3,0,0.7,0.3,1,0.5C776.2,688.7,775.9,688.8,775.6,688.9z M777,688.6
			c0.9-0.1,1.7-0.2,2.6-0.4C778.8,688.9,777.9,689,777,688.6z M779.9,687.8c0-0.3,0-0.5,0-0.8C780.4,687.3,780.1,687.5,779.9,687.8z
			 M780.9,694c-0.1-0.7,0.4-0.6,0.7-0.6C781.4,693.6,781.1,693.8,780.9,694z M787,690.9c-0.3,0.6-0.8,1.2-1.4,1.4
			c-1.2,0.4-2.4,0.7-3.7,1c0.7-2.1,3.1-2.2,4.3-3.7c0.1-0.1,0.5,0,0.6,0.1C787,690.1,787.2,690.6,787,690.9z M787.8,674.2
			c-0.1,0.2-0.9,0.4-1.1,0.3c-0.2-0.1-0.4-0.3-0.5-0.5c0.6-0.2,1.3-0.4,1.9-0.7C788,673.6,787.9,673.9,787.8,674.2z M794.9,686.7
			c-0.4,0-1,0-1.2-0.3c-0.5-0.5-0.4-1.5,0.2-1.8c0.2-0.1,0.6-0.1,0.6,0c0.4,0.5,0.7,1,1,1.4C795.1,686.4,795,686.7,794.9,686.7z
			 M800.4,673.9c0.1,0.2,0.3,0.5,0.2,0.5c-0.3,0.2-0.6,0.4-0.9,0.6c-0.1-0.2-0.2-0.3-0.2-0.5C799.8,674.3,800.1,674.1,800.4,673.9z
			 M800.5,680.6c-0.5,0.5-1.5,0.4-1.7-0.3c-0.1-0.4,0.1-1.1,0.3-1.2c0.5-0.2,1.1,0,1.8,0C800.8,679.8,800.8,680.3,800.5,680.6z
			 M833.7,658c1.2,0.1,1.8,0.6,2,1.5c0.1,0.6-0.6,1.4-1.1,1.1c-0.5-0.3-1.1-0.7-1.3-1.2C833.1,659.1,833.5,658.5,833.7,658z
			 M831,661.7l-0.2,0.5l-0.3-0.5H831z M815.4,671.8c-0.5-0.4-1.1-0.7-1.5-1.2c-0.5-0.6-0.4-1.4,0.2-1.7c1.1-0.6,2.4-1.1,3.6-1.5
			c0.2-0.1,0.7,0.3,0.9,0.6c0.1,0.1,0,0.4-0.1,0.6c-0.9,0.9-2.3,1.3-2.7,2.8C815.8,671.4,815.6,671.5,815.4,671.8z M837.3,668.9
			c-1.4,0.8-2.7,1.7-4.1,2.3c-5.4,2.3-10.8,4.4-16.1,6.6c-0.4-0.2-0.6-0.3-0.7-0.5c-0.1-0.2-0.2-0.5-0.1-0.7c2-2.4,3.9-5,7.4-5.4
			c4-2.2,8.5-2.8,12.9-3.7c0.2,0,0.6,0.5,0.9,0.8C837.5,668.4,837.4,668.8,837.3,668.9z M840.1,657.2l0.5-0.3v0.5L840.1,657.2z
			 M848.5,664.8c-1.4,0.3-2.7,0.2-3.6-1.3c-0.6-1-1.1-1.9-1.6-2.9c0-0.1,0.3-0.5,0.4-0.5c1.5,0.3,3.2,0.4,4.5,1.1
			c1.8,0.8,3.5,0.5,5.7,0.7C852,662.9,850.6,664.4,848.5,664.8z M874.7,653.1c-0.2-0.3-0.4-0.5-0.5-0.8c0,0,0.3-0.4,0.4-0.3
			c0.3,0.1,0.6,0.3,0.9,0.5C875.3,652.7,875,652.9,874.7,653.1z M895.3,643.2c-0.4,0.5-0.9,1.1-1.5,1.4c-4.2,2.2-8.4,4.4-12.8,6.1
			c-0.3,0.1-1.1,0-1.2-0.2c-0.2-0.5-0.5-1.4-0.2-1.8c1.2-1.6,2.6-3.1,4-4.5c0.9-0.9,2.1-0.7,3.2-0.4c1.6,0.3,2.7-0.4,3.5-1.6
			c1.1-1.8,2.7-1.3,4.2-1c0.4,0.1,0.9,0.4,1,0.7C895.7,642.3,895.6,642.9,895.3,643.2z M902.8,639.9c-0.4,0.4-1.1,0.5-1.7,0.5
			c-0.2,0-0.6-0.6-0.7-1c-0.1-1.2,0.8-2,2-1.9c0.3,0,0.6,0.4,1.1,0.8C903.3,638.8,903.2,639.5,902.8,639.9z M984.4,549.4
			c0.3,0,0.6,0.5,0.9,0.7c-0.3,0.2-0.7,0.7-1,0.7s-0.6-0.5-0.9-0.8C983.7,549.8,984.1,549.4,984.4,549.4z M975.6,542.2
			c0.1-0.1,0.4,0,0.7-0.1c0.1,0.1,0.4,0.3,0.4,0.4c0,0.7-1.1,1.4-2,1.4c-0.1,0-0.4-0.4-0.4-0.5C974.7,543.1,975.1,542.6,975.6,542.2
			z M966.5,546.1c0.4,0.1,0.9,0.1,1.2,0.4c0.4,0.4-0.3,1.4-1,1.5c-0.4,0-0.9-0.2-1.2-0.5C965.1,547.1,965.6,546.4,966.5,546.1z
			 M961,604.2l0.2,0.5h-0.5L961,604.2z M938.4,611.2c0.1,0.1,0.2,0.3,0.2,0.4c0,0.1-0.2,0.3-0.2,0.4c-0.1-0.1-0.2-0.3-0.2-0.4
			S938.3,611.4,938.4,611.2z M916.7,633.6c-0.7,0.9-1.7,1.5-2.9,1.3c-0.5-0.1-1.3-0.6-1.4-1.1c-0.1-0.5,0.2-1.3,0.6-1.7
			c0.4-0.4,1.2-0.6,1.7-0.8c0.5,0,1,0,1.4,0.1c0.4,0.2,0.8,0.5,0.9,0.9C917,632.8,916.9,633.4,916.7,633.6z M963.6,614
			c-4.2,2.2-8.7,3.8-13.1,5.6c-1.3,0.5-2.6,0.7-3.8,1.4c-4.4,2.5-9.1,4.2-13.6,6.1c-1.2,0.5-2.3,0.3-3-0.7c-0.8-1.1-1.1-2.5-0.5-3.1
			c0.8-0.8,1.7-1.9,2.9-1.2c2.5,1.5,4.3-0.2,6.3-1.2c0.4-0.2,0.5-1.2,0.7-1.8c0.5-1.9,1.6-2.7,3.4-2.3c0.6,0.2,1.2,0.7,1.9,0.8
			c0.6,0.1,1.4,0.2,1.9-0.2c1.1-0.8,2-1.8,3-2.7c1.4-1.3,2.9-2.1,4.9-1.4c1.4,0.5,2.7,0.1,3.9-0.8c0.6-0.4,1.1-0.7,1.7-1.1
			c1.6-1,3.3-1.3,5.2-1c1.2,0.2,2.5-0.2,3.8-0.3C967.6,612.2,965.4,613.1,963.6,614z M968,595.3c0,0.8-0.8,1-1.5,1.1
			c-1.6,0.1-2.5-0.3-2.9-1.2c-0.1-0.3-0.2-0.6-0.3-0.9c1.9-0.7,3.7-1.4,5.6-2.1C968.4,593.1,967.9,594.1,968,595.3z M978.3,607.1
			c-1.1,0.8-2.2,1.7-3.4,2c-1.8,0.5-3.7,0.7-5.6,0.9c1.8-1.2,3.3-2.6,4.4-4.5c0.9-1.7,3.2-1.3,4.5,0.4
			C978.4,606.2,978.5,607,978.3,607.1z M977.8,590.3c-0.1-0.3-0.3-0.6-0.4-0.8c1.1-0.3,2.1-0.6,3.2-0.9c0.1,0,0.1,0,0.2,0l0,0
			c1.2-0.3,2.5-0.6,3.7-0.9c-0.4,2.2-2.4,2.8-4.1,3.7C979.2,592,978.5,591.7,977.8,590.3z M989.2,601.9c-1.2,1.6-2.5,3.1-4.7,3.2
			c-0.5-0.2-1-0.2-1.2-0.5s-0.3-0.9-0.2-1.2c0.6-1.7,1.8-2.9,3.2-4.1c0.6-0.5,1.8-0.4,2.4,0.2C989.3,600.2,989.6,601.3,989.2,601.9z
			 M993.5,600.9c-0.1,0.1-0.3,0-0.4-0.1c0.3-0.2,0.6-0.3,0.9-0.5C993.8,600.6,993.7,600.8,993.5,600.9z M994.4,599.9
			c0.1-0.5,0.3-1,0.4-1.5c0-0.1,0.5-0.2,0.5-0.2c0.2,0.3,0.5,0.9,0.4,0.9C995.4,599.4,994.9,599.7,994.4,599.9z M995.3,586.4
			c-0.9,0.6-1.8,0.4-2.5-0.4c1.3-0.2,2.7-0.5,4-0.7C996.3,585.7,995.8,586,995.3,586.4z M1008.4,537.9c0.4,0.1,0.8,0.2,1.1,0.4
			c0.1,0.2-0.2,0.6-0.3,1c-0.4-0.1-0.8-0.2-1.1-0.5C1008,538.8,1008.3,538.3,1008.4,537.9z M1010.3,594.9c-0.7,0.2-1.3-0.4-1.2-1.1
			c0.1-0.5,0.6-0.9,1.1-1.5c0.5,0.6,1.2,1,1.2,1.5C1011.4,594.2,1010.8,594.8,1010.3,594.9z M1018.5,591.8l-0.3-0.6h0.5
			L1018.5,591.8z M1014.5,434.7c-0.1-0.3,0.1-1,0.4-1.1c0.3-0.2,1-0.2,1.3,0c1.9,1.4,2.7,3.4,3.5,5.5
			C1016.8,439,1015.6,436.9,1014.5,434.7z M1019.9,439.4c0.2,0.3,0.3,0.6,0.5,0.8C1019.7,440.2,1019.9,439.7,1019.9,439.4z
			 M1036.2,534.8c-0.8-0.2-1.3-1.3-1-2.1c0.1-0.2,0.2-0.5,0.4-0.5c1.4-0.2,2.6,0.1,3.5,1.2c0.1,0.1,0.1,0.4,0.1,0.6
			C1038.8,534.7,1037.3,535.1,1036.2,534.8z M1088.3,509.3c0.1,0,0.1,0.2,0.2,0.4c-0.2,0.1-0.3,0.2-0.5,0.2c-0.1,0-0.1-0.2-0.2-0.4
			C1088,509.4,1088.2,509.3,1088.3,509.3z M1050.8,550.6c-0.2-0.3-0.4-0.6-0.5-0.9c0.3-0.2,0.7-0.5,1-0.5c0.2,0.1,0.4,0.6,0.6,0.9
			C1051.4,550.2,1051.1,550.4,1050.8,550.6z M1053.2,528.2c-0.2,0.3-0.7,0.4-1,0.6c-0.3-0.2-0.6-0.4-1-0.6c0.2-0.3,0.4-0.8,0.6-0.9
			C1052.6,527.1,1053.5,527.8,1053.2,528.2z M1057.1,485c-1,0.5-2.1,0.6-3-0.1c-0.3-0.2-0.4-0.8-0.4-1.2c0-0.3,0.5-0.6,0.9-1.1
			c0.8,0.4,1.8,0.9,2.6,1.4C1057.3,484.1,1057.3,484.9,1057.1,485z M1062.2,527c0,0-0.4-0.1-0.4-0.2c0.1-0.7,0.6-0.6,1.1-0.6
			C1062.6,526.5,1062.4,526.7,1062.2,527z M1070.6,542.2c-0.2-0.3-0.6-0.7-0.5-0.9c0.1-0.3,0.6-0.6,0.9-0.7c0.2,0,0.6,0.4,1,0.7
			C1071.5,541.6,1071,541.9,1070.6,542.2z M1064.3,524.4c0.2-0.6,0.4-1.5,0.7-1.6c2.2-0.3,4.4-0.4,7.7-0.6
			C1069.3,524.1,1067,525,1064.3,524.4z M1069.4,508.3c-0.6,0.2-1.7,0.3-1.7-0.5c-0.1-2.2-1.9-1.4-2.9-2c-0.2-0.1-0.2-0.3-0.4-0.5
			c0.1-0.2,0.1-0.6,0.2-0.6c1.8-0.4,3.2-1.5,4.4-2.9c1-1.2,2.2-1.3,3.6-0.6c0.8,0.4,1.7,0.6,2.6,0.8c1.7,0.4,2.7,1.2,2.3,1.9
			c-0.5,0.7-1,1.6-1.7,2C1073.7,506.9,1071.5,507.6,1069.4,508.3z M1078.7,520.1c-0.2,0.4-0.6,0.6-0.9,0.9c-0.4,0-1,0.1-1.3-0.1
			c-0.3-0.2-0.7-0.7-0.6-1.1c0-0.3,0.6-0.6,0.9-0.8c0.2-0.1,0.4,0,0.7,0C1078.5,519,1079.1,519.5,1078.7,520.1z M1079.7,510.7
			l0.5-0.3l0.1,0.4L1079.7,510.7z M1083.3,538.4c-0.2,0.5-0.8,1.2-1.2,1.1c-0.5-0.1-1.2-0.7-1.3-1.2c-0.1-0.4,0.4-1,0.6-1.4
			C1082.6,536.8,1083.5,537.6,1083.3,538.4z M1084.7,518.8c-0.2-0.5,0.6-1.1,1.3-0.9c0.7,0.2,1.2,0.6,1.1,1.3
			c-0.1,0.3-0.7,0.4-1.2,0.8C1085.5,519.6,1084.9,519.3,1084.7,518.8z M1088.1,537.3c-0.8,0-1.5-0.8-1.4-1.9
			c0.1-1.1,0.7-1.9,1.4-1.9c1.1,0,2.4,1.1,2.4,2C1090.5,536.3,1089.3,537.2,1088.1,537.3z M1091.9,529.8c0-0.4-0.1-0.7,0-1.1
			c0-0.1,0.5-0.2,0.6-0.2c0.2,0.3,0.4,0.6,0.6,1C1092.7,529.6,1092.3,529.7,1091.9,529.8z M1122.1,503.8l-0.5-0.2l0.5-0.2V503.8z
			 M1119.9,499.6c0.4-0.2,0.8-0.4,1.2-0.3c0.4,0.1,0.9,0.4,0.9,0.7c0.1,0.3-0.1,0.9-0.4,1.1c-0.3,0.3-0.8,0.3-1.2,0.5
			c-0.4-0.1-0.9-0.2-1.2-0.4C1118.8,500.8,1119.2,499.9,1119.9,499.6z M1113.9,503.2v0.5l-0.5-0.2L1113.9,503.2z M1109.6,509.2
			c0.4,0.1,0.7,0.5,1,0.7c-0.1,0.4-0.1,1-0.4,1c-0.3,0.1-0.9-0.1-1.1-0.3C1108.6,510.1,1109,509,1109.6,509.2z M1094.1,516.6
			c-0.1-0.2-0.4-0.4-0.3-0.5c0.2-0.3,0.5-0.5,0.8-0.8c0.1,0.1,0.4,0.4,0.4,0.4C1094.6,516,1094.3,516.3,1094.1,516.6z M1097,503.7
			c0.1-0.1,0.4-0.2,0.6-0.3c0.4,0.1,0.9,0.1,1.2,0.3c0.9,0.7,1.1,1.8,1.2,2.9c0,0.6-0.7,1.1-1.4,1.1c-1-0.1-1.6-0.6-1.9-1.5
			C1096.4,505.3,1096.2,504.4,1097,503.7z M1100.5,529.8c-0.8,0.7-1.9,1.2-2.9,1.7c-0.2,0.1-0.7-0.4-1-0.7c-0.1-0.1,0-0.4,0.1-0.6
			c0.1-0.2,0.3-0.4,0.5-0.5c1.3-0.8-0.1-1.3-0.3-2c0.7-0.2,1.3-0.4,2-0.5c1.3-0.3,2.2,0.1,2.2,0.8
			C1101,528.6,1100.9,529.5,1100.5,529.8z M1105.2,526.8c-0.2,1.1-0.5,2.1-0.8,3.2c0,0.2-0.4,0.4-0.4,0.4c-0.3-0.2-0.7-0.4-0.7-0.7
			c-0.2-1.1-0.3-2.2-0.5-3.3l0,0c-0.1-0.9-0.3-1.7-0.3-2.6c0-0.3,0.5-0.6,0.8-0.8c0.1-0.1,0.4,0.1,0.5,0.2
			C1104.7,524.3,1105.5,525.4,1105.2,526.8z M1104.3,515.5c-0.7,0.5-1.9-0.1-2.1-0.8s0.5-1.7,1.4-1.7c0.5,0,1,0.5,1.7,0.9
			C1104.9,514.6,1104.7,515.2,1104.3,515.5z M1106.7,545.7l0.4-0.2v0.3L1106.7,545.7z M1109.8,528.1c-0.1,0.2-0.8,0.2-1.1,0
			c-0.3-0.2-0.4-0.7-0.4-1.1c0-0.4,0.1-0.9,0.3-1.3c1-3.2,1.8-3.4,5.4-1.7C1112.5,525.4,1110.6,526.2,1109.8,528.1z M1116.1,512.4
			c-0.1-0.1-0.4-0.2-0.5-0.4s-0.2-0.5-0.1-0.6c0.5-1.4,1.8-1.9,3-2.4c0.1-0.1,0.5,0.1,0.6,0.2c0.1,0.1,0,0.5-0.1,0.6
			c-0.7,0.9-1.5,1.7-2.2,2.5C1116.6,512.4,1116.3,512.3,1116.1,512.4z M1118.9,539.7c-0.2-0.3-0.4-0.6-0.5-0.9
			c0.2-0.1,0.5-0.3,0.5-0.2c0.2,0.3,0.3,0.6,0.5,0.9C1119.2,539.6,1118.9,539.7,1118.9,539.7z M1125.5,545.7
			c-0.4,0.6-1.6,0.8-1.7,0.4c-0.1-0.3,0.2-0.8,0.5-1c0.3-0.2,0.7,0,1.1,0C1125.4,545.3,1125.5,545.6,1125.5,545.7z M1130.8,540
			c-0.2,0-0.5-0.1-0.5-0.3c-0.2-0.5,0.1-0.8,0.7-0.6c0.4,0.1,0.7,0.4,1.1,0.6C1131.7,539.8,1131.2,539.9,1130.8,540z M1135.4,519.7
			c-1.1,0.8-2.1,1.8-3.1,2.6c-1.5,1.2-3,2-5,1.1c-1.2-0.6-2.1,0.2-2.9,1.1c-0.5,0.5-1.2,0.2-1.5-0.7c-0.2-0.4-0.1-0.9-0.3-1.3
			c-0.2-0.3-0.6-0.5-0.9-0.7c-0.1-0.1-0.4,0.2-0.5,0.3c-0.1,0.2-0.2,0.4-0.3,0.6c-0.2,0.9-0.5,1.8-1.5,2c-0.4,0.1-0.9,0.1-1.3-0.1
			c-1-0.5-1.4-1.7-1-3c0.4-1.3,0.8-2.6,1.4-3.8c0.8-1.7,1.9-1.9,3.7-0.6c0.2,0.1,0.3,0.3,0.5,0.5c0.9,0.6,1.9,0.5,2.3-0.2
			c0.6-1,1-2,1.6-3c0.2-0.3,0.8-0.5,1.1-0.5c0.3,0.1,0.6,0.6,0.7,0.9c0.1,0.4-0.1,0.9-0.2,1.3c0,0.4-0.1,1,0.2,1.3
			c0.4,0.4,1,0.9,1.6,0.9c2.3,0,2.9-1.2,2-3.6c-0.2-0.6-0.7-1.3,0.2-1.7c0.8-0.4,2.1-0.2,2.5,0.4c0.3,0.4,0.6,0.7,0.7,1.1
			c0.3,0.8,0.7,1.7,0.9,2.6C1136.3,518.1,1136.3,519,1135.4,519.7z M1139.4,516.5c1.4-1.6,0.7-3.4,0.7-5.2c0-0.7,1-1.7,1.8-1.8
			c2.7-0.4,4.2,0.7,4.5,3.7s-1.8,5.6-5.1,6c-0.6,0.1-1.4,0-1.9-0.4C1138.5,518.1,1138.7,517.2,1139.4,516.5z"/>
		<path id="XMLID_228_" class="st0" d="M889.8,229.4L889.8,229.4c0.1,0.1,0.2,0.3,0.3,0.4C890,229.7,889.9,229.6,889.8,229.4z"/>
		<path id="XMLID_227_" class="st0" d="M1002.9,584.5c0.1,0,0.3,0,0.4,0l-0.4,0.2V584.5z"/>
		<path id="XMLID_220_" class="st0" d="M395.6,713.5c9.2,3.4,18.8,5.4,27.8,9.4c1.2,0.6,2.6,0.7,4,1c2.7,0.7,5.3,1.2,8-0.3
			c0.9-0.5,2.2-0.5,3.3-0.6c10.2-0.5,20.5-0.9,30.7-0.8c6.2,0,12.3-0.8,18.3-2.2c12.4-3,24.5-7,35.9-12.9c1.4-0.7,2.8-1.5,4.3-2.1
			c8.7-3.7,16.1-9.4,23.3-15.4c4.4-3.7,8.5-7.6,12.9-11.2c6.8-5.5,12.3-12.1,17.4-19.2c6.8-9.5,11.9-19.9,16.7-30.5
			c0.7-1.7,1.3-3.4,1.9-5.1c1-2.8,2-5.6,3-8.3c0.9-2.4,1.9-4.5,4-6.2c1.2-0.9,1.8-2.6,2.4-4.1c1-2.3,1.7-4.7,2.6-7
			c1.1-2.7,2.1-5.5,4.9-7.2c0.9-0.5,1.3-1.8,1.9-2.7c0.8-1.1,1.4-2.4,2.4-3.3c4.4-3.7,8.6-7.5,13.3-10.7c7.3-4.9,15.5-7.7,24.1-9.2
			c5.4-0.9,10.8-1.5,16.3-2c5-0.5,10-0.4,14.7,1.7c2.3,1,4.8,1.4,7.3,0.5c1.6-0.6,3.1,0,4.4,1.2c0.7,0.6,1.4,1.1,2.2,1.7
			c8.9,6.4,17.8,12.7,28.8,15.3c0.4,0.1,0.8,0.3,1.3,0.5c6.8,2.7,14.1,3.8,21.2,5.1c1.8,0.3,3.7,0.4,5.4-0.5
			c3.1-1.6,6.6-1.7,9.9-2.2c0.3,0,0.9,0.4,0.9,0.6c0,0.4-0.3,0.9-0.6,1.1c-0.9,0.7-1.9,1.3-2.9,1.8c-7.7,4-15.3,8.1-23.2,11.6
			c-15.7,6.8-30.7,15-46.1,22.4c-13.8,6.6-26.8,14.6-40.1,22.1c-11.1,6.2-22.2,12.6-33.8,18c-6,2.8-11.9,5.7-17.7,8.8
			c-9.2,4.9-18.4,10.1-27.5,15.1c-7.8,4.3-15.5,8.7-23.5,12.6c-9.2,4.5-18.3,9.4-26.8,15c-8.2,5.4-16.6,10.4-25.1,15.3
			c-5.1,3-10.2,6.1-15.2,9.1c-4.9,2.9-9.6,6.1-14.6,8.8c-10.9,5.8-21.3,12.3-31.8,18.7c-1.3,0.8-2.6,1.8-3.8,2.9
			c-1.7,1.5-1.6,3.8-0.1,5.5c1.4,1.5,3,2,5,1.5c2.9-0.7,5.5-2.2,8-3.7c8.4-5,16.8-10.1,25.2-15.1c4.3-2.6,8.7-5,13-7.6
			c5.7-3.3,11.4-6.7,17-10.1c9.2-5.5,18.6-10.6,27.6-16.4c7.5-4.8,15.2-9.3,22.9-13.6c7.3-4.2,14.9-7.9,22.3-12
			c10-5.5,19.9-11.2,29.9-16.5c8-4.3,16.3-8.2,24.4-12.3c8.8-4.3,17.6-8.6,25.8-14c1.5-1,3.2-1.8,4.8-2.7c5.6-3.1,11.2-6.2,16.8-9.2
			c7.8-4.2,15.6-8.5,23.5-12.6c7.7-4,15.5-7.8,23.2-11.6c6.7-3.3,13.5-6.7,20.3-9.9c4.3-2.1,8.8-3.8,13.1-5.9
			c7.1-3.5,14.2-7.3,21.3-10.9c8.9-4.6,17.8-9.2,26.7-13.8c14.4-7.4,28.5-15.3,43.4-21.6c10.1-4.2,19.6-9.7,29.7-13.8
			c7-2.8,13.8-5.9,21.1-7.8c2.9-0.7,5.6-1.7,8.3-3c8.6-4.1,17.5-7.8,26.6-10.8c8.2-2.8,16.4-5.7,24.1-9.6c2.4-1.2,4.7-2.8,6.9-4.3
			c1.2-0.8,1.7-2.1,1.2-3.6c-0.3-1.1-0.9-2.2-0.3-3.3c1.9-3.6,1.1-7.1-0.5-10.5c-2.7-5.8-5.3-11.6-8.4-17.2c-1.8-3.2-2.7-6.2-1-9.7
			c0.1-0.2,0.1-0.4,0.2-0.7c0.2-1-0.5-2.3-1.5-2.8c-0.6-0.3-1.3-0.4-1.9-0.6c-3.4-1.2-5.8-3.5-7-7c-0.6-1.7-1.4-3.4-2-5.1
			c-0.6-1.5-1.5-2.9-2.8-3.8c-2.7-1.6-4.1-4.2-5.6-6.8c-2.4-4.4-4.9-8.8-7.4-13.1c-2.9-5.1-5.7-10.4-9-15.3
			c-4.4-6.6-9.4-12.9-14-19.4c-2.5-3.5-5-7-6.9-10.9c-2.4-4.9-5-9.7-8.3-14.1c-2.7-3.7-5.4-7.3-7.8-11.2c-3.3-5.2-6.3-10.6-9.5-15.8
			c-2.8-4.4-5.8-8.7-8.7-13.1c-2.4-3.6-5.1-7-7.4-10.7c-4.8-7.5-9.4-15.1-14-22.6c-0.7-1.1-1.4-2.3-2.3-3.3
			c-4.3-4.5-7.3-9.9-10.5-15.1c-2.5-4-4.8-8.3-7.1-12.5c-0.7-1.2-1.6-2.3-1.9-3.6c-0.6-3-2.2-5.5-3.7-8c-0.7-1.2-1.5-2.4-1.8-3.7
			c-0.8-3.2-1.7-6.1-4.9-7.7c-0.4-0.2-0.6-0.7-0.8-1.1c-2.2-3.5-4.6-6.8-6.6-10.4c-3.9-6.9-8-13.8-12.4-20.4
			c-4.1-6.3-7.8-12.9-12.5-18.8c-0.8-1.1-1.6-2.3-2.6-3.1c-0.6-0.5-1.7-0.7-2.5-0.6c-0.9,0.1-1.7,0.6-2.5,1.1c-1,0.6-2,1.1-3.2,0.7
			c-3.5-1.1-6.7,0.2-9.9,1.5c-5,2.1-10,4.3-15.1,6.4c-4.7,1.9-9.4,3.5-14.1,5.4c-2.9,1.2-6,2.2-8.1,4.8c-0.5,0.7-1.5,1.1-2.3,1.5
			c-4.7,2.2-9.5,4.4-14.3,6.6c-6.6,3-13.4,5.8-19.8,9.2c-8.2,4.4-16.5,8.7-25,12.6c-1.4,0.7-2.8,1.5-4.2,2.3
			c-5.2,3.3-10.4,6.6-15.6,9.8c-10.4,6.2-20.4,12.8-31,18.7c-0.8,0.4-1.5,1-2.3,1.4c-6.7,3.9-13,8.4-19.8,12.2
			c-7,3.9-13.6,8.3-20.3,12.6c-1.3,0.8-2.7,1.7-3.9,2.7c-3.6,2.9-7.6,5-12.2,5.7c-2.8,0.4-4.6,1.6-5.2,4.5c-0.2,1-1.3,1.9-2.1,2.6
			c-1.2,1-2.6,1.8-4,2.6c-7.5,4.8-15.1,9.3-22.5,14.3c-16.7,11.2-34.8,19.8-53,28.3c-3.1,1.5-6.2,2.8-9.1,4.7
			c-1.1,0.7-2.3,1.5-3.6,2c-7,2.9-13.4,6.7-20.1,10.3c-5.8,3.1-11.7,6.1-17.5,9.2c-7.8,4.3-15.7,8.4-23.2,13.1
			c-8.5,5.3-17.1,10.4-25.3,16.2c-4.6,3.3-9.6,6.1-14.5,9c-10.7,6.5-21.4,13-32.2,19.4c-4.9,2.9-10,5.5-14.9,8.3
			c-14.9,8.4-29.8,16.7-44.7,25.1c-10.7,6-21.4,12.1-31.8,18.7c-3.6,2.3-7.2,4.7-11.2,6.5c-1.2,0.6-2.4,1.4-3.5,2.1
			c-1.8,1.2-1.9,2.4-0.4,3.8c2.1,2,4.3,3.5,7.3,2.3c1.4-0.5,2.6-0.2,3.9,0.4c5.1,2.5,10.5,4.2,16,5.9c9.6,2.9,19.1,5.9,28.7,9
			c7.6,2.4,15.1,5.2,22.7,7.5c5,1.5,6.3,2.1,5.1,8.1c-2.1,10.3-2.9,20.7-1.9,31.2c0.6,6.6,1.2,13.2,1.7,19.7
			c0.1,1.8,0.4,3.6,1.5,5.2c2.4,3.6,3,7.6,3.1,11.7c0.1,2.5,0.4,5,0.6,7.5c0.8,5,2.1,9.8,3.5,14.6c2.8,9.1,7,17.3,12.8,24.7
			c3.3,4.1,6.4,8.3,9.2,12.7c1.7,2.7,3.7,5.2,5.6,7.7c4,5.5,9,10.3,13.7,15.2c5.3,5.4,11,10.2,17.5,14.1c5.6,3.4,11.2,7.1,16.7,10.7
			C386.5,709.4,390.9,711.7,395.6,713.5z M776,584.7c-0.7,0.1-0.9-0.2-0.5-0.5c0.1-0.1,0.4-0.2,0.6-0.1c0.2,0,0.3,0.2,0.4,0.3
			C776.4,584.5,776.2,584.7,776,584.7z M805.3,555.3c-3.5,2.5-7.2,4.8-10.8,7.2c-1.5,1-3.3,1.9-4.3,3.3c-1.8,2.5-4.2,3.4-6.9,3.9
			c-4.9,0.9-9.9,1.6-14.8,2.4V572c-3.4,0.5-6.8,0.9-10.2,1.4c-1.6,0.2-3.4,0.3-4.6,1c-2.4,1.5-4.7,1.3-7.1,0.4
			c-1.7-0.6-3.5-1.1-5.3-1.5c-4.1-0.9-7.8-2.5-11.4-4.5c-3.4-1.9-6.7-3.8-10.3-5.4c-3.5-1.6-6.5-4.2-9-7.2c-2.9-3.5-5.9-7-9.7-9.6
			c-1.1-0.7-1.9-2-2.6-3.1c-2.7-4.2-5.4-8.4-8.1-12.7c-0.8-1.3-1.7-2.7-2.3-4.2c-2-4.8-3.9-9.7-5.8-14.6c-0.6-1.5-1.1-3.1-0.7-4.7
			c0.7-2.7,0.2-5.4-0.2-8.1c-0.3-2-0.6-4.1-0.9-6.1c-0.3-2.1-0.2-4,0.9-6c0.8-1.4,1.3-2.9,1.6-4.5c0.9-4.2,1.6-8.5,2.3-12.8
			c1.3-8.3,4.8-15.7,8.8-22.8c2.3-4,5.9-6.9,9.2-10c2.3-2.2,4.9-4.1,7.4-6.1c3.6-2.8,7.4-5.3,11.4-7.5c8.4-4.6,17.3-8.2,26.4-11.1
			c1.3-0.4,2.6-0.8,4-1c7.4-1.3,6.7-2.2,15.4,0.6c6.3,2,12.6,3.9,18.9,6.1c7.1,2.5,13.7,6,19.3,11.3c4,3.7,8.2,7.2,11.8,11.3
			c6.5,7.3,11.1,15.4,13.6,24.9c3,11.4,3.8,22.9,3.1,34.6c-0.2,3.5-1,6.7-2.5,9.8c-2.3,5-4.4,10-6.3,15.1c-1.5,4.1-3.4,8-5.2,11.9
			C817.2,544.7,811.8,550.5,805.3,555.3z M483.8,350.8c4.8-2,9.5-4.3,14.2-6.7c12.2-6.3,23.9-13.2,35.3-20.8c4-2.6,8.1-5.1,12.1-7.6
			c0.5-0.3,1-0.5,1.4-0.6c5.5-3.9,11.3-7.3,17.2-10.4c0.1-0.1,0.2-0.3,0.3-0.4c0.6-0.7,1.3-1.3,2.1-1.8c5.7-3.8,11.3-7.6,17.1-11.2
			c10.4-6.5,21-12.8,31.4-19.4c9.4-6,19.1-11.5,28.7-17.2c2.3-1.4,4.6-3,6.9-4.4c2-1.1,4.1-2,6.1-2.9c0.8-0.3,1.7,0.2,1.9,1.1
			c4.5-3.2,9.2-5.5,14.4-7.6c-0.1-2,0.4-3.6,2.5-4.5c2.9-1.3,5.7-2.8,8.5-4.2c0.8-0.4,1.8,0.3,2,1.3c0.1,0.4,0.2,0.8,0.2,1.2
			c2.4-1.3,4.7-2.6,7-4c0-0.4,0-0.8-0.1-1.2c-0.1-1,0.4-1.8,1.1-2.3c1.3-0.9,2.6-1.8,4.1-2.5c3.5-1.7,7-3.3,10.5-4.9
			c1-0.4,1.9-0.3,2.5,0.2c2.6-1.5,5.2-3,7.8-4.6c6.5-3.9,12.7-8.3,19.3-12c9-5,17.7-7.9,27.8-9.3l0,0c0.3-0.1,0.5-0.3,0.8-0.4
			c0.4-0.2,0.8,0,1.2,0.3c5.2,0.2,10.5,3.4,14.1,6.8c4.1,3.8,5.8,9.1,6.5,14.5c0,0,0,0,0,0.1c-0.2-2.6-0.1-1.2,0.2,0.3
			c1.9,3.3,3.9,6.6,5.8,9.8c1,1.4,2.1,2.8,3.1,4.3c6,8.7,9.8,18.9,13.7,28.7c0.5,1.3,1,2.6,1.5,3.8c0.3,0.6,1.5,3.1,1.9,3.8
			c1.7,3,3.8,5.8,5.8,8.6c0.1,0.1,0.1,0.2,0.2,0.3c0.1-0.3,0.2-0.5,0.3-0.6c0.8-0.3,1.3,0.3,1.6,0.9c5.2,8.2,10.8,16.3,15.6,24.8
			c4.6,8.1,9.3,16.2,14.1,24.1c0.8,1.4,1.7,2.7,2.3,4.2c0.2,0.4,0.4,0.8,0.6,1.3c0.2,0.3,0.5,0.5,0.7,0.8c7,8.3,12.1,16.3,15.7,26.6
			c0.7,2,1.4,4,2.1,6.1l0,0c-0.1-0.1-0.1-0.3-0.2-0.4c0.1,0.2,0.3,0.5,0.5,0.8c0.5,0.6,1.1,1.2,1.6,1.8c1.2,1.3,2.4,2.6,3.6,3.9
			c2.8,3.4,5.1,6.7,7.1,10.1c0.1-1.1,0.3-2.2,0.4-3.3c0.6,0.2,1.2,0.3,1.4,0.6c3.3,4.9,6.5,9.8,9.7,14.8c1.8,2.9,3.6,5.8,5.1,8.9
			c3.2,6.8,7.3,13.1,11.5,19.3c1.4,2.1,2.9,4.1,4.2,6.2c2.3,3.7,4.7,7.2,8.1,10.1c1.6,1.4,2.6,3.2,3.5,5c2.6,5,5.2,10.1,7.9,15.1
			c0.6,1.2,0.1,2.2-1.1,2.6c7.3,5.2,10.7,12.7,13.4,20.6l0,0c1.4,2.9,3,5.6,4.4,8.5c0.8,1.6,1.6,3.3,2.3,4.9c0.3,0.8-0.4,2-1.3,2
			c-0.1,0-0.3,0-0.4,0.1c0.4,6.5-6,12.8-12.3,12.6c-4.7-0.2-9.5,1.2-15,2.7c1.5,0,3.1-0.1,4.6-0.2c2.7-0.2,5.4-0.1,8.4-0.2
			c-0.4,0.6-0.5,0.9-0.7,0.9c-2.3,0.8-4.7,1.7-7,2.5c-3,1-6,1.9-8.5,4c-0.8,0.7-1.9,1.2-3,1.6c-6.5,2.7-13,5.4-19.5,8
			c-1,0.4-2.2,0.6-3.3,0.9c-0.4,0.1-1.1-0.2-1.5-0.6c-4,2.4-8.8,3.9-13.6,4.4c0,1.2-0.6,2.1-1.7,2.6c-1,0.5-2,1.1-3.1,1.4
			c-7.8,2.6-15.2,6-22.6,9.6c-4.7,2.3-9.6,4.2-14.3,6.4c-5,2.3-9.9,4.6-14.9,6.9c-1,0.5-2.1,0.7-3.2,1c-0.2,0-0.5-0.1-0.6-0.3
			s-0.1-0.4,0-0.6c0.5-1.8,2.1-2.9,3.3-4.3c6.9-7.9,13.2-16.3,16.7-26.4c1.9-5.4,3.8-10.7,4.7-16.4c0.3-1.6,1.2-2.2,2.9-2.1
			c0,0,0,0,0.1,0c-0.4-1.3-0.8-2.8-1-4.3c-0.1-1-0.1-1.9,0.1-2.8c-1-0.7-1-1.7-1-2.6c0-0.7,0.1-1.4,0.4-2c1.5-3.3,1.4-6.6,0.9-10.1
			c-0.4-3.2-0.9-6.3-1.3-9.5c-0.1-0.9-0.2-1.8-0.3-2.7s0.7-1.9,1.5-2h0.1c-0.1-0.8-0.3-1.6-0.4-2.4c-1.7-2.5-2.9-5.4-3.5-8.5
			c-1.5,0-1.9-0.6-2.6-3c-2.8-8.7-7.9-15.8-14.1-22.2c-3.8-3.9-7.2-8.2-10.9-12.2c-1.2-1.3-2.5-2.6-4-3.6
			c-5.2-3.3-10.4-6.6-15.6-9.7c-3.9-2.3-4.8-2.2-5.3-4.9c-2-0.4-4.1-0.9-6.1-1.4c-17-4.7-79.3-31.1-235.4-29.4
			c0.4,0.1,0.8,0.3,1.2,0.6c0.2,0.1,0.2,0.4,0.2,0.6s-0.2,0.4-0.4,0.5c-2,0.4-4,0.8-6,1c-6.8,0.8-13.6,1.6-20.4,2.4
			c0,0.1,0,0.1,0,0.2c-8.6,1-17.2,2-25.8,2.9c-1.5,0.2-2.6-0.4-3.3-1.9c-3.5-8-8.2-15.2-13.7-21.9c-1-1.2-1.9-2.6-2.8-3.9
			C480.3,353.2,480.5,352.2,483.8,350.8z M303.1,508.1c-0.4,1.6-1.6,2.3-3.1,2c-2.7-0.6-5.3-1.3-7.9-2.1c-2.8-0.9-5.7-1.8-8.4-2.9
			c-10.1-4.2-20.7-6.8-31.2-10c-3.7-1.1-7.2-2.6-10.8-4c-0.2-0.1-0.4-0.9-0.3-1.1c0.3-0.6,0.8-1.1,1.4-1.4
			c10-5.8,20.1-11.7,30.1-17.5c1.4-0.8,2.8-1.5,4.2-2.4c14.1-8.4,28.4-16.3,42.8-24.2c15.2-8.3,29.8-17.5,44.5-26.7
			c8.3-5.2,16.6-10.3,24.8-15.7c14.1-9.2,28.9-17.3,43.9-25c10.7-5.5,21.3-11.3,31.9-17c1.2-0.6,2.4-1.2,3.7-1.8
			c0.7-0.3,2.1,0.1,2.5,0.8c0.7,1.2,1.5,2.3,2.1,3.5c3,5.9,6.5,11.5,10.6,16.7c1.4,1.8,2.6,3.7,3.8,5.4c-0.2,0.7-0.3,1.2-0.5,1.5
			c-0.5,0.4-1.2,0.7-1.8,0.9c-2,0.5-4,1-6,1.3c-7.4,1.3-14.7,3.2-21.8,5.5c-13.2,4.2-26.4,8.5-39.4,13.4
			c-12.6,4.8-24.9,10-36.7,16.5c-4.2,2.3-8.5,4.4-12.6,6.9c-12.2,7.2-23.6,15.4-33.1,26.1c-0.9,1-2,1.9-2.7,3.1
			c-3.5,5.9-8.4,10.7-12.6,16.1c-3.2,4.1-6.4,8.3-9.2,12.7C307.4,494.7,304.8,501.2,303.1,508.1z M366.3,674.6
			c-0.7-0.5-1.7-0.9-2.5-0.8c-2.1,0-3.3-1.3-4.5-2.6c-5.8-6.7-11.5-13.5-17.3-20.2c-1.5-1.7-2.8-3.5-4.7-4.9c-2.6-1.9-4-5-5.5-7.7
			c-1.9-3.6-3.9-7.2-4.1-11.5c-0.1-1.8-1.1-3.4-1.9-5.1c-2.9-5.9-5.8-11.9-8.3-18c-4.4-10.9-5.9-22.4-5.4-34.2
			c0.2-3.9,0.5-7.7,0.6-11.6c0.2-5.7,0.2-11.4,0.4-17.1c0.1-3.6,0.4-7.3,0.8-10.9c0.4-4.1,1.8-8,3.7-11.6c0.6-1.2,1.3-2.4,1.7-3.7
			c2.6-8.5,6.7-16.4,9.8-24.8c1.1-3,2.8-5.7,4.8-8.2c4.7-5.6,9.3-11.2,14-16.8c5.5-6.5,12-11.8,18.8-16.8c6.2-4.6,12.9-8.6,19.9-12
			c5.3-2.6,10.6-5.3,16-7.8c7.8-3.7,16-6.7,24.2-9.4c5.8-1.9,11.6-4.2,17.3-6.3c0.4-0.2,0.9-0.2,1.3-0.5c5.2-3.6,11.4-4.5,17.3-5.9
			c8.2-1.9,16.5-3.6,24.7-5.3c3.3-0.7,6.7-1.3,10.1-1.8c7.2-1,14.4-2.1,21.4-4.4c3.2-1.1,6.7-1.4,10.1-1.8c4.7-0.6,9.5-0.8,14.3-1.4
			c13.1-1.6,26.3-2.6,39.5-2.9c7.5-0.2,15-0.3,22.5-0.5c2.5-0.1,5-0.5,7.5-0.6c4.6-0.1,9.1,0,13.7,0c10.9,0,21.9,0.5,32.7,2.2
			c3.4,0.5,6.8,0.9,10,2c6.6,2.2,13.4,2.5,20.2,2.7c3.4,0.1,6.8,0,10.3,0c2.1,0,4,0.3,5.9,1.4c1.7,1,3.8,1.4,5.8,1.8
			c4.4,1,8.9,1.8,13.4,2.7c1.6,0.3,3.1,0.8,4.6,1.3c0.4,0.1,0.7,0.5,1.9,1.2c-2.1,1.4-3.7,2.6-5.6,3.5c-12.5,5.9-23.4,14-33.5,23.3
			c-8.5,7.9-14.4,17.6-19.1,28.1c-4.8,10.8-6.8,22.2-7.6,33.8c-0.3,3.7,0.1,7.3,1.9,10.6c1.3,2.5,1.8,5.1,2,7.9
			c0.5,6.9,2.2,13.5,4.8,19.8c1.1,2.5,2.4,4.9,3.7,7.3c0.5,1,1,2,1.5,3.1c0.3,0.7-0.1,2-0.8,2.4c-3.8,2.5-7.8,4.7-12.7,4.2
			c-2.5-0.2-5,0.4-7.4,1.1c-2,0.6-4,1.1-6,1.5c-6.3,1.2-12.3,3.6-18,6.5c-5.9,3-11.7,6.1-16.7,10.6c-6.4,5.9-12.5,12-16.2,20.1
			c-0.6,1.2-1.3,2.4-2,3.6c-0.5,0.7-1.1,1.7-1.8,1.9c-3.1,1-3.9,3.5-4.7,6.2c-1.7,6.1-3.5,12.3-6.2,18.1c-0.5,1-1,2.4-1.8,2.8
			c-2.1,1.1-2.8,2.9-3.2,4.9c-0.2,0.7-0.3,1.3-0.5,2c-1.6,5.8-4.2,10.9-7.9,15.7c-6,8-12.3,15.8-18.5,23.7
			c-4.7,5.9-10.3,10.9-16.3,15.5c-1.3,0.9-2.6,1.9-4.1,2.4c-4.5,1.3-8.2,3.9-12,6.4c-2.8,1.9-5.7,3.7-8.7,5.5
			c-6.9,4.1-14.2,7.1-22.1,9c-5.8,1.4-11.5,2.9-17.2,4.3c-3.8,1-7.5,1.4-11.5,1c-6.1-0.6-12.3-0.6-18.4-1c-3.9-0.3-7.7-0.9-11.5-1.5
			c-7.1-1-13.7-3.5-20-6.7c-1.2-0.6-2.4-1.3-3.6-1.9c-1.3-0.6-2.6-0.8-3.9,0c-1.5,0.9-3,0.7-4.5-0.1c-5-2.3-9.6-5.2-14.2-8.3
			c-3.6-2.4-7-5.1-10.4-7.7C373.2,679.8,369.8,677.1,366.3,674.6z"/>
		<path id="XMLID_219_" class="st0" d="M758.3,302.3c-0.4-0.5-0.7-1-1-1.6c-0.6,0.4-1.1,0.7-1.7,1c1,0.6,1.9,1.2,2.7,1.9
			C758.3,303.1,758.3,302.7,758.3,302.3z"/>
		<path id="XMLID_218_" class="st0" d="M657.4,351c-1,0.4-2,0.8-3,1.3c1.1,0.2,2.1,0.3,3.2,0.5C657.5,352.2,657.4,351.6,657.4,351z"
			/>
	</g>
	<polygon id="XMLID_216_" class="st1" points="324.1,436.4 466.4,350.1 500.9,397 520.6,470.9 421.5,516.2 	"/>
	<g id="XMLID_210_">
		<circle id="XMLID_215_" class="st2" cx="620.5" cy="238.4" r="11.3"/>
		<g id="w6zakH_4_">
			<path id="XMLID_211_" class="st3" d="M615.6,240.3c0,2.7,2.2,4.8,4.8,4.8c2.7,0,4.8-2.2,4.8-4.8c0-1.1-0.3-1.9-0.9-2.9
				c-1.2-2-2.1-3.2-3.6-5.9c-0.1-0.1-0.2-0.2-0.3-0.2c-0.1,0-0.2,0.1-0.3,0.1c0,0,0,0.1-0.1,0.1c-0.1,0.4-3.1,5.1-4.1,6.9
				C615.8,239,615.6,239.6,615.6,240.3z M624.2,237.2L624.2,237.2C624.2,237.2,624.2,237.3,624.2,237.2z"/>
		</g>
	</g>
	<g id="XMLID_202_">
		<circle id="XMLID_209_" class="st3" cx="415.5" cy="699.2" r="11.3"/>
		<g id="XMLID_206_">
			<path id="XMLID_208_" d="M422.6,690.4c0,0.9,0.2,1.8,0.6,2.8c1.8,3.9,0.3,6.3,0.2,6.4c-0.1,0.1-0.3,0.2-0.4,0.2s-0.2,0-0.3-0.1
				c-0.2-0.1-0.3-0.5-0.1-0.7c0.1-0.1,1.2-2.1-0.3-5.4c-0.6-1.4-0.7-2.8-0.7-3.9c-1.8-1.1-3.9-1.8-6.1-1.8
				c-6.3,0-11.3,5.1-11.3,11.3c0,6.3,5.1,11.3,11.3,11.3c6.3,0,11.3-5.1,11.3-11.3C426.9,695.6,425.2,692.4,422.6,690.4z"/>
			<path id="XMLID_207_" class="st3" d="M422.3,693.5c1.5,3.4,0.3,5.4,0.3,5.4c-0.1,0.2-0.1,0.5,0.1,0.7c0.1,0.1,0.2,0.1,0.3,0.1
				c0.2,0,0.3-0.1,0.4-0.2c0.1-0.1,1.6-2.5-0.2-6.4c-0.4-0.9-0.6-2.8-0.6-2.8l-1-0.7C421.6,689.7,421.7,692.2,422.3,693.5z"/>
		</g>
		<rect id="XMLID_205_" x="408.6" y="697.8" class="st3" width="3" height="3"/>
		<rect id="XMLID_204_" x="412.6" y="697.8" class="st3" width="8.3" height="3"/>
		<path id="XMLID_203_" class="st3" d="M424.6,699.5h-0.1c-0.1-0.1-0.1-0.2-0.1-0.3c0,0,1.1-1.7,0.2-4.5c0-0.1,0-0.3,0.2-0.3
			c0.1,0,0.3,0,0.3,0.2c1,3.1-0.2,4.9-0.2,5C424.8,699.5,424.7,699.5,424.6,699.5z"/>
	</g>
	<g id="XMLID_199_">
		<circle id="XMLID_201_" class="st4" cx="822.8" cy="-35.2" r="11.3"/>
		<g class="st5">
			<path class="st3" d="M815.8-39.1h1.6l2.5,7.5h-1.7l-0.4-1.3h-2.3l-0.4,1.3h-1.7L815.8-39.1z M817.2-34.5l-0.7-2.1l-0.7,2.1H817.2
				z"/>
		</g>
		<g class="st5">
			<path class="st3" d="M821.3-37.2h-1.8V-39h5.1v1.8h-1.8v5.7h-1.6V-37.2z"/>
		</g>
		<g class="st5">
			<path class="st3" d="M825.9-39h1.7l1.4,2.9l1.4-2.9h1.7v7.5h-1.6v-4.3l-1.5,2.9h0l-1.5-2.9v4.3h-1.6V-39z"/>
		</g>
	</g>
	<g id="XMLID_196_">
		<circle id="XMLID_198_" class="st4" cx="496.9" cy="309.6" r="11.3"/>
		<g class="st5">
			<path class="st3" d="M489.9,305.7h1.6l2.5,7.5h-1.7l-0.4-1.3h-2.3l-0.4,1.3h-1.7L489.9,305.7z M491.4,310.2l-0.7-2.1l-0.7,2.1
				H491.4z"/>
		</g>
		<g class="st5">
			<path class="st3" d="M495.5,307.5h-1.8v-1.8h5.1v1.8h-1.8v5.7h-1.6V307.5z"/>
		</g>
		<g class="st5">
			<path class="st3" d="M500.1,305.7h1.7l1.4,2.9l1.4-2.9h1.7v7.5h-1.6v-4.3l-1.5,2.9h0l-1.5-2.9v4.3h-1.6V305.7z"/>
		</g>
	</g>
	<g id="XMLID_193_">
		<circle id="XMLID_195_" class="st4" cx="822.1" cy="193.3" r="11.3"/>
		<g class="st5">
			<path class="st3" d="M815.1,189.4h1.6l2.5,7.5h-1.7l-0.4-1.3h-2.3l-0.4,1.3h-1.7L815.1,189.4z M816.5,194l-0.7-2.1l-0.7,2.1
				H816.5z"/>
		</g>
		<g class="st5">
			<path class="st3" d="M820.6,191.3h-1.8v-1.8h5.1v1.8h-1.8v5.7h-1.6V191.3z"/>
		</g>
		<g class="st5">
			<path class="st3" d="M825.2,189.4h1.7l1.4,2.9l1.4-2.9h1.7v7.5h-1.6v-4.3l-1.5,2.9h0l-1.5-2.9v4.3h-1.6V189.4z"/>
		</g>
	</g>
	<g id="XMLID_190_">
		<circle id="XMLID_192_" class="st4" cx="770.2" cy="140.1" r="11.3"/>
		<g class="st5">
			<path class="st3" d="M763.2,136.2h1.6l2.5,7.5h-1.7l-0.4-1.3h-2.3l-0.4,1.3h-1.7L763.2,136.2z M764.6,140.8l-0.7-2.1l-0.7,2.1
				H764.6z"/>
		</g>
		<g class="st5">
			<path class="st3" d="M768.7,138H767v-1.8h5.1v1.8h-1.8v5.7h-1.6V138z"/>
		</g>
		<g class="st5">
			<path class="st3" d="M773.3,136.2h1.7l1.4,2.9l1.4-2.9h1.7v7.5h-1.6v-4.3l-1.5,2.9h0l-1.5-2.9v4.3h-1.6V136.2z"/>
		</g>
	</g>
	
		<rect id="XMLID_189_" x="509.1" y="266.4" transform="matrix(-0.8652 0.5014 -0.5014 -0.8652 1183.9561 232.2784)" class="st1" width="103.3" height="17.7"/>
	<g id="XMLID_186_">
		<circle id="XMLID_188_" class="st6" cx="433.8" cy="437" r="11.3"/>
		<g class="st5">
			<path class="st3" d="M426,433.1h1.8l1.3,4.7l1.3-4.7h1.8l-2.4,7.5h-1.5L426,433.1z"/>
		</g>
		<g class="st5">
			<path class="st3" d="M433.6,433.1h1.6v7.5h-1.6V433.1z"/>
		</g>
		<g class="st5">
			<path class="st3" d="M437.1,433.1h2.5c0.4,0,0.7,0.1,1,0.2s0.6,0.3,0.8,0.5c0.2,0.2,0.4,0.5,0.5,0.8c0.1,0.3,0.2,0.7,0.2,1.1v0
				c0,0.4-0.1,0.8-0.2,1.2c-0.1,0.3-0.3,0.6-0.5,0.8c-0.2,0.2-0.5,0.4-0.8,0.5s-0.6,0.2-1,0.2h-0.8v2.1h-1.6V433.1z M439.5,436.9
				c0.3,0,0.5-0.1,0.7-0.3c0.2-0.2,0.2-0.4,0.2-0.7v0c0-0.3-0.1-0.6-0.2-0.7c-0.2-0.2-0.4-0.3-0.7-0.3h-0.8v2H439.5z"/>
		</g>
	</g>
	<g id="XMLID_181_">
		<polyline id="XMLID_185_" class="st1" points="355.4,540.1 312.8,530.1 323.5,484 366.1,494 355.4,540.1 		"/>
		<path id="XMLID_184_" class="st1" d="M355.4,540c7.6-4.6,13-12.1,15-20.8s0.5-17.8-4.3-25.3"/>
		<polyline id="XMLID_183_" class="st1" points="355.4,540.1 353.3,549.3 334.8,544.9 337,535.7 		"/>
		<polyline id="XMLID_182_" class="st1" points="366.1,494 368.3,484.8 349.9,480.5 347.7,489.7 		"/>
	</g>
	<g id="XMLID_176_">
		
			<rect id="XMLID_180_" x="754.3" y="192.2" transform="matrix(-0.889 0.458 -0.458 -0.889 1546.9631 39.0318)" class="st1" width="28.8" height="29.7"/>
		<g id="XMLID_177_">
			<line id="XMLID_179_" class="st7" x1="770.1" y1="200.5" x2="770.1" y2="214.3"/>
			<line id="XMLID_178_" class="st7" x1="763.2" y1="207.4" x2="777" y2="207.4"/>
		</g>
	</g>
	<g id="XMLID_168_">
		<circle id="XMLID_175_" class="st3" cx="1021.6" cy="495.7" r="11.3"/>
		<g id="XMLID_172_">
			<path id="XMLID_174_" d="M1028.8,486.9c0,0.9,0.2,1.8,0.6,2.8c1.8,3.9,0.3,6.3,0.2,6.4c-0.1,0.1-0.3,0.2-0.4,0.2
				c-0.1,0-0.2,0-0.3-0.1c-0.2-0.1-0.3-0.5-0.1-0.7c0.1-0.1,1.2-2.1-0.3-5.4c-0.6-1.4-0.7-2.8-0.7-3.9c-1.8-1.1-3.9-1.8-6.1-1.8
				c-6.3,0-11.3,5.1-11.3,11.3s5.1,11.3,11.3,11.3c6.3,0,11.3-5.1,11.3-11.3C1033,492.1,1031.4,488.9,1028.8,486.9z"/>
			<path id="XMLID_173_" class="st3" d="M1028.5,490.1c1.5,3.4,0.3,5.4,0.3,5.4c-0.1,0.2-0.1,0.5,0.1,0.7c0.1,0.1,0.2,0.1,0.3,0.1
				c0.2,0,0.3-0.1,0.4-0.2c0.1-0.1,1.6-2.5-0.2-6.4c-0.4-0.9-0.6-2.8-0.6-2.8l-1-0.7C1027.8,486.2,1027.8,488.7,1028.5,490.1z"/>
		</g>
		<rect id="XMLID_171_" x="1014.8" y="494.3" class="st3" width="3" height="3"/>
		<rect id="XMLID_170_" x="1018.8" y="494.3" class="st3" width="8.3" height="3"/>
		<path id="XMLID_169_" class="st3" d="M1030.8,496h-0.1c-0.1-0.1-0.1-0.2-0.1-0.3c0,0,1.1-1.7,0.2-4.5c0-0.1,0-0.3,0.2-0.3
			c0.1,0,0.3,0,0.3,0.2c1,3.1-0.2,4.9-0.2,5C1030.9,496,1030.8,496,1030.8,496z"/>
	</g>
	<circle id="XMLID_167_" class="st6" cx="344.9" cy="514.4" r="11.3"/>
	<g class="st5">
		<path class="st3" d="M344.2,512.2l-1,0.3l-0.3-1.3l1.6-0.6h0.8v7.2h-1.2V512.2z"/>
	</g>
	<circle id="XMLID_165_" class="st6" cx="562" cy="274.8" r="11.3"/>
	<g class="st5">
		<path class="st3" d="M558.3,272.7l-1,0.3l-0.3-1.3l1.6-0.6h0.8v7.2h-1.2V272.7z"/>
		<path class="st3" d="M561.7,272.7l-1,0.3l-0.3-1.3l1.6-0.6h0.8v7.2h-1.2V272.7z"/>
	</g>
	<polygon id="XMLID_163_" class="st1" points="349.3,581.4 374.3,628.8 337.2,649.1 312,602.7 	"/>
	<circle id="XMLID_162_" class="st6" cx="342.8" cy="613.8" r="11.3"/>
	<g class="st5">
		<path class="st3" d="M340.2,616l1.9-1.9c0.2-0.2,0.3-0.3,0.4-0.5c0.1-0.1,0.2-0.3,0.3-0.4c0.1-0.1,0.1-0.3,0.2-0.4
			c0-0.1,0.1-0.3,0.1-0.4c0-0.3-0.1-0.5-0.2-0.7s-0.3-0.2-0.5-0.2c-0.2,0-0.4,0.1-0.6,0.2c-0.2,0.2-0.4,0.4-0.6,0.7l-0.9-0.9
			c0.1-0.2,0.3-0.5,0.4-0.6c0.1-0.2,0.3-0.3,0.5-0.5c0.2-0.1,0.3-0.2,0.5-0.3c0.2-0.1,0.4-0.1,0.7-0.1c0.3,0,0.5,0.1,0.8,0.2
			c0.2,0.1,0.4,0.3,0.6,0.4c0.2,0.2,0.3,0.4,0.4,0.7c0.1,0.3,0.1,0.6,0.1,0.9v0c0,0.3,0,0.6-0.1,0.8c-0.1,0.2-0.2,0.5-0.3,0.7
			c-0.1,0.2-0.3,0.4-0.5,0.6c-0.2,0.2-0.4,0.4-0.6,0.7l-0.9,0.9h2.4v1.4h-4.1V616z"/>
	</g>
	<circle id="XMLID_160_" class="st6" cx="407" cy="571.9" r="11.3"/>
	<g class="st5">
		<path class="st3" d="M403.1,569.8l-1,0.3l-0.3-1.3l1.6-0.6h0.8v7.2h-1.2V569.8z"/>
		<path class="st3" d="M407.5,575.5c-0.5,0-0.9-0.1-1.3-0.3c-0.4-0.2-0.7-0.5-0.9-0.9l0.8-1c0.2,0.3,0.4,0.5,0.6,0.6
			c0.2,0.1,0.5,0.2,0.7,0.2c0.2,0,0.4-0.1,0.6-0.2c0.1-0.2,0.2-0.4,0.2-0.6v0c0-0.3-0.1-0.5-0.3-0.7c-0.2-0.2-0.5-0.2-0.8-0.2h-0.5
			l-0.2-1l1.3-1.7h-2.2v-1.4h3.8v1.2l-1.4,1.7c0.2,0,0.4,0.1,0.6,0.2c0.2,0.1,0.3,0.2,0.5,0.4c0.1,0.2,0.3,0.4,0.3,0.6
			c0.1,0.2,0.1,0.5,0.1,0.9v0c0,0.3,0,0.7-0.1,0.9c-0.1,0.3-0.2,0.5-0.4,0.7c-0.2,0.2-0.4,0.4-0.6,0.5
			C408.1,575.4,407.8,575.5,407.5,575.5z"/>
	</g>
	<line id="XMLID_158_" class="st8" x1="744.7" y1="571.2" x2="744.7" y2="571.2"/>
	<polyline id="XMLID_157_" class="st1" points="762.8,524.8 774.3,527.8 771.3,539.2 759.8,536.2 762.8,524.8 	"/>
	<line id="XMLID_156_" class="st8" x1="759.8" y1="536.2" x2="774.3" y2="527.8"/>
	<line id="XMLID_155_" class="st8" x1="762.8" y1="524.8" x2="771.3" y2="539.2"/>
	<polyline id="XMLID_154_" class="st1" points="765.6,510.9 777.4,512.6 775.6,524.2 763.9,522.6 765.6,510.9 	"/>
	<line id="XMLID_153_" class="st8" x1="763.9" y1="522.6" x2="777.4" y2="512.6"/>
	<line id="XMLID_152_" class="st8" x1="765.6" y1="510.9" x2="775.6" y2="524.2"/>
	<polyline id="XMLID_151_" class="st1" points="766.9,496.8 778.8,497.1 778.4,508.9 766.5,508.7 766.9,496.8 	"/>
	<line id="XMLID_150_" class="st8" x1="766.5" y1="508.7" x2="778.8" y2="497.1"/>
	<line id="XMLID_149_" class="st8" x1="766.9" y1="496.8" x2="778.4" y2="508.9"/>
	<polyline id="XMLID_148_" class="st1" points="766.6,482.7 778.4,481.6 779.3,493.4 767.5,494.4 766.6,482.7 	"/>
	<line id="XMLID_147_" class="st8" x1="767.5" y1="494.4" x2="778.4" y2="481.6"/>
	<line id="XMLID_146_" class="st8" x1="766.6" y1="482.7" x2="779.3" y2="493.4"/>
	<polyline id="XMLID_145_" class="st1" points="764.7,468.6 776.3,466.4 778.5,477.9 767,480.1 764.7,468.6 	"/>
	<line id="XMLID_144_" class="st8" x1="767" y1="480.1" x2="776.3" y2="466.4"/>
	<line id="XMLID_143_" class="st8" x1="764.7" y1="468.6" x2="778.5" y2="477.9"/>
	<polyline id="XMLID_142_" class="st1" points="761.2,454.9 772.5,451.3 776,462.6 764.8,466.1 761.2,454.9 	"/>
	<line id="XMLID_141_" class="st8" x1="764.8" y1="466.1" x2="772.5" y2="451.3"/>
	<line id="XMLID_140_" class="st8" x1="761.2" y1="454.9" x2="776" y2="462.6"/>
	<polyline id="XMLID_139_" class="st1" points="756.2,441.5 767.1,436.8 771.9,447.7 761,452.4 756.2,441.5 	"/>
	<line id="XMLID_138_" class="st8" x1="761" y1="452.4" x2="767.1" y2="436.8"/>
	<polyline id="XMLID_137_" class="st1" points="749.9,428.9 760.1,423 766.1,433.2 755.8,439.1 749.9,428.9 	"/>
	<line id="XMLID_136_" class="st8" x1="755.8" y1="439.1" x2="760.1" y2="423"/>
	<line id="XMLID_135_" class="st8" x1="749.9" y1="428.9" x2="766.1" y2="433.2"/>
	<polyline id="XMLID_134_" class="st1" points="742.4,416.7 752.6,410.8 758.6,421 748.3,426.9 742.4,416.7 	"/>
	<line id="XMLID_133_" class="st8" x1="748.3" y1="426.9" x2="752.6" y2="410.8"/>
	<line id="XMLID_132_" class="st8" x1="742.4" y1="416.7" x2="758.6" y2="421"/>
	<polyline id="XMLID_131_" class="st1" points="754.8,549.3 759.2,538.3 770.2,542.7 765.8,553.7 754.8,549.3 	"/>
	<line id="XMLID_130_" class="st8" x1="754.8" y1="549.3" x2="770.2" y2="542.7"/>
	<polyline id="XMLID_129_" class="st1" points="748.1,561.7 753.7,551.3 764.1,556.8 758.6,567.3 748.1,561.7 	"/>
	<line id="XMLID_128_" class="st8" x1="758.6" y1="567.3" x2="753.7" y2="551.3"/>
	<line id="XMLID_127_" class="st8" x1="748.1" y1="561.7" x2="764.1" y2="556.8"/>
	<polyline id="XMLID_126_" class="st1" points="740.7,574.8 746.3,564.4 756.7,570 751.2,580.4 740.7,574.8 	"/>
	<line id="XMLID_125_" class="st8" x1="751.2" y1="580.4" x2="746.3" y2="564.4"/>
	<line id="XMLID_124_" class="st8" x1="740.7" y1="574.8" x2="756.7" y2="570"/>
	<circle id="XMLID_123_" class="st6" cx="773.4" cy="488" r="11.3"/>
	<g class="st5">
		<path class="st3" d="M773,491.6c-0.5,0-0.9-0.1-1.3-0.3c-0.4-0.2-0.7-0.5-0.9-0.9l0.8-1c0.2,0.3,0.4,0.5,0.6,0.6
			c0.2,0.1,0.5,0.2,0.7,0.2c0.2,0,0.4-0.1,0.6-0.2c0.1-0.2,0.2-0.4,0.2-0.6v0c0-0.3-0.1-0.5-0.3-0.7c-0.2-0.2-0.5-0.2-0.8-0.2h-0.5
			l-0.2-1l1.3-1.7h-2.2v-1.4h3.8v1.2l-1.4,1.7c0.2,0,0.4,0.1,0.6,0.2c0.2,0.1,0.3,0.2,0.5,0.4c0.1,0.2,0.3,0.4,0.3,0.6
			s0.1,0.5,0.1,0.9v0c0,0.3,0,0.7-0.1,0.9c-0.1,0.3-0.2,0.5-0.4,0.7c-0.2,0.2-0.4,0.4-0.6,0.5C773.5,491.5,773.3,491.6,773,491.6z"
			/>
	</g>
	
		<rect id="XMLID_121_" x="817.6" y="260.3" transform="matrix(-0.5225 -0.8527 0.8527 -0.5225 1209.2583 1229.2112)" class="st1" width="262.4" height="31.4"/>
	
		<rect id="XMLID_120_" x="965.6" y="435.5" transform="matrix(-0.5225 -0.8527 0.8527 -0.5225 1134.5383 1526.9742)" class="st1" width="58.6" height="20.5"/>
	<circle id="XMLID_119_" class="st6" cx="947.9" cy="274.7" r="11.3"/>
	<g class="st5">
		<path class="st3" d="M947.4,278.2c-0.5,0-0.8-0.1-1.2-0.3c-0.3-0.2-0.6-0.4-0.9-0.8l0.7-1.1c0.2,0.2,0.4,0.4,0.6,0.6
			s0.4,0.2,0.7,0.2c0.3,0,0.5-0.1,0.7-0.3s0.3-0.4,0.3-0.7v0c0-0.3-0.1-0.5-0.3-0.7s-0.4-0.3-0.7-0.3c-0.2,0-0.3,0-0.5,0.1
			c-0.2,0.1-0.3,0.1-0.4,0.2l-0.7-0.6l0.2-3.5h3.4v1.4h-2.4l-0.1,1.2c0.1,0,0.2-0.1,0.3-0.1c0.1,0,0.2,0,0.4,0c0.3,0,0.5,0,0.8,0.1
			s0.4,0.2,0.6,0.4c0.2,0.2,0.3,0.4,0.4,0.7c0.1,0.3,0.2,0.6,0.2,1v0c0,0.4-0.1,0.7-0.2,1c-0.1,0.3-0.2,0.6-0.4,0.8
			c-0.2,0.2-0.4,0.4-0.7,0.5C948,278.2,947.7,278.2,947.4,278.2z"/>
	</g>
	<circle id="XMLID_117_" class="st6" cx="994.7" cy="444.3" r="11.3"/>
	<g class="st5">
		<path class="st3" d="M990.9,442.2l-1,0.3l-0.3-1.3l1.6-0.6h0.8v7.2h-1.2V442.2z"/>
		<path class="st3" d="M995.2,447.9c-0.5,0-0.8-0.1-1.2-0.3c-0.3-0.2-0.6-0.4-0.9-0.8l0.7-1.1c0.2,0.2,0.4,0.4,0.6,0.6
			s0.4,0.2,0.7,0.2c0.3,0,0.5-0.1,0.7-0.3s0.3-0.4,0.3-0.7v0c0-0.3-0.1-0.5-0.3-0.7s-0.4-0.3-0.7-0.3c-0.2,0-0.3,0-0.5,0.1
			c-0.2,0.1-0.3,0.1-0.4,0.2l-0.7-0.6l0.2-3.5h3.4v1.4h-2.4l-0.1,1.2c0.1,0,0.2-0.1,0.3-0.1c0.1,0,0.2,0,0.4,0c0.3,0,0.5,0,0.8,0.1
			s0.4,0.2,0.6,0.4c0.2,0.2,0.3,0.4,0.4,0.7c0.1,0.3,0.2,0.6,0.2,1v0c0,0.4-0.1,0.7-0.2,1c-0.1,0.3-0.2,0.6-0.4,0.8
			c-0.2,0.2-0.4,0.4-0.7,0.5C995.9,447.8,995.6,447.9,995.2,447.9z"/>
	</g>
	
		<rect id="XMLID_115_" x="276.9" y="320.3" transform="matrix(-0.8694 0.4941 -0.4941 -0.8694 766.1425 493.1657)" class="st1" width="82" height="55.1"/>
	
		<rect id="XMLID_114_" x="506.4" y="172.2" transform="matrix(-0.8694 0.4941 -0.4941 -0.8694 1157.7954 68.0385)" class="st1" width="127" height="29.7"/>
	<circle id="XMLID_113_" class="st6" cx="449" cy="266.1" r="11.3"/>
	<g class="st5">
		<path class="st3" d="M449,268h-2.7l-0.2-1.1l3.1-4.5h1v4.4h0.8v1.3h-0.8v1.5H449V268z M449,266.8v-2.2l-1.5,2.2H449z"/>
	</g>
	<circle id="XMLID_111_" class="st6" cx="570.5" cy="187.3" r="11.3"/>
	<g class="st5">
		<path class="st3" d="M570.1,190.9c-0.4,0-0.7-0.1-0.9-0.2c-0.3-0.1-0.5-0.3-0.7-0.6c-0.2-0.3-0.4-0.6-0.5-1
			c-0.1-0.4-0.2-1-0.2-1.7v0c0-0.6,0-1.1,0.1-1.5c0.1-0.5,0.2-0.9,0.5-1.2s0.5-0.6,0.8-0.8c0.3-0.2,0.7-0.3,1.1-0.3
			c0.2,0,0.4,0,0.5,0.1c0.2,0,0.3,0.1,0.4,0.2c0.1,0.1,0.3,0.2,0.4,0.2s0.3,0.2,0.4,0.3l-0.6,1.2c-0.1-0.1-0.2-0.2-0.3-0.2
			c-0.1-0.1-0.2-0.1-0.3-0.2c-0.1,0-0.2-0.1-0.3-0.1c-0.1,0-0.2,0-0.3,0c-0.2,0-0.3,0-0.5,0.1c-0.1,0.1-0.2,0.2-0.3,0.3
			c-0.1,0.1-0.2,0.3-0.2,0.5c-0.1,0.2-0.1,0.4-0.1,0.7c0.1-0.1,0.3-0.2,0.5-0.3c0.2-0.1,0.4-0.1,0.7-0.1s0.5,0,0.8,0.1
			s0.4,0.2,0.6,0.4c0.2,0.2,0.3,0.4,0.4,0.7c0.1,0.3,0.2,0.6,0.2,1v0c0,0.4-0.1,0.7-0.2,1c-0.1,0.3-0.3,0.6-0.4,0.8
			c-0.2,0.2-0.4,0.4-0.7,0.5C570.7,190.8,570.4,190.9,570.1,190.9z M570.1,189.5c0.3,0,0.5-0.1,0.7-0.3c0.2-0.2,0.3-0.4,0.3-0.8v0
			c0-0.3-0.1-0.6-0.3-0.7c-0.2-0.2-0.4-0.3-0.7-0.3s-0.5,0.1-0.7,0.3c-0.2,0.2-0.3,0.4-0.3,0.7v0c0,0.3,0.1,0.6,0.3,0.8
			S569.8,189.5,570.1,189.5z"/>
	</g>
	
		<rect id="XMLID_109_" x="653.3" y="187.7" transform="matrix(-0.8694 0.4941 -0.4941 -0.8694 1390.2991 28.9048)" class="st1" width="76.1" height="21"/>
	<circle id="XMLID_108_" class="st6" cx="691.6" cy="198.5" r="11.3"/>
	<g class="st5">
		<path class="st3" d="M687.9,196.3l-1,0.3l-0.3-1.3l1.6-0.6h0.8v7.2h-1.2V196.3z"/>
		<path class="st3" d="M693,196.1h-2.6v-1.4h4v1.2l-2.5,6h-1.4L693,196.1z"/>
	</g>
	<g id="XMLID_104_">
		<circle id="XMLID_106_" class="st9" cx="655.5" cy="279.6" r="11.3"/>
		<path id="XMLID_105_" class="st3" d="M651.2,286.5v-7.6H649l-1.1-3.8l4.6-2.3h0.8c0,0,0.7,1.2,2,1.2s2.1-1.2,2.1-1.2h0.8l4.8,2.4
			l-1.2,3.6h-2.1v7.7L651.2,286.5z"/>
	</g>
	<g id="XMLID_101_">
		<circle id="XMLID_103_" class="st9" cx="454.9" cy="712.1" r="11.3"/>
		<path id="XMLID_102_" class="st3" d="M450.6,719v-7.6h-2.2l-1.1-3.8l4.6-2.3h0.8c0,0,0.7,1.2,2,1.2c1.4,0,2.1-1.2,2.1-1.2h0.8
			l4.8,2.4l-1.2,3.6h-2.1v7.7L450.6,719z"/>
	</g>
	
		<rect id="XMLID_100_" x="817.6" y="77" transform="matrix(-0.9217 0.3879 -0.3879 -0.9217 1633.6515 -147.5372)" class="st1" width="28.2" height="28.2"/>
	<circle id="XMLID_99_" class="st6" cx="831.8" cy="91.2" r="11.3"/>
	<g class="st5">
		<path class="st3" d="M828.1,89.1l-1,0.3l-0.3-1.3l1.6-0.6h0.8v7.2h-1.2V89.1z"/>
		<path class="st3" d="M832.7,94.8c-0.4,0-0.7-0.1-0.9-0.2c-0.3-0.1-0.5-0.3-0.7-0.6c-0.2-0.3-0.4-0.6-0.5-1c-0.1-0.4-0.2-1-0.2-1.7
			v0c0-0.6,0-1.1,0.1-1.5c0.1-0.5,0.2-0.9,0.5-1.2s0.5-0.6,0.8-0.8c0.3-0.2,0.7-0.3,1.1-0.3c0.2,0,0.4,0,0.5,0.1
			c0.2,0,0.3,0.1,0.4,0.2c0.1,0.1,0.3,0.2,0.4,0.2s0.3,0.2,0.4,0.3l-0.6,1.2c-0.1-0.1-0.2-0.2-0.3-0.2c-0.1-0.1-0.2-0.1-0.3-0.2
			c-0.1,0-0.2-0.1-0.3-0.1c-0.1,0-0.2,0-0.3,0c-0.2,0-0.3,0-0.5,0.1c-0.1,0.1-0.2,0.2-0.3,0.3c-0.1,0.1-0.2,0.3-0.2,0.5
			c-0.1,0.2-0.1,0.4-0.1,0.7c0.1-0.1,0.3-0.2,0.5-0.3c0.2-0.1,0.4-0.1,0.7-0.1s0.5,0,0.8,0.1s0.4,0.2,0.6,0.4
			c0.2,0.2,0.3,0.4,0.4,0.7c0.1,0.3,0.2,0.6,0.2,1v0c0,0.4-0.1,0.7-0.2,1c-0.1,0.3-0.3,0.6-0.4,0.8c-0.2,0.2-0.4,0.4-0.7,0.5
			C833.3,94.7,833,94.8,832.7,94.8z M832.7,93.4c0.3,0,0.5-0.1,0.7-0.3c0.2-0.2,0.3-0.4,0.3-0.8v0c0-0.3-0.1-0.6-0.3-0.7
			c-0.2-0.2-0.4-0.3-0.7-0.3s-0.5,0.1-0.7,0.3c-0.2,0.2-0.3,0.4-0.3,0.7v0c0,0.3,0.1,0.6,0.3,0.8S832.4,93.4,832.7,93.4z"/>
	</g>
	
		<rect id="XMLID_97_" x="745.4" y="80.2" transform="matrix(-0.9462 -0.3236 0.3236 -0.9462 1447.6417 429.3356)" class="st1" width="28.2" height="28.2"/>
	<circle id="XMLID_96_" class="st6" cx="759.5" cy="94.5" r="11.3"/>
	<g class="st5">
		<path class="st3" d="M755.8,92.4l-1,0.3l-0.3-1.3l1.6-0.6h0.8V98h-1.2V92.4z"/>
		<path class="st3" d="M760.5,98.1c-0.4,0-0.7-0.1-0.9-0.2c-0.3-0.1-0.5-0.3-0.7-0.6c-0.2-0.3-0.4-0.6-0.5-1c-0.1-0.4-0.2-1-0.2-1.7
			v0c0-0.6,0-1.1,0.1-1.5c0.1-0.5,0.2-0.9,0.5-1.2s0.5-0.6,0.8-0.8c0.3-0.2,0.7-0.3,1.1-0.3c0.2,0,0.4,0,0.5,0.1
			c0.2,0,0.3,0.1,0.4,0.2c0.1,0.1,0.3,0.2,0.4,0.2s0.3,0.2,0.4,0.3l-0.6,1.2c-0.1-0.1-0.2-0.2-0.3-0.2c-0.1-0.1-0.2-0.1-0.3-0.2
			c-0.1,0-0.2-0.1-0.3-0.1c-0.1,0-0.2,0-0.3,0c-0.2,0-0.3,0-0.5,0.1c-0.1,0.1-0.2,0.2-0.3,0.3c-0.1,0.1-0.2,0.3-0.2,0.5
			c-0.1,0.2-0.1,0.4-0.1,0.7c0.1-0.1,0.3-0.2,0.5-0.3c0.2-0.1,0.4-0.1,0.7-0.1s0.5,0,0.8,0.1s0.4,0.2,0.6,0.4
			c0.2,0.2,0.3,0.4,0.4,0.7c0.1,0.3,0.2,0.6,0.2,1v0c0,0.4-0.1,0.7-0.2,1c-0.1,0.3-0.3,0.6-0.4,0.8c-0.2,0.2-0.4,0.4-0.7,0.5
			C761.1,98,760.8,98.1,760.5,98.1z M760.4,96.7c0.3,0,0.5-0.1,0.7-0.3c0.2-0.2,0.3-0.4,0.3-0.8v0c0-0.3-0.1-0.6-0.3-0.7
			c-0.2-0.2-0.4-0.3-0.7-0.3s-0.5,0.1-0.7,0.3c-0.2,0.2-0.3,0.4-0.3,0.7v0c0,0.3,0.1,0.6,0.3,0.8S760.1,96.7,760.4,96.7z"/>
	</g>
	
		<rect id="XMLID_94_" x="738.1" y="-44.6" transform="matrix(-0.9999 1.587387e-02 -1.587387e-02 -0.9999 1503.8524 -72.9308)" class="st1" width="28.2" height="28.2"/>
	<circle id="XMLID_93_" class="st6" cx="752.3" cy="-30.3" r="11.3"/>
	<g class="st5">
		<path class="st3" d="M752.5-26.7c-0.4,0-0.8-0.1-1-0.2c-0.3-0.2-0.6-0.4-0.8-0.6l0.6-1.2c0.2,0.2,0.4,0.4,0.6,0.5s0.4,0.1,0.6,0.1
			c0.3,0,0.6-0.2,0.8-0.5c0.2-0.3,0.3-0.7,0.3-1.2c-0.1,0.1-0.3,0.3-0.5,0.4s-0.4,0.1-0.6,0.1c-0.3,0-0.6-0.1-0.8-0.2
			s-0.5-0.3-0.6-0.5c-0.2-0.2-0.3-0.4-0.4-0.7c-0.1-0.3-0.1-0.6-0.1-1v0c0-0.4,0.1-0.7,0.2-1c0.1-0.3,0.2-0.6,0.4-0.8
			c0.2-0.2,0.4-0.4,0.7-0.5c0.3-0.1,0.6-0.2,0.9-0.2c0.2,0,0.4,0,0.5,0c0.2,0,0.3,0.1,0.4,0.1s0.2,0.1,0.4,0.2
			c0.1,0.1,0.2,0.2,0.3,0.4c0.1,0.1,0.2,0.3,0.3,0.4c0.1,0.2,0.1,0.4,0.2,0.6c0.1,0.2,0.1,0.5,0.1,0.7c0,0.3,0,0.6,0,0.9v0
			c0,0.6-0.1,1.1-0.2,1.6s-0.3,0.9-0.5,1.2c-0.2,0.3-0.5,0.6-0.8,0.8C753.3-26.8,752.9-26.7,752.5-26.7z M752.8-30.6
			c0.3,0,0.5-0.1,0.7-0.3c0.2-0.2,0.3-0.5,0.3-0.8v0c0-0.3-0.1-0.6-0.3-0.8c-0.2-0.2-0.4-0.3-0.7-0.3c-0.3,0-0.5,0.1-0.7,0.3
			c-0.2,0.2-0.2,0.5-0.2,0.8v0c0,0.3,0.1,0.6,0.3,0.8C752.2-30.7,752.5-30.6,752.8-30.6z"/>
	</g>
	
		<rect id="XMLID_91_" x="752.9" y="-96.5" transform="matrix(-0.9999 1.587387e-02 -1.587387e-02 -0.9999 1532.6273 -176.9627)" class="st1" width="28.2" height="28.2"/>
	<circle id="XMLID_90_" class="st6" cx="766.7" cy="-82.2" r="11.3"/>
	<g class="st5">
		<path class="st3" d="M763.8-84.3l-1,0.3l-0.3-1.3l1.6-0.6h0.8v7.2h-1.2V-84.3z"/>
		<path class="st3" d="M768.6-78.6c-0.4,0-0.7-0.1-1-0.3c-0.3-0.2-0.6-0.4-0.8-0.8s-0.4-0.7-0.5-1.2c-0.1-0.4-0.2-0.9-0.2-1.4v0
			c0-0.5,0.1-1,0.2-1.4c0.1-0.4,0.3-0.8,0.5-1.2c0.2-0.3,0.5-0.6,0.8-0.8s0.6-0.3,1-0.3c0.4,0,0.7,0.1,1,0.3s0.6,0.4,0.8,0.8
			s0.4,0.7,0.5,1.2c0.1,0.4,0.2,0.9,0.2,1.4v0c0,0.5-0.1,1-0.2,1.4c-0.1,0.4-0.3,0.8-0.5,1.2c-0.2,0.3-0.5,0.6-0.8,0.8
			C769.3-78.7,769-78.6,768.6-78.6z M768.6-80c0.2,0,0.4-0.1,0.5-0.2c0.1-0.1,0.3-0.3,0.4-0.5c0.1-0.2,0.2-0.4,0.2-0.7
			c0.1-0.3,0.1-0.6,0.1-0.9v0c0-0.3,0-0.6-0.1-0.9c-0.1-0.3-0.1-0.5-0.3-0.7s-0.2-0.4-0.4-0.5c-0.2-0.1-0.3-0.2-0.5-0.2
			c-0.2,0-0.4,0.1-0.5,0.2c-0.1,0.1-0.3,0.3-0.4,0.5s-0.2,0.4-0.2,0.7c-0.1,0.3-0.1,0.6-0.1,0.9v0c0,0.3,0,0.6,0.1,0.9
			c0.1,0.3,0.1,0.5,0.2,0.7c0.1,0.2,0.2,0.4,0.4,0.5C768.3-80.1,768.4-80,768.6-80z"/>
	</g>
	<circle id="XMLID_88_" class="st6" cx="800.1" cy="139.8" r="11.3"/>
	<g class="st5">
		<path class="st3" d="M800.3,137.5h-2.6v-1.4h4v1.2l-2.5,6h-1.4L800.3,137.5z"/>
	</g>
	<circle id="XMLID_86_" class="st6" cx="319" cy="347.6" r="11.3"/>
	<g class="st5">
		<path class="st3" d="M318.4,351.1c-0.3,0-0.6,0-0.9-0.1c-0.3-0.1-0.5-0.2-0.7-0.4c-0.2-0.2-0.3-0.4-0.5-0.6
			c-0.1-0.3-0.2-0.5-0.2-0.8v0c0-0.4,0.1-0.8,0.2-1.1c0.2-0.3,0.4-0.5,0.7-0.7c-0.2-0.2-0.4-0.4-0.5-0.6c-0.1-0.2-0.2-0.6-0.2-0.9v0
			c0-0.3,0-0.5,0.1-0.8c0.1-0.2,0.2-0.4,0.4-0.6s0.4-0.3,0.6-0.4c0.2-0.1,0.5-0.2,0.8-0.2c0.3,0,0.6,0.1,0.8,0.2
			c0.2,0.1,0.4,0.2,0.6,0.4c0.2,0.2,0.3,0.4,0.4,0.6c0.1,0.2,0.1,0.5,0.1,0.8v0c0,0.4-0.1,0.7-0.2,0.9c-0.1,0.2-0.3,0.4-0.5,0.6
			c0.3,0.2,0.5,0.4,0.7,0.7s0.2,0.6,0.2,1v0c0,0.3-0.1,0.6-0.2,0.9c-0.1,0.3-0.3,0.5-0.5,0.7c-0.2,0.2-0.4,0.3-0.7,0.4
			C318.9,351.1,318.7,351.1,318.4,351.1z M318.4,349.8c0.3,0,0.5-0.1,0.7-0.3c0.2-0.2,0.3-0.4,0.3-0.6v0c0-0.3-0.1-0.5-0.3-0.6
			c-0.2-0.2-0.4-0.2-0.7-0.2c-0.3,0-0.5,0.1-0.7,0.2c-0.2,0.2-0.3,0.4-0.3,0.6v0c0,0.2,0.1,0.5,0.3,0.6
			C317.8,349.7,318.1,349.8,318.4,349.8z M318.4,346.8c0.2,0,0.4-0.1,0.6-0.2s0.2-0.4,0.2-0.6v0c0-0.2-0.1-0.4-0.2-0.6
			c-0.1-0.2-0.3-0.3-0.6-0.3s-0.5,0.1-0.6,0.2c-0.1,0.2-0.2,0.4-0.2,0.6v0c0,0.3,0.1,0.5,0.2,0.6
			C317.9,346.7,318.1,346.8,318.4,346.8z"/>
	</g>
	
		<rect id="XMLID_84_" x="650.4" y="394.9" transform="matrix(-0.9916 -0.1291 0.1291 -0.9916 1270.6066 900.3188)" class="st1" width="28.2" height="28.2"/>
	<circle id="XMLID_83_" class="st6" cx="664.6" cy="409.2" r="11.3"/>
	<g class="st5">
		<path class="st3" d="M660.9,407l-1,0.3l-0.3-1.3l1.6-0.6h0.8v7.2h-1.2V407z"/>
		<path class="st3" d="M663.2,411.4l1.9-1.9c0.2-0.2,0.3-0.3,0.4-0.5c0.1-0.1,0.2-0.3,0.3-0.4c0.1-0.1,0.1-0.3,0.2-0.4
			c0-0.1,0.1-0.3,0.1-0.4c0-0.3-0.1-0.5-0.2-0.7s-0.3-0.2-0.5-0.2c-0.2,0-0.4,0.1-0.6,0.2c-0.2,0.2-0.4,0.4-0.6,0.7l-0.9-0.9
			c0.1-0.2,0.3-0.5,0.4-0.6c0.1-0.2,0.3-0.3,0.5-0.5s0.3-0.2,0.5-0.3c0.2-0.1,0.4-0.1,0.7-0.1c0.3,0,0.5,0.1,0.8,0.2
			c0.2,0.1,0.4,0.3,0.6,0.4c0.2,0.2,0.3,0.4,0.4,0.7c0.1,0.3,0.1,0.6,0.1,0.9v0c0,0.3,0,0.6-0.1,0.8c-0.1,0.2-0.2,0.5-0.3,0.7
			c-0.1,0.2-0.3,0.4-0.5,0.6c-0.2,0.2-0.4,0.4-0.6,0.7l-0.9,0.9h2.4v1.4h-4.1V411.4z"/>
	</g>
	<circle id="XMLID_81_" class="st6" cx="962.4" cy="398" r="11.3"/>
	<g class="st5">
		<path class="st3" d="M958.7,395.9l-1,0.3l-0.3-1.3l1.6-0.6h0.8v7.2h-1.2V395.9z"/>
		<path class="st3" d="M963.9,399.9h-2.7l-0.2-1.1l3.1-4.5h1v4.4h0.8v1.3H965v1.5h-1.2V399.9z M963.9,398.6v-2.2l-1.5,2.2H963.9z"/>
	</g>
	<g id="XMLID_77_">
		<circle id="XMLID_79_" class="st6" cx="433.8" cy="437" r="11.3"/>
		<g class="st5">
			<path class="st3" d="M426,433.1h1.8l1.3,4.7l1.3-4.7h1.8l-2.4,7.5h-1.5L426,433.1z"/>
		</g>
		<g class="st5">
			<path class="st3" d="M433.6,433.1h1.6v7.5h-1.6V433.1z"/>
		</g>
		<g class="st5">
			<path class="st3" d="M437.1,433.1h2.5c0.4,0,0.7,0.1,1,0.2s0.6,0.3,0.8,0.5c0.2,0.2,0.4,0.5,0.5,0.8c0.1,0.3,0.2,0.7,0.2,1.1v0
				c0,0.4-0.1,0.8-0.2,1.2c-0.1,0.3-0.3,0.6-0.5,0.8c-0.2,0.2-0.5,0.4-0.8,0.5s-0.6,0.2-1,0.2h-0.8v2.1h-1.6V433.1z M439.5,436.9
				c0.3,0,0.5-0.1,0.7-0.3c0.2-0.2,0.2-0.4,0.2-0.7v0c0-0.3-0.1-0.6-0.2-0.7c-0.2-0.2-0.4-0.3-0.7-0.3h-0.8v2H439.5z"/>
		</g>
	</g>
	<g class="st5">
		<path class="st3" d="M344.2,512.2l-1,0.3l-0.3-1.3l1.6-0.6h0.8v7.2h-1.2V512.2z"/>
	</g>
	<circle id="XMLID_75_" class="st6" cx="562" cy="274.8" r="11.3"/>
	<g class="st5">
		<path class="st3" d="M558.3,272.7l-1,0.3l-0.3-1.3l1.6-0.6h0.8v7.2h-1.2V272.7z"/>
		<path class="st3" d="M561.7,272.7l-1,0.3l-0.3-1.3l1.6-0.6h0.8v7.2h-1.2V272.7z"/>
	</g>
	<g class="st5">
		<path class="st3" d="M340.2,616l1.9-1.9c0.2-0.2,0.3-0.3,0.4-0.5c0.1-0.1,0.2-0.3,0.3-0.4c0.1-0.1,0.1-0.3,0.2-0.4
			c0-0.1,0.1-0.3,0.1-0.4c0-0.3-0.1-0.5-0.2-0.7s-0.3-0.2-0.5-0.2c-0.2,0-0.4,0.1-0.6,0.2c-0.2,0.2-0.4,0.4-0.6,0.7l-0.9-0.9
			c0.1-0.2,0.3-0.5,0.4-0.6c0.1-0.2,0.3-0.3,0.5-0.5c0.2-0.1,0.3-0.2,0.5-0.3c0.2-0.1,0.4-0.1,0.7-0.1c0.3,0,0.5,0.1,0.8,0.2
			c0.2,0.1,0.4,0.3,0.6,0.4c0.2,0.2,0.3,0.4,0.4,0.7c0.1,0.3,0.1,0.6,0.1,0.9v0c0,0.3,0,0.6-0.1,0.8c-0.1,0.2-0.2,0.5-0.3,0.7
			c-0.1,0.2-0.3,0.4-0.5,0.6c-0.2,0.2-0.4,0.4-0.6,0.7l-0.9,0.9h2.4v1.4h-4.1V616z"/>
	</g>
	<polygon id="XMLID_72_" class="st1" points="926.7,316.4 951.6,363.8 914.5,384.1 889.3,337.7 	"/>
	<circle id="XMLID_71_" class="st6" cx="920.1" cy="348.8" r="11.3"/>
	<g class="st5">
		<path class="st3" d="M917.5,351l1.9-1.9c0.2-0.2,0.3-0.3,0.4-0.5c0.1-0.1,0.2-0.3,0.3-0.4c0.1-0.1,0.1-0.3,0.2-0.4
			c0-0.1,0.1-0.3,0.1-0.4c0-0.3-0.1-0.5-0.2-0.7s-0.3-0.2-0.5-0.2c-0.2,0-0.4,0.1-0.6,0.2c-0.2,0.2-0.4,0.4-0.6,0.7l-0.9-0.9
			c0.1-0.2,0.3-0.5,0.4-0.6c0.1-0.2,0.3-0.3,0.5-0.5s0.3-0.2,0.5-0.3c0.2-0.1,0.4-0.1,0.7-0.1c0.3,0,0.5,0.1,0.8,0.2
			c0.2,0.1,0.4,0.3,0.6,0.4c0.2,0.2,0.3,0.4,0.4,0.7c0.1,0.3,0.1,0.6,0.1,0.9v0c0,0.3,0,0.6-0.1,0.8c-0.1,0.2-0.2,0.5-0.3,0.7
			c-0.1,0.2-0.3,0.4-0.5,0.6c-0.2,0.2-0.4,0.4-0.6,0.7l-0.9,0.9h2.4v1.4h-4.1V351z"/>
	</g>
	<circle id="XMLID_69_" class="st6" cx="920.1" cy="348.8" r="11.3"/>
	<g class="st5">
		<path class="st3" d="M920.3,350.7h-2.7l-0.2-1.1l3.1-4.5h1v4.4h0.8v1.3h-0.8v1.5h-1.2V350.7z M920.3,349.4v-2.2l-1.5,2.2H920.3z"
			/>
	</g>
	<polygon id="XMLID_67_" class="st1" points="1063.4,418.7 1088.3,466.1 1051.2,486.4 1026,440 	"/>
	<circle id="XMLID_66_" class="st6" cx="1056.8" cy="451.1" r="11.3"/>
	<g class="st5">
		<path class="st3" d="M1056.4,454.6c-0.3,0-0.6,0-0.9-0.1s-0.5-0.2-0.7-0.4c-0.2-0.2-0.3-0.4-0.5-0.6c-0.1-0.3-0.2-0.5-0.2-0.8v0
			c0-0.4,0.1-0.8,0.2-1.1c0.2-0.3,0.4-0.5,0.7-0.7c-0.2-0.2-0.4-0.4-0.5-0.6c-0.1-0.2-0.2-0.6-0.2-0.9v0c0-0.3,0-0.5,0.1-0.8
			c0.1-0.2,0.2-0.4,0.4-0.6c0.2-0.2,0.4-0.3,0.6-0.4c0.2-0.1,0.5-0.2,0.8-0.2c0.3,0,0.6,0.1,0.8,0.2c0.2,0.1,0.4,0.2,0.6,0.4
			c0.2,0.2,0.3,0.4,0.4,0.6c0.1,0.2,0.1,0.5,0.1,0.8v0c0,0.4-0.1,0.7-0.2,0.9c-0.1,0.2-0.3,0.4-0.5,0.6c0.3,0.2,0.5,0.4,0.7,0.7
			c0.2,0.3,0.2,0.6,0.2,1v0c0,0.3-0.1,0.6-0.2,0.9c-0.1,0.3-0.3,0.5-0.5,0.7c-0.2,0.2-0.4,0.3-0.7,0.4
			C1057,454.6,1056.7,454.6,1056.4,454.6z M1056.4,453.3c0.3,0,0.5-0.1,0.7-0.3c0.2-0.2,0.3-0.4,0.3-0.6v0c0-0.3-0.1-0.5-0.3-0.6
			c-0.2-0.2-0.4-0.2-0.7-0.2c-0.3,0-0.5,0.1-0.7,0.2c-0.2,0.2-0.3,0.4-0.3,0.6v0c0,0.2,0.1,0.5,0.3,0.6
			C1055.8,453.3,1056.1,453.3,1056.4,453.3z M1056.4,450.3c0.2,0,0.4-0.1,0.6-0.2s0.2-0.4,0.2-0.6v0c0-0.2-0.1-0.4-0.2-0.6
			s-0.3-0.3-0.6-0.3c-0.3,0-0.5,0.1-0.6,0.2c-0.1,0.2-0.2,0.4-0.2,0.6v0c0,0.3,0.1,0.5,0.2,0.6
			C1055.9,450.2,1056.1,450.3,1056.4,450.3z"/>
	</g>
	<line id="XMLID_64_" class="st8" x1="744.7" y1="571.2" x2="744.7" y2="571.2"/>
	<line id="XMLID_63_" class="st8" x1="762.8" y1="524.8" x2="771.3" y2="539.2"/>
	<line id="XMLID_62_" class="st8" x1="763.9" y1="522.6" x2="777.4" y2="512.6"/>
	<line id="XMLID_61_" class="st8" x1="766.5" y1="508.7" x2="778.8" y2="497.1"/>
	<polyline id="XMLID_60_" class="st1" points="766.6,482.7 778.4,481.6 779.3,493.4 767.5,494.4 766.6,482.7 	"/>
	<line id="XMLID_59_" class="st8" x1="767.5" y1="494.4" x2="778.4" y2="481.6"/>
	<line id="XMLID_58_" class="st8" x1="766.6" y1="482.7" x2="779.3" y2="493.4"/>
	<line id="XMLID_57_" class="st8" x1="767" y1="480.1" x2="776.3" y2="466.4"/>
	<line id="XMLID_56_" class="st8" x1="764.7" y1="468.6" x2="778.5" y2="477.9"/>
	<line id="XMLID_55_" class="st8" x1="761" y1="452.4" x2="767.1" y2="436.8"/>
	<line id="XMLID_54_" class="st8" x1="754.8" y1="549.3" x2="770.2" y2="542.7"/>
	<line id="XMLID_53_" class="st8" x1="748.1" y1="561.7" x2="764.1" y2="556.8"/>
	<line id="XMLID_52_" class="st8" x1="751.2" y1="580.4" x2="746.3" y2="564.4"/>
	<line id="XMLID_51_" class="st8" x1="740.7" y1="574.8" x2="756.7" y2="570"/>
	<g class="st5">
		<path class="st3" d="M773,491.6c-0.5,0-0.9-0.1-1.3-0.3c-0.4-0.2-0.7-0.5-0.9-0.9l0.8-1c0.2,0.3,0.4,0.5,0.6,0.6
			c0.2,0.1,0.5,0.2,0.7,0.2c0.2,0,0.4-0.1,0.6-0.2c0.1-0.2,0.2-0.4,0.2-0.6v0c0-0.3-0.1-0.5-0.3-0.7c-0.2-0.2-0.5-0.2-0.8-0.2h-0.5
			l-0.2-1l1.3-1.7h-2.2v-1.4h3.8v1.2l-1.4,1.7c0.2,0,0.4,0.1,0.6,0.2c0.2,0.1,0.3,0.2,0.5,0.4c0.1,0.2,0.3,0.4,0.3,0.6
			s0.1,0.5,0.1,0.9v0c0,0.3,0,0.7-0.1,0.9c-0.1,0.3-0.2,0.5-0.4,0.7c-0.2,0.2-0.4,0.4-0.6,0.5C773.5,491.5,773.3,491.6,773,491.6z"
			/>
	</g>
	<circle id="XMLID_49_" class="st6" cx="947.9" cy="274.7" r="11.3"/>
	<g class="st5">
		<path class="st3" d="M947.4,278.2c-0.5,0-0.8-0.1-1.2-0.3c-0.3-0.2-0.6-0.4-0.9-0.8l0.7-1.1c0.2,0.2,0.4,0.4,0.6,0.6
			s0.4,0.2,0.7,0.2c0.3,0,0.5-0.1,0.7-0.3s0.3-0.4,0.3-0.7v0c0-0.3-0.1-0.5-0.3-0.7s-0.4-0.3-0.7-0.3c-0.2,0-0.3,0-0.5,0.1
			c-0.2,0.1-0.3,0.1-0.4,0.2l-0.7-0.6l0.2-3.5h3.4v1.4h-2.4l-0.1,1.2c0.1,0,0.2-0.1,0.3-0.1c0.1,0,0.2,0,0.4,0c0.3,0,0.5,0,0.8,0.1
			s0.4,0.2,0.6,0.4c0.2,0.2,0.3,0.4,0.4,0.7c0.1,0.3,0.2,0.6,0.2,1v0c0,0.4-0.1,0.7-0.2,1c-0.1,0.3-0.2,0.6-0.4,0.8
			c-0.2,0.2-0.4,0.4-0.7,0.5C948,278.2,947.7,278.2,947.4,278.2z"/>
	</g>
	<circle id="XMLID_47_" class="st6" cx="994.7" cy="444.3" r="11.3"/>
	<g class="st5">
		<path class="st3" d="M990.9,442.2l-1,0.3l-0.3-1.3l1.6-0.6h0.8v7.2h-1.2V442.2z"/>
		<path class="st3" d="M995.2,447.9c-0.5,0-0.8-0.1-1.2-0.3c-0.3-0.2-0.6-0.4-0.9-0.8l0.7-1.1c0.2,0.2,0.4,0.4,0.6,0.6
			s0.4,0.2,0.7,0.2c0.3,0,0.5-0.1,0.7-0.3s0.3-0.4,0.3-0.7v0c0-0.3-0.1-0.5-0.3-0.7s-0.4-0.3-0.7-0.3c-0.2,0-0.3,0-0.5,0.1
			c-0.2,0.1-0.3,0.1-0.4,0.2l-0.7-0.6l0.2-3.5h3.4v1.4h-2.4l-0.1,1.2c0.1,0,0.2-0.1,0.3-0.1c0.1,0,0.2,0,0.4,0c0.3,0,0.5,0,0.8,0.1
			s0.4,0.2,0.6,0.4c0.2,0.2,0.3,0.4,0.4,0.7c0.1,0.3,0.2,0.6,0.2,1v0c0,0.4-0.1,0.7-0.2,1c-0.1,0.3-0.2,0.6-0.4,0.8
			c-0.2,0.2-0.4,0.4-0.7,0.5C995.9,447.8,995.6,447.9,995.2,447.9z"/>
	</g>
	
		<rect id="XMLID_45_" x="403.9" y="239" transform="matrix(-0.8694 0.4941 -0.4941 -0.8694 973.0011 275.8912)" class="st1" width="92.3" height="55.1"/>
	<circle id="XMLID_44_" class="st6" cx="449" cy="266.1" r="11.3"/>
	<g class="st5">
		<path class="st3" d="M449,268h-2.7l-0.2-1.1l3.1-4.5h1v4.4h0.8v1.3h-0.8v1.5H449V268z M449,266.8v-2.2l-1.5,2.2H449z"/>
	</g>
	
		<rect id="XMLID_42_" x="625.7" y="103" transform="matrix(-0.8694 0.4941 -0.4941 -0.8694 1320.426 -87.8625)" class="st1" width="92.3" height="55.1"/>
	<circle id="XMLID_41_" class="st6" cx="570.5" cy="187.3" r="11.3"/>
	<g class="st5">
		<path class="st3" d="M570.1,190.9c-0.4,0-0.7-0.1-0.9-0.2c-0.3-0.1-0.5-0.3-0.7-0.6c-0.2-0.3-0.4-0.6-0.5-1
			c-0.1-0.4-0.2-1-0.2-1.7v0c0-0.6,0-1.1,0.1-1.5c0.1-0.5,0.2-0.9,0.5-1.2s0.5-0.6,0.8-0.8c0.3-0.2,0.7-0.3,1.1-0.3
			c0.2,0,0.4,0,0.5,0.1c0.2,0,0.3,0.1,0.4,0.2c0.1,0.1,0.3,0.2,0.4,0.2s0.3,0.2,0.4,0.3l-0.6,1.2c-0.1-0.1-0.2-0.2-0.3-0.2
			c-0.1-0.1-0.2-0.1-0.3-0.2c-0.1,0-0.2-0.1-0.3-0.1c-0.1,0-0.2,0-0.3,0c-0.2,0-0.3,0-0.5,0.1c-0.1,0.1-0.2,0.2-0.3,0.3
			c-0.1,0.1-0.2,0.3-0.2,0.5c-0.1,0.2-0.1,0.4-0.1,0.7c0.1-0.1,0.3-0.2,0.5-0.3c0.2-0.1,0.4-0.1,0.7-0.1s0.5,0,0.8,0.1
			s0.4,0.2,0.6,0.4c0.2,0.2,0.3,0.4,0.4,0.7c0.1,0.3,0.2,0.6,0.2,1v0c0,0.4-0.1,0.7-0.2,1c-0.1,0.3-0.3,0.6-0.4,0.8
			c-0.2,0.2-0.4,0.4-0.7,0.5C570.7,190.8,570.4,190.9,570.1,190.9z M570.1,189.5c0.3,0,0.5-0.1,0.7-0.3c0.2-0.2,0.3-0.4,0.3-0.8v0
			c0-0.3-0.1-0.6-0.3-0.7c-0.2-0.2-0.4-0.3-0.7-0.3s-0.5,0.1-0.7,0.3c-0.2,0.2-0.3,0.4-0.3,0.7v0c0,0.3,0.1,0.6,0.3,0.8
			S569.8,189.5,570.1,189.5z"/>
	</g>
	
		<rect id="XMLID_39_" x="653.3" y="187.7" transform="matrix(-0.8694 0.4941 -0.4941 -0.8694 1390.2991 28.9048)" class="st1" width="76.1" height="21"/>
	<circle id="XMLID_38_" class="st6" cx="691.6" cy="198.5" r="11.3"/>
	<g class="st5">
		<path class="st3" d="M687.9,196.3l-1,0.3l-0.3-1.3l1.6-0.6h0.8v7.2h-1.2V196.3z"/>
		<path class="st3" d="M693,196.1h-2.6v-1.4h4v1.2l-2.5,6h-1.4L693,196.1z"/>
	</g>
	<circle id="XMLID_36_" class="st6" cx="831.8" cy="91.2" r="11.3"/>
	<g class="st5">
		<path class="st3" d="M828.1,89.1l-1,0.3l-0.3-1.3l1.6-0.6h0.8v7.2h-1.2V89.1z"/>
		<path class="st3" d="M832.7,94.8c-0.4,0-0.7-0.1-0.9-0.2c-0.3-0.1-0.5-0.3-0.7-0.6c-0.2-0.3-0.4-0.6-0.5-1c-0.1-0.4-0.2-1-0.2-1.7
			v0c0-0.6,0-1.1,0.1-1.5c0.1-0.5,0.2-0.9,0.5-1.2s0.5-0.6,0.8-0.8c0.3-0.2,0.7-0.3,1.1-0.3c0.2,0,0.4,0,0.5,0.1
			c0.2,0,0.3,0.1,0.4,0.2c0.1,0.1,0.3,0.2,0.4,0.2s0.3,0.2,0.4,0.3l-0.6,1.2c-0.1-0.1-0.2-0.2-0.3-0.2c-0.1-0.1-0.2-0.1-0.3-0.2
			c-0.1,0-0.2-0.1-0.3-0.1c-0.1,0-0.2,0-0.3,0c-0.2,0-0.3,0-0.5,0.1c-0.1,0.1-0.2,0.2-0.3,0.3c-0.1,0.1-0.2,0.3-0.2,0.5
			c-0.1,0.2-0.1,0.4-0.1,0.7c0.1-0.1,0.3-0.2,0.5-0.3c0.2-0.1,0.4-0.1,0.7-0.1s0.5,0,0.8,0.1s0.4,0.2,0.6,0.4
			c0.2,0.2,0.3,0.4,0.4,0.7c0.1,0.3,0.2,0.6,0.2,1v0c0,0.4-0.1,0.7-0.2,1c-0.1,0.3-0.3,0.6-0.4,0.8c-0.2,0.2-0.4,0.4-0.7,0.5
			C833.3,94.7,833,94.8,832.7,94.8z M832.7,93.4c0.3,0,0.5-0.1,0.7-0.3c0.2-0.2,0.3-0.4,0.3-0.8v0c0-0.3-0.1-0.6-0.3-0.7
			c-0.2-0.2-0.4-0.3-0.7-0.3s-0.5,0.1-0.7,0.3c-0.2,0.2-0.3,0.4-0.3,0.7v0c0,0.3,0.1,0.6,0.3,0.8S832.4,93.4,832.7,93.4z"/>
	</g>
	<circle id="XMLID_34_" class="st6" cx="759.5" cy="94.5" r="11.3"/>
	<g class="st5">
		<path class="st3" d="M755.8,92.4l-1,0.3l-0.3-1.3l1.6-0.6h0.8V98h-1.2V92.4z"/>
		<path class="st3" d="M760.5,98.1c-0.4,0-0.7-0.1-0.9-0.2c-0.3-0.1-0.5-0.3-0.7-0.6c-0.2-0.3-0.4-0.6-0.5-1c-0.1-0.4-0.2-1-0.2-1.7
			v0c0-0.6,0-1.1,0.1-1.5c0.1-0.5,0.2-0.9,0.5-1.2s0.5-0.6,0.8-0.8c0.3-0.2,0.7-0.3,1.1-0.3c0.2,0,0.4,0,0.5,0.1
			c0.2,0,0.3,0.1,0.4,0.2c0.1,0.1,0.3,0.2,0.4,0.2s0.3,0.2,0.4,0.3l-0.6,1.2c-0.1-0.1-0.2-0.2-0.3-0.2c-0.1-0.1-0.2-0.1-0.3-0.2
			c-0.1,0-0.2-0.1-0.3-0.1c-0.1,0-0.2,0-0.3,0c-0.2,0-0.3,0-0.5,0.1c-0.1,0.1-0.2,0.2-0.3,0.3c-0.1,0.1-0.2,0.3-0.2,0.5
			c-0.1,0.2-0.1,0.4-0.1,0.7c0.1-0.1,0.3-0.2,0.5-0.3c0.2-0.1,0.4-0.1,0.7-0.1s0.5,0,0.8,0.1s0.4,0.2,0.6,0.4
			c0.2,0.2,0.3,0.4,0.4,0.7c0.1,0.3,0.2,0.6,0.2,1v0c0,0.4-0.1,0.7-0.2,1c-0.1,0.3-0.3,0.6-0.4,0.8c-0.2,0.2-0.4,0.4-0.7,0.5
			C761.1,98,760.8,98.1,760.5,98.1z M760.4,96.7c0.3,0,0.5-0.1,0.7-0.3c0.2-0.2,0.3-0.4,0.3-0.8v0c0-0.3-0.1-0.6-0.3-0.7
			c-0.2-0.2-0.4-0.3-0.7-0.3s-0.5,0.1-0.7,0.3c-0.2,0.2-0.3,0.4-0.3,0.7v0c0,0.3,0.1,0.6,0.3,0.8S760.1,96.7,760.4,96.7z"/>
	</g>
	
		<rect id="XMLID_32_" x="738.1" y="-44.6" transform="matrix(-0.9999 1.587387e-02 -1.587387e-02 -0.9999 1503.8524 -72.9308)" class="st1" width="28.2" height="28.2"/>
	<circle id="XMLID_31_" class="st6" cx="752.3" cy="-30.3" r="11.3"/>
	<g class="st5">
		<path class="st3" d="M752.5-26.7c-0.4,0-0.8-0.1-1-0.2c-0.3-0.2-0.6-0.4-0.8-0.6l0.6-1.2c0.2,0.2,0.4,0.4,0.6,0.5s0.4,0.1,0.6,0.1
			c0.3,0,0.6-0.2,0.8-0.5c0.2-0.3,0.3-0.7,0.3-1.2c-0.1,0.1-0.3,0.3-0.5,0.4s-0.4,0.1-0.6,0.1c-0.3,0-0.6-0.1-0.8-0.2
			s-0.5-0.3-0.6-0.5c-0.2-0.2-0.3-0.4-0.4-0.7c-0.1-0.3-0.1-0.6-0.1-1v0c0-0.4,0.1-0.7,0.2-1c0.1-0.3,0.2-0.6,0.4-0.8
			c0.2-0.2,0.4-0.4,0.7-0.5c0.3-0.1,0.6-0.2,0.9-0.2c0.2,0,0.4,0,0.5,0c0.2,0,0.3,0.1,0.4,0.1s0.2,0.1,0.4,0.2
			c0.1,0.1,0.2,0.2,0.3,0.4c0.1,0.1,0.2,0.3,0.3,0.4c0.1,0.2,0.1,0.4,0.2,0.6c0.1,0.2,0.1,0.5,0.1,0.7c0,0.3,0,0.6,0,0.9v0
			c0,0.6-0.1,1.1-0.2,1.6s-0.3,0.9-0.5,1.2c-0.2,0.3-0.5,0.6-0.8,0.8C753.3-26.8,752.9-26.7,752.5-26.7z M752.8-30.6
			c0.3,0,0.5-0.1,0.7-0.3c0.2-0.2,0.3-0.5,0.3-0.8v0c0-0.3-0.1-0.6-0.3-0.8c-0.2-0.2-0.4-0.3-0.7-0.3c-0.3,0-0.5,0.1-0.7,0.3
			c-0.2,0.2-0.2,0.5-0.2,0.8v0c0,0.3,0.1,0.6,0.3,0.8C752.2-30.7,752.5-30.6,752.8-30.6z"/>
	</g>
	
		<rect id="XMLID_29_" x="752.9" y="-96.5" transform="matrix(-0.9999 1.587387e-02 -1.587387e-02 -0.9999 1532.6273 -176.9627)" class="st1" width="28.2" height="28.2"/>
	<circle id="XMLID_28_" class="st6" cx="766.7" cy="-82.2" r="11.3"/>
	<g class="st5">
		<path class="st3" d="M763.8-84.3l-1,0.3l-0.3-1.3l1.6-0.6h0.8v7.2h-1.2V-84.3z"/>
		<path class="st3" d="M768.6-78.6c-0.4,0-0.7-0.1-1-0.3c-0.3-0.2-0.6-0.4-0.8-0.8s-0.4-0.7-0.5-1.2c-0.1-0.4-0.2-0.9-0.2-1.4v0
			c0-0.5,0.1-1,0.2-1.4c0.1-0.4,0.3-0.8,0.5-1.2c0.2-0.3,0.5-0.6,0.8-0.8s0.6-0.3,1-0.3c0.4,0,0.7,0.1,1,0.3s0.6,0.4,0.8,0.8
			s0.4,0.7,0.5,1.2c0.1,0.4,0.2,0.9,0.2,1.4v0c0,0.5-0.1,1-0.2,1.4c-0.1,0.4-0.3,0.8-0.5,1.2c-0.2,0.3-0.5,0.6-0.8,0.8
			C769.3-78.7,769-78.6,768.6-78.6z M768.6-80c0.2,0,0.4-0.1,0.5-0.2c0.1-0.1,0.3-0.3,0.4-0.5c0.1-0.2,0.2-0.4,0.2-0.7
			c0.1-0.3,0.1-0.6,0.1-0.9v0c0-0.3,0-0.6-0.1-0.9c-0.1-0.3-0.1-0.5-0.3-0.7s-0.2-0.4-0.4-0.5c-0.2-0.1-0.3-0.2-0.5-0.2
			c-0.2,0-0.4,0.1-0.5,0.2c-0.1,0.1-0.3,0.3-0.4,0.5s-0.2,0.4-0.2,0.7c-0.1,0.3-0.1,0.6-0.1,0.9v0c0,0.3,0,0.6,0.1,0.9
			c0.1,0.3,0.1,0.5,0.2,0.7c0.1,0.2,0.2,0.4,0.4,0.5C768.3-80.1,768.4-80,768.6-80z"/>
	</g>
	<circle id="XMLID_26_" class="st6" cx="800.1" cy="139.8" r="11.3"/>
	<g class="st5">
		<path class="st3" d="M800.3,137.5h-2.6v-1.4h4v1.2l-2.5,6h-1.4L800.3,137.5z"/>
	</g>
	<circle id="XMLID_24_" class="st6" cx="319" cy="347.6" r="11.3"/>
	<g class="st5">
		<path class="st3" d="M318.4,351.1c-0.3,0-0.6,0-0.9-0.1c-0.3-0.1-0.5-0.2-0.7-0.4c-0.2-0.2-0.3-0.4-0.5-0.6
			c-0.1-0.3-0.2-0.5-0.2-0.8v0c0-0.4,0.1-0.8,0.2-1.1c0.2-0.3,0.4-0.5,0.7-0.7c-0.2-0.2-0.4-0.4-0.5-0.6c-0.1-0.2-0.2-0.6-0.2-0.9v0
			c0-0.3,0-0.5,0.1-0.8c0.1-0.2,0.2-0.4,0.4-0.6s0.4-0.3,0.6-0.4c0.2-0.1,0.5-0.2,0.8-0.2c0.3,0,0.6,0.1,0.8,0.2
			c0.2,0.1,0.4,0.2,0.6,0.4c0.2,0.2,0.3,0.4,0.4,0.6c0.1,0.2,0.1,0.5,0.1,0.8v0c0,0.4-0.1,0.7-0.2,0.9c-0.1,0.2-0.3,0.4-0.5,0.6
			c0.3,0.2,0.5,0.4,0.7,0.7s0.2,0.6,0.2,1v0c0,0.3-0.1,0.6-0.2,0.9c-0.1,0.3-0.3,0.5-0.5,0.7c-0.2,0.2-0.4,0.3-0.7,0.4
			C318.9,351.1,318.7,351.1,318.4,351.1z M318.4,349.8c0.3,0,0.5-0.1,0.7-0.3c0.2-0.2,0.3-0.4,0.3-0.6v0c0-0.3-0.1-0.5-0.3-0.6
			c-0.2-0.2-0.4-0.2-0.7-0.2c-0.3,0-0.5,0.1-0.7,0.2c-0.2,0.2-0.3,0.4-0.3,0.6v0c0,0.2,0.1,0.5,0.3,0.6
			C317.8,349.7,318.1,349.8,318.4,349.8z M318.4,346.8c0.2,0,0.4-0.1,0.6-0.2s0.2-0.4,0.2-0.6v0c0-0.2-0.1-0.4-0.2-0.6
			c-0.1-0.2-0.3-0.3-0.6-0.3s-0.5,0.1-0.6,0.2c-0.1,0.2-0.2,0.4-0.2,0.6v0c0,0.3,0.1,0.5,0.2,0.6
			C317.9,346.7,318.1,346.8,318.4,346.8z"/>
	</g>
	
		<rect id="XMLID_22_" x="650.4" y="394.9" transform="matrix(-0.9916 -0.1291 0.1291 -0.9916 1270.6066 900.3188)" class="st1" width="28.2" height="28.2"/>
	<circle id="XMLID_21_" class="st6" cx="664.6" cy="409.2" r="11.3"/>
	<g class="st5">
		<path class="st3" d="M660.9,407l-1,0.3l-0.3-1.3l1.6-0.6h0.8v7.2h-1.2V407z"/>
		<path class="st3" d="M663.2,411.4l1.9-1.9c0.2-0.2,0.3-0.3,0.4-0.5c0.1-0.1,0.2-0.3,0.3-0.4c0.1-0.1,0.1-0.3,0.2-0.4
			c0-0.1,0.1-0.3,0.1-0.4c0-0.3-0.1-0.5-0.2-0.7s-0.3-0.2-0.5-0.2c-0.2,0-0.4,0.1-0.6,0.2c-0.2,0.2-0.4,0.4-0.6,0.7l-0.9-0.9
			c0.1-0.2,0.3-0.5,0.4-0.6c0.1-0.2,0.3-0.3,0.5-0.5s0.3-0.2,0.5-0.3c0.2-0.1,0.4-0.1,0.7-0.1c0.3,0,0.5,0.1,0.8,0.2
			c0.2,0.1,0.4,0.3,0.6,0.4c0.2,0.2,0.3,0.4,0.4,0.7c0.1,0.3,0.1,0.6,0.1,0.9v0c0,0.3,0,0.6-0.1,0.8c-0.1,0.2-0.2,0.5-0.3,0.7
			c-0.1,0.2-0.3,0.4-0.5,0.6c-0.2,0.2-0.4,0.4-0.6,0.7l-0.9,0.9h2.4v1.4h-4.1V411.4z"/>
	</g>
	<g class="st5">
		<path class="st3" d="M700.6,680l3-1.3l7.4,9.8l-2-12.2l2.4-1l7.7,9.7l-2.2-12.1l2.9-1.3l2.8,18.1l-2.4,1.1l-7.5-9.3l1.8,11.8
			l-2.4,1.1L700.6,680z"/>
		<path class="st3" d="M723.5,669.9l9.5-4.2l1.4,3.2l-6.8,3l1.4,3.3l5.9-2.6l1.4,3.2l-5.9,2.6l1.5,3.4l6.8-3l1.4,3.2l-9.6,4.2
			L723.5,669.9z"/>
		<path class="st3" d="M749.1,678.2c-1,0.4-2,0.6-3.1,0.6c-1.1,0-2.2-0.3-3.4-0.8l0.5-3.2c0.8,0.3,1.6,0.6,2.4,0.6
			c0.8,0.1,1.5,0,2.2-0.3c0.6-0.3,1-0.6,1.2-1c0.2-0.4,0.2-0.9,0-1.3l0,0c-0.1-0.2-0.2-0.4-0.4-0.6s-0.3-0.3-0.6-0.3
			c-0.3-0.1-0.6-0.1-1-0.1s-0.9,0-1.5,0.1c-0.7,0.1-1.4,0.1-2,0.1s-1.2-0.1-1.7-0.3c-0.5-0.2-1-0.5-1.4-1c-0.4-0.4-0.8-1.1-1.2-1.9
			l0,0c-0.3-0.7-0.5-1.4-0.6-2.1c0-0.7,0-1.3,0.2-1.9s0.5-1.1,1-1.6c0.4-0.5,1-0.8,1.6-1.1c0.9-0.4,1.9-0.6,2.8-0.6
			c0.9,0,1.9,0.2,2.8,0.6l-0.3,3.3c-0.8-0.2-1.5-0.4-2.2-0.4c-0.7,0-1.3,0.1-1.8,0.3c-0.5,0.2-0.9,0.5-1,0.9c-0.2,0.4-0.1,0.8,0,1.2
			l0,0c0.1,0.3,0.3,0.5,0.4,0.6c0.2,0.2,0.4,0.3,0.7,0.3c0.3,0.1,0.6,0.1,1,0.1c0.4,0,0.9-0.1,1.6-0.1c0.7-0.1,1.4-0.1,2,0
			c0.6,0,1.2,0.2,1.7,0.4c0.5,0.2,1,0.6,1.4,1c0.4,0.4,0.8,1,1.1,1.7l0,0c0.4,0.8,0.5,1.6,0.6,2.3s0,1.4-0.3,2
			c-0.2,0.6-0.6,1.1-1,1.6C750.4,677.5,749.8,677.9,749.1,678.2z"/>
		<path class="st3" d="M755.1,659.9l-3.8,1.7l-1.4-3.3l10.4-4.6l1.4,3.3l-3.8,1.7l5.7,12.8l-2.8,1.2L755.1,659.9z"/>
		<path class="st3" d="M784.5,662.7c-0.9,0.4-1.9,0.6-2.9,0.5c-1-0.1-1.9-0.4-2.8-0.9s-1.7-1.2-2.5-2c-0.8-0.9-1.4-1.9-1.9-3l0,0
			c-0.5-1.2-0.8-2.3-0.9-3.4c-0.1-1.1-0.1-2.2,0.2-3.2c0.2-1,0.7-1.9,1.3-2.7c0.6-0.8,1.4-1.4,2.4-1.8c0.6-0.3,1.2-0.4,1.7-0.5
			c0.5-0.1,1.1-0.1,1.5-0.1c0.5,0,1,0.1,1.4,0.3c0.5,0.2,0.9,0.4,1.4,0.6l-0.6,3.4c-0.7-0.4-1.4-0.6-2.1-0.7s-1.3,0-1.9,0.3
			c-0.5,0.2-1,0.6-1.3,1c-0.3,0.5-0.6,1-0.7,1.6c-0.1,0.6-0.1,1.2-0.1,1.9c0.1,0.7,0.3,1.4,0.6,2.1l0,0c0.3,0.7,0.7,1.3,1.1,1.8
			s0.9,1,1.5,1.3c0.5,0.3,1.1,0.5,1.6,0.6c0.6,0.1,1.1,0,1.7-0.2c0.7-0.3,1.3-0.8,1.6-1.3c0.3-0.6,0.6-1.2,0.9-2l2.8,1.5
			c-0.1,0.6-0.3,1.1-0.5,1.6c-0.2,0.5-0.4,1-0.7,1.4c-0.3,0.4-0.7,0.8-1.1,1.2C785.7,662.1,785.2,662.4,784.5,662.7z"/>
		<path class="st3" d="M786.5,642.2l9.5-4.2l1.4,3.2l-6.8,3l1.4,3.3l5.9-2.6l1.4,3.2l-5.9,2.6l1.5,3.4l6.8-3l1.4,3.2l-9.6,4.2
			L786.5,642.2z"/>
		<path class="st3" d="M800.4,636.1l2.6-1.1l10.3,7.3l-4.4-9.9l2.7-1.2l7.1,16.1l-2.4,1l-10.6-7.6l4.5,10.2l-2.7,1.2L800.4,636.1z"
			/>
		<path class="st3" d="M820.8,631l-3.8,1.7l-1.4-3.3l10.4-4.6l1.4,3.3l-3.8,1.7l5.7,12.8l-2.8,1.2L820.8,631z"/>
		<path class="st3" d="M829.9,623.1l9.5-4.2l1.4,3.2l-6.8,3l1.4,3.3l5.9-2.6l1.4,3.2l-5.9,2.6l1.5,3.4l6.8-3l1.4,3.2l-9.6,4.2
			L829.9,623.1z"/>
		<path class="st3" d="M843.8,617l5.8-2.5c1.6-0.7,3.1-0.7,4.4,0c1.1,0.6,2,1.7,2.7,3.2l0,0c0.6,1.3,0.8,2.5,0.7,3.5
			c-0.1,1-0.5,1.9-1.2,2.7l5.6,4.4l-3.2,1.4l-5-4l0,0l-2.1,0.9l2.3,5.2l-2.8,1.2L843.8,617z M852.8,622.4c0.7-0.3,1.1-0.7,1.3-1.3
			c0.2-0.6,0.1-1.2-0.2-1.9l0,0c-0.3-0.8-0.8-1.3-1.3-1.5c-0.6-0.2-1.2-0.2-1.9,0.1L848,619l2,4.6L852.8,622.4z"/>
		<path class="st3" d="M865.8,607.3l5.8-2.5c1.6-0.7,3.1-0.7,4.4,0c1.1,0.6,2,1.7,2.7,3.2l0,0c0.6,1.3,0.8,2.5,0.7,3.5
			s-0.5,1.9-1.2,2.7l5.6,4.4l-3.2,1.4l-5-4l0,0l-2.1,0.9l2.3,5.2l-2.8,1.2L865.8,607.3z M874.8,612.7c0.7-0.3,1.1-0.7,1.3-1.3
			c0.2-0.6,0.1-1.2-0.2-1.9l0,0c-0.3-0.8-0.8-1.3-1.3-1.5s-1.2-0.2-1.9,0.1l-2.8,1.2l2,4.6L874.8,612.7z"/>
		<path class="st3" d="M894,614.5c-1,0.4-2,0.6-3,0.5c-1-0.1-2-0.4-2.9-0.8c-0.9-0.5-1.8-1.2-2.5-2c-0.8-0.9-1.4-1.9-1.9-3l0,0
			c-0.5-1.2-0.8-2.3-0.9-3.5c-0.1-1.2,0-2.2,0.2-3.3c0.3-1,0.7-1.9,1.3-2.7c0.6-0.8,1.4-1.4,2.4-1.8c1-0.4,2-0.6,3-0.5
			c1,0.1,2,0.4,2.9,0.8c0.9,0.5,1.8,1.2,2.5,2c0.8,0.9,1.4,1.9,1.9,3l0,0c0.5,1.2,0.8,2.3,0.9,3.5c0.1,1.2,0,2.2-0.2,3.3
			c-0.3,1-0.7,1.9-1.3,2.7C895.7,613.5,894.9,614.1,894,614.5z M892.6,611.2c0.6-0.2,1-0.6,1.4-1.1s0.6-1,0.7-1.6
			c0.1-0.6,0.2-1.3,0.1-1.9c-0.1-0.7-0.3-1.4-0.6-2.1l0,0c-0.3-0.7-0.7-1.3-1.1-1.8c-0.5-0.5-1-1-1.5-1.3c-0.5-0.3-1.1-0.5-1.7-0.6
			c-0.6-0.1-1.2,0-1.7,0.3c-0.6,0.2-1,0.6-1.4,1.1c-0.3,0.5-0.6,1-0.7,1.6c-0.1,0.6-0.2,1.3-0.1,1.9c0.1,0.7,0.3,1.4,0.6,2.1l0,0
			c0.3,0.7,0.7,1.3,1.1,1.8s1,1,1.5,1.3c0.5,0.3,1.1,0.5,1.7,0.6C891.4,611.6,892,611.5,892.6,611.2z"/>
		<path class="st3" d="M902,591.3l2.6-1.1l12.5,13.9l-2.9,1.3l-2.7-3.1l-5.3,2.3l0.4,4.1l-2.8,1.2L902,591.3z M909.1,599.5l-4-4.5
			l0.6,6L909.1,599.5z"/>
		<path class="st3" d="M913.8,586.2l4.9-2.2c1-0.4,2-0.6,3-0.6s2,0.3,2.9,0.8c0.9,0.5,1.7,1.1,2.5,1.9c0.8,0.8,1.4,1.8,1.9,3l0,0
			c0.5,1.1,0.8,2.3,0.9,3.4c0.1,1.1,0,2.2-0.3,3.2c-0.3,1-0.7,1.9-1.4,2.6c-0.6,0.8-1.5,1.4-2.4,1.8l-4.9,2.2L913.8,586.2z
			 M924.4,597c0.6-0.2,1-0.6,1.4-1c0.4-0.4,0.6-0.9,0.8-1.5c0.1-0.6,0.2-1.2,0.1-1.9c-0.1-0.7-0.3-1.4-0.6-2.1l0,0
			c-0.3-0.7-0.7-1.3-1.1-1.8c-0.4-0.5-0.9-0.9-1.5-1.2c-0.5-0.3-1.1-0.4-1.6-0.5c-0.6,0-1.1,0.1-1.7,0.3l-2.1,0.9l4.3,9.7L924.4,597
			z"/>
	</g>
	<g class="st5">
		<path class="st3" d="M837.7,193.9c-0.5-0.8-0.7-1.5-0.8-2.2c0-0.7,0.1-1.4,0.4-2.2c0.3-0.8,0.8-1.5,1.5-2.3s1.9-1.6,3.3-2.5l0,0
			c1.2-0.7,2.3-1.2,3.4-1.6s2.2-0.6,3.2-0.6c1,0,1.9,0.2,2.7,0.6c0.8,0.4,1.5,1,2,1.9c0.2,0.4,0.4,0.8,0.6,1.2
			c0.1,0.4,0.2,0.8,0.2,1.1c0,0.4,0,0.8,0,1.2c0,0.4-0.1,0.8-0.2,1.2l-3.4,0.2c0.1-0.3,0.1-0.6,0.2-0.9c0-0.3,0.1-0.5,0-0.8
			c0-0.3-0.1-0.5-0.1-0.8c-0.1-0.2-0.2-0.5-0.3-0.7c-0.2-0.4-0.5-0.6-0.9-0.8c-0.3-0.2-0.7-0.3-1.2-0.3c-0.4,0-0.9,0.1-1.4,0.2
			c-0.5,0.1-1,0.3-1.5,0.6c0.4,0.1,0.8,0.3,1.3,0.6c0.4,0.3,0.8,0.7,1.2,1.3s0.6,1.2,0.7,1.8c0.1,0.6,0,1.3-0.1,1.9
			c-0.2,0.6-0.5,1.2-1,1.8c-0.5,0.6-1.1,1.1-1.9,1.6l0,0c-0.8,0.5-1.6,0.8-2.3,0.9c-0.8,0.2-1.5,0.2-2.2,0c-0.7-0.1-1.3-0.4-1.9-0.8
			C838.6,195.1,838.1,194.6,837.7,193.9z M840.5,192.1c0.4,0.6,0.9,1,1.5,1.1c0.6,0.1,1.3,0,1.9-0.4l0,0c0.6-0.4,1.1-0.9,1.2-1.5
			c0.2-0.6,0.1-1.2-0.3-1.9c-0.4-0.6-0.9-1-1.5-1.1c-0.6-0.1-1.2,0-1.9,0.4l0,0c-0.6,0.4-1.1,0.9-1.3,1.5
			C840.1,190.9,840.1,191.5,840.5,192.1z"/>
		<path class="st3" d="M858.5,200.3l-3.3-5.6l2.9-1.7l5.1,8.5l-2.5,1.5l-15.8,2.2l-1.8-2.9L858.5,200.3z"/>
		<path class="st3" d="M851.8,217.4c-0.2-0.4-0.4-0.8-0.5-1.2c-0.1-0.4-0.1-0.8,0.1-1.2c0.1-0.4,0.4-0.8,0.7-1.2
			c0.4-0.4,0.9-0.8,1.6-1.2l5.5-3.3l-0.6-1.1l2.8-1.7l0.6,1.1l3-1.8l1.5,2.6l-3,1.8l1.3,2.1l-2.8,1.7l-1.3-2.1l-5,3
			c-0.8,0.4-1,0.9-0.6,1.5c0.3,0.5,0.7,0.8,1.2,1l-2.6,1.6c-0.4-0.2-0.7-0.4-1-0.6C852.3,218.2,852.1,217.8,851.8,217.4z"/>
		<path class="st3" d="M871.1,213.5l1.5,2.6l-5.8,3.5c0.3,0,0.7,0,1,0.1c0.3,0,0.6,0.1,0.9,0.2c0.3,0.1,0.6,0.3,0.8,0.5
			c0.3,0.2,0.5,0.5,0.7,0.8c0.6,1,0.7,2,0.2,3c-0.4,1-1.3,1.9-2.7,2.7l-7.5,4.5l-1.5-2.6l6.4-3.8c0.8-0.5,1.3-0.9,1.5-1.5
			c0.2-0.5,0.2-1-0.1-1.5c-0.3-0.5-0.7-0.8-1.3-0.8c-0.6-0.1-1.2,0.2-2,0.6l-6.4,3.8l-1.5-2.6L871.1,213.5z"/>
		<path class="st3" d="M869.2,246.6c-0.5-0.9-0.9-1.9-1-3c-0.1-1.1,0-2.3,0.4-3.5l3.3,0.1c-0.2,0.9-0.4,1.7-0.3,2.5
			c0,0.8,0.2,1.5,0.6,2.2c0.3,0.5,0.7,0.9,1.1,1c0.4,0.1,0.9,0.1,1.3-0.2l0,0c0.2-0.1,0.4-0.3,0.5-0.4c0.1-0.2,0.2-0.4,0.3-0.6
			c0-0.3,0-0.6,0-1c0-0.4-0.1-0.9-0.3-1.5c-0.2-0.7-0.3-1.4-0.3-2c-0.1-0.6,0-1.2,0.1-1.7c0.1-0.5,0.4-1.1,0.8-1.5
			c0.4-0.5,1-1,1.7-1.4l0,0c0.7-0.4,1.4-0.7,2-0.8c0.7-0.1,1.3-0.1,1.9,0c0.6,0.1,1.2,0.4,1.7,0.8c0.5,0.4,1,0.9,1.3,1.5
			c0.5,0.9,0.8,1.8,0.9,2.7s0,1.9-0.2,2.9l-3.3,0.1c0.1-0.8,0.2-1.5,0.2-2.2c0-0.7-0.2-1.3-0.5-1.8c-0.3-0.5-0.7-0.8-1.1-0.9
			c-0.4-0.1-0.8,0-1.2,0.2l0,0c-0.2,0.1-0.4,0.3-0.6,0.5c-0.1,0.2-0.2,0.4-0.2,0.7c0,0.3,0,0.6,0.1,1c0.1,0.4,0.2,0.9,0.3,1.5
			c0.2,0.7,0.2,1.4,0.3,2s0,1.2-0.2,1.7c-0.2,0.5-0.4,1-0.8,1.5c-0.4,0.4-0.9,0.9-1.6,1.3l0,0c-0.7,0.4-1.5,0.7-2.2,0.9
			c-0.7,0.1-1.4,0.1-2,0c-0.6-0.1-1.2-0.4-1.7-0.8C870,247.7,869.5,247.2,869.2,246.6z"/>
		<path class="st3" d="M888,250.3l-2.1-3.6l3.1-1.8l5.8,9.8l-3.1,1.8l-2.1-3.6l-12.1,7.2l-1.6-2.6L888,250.3z"/>
		<path class="st3" d="M897,258.3l3.2,5.4c0.9,1.5,1.1,3,0.5,4.4c-0.5,1.2-1.4,2.2-2.9,3.1l0,0c-1.2,0.7-2.4,1.1-3.4,1.1
			c-1,0-2-0.3-2.8-0.8l-3.7,6.1l-1.8-3l3.3-5.4l0,0l-1.2-2l-4.8,2.9l-1.6-2.6L897,258.3z M892.8,268c0.4,0.6,0.9,1,1.5,1.1
			c0.6,0.1,1.2,0,1.9-0.4l0,0c0.7-0.4,1.2-0.9,1.3-1.5c0.1-0.6,0-1.2-0.4-1.8l-1.5-2.6l-4.3,2.6L892.8,268z"/>
		<path class="st3" d="M905.3,272.2l5.3,8.9l-3,1.8l-3.8-6.3l-3.1,1.8l3.3,5.6l-3,1.8l-3.3-5.6l-3.2,1.9l3.8,6.4l-3,1.8l-5.4-9
			L905.3,272.2z"/>
		<path class="st3" d="M913,285.3l5.3,8.9l-3,1.8l-3.8-6.3l-3.1,1.8l3.3,5.6l-3,1.8l-3.3-5.6l-3.2,1.9l3.8,6.4l-3,1.8l-5.4-9
			L913,285.3z"/>
		<path class="st3" d="M919.4,302.9l-2.1-3.6l3.1-1.8l5.8,9.8l-3.1,1.8l-2.1-3.6l-12.1,7.2l-1.6-2.6L919.4,302.9z"/>
	</g>
	<g id="XMLID_15_">
		<circle id="XMLID_17_" class="st6" cx="674.8" cy="131.8" r="11.3"/>
		<g class="st5">
			<path class="st3" d="M671,129.7l-1,0.3l-0.3-1.3l1.6-0.6h0.8v7.2H671V129.7z"/>
			<path class="st3" d="M675.5,135.4c-0.3,0-0.6,0-0.9-0.1s-0.5-0.2-0.7-0.4s-0.3-0.4-0.5-0.6c-0.1-0.3-0.2-0.5-0.2-0.8v0
				c0-0.4,0.1-0.8,0.2-1.1c0.2-0.3,0.4-0.5,0.7-0.7c-0.2-0.2-0.4-0.4-0.5-0.6s-0.2-0.6-0.2-0.9v0c0-0.3,0-0.5,0.1-0.8
				c0.1-0.2,0.2-0.4,0.4-0.6c0.2-0.2,0.4-0.3,0.6-0.4s0.5-0.2,0.8-0.2c0.3,0,0.6,0.1,0.8,0.2s0.4,0.2,0.6,0.4s0.3,0.4,0.4,0.6
				c0.1,0.2,0.1,0.5,0.1,0.8v0c0,0.4-0.1,0.7-0.2,0.9s-0.3,0.4-0.5,0.6c0.3,0.2,0.5,0.4,0.7,0.7c0.2,0.3,0.2,0.6,0.2,1v0
				c0,0.3-0.1,0.6-0.2,0.9c-0.1,0.3-0.3,0.5-0.5,0.7s-0.4,0.3-0.7,0.4C676.1,135.4,675.8,135.4,675.5,135.4z M675.5,134.1
				c0.3,0,0.5-0.1,0.7-0.3c0.2-0.2,0.3-0.4,0.3-0.6v0c0-0.3-0.1-0.5-0.3-0.6c-0.2-0.2-0.4-0.2-0.7-0.2c-0.3,0-0.5,0.1-0.7,0.2
				c-0.2,0.2-0.3,0.4-0.3,0.6v0c0,0.2,0.1,0.5,0.3,0.6S675.2,134.1,675.5,134.1z M675.5,131.1c0.2,0,0.4-0.1,0.6-0.2
				s0.2-0.4,0.2-0.6v0c0-0.2-0.1-0.4-0.2-0.6s-0.3-0.3-0.6-0.3c-0.3,0-0.5,0.1-0.6,0.2c-0.1,0.2-0.2,0.4-0.2,0.6v0
				c0,0.3,0.1,0.5,0.2,0.6C675.1,131,675.3,131.1,675.5,131.1z"/>
		</g>
	</g>
	<g class="st5">
		<path class="st1" d="M679.7-119.4h7.7v2.6h-5.5v2.8h4.8v2.6h-4.8v5h-2.2V-119.4z"/>
		<path class="st1" d="M690.1-119.4h4.6c1.3,0,2.3,0.4,2.9,1.3c0.6,0.7,0.9,1.7,0.9,2.9v0c0,1-0.2,1.9-0.6,2.5s-0.9,1.1-1.6,1.4
			l2.5,4.6h-2.6l-2.2-4.1h0h-1.7v4.1h-2.2V-119.4z M694.6-113.1c0.5,0,1-0.2,1.3-0.5c0.3-0.3,0.4-0.8,0.4-1.3v0
			c0-0.6-0.2-1.1-0.5-1.4c-0.3-0.3-0.7-0.5-1.3-0.5h-2.2v3.7H694.6z"/>
		<path class="st1" d="M706.4-106.3c-0.8,0-1.5-0.2-2.1-0.5c-0.7-0.3-1.2-0.8-1.7-1.4c-0.5-0.6-0.8-1.3-1.1-2.1s-0.4-1.7-0.4-2.6v0
			c0-0.9,0.1-1.8,0.4-2.6c0.3-0.8,0.6-1.5,1.1-2.1c0.5-0.6,1-1.1,1.7-1.4s1.4-0.5,2.2-0.5c0.8,0,1.5,0.2,2.1,0.5
			c0.7,0.3,1.2,0.8,1.7,1.4c0.5,0.6,0.8,1.3,1.1,2.1c0.3,0.8,0.4,1.7,0.4,2.6v0c0,0.9-0.1,1.8-0.4,2.6c-0.3,0.8-0.6,1.5-1.1,2.1
			c-0.5,0.6-1,1.1-1.7,1.4C707.9-106.5,707.1-106.3,706.4-106.3z M706.4-108.9c0.4,0,0.8-0.1,1.2-0.3s0.7-0.5,1-0.9
			c0.3-0.4,0.5-0.8,0.6-1.3c0.1-0.5,0.2-1,0.2-1.6v0c0-0.6-0.1-1.1-0.2-1.6c-0.1-0.5-0.4-0.9-0.6-1.3s-0.6-0.7-1-0.9
			c-0.4-0.2-0.8-0.3-1.2-0.3c-0.5,0-0.9,0.1-1.2,0.3c-0.4,0.2-0.7,0.5-1,0.9c-0.3,0.4-0.5,0.8-0.6,1.3c-0.1,0.5-0.2,1-0.2,1.6v0
			c0,0.6,0.1,1.1,0.2,1.6s0.4,0.9,0.6,1.3c0.3,0.4,0.6,0.7,1,0.9C705.5-109,705.9-108.9,706.4-108.9z"/>
		<path class="st1" d="M714.7-119.4h2l4.7,7.9v-7.9h2.2v12.9h-1.9l-4.9-8.2v8.2h-2.2V-119.4z"/>
		<path class="st1" d="M729.4-116.8h-3.1v-2.6h8.4v2.6h-3.1v10.3h-2.2V-116.8z"/>
		<path class="st1" d="M747.5-106.3c-0.8,0-1.5-0.2-2.2-0.5c-0.6-0.3-1.2-0.8-1.7-1.4c-0.5-0.6-0.8-1.3-1.1-2.1
			c-0.3-0.8-0.4-1.7-0.4-2.6v0c0-0.9,0.1-1.8,0.4-2.6c0.3-0.8,0.6-1.5,1.1-2.1c0.5-0.6,1-1.1,1.7-1.4c0.6-0.3,1.3-0.5,2.1-0.5
			c0.5,0,0.9,0,1.2,0.1c0.4,0.1,0.7,0.2,1,0.3c0.3,0.1,0.6,0.3,0.9,0.6s0.5,0.5,0.8,0.8l-1.4,2.2c-0.2-0.2-0.4-0.4-0.6-0.6
			c-0.2-0.2-0.4-0.3-0.6-0.4c-0.2-0.1-0.4-0.2-0.7-0.3c-0.2-0.1-0.5-0.1-0.8-0.1c-0.4,0-0.8,0.1-1.1,0.3c-0.4,0.2-0.7,0.5-0.9,0.9
			s-0.5,0.8-0.6,1.3c-0.1,0.5-0.2,1-0.2,1.6v0c0,0.6,0.1,1.1,0.2,1.6c0.1,0.5,0.4,0.9,0.6,1.3s0.6,0.7,1,0.9
			c0.4,0.2,0.8,0.3,1.2,0.3c0.8,0,1.5-0.3,2.1-0.8v-1.9h-2.2v-2.4h4.4v5.6c-0.5,0.6-1.1,1-1.9,1.4
			C749.3-106.5,748.4-106.3,747.5-106.3z"/>
		<path class="st1" d="M758.4-119.5h2l4.3,13h-2.3l-0.9-2.9h-4.3l-0.9,2.9h-2.3L758.4-119.5z M760.7-111.9l-1.3-4.2l-1.3,4.2H760.7z
			"/>
		<path class="st1" d="M769.6-116.8h-3.1v-2.6h8.4v2.6h-3.1v10.3h-2.2V-116.8z"/>
		<path class="st1" d="M777.6-119.4h7.6v2.5h-5.4v2.6h4.8v2.5h-4.8v2.7h5.5v2.5h-7.7V-119.4z"/>
		<path class="st1" d="M793-121.2h1.9l-6.4,17h-1.9L793-121.2z"/>
		<path class="st1" d="M796.8-119.4h7.6v2.5H799v2.6h4.8v2.5H799v2.7h5.5v2.5h-7.7V-119.4z"/>
		<path class="st1" d="M807.5-119.4h2l4.7,7.9v-7.9h2.2v12.9h-1.9l-4.9-8.2v8.2h-2.2V-119.4z"/>
		<path class="st1" d="M822.2-116.8h-3.1v-2.6h8.4v2.6h-3.1v10.3h-2.2V-116.8z"/>
		<path class="st1" d="M830.1-119.4h4.6c1.3,0,2.3,0.4,2.9,1.3c0.6,0.7,0.9,1.7,0.9,2.9v0c0,1-0.2,1.9-0.6,2.5s-0.9,1.1-1.6,1.4
			l2.5,4.6h-2.6l-2.2-4.1h0h-1.7v4.1h-2.2V-119.4z M834.6-113.1c0.5,0,1-0.2,1.3-0.5c0.3-0.3,0.4-0.8,0.4-1.3v0
			c0-0.6-0.2-1.1-0.5-1.4c-0.3-0.3-0.7-0.5-1.3-0.5h-2.2v3.7H834.6z"/>
		<path class="st1" d="M845-119.5h2l4.3,13H849l-0.9-2.9h-4.3l-0.9,2.9h-2.3L845-119.5z M847.3-111.9l-1.3-4.2l-1.3,4.2H847.3z"/>
		<path class="st1" d="M853.9-119.4h2l4.7,7.9v-7.9h2.2v12.9h-1.9l-4.9-8.2v8.2h-2.2V-119.4z"/>
		<path class="st1" d="M870.9-106.3c-0.7,0-1.4-0.2-2.1-0.5c-0.6-0.3-1.2-0.8-1.6-1.4c-0.5-0.6-0.8-1.3-1.1-2.1
			c-0.3-0.8-0.4-1.7-0.4-2.6v0c0-0.9,0.1-1.8,0.4-2.6c0.3-0.8,0.6-1.5,1.1-2.1c0.5-0.6,1-1.1,1.7-1.4c0.6-0.3,1.4-0.5,2.1-0.5
			c0.5,0,0.9,0,1.3,0.1c0.4,0.1,0.7,0.2,1.1,0.4c0.3,0.2,0.6,0.4,0.9,0.6c0.3,0.2,0.5,0.5,0.7,0.8l-1.4,2.1
			c-0.4-0.5-0.8-0.8-1.2-1.1c-0.4-0.3-0.9-0.4-1.4-0.4c-0.4,0-0.8,0.1-1.2,0.3c-0.4,0.2-0.7,0.5-0.9,0.9c-0.3,0.4-0.5,0.8-0.6,1.3
			c-0.1,0.5-0.2,1-0.2,1.6v0c0,0.6,0.1,1.1,0.2,1.6c0.1,0.5,0.3,0.9,0.6,1.3c0.3,0.4,0.6,0.7,0.9,0.9c0.4,0.2,0.8,0.3,1.2,0.3
			c0.6,0,1.1-0.1,1.5-0.4c0.4-0.3,0.8-0.6,1.2-1.1l1.4,1.8c-0.3,0.4-0.5,0.7-0.8,1c-0.3,0.3-0.6,0.5-0.9,0.7
			c-0.3,0.2-0.7,0.4-1.1,0.5S871.4-106.3,870.9-106.3z"/>
		<path class="st1" d="M877.8-119.4h7.6v2.5H880v2.6h4.8v2.5H880v2.7h5.5v2.5h-7.7V-119.4z"/>
	</g>
	<g id="XMLID_4_">
		<path id="XMLID_5_" class="st1" d="M388.6,680.7l-0.9-3c3.7-1.3,7.3-2.9,10.8-4.9l1.4,2.8C396.2,677.7,392.4,679.4,388.6,680.7z
			 M410.2,668.5l-1.8-2.5c3.1-2.5,6-5.3,8.8-8.3l2.1,2.2C416.5,663,413.4,665.9,410.2,668.5z M427.3,650l-2.4-1.9
			c2.3-3.3,4.5-6.9,6.5-10.5l2.6,1.6C431.9,642.9,429.7,646.6,427.3,650z M439.4,627.6l-2.8-1.2c1.5-3.8,2.9-7.8,4-11.8l2.9,0.9
			C442.3,619.5,440.9,623.6,439.4,627.6z M446.3,602.9l-3-0.6c0.7-4.1,1.2-8.3,1.6-12.4l3,0.2C447.6,594.4,447.1,598.7,446.3,602.9z
			 M445.3,578.2c-0.1-4.2-0.3-8.4-0.8-12.5l3-0.4c0.5,4.2,0.8,8.5,0.8,12.8L445.3,578.2z M442.4,553.4c-0.9-4.1-2.1-8.1-3.4-12
			l2.8-1.1c1.4,4,2.6,8.1,3.5,12.3L442.4,553.4z M434.3,530c-1.8-3.7-3.8-7.3-6.1-10.7l2.5-1.8c2.3,3.5,4.4,7.2,6.3,11L434.3,530z"
			/>
	</g>
</g>
</svg>
