<?xml version="1.0" encoding="utf-8"?>
<!-- Generator: Adobe Illustrator 19.0.0, SVG Export Plug-In . SVG Version: 6.00 Build 0)  -->
<svg version="1.1" id="Layer_1" xmlns="http://www.w3.org/2000/svg" xmlns:xlink="http://www.w3.org/1999/xlink" x="0px" y="0px"
	 viewBox="0 0 588.2 516" style="enable-background:new 0 0 588.2 516;" xml:space="preserve">
<style type="text/css">
	.st0{fill:#F0594A;}
	.st1{fill:#C0A475;}
	.st2{fill:#FFFFFF;}
</style>
<g id="XMLID_1_">
	<g id="XMLID_235_">
		<path id="XMLID_396_" d="M346.5,99.9c0,0.6-0.1,1-0.4,1.4c-0.2,0.4-0.5,0.7-0.9,1c-0.4,0.3-0.9,0.5-1.6,0.7
			c-0.6,0.2-1.5,0.2-2.6,0.2l0,0c-0.8,0-1.6-0.1-2.3-0.3c-0.7-0.2-1.3-0.4-1.8-0.8c-0.5-0.3-0.9-0.7-1.2-1.2c-0.3-0.5-0.4-1-0.4-1.7
			c0-0.3,0-0.6,0.1-0.8c0.1-0.2,0.1-0.5,0.3-0.7c0.1-0.2,0.2-0.4,0.4-0.6s0.3-0.4,0.5-0.5l1.8,1.1c-0.1,0.1-0.3,0.3-0.4,0.4
			c-0.1,0.1-0.2,0.3-0.3,0.4c-0.1,0.1-0.1,0.3-0.2,0.4c0,0.2-0.1,0.3-0.1,0.5c0,0.3,0,0.5,0.2,0.7c0.1,0.2,0.3,0.4,0.5,0.5
			c0.2,0.1,0.5,0.3,0.8,0.4c0.3,0.1,0.6,0.2,1,0.2c-0.2-0.2-0.3-0.5-0.5-0.7c-0.1-0.3-0.2-0.6-0.2-1c0-0.4,0.1-0.8,0.3-1.2
			c0.2-0.4,0.4-0.7,0.7-0.9s0.7-0.4,1.1-0.6c0.4-0.1,0.9-0.2,1.5-0.2l0,0c0.6,0,1.1,0.1,1.5,0.3c0.5,0.2,0.8,0.4,1.2,0.7
			c0.3,0.3,0.6,0.6,0.7,1.1C346.4,99.1,346.5,99.5,346.5,99.9z M344.4,99.9c0-0.5-0.1-0.8-0.4-1.1c-0.3-0.3-0.7-0.4-1.1-0.4l0,0
			c-0.5,0-0.8,0.1-1.1,0.3c-0.3,0.3-0.5,0.6-0.5,1.1c0,0.5,0.1,0.8,0.4,1.1c0.3,0.3,0.6,0.4,1.1,0.4l0,0c0.5,0,0.8-0.1,1.2-0.3
			C344.2,100.7,344.4,100.4,344.4,99.9z"/>
		<path id="XMLID_399_" d="M338,89.4l-0.2,4l-2.1-0.1l0.2-6.1l1.8,0.1l8.9,4.1l-0.1,2.1L338,89.4z"/>
		<path id="XMLID_401_" d="M338.4,82.3l-0.1,2.6l-2.2-0.1l0.3-7l2.2,0.1l-0.1,2.6l8.6,0.3l-0.1,1.9L338.4,82.3z"/>
		<path id="XMLID_403_" d="M336.5,74.9l0.1-1.9l4.3,0.2l0.1-3.4l-4.3-0.2l0.1-1.9l10.8,0.4l-0.1,1.9l-4.3-0.2l-0.1,3.4l4.3,0.2
			l-0.1,1.9L336.5,74.9z"/>
		<path id="XMLID_405_" d="M348.2,56.7c0,0.6-0.2,1.3-0.5,1.9c-0.3,0.6-0.8,1.2-1.4,1.6l-1.6-1.2c0.4-0.4,0.8-0.8,1-1.2
			c0.3-0.4,0.4-0.8,0.4-1.3c0-0.4-0.1-0.7-0.2-0.9c-0.2-0.2-0.4-0.3-0.7-0.3l0,0c-0.2,0-0.3,0-0.4,0.1c-0.1,0-0.2,0.1-0.3,0.2
			c-0.1,0.1-0.2,0.3-0.3,0.5c-0.1,0.2-0.2,0.5-0.4,0.9c-0.2,0.4-0.3,0.8-0.5,1.1c-0.2,0.3-0.4,0.6-0.6,0.9c-0.2,0.2-0.6,0.4-0.9,0.5
			c-0.4,0.1-0.8,0.2-1.3,0.1l0,0c-0.5,0-0.9-0.1-1.3-0.3c-0.4-0.2-0.7-0.4-1-0.6c-0.3-0.3-0.5-0.6-0.6-1c-0.1-0.4-0.2-0.8-0.2-1.2
			c0-0.6,0.2-1.2,0.4-1.7c0.3-0.5,0.6-1,1.1-1.4l1.8,1c-0.3,0.4-0.6,0.7-0.8,1.1c-0.2,0.4-0.3,0.7-0.3,1.1c0,0.4,0.1,0.6,0.2,0.8
			c0.2,0.2,0.4,0.3,0.7,0.3l0,0c0.2,0,0.3,0,0.5-0.1c0.1,0,0.3-0.1,0.4-0.3c0.1-0.1,0.2-0.3,0.3-0.6c0.1-0.2,0.2-0.5,0.4-0.9
			c0.2-0.4,0.3-0.8,0.5-1.1c0.2-0.3,0.4-0.6,0.7-0.8s0.6-0.4,0.9-0.5c0.3-0.1,0.8-0.1,1.2-0.1l0,0c0.5,0,1,0.1,1.4,0.3
			c0.4,0.2,0.8,0.4,1,0.7c0.3,0.3,0.5,0.6,0.6,1C348.1,55.8,348.2,56.2,348.2,56.7z"/>
		<path id="XMLID_407_" d="M339.7,48.2l-0.1,2.6l-2.2-0.1l0.3-7l2.2,0.1l-0.1,2.6l8.6,0.3l-0.1,1.9L339.7,48.2z"/>
		<path id="XMLID_409_" d="M346.2,41.4l0.1-1.9l2.5,0.1l-0.1,1.9L346.2,41.4z"/>
	</g>
	<g id="XMLID_234_">
		<path id="XMLID_379_" class="st0" d="M425.1,5.3h5.8c0.9,0,1.6,0.2,2.3,0.5s1.2,0.7,1.7,1.3c0.5,0.6,0.8,1.2,1.1,2
			c0.3,0.8,0.4,1.6,0.4,2.6v0.1c0,1.1-0.1,2-0.4,2.8c-0.3,0.8-0.7,1.5-1.2,2s-1.1,0.9-1.8,1.2c-0.7,0.3-1.4,0.4-2.2,0.4h-2.4v5.5
			h-3.1V5.3z M430.7,14.5c0.8,0,1.4-0.3,1.8-0.8c0.4-0.5,0.7-1.2,0.7-2v-0.1c0-0.9-0.2-1.6-0.7-2.1c-0.5-0.5-1.1-0.7-1.9-0.7h-2.4
			v5.6H430.7z"/>
		<path id="XMLID_382_" class="st0" d="M446,5.1h2.9l6.1,18.3h-3.3l-1.3-4.1h-6l-1.3,4.1h-3.2L446,5.1z M449.3,15.9l-1.9-5.9
			l-1.9,5.9H449.3z"/>
		<path id="XMLID_385_" class="st0" d="M459.7,5.3h6.5c1.8,0,3.2,0.6,4.2,1.8c0.8,1,1.2,2.4,1.2,4.2v0.1c0,1.5-0.3,2.7-0.8,3.6
			s-1.3,1.6-2.2,2l3.5,6.5h-3.7l-3.1-5.8h0h-2.4v5.8h-3.1V5.3z M466,14.1c0.8,0,1.4-0.2,1.8-0.7s0.6-1.1,0.6-1.9v-0.1
			c0-0.9-0.2-1.5-0.7-2c-0.4-0.4-1-0.7-1.8-0.7h-3.1v5.2H466z"/>
		<path id="XMLID_388_" class="st0" d="M476.8,5.3h3.1v8l5.8-8h3.8l-5.8,7.7l6.1,10.5H486l-4.4-7.8l-1.6,2.2v5.6h-3.1V5.3z"/>
		<path id="XMLID_390_" class="st0" d="M494.3,5.3h3.1v18.2h-3.1V5.3z"/>
		<path id="XMLID_392_" class="st0" d="M503.4,5.3h2.9l6.7,11.2V5.3h3.1v18.2h-2.7l-6.9-11.6v11.6h-3.1V5.3z"/>
		<path id="XMLID_394_" class="st0" d="M528.8,23.8c-1.1,0-2.1-0.2-3-0.7s-1.7-1.1-2.4-2c-0.7-0.8-1.2-1.8-1.5-3
			c-0.4-1.1-0.5-2.4-0.5-3.7v-0.1c0-1.3,0.2-2.5,0.6-3.7c0.4-1.1,0.9-2.1,1.6-3s1.5-1.5,2.4-2c0.9-0.5,1.9-0.7,3-0.7
			c0.6,0,1.2,0.1,1.7,0.2c0.5,0.1,1,0.3,1.5,0.5c0.4,0.2,0.9,0.5,1.3,0.8s0.8,0.7,1.1,1.1l-2,3c-0.3-0.3-0.5-0.6-0.8-0.8
			c-0.3-0.2-0.6-0.4-0.8-0.6s-0.6-0.3-0.9-0.4c-0.3-0.1-0.7-0.1-1.1-0.1c-0.6,0-1.1,0.2-1.6,0.5c-0.5,0.3-0.9,0.7-1.3,1.2
			c-0.4,0.5-0.7,1.1-0.9,1.8c-0.2,0.7-0.3,1.4-0.3,2.2v0.1c0,0.8,0.1,1.6,0.3,2.3c0.2,0.7,0.5,1.3,0.9,1.8c0.4,0.5,0.8,0.9,1.4,1.2
			c0.5,0.3,1.1,0.4,1.7,0.4c1.2,0,2.2-0.4,3-1.1v-2.6h-3.2V13h6.2v7.9c-0.7,0.8-1.6,1.5-2.6,2C531.3,23.5,530.1,23.8,528.8,23.8z"/>
	</g>
	<g id="XMLID_2_">
		<g id="XMLID_233_">
			<path id="XMLID_350_" d="M395,427l2-0.4l3.4,7l0.3-7.9l1.6-0.4l3.5,7l0.2-7.8l2-0.4l-0.5,11.7l-1.6,0.4l-3.5-6.7l-0.4,7.6
				l-1.6,0.4L395,427z"/>
			<path id="XMLID_352_" d="M410.8,423.5l6.4-1.4l0.5,2.1l-4.6,1l0.5,2.2l4-0.9l0.5,2.1l-4,0.9l0.5,2.3l4.6-1l0.5,2.1l-6.5,1.4
				L410.8,423.5z"/>
			<path id="XMLID_354_" d="M425.9,431.8c-0.7,0.1-1.3,0.1-2,0c-0.7-0.1-1.4-0.5-2-0.9l0.7-1.9c0.5,0.3,1,0.6,1.4,0.7
				c0.5,0.1,0.9,0.2,1.4,0.1c0.4-0.1,0.7-0.2,0.9-0.5c0.2-0.2,0.2-0.5,0.2-0.8l0,0c0-0.2-0.1-0.3-0.2-0.4c-0.1-0.1-0.2-0.2-0.3-0.3
				s-0.3-0.1-0.6-0.2c-0.2-0.1-0.6-0.1-0.9-0.1c-0.5,0-0.9-0.1-1.3-0.2c-0.4-0.1-0.7-0.2-1-0.4c-0.3-0.2-0.6-0.5-0.8-0.8
				c-0.2-0.3-0.4-0.8-0.5-1.3l0,0c-0.1-0.5-0.1-1-0.1-1.4c0.1-0.4,0.2-0.8,0.4-1.2c0.2-0.3,0.5-0.6,0.8-0.9c0.3-0.2,0.7-0.4,1.2-0.5
				c0.6-0.1,1.2-0.1,1.8,0c0.6,0.1,1.1,0.4,1.7,0.7l-0.6,2c-0.5-0.2-0.9-0.4-1.3-0.5c-0.4-0.1-0.8-0.1-1.2,0
				c-0.4,0.1-0.6,0.2-0.8,0.5s-0.2,0.5-0.1,0.7l0,0c0,0.2,0.1,0.3,0.2,0.4c0.1,0.1,0.2,0.2,0.4,0.3c0.2,0.1,0.4,0.1,0.6,0.2
				c0.3,0,0.6,0.1,1,0.1c0.5,0.1,0.9,0.1,1.3,0.2c0.4,0.1,0.7,0.3,1,0.5s0.5,0.5,0.7,0.8c0.2,0.3,0.3,0.7,0.4,1.2l0,0
				c0.1,0.5,0.1,1,0.1,1.5c-0.1,0.5-0.2,0.9-0.4,1.2c-0.2,0.3-0.5,0.6-0.8,0.9C426.8,431.6,426.4,431.7,425.9,431.8z"/>
			<path id="XMLID_356_" d="M432.2,421.2l-2.6,0.6l-0.5-2.2l7.1-1.5l0.5,2.2l-2.6,0.6l1.9,8.7l-1.9,0.4L432.2,421.2z"/>
			<path id="XMLID_358_" d="M450.7,426.5c-0.6,0.1-1.2,0.1-1.8-0.1c-0.6-0.2-1.2-0.5-1.7-0.9c-0.5-0.4-0.9-1-1.3-1.6
				c-0.4-0.6-0.6-1.3-0.8-2.1l0,0c-0.2-0.8-0.2-1.5-0.1-2.3c0.1-0.7,0.2-1.4,0.5-2c0.3-0.6,0.7-1.1,1.1-1.5c0.5-0.4,1.1-0.7,1.7-0.8
				c0.4-0.1,0.8-0.1,1.1-0.1c0.3,0,0.7,0.1,1,0.1c0.3,0.1,0.6,0.2,0.9,0.4c0.3,0.2,0.5,0.3,0.8,0.5l-0.8,2c-0.4-0.3-0.8-0.5-1.2-0.7
				c-0.4-0.1-0.8-0.2-1.2-0.1c-0.4,0.1-0.7,0.2-0.9,0.5c-0.3,0.2-0.5,0.5-0.6,0.9s-0.2,0.8-0.3,1.2c0,0.4,0,0.9,0.1,1.4l0,0
				c0.1,0.5,0.3,0.9,0.5,1.3c0.2,0.4,0.5,0.7,0.7,1c0.3,0.3,0.6,0.5,0.9,0.6c0.3,0.1,0.7,0.1,1.1,0.1c0.5-0.1,0.9-0.3,1.2-0.6
				c0.3-0.3,0.6-0.7,0.8-1.2l1.5,1.3c-0.2,0.3-0.3,0.7-0.5,1c-0.2,0.3-0.4,0.6-0.6,0.8c-0.2,0.2-0.5,0.4-0.8,0.6
				C451.5,426.3,451.1,426.4,450.7,426.5z"/>
			<path id="XMLID_360_" d="M454.8,413.9l6.4-1.4l0.5,2.1l-4.6,1l0.5,2.2l4-0.9l0.5,2.1l-4,0.9l0.5,2.3l4.6-1l0.5,2.1l-6.5,1.4
				L454.8,413.9z"/>
			<path id="XMLID_362_" d="M464.4,411.8l1.7-0.4l5.5,5.9l-1.5-6.7l1.9-0.4l2.4,10.9l-1.6,0.3l-5.7-6.1l1.5,7l-1.9,0.4L464.4,411.8z
				"/>
			<path id="XMLID_364_" d="M478.1,411.2l-2.6,0.6l-0.5-2.2l7.1-1.5l0.5,2.2l-2.6,0.6l1.9,8.7l-1.9,0.4L478.1,411.2z"/>
			<path id="XMLID_366_" d="M485,407.4l6.4-1.4l0.5,2.1l-4.6,1l0.5,2.2l4-0.9l0.5,2.1l-4,0.9l0.5,2.3l4.6-1l0.5,2.1l-6.5,1.4
				L485,407.4z"/>
			<path id="XMLID_368_" d="M494.6,405.3l3.9-0.9c1.1-0.2,2,0,2.7,0.6c0.6,0.5,1.1,1.3,1.3,2.3l0,0c0.2,0.9,0.2,1.6,0,2.3
				c-0.2,0.6-0.6,1.1-1.1,1.5l2.9,3.5l-2.2,0.5l-2.6-3.1l0,0l-1.5,0.3l0.8,3.5l-1.9,0.4L494.6,405.3z M499.6,409.8
				c0.5-0.1,0.8-0.3,1-0.7c0.2-0.3,0.2-0.7,0.1-1.2l0,0c-0.1-0.5-0.3-0.9-0.6-1.1c-0.3-0.2-0.7-0.3-1.2-0.2L497,407l0.7,3.1
				L499.6,409.8z"/>
			<path id="XMLID_371_" d="M510.1,401.9l3.9-0.9c1.1-0.2,2,0,2.7,0.6c0.6,0.5,1.1,1.3,1.3,2.3l0,0c0.2,0.9,0.2,1.6,0,2.3
				c-0.2,0.6-0.6,1.1-1.1,1.5l2.9,3.5l-2.2,0.5l-2.6-3.1l0,0l-1.5,0.3l0.8,3.5l-1.9,0.4L510.1,401.9z M515,406.4
				c0.5-0.1,0.8-0.3,1-0.7c0.2-0.3,0.2-0.7,0.1-1.2l0,0c-0.1-0.5-0.3-0.9-0.6-1.1c-0.3-0.2-0.7-0.3-1.2-0.2l-1.9,0.4l0.7,3.1
				L515,406.4z"/>
			<path id="XMLID_374_" d="M520.4,399.7l3.3-0.7c0.7-0.1,1.3-0.1,1.9,0c0.6,0.2,1.2,0.4,1.7,0.8c0.5,0.4,0.9,0.9,1.3,1.5
				c0.4,0.6,0.6,1.3,0.8,2.1l0,0c0.2,0.8,0.2,1.5,0.1,2.2c-0.1,0.7-0.3,1.4-0.6,1.9c-0.3,0.6-0.7,1.1-1.2,1.5
				c-0.5,0.4-1.1,0.7-1.8,0.8l-3.3,0.7L520.4,399.7z M525.6,407.7c0.4-0.1,0.7-0.2,1-0.5s0.5-0.5,0.7-0.8c0.2-0.3,0.3-0.7,0.3-1.1
				c0-0.4,0-0.9-0.1-1.4l0,0c-0.1-0.5-0.3-0.9-0.5-1.3c-0.2-0.4-0.5-0.7-0.8-0.9c-0.3-0.2-0.6-0.4-1-0.5c-0.4-0.1-0.7-0.1-1.1,0
				l-1.5,0.3l1.4,6.6L525.6,407.7z"/>
			<path id="XMLID_377_" d="M533,405.8l2-0.4l0.5,2.5l-2,0.4L533,405.8z"/>
		</g>
		<g id="XMLID_232_">
			<path id="XMLID_340_" d="M239.3,410.7l2-0.4l3.3,4.1l1.2-5.1l2-0.4l2.4,10.9l-1.9,0.4l-1.6-7.1l-1.4,5.2l0,0l-3.4-4.1l1.5,7.1
				l-1.9,0.4L239.3,410.7z"/>
			<path id="XMLID_342_" d="M254.3,407.4l1.7-0.4l6.1,10.2l-2,0.4l-1.3-2.3l-3.6,0.8l-0.2,2.6l-1.9,0.4L254.3,407.4z M257.6,413.4
				l-1.9-3.3l-0.4,3.8L257.6,413.4z"/>
			<path id="XMLID_345_" d="M262.5,405.7l1.9-0.4l0.9,4.3l3.5-0.8l-0.9-4.3l1.9-0.4l2.4,10.9l-1.9,0.4l-1-4.4l-3.5,0.8l1,4.4
				l-1.9,0.4L262.5,405.7z"/>
			<path id="XMLID_347_" d="M276.1,402.6l1.7-0.4l6.1,10.2l-2,0.4l-1.3-2.3l-3.6,0.8l-0.2,2.6l-1.9,0.4L276.1,402.6z M279.5,408.6
				l-1.9-3.3l-0.4,3.8L279.5,408.6z"/>
		</g>
		<g id="XMLID_231_">
			<path id="XMLID_323_" d="M487.3,117c0,0.6-0.1,1-0.3,1.4s-0.5,0.7-0.9,1c-0.4,0.3-0.9,0.5-1.5,0.7s-1.5,0.3-2.6,0.2h0
				c-0.8,0-1.6-0.1-2.3-0.2c-0.7-0.2-1.3-0.4-1.9-0.7c-0.5-0.3-0.9-0.7-1.2-1.2c-0.3-0.5-0.4-1-0.4-1.6c0-0.3,0-0.6,0.1-0.8
				c0.1-0.2,0.1-0.5,0.2-0.7c0.1-0.2,0.2-0.4,0.4-0.6s0.3-0.4,0.5-0.6l1.8,1c-0.1,0.1-0.3,0.3-0.4,0.4c-0.1,0.1-0.2,0.3-0.3,0.4
				c-0.1,0.1-0.1,0.3-0.2,0.4c0,0.2-0.1,0.3-0.1,0.5c0,0.3,0.1,0.5,0.2,0.7c0.1,0.2,0.3,0.4,0.5,0.5c0.2,0.1,0.5,0.3,0.8,0.3
				c0.3,0.1,0.6,0.1,1,0.2c-0.2-0.2-0.3-0.5-0.5-0.7c-0.1-0.3-0.2-0.6-0.2-1c0-0.4,0.1-0.8,0.2-1.2c0.2-0.4,0.4-0.7,0.7-0.9
				s0.7-0.5,1.1-0.6c0.4-0.1,0.9-0.2,1.5-0.2h0c0.6,0,1.1,0.1,1.5,0.3c0.5,0.2,0.8,0.4,1.2,0.7c0.3,0.3,0.6,0.6,0.8,1
				C487.3,116.1,487.3,116.5,487.3,117z M485.3,117c0-0.5-0.1-0.8-0.4-1.1c-0.3-0.3-0.7-0.4-1.1-0.4h0c-0.5,0-0.8,0.1-1.1,0.4
				c-0.3,0.3-0.4,0.6-0.4,1.1c0,0.5,0.1,0.8,0.4,1.1c0.3,0.3,0.7,0.4,1.1,0.4h0c0.5,0,0.8-0.1,1.1-0.4S485.3,117.5,485.3,117z"/>
			<path id="XMLID_326_" d="M484.9,106.8l0,4.1l-1.7,0.3l-6.8-4.7l0-1.6l6.6,0.1l0-1.1l1.9,0l0,1.1l2.3,0l0,1.8L484.9,106.8z
				 M483,106.8l-3.4,0l3.3,2.3L483,106.8z"/>
			<path id="XMLID_329_" d="M478.7,98.8l0,2.6l-2.2,0l0.1-7l2.2,0l0,2.6l8.6,0.1l0,1.9L478.7,98.8z"/>
			<path id="XMLID_331_" d="M476.6,91.4l0-1.9l4.3,0l0-3.4l-4.3,0l0-1.9l10.8,0.1l0,1.9l-4.3,0l0,3.4l4.3,0l0,1.9L476.6,91.4z"/>
			<path id="XMLID_333_" d="M476.7,72.8l0-1.7l10.9-3.5l0,1.9l-2.4,0.7l0,3.6l2.4,0.8l0,1.9L476.7,72.8z M483.1,71l-3.5,1.1l3.5,1.2
				L483.1,71z"/>
			<path id="XMLID_336_" d="M476.9,65.5l0-2.1l7.6-2.1l-7.6-2.3l0-2l10.8,3.5l0,1.6L476.9,65.5z"/>
			<path id="XMLID_338_" d="M477,54.2l0.1-6.4l2.1,0l0,4.5l2.2,0l0-4l2.1,0l0,4l2.3,0l0-4.6l2.1,0l-0.1,6.4L477,54.2z"/>
		</g>
		<g id="XMLID_230_">
			
				<rect id="XMLID_733_" x="380.1" y="244.1" transform="matrix(0.4517 0.8922 -0.8922 0.4517 481.9368 -205.674)" class="st0" width="56.4" height="90.4"/>
		</g>
		<g id="XMLID_229_">
			
				<rect id="XMLID_731_" x="205.4" y="71.4" transform="matrix(-0.9998 -1.969172e-02 1.969172e-02 -0.9998 486.2352 250.2605)" class="st0" width="77.8" height="102.8"/>
		</g>
		<g id="XMLID_14_">
			<g id="XMLID_25_">
				<path id="XMLID_526_" class="st1" d="M586,360.5c0-0.2-0.2-0.4-0.4-0.4c-0.1,0-0.2,0-0.3,0c-0.7,0.2-1.4,0.3-2.1,0.5
					c-0.6,0.2-1,0.6-1.7,0.5c-0.1,0-0.3,0.1-0.5,0.2c-0.6,0.3-1.2,0.4-1.9,0.4c-1.2-0.1-2.4-0.1-3.5,0.2c-0.3,0.1-0.5-0.1-0.6-0.3
					c-0.2-0.3-0.3-0.6-0.4-0.9c-0.2-0.5-0.5-0.7-1-0.7c-0.3,0-0.7,0-1,0c-0.7,0.1-32,6.9-66.7,14.3c-3.7-85.6-3-326.6-3.2-328
					c-0.2-1.7-0.4-3.4-0.6-5.1c0-0.5,0-0.9,0-1.4c0-0.2,0-0.3,0-0.5c0-0.2-0.2-0.3-0.3-0.3c-0.4,0-0.8,0.2-1.3,0
					c-0.4-0.2-0.7-0.1-1,0.3c-0.1,0.2-0.3,0.1-0.5,0.1c-0.3,0-0.5,0.2-0.5,0.4c-0.2,0.7-0.2,1.3-0.2,2c0,0.3,0,0.7,0,1
					c0,0.2-0.1,0.4-0.2,0.6c-0.1,0.2-0.3,0.3-0.5,0.2c-0.2,0-0.3-0.1-0.5-0.2c-0.2-0.1-0.3,0-0.4,0.2c0,0,0,0.1-0.1,0.1
					c0,0,0,0.1-0.1,0.1c-0.1,0.1-0.2,0.2-0.3,0.2c-0.1,0-0.2-0.1-0.2-0.2c-0.1-0.4-0.2-0.9-0.4-1.3c0-0.1-0.2-0.1-0.3-0.2
					c0,0-0.1,0-0.1,0c-0.4,0.3-0.9,0.3-1.3,0c-0.1-0.1-0.2-0.1-0.4-0.1c-0.3-0.1-0.7,0.2-0.7,0.4c0,0.5-0.1,0.9,0,1.4
					c0.1,0.8,0.3,1.6,0.3,2.4c0.1,1.1-0.2,240.6,3.3,329.7c-40.2,8.6-81.5,17.5-82.2,17.7c-0.4,0.1-0.8,0.2-1.3,0.2
					c-2,0.2-4,0.8-6,1c-0.1,0-0.2,0.1-0.4,0.1c-0.6,0.1-1.2,0.3-1.7,0.4c-0.4,0.1-0.7,0.1-1.1-0.1c-0.4-0.2-0.7-0.2-1.1-0.1
					c-2,0.4-3.8,1.1-5.6,2c-0.9,0.4-1.8,0.8-2.7,1.1c-2,0.7-4.1,1.3-6.2,1.8c-0.6,0.2-1.2,0.4-1.8,0.5c-1,0.3-2,0.4-2.9,0.8
					c-0.2,0.1-0.5,0.1-0.7,0.2c-1.6,0.3-3.3,0.6-4.9,0.9c-1.9,0.3-3.9,0.4-5.8,0.6c-2.1,0.1-2.5,0.1-4.4-0.8c-1.8-0.8-3.3-2-4.5-3.6
					c-0.8-1.1-1.6-2.3-2.3-3.5c-0.6-1.1-1.2-2.2-1.9-3.3c-1-1.7-2.1-3.3-3.1-4.9c-0.4-0.7-0.9-1.3-1.3-2c-1-1.7-2-3.4-3-5
					c-0.9-1.6-1.9-3.1-2.9-4.7c-1.1-1.8-2.2-3.5-3.3-5.3c-1.2-2-2.4-4-3.6-6c-0.5-0.8-1.1-1.6-1.6-2.5c-1-1.5-2-3-2.9-4.5
					c-0.3-0.4-0.5-0.8-0.8-1.2c-0.6-1-1.3-2-1.9-3c-1-1.5-2-3-3-4.6c-0.5-0.7-1-1.5-1.5-2.2c-0.7-1.2-1.4-2.4-2.1-3.6
					c-0.5-0.9-1-1.8-1.5-2.7c-0.9-1.7-1.6-3.6-2.3-5.4c-0.4-1-0.8-2.1-1.1-3.1c-0.4-1.3-0.8-2.7-1.3-4c-0.4-1.2-0.8-2.3-0.8-3.6
					c0-0.6-0.2-1.2-0.1-1.8c0.1-0.6-0.2-1.2-0.2-1.8c0-0.3-0.1-0.6-0.1-0.9c-0.1-0.4-0.2-0.8,0-1.2c0.2-0.5,0.2-1.1,0-1.6
					c-0.2-0.7-0.2-1.3-0.2-2c0-0.3,0-0.5-0.1-0.8c0-1.1-0.1-2.1-0.1-3.2c0-0.9,2.2-49.5,4.7-104.9c0.5,0,0.9,0.1,1.3,0.1
					c0.7-2.3,1.5-4.7,2.4-7.1c-1.1-0.1-2.2-0.1-3.4-0.2c3.2-71.9,6.8-152,6.8-153.1c0-1.7-0.1-3.4-0.1-5.1c0-0.5,0.1-0.9,0.1-1.4
					c0-0.2,0.1-0.3,0.1-0.5c0-0.2-0.1-0.3-0.3-0.3c-0.4,0-0.9,0.1-1.2-0.1c-0.4-0.2-0.7-0.2-1,0.2c-0.1,0.2-0.3,0.1-0.5,0.1
					c-0.3-0.1-0.5,0.1-0.6,0.4c-0.2,0.6-0.3,1.3-0.4,2c0,0.3,0,0.7-0.1,1c0,0.2-0.2,0.4-0.3,0.6c-0.1,0.2-0.3,0.3-0.6,0.2
					c-0.2-0.1-0.3-0.1-0.5-0.2c-0.2-0.1-0.3,0-0.4,0.1c0,0-0.1,0.1-0.1,0.1c0,0,0,0.1-0.1,0.1c-0.1,0.1-0.2,0.2-0.3,0.2
					c-0.1,0-0.2-0.1-0.2-0.3c-0.1-0.5-0.2-0.9-0.3-1.4c0-0.1-0.2-0.1-0.3-0.2c0,0-0.1,0-0.1,0c-0.5,0.2-0.9,0.2-1.3-0.2
					c-0.1-0.1-0.2-0.1-0.3-0.2c-0.3-0.1-0.7,0.1-0.7,0.4c-0.1,0.5-0.1,0.9-0.1,1.4c0,0.8,0.1,1.6,0.1,2.4c0,0.9-3.6,81.3-6.8,153.2
					c-15.4-1-36-2.4-56.4-3.8c0-0.2,0-0.3,0-0.5c1.2-0.2,2.3-0.5,3.4-0.7c-1.2-0.1-2.3-0.2-3.5-0.3c-0.2-5.8-0.4-11.9-0.6-18.1
					c-1,0.2-2,0.4-3,0.4c-1.7,0-3.4-0.4-4.9-1c0.2,6.2,0.4,12.3,0.7,18.2c-2.5-0.1-4.9-0.3-7.4-0.4c-4.9-0.2-9.7,0-14.3,0.2
					c0,0-0.1,0-0.1,0c0,0-0.1,0-0.1,0c-7.2,0.4-14.1,1.2-21.3,1.8c-0.9,0.1-1.8,0.1-2.6,0.2c-3.5,1-6.9,2-10.3,3
					c2,0.1,4.1,0.3,6.4,0.4c-29,5.6-56,10.9-64.3,12.5c-17.7-44-33.7-83.8-33.9-84.4c-0.2-0.6-0.5-1.3-0.8-1.9
					c-0.3-0.6-0.6-1.2-0.8-1.9c-0.8-2.1-1.8-4.2-2.8-6.3c-0.6-1.3-1.3-2.6-1.9-3.9c-0.1-0.2-0.2-0.5-0.4-0.7c-0.2-0.3-0.6-0.5-1-0.4
					c-0.3,0-0.5,0.1-0.6,0.4c-0.1,0.3-0.2,0.6-0.2,0.8c-0.1,0.2-0.2,0.4-0.5,0.3c-0.6-0.2-1,0.1-1.3,0.5c-0.1,0.1-0.1,0.2-0.2,0.3
					c-0.1,0.2-0.4,0.3-0.6,0.4c-0.1,0-0.3,0-0.4,0.1c-0.4,0.1-0.7,0.3-0.8,0.7c-0.2,0.5-0.2,1,0,1.5c0.1,0.2,0.2,0.5,0.3,0.7
					c0.2,0.3,0.3,0.7,0.5,1c0.3,0.8,0.7,1.6,1,2.3c0.4,1,0.9,1.9,1.2,2.9c0.4,1.1,0.7,2.2,1.1,3.2c0.2,0.7,0.6,1.3,0.8,2
					c0.2,0.5,0.5,1.1,0.7,1.6c0.1,0.4,15.6,39,33,82.1c-1,0.2-2.1,0.5-3.1,0.8C125.8,212.8,4.5,238.7,3.4,239
					c-0.2,0.1-0.4,0.1-0.6,0.2c-0.3,0.2-0.5,0.5-0.7,0.9c-0.1,0.3-0.1,0.5,0,0.7c0.1,0.2,0.3,0.3,0.4,0.5c0.1,0.1,0.2,0.3,0,0.5
					c-0.3,0.5-0.3,1-0.2,1.4c0,0.1,0.1,0.2,0.1,0.3c0.1,0.2,0.1,0.4,0,0.7c0,0.1-0.1,0.3-0.1,0.4c-0.1,0.4,0,0.7,0.1,1
					c0.2,0.3,0.5,0.4,0.9,0.3c0.2-0.1,120.7-25.7,120.9-25.7c0.3-0.1,0.6-0.2,0.8-0.2c0.6-0.1,1.2-0.3,1.8-0.4
					c0.8-0.2,1.5-0.4,2.3-0.5c0.8-0.1,1.6-0.2,2.5-0.3c0.3,0,0.6-0.1,0.9-0.2c21.3,52.9,44.3,109.8,44.6,110.2
					c0.5,0.8,0.9,1.6,1.2,2.5c0.2,0.8,0.6,1.5,0.9,2.2c0.9,2.2,1.8,4.4,2.7,6.6c0.2,0.5,0.5,1.1,0.7,1.6c0.5,1.1,1,2.1,1.5,3.2
					c0.4,1,0.9,2,1.3,3c0.6,1.3,1.2,2.6,1.8,3.9c0.6,1.3,1.1,2.6,1.7,4c0.2,0.5,0.5,1.1,0.7,1.6c0.4,0.8,0.8,1.5,1.1,2.3
					c0.1,0.4,0.4,0.9,0.6,1.3c0.5,1,0.9,2.1,1.4,3.1c0.3,0.8,0.7,1.6,1,2.3c0.6,1.4,1.2,2.7,1.7,4.1c0.7,1.8,1.3,3.6,2,5.4
					c0.3,0.8,0.7,1.6,1,2.5c0.4,1.2,0.8,2.5,1.5,3.6c0.1,0.1,0.1,0.2,0.1,0.4c0.7,1.6,1.2,3.3,1.7,5.1c0.3,1.3,0.4,2.6,0.2,3.9
					c-0.1,0.7-0.4,1.3-0.9,1.8c-0.8,0.8-1.7,1.6-2.8,2c-0.5,0.2-1,0.4-1.5,0.6c-0.3,0.1-0.5,0.2-0.8,0.4c-0.4,0.2-0.8,0.4-1.2,0.5
					c-0.6,0.3-1.2,0.5-1.8,0.8c-0.7,0.3-1.5,0.7-2.2,1c-1.2,0.5-2.4,0.9-3.6,1.4c-1.4,0.5-86.6,34.6-88,35.1
					c-1.4,0.4-2.7,0.9-4.1,1.3c-1.5,0.4-3.1,0.9-4.7,1.2c-0.7,0.2-1.4,0.5-2,0.7c-0.2,0.1-0.4,0.2-0.4,0.5c-0.2,0.9,0.5,1.5,1.3,1.3
					c0.1,0,0.2-0.1,0.4-0.1c1-0.3,2-0.6,3-0.9c0.8-0.2,1.6-0.4,2.3-0.6c0.5-0.1,0.9-0.2,1.3-0.4c0.3-0.1,0.7-0.2,1-0.2
					c0.2,0,0.5,0.2,0.5,0.5c0.1,0.2,0,0.5-0.2,0.5c-0.5,0.2-1,0.3-1.4,0.5c-0.8,0.4-1.6,0.6-2.4,0.8c-1,0.2-1,0.2-0.5,1.2
					c0.1,0.2,0.2,0.4,0.4,0.7c0.2,0.3,0.4,0.4,0.7,0.4c0.5,0,0.9,0,1.4,0c0.3,0,0.4,0.1,0.5,0.3c0.1,0.2-0.1,0.3-0.2,0.4
					c-0.1,0.1-0.1,0.1-0.2,0.2c-0.1,0.1-0.2,0.3-0.1,0.5c0.3,0.4,0.5,0.8,0.8,1.1c0.2,0.2,0.4,0.4,0.6,0.5c0,0.1,0,0.1-0.1,0.1
					c-0.4,0.2-0.9,0.3-1.3,0.5c-0.8,0.3-1.7,0.6-2.5,0.9c-0.5,0.2-0.9,0.6-1.2,1.1c-0.1,0.1-0.1,0.2-0.1,0.4c0,0.3,0.4,0.8,0.8,0.7
					c0.3,0,0.5-0.1,0.7-0.1c0.4-0.1,0.8-0.3,1.2-0.4c0.6-0.1,1.2-0.4,1.8-0.6c0.3-0.1,0.6-0.3,0.9-0.4c1.4-0.5,2.8-1.2,4.3-1.6
					c0.2-0.1,0.4-0.1,0.6-0.2c1.6-0.7,87-35.1,88.6-36c1-0.5,2-1.1,3-1.6c1.3-0.7,2.7-1.4,4.1-2c0.5-0.2,1-0.4,1.5-0.7
					c1.7-1,3.6-1.6,5.3-2.7c0,0,0.1,0,0.1-0.1c1.4-0.5,2.6-1.4,3.9-2c1.9-1,3.8-2.1,5.7-3c0.9-0.4,1.8-1,2.7-1.5
					c0.8-0.5,1.6-0.9,2.5-1.3c1-0.5,2-1,2.9-1.5c0.4-0.2,0.8-0.6,1.2-0.9c0.4-0.3,0.9-0.4,1.4-0.7c0.8-0.4,1.6-0.9,2.4-1.4
					c1.8-1,3.6-2,5.4-3.1c1.3-0.8,2.6-1.7,3.8-2.5c0.3-0.2,0.6-0.3,0.9-0.5c1.1-0.5,2.3-1,3.2-1.8c0.1-0.1,0.1-0.1,0.2-0.1
					c1-0.7,2-1.3,3-1.8c1.1-0.5,2.1-1.1,3.1-1.7c1.4-0.8,2.7-1.6,3.9-2.5c0.4-0.3,0.9-0.5,1.3-0.8c0.3-0.2,0.6-0.3,0.9-0.5
					c1.3-0.7,2.5-1.5,3.8-2.1c1.9-1,3.7-2,5.5-3.1c1.1-0.7,2.3-1.3,3.4-2c1.2-0.7,2.4-1.5,3.6-2.1c1.6-0.8,3.2-1.6,4.7-2.4
					c0.2-0.1,0.3-0.1,0.4-0.2c0.6-0.4,1.3-0.7,2-1.1c0.7-0.3,1.3-0.7,2-1.1c1.1-0.6,2.1-1.2,3.1-1.9c0.2-0.1,0.4-0.2,0.6-0.3
					c0.4-0.2,0.8-0.4,1.1-0.6c1.4-0.9,2.9-1.7,4.4-2.5c0.4-0.2,0.9-0.5,1.3-0.7c1.6-0.7,3-1.6,4.5-2.4c0.2-0.1,0.5-0.2,0.7-0.3
					c1.1-0.1,2.1-0.2,3.2-0.3c-0.2-0.4-0.3-0.8-0.5-1.2c0.3-0.2,0.7-0.4,1-0.6c0.5-0.3,1.1-0.5,1.6-0.8c1-0.7,2.2-1.2,3.2-1.7
					c0.1-0.1,0.3-0.2,0.4-0.2c0.9-0.4,1.8-0.7,2.7-1.1c0.9-0.3,1.7-0.8,2.6-0.9c0.2,0,0.4-0.1,0.6-0.2c0.2-0.1,0.5-0.1,0.7-0.2
					c0.5-0.1,1-0.2,1.5-0.3c1.2-0.2,2.3-0.4,3.5-0.3c0.7,0,1.1,0.3,1.5,0.8c0.3,0.4,0.6,0.7,0.9,1.1c0.4,0.4,0.7,0.8,1,1.3
					c1.1,1.6,2.1,3.2,3.2,4.7c1.5,2.3,3.3,4.3,4.9,6.5c1.2,1.7,2.5,3.2,3.6,4.9c0.9,1.4,1.7,2.7,2.5,4.1c1.7,2.8,3.3,5.7,5,8.6
					c0.6,1,1.2,2,1.8,3c1.4,2.4,2.8,4.8,4.3,7.1c0.6,0.9,1.2,1.9,1.8,2.8c1.1,1.6,2.3,3.2,3.5,4.9c1.1,1.6,2.1,3.2,3,4.9
					c0.2,0.4,0.5,0.9,0.7,1.4c0.4,0.8,0.8,1.6,0.9,2.5c0.1,0.5,0.1,1-0.1,1.5c-0.3,0.9-0.6,1.9-0.9,2.8c-0.2,0.6-0.5,1.2-0.8,1.7
					c-0.5,0.9-1.4,1.5-2.3,1.9c-1.5,0.7-3,1.6-4.6,2.2c-1.1,0.4-2.1,1-3.1,1.4c-0.8,0.4-1.6,0.7-2.5,0.9c-0.4,0.1-0.7,0.2-1.1,0.4
					c-1.5,0.5-2.9,1.1-4.4,1.8c-0.8,0.4-1.6,0.7-2.5,1c-1.3,0.5-2.5,1-3.7,1.6c-0.7,0.4-1.5,0.7-2.2,1c-2.5,1.1-5,2.2-7.4,3.4
					c-1,0.5-2,1-3,1.5c-1.9,0.8-3.6,1.8-5.4,2.8c-0.7,0.4-1.5,0.8-2.2,1.3c-0.6,0.3-1.2,0.7-1.8,1c-1.2,0.7-2.3,1.4-3.5,2.1
					c-1.4,0.8-2.9,1.6-4.4,2.4c-0.2,0.1-0.4,0.2-0.5,0.3c-1.6,1.1-3.3,2-5,3.1c-1.3,0.8-2.5,1.7-3.8,2.6c-1.1,0.8-2.2,1.6-3.4,2.2
					c-1.5,0.7-2.9,1.4-4.3,2.2c-1.9,1.1-3.8,2.2-5.7,3.3c-0.6,0.4-1.2,0.7-1.9,1.1c-1.1,0.7-2.2,1.4-3.4,2.1
					c-1.4,0.8-2.8,1.6-4.2,2.4c-2.8,1.6-5.7,3.2-8.5,4.8c-1.4,0.8-51.3,33.4-52.6,34.2c-0.4,0.2-0.8,0.5-1,1
					c-0.1,0.3-0.4,0.5-0.7,0.7c-0.7,0.5-1.4,0.9-2.1,1.4c-1.9,1.4-3.8,2.7-5.8,4c-1.3,0.9-2.6,1.8-3.8,2.7c-0.5,0.3-1,0.7-1.4,1.1
					c-0.2,0.2-0.4,0.3-0.6,0.5c-0.4,0.5-0.4,1.4,0.2,1.8c0.3,0.2,0.7,0.2,1,0.1c0.2-0.1,0.4-0.3,0.6-0.5c0.3-0.2,0.6-0.5,0.9-0.7
					c2.5-1.8,5-3.6,7.6-5.3c0.1-0.1,0.2-0.1,0.3-0.2c0.2-0.1,0.4-0.1,0.5,0c0,0.2-0.1,0.3-0.2,0.4c-0.2,0.1-0.3,0.3-0.5,0.4
					c-0.8,0.6-1.6,1.2-2.5,1.8c-0.4,0.3-0.8,0.6-1,1.1c-0.2,0.4-0.6,0.7-1,1c-0.4,0.2-0.8,0.5-1.1,0.9c-0.1,0.1-0.2,0.4-0.3,0.5
					c-0.1,0.5,0,1,0.2,1.5c0.1,0.2,0.3,0.3,0.5,0.3c0.6,0,1.1-0.2,1.5-0.5c1-0.8,2.1-1.4,3.3-2c1.4-0.8,2.9-1.5,4.3-2.2
					c0.3-0.2,0.6-0.4,0.9-0.3c0.1,0.2,0.3,0.4,0.4,0.6c0.1,0.2,0.3,0.3,0.5,0.3c0.9,0,1.8-0.1,2.5-0.8c0.7-0.7,1.4-1.1,2.3-1.6
					c0.9-0.5,1.7-1.1,2.5-1.7c0.3-0.2,0.6-0.5,1-0.4c0.2,0.1-0.1,0.5-0.7,0.9c-0.2,0.1-0.4,0.2-0.5,0.4c-0.3,0.3-0.7,0.5-1,0.8
					c-0.1,0.1-0.1,0.3,0,0.5c0.4,0.4,0.8,0.9,1.2,1.3c0.1,0.1,0.3,0.1,0.5-0.1c0.3-0.2,0.2-0.6,0.4-0.9c0.4,0.1,0.7,0.1,1-0.2
					c0.2-0.2,0.4-0.5,0.6-0.6c0.3-0.2,0.5-0.5,0.5-0.8c0-0.2,0.2-0.3,0.4-0.3c0.2,0,0.3,0.1,0.5,0.1c0.2,0,0.5,0,0.5-0.3
					c0.1-0.5,0.3-0.9,0.9-0.8c0.3-0.2,0.6-0.3,0.9-0.5c0.2-0.2,0.4-0.4,0.7-0.6c0.5-0.2,0.7-0.6,0.8-1.1c0-0.2,0.2-0.3,0.4-0.3
					c0.3,0,0.5-0.1,0.8,0c0.3,0,0.4-0.1,0.5-0.3c0.1-0.4,0.3-0.5,0.8-0.5c0.3,0,0.6-0.2,1-0.3c0.1,0,0.2-0.1,0.2-0.1
					c0-0.1,0.1-0.3,0-0.3c-0.1-0.1-0.3-0.2-0.4-0.3c-0.2-0.1-0.3-0.1-0.5-0.1c-0.2-0.1-0.3-0.5-0.2-0.7c0,0,0.1-0.1,0.1-0.1
					c0.4,0.2,0.8,0,1.2,0c0.1,0,0.1,0.1,0.2,0.2c0.2,0.2,0.4,0.1,0.5-0.2c0-0.2,0-0.3,0-0.5c0-0.1,0.1-0.1,0.2-0.1
					c0.1,0,0.2,0.1,0.2,0.1c0,0.3,0.3,0.5,0.6,0.6c0.1,0.1,0.2,0.3,0.1,0.5c-0.1,0.2-0.3,0.3-0.4,0.5c-0.3,0.2-0.7,0.4-1,0.6
					c-1.3,0.9-2.7,1.7-4,2.7c-0.6,0.5-1.4,0.9-1.9,1.4c-0.3,0.3-0.5,0.5-0.6,0.9c0,0.1-0.1,0.2-0.2,0.3c-0.2,0.3-0.8,0.2-0.9,0.6
					c0,0-0.1,0-0.2,0c0,0-0.1,0-0.1,0c-0.2-0.1-0.3,0-0.4,0.2c-0.1,0.3-0.1,0.5-0.4,0.6c-0.4,0.1-0.6,0.2-0.9,0.5
					c-0.4,0.3-0.9,0.6-1.4,0.9c-0.7,0.3-1.3,0.8-1.8,1.4c-0.3,0.3-0.3,0.6-0.1,0.9c0.2,0.2,0.1,0.4,0,0.6c-0.1,0.1-0.2,0.2-0.4,0.3
					c-0.7,0.5-1.5,1-2.2,1.5c-0.3,0.2-0.6,0.4-0.8,0.6c-0.5,0.4-0.4,1.5,0.1,1.8c0.1,0.1,0.2,0.1,0.3,0.1c0.2,0,0.4,0,0.6,0
					c0.4-0.1,0.7-0.3,1-0.5c1.9-1.2,3.9-2.4,5.8-3.7c0.6-0.4,1.2-0.8,1.7-1.3c0.5-0.5,1.1-0.8,1.7-1.1c1.2-0.5,2.2-1.2,3.3-1.9
					c1.2-0.7,2.3-1.4,3.5-2.1c1.5-0.9,51.6-33.5,53.1-34.5c3.4-2.1,6.7-4.2,10.2-6.3c0.3-0.2,0.5-0.3,0.8-0.5c2.6-1.5,5.2-3,7.9-4.4
					c1.5-0.9,3.1-1.8,4.6-2.7c1.9-1.1,3.8-2.2,5.8-3.2c3.1-1.7,6.3-3.2,9.4-4.8c2.1-1.1,4.4-2.1,6.5-3.1c1.2-0.5,2.3-1,3.5-1.5
					c2.3-0.9,4.5-1.8,6.6-2.9c1.7-0.8,3.4-1.7,5.2-2.5c1.6-0.7,3.3-1.4,4.9-2.1c2.1-0.9,4.2-1.8,6.3-2.7c1.4-0.6,2.9-1.2,4.4-1.8
					c2.3-0.9,4.5-1.7,6.8-2.5c2.4-0.8,4.8-1.5,7.1-2.3c1.2-0.4,2.4-0.8,3.6-1.2c1.6-0.6,3.3-1.1,5-1.6c0.7-0.2,1.5-0.4,2.2-0.6
					c1.3-0.3,2.6-0.7,3.9-1.1c1.6-0.5,3.2-0.9,4.8-1c0.3,0,0.6,0,0.9-0.1c0.2,0,0.4-0.1,0.6-0.1c0.9-0.5,1.8-0.6,2.8-0.8
					c3.3-0.7,6.6-1.6,9.9-2.2c0.1,0,0.2-0.1,0.4-0.1c2.4-0.7,4.9-1.1,7.3-1.6c1.7-0.4,156.8-33.7,158.5-34.1
					c1.9-0.4,3.7-0.7,5.6-1.1c1-0.2,2-0.4,3-0.7c0.3-0.1,0.5-0.2,0.7-0.5c0.1-0.1,0-0.4-0.1-0.4c-0.2,0-0.4-0.1-0.6-0.1
					c-0.3,0-0.7,0.1-1,0.2c-0.7,0.2-1.3,0.3-2,0.3c-0.1,0-0.2,0-0.2,0c-0.1,0-0.2-0.2-0.1-0.3c0.2-0.4,0.5-0.7,1-0.8
					c0.3-0.1,0.3-0.4,0.6-0.4c0.6,0.1,1.1-0.2,1.6-0.2c0.4,0,0.8-0.1,1.1-0.1c0.6-0.1,1.2-0.2,1.7-0.3c0.7-0.1,1.5-0.3,2.2-0.4
					c0.3-0.1,0.6-0.2,0.9-0.4c0.2-0.1,0.3-0.4,0.1-0.5c-0.3-0.2-0.6-0.5-0.9-0.7c-0.3-0.2-0.7-0.5-1-0.7c-0.1-0.1-0.2-0.2-0.2-0.3
					c-0.1-0.8-0.6-1-1.3-1c0,0-0.1,0-0.1,0c-0.1,0-0.3-0.2-0.3-0.4c0-0.3,0.1-0.6,0.3-0.8c0.1-0.2,0.3-0.3,0.4-0.5
					c0.3-0.3,0.4-0.7,0.5-1.2c0-0.6-0.3-0.9-0.8-0.9c-0.3,0-0.5,0-0.8,0c-0.5,0-0.9,0.1-1.4,0.2c-0.2,0-0.4-0.1-0.5-0.3
					c-0.1-0.3-0.2-0.6,0.1-0.8c0.3-0.2,0.5-0.5,0.6-0.9c0.1-0.3,0.3-0.4,0.6-0.4c0.2,0,0.4-0.1,0.6-0.2c0.1-0.1,0.3-0.1,0.4-0.1
					c0.5,0.3,1.2-0.2,1.7,0.3c0.1,0.1,0.2,0,0.4,0c0.3,0,0.5-0.1,0.8-0.1c0.3,0,0.5-0.1,0.7-0.3c0.2-0.4,0.6-0.6,1-0.7
					c0.3-0.1,0.6-0.2,1-0.3c0.1,0,0.2-0.1,0.3-0.2C586,361.4,586.1,361,586,360.5z M96.7,116.4c-0.1,0-0.2,0-0.2-0.1
					c-0.5-0.7-0.8-1.4-1-2.3c0,0,0-0.1,0-0.1c0.1,0,0.2,0,0.2,0.1c0.5,0.7,0.8,1.4,1,2.2C96.8,116.3,96.7,116.4,96.7,116.4z
					 M126.3,215.3c-0.6,0.3-1.2,0.5-1.8,0.4c0,0,0,0-0.1-0.1c0-0.1,0.1-0.1,0.1-0.2c0.6-0.3,1.2-0.4,1.8-0.5c0,0.1,0.1,0.1,0.1,0.1
					C126.3,215.2,126.3,215.3,126.3,215.3z M98.3,445.3L98.3,445.3L98.3,445.3L98.3,445.3z M230.6,199.9
					C230.6,199.9,230.5,199.9,230.6,199.9c-0.2,0.1-0.3,0-0.3,0c-0.1-0.1-0.2-0.2-0.2-0.3c0,0,0,0,0.1,0c0.1,0,0.3,0,0.4,0
					C230.5,199.7,230.6,199.8,230.6,199.9z M185.7,335.6C185.7,335.5,185.7,335.5,185.7,335.6c-0.2-0.3-0.3-0.5-0.3-0.7
					c0,0,0-0.1,0.1-0.1c0,0,0.1,0,0.1,0c0.1,0.2,0.2,0.4,0.3,0.5C185.8,335.4,185.7,335.5,185.7,335.6z M186.6,338
					c-0.1,0-0.2-0.1-0.3-0.1c-0.1,0-0.1-0.1-0.1-0.2c0-0.3-0.1-0.7-0.2-1.3c0.6,0.9,0.6,0.9,0.7,1.4
					C186.7,337.8,186.6,338,186.6,338z M203.3,380.3L203.3,380.3L203.3,380.3L203.3,380.3z M204.3,388c-0.1,0-0.2-0.1-0.2-0.1
					c-0.1-0.1-0.1-0.2,0-0.3c0,0,0.1-0.1,0.1,0c0.1,0.1,0.1,0.2,0.2,0.3C204.4,387.8,204.3,387.9,204.3,388z M207.6,387.1
					L207.6,387.1L207.6,387.1L207.6,387.1z M210.9,387.4c-0.1,0-0.2,0-0.2,0c-0.2,0-0.4,0-0.6,0c-0.5,0-0.6-0.2-0.7-0.7
					c0-0.1,0.1-0.3,0.2-0.2c0.5,0.2,0.9,0.4,1.3,0.6C211,387.1,211,387.2,210.9,387.4C211,387.3,210.9,387.4,210.9,387.4z
					 M224.3,390.4c-0.4,0.3-0.8,0.5-1.1,0.7c-0.2,0-0.3,0-0.3,0c0,0-0.1-0.2,0-0.2c0.3-0.4,0.7-0.7,1.2-0.8c0.1,0,0.2,0,0.2,0.1
					C224.3,390.2,224.3,390.4,224.3,390.4z M259.2,366.6c-0.5,0.3-1.1,0.5-1.7,0.6c-0.2-0.3-0.3-0.6-0.5-0.8c-0.1-0.1,0-0.4,0.2-0.4
					c0.2,0,0.3-0.1,0.5-0.1c0.2,0,0.3,0.1,0.4,0.2c0.3,0.2,0.6,0.3,1,0.2c0.1,0,0.2,0.1,0.2,0.1
					C259.3,366.5,259.3,366.6,259.2,366.6z M274.4,361.5C274.4,361.5,274.4,361.5,274.4,361.5c0,0,0-0.1,0.1-0.1
					C274.5,361.4,274.5,361.5,274.4,361.5z M276.7,360.3c-0.6,0.5-1.3,0.9-2.1,1.1c0.4-0.7,1.2-0.9,1.8-1.2c0.1-0.1,0.3-0.1,0.4-0.1
					C276.8,360.1,276.8,360.2,276.7,360.3z M278,359.5c-0.1,0.1-0.3,0.2-0.4,0.3c-0.2,0.1-0.4,0.1-0.7,0.2c0.1-0.2,0.3-0.4,0.4-0.6
					c0.1-0.1,0.3-0.2,0.4-0.2c0.1,0,0.2,0,0.3,0.1C278.1,359.3,278.1,359.4,278,359.5z M278.1,354c0,0-0.1,0.1-0.1,0.1
					C278,354,278,353.9,278.1,354C278.2,354,278.2,354,278.1,354C278.2,354,278.2,354,278.1,354z M278.7,353.7
					c-0.1,0.1-0.3,0.1-0.4,0.2c0-0.2,0.1-0.3,0.3-0.4c0,0,0.1,0,0.1,0C278.7,353.6,278.7,353.7,278.7,353.7z M284.4,347.9
					c-0.3,0.2-0.6,0.4-0.9,0.5c-1.9,1.1-3.8,2.2-5.7,3.4c-1.8,1.2-3.7,2.3-5.5,3.4c-2.1,1.3-4.2,2.5-6.4,3.6c-1,0.5-2,1-3,1.6
					c-2.6,1.5-5.3,2.9-7.9,4.4c-0.6,0.4-1.2,0.7-1.9,1.1c-1.4,0.8-2.7,1.5-4.1,2.4c-1.6,1-3.3,2-4.9,3c-2.3,1.4-4.6,2.9-6.9,4.4
					c-1.3,0.8-2.7,1.7-4,2.5c-1.4,0.9-2.9,1.8-4.3,2.7c-2.2,1.4-4.5,2.6-6.8,3.7c-1.7,0.8-3.4,1.5-5.3,1.6c-0.8,0-1.7,0-2.5,0.1
					c-0.2,0-0.3,0-0.5-0.1c-1.2-0.2-2.3-0.8-3.3-1.5c-0.4-0.3-0.6-0.6-0.8-1c-0.2-0.5-0.4-1-0.6-1.5c-0.5-1-0.9-2.1-1.5-3.1
					c-0.4-0.6-0.7-1.2-0.9-1.9c-0.1-0.2-0.1-0.4-0.2-0.6c-0.4-0.8-0.7-1.5-1.1-2.3c-0.2-0.5-0.5-1-0.6-1.5c-0.4-1.3-1-2.4-1.5-3.6
					c-0.5-1-1.1-1.9-1.4-3c0-0.1-0.1-0.2-0.1-0.2c-0.5-1.2-1.1-2.3-1.6-3.5c-0.4-0.8-0.8-1.6-1.1-2.4c-0.8-2.1-1.8-4.1-2.5-6.3
					c-0.1-0.4-0.3-0.7-0.4-1.1c-0.1-0.3-0.2-0.5-0.4-0.8c-0.5-1-0.9-2-1.4-3c-0.7-1.3-1.4-2.6-2.1-3.9c-0.1-0.2-0.2-0.4-0.3-0.7
					c-0.8-1.8-1.7-3.6-2.5-5.4c-0.1-0.2-0.2-0.5-0.3-0.7c-0.3-0.6-0.5-1.2-0.8-1.9c-0.4-0.9-0.8-1.9-1.2-2.8
					c-0.8-1.7-1.3-3.6-2.1-5.3c-0.1-0.2-0.1-0.3-0.2-0.5c-0.2-0.5-0.4-1-0.6-1.5c-0.3-0.7-22.8-56.5-43.9-109.1
					c13.8-2.7,51.1-9.9,85.1-16.6c0.2,0.4,0.3,0.7,0.5,1.1c0.4,0.8,0.7,1.5,1,2.3c0.3,0.8,0.6,1.7,0.9,2.5c0.2,0.5,0.5,1,0.7,1.6
					c0.2,0.4,0.5,0.9,0.6,1.3c0.2,0.6,40.7,95.9,58.3,137c-0.2,0.2-0.5,0.3-0.7,0.4C285.9,347,285.1,347.4,284.4,347.9z
					 M296.4,345.6c0-0.1,0.1-0.1,0.1-0.2c0.1,0,0.1,0.1,0.2,0.1C296.6,345.6,296.6,345.7,296.4,345.6
					C296.5,345.7,296.4,345.6,296.4,345.6z M300.5,347.1c-1,0.6-2,1.2-3.1,1.6c0,0-0.1,0-0.1-0.1c0.1-0.3,0.4-0.5,0.7-0.7
					c0.8-0.4,1.6-0.8,2.4-1c0,0,0.1,0.1,0.2,0.1C300.6,347,300.6,347.1,300.5,347.1z M309.9,340c-0.9,0-1.7,0.5-2.4,1
					c-0.1,0.1-0.3,0.2-0.4,0.2c-0.1,0-0.2-0.1-0.3-0.1c0-0.1,0-0.2,0.1-0.2c0.9-0.5,1.8-1,2.8-1.3c0.2-0.1,0.5-0.1,0.7,0.1
					C310.3,339.9,310.1,340,309.9,340z M311.4,317.1c0,2,0.4,3.9,0.8,5.8c0.1,0.6,0.3,1.2,0.4,1.9c0.1,0.3,0.1,0.6,0.2,0.9
					c0.7,2,0.6,4,0.2,6c-0.3,1.9-1.4,3.3-3,4.4c-0.2,0.2-0.4,0.3-0.7,0.3c-0.3,0-0.6,0.1-0.8,0.3c-0.2,0.1-0.3,0.3-0.5,0.3
					c-0.8,0.3-1.5,0.6-2.3,0.8c-1,0.3-2,0.6-3,1.1c-0.7,0.3-1.3,0.5-2,0.8c-1,0.4-2.1,0.7-3.1,1.2c-1.1,0.5-2.2,1-3.4,1.5
					c-18.2-42.9-56.8-133.7-57.1-134.5c-0.2-0.5-0.4-1-0.7-1.5c-0.3-0.5-0.5-1-0.7-1.5c-0.6-1.7-1.5-3.3-2.4-5
					c0-0.1-0.1-0.1-0.1-0.2c28,1.9,60.9,4.1,82.4,5.5c-2.4,54.9-4.5,102.9-4.5,103.6C311.2,311.6,311.4,314.4,311.4,317.1z
					 M318.4,336.9c-0.2,0-0.3-0.1-0.3-0.3c0-0.1,0-0.2,0-0.2c0,0,0-0.1,0.1-0.1c0.1-0.1,0.2-0.1,0.3,0c0.1,0.1,0.1,0.2,0.1,0.3
					C318.7,336.8,318.6,336.9,318.4,336.9z M334.8,356c-0.7-0.9-1.3-1.7-2-2.6c-0.4-0.5-0.8-1.1-1.2-1.7c-0.1-0.1-0.1-0.3-0.1-0.5
					c0,0,0.1-0.1,0.2-0.1c0.1,0,0.2,0,0.2,0.1c0.2,0.1,0.3,0.3,0.4,0.4c1,1.5,2,3,2.8,4.6C335.1,356.2,334.9,356.1,334.8,356z
					 M335.3,356.4C335.3,356.4,335.3,356.4,335.3,356.4C335.3,356.4,335.3,356.4,335.3,356.4C335.3,356.4,335.3,356.4,335.3,356.4z
					 M339,362.4c-0.2-0.2-0.3-0.4-0.5-0.6c-0.2-0.3-0.4-0.6-0.6-0.8c-0.5-0.5-0.9-1.1-1.2-1.8c-0.2-0.3-0.4-0.6-0.6-0.9
					c-0.1-0.1-0.1-0.3-0.1-0.5c0,0,0-0.1,0.1-0.1c0,0,0.1,0,0.1,0c0.1,0,0.2,0.1,0.2,0.1c0.2,0.2,0.3,0.4,0.5,0.6
					c0.9,1.4,1.7,2.8,2.6,4.1C339.3,362.6,339.1,362.5,339,362.4z M339.9,363.8C339.9,363.8,340,363.7,339.9,363.8
					c0.1-0.1,0.1,0,0.1,0.1C340,363.8,340,363.8,339.9,363.8z M340.8,365.6c-0.2-0.5-0.4-1.1-0.6-1.7c0.5,0.5,0.9,1.1,1.3,1.7
					c0.1,0.2,0.2,0.5,0.3,0.8C341.2,366.4,340.9,366.1,340.8,365.6z M341.8,366.5c0.2,0.1,0.2,0.3,0.3,0.5
					C341.9,366.8,341.8,366.7,341.8,366.5z M342.1,367c0.4,0.3,0.5,0.7,0.6,1.1C342.4,367.8,342.1,367.5,342.1,367z M343.4,369.2
					c0,0-0.1,0-0.1,0c-0.1,0-0.1-0.1-0.2-0.1c-0.1-0.3-0.2-0.6-0.3-0.8C343.1,368.4,343.3,368.7,343.4,369.2
					C343.4,369.1,343.4,369.2,343.4,369.2z M352.2,383.7C352.2,383.7,352.2,383.7,352.2,383.7C352.2,383.8,352.2,383.8,352.2,383.7
					C352.2,383.8,352.2,383.8,352.2,383.7z M353.3,385.4C353.3,385.4,353.2,385.4,353.3,385.4c-0.5-0.5-0.8-0.9-1-1.5
					c0.1,0,0.2,0.1,0.3,0.2c0.3,0.4,0.5,0.9,0.8,1.3C353.4,385.3,353.3,385.4,353.3,385.4z M207,500.2c0,0-0.1-0.1-0.1-0.1
					c0-0.1,0.1-0.1,0.2-0.1c0,0,0.1,0.1,0.1,0.2C207.1,500.2,207.1,500.2,207,500.2z M207.8,499.8c0,0-0.1,0-0.1-0.1
					c0,0,0-0.1,0-0.1c0.1-0.3,0.4-0.5,0.7-0.6c0,0,0.1,0,0.1,0c0,0,0,0.1,0,0.1C208.4,499.5,208.1,499.7,207.8,499.8z M210.8,498
					c-0.4,0.3-0.7,0.6-1.1,0.8c-0.1,0-0.2,0-0.3,0c0,0-0.2-0.1-0.2-0.2c0-0.1,0-0.2,0-0.2c0.4-0.4,0.8-0.7,1.3-0.9
					c0.1,0,0.2,0.1,0.3,0.2C210.8,497.8,210.8,498,210.8,498z M262,459.9L262,459.9L262,459.9L262,459.9z M270,458.8
					c0,0-0.1,0-0.1,0c0-0.1-0.1-0.1-0.1-0.2c0-0.1,0.1-0.1,0.2-0.1c0,0,0.1,0,0.1,0C270.2,458.6,270.1,458.7,270,458.8z
					 M271.3,457.8c0,0-0.1,0-0.1,0c0,0,0-0.1,0-0.1c0,0,0.1-0.1,0.1-0.1C271.3,457.7,271.3,457.7,271.3,457.8z M275.4,455.5
					c0,0,0-0.1,0-0.1c0.1,0,0.1,0,0.2,0c0,0,0,0.1,0,0.1C275.6,455.5,275.5,455.5,275.4,455.5z M277.2,460.1c-0.1,0.1-0.1,0.1-0.2,0
					c0,0,0-0.1,0-0.1c0.1,0,0.1,0,0.2,0C277.2,460,277.2,460.1,277.2,460.1z M280.9,462.3L280.9,462.3L280.9,462.3L280.9,462.3z
					 M282.5,457.3c0,0.1-0.1,0.1-0.2,0.1c-0.1,0-0.3-0.2-0.3-0.3c0-0.3,0.3-0.5,0.5-0.7c0,0,0.2,0,0.2,0c0,0,0,0.1,0,0.1
					C282.6,456.8,282.6,457,282.5,457.3z M283.3,460.9C283.2,460.9,283.2,460.9,283.3,460.9c0-0.2,0.1-0.2,0.1-0.3
					c0,0.1,0.1,0.1,0.1,0.1C283.5,460.9,283.4,461,283.3,460.9z M284.6,456.1c-0.1,0-0.1-0.1-0.1-0.1c0,0,0.1-0.1,0.1-0.1
					C284.6,456,284.6,456,284.6,456.1C284.7,456.1,284.6,456.2,284.6,456.1z M284.7,455.1C284.7,455,284.7,455,284.7,455.1
					c0-0.1,0-0.1,0.1-0.1c0,0,0.1,0,0.1,0.1C284.9,455.1,284.8,455.1,284.7,455.1z M285.5,454.9c-0.1,0.1-0.1,0.1-0.2,0
					c0,0,0-0.1,0.1-0.1c0,0,0.1,0,0.1,0C285.5,454.8,285.5,454.8,285.5,454.9z M287.7,455.1c0,0-0.2,0.1-0.2,0.1
					c-0.2-0.1-0.3-0.2-0.5-0.4c0,0-0.1-0.2,0-0.2c0.1-0.3,0.2-0.5,0.4-0.8c0-0.1,0.3-0.1,0.3,0c0.1,0.1,0.2,0.3,0.3,0.5
					C287.8,454.5,287.8,454.8,287.7,455.1z M288.1,457.9C288.1,457.9,288,457.9,288.1,457.9c0-0.1,0-0.2,0-0.3c0,0,0.1,0.1,0.1,0.1
					C288.2,457.8,288.2,457.9,288.1,457.9z M288.9,454.3c0,0-0.1,0-0.1,0c0-0.1-0.1-0.2,0-0.2c0.2-0.2,0.4-0.3,0.6-0.5
					C289.4,453.9,289.3,454.2,288.9,454.3z M289.7,453.5c-0.1,0-0.2,0-0.2,0c-0.1-0.2-0.3-0.4-0.2-0.7c0-0.2,0.2-0.3,0.4-0.2
					c0.1,0,0.1,0.1,0.2,0.1c0.2,0.1,0.2,0.3,0.2,0.4C290,453.4,289.8,453.5,289.7,453.5z M290.8,456.4L290.8,456.4L290.8,456.4
					L290.8,456.4z M291.3,452.6C291.3,452.6,291.2,452.6,291.3,452.6c0-0.1,0-0.2,0.1-0.2c0,0,0,0.1,0.1,0.1
					C291.4,452.6,291.3,452.6,291.3,452.6z M291.5,449c0,0.1-0.1,0.1-0.1,0.2c0-0.1,0-0.1,0-0.2c0-0.1,0-0.1,0.1-0.2
					c0,0,0,0.1,0.1,0.1C291.6,448.9,291.6,448.9,291.5,449z M293.3,451.7c-0.2,0-0.4,0-0.6,0c-0.1,0-0.1-0.1-0.1-0.2
					c0-0.1,0-0.2,0.1-0.2c0.1,0,0.2,0,0.2,0c0,0,0,0,0,0c0.1,0,0.2,0,0.4,0c0.2,0,0.4,0.2,0.3,0.3
					C293.6,451.6,293.4,451.7,293.3,451.7z M293.8,448.7c0,0,0-0.1,0-0.1C293.8,448.6,293.8,448.6,293.8,448.7
					C293.8,448.6,293.8,448.7,293.8,448.7z M293.9,445.4C293.9,445.4,293.9,445.3,293.9,445.4c-0.1-0.1,0-0.1,0-0.2c0,0,0.1,0,0.1,0
					C294,445.3,294,445.4,293.9,445.4z M295,450.8c-0.1,0-0.2,0-0.2-0.1c0,0,0-0.2,0-0.2c0.1-0.1,0.2-0.1,0.3-0.2
					c0.1,0.1,0.2,0.2,0.1,0.2C295.2,450.6,295.1,450.7,295,450.8z M298,445.6C298,445.5,298,445.5,298,445.6c0-0.1,0-0.2,0-0.2
					c0.1,0,0.1,0.1,0.2,0.1C298.1,445.5,298.1,445.5,298,445.6z M301.5,436c0.7-0.4,1.2-1,2-1.2c0.1,0,0.2,0,0.2,0.1
					c0,0,0,0.2,0,0.2c0,0-0.1,0.1-0.1,0.1c-0.6,0.3-1.1,0.6-1.6,0.8c-0.2,0.1-0.3,0.1-0.4,0.1c0,0-0.1,0-0.1-0.1
					C301.4,436.1,301.4,436,301.5,436z M303.4,439.7C303.4,439.7,303.4,439.7,303.4,439.7C303.3,439.7,303.3,439.7,303.4,439.7
					C303.3,439.6,303.3,439.6,303.4,439.7C303.4,439.6,303.4,439.6,303.4,439.7z M302.5,443c-0.1,0.1-0.1,0.2-0.2,0.3
					c0,0-0.2,0-0.2-0.1c-0.1-0.1,0-0.3,0.2-0.3C302.3,442.9,302.3,443,302.5,443z M299.2,444.8L299.2,444.8L299.2,444.8L299.2,444.8
					z M298.9,443L298.9,443L298.9,443L298.9,443z M299.4,447.4c-0.1,0-0.2,0-0.3-0.1c-0.1-0.1-0.2-0.3-0.1-0.4
					c0-0.1,0.1-0.1,0.2-0.1c0.2,0,0.4,0,0.6,0.1c0,0,0.1,0.1,0.1,0.3C299.7,447.2,299.6,447.4,299.4,447.4z M299.9,441.5
					c0,0.1-0.1,0.1-0.2,0.1c0,0-0.1,0-0.1,0c0-0.1,0-0.1,0-0.2c0-0.1,0.1-0.1,0.2-0.1c0,0,0.1,0,0.1,0
					C299.9,441.4,299.9,441.5,299.9,441.5z M300.5,436.5L300.5,436.5L300.5,436.5L300.5,436.5z M301.9,449.9c-0.1,0-0.1,0-0.2,0
					c0,0,0-0.1,0-0.1c0.1,0,0.1,0,0.2,0C301.9,449.8,301.9,449.9,301.9,449.9z M301.7,445.1c-0.1,0.3-0.2,0.6-0.3,0.9
					c0,0.1-0.2,0.1-0.3,0.1c0,0-0.1-0.1-0.1-0.2c0-0.1,0-0.2,0-0.2c0.1-0.3-0.1-0.5-0.3-0.7c-0.2-0.2-0.2-0.5,0.1-0.6
					c0.8-0.2,1.5-0.4,2.3-0.7c0,0.1,0,0.1,0.1,0.2c0,0.2,0,0.3-0.2,0.4c-0.1,0-0.3,0-0.4,0C302.1,444.5,301.8,444.7,301.7,445.1z
					 M303,449.5c-0.1,0.1-0.2,0.1-0.3,0.1c-0.1,0-0.2-0.1-0.2-0.1c-0.1-0.5,0.3-1.1,0.9-1.2c0,0,0.1,0.1,0.2,0.1
					C303.4,448.8,303.3,449.2,303,449.5z M303.5,443.8c-0.2,0-0.3,0-0.5-0.1c0-0.1,0.1-0.1,0.1-0.2c0-0.2,0.1-0.4,0.2-0.5
					c0.2,0.2,0.5,0.4,0.9,0.5C304,443.8,303.8,443.9,303.5,443.8z M304.5,437.7c0.1-0.1,0.1-0.1,0.2-0.2c0,0,0.1,0,0.1,0
					c0.2,0.1,0.3,0.2,0.4,0.3c-0.1,0.1-0.2,0.2-0.3,0.3c-0.2-0.1-0.3-0.2-0.5-0.4C304.5,437.8,304.5,437.7,304.5,437.7z M305.4,448
					c-0.1,0.1-0.3,0.1-0.4,0.2c-0.1,0-0.2-0.1-0.2-0.1c0-0.1,0-0.2,0-0.2c0.1-0.2,0.3-0.4,0.5-0.5c0,0,0.2-0.1,0.2,0
					c0.1,0,0.1,0.1,0.1,0.2C305.6,447.7,305.6,447.9,305.4,448z M306.9,447.3c-0.2,0.1-0.3,0.2-0.5,0.3c-0.1,0-0.2,0-0.2,0
					c0,0,0-0.2,0-0.2c0.1-0.2,0.2-0.3,0.4-0.5c0.1-0.1,0.2-0.1,0.3,0c0.1,0,0.1,0.1,0.1,0.2C306.9,447.2,306.9,447.3,306.9,447.3z
					 M307.5,446.9c-0.1,0-0.2-0.1-0.2-0.2c0-0.2,0.1-0.5,0.3-0.5c0.1,0,0.3,0.2,0.3,0.3C308,446.7,307.8,446.9,307.5,446.9z
					 M307.4,436.1c0-0.1,0-0.3,0.2-0.4c0.1-0.1,0.3-0.1,0.3-0.1c0,0,0.1,0,0.1,0.1C307.8,435.8,307.6,435.9,307.4,436.1z
					 M312.9,444.2c-0.1,0.1-0.3,0.2-0.4,0.3c-0.4,0.1-0.8,0.2-1.1,0.5c-0.3,0.3-0.7,0.3-1.1,0.5c0,0-0.1,0-0.1-0.1c0,0,0-0.1,0-0.1
					c0.2-0.3,0.3-0.6,0.5-0.8c0.2-0.2,0.3-0.4,0.4-0.6c0-0.1,0.1-0.2,0.2-0.3c0.5-0.2,1.1-0.2,1.5,0.2c0.1,0,0.1,0.1,0.1,0.2
					C312.9,444,312.9,444.1,312.9,444.2z M313.6,443.6c-0.1-0.1-0.2-0.2-0.2-0.3c0-0.1,0.1-0.2,0.2-0.2c0.1,0,0.1,0.1,0.1,0.2
					C313.8,443.3,313.7,443.4,313.6,443.6z M314.1,441.9c0,0-0.1,0-0.1,0c0-0.1,0-0.2,0.1-0.1c0.1,0,0.1,0.1,0.2,0.1
					C314.2,441.8,314.1,441.9,314.1,441.9z M314.3,441.8c0.2,0,0.3,0,0.5-0.1C314.7,441.9,314.5,441.9,314.3,441.8z M314.9,441.7
					c0,0,0-0.1,0-0.1C314.9,441.6,314.9,441.6,314.9,441.7z M315,442.8c0-0.1,0.1-0.1,0.1-0.1C315.1,442.7,315.1,442.8,315,442.8z
					 M316.2,442.2c-0.1,0.1-0.1,0.2-0.3,0.3c-0.2,0.1-0.5,0.1-0.7,0.2c0.1-0.4,0.6-0.4,0.8-0.7c0,0,0.1,0,0.1,0
					C316.2,442.1,316.2,442.2,316.2,442.2z M316.3,439.1c0,0-0.2,0.1-0.2,0.1c0,0-0.1-0.1-0.1-0.1c0.1,0,0.2-0.1,0.4-0.1
					C316.4,439,316.4,439.1,316.3,439.1z M317.6,441.5c-0.1,0-0.2,0-0.2-0.1c-0.1-0.1-0.1-0.3,0-0.3c0,0,0.1,0,0.1,0
					c0.1,0.1,0.1,0.2,0.2,0.3C317.7,441.4,317.7,441.5,317.6,441.5z M318.7,439.1C318.7,439.1,318.7,439.2,318.7,439.1
					c0,0.1-0.1,0.2-0.1,0.2c0,0,0-0.1,0-0.1C318.6,439.2,318.6,439.1,318.7,439.1z M318.7,440.3c-0.1,0.1-0.3,0.1-0.3-0.1
					c0-0.1,0-0.2,0.1-0.2c0.1,0,0.2,0,0.3,0C318.7,440.2,318.7,440.3,318.7,440.3z M324.9,436.1c0.2,0,0.3,0.1,0.4,0.3
					c0,0.1-0.1,0.3-0.2,0.2c-0.1-0.1-0.2-0.1-0.2-0.2C324.7,436.3,324.8,436.2,324.9,436.1z M324.4,436.8L324.4,436.8L324.4,436.8
					L324.4,436.8z M321.5,438.7c-0.1-0.1-0.2-0.1-0.3-0.2c-0.1-0.1-0.1-0.3,0-0.3c0.2-0.1,0.4-0.2,0.7-0.3c0,0,0.1,0.1,0.2,0.1
					c0,0,0,0.1,0,0.1c-0.2,0.2-0.4,0.2-0.5,0.5C321.5,438.6,321.5,438.6,321.5,438.7z M325.5,438.1c-0.3,0.1-0.5,0.3-0.8,0.4
					c-1,0.4-2,0.8-3,1.2c-0.1,0-0.1-0.1-0.1-0.1c0,0,0-0.1,0-0.1c0.4-0.4,0.7-0.9,1.4-1c0.8-0.4,1.6-0.5,2.4-0.7
					C325.4,437.9,325.5,438,325.5,438.1C325.6,438.1,325.6,438.1,325.5,438.1z M326.1,436L326.1,436L326.1,436L326.1,436z
					 M327.6,437.4c-0.3,0.1-0.5,0-0.7-0.2c-0.1-0.2-0.2-0.4-0.3-0.5c0,0,0.1-0.1,0.1-0.1c0.3,0.1,0.6,0.1,0.8,0.2
					c0.3,0.1,0.7,0.1,1.1,0.1C328.3,437,328,437.3,327.6,437.4z M332.5,435.2c0,0-0.1-0.1-0.1-0.2c0,0,0.1-0.1,0.1-0.1
					c0.1,0,0.1,0.1,0.2,0.1C332.6,435.1,332.6,435.2,332.5,435.2z M336.3,433.4c-0.1,0.1-0.2,0.2-0.3,0.3c-0.8,0.4-1.6,0.8-2.4,1.1
					c-0.1,0-0.2,0-0.2,0c0-0.1-0.1-0.3,0-0.3c0.2-0.3,0.5-0.6,0.8-0.8c0.2-0.2,0.4-0.1,0.6-0.1c0.3,0.1,0.5-0.1,0.7-0.3
					c0.2-0.3,0.5-0.2,0.8-0.2c0.1,0,0.2,0.1,0.2,0.1C336.4,433.2,336.4,433.3,336.3,433.4z M337.7,432.8c-0.1,0.1-0.2,0.1-0.3,0.1
					c0,0-0.1-0.1-0.1-0.2c0-0.2,0.2-0.4,0.4-0.3c0.1,0,0.1,0.1,0.2,0.1C337.8,432.6,337.8,432.7,337.7,432.8z M352.9,415.9
					c0.1,0,0.1,0.1,0.2,0.1c-0.1,0-0.1,0.1-0.2,0.1c-0.1,0-0.1-0.1-0.2-0.1C352.8,416,352.8,415.9,352.9,415.9z M351.3,414.6
					c0,0,0.1,0,0.1,0c0,0,0.1,0.1,0.1,0.1c0,0.1-0.2,0.3-0.4,0.3c0,0-0.1-0.1-0.1-0.1C351.1,414.7,351.2,414.7,351.3,414.6z
					 M349.6,415.3c0.1,0,0.2,0,0.2,0.1c0.1,0.1-0.1,0.3-0.2,0.3c-0.1,0-0.2,0-0.2-0.1C349.3,415.5,349.4,415.3,349.6,415.3z
					 M348.6,426.1l0,0.1L348.6,426.1L348.6,426.1z M344.3,427.4C344.4,427.4,344.4,427.5,344.3,427.4c0,0.1,0,0.1,0,0.1
					C344.3,427.5,344.3,427.5,344.3,427.4C344.3,427.5,344.3,427.4,344.3,427.4z M340.3,431.6c-0.1,0.2-0.3,0.3-0.5,0.2
					c-0.1,0-0.2-0.1-0.3-0.2c0-0.1,0-0.2,0.1-0.3c0.1-0.1,0.2-0.1,0.3-0.1c0.1,0,0.2,0,0.3,0c0.1,0,0.1,0.1,0.2,0.2
					C340.4,431.4,340.3,431.5,340.3,431.6z M349,427.9c-0.8,0.4-1.6,0.7-2.4,1c-0.2,0.1-0.5,0.1-0.7,0.3c-0.8,0.5-1.7,0.8-2.5,1.1
					c-0.2,0.1-0.4,0.1-0.6-0.1c-0.2-0.2-0.2-0.5-0.1-0.6c0.1-0.1,0.3-0.4,0.5-0.2c0.5,0.3,0.8,0,1.2-0.2c0.1,0,0.1-0.2,0.1-0.3
					c0.1-0.4,0.3-0.5,0.6-0.4c0.1,0,0.2,0.1,0.3,0.1c0.1,0,0.3,0,0.4,0c0.2-0.1,0.4-0.3,0.6-0.5c0.3-0.2,0.5-0.4,0.9-0.3
					c0.3,0.1,0.5,0,0.7-0.1c0.1-0.1,0.2-0.1,0.3-0.2c0.3-0.2,0.6-0.2,1-0.2c0.2,0,0.5,0,0.7-0.1C349.8,427.6,349.4,427.8,349,427.9z
					 M349.9,424.5c0,0.1-0.1,0.2-0.3,0.2c-0.3,0-0.5-0.1-0.5-0.2c0-0.1,0-0.1-0.1-0.2c0.3-0.1,0.7-0.3,1-0.4
					C349.9,424.1,349.8,424.2,349.9,424.5z M351.8,426.6c-0.2,0.1-0.4,0.3-0.6,0.4c-0.3,0.1-0.7,0.1-1,0.2c0.3-0.2,0.6-0.5,0.8-0.8
					c0.2-0.3,0.6-0.2,0.8,0.1C351.8,426.5,351.8,426.6,351.8,426.6z M351.7,423.5c0-0.1-0.1-0.1-0.1-0.2c0.2-0.1,0.4-0.1,0.6-0.2
					c0,0,0,0,0,0c0,0,0,0,0,0c0.2-0.1,0.5-0.1,0.7-0.2c-0.1,0.4-0.4,0.5-0.8,0.7C351.9,423.8,351.8,423.8,351.7,423.5z M353.8,425.7
					c-0.2,0.3-0.5,0.6-0.9,0.6c-0.1,0-0.2,0-0.2-0.1c0-0.1-0.1-0.2,0-0.2c0.1-0.3,0.3-0.5,0.6-0.8c0.1-0.1,0.3-0.1,0.5,0
					C353.8,425.4,353.9,425.6,353.8,425.7z M354.6,425.5C354.6,425.5,354.6,425.5,354.6,425.5c0,0,0-0.1,0.1-0.1
					C354.7,425.4,354.6,425.5,354.6,425.5z M354.8,425.3c0-0.1,0-0.2,0.1-0.3c0,0,0.1,0,0.1,0c0,0.1,0.1,0.2,0.1,0.2
					C354.9,425.2,354.9,425.3,354.8,425.3z M354.9,422.8c-0.2,0.1-0.3,0.1-0.5-0.1c0.2,0,0.5-0.1,0.7-0.1
					C355.1,422.7,355,422.7,354.9,422.8z M356.3,422.5L356.3,422.5C356.4,422.4,356.4,422.4,356.3,422.5L356.3,422.5z M357.4,413.8
					c0.1,0,0.2,0,0.2,0.1c0,0,0,0.1-0.1,0.2c-0.1,0-0.2,0-0.2-0.1C357.3,413.9,357.4,413.8,357.4,413.8z M357.7,424.4
					c-0.1,0-0.2-0.1-0.2-0.2c0-0.1,0.1-0.2,0.2-0.3c0.1,0.1,0.2,0.2,0.2,0.3C357.9,424.3,357.8,424.4,357.7,424.4z M359.2,423.8
					l-0.1-0.1l0.1,0L359.2,423.8z M358.5,394.6c0-0.1,0-0.2,0.1-0.2c0.1,0,0.2,0,0.2,0c0.3,0.3,0.5,0.6,0.6,1
					C358.9,395.4,358.7,395,358.5,394.6z M359.5,395.4c0,0.1,0.1,0.1,0.1,0.2C359.5,395.6,359.5,395.5,359.5,395.4z M362.6,413.2
					c-0.1,0-0.2-0.2-0.2-0.4c0,0,0-0.1,0.1-0.1c0.3,0,0.5,0,0.6,0.2c0,0,0,0.1,0,0.1C363,413.2,362.8,413.3,362.6,413.2z
					 M372.2,408.5C372.3,408.5,372.3,408.5,372.2,408.5c0,0.1,0,0.1-0.1,0.1C372.2,408.6,372.2,408.5,372.2,408.5
					C372.2,408.5,372.2,408.5,372.2,408.5z M365.3,416.1c0-0.1-0.1-0.1-0.1-0.2c0.1,0,0.1-0.1,0.2-0.1c0,0,0.1,0.1,0.1,0.2
					C365.4,416.1,365.3,416.1,365.3,416.1z M365.5,412.1c-0.1,0-0.1-0.1-0.2-0.1c0-0.1,0.1-0.1,0.1-0.2c0.1,0,0.3,0.1,0.3,0.2
					C365.7,412,365.6,412,365.5,412.1z M366.4,403.9c-0.2,0.1-0.4,0.1-0.6,0c-0.1,0-0.1-0.1-0.1-0.2c0-0.1,0.1-0.1,0.2-0.2
					c0.2,0.1,0.3,0.2,0.5,0.3C366.5,403.8,366.5,403.9,366.4,403.9z M367.4,411.7C367.4,411.7,367.3,411.7,367.4,411.7
					c-0.1-0.2,0-0.1,0.1-0.1C367.5,411.6,367.4,411.7,367.4,411.7z M368.9,414.6c0-0.1-0.1-0.1-0.1-0.2c0-0.1,0.1-0.1,0.2-0.1
					c0,0,0.1,0.1,0.2,0.1C369.1,414.5,369,414.5,368.9,414.6z M367.8,411.3c0-0.1,0.1-0.3,0.1-0.3c0.4-0.1,0.8-0.1,1.4-0.1
					C368.7,411.2,368.3,411.4,367.8,411.3z M368.7,408.3c-0.1,0-0.3,0-0.3-0.1c0-0.4-0.4-0.3-0.5-0.4c0,0,0-0.1-0.1-0.1
					c0,0,0-0.1,0-0.1c0.3-0.1,0.6-0.3,0.8-0.5c0.2-0.2,0.4-0.2,0.7-0.1c0.1,0.1,0.3,0.1,0.5,0.2c0.3,0.1,0.5,0.2,0.4,0.3
					c-0.1,0.1-0.2,0.3-0.3,0.4C369.5,408,369.1,408.1,368.7,408.3z M370.5,410.5c0,0.1-0.1,0.1-0.2,0.2c-0.1,0-0.2,0-0.2,0
					c-0.1,0-0.1-0.1-0.1-0.2c0-0.1,0.1-0.1,0.2-0.1c0,0,0.1,0,0.1,0C370.4,410.3,370.5,410.4,370.5,410.5z M370.6,408.7L370.6,408.7
					L370.6,408.7L370.6,408.7z M371.1,414.1c-0.1,0-0.2-0.1-0.2-0.2c0-0.1,0.1-0.2,0.1-0.3c0.2,0,0.4,0.1,0.3,0.3
					C371.3,414,371.1,414.1,371.1,414.1z M371.6,410.2c0-0.1,0.1-0.2,0.2-0.2c0.1,0,0.2,0.1,0.2,0.2c0,0.1-0.1,0.1-0.2,0.1
					C371.7,410.4,371.6,410.3,371.6,410.2z M372.2,413.7c-0.2,0-0.3-0.2-0.3-0.4c0-0.2,0.1-0.4,0.3-0.4c0.2,0,0.4,0.2,0.4,0.4
					C372.7,413.5,372.4,413.7,372.2,413.7z M372.9,412.3c0-0.1,0-0.1,0-0.2c0,0,0.1,0,0.1,0c0,0.1,0.1,0.1,0.1,0.2
					C373,412.2,373,412.2,372.9,412.3z M378.5,407.4L378.5,407.4L378.5,407.4L378.5,407.4z M378.1,406.6c0.1,0,0.2-0.1,0.2-0.1
					c0.1,0,0.2,0.1,0.2,0.1c0,0.1,0,0.2-0.1,0.2c-0.1,0.1-0.1,0.1-0.2,0.1c-0.1,0-0.2,0-0.2-0.1C377.9,406.9,378,406.7,378.1,406.6z
					 M377,407.3L377,407.3L377,407.3L377,407.3z M376.2,408.4c0.1,0,0.1,0.1,0.2,0.1c0,0.1,0,0.2-0.1,0.2c-0.1,0-0.2,0-0.2-0.1
					C376,408.6,376.1,408.4,376.2,408.4z M373.3,409.8C373.3,409.8,373.2,409.7,373.3,409.8c0-0.1,0-0.2,0.1-0.2
					c0,0,0.1,0.1,0.1,0.1C373.4,409.7,373.4,409.8,373.3,409.8z M373.8,407.4c0,0,0.1,0,0.1-0.1c0.1,0,0.2,0,0.2,0.1
					c0.2,0.1,0.2,0.3,0.2,0.5c0,0.1-0.1,0.2-0.3,0.2c-0.2,0-0.3-0.1-0.4-0.3C373.7,407.7,373.7,407.5,373.8,407.4z M374.5,412.3
					c-0.2,0.1-0.3,0.2-0.5,0.3c0,0-0.1-0.1-0.2-0.1c0,0,0-0.1,0-0.1c0,0,0.1-0.1,0.1-0.1c0.2-0.2,0-0.2-0.1-0.4
					c0.1,0,0.2-0.1,0.4-0.1c0.2,0,0.4,0,0.4,0.1C374.6,412,374.6,412.2,374.5,412.3z M375.4,411.7c0,0.2-0.1,0.4-0.2,0.6
					c0,0-0.1,0.1-0.1,0.1c-0.1,0-0.1-0.1-0.1-0.1c0-0.2-0.1-0.4-0.1-0.6l0,0c0-0.2-0.1-0.3-0.1-0.5c0,0,0.1-0.1,0.1-0.1
					c0,0,0.1,0,0.1,0C375.3,411.2,375.4,411.4,375.4,411.7z M375.2,409.6c-0.1,0.1-0.4,0-0.4-0.2c0-0.1,0.1-0.3,0.3-0.3
					c0.1,0,0.2,0.1,0.3,0.2C375.3,409.4,375.3,409.6,375.2,409.6z M375.7,415.2L375.7,415.2L375.7,415.2L375.7,415.2z M376.2,412
					c0,0-0.2,0-0.2,0c-0.1,0-0.1-0.1-0.1-0.2c0-0.1,0-0.2,0-0.2c0.2-0.6,0.3-0.6,1-0.3C376.7,411.4,376.4,411.6,376.2,412z
					 M377.4,409C377.4,409,377.3,409,377.4,409c-0.1-0.1-0.1-0.2-0.1-0.2c0.1-0.3,0.3-0.4,0.6-0.5c0,0,0.1,0,0.1,0c0,0,0,0.1,0,0.1
					c-0.1,0.2-0.3,0.3-0.4,0.5C377.5,409,377.5,409,377.4,409z M377.9,414.1c0-0.1-0.1-0.1-0.1-0.2c0,0,0.1,0,0.1,0
					C378,414,378,414,377.9,414.1C378,414.1,377.9,414.1,377.9,414.1z M379.1,415.2c-0.1,0.1-0.3,0.2-0.3,0.1c0-0.1,0-0.2,0.1-0.2
					c0.1,0,0.1,0,0.2,0C379.1,415.2,379.2,415.2,379.1,415.2z M380.1,414.2C380.1,414.2,380.1,414.1,380.1,414.2
					c-0.1-0.1-0.1-0.2,0-0.2c0.1,0,0.1,0.1,0.2,0.1C380.3,414.1,380.2,414.2,380.1,414.2z M381,410.4c-0.2,0.2-0.4,0.3-0.6,0.5
					c-0.3,0.2-0.6,0.4-0.9,0.2c-0.2-0.1-0.4,0-0.5,0.2c-0.1,0.1-0.2,0-0.3-0.1c0-0.1,0-0.2-0.1-0.2c0-0.1-0.1-0.1-0.2-0.1
					c0,0-0.1,0-0.1,0.1c0,0,0,0.1-0.1,0.1c0,0.2-0.1,0.3-0.3,0.4c-0.1,0-0.2,0-0.2,0c-0.2-0.1-0.3-0.3-0.2-0.6
					c0.1-0.2,0.2-0.5,0.3-0.7c0.1-0.3,0.3-0.3,0.7-0.1c0,0,0.1,0.1,0.1,0.1c0.2,0.1,0.3,0.1,0.4,0c0.1-0.2,0.2-0.4,0.3-0.6
					c0-0.1,0.1-0.1,0.2-0.1c0.1,0,0.1,0.1,0.1,0.2c0,0.1,0,0.2,0,0.2c0,0.1,0,0.2,0,0.2c0.1,0.1,0.2,0.2,0.3,0.2
					c0.4,0,0.5-0.2,0.4-0.7c0-0.1-0.1-0.2,0-0.3c0.2-0.1,0.4,0,0.5,0.1c0,0.1,0.1,0.1,0.1,0.2c0.1,0.2,0.1,0.3,0.2,0.5
					C381.2,410.1,381.2,410.3,381,410.4z M381.7,409.8c0.3-0.3,0.1-0.6,0.1-1c0-0.1,0.2-0.3,0.3-0.3c0.5-0.1,0.8,0.1,0.8,0.7
					c0.1,0.6-0.3,1-0.9,1.1c-0.1,0-0.3,0-0.4-0.1C381.6,410.1,381.6,409.9,381.7,409.8z M383.5,411.6c-0.4,0.1-0.7,0.2-1.1,0.4
					c-0.3,0.2-0.6,0-0.8-0.2c-0.1-0.1-0.1-0.3,0-0.3c0.2-0.2,0.5-0.2,0.8-0.3c0.3-0.1,0.7-0.1,1,0.1c0.1,0,0.1,0.1,0.1,0.2
					C383.7,411.5,383.6,411.6,383.5,411.6z M387.3,407.4c0.1-0.1,0.1-0.1,0.2-0.1c0,0,0,0.1,0.1,0.1c0,0.1-0.1,0.1-0.1,0.2
					C387.3,407.5,387.3,407.5,387.3,407.4C387.2,407.5,387.2,407.4,387.3,407.4z M385.2,410.9c-0.1,0-0.2,0-0.2-0.1c0,0,0-0.1,0-0.2
					c0.1,0,0.2,0,0.2,0.1C385.3,410.7,385.2,410.8,385.2,410.9z M386.2,412.8c-0.1,0-0.2,0-0.3-0.1c0,0,0-0.1,0-0.2
					c0.1,0,0.2,0,0.3,0.1C386.3,412.6,386.3,412.7,386.2,412.8C386.3,412.7,386.2,412.8,386.2,412.8z M386.3,408.9
					c-0.1,0-0.2,0.1-0.4,0.1c-0.6,0.1-1.1,0.2-1.6,0.4c-0.1,0-0.2,0-0.4,0c0,0-0.1-0.2-0.1-0.2c0.2-0.2,0.4-0.5,0.7-0.7l0,0
					c0,0,0.1-0.1,0.1-0.1c0.9-1,0.6-1.1,1.7-0.1c0,0,0.1,0.1,0.1,0.1C386.5,408.6,386.5,408.9,386.3,408.9z M387.5,410.6
					c-0.2,0.2-0.4,0.4-0.7,0.6c0,0-0.2,0-0.2,0c-0.1,0-0.1-0.1-0.1-0.2c0-0.1,0-0.2,0-0.2c0.1-0.3,0.5-0.6,0.9-0.6
					c0.1,0,0.2,0.1,0.3,0.2C387.5,410.4,387.5,410.5,387.5,410.6z M388.1,412.6c0,0-0.1-0.1-0.1-0.2c0-0.1,0.2-0.2,0.3-0.1
					c0.1,0,0.1,0.1,0.1,0.2C388.3,412.5,388.2,412.6,388.1,412.6z M388.7,408C388.7,408,388.7,408.1,388.7,408c-0.5,0.3-1,0.5-1.2,1
					c0,0-0.3,0-0.3-0.1c-0.2-0.3,0-0.8,0.3-0.9c0.4-0.1,0.7-0.2,1.1-0.2c0,0,0.1,0.1,0.2,0.1C388.8,407.9,388.8,408,388.7,408z
					 M388.7,407.1c-0.1,0-0.1-0.1-0.1-0.1c0,0,0.1,0,0.1,0C388.7,406.9,388.8,407,388.7,407.1C388.8,407,388.7,407.1,388.7,407.1z
					 M391.6,402.4c0.1,0.1,0.2,0.1,0.3,0.2c-0.1,0.1-0.1,0.2-0.2,0.2C391.6,402.7,391.5,402.6,391.6,402.4
					C391.6,402.5,391.6,402.4,391.6,402.4z M391.1,406.3c0.1-0.2,0.3-0.3,0.5-0.2c0,0,0.1,0.1,0.1,0.1c-0.1,0.1-0.1,0.2-0.2,0.3
					c-0.1,0-0.2,0-0.3,0C391.1,406.5,391.1,406.4,391.1,406.3z M391.7,414.5c-0.1,0-0.2,0-0.2,0c-0.1,0-0.1-0.1-0.2-0.1
					c0.1,0,0.1-0.1,0.2-0.1c0.1,0,0.2-0.1,0.2-0.1c0.1,0,0.1,0.1,0.2,0.1C391.8,414.4,391.7,414.4,391.7,414.5z M392.1,410.5
					c-0.1,0-0.2,0-0.2-0.1c0,0,0-0.2,0-0.2c0-0.1,0.1-0.1,0.2-0.1c0.1,0,0.2,0.1,0.3,0.1C392.5,410.3,392.3,410.4,392.1,410.5z
					 M394.8,405.5L394.8,405.5L394.8,405.5L394.8,405.5z M393.6,410c0,0,0-0.1,0-0.1c0.3-0.3,0.6-0.4,1-0.3c0,0,0.1,0,0.1,0.1
					c0,0,0,0.1,0,0.1c-0.2,0.1-0.4,0.2-0.6,0.3C393.9,410,393.7,410,393.6,410z M395.2,413.7c-0.2,0-0.3,0.1-0.4,0.1
					c-0.1,0-0.1-0.1-0.2-0.1c0-0.1,0.1-0.1,0.1-0.2c0.1-0.1,0.3-0.1,0.4,0C395.2,413.5,395.2,413.6,395.2,413.7
					C395.3,413.6,395.2,413.7,395.2,413.7z M571.1,363.8C571.1,363.8,571.1,363.8,571.1,363.8c0.1,0.1,0.1,0.1,0,0.2
					C571.1,363.9,571,363.9,571.1,363.8C571,363.8,571,363.8,571.1,363.8z M569.2,365.8c0.2,0,0.3,0,0.6,0c0.3,0,0.6-0.1,1-0.1
					c0.1,0,0.2,0.1,0.3,0.1c0,0,0,0.2,0,0.2c-0.2,0.2-0.5,0.2-0.8,0.1c-0.3-0.1-0.6,0-0.8,0.2c-0.1,0.1-0.3,0-0.3-0.1
					c-0.1-0.1-0.1-0.2-0.1-0.3C569.1,365.9,569.2,365.8,569.2,365.8z M570.1,369.8c-0.1,0.1-0.1,0.2-0.2,0.2
					c-0.1,0.1-0.3-0.1-0.2-0.3c0-0.1,0.1-0.1,0.2-0.1C570,369.6,570.1,369.7,570.1,369.8z M568.9,370.6c0.1,0,0.1,0,0.2,0
					c0,0.1-0.1,0.1-0.1,0.2C568.9,370.8,568.9,370.8,568.9,370.6C568.8,370.7,568.9,370.6,568.9,370.6z M568.7,368.1L568.7,368.1
					L568.7,368.1L568.7,368.1z M414.8,405.2c0,0,0,0.1,0,0.1c-0.2,0.1-0.3,0.2-0.5,0.4c0,0-0.1,0-0.1,0c0-0.1-0.1-0.2,0-0.2
					C414.2,405.2,414.4,405.1,414.8,405.2C414.7,405.1,414.8,405.2,414.8,405.2z M413.9,399.3c0.1-0.3,0.3-0.4,0.6-0.3
					c0.1,0,0.1,0.1,0.1,0.2c0,0.2-0.2,0.3-0.2,0.5c0,0.5,0,0.5-0.6,0.4c-0.1,0-0.1-0.1-0.2-0.1C413.7,399.7,413.8,399.5,413.9,399.3
					z M412.8,401.1c0.3,0,0.5,0.2,0.5,0.6c0,0,0,0.1-0.1,0.1C413.1,401.8,412.8,401.5,412.8,401.1
					C412.8,401.2,412.8,401.2,412.8,401.1z M412.8,405.4c0,0.1,0.1,0.1,0.1,0.2c0,0,0,0.1-0.1,0.1c-0.1,0-0.1-0.1-0.2-0.1
					C412.8,405.5,412.8,405.4,412.8,405.4z M411.5,400c0.1,0,0.1,0.1,0.2,0.1c0,0,0,0.1,0,0.1C411.6,400.1,411.6,400.1,411.5,400
					C411.5,400,411.5,400,411.5,400z M411.3,403.2c0.3,0,0.6,0.1,0.7,0.4c0,0,0,0.1,0,0.1c-0.3,0.1-0.5,0-0.8-0.2c0,0,0-0.1,0-0.1
					C411.1,403.3,411.2,403.3,411.3,403.2z M411.1,404.7c0.2,0.5,0.4,0.9,0.8,1.2c0,0,0,0.1,0,0.1c0,0.1-0.1,0.2-0.1,0.2
					c-0.1,0.1-0.4,0-0.4-0.1c-0.2-0.4-0.3-0.8-0.5-1.3c0,0,0-0.1,0-0.1C410.9,404.7,411,404.6,411.1,404.7z M409.9,400.2
					c0.2-0.2,0.4-0.3,0.7-0.3c0.2,0,0.3,0.2,0.3,0.3c0,0.2-0.2,0.5-0.4,0.4c-0.2,0-0.4-0.1-0.6-0.2
					C409.9,400.5,409.8,400.3,409.9,400.2z M410.8,402.2C410.8,402.2,410.7,402.3,410.8,402.2c-0.2,0.1-0.2,0-0.2-0.1
					c0,0,0.1,0,0.1,0C410.7,402.2,410.8,402.2,410.8,402.2z M409.9,402.2c0.1,0,0.2,0.1,0.3,0.1c0,0.2-0.1,0.4-0.3,0.4
					c-0.1,0-0.2-0.1-0.2-0.1C409.6,402.5,409.7,402.2,409.9,402.2z M409.2,406.2c0.1-0.1,0.2-0.2,0.3-0.1c0.2,0.1,0.4,0.2,0.7,0.3
					c0.1,0,0.1,0.1,0.1,0.2c0,0-0.1,0.1-0.1,0.1c-0.2,0.1-0.4,0.2-0.5,0.2c-0.2,0-0.3,0-0.3,0c-0.1-0.1-0.2-0.1-0.2-0.2
					C409.1,406.4,409.1,406.3,409.2,406.2z M408.1,400.4c0-0.1,0.1-0.1,0.2-0.1c0.1,0,0.2,0.1,0.3,0.2c-0.2,0.1-0.2,0.2-0.3,0.2
					C408.1,400.7,408,400.5,408.1,400.4z M407.9,402.2c0.1-0.1,0.2-0.1,0.3-0.2c0.1-0.1,0.3-0.1,0.4-0.2c0.1,0.1,0.2,0.1,0.2,0.1
					c0,0,0,0.1,0,0.1c-0.2,0.2-0.4,0.3-0.6,0.4c-0.1,0-0.2,0-0.3-0.1C407.9,402.4,407.9,402.2,407.9,402.2z M408.5,406.8
					c0,0.1-0.1,0.2-0.2,0.3c-0.5,0.1-1,0.2-1.4,0.3c-0.5,0.1-0.6-0.1-0.7-0.5c-0.1-0.4,0-0.4,0.4-0.5c0.5,0,1,0.1,1.5,0.1
					c0,0,0.1,0,0.1,0C408.4,406.6,408.5,406.7,408.5,406.8z M407.5,405c-0.1,0.2-0.3,0.2-0.4,0.2c-0.1,0-0.2-0.1-0.2-0.1
					c0.2-0.4-0.1-0.5-0.3-0.6c0,0,0-0.1,0-0.2c0,0,0.1,0,0.1-0.1c0.3,0,0.5,0.1,0.7,0.3C407.5,404.6,407.6,404.8,407.5,405z
					 M407.2,402.8c0.1-0.1,0.2-0.2,0.3-0.1c0,0,0,0.1,0,0.1c0,0.1-0.1,0.1-0.2,0.2c0,0-0.1,0-0.1,0
					C407.2,403,407.1,402.9,407.2,402.8z M406.1,400.9c0-0.1,0-0.2,0.1-0.2c0.1-0.1,0.2,0,0.3,0c0.2,0.1,0.3,0.2,0.6,0.4
					c-0.2,0.1-0.2,0.1-0.3,0.1c-0.3,0.2-0.4,0.3-0.3,0.5c0.3,0.5,0,1-0.3,1.4c0,0-0.1,0-0.1,0c0,0-0.1-0.1-0.1-0.1
					C406.1,402.3,406.1,401.6,406.1,400.9z M404.8,407.4c0.1,0,0.1,0,0.2,0.1c0,0-0.1,0-0.1,0.1
					C404.8,407.5,404.8,407.5,404.8,407.4C404.7,407.4,404.8,407.4,404.8,407.4z M403.7,409.9C403.7,409.9,403.7,409.9,403.7,409.9
					c0,0.1,0,0.2-0.1,0.2c0,0-0.1-0.1-0.1-0.1C403.5,409.9,403.6,409.9,403.7,409.9z M398.2,408.3c0-0.1,0-0.1,0-0.2
					c0,0,0.1,0,0.1,0c0,0,0.1,0,0.1,0.1c0,0.1,0,0.1,0,0.2C398.4,408.3,398.3,408.3,398.2,408.3z M400.3,408.1
					c-0.1-0.1,0-0.1,0.1-0.1C400.3,408,400.3,408.1,400.3,408.1z M401.5,410.3C401.5,410.3,401.4,410.3,401.5,410.3
					C401.4,410.2,401.5,410.2,401.5,410.3C401.5,410.2,401.5,410.2,401.5,410.3C401.5,410.3,401.5,410.3,401.5,410.3z M401.9,407.7
					c0.5-0.2,1-0.4,1.5-0.1c-0.5,0.5-1,0.4-1.5,0.2C401.9,407.8,401.9,407.7,401.9,407.7z M571.7,375.5c-0.4,0.2-0.8,0.3-1.2,0.4
					c-0.1,0-0.3,0-0.3-0.1c-0.2-0.3-0.4-0.4-0.7-0.2c-0.3,0.1-154.1,33.3-154.4,33.4c0.1,0.1,153.7-33,153.8-32.9
					c0.1,0.1,0.1,0.1,0,0.2c-0.3,0.2-154.1,33.3-154.4,33.3c-0.2-0.1-0.5-0.2-0.7-0.2c-0.2,0-0.5-0.1-0.7,0
					c-0.7,0.3-1.5,0.2-2.2,0.4c-0.2,0-0.4,0-0.5,0.1c-0.5,0.4-1.1,0.4-1.7,0.4c-0.2,0-0.4,0.1-0.6,0.1c-0.6,0.2-1.1,0.3-1.7,0.2
					c-0.2,0-0.3,0-0.5,0c-0.8,0.2-1.7,0.3-2.5,0.5c-0.3,0.1-0.6,0-0.9,0c-0.1,0-0.1-0.1-0.2-0.1c0,0,0-0.1,0.1-0.1
					c0.2-0.1,0.4-0.2,0.5-0.3c0.4-0.1,0.7-0.1,1.1-0.2c0.6-0.1,1.3-0.1,1.9-0.2c0.5-0.1,0.9-0.2,1.1-0.7c0.1-0.3,0.2-0.3,0.5-0.1
					c0.3,0.2,0.6,0.2,0.9-0.1c0.2-0.2,0.5-0.3,0.8-0.4c0.1,0,0.3-0.1,0.4,0c0.4,0.2,0.9,0.2,1.4,0.1c0.5-0.1,1.1-0.1,1.6-0.3
					c0.6-0.2,1.2-0.4,1.9-0.3c0.1,0,0.3,0,0.4-0.1c0.8-0.3,155.3-33.4,156.1-33.6c0.1,0,0.2,0,0.3,0c0.4,0,0.6,0.2,0.8,0.6
					C571.8,375.2,571.7,375.5,571.7,375.5z M571.8,370.4c0,0-0.1,0-0.1,0C571.7,370.2,571.7,370.2,571.8,370.4
					C571.8,370.3,571.8,370.3,571.8,370.4z M573.3,374.7C573.2,374.6,573.2,374.6,573.3,374.7c-0.1-0.1,0-0.1,0-0.1
					C573.3,374.5,573.3,374.6,573.3,374.7C573.3,374.6,573.3,374.6,573.3,374.7z M574,366c-0.4,0-0.7,0-1-0.2
					c-0.1-0.1-0.1-0.2-0.1-0.3c0-0.2,0.2-0.3,0.4-0.2c0.4,0.1,0.5,0.5,0.9,0.6C574,366,574,366,574,366z M574.2,363.6
					C574.2,363.6,574.1,363.5,574.2,363.6c-0.1-0.1,0-0.1,0-0.2c0,0,0.1,0,0.1,0C574.3,363.5,574.2,363.6,574.2,363.6z M575,365.5
					L575,365.5L575,365.5L575,365.5z M575.4,363.4c0,0,0-0.1,0-0.1c0,0,0.1,0,0.1,0c0,0,0.1,0,0.1,0.1
					C575.5,363.4,575.5,363.4,575.4,363.4z M577,366c-0.1,0-0.2,0.1-0.3,0.1c-0.1,0-0.2,0-0.3,0c-0.1,0-0.2-0.2-0.2-0.3
					c0-0.1,0.1-0.1,0.2-0.1c0.2,0,0.4,0,0.6,0c0.1,0,0.1,0.1,0.1,0.1C577.1,365.9,577,366,577,366z M577.2,363.2
					c-0.3,0.2-0.6,0.1-0.8-0.1c0,0-0.1-0.2,0-0.2c0-0.1,0.1-0.1,0.2-0.1c0.3,0,0.5,0.1,0.7,0.3C577.2,363,577.3,363,577.2,363.2
					C577.3,363.1,577.2,363.2,577.2,363.2z M584.9,361.6c0,0-0.1-0.1-0.1-0.2c0,0,0.1,0,0.1,0C585,361.4,585,361.5,584.9,361.6
					C585,361.6,585,361.6,584.9,361.6z"/>
			</g>
			<g id="XMLID_24_">
				<path id="XMLID_524_" class="st1" d="M414.9,408.9C414.9,408.9,414.9,408.9,414.9,408.9C414.9,408.8,414.9,408.8,414.9,408.9
					L414.9,408.9z"/>
			</g>
			<g id="XMLID_17_">
				<path id="XMLID_516_" class="st1" d="M348.4,399.9c0-0.2-0.1-0.4-0.3-0.5c-0.1,0-0.2-0.1-0.4-0.1c-0.6-0.2-1.1-0.6-1.3-1.3
					c-0.1-0.3-0.3-0.6-0.4-0.9c-0.1-0.3-0.3-0.5-0.5-0.7c-0.5-0.3-0.8-0.8-1-1.3c-0.5-0.8-0.9-1.6-1.4-2.4c-0.5-1-1.1-1.9-1.7-2.8
					c-0.8-1.2-1.7-2.4-2.6-3.6c-0.5-0.7-0.9-1.3-1.3-2c-0.4-0.9-0.9-1.8-1.5-2.6c-0.5-0.7-1-1.4-1.5-2.1c-0.6-1-1.2-2-1.8-2.9
					c-0.5-0.8-1.1-1.6-1.6-2.4c-0.5-0.7-0.9-1.3-1.4-2c-0.9-1.4-1.7-2.8-2.6-4.2c-0.1-0.2-0.3-0.4-0.4-0.6c-0.8-0.8-1.4-1.8-2-2.8
					c-0.5-0.8-0.9-1.5-1.3-2.3c-0.1-0.2-0.3-0.4-0.4-0.7c-0.1-0.6-0.4-1-0.7-1.5c-0.1-0.2-0.3-0.4-0.3-0.7c-0.1-0.6-0.3-1.1-0.9-1.4
					c-0.1,0-0.1-0.1-0.2-0.2c-0.4-0.6-0.8-1.3-1.2-1.9c-0.7-1.3-1.5-2.6-2.3-3.8c-0.8-1.2-1.5-2.4-2.3-3.5c-0.2-0.2-0.3-0.4-0.5-0.6
					c-0.1-0.1-0.3-0.1-0.5-0.1c-0.2,0-0.3,0.1-0.5,0.2c-0.2,0.1-0.4,0.2-0.6,0.1c-0.7-0.2-1.3,0-1.8,0.3c-0.9,0.4-1.9,0.8-2.8,1.2
					c-0.9,0.3-1.8,0.6-2.6,1c-0.5,0.2-1.1,0.4-1.5,0.9c-0.1,0.1-0.3,0.2-0.4,0.3c-0.9,0.4-1.8,0.8-2.7,1.2c-1.2,0.6-2.5,1.1-3.7,1.7
					c-1.5,0.8-3.1,1.6-4.7,2.3c-0.3,0.1-0.5,0.3-0.8,0.4c-1,0.6-1.9,1.2-2.9,1.8c-1.9,1.1-3.8,2.4-5.8,3.5c-0.1,0.1-0.3,0.2-0.4,0.3
					c-1.2,0.7-2.4,1.6-3.7,2.3c-1.3,0.7-2.5,1.6-3.8,2.3c-0.3,0.2-0.5,0.3-0.7,0.5c-0.7,0.5-1.4,0.9-2.3,1.1c-0.5,0.1-0.9,0.3-1,0.8
					c0,0.2-0.2,0.4-0.4,0.5c-0.2,0.2-0.5,0.3-0.7,0.5c-1.4,0.9-2.8,1.7-4.2,2.7c-3.1,2.1-6.5,3.7-9.9,5.3c-0.6,0.3-1.2,0.5-1.7,0.9
					c-0.2,0.1-0.4,0.3-0.7,0.4c-1.3,0.5-2.5,1.3-3.7,1.9c-1.1,0.6-2.2,1.1-3.3,1.7c-1.5,0.8-2.9,1.6-4.3,2.4c-1.6,1-3.2,1.9-4.7,3
					c-0.9,0.6-1.8,1.1-2.7,1.7c-2,1.2-4,2.4-6,3.6c-0.9,0.5-1.9,1-2.8,1.5c-2.8,1.6-5.5,3.1-8.3,4.7c-2,1.1-4,2.2-5.9,3.5
					c-0.7,0.4-1.3,0.9-2.1,1.2c-0.2,0.1-0.4,0.3-0.7,0.4c-0.3,0.2-0.4,0.4-0.1,0.7c0.4,0.4,0.8,0.6,1.4,0.4c0.3-0.1,0.5,0,0.7,0.1
					c1,0.5,2,0.8,3,1.1c1.8,0.5,3.6,1.1,5.3,1.7c1.4,0.5,2.8,1,4.2,1.4c0.9,0.3,1.2,0.4,0.9,1.5c-0.4,1.9-0.5,3.9-0.3,5.8
					c0.1,1.2,0.2,2.4,0.3,3.7c0,0.3,0.1,0.7,0.3,1c0.4,0.7,0.6,1.4,0.6,2.2c0,0.5,0.1,0.9,0.1,1.4c0.1,0.9,0.4,1.8,0.7,2.7
					c0.5,1.7,1.3,3.2,2.4,4.6c0.6,0.8,1.2,1.5,1.7,2.4c0.3,0.5,0.7,1,1,1.4c0.8,1,1.7,1.9,2.6,2.8c1,1,2.1,1.9,3.3,2.6
					c1.1,0.6,2.1,1.3,3.1,2c0.8,0.5,1.6,0.9,2.5,1.3c1.7,0.6,3.5,1,5.2,1.7c0.2,0.1,0.5,0.1,0.7,0.2c0.5,0.1,1,0.2,1.5-0.1
					c0.2-0.1,0.4-0.1,0.6-0.1c1.9-0.1,3.8-0.2,5.7-0.2c1.1,0,2.3-0.1,3.4-0.4c2.3-0.6,4.6-1.3,6.7-2.4c0.3-0.1,0.5-0.3,0.8-0.4
					c1.6-0.7,3-1.7,4.3-2.9c0.8-0.7,1.6-1.4,2.4-2.1c1.3-1,2.3-2.3,3.2-3.6c1.3-1.8,2.2-3.7,3.1-5.7c0.1-0.3,0.2-0.6,0.4-0.9
					c0.2-0.5,0.4-1,0.6-1.6c0.2-0.4,0.3-0.8,0.7-1.2c0.2-0.2,0.3-0.5,0.4-0.8c0.2-0.4,0.3-0.9,0.5-1.3c0.2-0.5,0.4-1,0.9-1.3
					c0.2-0.1,0.2-0.3,0.4-0.5c0.1-0.2,0.3-0.5,0.4-0.6c0.8-0.7,1.6-1.4,2.5-2c1.4-0.9,2.9-1.4,4.5-1.7c1-0.2,2-0.3,3-0.4
					c0.9-0.1,1.9-0.1,2.7,0.3c0.4,0.2,0.9,0.3,1.4,0.1c0.3-0.1,0.6,0,0.8,0.2c0.1,0.1,0.3,0.2,0.4,0.3c1.7,1.2,3.3,2.4,5.4,2.8
					c0.1,0,0.2,0.1,0.2,0.1c1.3,0.5,2.6,0.7,3.9,0.9c0.3,0.1,0.7,0.1,1-0.1c0.6-0.3,1.2-0.3,1.9-0.4c0.1,0,0.2,0.1,0.2,0.1
					c0,0.1,0,0.2-0.1,0.2c-0.2,0.1-0.4,0.2-0.5,0.3c-1.4,0.7-2.8,1.5-4.3,2.2c-2.9,1.3-5.7,2.8-8.6,4.2c-2.6,1.2-5,2.7-7.5,4.1
					c-2.1,1.2-4.1,2.3-6.3,3.3c-1.1,0.5-2.2,1.1-3.3,1.6c-1.7,0.9-3.4,1.9-5.1,2.8c-1.4,0.8-2.9,1.6-4.4,2.4c-1.7,0.8-3.4,1.7-5,2.8
					c-1.5,1-3.1,1.9-4.7,2.8c-1,0.5-1.9,1.1-2.8,1.7c-0.9,0.5-1.8,1.1-2.7,1.6c-2,1.1-4,2.3-5.9,3.5c-0.3,0.2-0.5,0.3-0.7,0.5
					c-0.3,0.3-0.3,0.7,0,1c0.3,0.3,0.6,0.4,0.9,0.3c0.5-0.1,1-0.4,1.5-0.7c1.6-0.9,3.1-1.9,4.7-2.8c0.8-0.5,1.6-0.9,2.4-1.4
					c1.1-0.6,2.1-1.2,3.2-1.9c1.7-1,3.5-2,5.1-3.1c1.4-0.9,2.8-1.7,4.3-2.5c1.4-0.8,2.8-1.5,4.1-2.2c1.9-1,3.7-2.1,5.6-3.1
					c1.5-0.8,3-1.5,4.5-2.3c1.6-0.8,3.3-1.6,4.8-2.6c0.3-0.2,0.6-0.3,0.9-0.5c1-0.6,2.1-1.1,3.1-1.7c1.5-0.8,2.9-1.6,4.4-2.3
					c1.4-0.7,2.9-1.4,4.3-2.2c1.3-0.6,2.5-1.2,3.8-1.8c0.8-0.4,1.6-0.7,2.4-1.1c1.3-0.7,2.6-1.3,4-2c1.7-0.9,3.3-1.7,5-2.6
					c2.7-1.4,5.3-2.8,8.1-4c1.9-0.8,3.6-1.8,5.5-2.6c1.3-0.5,2.6-1.1,3.9-1.4c0.5-0.1,1-0.3,1.5-0.6c1.6-0.8,3.3-1.4,4.9-2
					c1.5-0.5,3-1.1,4.5-1.8c0.5-0.2,0.9-0.5,1.3-0.8c0.2-0.2,0.3-0.4,0.2-0.7c-0.1-0.2-0.2-0.4-0.1-0.6c0.4-0.7,0.2-1.3-0.1-2
					c-0.5-1.1-1-2.2-1.6-3.2c-0.3-0.6-0.5-1.2-0.2-1.8C348.4,399.9,348.4,399.9,348.4,399.9z M226.1,408.2c-0.1,0.3-0.3,0.4-0.6,0.4
					c-0.5-0.1-1-0.2-1.5-0.4c-0.5-0.2-1.1-0.3-1.6-0.5c-1.9-0.8-3.9-1.3-5.8-1.9c-0.7-0.2-1.3-0.5-2-0.7c0,0-0.1-0.2-0.1-0.2
					c0.1-0.1,0.2-0.2,0.3-0.3c1.9-1.1,3.7-2.2,5.6-3.3c0.3-0.1,0.5-0.3,0.8-0.4c2.6-1.6,5.3-3,8-4.5c2.8-1.5,5.6-3.2,8.3-5
					c1.5-1,3.1-1.9,4.6-2.9c2.6-1.7,5.4-3.2,8.2-4.7c2-1,4-2.1,5.9-3.2c0.2-0.1,0.5-0.2,0.7-0.3c0.1-0.1,0.4,0,0.5,0.1
					c0.1,0.2,0.3,0.4,0.4,0.7c0.6,1.1,1.2,2.1,2,3.1c0.3,0.3,0.5,0.7,0.7,1c0,0.1,0,0.2-0.1,0.3c-0.1,0.1-0.2,0.1-0.3,0.2
					c-0.4,0.1-0.7,0.2-1.1,0.3c-1.4,0.2-2.7,0.6-4.1,1c-2.5,0.8-4.9,1.6-7.3,2.5c-2.3,0.9-4.6,1.9-6.8,3.1c-0.8,0.4-1.6,0.8-2.3,1.3
					c-2.3,1.3-4.4,2.9-6.2,4.9c-0.2,0.2-0.4,0.4-0.5,0.6c-0.6,1.1-1.6,2-2.4,3c-0.6,0.8-1.2,1.5-1.7,2.4
					C226.9,405.7,226.5,407,226.1,408.2z M296,414.7c-0.7,0.5-1.4,0.9-2.4,0.8c-0.5,0-0.9,0.1-1.4,0.2c-0.4,0.1-0.7,0.2-1.1,0.3
					c-1.2,0.2-2.3,0.7-3.3,1.2c-1.1,0.6-2.2,1.1-3.1,2c-1.2,1.1-2.3,2.2-3,3.7c-0.1,0.2-0.2,0.5-0.4,0.7c-0.1,0.1-0.2,0.3-0.3,0.4
					c-0.6,0.2-0.7,0.7-0.9,1.2c-0.3,1.1-0.7,2.3-1.2,3.4c-0.1,0.2-0.2,0.4-0.3,0.5c-0.4,0.2-0.5,0.5-0.6,0.9c0,0.1-0.1,0.2-0.1,0.4
					c-0.3,1.1-0.8,2-1.5,2.9c-1.1,1.5-2.3,2.9-3.4,4.4c-0.9,1.1-1.9,2-3,2.9c-0.2,0.2-0.5,0.4-0.8,0.4c-0.8,0.2-1.5,0.7-2.2,1.2
					c-0.5,0.4-1.1,0.7-1.6,1c-1.3,0.8-2.7,1.3-4.1,1.7c-1.1,0.3-2.1,0.5-3.2,0.8c-0.7,0.2-1.4,0.3-2.1,0.2c-1.1-0.1-2.3-0.1-3.4-0.2
					c-0.7-0.1-1.4-0.2-2.1-0.3c-1.3-0.2-2.5-0.7-3.7-1.2c-0.2-0.1-0.4-0.2-0.7-0.3c-0.2-0.1-0.5-0.1-0.7,0c-0.3,0.2-0.6,0.1-0.8,0
					c-0.9-0.4-1.8-1-2.6-1.5c-0.7-0.5-1.3-1-1.9-1.4c-0.6-0.5-1.3-1-1.9-1.5c-0.1-0.1-0.3-0.2-0.5-0.2c-0.4,0-0.6-0.2-0.8-0.5
					c-1.1-1.3-2.1-2.5-3.2-3.8c-0.3-0.3-0.5-0.6-0.9-0.9c-0.5-0.3-0.7-0.9-1-1.4c-0.4-0.7-0.7-1.3-0.8-2.1c0-0.3-0.2-0.6-0.4-0.9
					c-0.5-1.1-1.1-2.2-1.5-3.3c-0.8-2-1.1-4.2-1-6.4c0-0.7,0.1-1.4,0.1-2.2c0-1.1,0-2.1,0.1-3.2c0-0.7,0.1-1.4,0.1-2
					c0.1-0.8,0.3-1.5,0.7-2.2c0.1-0.2,0.2-0.4,0.3-0.7c0.5-1.6,1.3-3.1,1.8-4.6c0.2-0.6,0.5-1.1,0.9-1.5c0.9-1,1.7-2.1,2.6-3.1
					c1-1.2,2.2-2.2,3.5-3.1c1.2-0.9,2.4-1.6,3.7-2.2c1-0.5,2-1,3-1.5c1.5-0.7,3-1.2,4.5-1.7c1.1-0.4,2.2-0.8,3.2-1.2
					c0.1,0,0.2,0,0.2-0.1c1-0.7,2.1-0.8,3.2-1.1c1.5-0.4,3.1-0.7,4.6-1c0.6-0.1,1.2-0.2,1.9-0.3c1.3-0.2,2.7-0.4,4-0.8
					c0.6-0.2,1.2-0.3,1.9-0.3c0.9-0.1,1.8-0.2,2.7-0.3c2.4-0.3,4.9-0.5,7.4-0.5c1.4,0,2.8,0,4.2-0.1c0.5,0,0.9-0.1,1.4-0.1
					c0.8,0,1.7,0,2.5,0c2,0,4.1,0.1,6.1,0.4c0.6,0.1,1.3,0.2,1.9,0.4c1.2,0.4,2.5,0.5,3.8,0.5c0.6,0,1.3,0,1.9,0
					c0.4,0,0.7,0.1,1.1,0.3c0.3,0.2,0.7,0.3,1.1,0.3c0.8,0.2,1.7,0.3,2.5,0.5c0.3,0.1,0.6,0.1,0.9,0.2c0.1,0,0.1,0.1,0.3,0.2
					c-0.4,0.3-0.7,0.5-1,0.7c-2.3,1.1-4.4,2.6-6.2,4.3c-1.6,1.5-2.7,3.3-3.5,5.2c-0.9,2-1.3,4.1-1.4,6.3c0,0.7,0,1.4,0.3,2
					c0.2,0.5,0.3,0.9,0.4,1.5c0.1,1.3,0.4,2.5,0.9,3.7c0.2,0.5,0.5,0.9,0.7,1.4c0.1,0.2,0.2,0.4,0.3,0.6
					C296.2,414.3,296.1,414.6,296,414.7z M314.1,422.5c-0.1,0-0.2,0-0.1-0.1c0,0,0.1,0,0.1,0c0,0,0.1,0,0.1,0.1
					C314.2,422.4,314.2,422.5,314.1,422.5z M319.6,417c-0.6,0.5-1.3,0.9-2,1.3c-0.3,0.2-0.6,0.4-0.8,0.6c-0.3,0.5-0.8,0.6-1.3,0.7
					c-0.9,0.2-1.8,0.3-2.8,0.4c0,0,0,0,0,0c-0.6,0.1-1.3,0.2-1.9,0.3c-0.3,0-0.6,0-0.9,0.2c-0.5,0.3-0.9,0.3-1.3,0.1
					c-0.3-0.1-0.6-0.2-1-0.3c-0.8-0.2-1.4-0.5-2.1-0.8c-0.6-0.3-1.3-0.7-1.9-1c-0.6-0.3-1.2-0.8-1.7-1.3c-0.5-0.7-1.1-1.3-1.8-1.8
					c-0.2-0.1-0.3-0.4-0.5-0.6c-0.5-0.8-1-1.6-1.5-2.4c-0.2-0.3-0.3-0.5-0.4-0.8c-0.4-0.9-0.7-1.8-1.1-2.7c-0.1-0.3-0.2-0.6-0.1-0.9
					c0.1-0.5,0-1,0-1.5c-0.1-0.4-0.1-0.8-0.2-1.1c0-0.4,0-0.7,0.2-1.1c0.1-0.3,0.2-0.5,0.3-0.8c0.2-0.8,0.3-1.6,0.4-2.4
					c0.2-1.5,0.9-2.9,1.6-4.2c0.4-0.7,1.1-1.3,1.7-1.9c0.4-0.4,0.9-0.8,1.4-1.1c0.7-0.5,1.4-1,2.1-1.4c1.6-0.9,3.2-1.5,4.9-2.1
					c0.2-0.1,0.5-0.1,0.7-0.2c1.4-0.2,1.2-0.4,2.9,0.1c1.2,0.4,2.3,0.7,3.5,1.1c1.3,0.5,2.5,1.1,3.6,2.1c0.7,0.7,1.5,1.3,2.2,2.1
					c1.2,1.4,2.1,2.9,2.5,4.6c0.5,2.1,0.7,4.3,0.6,6.4c0,0.6-0.2,1.2-0.5,1.8c-0.4,0.9-0.8,1.9-1.2,2.8c-0.3,0.8-0.6,1.5-1,2.2
					C321.8,415,320.8,416.1,319.6,417z M347.7,405.6C347.7,405.6,347.6,405.6,347.7,405.6c0,1.2-1.2,2.4-2.4,2.4
					c-0.9,0-1.8,0.2-2.8,0.5c0.3,0,0.6,0,0.9,0c0.5,0,1,0,1.6,0c-0.1,0.1-0.1,0.2-0.1,0.2c-0.4,0.2-0.9,0.3-1.3,0.5
					c-0.6,0.2-1.1,0.4-1.6,0.8c-0.2,0.1-0.4,0.2-0.6,0.3c-1.2,0.5-2.4,1-3.6,1.5c-0.2,0.1-0.4,0.1-0.6,0.2c-0.1,0-0.2,0-0.3-0.1
					c-0.8,0.4-1.6,0.7-2.5,0.8c0,0.2-0.1,0.4-0.3,0.5c-0.2,0.1-0.4,0.2-0.6,0.3c-1.5,0.5-2.8,1.1-4.2,1.8c-0.9,0.4-1.8,0.8-2.7,1.2
					c-0.9,0.4-1.8,0.9-2.8,1.3c-0.2,0.1-0.4,0.1-0.6,0.2c0,0-0.1,0-0.1,0c0,0,0-0.1,0-0.1c0.1-0.3,0.4-0.5,0.6-0.8
					c1.3-1.5,2.4-3,3.1-4.9c0.3-1,0.7-2,0.9-3c0-0.3,0.2-0.4,0.5-0.4c0,0,0,0,0,0c-0.1-0.3-0.1-0.5-0.2-0.8c0-0.2,0-0.4,0-0.5
					c-0.2-0.1-0.2-0.3-0.2-0.5c0-0.1,0-0.3,0.1-0.4c0.3-0.6,0.3-1.2,0.2-1.9c-0.1-0.6-0.2-1.2-0.2-1.8c0-0.2,0-0.3,0-0.5
					c0-0.2,0.1-0.4,0.3-0.4c0,0,0,0,0,0c0-0.1-0.1-0.3-0.1-0.4c-0.3-0.5-0.5-1-0.7-1.6c-0.3,0-0.3-0.1-0.5-0.6
					c-0.5-1.6-1.5-2.9-2.6-4.1c-0.7-0.7-1.3-1.5-2-2.3c-0.2-0.2-0.5-0.5-0.8-0.7c-1-0.6-1.9-1.2-2.9-1.8c-0.7-0.4-0.9-0.4-1-0.9
					c-0.4-0.1-0.8-0.2-1.1-0.3c-3.2-0.9-14.7-5.8-43.8-5.5c0.1,0,0.2,0.1,0.2,0.1c0,0,0,0.1,0,0.1c0,0,0,0.1-0.1,0.1
					c-0.4,0.1-0.7,0.1-1.1,0.2c-1.3,0.2-2.5,0.3-3.8,0.4c0,0,0,0,0,0c-1.6,0.2-3.2,0.4-4.8,0.5c-0.3,0-0.5-0.1-0.6-0.4
					c-0.7-1.5-1.5-2.8-2.6-4.1c-0.2-0.2-0.3-0.5-0.5-0.7c-0.3-0.5-0.3-0.7,0.3-0.9c0.9-0.4,1.8-0.8,2.6-1.3c2.3-1.2,4.4-2.5,6.6-3.9
					c0.7-0.5,1.5-1,2.3-1.4c0.1-0.1,0.2-0.1,0.3-0.1c1-0.7,2.1-1.4,3.2-1.9c0,0,0,0,0-0.1c0.1-0.1,0.2-0.2,0.4-0.3
					c1.1-0.7,2.1-1.4,3.2-2.1c1.9-1.2,3.9-2.4,5.8-3.6c1.8-1.1,3.5-2.1,5.3-3.2c0.4-0.3,0.8-0.6,1.3-0.8c0.4-0.2,0.8-0.4,1.1-0.5
					c0.1-0.1,0.3,0,0.4,0.2c0.8-0.6,1.7-1,2.7-1.4c0-0.4,0.1-0.7,0.5-0.8c0.5-0.2,1.1-0.5,1.6-0.8c0.1-0.1,0.3,0.1,0.4,0.2
					c0,0.1,0,0.1,0,0.2c0.4-0.2,0.9-0.5,1.3-0.7c0-0.1,0-0.2,0-0.2c0-0.2,0.1-0.3,0.2-0.4c0.2-0.2,0.5-0.3,0.8-0.5
					c0.6-0.3,1.3-0.6,2-0.9c0.2-0.1,0.4-0.1,0.5,0c0.5-0.3,1-0.6,1.5-0.9c1.2-0.7,2.4-1.5,3.6-2.2c1.7-0.9,3.3-1.5,5.2-1.7l0,0
					c0.1,0,0.1,0,0.2-0.1c0.1,0,0.2,0,0.2,0.1c1,0,2,0.6,2.6,1.3c0.8,0.7,1.1,1.7,1.2,2.7c0,0,0,0,0,0c0-0.5,0-0.2,0,0
					c0.4,0.6,0.7,1.2,1.1,1.8c0.2,0.3,0.4,0.5,0.6,0.8c1.1,1.6,1.8,3.5,2.5,5.3c0.1,0.2,0.2,0.5,0.3,0.7c0.1,0.1,0.3,0.6,0.4,0.7
					c0.3,0.6,0.7,1.1,1.1,1.6c0,0,0,0,0,0.1c0-0.1,0-0.1,0.1-0.1c0.1,0,0.2,0.1,0.3,0.2c1,1.5,2,3,2.9,4.6c0.9,1.5,1.7,3,2.6,4.5
					c0.2,0.3,0.3,0.5,0.4,0.8c0,0.1,0.1,0.2,0.1,0.2c0,0,0.1,0.1,0.1,0.1c1.3,1.6,2.3,3,2.9,4.9c0.1,0.4,0.3,0.8,0.4,1.1
					c0,0,0,0,0,0c0,0,0,0,0-0.1c0,0,0.1,0.1,0.1,0.1c0.1,0.1,0.2,0.2,0.3,0.3c0.2,0.2,0.5,0.5,0.7,0.7c0.5,0.6,0.9,1.2,1.3,1.9
					c0-0.2,0-0.4,0.1-0.6c0.1,0,0.2,0.1,0.3,0.1c0.6,0.9,1.2,1.8,1.8,2.8c0.3,0.5,0.7,1.1,0.9,1.6c0.6,1.3,1.4,2.4,2.1,3.6
					c0.3,0.4,0.5,0.8,0.8,1.2c0.4,0.7,0.9,1.3,1.5,1.9c0.3,0.3,0.5,0.6,0.7,0.9c0.5,0.9,1,1.9,1.5,2.8c0.1,0.2,0,0.4-0.2,0.5
					c1.4,1,2,2.4,2.5,3.8c0,0,0,0,0,0c0.3,0.5,0.5,1,0.8,1.6c0.2,0.3,0.3,0.6,0.4,0.9C348,405.4,347.9,405.6,347.7,405.6z"/>
			</g>
			<g id="XMLID_16_">
				<path id="XMLID_514_" class="st1" d="M310.7,369.6c-0.1,0.1-0.2,0.1-0.3,0.2c0.2,0.1,0.3,0.2,0.5,0.4c0-0.1,0-0.2,0-0.3
					C310.8,369.8,310.7,369.7,310.7,369.6z"/>
			</g>
			<g id="XMLID_15_">
				<path id="XMLID_512_" class="st1" d="M291.5,379.2c0.2,0,0.4,0.1,0.6,0.1c0-0.1,0-0.2,0-0.3
					C291.9,379.1,291.7,379.2,291.5,379.2z"/>
			</g>
		</g>
		<g id="XMLID_13_">
			<circle id="XMLID_315_" class="st0" cx="246.6" cy="123.6" r="11.3"/>
			<path id="XMLID_319_" class="st2" d="M246.6,135.4c-6.5,0-11.8-5.3-11.8-11.8c0-6.5,5.3-11.8,11.8-11.8c6.5,0,11.8,5.3,11.8,11.8
				C258.4,130.1,253.1,135.4,246.6,135.4z M246.6,112.7c-6,0-10.8,4.9-10.8,10.8c0,6,4.9,10.8,10.8,10.8c6,0,10.8-4.9,10.8-10.8
				C257.4,117.6,252.6,112.7,246.6,112.7z"/>
		</g>
		<g id="XMLID_12_">
			<path id="XMLID_316_" class="st2" d="M244.8,119.9h2.3c0.3,0,0.6,0.1,0.9,0.2c0.3,0.1,0.5,0.3,0.7,0.5c0.2,0.2,0.3,0.5,0.4,0.8
				c0.1,0.3,0.1,0.6,0.1,1v0c0,0.4-0.1,0.8-0.2,1.1s-0.3,0.6-0.5,0.8c-0.2,0.2-0.4,0.4-0.7,0.5c-0.3,0.1-0.6,0.2-0.9,0.2H246v2.1
				h-1.2V119.9z M247,123.5c0.3,0,0.5-0.1,0.7-0.3c0.2-0.2,0.3-0.5,0.3-0.8v0c0-0.4-0.1-0.6-0.3-0.8c-0.2-0.2-0.4-0.3-0.7-0.3h-1
				v2.2H247z"/>
		</g>
		<g id="XMLID_11_">
			<circle id="XMLID_250_" class="st0" cx="410.7" cy="289.5" r="11.3"/>
			<path id="XMLID_312_" class="st2" d="M410.7,301.3c-6.5,0-11.8-5.3-11.8-11.8s5.3-11.8,11.8-11.8c6.5,0,11.8,5.3,11.8,11.8
				S417.2,301.3,410.7,301.3z M410.7,278.7c-6,0-10.8,4.9-10.8,10.8s4.9,10.8,10.8,10.8s10.8-4.9,10.8-10.8S416.6,278.7,410.7,278.7
				z"/>
		</g>
		<g id="XMLID_10_">
			<path id="XMLID_309_" class="st2" d="M408.8,285.8h2.3c0.3,0,0.6,0.1,0.9,0.2c0.3,0.1,0.5,0.3,0.7,0.5s0.3,0.5,0.4,0.8
				s0.1,0.6,0.1,1v0c0,0.4-0.1,0.8-0.2,1.1s-0.3,0.6-0.5,0.8s-0.4,0.4-0.7,0.5c-0.3,0.1-0.6,0.2-0.9,0.2h-0.9v2.1h-1.2V285.8z
				 M411,289.4c0.3,0,0.5-0.1,0.7-0.3c0.2-0.2,0.3-0.5,0.3-0.8v0c0-0.4-0.1-0.6-0.3-0.8c-0.2-0.2-0.4-0.3-0.7-0.3h-1v2.2H411z"/>
		</g>
		<g id="XMLID_9_">
			<path id="XMLID_287_" d="M23.8,218.2l6.3-1.3l0.4,2.1L26,220l0.5,2.3l4-0.8l0.4,2.1l-4,0.8l0.8,4.1l-1.8,0.4L23.8,218.2z"/>
			<path id="XMLID_289_" d="M33,216.4l3.8-0.8c1-0.2,1.9,0,2.6,0.6c0.6,0.5,1,1.3,1.2,2.3l0,0c0.2,0.9,0.1,1.6-0.1,2.2
				c-0.2,0.6-0.6,1.1-1,1.4l2.8,3.4l-2.1,0.4l-2.5-3l0,0l-1.4,0.3l0.7,3.4l-1.8,0.4L33,216.4z M37.7,220.8c0.4-0.1,0.8-0.3,1-0.6
				c0.2-0.3,0.2-0.7,0.1-1.2l0,0c-0.1-0.5-0.3-0.9-0.6-1.1c-0.3-0.2-0.7-0.3-1.1-0.2l-1.8,0.4l0.6,3L37.7,220.8z"/>
			<path id="XMLID_292_" d="M45.8,213.7l1.7-0.3l5.7,10l-1.9,0.4l-1.2-2.2l-3.5,0.7l-0.3,2.5l-1.9,0.4L45.8,213.7z M49,219.6
				l-1.8-3.2l-0.4,3.7L49,219.6z"/>
			<path id="XMLID_295_" d="M53.8,212.2l1.7-0.3l5.2,5.7l-1.3-6.5l1.8-0.4l2.1,10.6l-1.6,0.3l-5.4-5.9l1.4,6.7l-1.8,0.4L53.8,212.2z
				"/>
			<path id="XMLID_297_" d="M70.6,220c-0.6,0.1-1.2,0.1-1.8-0.1c-0.6-0.2-1.1-0.5-1.6-0.9c-0.5-0.4-0.9-0.9-1.2-1.6
				c-0.3-0.6-0.6-1.3-0.7-2.1l0,0c-0.2-0.8-0.2-1.5-0.1-2.2c0.1-0.7,0.3-1.3,0.5-1.9c0.3-0.6,0.7-1.1,1.1-1.5c0.5-0.4,1-0.7,1.7-0.8
				c0.4-0.1,0.7-0.1,1.1-0.1c0.3,0,0.6,0.1,0.9,0.2c0.3,0.1,0.6,0.2,0.8,0.4c0.3,0.2,0.5,0.3,0.7,0.5l-0.8,1.9
				c-0.4-0.3-0.8-0.5-1.2-0.7c-0.4-0.1-0.8-0.2-1.2-0.1c-0.3,0.1-0.7,0.2-0.9,0.5c-0.3,0.2-0.5,0.5-0.6,0.9
				c-0.2,0.3-0.2,0.7-0.3,1.2c0,0.4,0,0.9,0.1,1.3l0,0c0.1,0.5,0.2,0.9,0.4,1.3c0.2,0.4,0.4,0.7,0.7,1c0.3,0.3,0.6,0.5,0.9,0.6
				c0.3,0.1,0.7,0.1,1,0.1c0.5-0.1,0.9-0.3,1.1-0.6c0.3-0.3,0.5-0.7,0.8-1.1l1.5,1.3c-0.2,0.3-0.3,0.6-0.5,0.9
				c-0.2,0.3-0.4,0.5-0.6,0.7c-0.2,0.2-0.5,0.4-0.8,0.6C71.3,219.9,71,220,70.6,220z"/>
			<path id="XMLID_299_" d="M74.7,208l6.2-1.3l0.4,2.1l-4.4,0.9l0.4,2.1l3.9-0.8l0.4,2.1l-3.9,0.8l0.4,2.2l4.5-0.9l0.4,2.1l-6.3,1.3
				L74.7,208z"/>
			<path id="XMLID_301_" d="M89.2,216.3c-0.6,0.1-1.3,0.1-1.9,0c-0.7-0.2-1.3-0.5-1.9-0.9l0.7-1.9c0.5,0.3,0.9,0.6,1.4,0.7
				c0.4,0.2,0.9,0.2,1.4,0.1c0.4-0.1,0.7-0.2,0.8-0.4c0.2-0.2,0.2-0.5,0.2-0.8l0,0c0-0.2-0.1-0.3-0.1-0.4c-0.1-0.1-0.2-0.2-0.3-0.3
				c-0.1-0.1-0.3-0.1-0.6-0.2c-0.2-0.1-0.5-0.1-0.9-0.1c-0.4,0-0.9-0.1-1.2-0.2c-0.4-0.1-0.7-0.2-1-0.4c-0.3-0.2-0.5-0.4-0.7-0.8
				c-0.2-0.3-0.4-0.8-0.5-1.3l0,0c-0.1-0.5-0.1-0.9-0.1-1.4s0.2-0.8,0.4-1.1c0.2-0.3,0.5-0.6,0.8-0.8c0.3-0.2,0.7-0.4,1.1-0.5
				c0.6-0.1,1.2-0.1,1.7,0c0.6,0.1,1.1,0.4,1.6,0.7l-0.6,1.9c-0.4-0.2-0.9-0.4-1.2-0.5c-0.4-0.1-0.8-0.1-1.1-0.1s-0.6,0.2-0.7,0.4
				c-0.1,0.2-0.2,0.4-0.1,0.7l0,0c0,0.2,0.1,0.3,0.2,0.4c0.1,0.1,0.2,0.2,0.3,0.3c0.2,0.1,0.4,0.1,0.6,0.2c0.3,0,0.6,0.1,0.9,0.1
				c0.4,0.1,0.9,0.1,1.2,0.3c0.4,0.1,0.7,0.3,1,0.5c0.3,0.2,0.5,0.5,0.7,0.8c0.2,0.3,0.3,0.7,0.4,1.2l0,0c0.1,0.5,0.1,1,0.1,1.4
				c-0.1,0.4-0.2,0.8-0.4,1.2c-0.2,0.3-0.5,0.6-0.8,0.8S89.6,216.2,89.2,216.3z"/>
			<path id="XMLID_303_" d="M103.1,213.5c-0.6,0.1-1.3,0.1-1.9,0c-0.7-0.2-1.3-0.5-1.9-0.9l0.7-1.9c0.5,0.3,0.9,0.6,1.4,0.7
				c0.4,0.2,0.9,0.2,1.4,0.1c0.4-0.1,0.7-0.2,0.8-0.4c0.2-0.2,0.2-0.5,0.2-0.8l0,0c0-0.2-0.1-0.3-0.1-0.4c-0.1-0.1-0.2-0.2-0.3-0.3
				c-0.1-0.1-0.3-0.1-0.6-0.2c-0.2-0.1-0.5-0.1-0.9-0.1c-0.4,0-0.9-0.1-1.2-0.2c-0.4-0.1-0.7-0.2-1-0.4c-0.3-0.2-0.5-0.4-0.7-0.8
				c-0.2-0.3-0.4-0.8-0.5-1.3l0,0c-0.1-0.5-0.1-0.9-0.1-1.4c0.1-0.4,0.2-0.8,0.4-1.1c0.2-0.3,0.5-0.6,0.8-0.8
				c0.3-0.2,0.7-0.4,1.1-0.5c0.6-0.1,1.2-0.1,1.7,0c0.6,0.1,1.1,0.4,1.6,0.7l-0.6,1.9c-0.4-0.2-0.8-0.4-1.2-0.5
				c-0.4-0.1-0.8-0.1-1.1-0.1c-0.4,0.1-0.6,0.2-0.7,0.4c-0.1,0.2-0.2,0.4-0.1,0.7l0,0c0,0.2,0.1,0.3,0.2,0.4
				c0.1,0.1,0.2,0.2,0.3,0.3c0.2,0.1,0.4,0.1,0.6,0.2c0.3,0,0.6,0.1,0.9,0.1c0.4,0.1,0.9,0.1,1.2,0.3c0.4,0.1,0.7,0.3,1,0.5
				c0.3,0.2,0.5,0.5,0.7,0.8c0.2,0.3,0.3,0.7,0.4,1.2l0,0c0.1,0.5,0.1,1,0.1,1.4c-0.1,0.4-0.2,0.8-0.4,1.2c-0.2,0.3-0.5,0.6-0.8,0.8
				C104,213.2,103.6,213.4,103.1,213.5z"/>
			<path id="XMLID_305_" d="M109.4,203.3l-2.5,0.5l-0.4-2.1l6.9-1.4l0.4,2.1l-2.5,0.5l1.7,8.4l-1.8,0.4L109.4,203.3z"/>
			<path id="XMLID_307_" d="M117.5,207.9l1.9-0.4l0.5,2.4l-1.9,0.4L117.5,207.9z"/>
		</g>
		<g id="XMLID_8_">
			<path id="XMLID_268_" d="M95.4,419.7l1.9-0.7l3.7,3.4l0.4-5.1l1.9-0.7l3.9,10.1l-1.7,0.7l-2.6-6.6l-0.5,5.2l0,0l-3.9-3.4l2.6,6.5
				l-1.7,0.7L95.4,419.7z"/>
			<path id="XMLID_270_" d="M106.5,415.4l5.9-2.3l0.8,2l-4.2,1.6l0.8,2l3.7-1.5l0.8,2l-3.7,1.5l0.8,2.1l4.3-1.7l0.8,2l-6,2.3
				L106.5,415.4z"/>
			<path id="XMLID_272_" d="M115.4,411.9l3.6-1.4c1-0.4,1.9-0.3,2.7,0.1c0.7,0.4,1.2,1.1,1.6,2l0,0c0.3,0.8,0.4,1.5,0.3,2.2
				c-0.1,0.6-0.4,1.2-0.8,1.6l3.3,2.8l-2,0.8l-2.9-2.6l0,0l-1.3,0.5l1.3,3.2l-1.7,0.7L115.4,411.9z M120.8,415.4
				c0.4-0.2,0.7-0.4,0.8-0.8c0.1-0.3,0.1-0.7-0.1-1.2l0,0c-0.2-0.5-0.4-0.8-0.8-0.9c-0.3-0.1-0.7-0.1-1.1,0l-1.7,0.7l1.1,2.9
				L120.8,415.4z"/>
			<path id="XMLID_275_" d="M132.6,417c-0.6,0.2-1.2,0.3-1.8,0.2c-0.6-0.1-1.2-0.3-1.7-0.6c-0.5-0.3-1-0.8-1.5-1.3
				c-0.5-0.6-0.8-1.2-1.1-1.9l0,0c-0.3-0.7-0.4-1.4-0.5-2.1c0-0.7,0-1.4,0.2-2c0.2-0.6,0.5-1.2,0.9-1.6c0.4-0.5,0.9-0.8,1.5-1.1
				c0.4-0.1,0.7-0.2,1.1-0.3s0.7,0,1,0c0.3,0,0.6,0.1,0.9,0.2c0.3,0.1,0.6,0.2,0.8,0.4l-0.5,2.1c-0.4-0.2-0.9-0.4-1.3-0.5
				c-0.4-0.1-0.8,0-1.2,0.1c-0.3,0.1-0.6,0.3-0.8,0.6c-0.2,0.3-0.4,0.6-0.5,1c-0.1,0.4-0.1,0.8-0.1,1.2c0,0.4,0.1,0.8,0.3,1.3l0,0
				c0.2,0.4,0.4,0.8,0.6,1.2c0.3,0.3,0.5,0.6,0.9,0.8c0.3,0.2,0.6,0.3,1,0.4c0.3,0.1,0.7,0,1-0.1c0.5-0.2,0.8-0.4,1-0.8
				c0.2-0.3,0.4-0.7,0.6-1.2l1.7,1c-0.1,0.4-0.2,0.7-0.3,1c-0.1,0.3-0.3,0.6-0.5,0.8c-0.2,0.3-0.4,0.5-0.7,0.7
				C133.3,416.7,133,416.8,132.6,417z"/>
			<path id="XMLID_277_" d="M139.1,409.7l-5.4-4.9l2-0.8l3.5,3.3l0.3-4.8l2-0.8l-0.7,7.2l1.6,4l-1.7,0.7L139.1,409.7z"/>
			<path id="XMLID_279_" d="M148.7,398.9l3.6-1.4c1-0.4,1.9-0.3,2.7,0.1c0.7,0.4,1.2,1.1,1.6,2l0,0c0.3,0.8,0.4,1.5,0.3,2.2
				c-0.1,0.6-0.4,1.2-0.8,1.6l3.3,2.8l-2,0.8l-2.9-2.6l0,0l-1.3,0.5l1.3,3.2l-1.7,0.7L148.7,398.9z M154.1,402.4
				c0.4-0.2,0.7-0.4,0.8-0.8c0.1-0.3,0.1-0.7-0.1-1.2l0,0c-0.2-0.5-0.4-0.8-0.8-0.9c-0.3-0.1-0.7-0.1-1.1,0l-1.7,0.7l1.1,2.9
				L154.1,402.4z"/>
			<path id="XMLID_282_" d="M158.2,395.2l3.1-1.2c0.6-0.2,1.2-0.3,1.8-0.3c0.6,0.1,1.2,0.2,1.7,0.5c0.5,0.3,1,0.7,1.5,1.3
				s0.8,1.1,1.1,1.9l0,0c0.3,0.7,0.4,1.4,0.5,2.1c0,0.7,0,1.3-0.2,1.9c-0.2,0.6-0.5,1.1-0.9,1.6c-0.4,0.5-0.9,0.8-1.5,1l-3.1,1.2
				L158.2,395.2z M164.4,402.1c0.4-0.1,0.6-0.3,0.9-0.6c0.2-0.3,0.4-0.6,0.5-0.9s0.1-0.7,0.1-1.1c0-0.4-0.1-0.8-0.3-1.3l0,0
				c-0.2-0.4-0.4-0.8-0.7-1.2c-0.3-0.3-0.5-0.6-0.9-0.8c-0.3-0.2-0.6-0.3-1-0.3c-0.4,0-0.7,0-1.1,0.2l-1.3,0.5l2.4,6.1L164.4,402.1z
				"/>
			<path id="XMLID_285_" d="M171.1,399.1l1.8-0.7l0.9,2.3l-1.8,0.7L171.1,399.1z"/>
		</g>
		<g id="XMLID_7_">
			<path id="XMLID_251_" class="st0" d="M425.1,5.3h5.8c0.9,0,1.6,0.2,2.3,0.5s1.2,0.7,1.7,1.3c0.5,0.6,0.8,1.2,1.1,2
				c0.3,0.8,0.4,1.6,0.4,2.6v0.1c0,1.1-0.1,2-0.4,2.8c-0.3,0.8-0.7,1.5-1.2,2s-1.1,0.9-1.8,1.2c-0.7,0.3-1.4,0.4-2.2,0.4h-2.4v5.5
				h-3.1V5.3z M430.7,14.5c0.8,0,1.4-0.3,1.8-0.8c0.4-0.5,0.7-1.2,0.7-2v-0.1c0-0.9-0.2-1.6-0.7-2.1c-0.5-0.5-1.1-0.7-1.9-0.7h-2.4
				v5.6H430.7z"/>
			<path id="XMLID_254_" class="st0" d="M446,5.1h2.9l6.1,18.3h-3.3l-1.3-4.1h-6l-1.3,4.1h-3.2L446,5.1z M449.3,15.9l-1.9-5.9
				l-1.9,5.9H449.3z"/>
			<path id="XMLID_257_" class="st0" d="M459.7,5.3h6.5c1.8,0,3.2,0.6,4.2,1.8c0.8,1,1.2,2.4,1.2,4.2v0.1c0,1.5-0.3,2.7-0.8,3.6
				s-1.3,1.6-2.2,2l3.5,6.5h-3.7l-3.1-5.8h0h-2.4v5.8h-3.1V5.3z M466,14.1c0.8,0,1.4-0.2,1.8-0.7s0.6-1.1,0.6-1.9v-0.1
				c0-0.9-0.2-1.5-0.7-2c-0.4-0.4-1-0.7-1.8-0.7h-3.1v5.2H466z"/>
			<path id="XMLID_260_" class="st0" d="M476.8,5.3h3.1v8l5.8-8h3.8l-5.8,7.7l6.1,10.5H486l-4.4-7.8l-1.6,2.2v5.6h-3.1V5.3z"/>
			<path id="XMLID_262_" class="st0" d="M494.3,5.3h3.1v18.2h-3.1V5.3z"/>
			<path id="XMLID_264_" class="st0" d="M503.4,5.3h2.9l6.7,11.2V5.3h3.1v18.2h-2.7l-6.9-11.6v11.6h-3.1V5.3z"/>
			<path id="XMLID_266_" class="st0" d="M528.8,23.8c-1.1,0-2.1-0.2-3-0.7s-1.7-1.1-2.4-2c-0.7-0.8-1.2-1.8-1.5-3
				c-0.4-1.1-0.5-2.4-0.5-3.7v-0.1c0-1.3,0.2-2.5,0.6-3.7c0.4-1.1,0.9-2.1,1.6-3s1.5-1.5,2.4-2c0.9-0.5,1.9-0.7,3-0.7
				c0.6,0,1.2,0.1,1.7,0.2c0.5,0.1,1,0.3,1.5,0.5c0.4,0.2,0.9,0.5,1.3,0.8s0.8,0.7,1.1,1.1l-2,3c-0.3-0.3-0.5-0.6-0.8-0.8
				c-0.3-0.2-0.6-0.4-0.8-0.6s-0.6-0.3-0.9-0.4c-0.3-0.1-0.7-0.1-1.1-0.1c-0.6,0-1.1,0.2-1.6,0.5c-0.5,0.3-0.9,0.7-1.3,1.2
				c-0.4,0.5-0.7,1.1-0.9,1.8c-0.2,0.7-0.3,1.4-0.3,2.2v0.1c0,0.8,0.1,1.6,0.3,2.3c0.2,0.7,0.5,1.3,0.9,1.8c0.4,0.5,0.8,0.9,1.4,1.2
				c0.5,0.3,1.1,0.4,1.7,0.4c1.2,0,2.2-0.4,3-1.1v-2.6h-3.2V13h6.2v7.9c-0.7,0.8-1.6,1.5-2.6,2C531.3,23.5,530.1,23.8,528.8,23.8z"
				/>
		</g>
		<g id="XMLID_6_">
			<circle id="XMLID_243_" class="st0" cx="246.6" cy="123.6" r="11.3"/>
			<path id="XMLID_247_" class="st2" d="M246.6,135.4c-6.5,0-11.8-5.3-11.8-11.8c0-6.5,5.3-11.8,11.8-11.8c6.5,0,11.8,5.3,11.8,11.8
				C258.4,130.1,253.1,135.4,246.6,135.4z M246.6,112.7c-6,0-10.8,4.9-10.8,10.8c0,6,4.9,10.8,10.8,10.8c6,0,10.8-4.9,10.8-10.8
				C257.4,117.6,252.6,112.7,246.6,112.7z"/>
		</g>
		<g id="XMLID_5_">
			<path id="XMLID_244_" class="st2" d="M244.8,119.9h2.3c0.3,0,0.6,0.1,0.9,0.2c0.3,0.1,0.5,0.3,0.7,0.5c0.2,0.2,0.3,0.5,0.4,0.8
				c0.1,0.3,0.1,0.6,0.1,1v0c0,0.4-0.1,0.8-0.2,1.1s-0.3,0.6-0.5,0.8c-0.2,0.2-0.4,0.4-0.7,0.5c-0.3,0.1-0.6,0.2-0.9,0.2H246v2.1
				h-1.2V119.9z M247,123.5c0.3,0,0.5-0.1,0.7-0.3c0.2-0.2,0.3-0.5,0.3-0.8v0c0-0.4-0.1-0.6-0.3-0.8c-0.2-0.2-0.4-0.3-0.7-0.3h-1
				v2.2H247z"/>
		</g>
		<g id="XMLID_4_">
			<circle id="XMLID_236_" class="st0" cx="410.7" cy="289.5" r="11.3"/>
			<path id="XMLID_240_" class="st2" d="M410.7,301.3c-6.5,0-11.8-5.3-11.8-11.8s5.3-11.8,11.8-11.8c6.5,0,11.8,5.3,11.8,11.8
				S417.2,301.3,410.7,301.3z M410.7,278.7c-6,0-10.8,4.9-10.8,10.8s4.9,10.8,10.8,10.8s10.8-4.9,10.8-10.8S416.6,278.7,410.7,278.7
				z"/>
		</g>
		<g id="XMLID_3_">
			<path id="XMLID_237_" class="st2" d="M408.8,285.8h2.3c0.3,0,0.6,0.1,0.9,0.2c0.3,0.1,0.5,0.3,0.7,0.5s0.3,0.5,0.4,0.8
				s0.1,0.6,0.1,1v0c0,0.4-0.1,0.8-0.2,1.1s-0.3,0.6-0.5,0.8s-0.4,0.4-0.7,0.5c-0.3,0.1-0.6,0.2-0.9,0.2h-0.9v2.1h-1.2V285.8z
				 M411,289.4c0.3,0,0.5-0.1,0.7-0.3c0.2-0.2,0.3-0.5,0.3-0.8v0c0-0.4-0.1-0.6-0.3-0.8c-0.2-0.2-0.4-0.3-0.7-0.3h-1v2.2H411z"/>
		</g>
	</g>
</g>
</svg>
