<?xml version="1.0" encoding="utf-8"?>
<!-- Generator: Adobe Illustrator 18.1.1, SVG Export Plug-In . SVG Version: 6.00 Build 0)  -->
<svg version="1.1" id="Layer_1" xmlns="http://www.w3.org/2000/svg" xmlns:xlink="http://www.w3.org/1999/xlink" x="0px" y="0px"
	 viewBox="0 0 198.4 122.4" enable-background="new 0 0 198.4 122.4" xml:space="preserve">
<g>
	<g>
		<path fill="#C0A475" d="M18.7,103.9h4v14.6h9v3.6H18.7V103.9z"/>
		<path fill="#C0A475" d="M44.4,122.4c-1.4,0-2.7-0.2-3.8-0.7c-1.2-0.5-2.2-1.2-3-2c-0.8-0.8-1.5-1.8-2-3c-0.5-1.1-0.7-2.4-0.7-3.7
			V113c0-1.3,0.2-2.5,0.7-3.7c0.5-1.1,1.1-2.1,2-3c0.8-0.9,1.9-1.5,3-2c1.2-0.5,2.5-0.7,3.8-0.7c1.4,0,2.7,0.2,3.8,0.7
			c1.2,0.5,2.2,1.2,3,2c0.8,0.8,1.5,1.8,2,3s0.7,2.4,0.7,3.7v0.1c0,1.3-0.2,2.5-0.7,3.7c-0.5,1.1-1.1,2.1-2,3c-0.8,0.9-1.9,1.5-3,2
			C47.1,122.2,45.8,122.4,44.4,122.4z M44.5,118.7c0.8,0,1.5-0.1,2.2-0.4c0.7-0.3,1.2-0.7,1.7-1.2s0.8-1.1,1.1-1.8
			c0.3-0.7,0.4-1.4,0.4-2.2V113c0-0.8-0.1-1.5-0.4-2.2c-0.3-0.7-0.6-1.3-1.1-1.8c-0.5-0.5-1.1-0.9-1.7-1.2c-0.7-0.3-1.4-0.5-2.2-0.5
			c-0.8,0-1.5,0.1-2.2,0.4c-0.7,0.3-1.2,0.7-1.7,1.2c-0.5,0.5-0.8,1.1-1.1,1.8c-0.3,0.7-0.4,1.4-0.4,2.2v0.1c0,0.8,0.1,1.5,0.4,2.2
			c0.3,0.7,0.6,1.3,1.1,1.8c0.5,0.5,1.1,0.9,1.7,1.2C42.9,118.6,43.7,118.7,44.5,118.7z"/>
		<path fill="#C0A475" d="M58.7,103.9h13.5v3.6h-9.6v3.7H71v3.6h-8.5v3.8h9.8v3.6H58.7V103.9z"/>
		<path fill="#C0A475" d="M83.4,122.4c-1.4,0-2.7-0.2-4-0.7c-1.3-0.5-2.5-1.2-3.6-2.2l2.3-2.8c0.8,0.7,1.7,1.2,2.5,1.6
			c0.9,0.4,1.8,0.6,2.8,0.6c0.8,0,1.5-0.2,1.9-0.5c0.5-0.3,0.7-0.7,0.7-1.3v-0.1c0-0.3,0-0.5-0.1-0.7c-0.1-0.2-0.3-0.4-0.5-0.6
			c-0.3-0.2-0.6-0.3-1.1-0.5c-0.5-0.2-1.1-0.4-1.8-0.5c-0.9-0.2-1.7-0.5-2.5-0.8c-0.7-0.3-1.4-0.6-1.9-1c-0.5-0.4-0.9-0.9-1.2-1.5
			c-0.3-0.6-0.4-1.4-0.4-2.3v-0.1c0-0.8,0.2-1.6,0.5-2.3c0.3-0.7,0.7-1.2,1.3-1.7c0.6-0.5,1.2-0.9,2-1.1c0.8-0.3,1.6-0.4,2.5-0.4
			c1.3,0,2.5,0.2,3.6,0.6c1.1,0.4,2.1,1,3,1.7l-2.1,3c-0.8-0.6-1.6-1-2.4-1.3c-0.8-0.3-1.5-0.5-2.3-0.5c-0.8,0-1.3,0.2-1.7,0.5
			c-0.4,0.3-0.6,0.7-0.6,1.1v0.1c0,0.3,0.1,0.6,0.2,0.8c0.1,0.2,0.3,0.4,0.6,0.6c0.3,0.2,0.7,0.3,1.2,0.5c0.5,0.2,1.1,0.3,1.9,0.5
			c0.9,0.2,1.7,0.5,2.4,0.8c0.7,0.3,1.3,0.7,1.8,1.1c0.5,0.4,0.9,0.9,1.1,1.5c0.2,0.6,0.4,1.3,0.4,2.1v0.1c0,0.9-0.2,1.7-0.5,2.4
			c-0.3,0.7-0.8,1.3-1.4,1.8c-0.6,0.5-1.3,0.8-2.1,1.1C85.3,122.2,84.4,122.4,83.4,122.4z"/>
		<path fill="#C0A475" d="M101,122.4c-1.4,0-2.7-0.2-4-0.7c-1.3-0.5-2.5-1.2-3.6-2.2l2.3-2.8c0.8,0.7,1.7,1.2,2.5,1.6
			c0.9,0.4,1.8,0.6,2.8,0.6c0.8,0,1.5-0.2,1.9-0.5c0.5-0.3,0.7-0.7,0.7-1.3v-0.1c0-0.3,0-0.5-0.1-0.7c-0.1-0.2-0.3-0.4-0.5-0.6
			c-0.3-0.2-0.6-0.3-1.1-0.5c-0.5-0.2-1.1-0.4-1.8-0.5c-0.9-0.2-1.7-0.5-2.5-0.8c-0.7-0.3-1.4-0.6-1.9-1c-0.5-0.4-0.9-0.9-1.2-1.5
			c-0.3-0.6-0.4-1.4-0.4-2.3v-0.1c0-0.8,0.2-1.6,0.5-2.3s0.7-1.2,1.3-1.7c0.6-0.5,1.2-0.9,2-1.1c0.8-0.3,1.6-0.4,2.5-0.4
			c1.3,0,2.5,0.2,3.6,0.6c1.1,0.4,2.1,1,3,1.7l-2.1,3c-0.8-0.6-1.6-1-2.4-1.3c-0.8-0.3-1.5-0.5-2.3-0.5c-0.8,0-1.3,0.2-1.7,0.5
			c-0.4,0.3-0.6,0.7-0.6,1.1v0.1c0,0.3,0.1,0.6,0.2,0.8c0.1,0.2,0.3,0.4,0.6,0.6c0.3,0.2,0.7,0.3,1.2,0.5c0.5,0.2,1.1,0.3,1.9,0.5
			c0.9,0.2,1.7,0.5,2.4,0.8c0.7,0.3,1.3,0.7,1.8,1.1c0.5,0.4,0.9,0.9,1.1,1.5c0.3,0.6,0.4,1.3,0.4,2.1v0.1c0,0.9-0.2,1.7-0.5,2.4
			c-0.3,0.7-0.8,1.3-1.4,1.8c-0.6,0.5-1.3,0.8-2.1,1.1C102.9,122.2,102,122.4,101,122.4z"/>
		<path fill="#C0A475" d="M112.2,103.9h13.7v3.6h-9.7v3.9h8.6v3.6h-8.6v7.1h-4V103.9z"/>
		<path fill="#C0A475" d="M130.2,103.9h13.5v3.6h-9.6v3.7h8.5v3.6h-8.5v3.8h9.8v3.6h-13.7V103.9z"/>
		<path fill="#C0A475" d="M155,122.4c-1.4,0-2.7-0.2-4-0.7c-1.3-0.5-2.5-1.2-3.6-2.2l2.3-2.8c0.8,0.7,1.7,1.2,2.5,1.6
			c0.9,0.4,1.8,0.6,2.8,0.6c0.8,0,1.5-0.2,1.9-0.5c0.5-0.3,0.7-0.7,0.7-1.3v-0.1c0-0.3,0-0.5-0.1-0.7c-0.1-0.2-0.3-0.4-0.5-0.6
			c-0.3-0.2-0.6-0.3-1.1-0.5c-0.5-0.2-1.1-0.4-1.8-0.5c-0.9-0.2-1.7-0.5-2.5-0.8c-0.7-0.3-1.4-0.6-1.9-1c-0.5-0.4-0.9-0.9-1.2-1.5
			c-0.3-0.6-0.4-1.4-0.4-2.3v-0.1c0-0.8,0.2-1.6,0.5-2.3c0.3-0.7,0.7-1.2,1.3-1.7c0.6-0.5,1.2-0.9,2-1.1c0.8-0.3,1.6-0.4,2.5-0.4
			c1.3,0,2.5,0.2,3.6,0.6s2.1,1,3,1.7l-2.1,3c-0.8-0.6-1.6-1-2.4-1.3c-0.8-0.3-1.5-0.5-2.3-0.5c-0.8,0-1.3,0.2-1.7,0.5
			c-0.4,0.3-0.6,0.7-0.6,1.1v0.1c0,0.3,0.1,0.6,0.2,0.8c0.1,0.2,0.3,0.4,0.6,0.6c0.3,0.2,0.7,0.3,1.2,0.5c0.5,0.2,1.1,0.3,1.9,0.5
			c0.9,0.2,1.7,0.5,2.4,0.8c0.7,0.3,1.3,0.7,1.8,1.1c0.5,0.4,0.9,0.9,1.1,1.5c0.3,0.6,0.4,1.3,0.4,2.1v0.1c0,0.9-0.2,1.7-0.5,2.4
			c-0.3,0.7-0.8,1.3-1.4,1.8s-1.3,0.8-2.1,1.1C156.8,122.2,155.9,122.4,155,122.4z"/>
		<path fill="#C0A475" d="M170.3,107.6h-5.5v-3.7h14.9v3.7h-5.5v14.5h-4V107.6z"/>
	</g>
	<g>
		<g>
			<g>
				<g>
					<path fill="#C0A475" d="M8.1,20.9c0.9,0.6,1.7,1.3,2.5,1.8c0.9,0.6,1.1,0.6,2-0.1c0.7-0.6,1.4-1.1,2.1-1.7
						c0.3-0.2,0.7-0.5,1-0.7c0.3-0.1,0.8,0.1,0.9,0.4c0.1,0.3,0.2,0.7,0.2,1c0,2.1,0.3,5.3,0.8,7.4c0.2,0.6-0.1,0.9-0.6,1.1
						c-0.4,0.1-0.9-0.1-1-0.5c-0.1-0.4-0.1-0.8-0.2-1.2c0-1.6-0.5-4.2-0.6-5.9c-0.4,0.2-0.7,0.2-0.9,0.4c-0.7,0.6-1.4,1.3-2.1,1.9
						c-1,0.9-1.3,0.9-2.2,0c-0.5-0.5-0.9-1-1.5-1.6c-0.1,0.3-0.2,0.5-0.2,0.7c0.1,1.4,0.3,4,0.4,5.4c0.1,0.6,0.1,0.6-0.4,1.5
						C7.3,30.6,6.9,30.1,7,29c0.1-1.1,0-3.3,0-4.4c0-0.8,0-1.6-0.3-2.4c-0.3-0.8,0-1.1,0.8-1.3C7.7,20.9,7.9,20.9,8.1,20.9z"/>
					<path fill="#C0A475" d="M32.5,24.7c-0.2-1.5-0.4-2.9-0.5-4.3c-0.1-0.6-0.1-1.2-0.1-1.8c0-0.2,0.2-0.4,0.4-0.4
						c0.3-0.2,0.5,0,0.7,0.3c0.1,0.2,0.3,0.5,0.3,0.8c0.2,2.2,0.5,4.3,0.7,6.5c0,0.5,0,1.1-0.1,1.6c0,0.3-0.6,0.5-0.8,0.3
						c-0.2-0.1-0.4-0.2-0.5-0.4c-1.5-1.7-3.4-2.9-5.1-4.4c-0.1-0.1-0.2,0-0.4,0c-0.1,0.1-0.2,0.2-0.2,0.3c0.1,1.4,0.1,2.7,0.2,4.1
						c0,0.7-0.1,1.1-0.5,1.1c-0.5,0.1-1-0.4-1-1c-0.1-0.8-0.1-1.6-0.2-2.4c-0.1-1.4-0.2-2.9-0.5-4.3c-0.1-0.3,0-0.7,0.4-0.9
						c0.3-0.2,0.6-0.2,0.9,0c0.1,0.1,0.2,0.1,0.3,0.2c1.4,1.6,3.2,2.8,4.7,4.2c0.3,0.2,0.5,0.5,0.8,0.6C32,24.8,32.2,24.7,32.5,24.7
						z"/>
					<path fill="#C0A475" d="M38.8,28.7c-0.8,0.3-1.2,0.2-1.3-0.5c0-0.2,0-0.4-0.1-0.6c-0.2-2-0.8-5.2-1-7.3
						c-0.1-0.6,0.2-1.1,0.6-1.2c0.5-0.1,1,0.4,1,1C38.1,22.7,38.6,26.3,38.8,28.7z"/>
					<path fill="#C0A475" d="M22.2,28.4c-1.1,0.5-1.5,0.3-1.6-0.5c-0.1-1.5-0.1-3-0.2-4.5c-0.1-1-0.3-2-0.4-3c0-0.2,0.2-0.4,0.3-0.5
						c0.2-0.1,0.6-0.1,0.7,0c0.2,0.1,0.3,0.4,0.4,0.7c0.2,2,0.3,4.1,0.5,6.1C22,27.2,22.1,27.7,22.2,28.4z"/>
				</g>
			</g>
		</g>
		<g>
			<g>
				<path fill="none" d="M78.7,35.8c0.2,2.7,2.4,4.9,5.2,4.8c3.8-0.1,8.6-0.9,11.4-1.7c1.1-0.3,1.8-1.2,2-2.3
					c0.5-4.2-0.7-11.8-0.7-13.6c0-0.7-1.5-3.1-2.3-3.1c-4.6-0.4-9.4,0.7-14.1,1.7c-1.1,0.2-1.7,1.7-1.8,4.3
					C78.2,27.7,78.5,32.4,78.7,35.8z"/>
				<path fill="none" d="M109.2,69.3c-0.9-3.7-3.5-5.8-6.9-6.9c-1.8-0.5-3.7-0.8-5.5-0.9c-8.5-0.3-16.6,1.4-24.7,3.7
					c-3,0.8-4.5,2.8-4.8,5.6c-0.4,3.8-0.5,7.6-0.4,11.3c0.1,3.3,0.7,2.9,3.4,2.9c0.4,0,0.9-0.2,1.5-0.3c0.1-0.9,0.1-1.7,0.1-2.6
					c0.1-4.8,1.5-9,5.5-12c2.8-2.1,5.9-3.3,9.3-4.1c9-2.1,18.6,3.7,21.6,12.5c0.4,1.1,0.8,2.2,1.2,3.2c2.4-0.2,2.5-0.2,2.1-2.3
					C110.9,76.1,110.1,72.7,109.2,69.3z"/>
				<path fill="none" d="M103.8,34.7c0,2.5,0.7,3.6,3.2,4.1c0.1,0,0.4,0,0.7,0c5.1-0.2,10.2-0.4,15.3-0.6c1.5-0.1,3.9-2.1,3.8-3.7
					c-0.2-4.5-0.4-9-0.8-13.5c-0.2-2.1-1.4-2.9-3.5-2.8c-4.1,0.3-8.2,0.7-12.3,1c-1.3,0.1-2.6,0.2-3.9,0.4c-2,0.3-2.7,1.3-2.7,3.4
					C103.6,27,103.8,30.8,103.8,34.7z"/>
				<path fill="none" d="M133.1,5.3c-13.6-0.6-23.9,0-23.9,0l-7,1.1c10.7-0.7,21.3-1.5,32.2-1.1C133.9,5.4,133.5,5.3,133.1,5.3z"/>
				<path fill="none" d="M113.4,73.5c0.5,2.3,0.9,4.2,1.3,6.1c6.5,0.3,12.6,0.3,18.9-0.2c0-2,0-3.7,0-5.8
					C126.8,73.3,120.2,73.2,113.4,73.5z"/>
				<path fill="none" d="M177.6,21.7c0.3,0.8,0.5,1.3,0.7,1.9c2.5,7.2,5.5,14.3,7.2,21.8c0.5,1.9,1.5,3.2,3.1,4
					c0.5,0.3,1.1,0.6,2,1.1c-1.3-10.6-2.5-20.8-6.4-30.5C181.9,20.2,179.6,20.3,177.6,21.7z"/>
				<path fill="none" d="M175.4,70.6c-1.8-2-3.8-3.7-5.6-5.6c-2.3-2.5-5.2-3.3-8.5-3c-4.6,0.4-9.1,0.8-13.7,1.4
					c-2.7,0.4-5.3,1.1-8,1.8c-1.6,0.4-2.3,1.4-2.8,3c-0.9,2.9-1,5.8-0.9,8.7c0.1,1.2,0.2,2.4,0.3,3.8c1.2,0.1,2.2,0.2,3.2,0.3
					c0.5-1.9,0.9-3.6,1.4-5.1c1.3-3.4,3.1-6.5,6.3-8.4c2.7-1.6,5.8-2.3,8.9-2.5c5-0.2,9.6,1.4,13.9,4.1c0.6,0.4,1.2,1.1,1.5,1.7
					c0.7,1.6,1.2,3.2,1.7,4.8c0.3,1.1,0.8,1.8,2,1.8c1.8,0,3-1.4,2.3-3.3C177,72.9,176.3,71.7,175.4,70.6z"/>
				<path fill="#F0594A" d="M162.8,7.4c0-0.8,0-1.6,0.1-2.4c0-1.6-0.4-2.3-1.9-2.8c-1.2-0.4-2.5-0.9-3.8-1
					C152,0.7,146.9,0.4,141.8,0c-1.3-0.1-2.6,0-3.9,0.2c-1.8,0.3-2,0.7-1.7,2.6c0.1,0.8,0.1,1.6,0.2,2.7c-0.7,0,22.5,1.5,22.5,1.5
					L162.8,7.4z"/>
				<path fill="#F0594A" d="M102.2,6.5c-0.2-1.2-0.3-2.2-0.4-3.2c-0.2-1.5-0.9-2.2-2.3-2.4c-0.7-0.1-1.4-0.1-2.1,0
					C91.9,1.6,86.4,2.2,81,3c-1.3,0.2-2.6,0.6-3.9,0.9c-1.2,0.3-2.1,0.9-2.6,1.9c0.3,1.8,0.6,3.4,1,5.1c-0.2,0-0.4,0.1-0.5,0.1l0,0
					C82.5,10.3,102.2,6.5,102.2,6.5z"/>
				<path fill="#C0A475" d="M198.4,67.7c0.2-2.8-0.8-3.9-3.6-4.8c-0.6-5.4-1.1-10.8-1.7-16.2c-1.2-10.9-3.6-21.4-7.5-31.6
					c-0.3-0.8-1-1.5-1.8-2c-1-0.6-2.1-1-3.2-1.3c-4-1.1-8.1-2.2-12.1-3.3c-1.8-0.5-3.6-0.7-5.7-1.1c0,0,0,0,0,0l-4-0.4
					c0,0-11.4-1-24.4-1.6c-10.9-0.4-21.5,0.4-32.2,1.1c0,0-19.7,3.8-27.2,4.5l0,0c-0.6,0.1-1.1,0.2-1.6,0.3
					c-6.5,1.4-13.1,2.8-19.6,4.2c-1.1,0.2-2.1,0.6-3.1,1.1c-2.2,1-2.7,2-2.6,4.4c0.1,2,1.2,3.7,2.1,5.4c1.1,2,2.2,3.9,2.6,6.4
					c0.4,2.5,2.3,28,2.3,28c0.5,4.3,1,8.4,1.4,12.5c0.2,1.5-0.1,2.8-1.7,3.7c-3.3,2-4.4,7-2.7,10.5c0.5,1.1,1.4,1.7,2.6,1.6
					c1.1,0,2.2-0.2,3.2-0.3c1.5-0.2,2.9-0.6,4.4-0.7c3.2-0.3,6.3-0.4,9.5-0.6c1.8-0.1,2.1-0.5,2-2.3c-0.1-1.8-0.1-3.6,0.1-5.3
					c0.4-3,1.7-5.7,4.2-7.5c5.1-3.7,10.6-5.4,16.8-3.4c5.2,1.7,8.8,5.1,10.3,10.5c0.3,1.1,0.6,2.2,0.9,3.4c0.2,0.9,0.8,1.5,1.7,1.7
					c2.2,0.5,4.2,0.2,5.9-1.2c0.9-0.8,1.8-1,2.9-1c4.3,0,8.7-0.1,13,0c1.5,0,3.1-0.1,4.4,1.1c0.3,0.3,1,0.3,1.5,0.3
					c1.1,0,2.2-0.2,3.2-0.2c1.3,0,2-0.7,2.4-1.8c0.5-1.5,0.9-3,1.4-4.4c1.3-3.7,3.3-6.8,7.2-8.3c4.7-1.8,9.3-1.4,13.9,0.1
					c4.1,1.3,6.4,3.9,6.8,8.2c0.1,0.7,0.4,1.5,0.6,2.1c3.4,1.1,3.4,1.1,6.7,0.7c0.4-0.1,0.8-0.1,1.2,0c4.7,0.2,9.3,0.2,13.9-0.5
					c2.7-0.4,3.8-1.1,4.3-3.8C197.9,73,198.2,70.4,198.4,67.7z M106.3,19.7c1.3-0.2,2.6-0.3,3.9-0.4c4.1-0.4,8.2-0.7,12.3-1
					c2.1-0.2,3.4,0.6,3.5,2.8c0.4,4.5,0.6,9,0.8,13.5c0.1,1.6-2.3,3.7-3.8,3.7c-5.1,0.2-10.2,0.4-15.3,0.6c-0.3,0-0.6,0-0.7,0
					c-2.5-0.5-3.2-1.6-3.2-4.1c0-3.9-0.1-7.7-0.2-11.6C103.6,21,104.4,20,106.3,19.7z M80.1,21.6c4.7-1,9.5-2.1,14.1-1.7
					c0.7,0.1,2.3,2.4,2.3,3.1c0,1.8,1.2,9.4,0.7,13.6c-0.1,1.1-0.9,2-2,2.3c-2.8,0.8-7.6,1.6-11.4,1.7c-2.7,0.1-5-2.1-5.2-4.8
					c-0.2-3.5-0.4-8.2-0.3-9.9C78.5,23.3,79.1,21.9,80.1,21.6z M109.5,81.8c-0.4-1-0.8-2.1-1.2-3.2c-3.1-8.7-12.6-14.6-21.6-12.5
					c-3.4,0.8-6.5,2-9.3,4.1c-4,3.1-5.4,7.2-5.5,12c0,0.8-0.1,1.7-0.1,2.6c-0.6,0.1-1.1,0.3-1.5,0.3c-2.7,0-3.4,0.4-3.4-2.9
					c-0.1-3.8,0-7.6,0.4-11.3c0.3-2.8,1.9-4.8,4.8-5.6c8.1-2.3,16.3-4.1,24.7-3.7c1.8,0.1,3.7,0.3,5.5,0.9c3.4,1.1,6,3.2,6.9,6.9
					c0.8,3.4,1.7,6.8,2.4,10.2C112,81.5,111.9,81.6,109.5,81.8z M114.6,79.6c-0.4-1.9-0.8-3.8-1.3-6.1c6.9-0.2,13.4-0.2,20.1,0.1
					c0,2,0,3.8,0,5.8C127.3,79.9,121.1,79.9,114.6,79.6z M175.3,77.6c-1.2,0-1.7-0.7-2-1.8c-0.5-1.6-1-3.3-1.7-4.8
					c-0.3-0.7-0.9-1.3-1.5-1.7c-4.2-2.7-8.8-4.3-13.9-4.1c-3.1,0.1-6.2,0.9-8.9,2.5c-3.2,1.9-5.1,5-6.3,8.4
					c-0.6,1.5-0.9,3.1-1.4,5.1c-1.1-0.1-2-0.2-3.2-0.3c-0.1-1.4-0.2-2.6-0.3-3.8c-0.2-3,0-5.9,0.9-8.7c0.5-1.6,1.3-2.7,2.8-3
					c2.6-0.6,5.3-1.4,8-1.8c4.5-0.6,9.1-1,13.7-1.4c3.3-0.3,6.1,0.6,8.5,3c1.8,1.9,3.8,3.7,5.6,5.6c0.9,1,1.7,2.3,2.1,3.6
					C178.2,76.1,177.1,77.6,175.3,77.6z M188.6,49.5c-1.6-0.9-2.6-2.1-3.1-4c-1.8-7.5-4.7-14.6-7.2-21.8c-0.2-0.6-0.4-1.2-0.7-1.9
					c2-1.4,4.3-1.5,6.7-1.6c3.8,9.7,5.1,19.8,6.4,30.5C189.7,50.1,189.2,49.8,188.6,49.5z"/>
			</g>
			<path fill="#F0594A" d="M109.2,69.3c-0.9-3.7-3.5-5.8-6.9-6.9c-1.8-0.5-3.7-0.8-5.5-0.9c-8.5-0.3-16.6,1.4-24.7,3.7
				c-3,0.8-4.5,2.8-4.8,5.6c-0.4,3.8-0.5,7.6-0.4,11.3c0.1,3.3,0.7,2.9,3.4,2.9c0.4,0,0.9-0.2,1.5-0.3c0.1-0.9,0.1-1.7,0.1-2.6
				c0.1-4.8,1.5-9,5.5-12c2.8-2.1,5.9-3.3,9.3-4.1c9-2.1,18.6,3.7,21.6,12.5c0.4,1.1,0.8,2.2,1.2,3.2c2.4-0.2,2.5-0.2,2.1-2.3
				C110.9,76.1,110.1,72.7,109.2,69.3z"/>
			<path fill="none" d="M178.3,23.6c2.5,7.2,5.5,14.3,7.2,21.8c0.5,1.9,1.5,3.2,3.1,4c0.5,0.3,1.1,0.6,2,1.1
				c-1.3-10.6-2.5-20.8-6.4-30.5c-2.4,0.1-4.7,0.2-6.7,1.6C177.9,22.5,178.1,23,178.3,23.6z"/>
			<path fill="#F0594A" d="M113.4,73.5c0.5,2.3,0.9,4.2,1.3,6.1c6.5,0.3,12.6,0.3,18.9-0.2c0-2,0-3.7,0-5.8
				C126.8,73.3,120.2,73.2,113.4,73.5z"/>
			<path fill="#F0594A" d="M175.4,70.6c-1.8-2-3.8-3.7-5.6-5.6c-2.3-2.5-5.2-3.3-8.5-3c-4.6,0.4-9.1,0.8-13.7,1.4
				c-2.7,0.4-5.3,1.1-8,1.8c-1.6,0.4-2.3,1.4-2.8,3c-0.9,2.9-1,5.8-0.9,8.7c0.1,1.2,0.2,2.4,0.3,3.8c1.2,0.1,2.2,0.2,3.2,0.3
				c0.5-1.9,0.9-3.6,1.4-5.1c1.3-3.4,3.1-6.5,6.3-8.4c2.7-1.6,5.8-2.3,8.9-2.5c5-0.2,9.6,1.4,13.9,4.1c0.6,0.4,1.2,1.1,1.5,1.7
				c0.7,1.6,1.2,3.2,1.7,4.8c0.3,1.1,0.8,1.8,2,1.8c1.8,0,3-1.4,2.3-3.3C177,72.9,176.3,71.7,175.4,70.6z"/>
			<path fill="#1D1D1B" d="M157.7,54.2c1.1-0.7,2.3-1.4,3.4-2.1c1.8-1.1,2-1.8,1.3-3.7c-0.8-2.1-1.6-4.1-2.4-6.1
				c-0.3-0.9-0.6-1.8-1.1-3.2c0.8,0.4,1.1,0.4,1.3,0.6c1.7,2.2,1.9,2.2,4.5,1.2c0.6,1,1,2.1,1.7,3c0.9,1.2,2.2,0.6,3.5,0.5
				c0.4,0.7,0.8,1.4,1.3,2.1c1.4,2.1,3.9,2.1,5.3,0.1c0.5-0.7,0.3-1.5,0-2.2c-0.9-1.9-1.9-3.8-2.8-5.7c-1.6-3.1-3.1-6.2-4.7-9.3
				c-0.9-1.8-1.5-2-3.4-1.5c-2.3,0.6-4.6,1.2-7.2,1.9c-0.1-1.7-0.3-3.2-0.4-5c0.9-0.2,1.7-0.4,2.6-0.6c1-0.3,2.1-0.5,3-0.9
				c1-0.4,1.2-1.3,0.5-2c-2.4-2.3-4.6-4.9-8.4-4.9c-1.2,0-2.5-0.4-3.7-0.7c-1-0.3-1.6,0-2,1c-0.9,1.9-1.8,3.7-2.8,5.5
				c-0.4,0.8-0.9,1.6-1.4,2.3c-0.5,0.7-0.6,1.2,0,1.9c1.1,1.2,2.1,2.5,3.2,3.7c0.3,0.4,0.6,0.9,0.8,1.6c-0.6-0.2-1.3-0.4-1.8-0.7
				c-2.2-1.1-4.3-2.1-6.4-3.3c-1.8-0.9-2.8-0.7-3.8,1.1c-2.4,4.2-4.8,8.3-7.2,12.5c-1.2,2-2.3,4.1-3.4,6.1c-0.7,1.3-0.1,2.6,1.6,3.5
				c1.3,0.7,2.2,0.5,3-0.8c0.4-0.7,0.8-1.5,1.2-2.3c1.1,0.3,2.2,0.7,3.3,0.9c1.4,0.3,1.7,0.1,2.2-1.3c0.5-1.4,1.1-2.7,1.7-4.2
				c1.1,0.3,2,0.6,2.9,0.8c1.8,0.4,2,0.3,2.6-1.5c0.1-0.2,0.2-0.4,0.3-0.6c0-0.1,0.1-0.1,0.4-0.3c0,0.6,0.1,1,0,1.4
				c-0.6,2-1,4-1.8,5.9c-0.9,2.2,0.3,3.6,2.1,4.4c0,0,5.9,1.7,6.3,1.9c0.4,0.2,1.4,1.4,2.1,0.8S157.7,54.2,157.7,54.2z"/>
			<path fill="#F0594A" d="M93.9,71.9c5.7,1.1,8.9,4.8,10.6,9.9c0.7,2,0.3,4.1-0.4,5.9c-3.2,7.9-13,11.3-20.4,6.5
				c-1.7-1.1-3.2-2.5-4.5-4c-2.1-2.6-2.6-5.5-1.2-8.7c2-4.7,5.3-8.1,10.3-9.3C90,71.7,92,72,93.9,71.9z"/>
			<path fill="#F0594A" d="M169.6,84.1c-0.8,3.6-2.3,6-4.5,8.1c-1.3,1.2-2.8,1.8-4.6,1.9c-1.5,0.1-3.1,0.3-4.6,0.4
				c-4.2,0.5-8.9-1.9-10.9-5.6c-1.7-3.1-1.4-6.3,0.1-9.4c3.2-6.9,12.6-10.7,20-6.6c1.5,0.8,2.7,2.3,3.9,3.6c0.5,0.5,0.8,1.4,0.8,2.1
				C169.7,80.7,169.6,82.7,169.6,84.1z"/>
			<g>
				<g>
					<path fill="#F0594A" d="M85,48.1c4-3.3,7.6-6.8,9-12.1c0.5-2,0.3-3.5-1-5c-0.5-0.6-1-1.1-1.6-1.7c-2.2-2.1-4.4-4.1-6.8-6.3
						c-1.3,0.9-2.8,1.8-4.2,2.7c-3.4,2.2-6.8,4.3-10.9,5.1C64,31.9,58.3,32,52.7,32.3c-6,0.3-11.9,0.1-17.9,0.1
						c-9-0.1-17.8,0.7-26.6,2.8c-2.8,0.6-5.5,1.4-8.2,3c0.5,0.4,0.7,0.6,1,0.8c2.1,1.4,4.3,2.8,6.3,4.3c2,1.4,2.7,3.2,1.5,5
						c-2.5,3.7-3.3,8-4.4,12.2c-0.2,0.8-0.2,1.6-0.2,2.7c0.9-0.3,1.4-0.5,1.8-0.7c6-2.5,12-4.9,18.4-5.6c9.6-1.1,19.3-1.9,29-2.6
						c6.6-0.5,13.2-0.4,19.7-1.7C77.3,51.7,81.5,50.9,85,48.1z"/>
				</g>
				<path fill="#1D1D1B" d="M29.8,43.7c-1.3,1.3-2.1,2.2-3,3c-2,1.8-3,1.7-5,0c-1-0.9-2.1-1.7-3.4-2.7c-0.9,2.1,0,3.9,0,5.7
					c0,1.8,0.2,3.6,0.3,5.3c-0.4,0.4-0.8,0.7-1.2,0.9c-1.4,0.8-2.7,0.1-2.8-1.4c-0.2-2-0.3-4-0.5-6c-0.3-3.1-0.7-6.2-1.2-9.2
					c-0.1-0.8-0.2-1.5,0.6-2c0.7-0.5,1.4-0.5,2.2,0.1c1,0.7,2.1,1.4,3.1,2.1c1,0.7,2,1.4,3.1,2.1c1.7,1,1.8,1,3.2-0.4
					c1.8-1.8,3.4-3.8,5.2-5.6c0.5-0.5,1.5-1.2,2.1-1.1c1.1,0.2,1.7,1.3,1.5,2.3c-0.8,4.7,0.7,9.1,1.8,13.5c0.1,0.5,0.2,1.1,0.2,1.6
					c0,1.1-0.8,1.7-1.9,1.2c-0.6-0.2-1.1-0.6-1.7-0.8c-0.9-0.3-1.3-0.9-1.5-1.8C30.6,48.4,30.2,46.4,29.8,43.7z"/>
				<path fill="#1D1D1B" d="M80.9,40.4c-2.4,1-4.5,1.8-6.7,2.7c0.3,2,0.6,3.9,0.9,6.1c-1.1,0-2,0.2-2.8,0c-1.1-0.2-1.6-0.9-1.8-2.1
					c-0.5-3.8-1.1-7.5-1.7-11.2c-0.3-2-0.4-2,1.4-2.8c2.3-1.1,4.6-2.2,6.9-3.4c1.4-0.7,2.5-0.5,3.4,0.8c0.5,0.7,0.9,1.5,1.2,2.2
					c1.3,3.2,2.5,6.3,3.7,9.5c0.7,1.7,0.6,2.6-0.5,3c-1,0.4-2.2-0.3-2.8-1.8C81.7,42.6,81.4,41.6,80.9,40.4z M72.2,37
					c0.3,1.1,0.6,2,1,3.3c2.2-1.1,4.4-1.4,6.2-3.1c-0.6-1-1.1-1.9-1.7-2.9C75.8,35.2,74.2,36,72.2,37z"/>
				<path fill="#1D1D1B" d="M47.7,44.6c-2.2,0.3-4,0.6-6.1,0.8c0,1.9,0,3.7-0.1,5.4c0,0.6-0.5,1.2-0.7,1.8c-0.6-0.3-1.4-0.5-1.9-1
					c-0.7-0.7-1-1.6-1-2.7c0-3.4,0-6.8-0.1-10.2c0-1.7,0.4-2.5,2-2.8c2.4-0.5,4.9-1,7.3-1.3c2.1-0.3,3.2,0.9,3.4,3.2
					c0.2,3.2,0.4,6.3,0.6,9.5c0.1,0.8,0.3,1.7,0.4,2.5c0.2,1.3-0.3,2-1.2,2.1c-1,0.1-2-0.7-2.2-1.7c-0.1-0.4,0-0.8,0-1.2
					C48.1,47.7,47.9,46.4,47.7,44.6z M42,42.4c1.9-0.3,3.6-0.6,5.3-0.8c0.4-2.7-0.2-3.2-2.4-2.7c-0.5,0.1-1,0.3-1.5,0.5
					C41.6,40,41.6,40.1,42,42.4z"/>
				<path fill="#1D1D1B" d="M57.2,41.6c1.8-0.2,3.3-0.3,5-0.5c-0.2-1.7-0.3-3.1-0.5-4.6c-0.1-0.5-0.2-0.9-0.2-1.4
					c0-1.1,0.7-1.7,1.7-1.9c1-0.3,1.4,0.5,1.8,1.1c0.2,0.5,0.3,1,0.4,1.6c0.4,4.1,0.7,8.2,1.1,12.3c0.1,0.9,0.4,2-1,2.3
					c-1,0.2-3-1.3-3-2.4c-0.1-1.1,0-2.3,0-3.7c-1.7,0.3-3.1,0.6-4.8,0.9c0.1,1.3,0.3,2.5,0.4,3.7c0.1,1.4-0.3,2.2-1.2,2.3
					c-1.1,0.1-2.2-0.9-2.3-2.2c-0.2-2.2-0.3-4.3-0.5-6.5c-0.2-2.1-0.5-4.2-0.8-6.2c-0.1-0.9-0.2-1.7,0.9-2c1.1-0.3,2.3,0.4,2.5,1.5
					c0.1,0.6,0,1.2,0.1,1.9C56.8,38.9,57,40.1,57.2,41.6z"/>
			</g>
		</g>
	</g>
</g>
</svg>
