<?xml version="1.0" encoding="utf-8"?>
<!-- Generator: Adobe Illustrator 18.1.1, SVG Export Plug-In . SVG Version: 6.00 Build 0)  -->
<svg version="1.1" id="Layer_1" xmlns="http://www.w3.org/2000/svg" xmlns:xlink="http://www.w3.org/1999/xlink" x="0px" y="0px"
	 viewBox="0 0 473.4 78.5" enable-background="new 0 0 473.4 78.5" xml:space="preserve">
<g>
	<path d="M288.1,48.4c-0.1-0.3-0.1-0.6-0.2-1.1c-0.3,0.1-0.5,0.2-0.8,0.3c-0.8,0-1.3-0.4-1.6-1.2c-0.8-2-1.6-3.9-2.1-5.9
		c-0.3-1.2-0.8-2.5-1.2-3.7c-0.1-0.5-0.3-0.9-0.4-1.4c-0.5-1.9-1-3.9-1.5-5.8c-0.4-1.6-0.9-3.2-1.3-4.8c-0.1-0.5-0.3-1-0.6-1.7
		c-0.3,1-0.3,1.8-0.4,2.6c-0.2,3.1-0.4,6.3-0.5,9.4c-0.1,3.2-0.1,6.4-0.3,9.6c-0.2,3-0.1,6-0.2,9c-0.1,2.7-0.3,5.4-0.4,8.2
		c-0.1,2.1,0,4.3-0.1,6.4c0,0.3,0,0.7,0,1c-0.1,0.9-0.4,1.6-1.2,1.9c-0.8,0-0.9-0.8-1.3-1.2c-0.4,0.3-0.8,0.7-1.3,1
		c-0.6-0.2-1.2-0.4-1.8-0.6c-0.3-0.4-0.6-0.9-0.9-1.3c-0.2,0.1-0.3,0.2-0.4,0.3c-0.4,0.4-0.8,0.7-1.4,0.4c-0.6-0.3-0.9-0.8-0.8-1.5
		c0-0.2,0.1-0.4,0.1-0.6c0.2-0.7,0.2-1.5,0.3-2.3c0.1-1.7,0.2-3.4,0.3-5.1c0.1-3.3,0.3-6.6,0.4-9.9c0.1-2.4,0.2-4.8,0.2-7.2
		c0.1-3.1,0.2-6.1,0.3-9.2c0.1-2,0.2-4.1,0.3-6.1c0.1-1.2,0.2-2.5,0.2-3.7c0.1-1.6,0.1-3.2,0.3-4.8c0.3-2.6,0.3-5.3,0.8-8
		c0.2-0.9,0.3-1.8,0.6-2.7c0.2-0.8,0.7-1.5,1.3-2c0.2-0.2,0.5-0.3,0.8-0.3c0.4,0,0.8,0,1.2,0c1.2-1,2.6-1.2,4.1-1.6
		c0.3,0.2,0.7,0.5,1.2,0.8c0.7,0,1.6-0.1,2.2,0.7c1.4,3.5,2.5,7.1,3.5,10.7c1,3.5,1.9,7,2.8,10.5c0.7,3.2,1.7,6.2,2.6,9.4
		c0.4,0,0.4-0.2,0.5-0.4c1-2.5,1.9-5,2.9-7.5c0.7-1.7,1.5-3.4,2.5-4.9c0.6-0.9,1.1-2,1.6-3c0.8-1.4,1.7-2.9,2.6-4.3
		c0.6-1.1,1.3-2.1,2-3.1c0.6-0.9,1.2-1.9,2-2.6c0.4-0.3,0.7-0.6,1.1-0.9c0.3,0,0.6,0.1,0.9,0.1c0.1,0,0.2-0.1,0.2-0.1
		c0.5-0.5,0.8-1.2,0.9-1.9c0.2-1,0.5-2,0.7-3.1c0.2-0.8,0.6-1.4,1.3-1.9c0.3,0.1,0.6,0.3,1,0.5c0.8-1,2.1-1.3,3.1-2.3
		c0.2,0.2,0.4,0.4,0.5,0.6c0.2,0.5,0.5,0.9,0.7,1.4c0.4-0.2,0.7-0.5,1.1-0.7c0.3,0.1,0.5,0.2,0.7,0.3c0.5,0.9,0.6,1.8,0.5,2.8
		c-0.1,1.4-0.3,2.8-0.6,4.2c-0.3,1.3-0.4,2.6-0.6,4c-0.3,2.1-0.5,4.3-0.7,6.4c-0.1,0.7-0.2,1.4-0.3,2.1c-0.3,3.2-0.7,6.4-1,9.5
		c-0.3,3.1-0.6,6.2-0.8,9.3c-0.2,1.7-0.3,3.4-0.4,5.1c-0.3,3.3-0.6,6.6-0.8,9.9c-0.2,2-0.3,4-0.4,6c-0.1,1.9-0.2,3.8-0.3,5.7
		c0,0.3,0,0.7,0,1c0.1,0.7-0.3,1.3-0.7,1.8c-0.2,0.3-0.6,0.3-1.1-0.1c-0.3-0.6,0.2-1.2-0.4-1.8c-0.6,0.4-0.6,1.2-1.1,1.6
		c-0.7,0.4-1.3,0.3-1.8-0.3c-0.2-0.3-0.4-0.6-0.7-0.9c-0.2-0.3-0.4-0.6-0.7-1c-0.4,0.4-0.6,1.1-1.3,1.1c-0.3-0.7-0.4-1-0.4-1.6
		c0-0.5,0.1-0.9,0.1-1.4c0.1-1.3,0.3-2.6,0.4-3.8c0-0.5,0-1.1-0.3-1.6c-0.2-0.4-0.1-0.9-0.1-1.4c0.1-1.7,0.3-3.4,0.4-5.1
		c0.1-0.8,0.1-1.5,0.1-2.3c0.2-3.1,0.4-6.2,0.6-9.3c0.1-1.3,0-2.6,0.3-3.8c0.2-0.8,0.2-1.6,0.1-2.4c-0.1-0.5,0.1-1.1,0.2-1.7
		c0.1-0.4,0.3-0.9,0.2-1.3c-0.3-2.6,0.3-5.2,0.4-7.8c0-0.1,0-0.3,0-0.4c-0.3-0.1-0.3,0.1-0.4,0.3c-1.2,2.3-2.4,4.6-3.5,6.9
		c-1.2,2.6-2.3,5.3-3.5,8c-0.6,1.4-1.2,2.8-1.8,4.2c-0.5,1.3-0.9,2.7-1.5,4c-0.5,1.2-0.8,2.6-1.6,3.6c-0.4,0.3-0.8,0.3-1.2,0.1
		c0-0.5,0-0.9-0.1-1.4c-0.9,0-1.1,0.8-1.7,1.1c-0.4-0.1-0.9-0.2-1.3-0.3c-0.6-0.4-0.7-0.9-1-1.5c-0.2-0.5-0.1-0.9,0.1-1.4
		c0.1-0.3,0.3-0.6,0-1C288.6,48.2,288.3,48.3,288.1,48.4L288.1,48.4z M284.9,37.7L284.9,37.7L284.9,37.7L284.9,37.7L284.9,37.7z
		 M272.9,17.1c-0.1,0.2-0.3,0.4,0,0.7C272.8,17.5,272.8,17.2,272.9,17.1c0.3-0.2,0.2-0.5,0.1-0.9C272.9,16.5,272.9,16.8,272.9,17.1z
		 M293,38.6c0.2-0.1,0.4-0.2,0-0.5C293,38.3,293,38.5,293,38.6c-0.3,0.2-0.5,0.5-0.5,1C293,39.4,292.9,39,293,38.6z M310.5,56.4
		c-0.3,0.2-0.3,0.5,0,1C310.4,56.9,310.4,56.6,310.5,56.4c0.1-0.2,0.2-0.4,0.3-0.6c0.1-0.5,0.1-1,0.2-1.5c0-0.2-0.1-0.3-0.3-0.3
		c-0.2,0.4-0.3,0.8-0.2,1.2C310.4,55.5,310.4,56,310.5,56.4z M271.1,52.3c-0.1,0.2-0.2,0.4-0.2,0.7c0,1.1-0.1,2.2-0.1,3.3
		c0,0.1,0.1,0.2,0.2,0.7c0.1-1.6,0.2-2.8,0.2-4.1C271.3,52.7,271.2,52.5,271.1,52.3c0.1-0.2,0.2-0.4,0.2-0.6c0-1.2,0-2.5,0.1-3.7
		c0-0.8,0.1-1.5,0.1-2.3c0.1-1.3,0.2-2.6,0.2-3.9c0-1.3-0.1-2.6,0-3.9c0.1-1.4,0.2-2.9,0.3-4.3c0-0.5,0-1,0.1-1.6
		c0.1-1.3,0.1-2.7,0.2-4c0-0.2,0-0.5-0.2-0.6c-0.1,0.1-0.2,0.1-0.2,0.2c-0.1,0.8-0.3,1.6-0.3,2.4c0,0.6,0,1.1-0.2,1.7
		c-0.1,0.3-0.1,0.7-0.1,1c-0.1,1.9,0,3.8,0.2,5.7c0,0.4,0,0.9-0.1,1.3c-0.4,1.7-0.4,3.5-0.3,5.2c0.1,1.6,0,3.2-0.1,4.9
		C270.9,50.7,270.8,51.5,271.1,52.3z M309.5,25.1c-0.2,0.2-0.3,0.3-0.4,0.5c-0.1,0.6-0.2,1.2-0.3,1.8c-0.2,1.7-0.4,3.5-0.6,5.2
		c-0.1,1.4-0.3,2.8-0.4,4.3c0,1.7-0.2,3.3-0.5,5c-0.2,1-0.3,2-0.3,3c0,0.5,0,1-0.1,1.6c-0.1,1.2-0.2,2.4-0.4,3.5
		c-0.1,0.9-0.2,1.8-0.3,2.7c-0.2,1.7-0.3,3.4-0.5,5.1c0,0.3,0,0.6,0.4,0.7c0.1-0.3,0.2-0.5,0.3-0.8c0.2-2.5,0.4-5,0.6-7.6
		c0.1-1.6,0.1-3.1,0.3-4.7c0.3-2.5,0.6-5,0.7-7.5c0-0.4,0.1-0.8,0.1-1.1c0.1-1.2,0.3-2.4,0.4-3.5c0.2-2.2,0.3-4.3,0.5-6.5
		C309.3,26.3,309.4,25.8,309.5,25.1z M310.6,53.1c0.1,0,0.2,0,0.2,0c0-0.1,0.1-0.3,0.1-0.4c0-1.8,0.2-3.6,0.5-5.4
		c0.1-0.7,0.3-1.3,0.3-2c0-0.5-0.1-1,0-1.6c0.1-0.5-0.1-1,0.3-1.5c0.1-0.1,0-0.3,0-0.4c-0.2-0.4,0-0.8,0-1.3
		c0.1-0.8,0.4-1.7,0.2-2.5c-0.1-0.4,0-1,0.2-1.4c0.2-0.4,0.2-0.7,0.3-1.1c0.2-1,0-2.1,0.2-3.1c0-0.1,0-0.3,0-0.4
		c-0.1-1.3-0.1-2.6,0.2-3.9c0.1-0.3,0-0.6-0.3-0.8c-0.1,1.2-0.3,2.3-0.4,3.4c-0.1,0.8-0.1,1.6-0.2,2.4c-0.1,1.3-0.2,2.7-0.4,4
		c-0.1,0.7-0.2,1.3-0.2,2c0,0.5-0.1,0.9-0.1,1.4c0,0.3,0,0.6-0.1,0.8c-0.1,0.7-0.2,1.3-0.2,2c-0.1,1.6-0.2,3.2-0.4,4.8
		c-0.1,1.5-0.3,2.9-0.4,4.4C310.5,52.7,310.6,52.9,310.6,53.1z M306.1,59.1c0,0.3,0,0.5,0,0.8c-0.4,2.3-0.3,4.6-0.6,6.9
		c0,0.2,0,0.5,0.4,0.6c0.1-0.9,0.1-1.9,0.2-2.8c0.1-0.9,0.3-1.8,0.2-2.7C306.1,60.9,306.7,60,306.1,59.1z M272.1,26.5
		c0.1-0.3,0.2-0.4,0.2-0.6c0.1-1.2,0.2-2.4,0.3-3.6c0.1-0.7,0.1-1.4,0.2-2.1c0.1-0.6,0.2-1.1-0.1-1.9c-0.4,2-0.4,3.7-0.6,5.5
		C272,24.6,271.9,25.5,272.1,26.5z M270.8,59.6c0,0-0.1,0-0.1,0c0,0.6-0.1,1.2-0.1,1.8c0,0.6,0,1.2,0.1,1.8c0,0,0.1,0,0.1,0
		C270.8,62,270.8,60.8,270.8,59.6z M275.1,57.4c0.1-0.4,0.2-0.7,0.2-1c0-0.7-0.1-1.4-0.1-2.1c0,0-0.1-0.1-0.2-0.2
		C275.1,55.2,274.7,56.2,275.1,57.4z M313.4,23.7c-0.3,1-0.4,1.2,0,2C313.4,25,313.4,24.5,313.4,23.7z M309.7,20.4
		c-0.1,0.8-0.2,1.3,0.1,1.9C309.7,21.7,310.1,21.1,309.7,20.4z M313.8,19.2c0.3-0.4,0.3-0.4,0.1-1.1
		C313.9,18.5,313.8,18.8,313.8,19.2C313.8,19.2,313.8,19.2,313.8,19.2z M275.4,47.7C275.3,47.7,275.3,47.7,275.4,47.7
		c-0.1,0.4-0.1,0.8-0.1,1.2c0,0,0,0,0.1,0C275.4,48.5,275.4,48.1,275.4,47.7z M310.1,60.4c0,0-0.1,0-0.1,0c0,0.3,0,0.7,0,1
		c0,0,0.1,0.1,0.2,0.1C310.1,61.1,310.1,60.8,310.1,60.4z M313.4,22.9c0.2-0.5,0.2-0.5,0-0.8C313.4,22.3,313.4,22.6,313.4,22.9z
		 M270.8,58.3c0.3-0.4,0.3-0.4,0-0.7C270.9,57.8,270.6,58,270.8,58.3z M309.5,23.3c-0.2,0.3-0.2,0.5,0,0.9
		C309.5,23.8,309.5,23.5,309.5,23.3z M313.8,20c0,0-0.1,0-0.1,0c0,0.2,0,0.4,0,0.6c0,0,0.1,0,0.1,0C313.8,20.4,313.8,20.2,313.8,20z
		 M275.4,46.4c0,0-0.1,0-0.1,0c0,0.2,0,0.3,0,0.5c0,0,0.1,0,0.1,0C275.4,46.8,275.4,46.6,275.4,46.4z M275.3,44.4c0,0,0.1,0,0.1,0
		c0-0.2,0-0.4,0-0.6c0,0-0.1,0-0.1,0C275.3,43.9,275.3,44.1,275.3,44.4z M275.7,35.5c0,0-0.1,0-0.1,0c0,0.2,0,0.4,0,0.6
		c0,0,0.1,0,0.1,0C275.7,35.9,275.7,35.7,275.7,35.5z M275.4,42.6C275.4,42.6,275.3,42.6,275.4,42.6c-0.1,0.1-0.1,0.2-0.1,0.3
		c0,0,0.1,0,0.1,0C275.4,42.8,275.4,42.7,275.4,42.6z M284.5,36.7C284.5,36.7,284.6,36.6,284.5,36.7c0.1-0.1,0-0.2,0-0.2
		c0,0-0.1,0.1-0.1,0.1C284.5,36.6,284.5,36.7,284.5,36.7z M271,58.8L271,58.8L271,58.8L271,58.8z"/>
	<path d="M9,22c0-0.2,0-0.4,0.1-0.6c0.6-2.4,1.2-4.8,1.9-7.1c0.5-1.7,1.2-3.4,1.8-5c0.5-1.5,1.1-2.9,1.6-4.4
		c0.2-0.7,0.4-1.5,0.5-2.3c1.3-1.1,2.8-1.8,4.5-2.1c0.2,0,0.3-0.1,0.5,0c1.5,0.5,2.9-0.2,4.4-0.4c1,0.3,1.6,1.5,2.8,1.2
		C27.7,1.6,28,2,28,2.5c0.1,1.3,0.7,2.5,1.1,3.7c1.3,3.8,2.6,7.6,3.9,11.4c0.6,1.7,1.2,3.3,1.8,5c0.2,0.5,0.5,1.1,0.7,1.6
		c0.7-0.1,0.8-0.8,1.3-1c0,0,0.1,0.1,0.1,0.1c0,0-0.1,0-0.1,0c0.8-2,2-3.7,3-5.5c0.8-1.4,1.9-2.6,2.5-4.1c0.2-0.4,0.5-0.8,0.8-1.2
		c0.8-1.1,1.1-2.3,1.5-3.5c0.4-0.5,0.8-1,1.4-1.6c1-0.3,2-0.6,3.1-0.8c0.8-0.1,1.6,0,2.3,0c1.2,0,2.4,0.3,3.4-0.6
		c0.5,0.8,1,1.6,1.6,2.4c0.2-0.1,0.3-0.2,0.5-0.3c0.1-0.1,0.3-0.2,0.4-0.2c0.5,0.1,0.7,0.5,0.6,0.8c-0.5,1.9-0.1,3.9-0.3,5.8
		c-0.1,1,0,1.9-0.1,2.9c-0.3,4-0.2,8.1-0.3,12.1c0,1.3-0.1,2.7-0.1,4c0,1,0,2,0,3.1c0,3.8,0,7.7,0,11.5c0,3,0.1,6,0.2,9.1
		c0,1.6,0.1,3.1,0.2,4.7c0.2,2.6,0.4,5.3,0.7,7.9c0.1,0.9,0.3,1.7,0.4,2.5c0.1,0.7,0.2,1.5,0,2.2c-0.1,0.4-0.3,0.7-0.7,0.9
		c-0.2,0.1-0.4,0-0.6,0.1c-0.5-0.6,0-1.4-0.7-1.9c-0.7,0.4-0.9,1.2-1.4,1.8c-0.7,0.3-1.3,0.1-2-0.2c-0.7-0.4-0.5-1.3-1.2-1.7
		c-0.2,0.5-0.4,0.9-0.6,1.4c-1.6,0.1-3.1,0.4-4.4-0.9c0-1,0-2-0.1-3.1c0-0.1,0-0.2,0-0.3c-0.6-1.6-0.3-3.4-0.9-5
		c-0.1-0.1-0.3-0.2-0.5-0.3c0.1-0.5-0.3-1.1,0.2-1.6c0,0,0.1,0.1,0.1,0.1c0,0-0.1,0-0.1-0.1c0-0.2-0.2-0.5-0.1-0.6
		c0.6-0.8,0.3-1.4-0.2-1.8c0-0.5,0-0.8,0-1.3c0,0,0.2-0.2,0.3-0.4c-0.1-0.4-0.1-0.8-0.2-1.2c0-0.2-0.3-0.4-0.2-0.6
		c0.1-0.5-0.2-1.1,0.2-1.5c-0.3-0.5-0.5-1.1-0.4-1.7c0-0.5,0-1.1,0-1.6c0-0.5,0-1.1,0-1.6c0.3,0.1,0.6,0.5,0.7-0.2
		c-0.2-0.3-0.4-0.7-0.6-1c0.3-0.5,0.5-0.9,0.8-1.4c-0.3-1.1-0.6-2.1-0.4-3.2c0.2-0.8,0-1.6,0-2.4c0-0.4-0.6-0.6-0.3-1
		c0.3-0.4-0.1-0.6-0.1-0.8c-0.1-0.6,0-1.3,0-1.9c0,0,0.1,0,0.1,0c0,0,0,0.1,0,0.2c0.1,0.1,0.1,0.3,0.2,0.5c0.2-1.6,0.2-1.6-0.2-2.2
		c0.1-0.5,0.3-0.9,0.4-1.4c-0.2,0-0.4,0-0.6,0c0-0.9,0-1.9,0-2.8c0.2-0.2,0.4-0.4,0.5-0.6c-0.2-0.4-0.4-0.7-0.5-1
		c-0.1-0.3-0.1-0.7-0.1-1.1c-0.1,0-0.2,0-0.2,0c0,0-0.1,0-0.1,0.1c-0.8,1.6-1.5,3.2-2.3,4.8c-1.1,2.5-2.2,5-3.3,7.6
		c-0.4,0.4-0.9,0.4-1.4,0.4c-0.2-0.2-0.4-0.4-0.6-0.6c-0.1,0-0.2,0-0.3,0.1c-0.4,0.2-0.7,0.4-1.1,0.7c-0.9,0.5-2.3,0.3-2.9-0.7
		c-0.1-0.1-0.2-0.3-0.3-0.4c-0.1-0.1-0.2-0.1-0.3-0.2c-0.1,0.1-0.3,0.1-0.4,0.2c-0.4,0.5-1,0.7-1.6,0.6c-0.7,0-1.4-0.3-1.8-0.9
		c-0.3-0.4-0.4-0.9-0.2-1.3c0.2-0.4,0.6-0.8,0.6-1.4c-0.2-0.2-0.5-0.5-0.9-1C28.1,37.9,28,37,27.7,36c-0.7-2.1-1.5-4.3-2.3-6.4
		c-1.1-3.1-2.3-6.2-3.4-9.2c-0.1-0.2-0.2-0.3-0.4-0.7c-0.2,0.7-0.4,1.3-0.5,1.8c-0.7,3.1-1.3,6.1-1.9,9.2
		c-1.1,5.5-2.1,11.1-3.2,16.7c-0.4,2.2-0.9,4.4-1.4,6.6c-0.4,1.7-1,3.4-1.6,5.1c-0.3,0.8-0.8,1.4-1.7,1.5c-0.4-0.1-0.5-0.4-0.5-0.7
		c0-0.3,0-0.6-0.1-1c-0.7,0.4-0.7,1.2-1.5,1.7c-0.6,0.2-1.4,0.1-2.2-0.2c-0.3-0.4-0.6-0.8-0.9-1.3c-0.4,0.3-0.8,0.6-1.2,0.9
		c-1.9,0-3.6-0.4-4.8-2.2c0.4-0.4,0.7-0.8,1.2-1.3c0.1-0.3,0.1-0.7,0.2-1.1c0.7-0.6,1.3-1.3,1-2.3c0.3-0.6,0.2-1.1,0.3-1.7
		c0.1-0.6,0.3-1.1,0.7-1.6c0.3-0.3,0.5-0.7,0.5-1.1c0.3-1.3,0.6-2.5,0.8-3.8c0.1-0.3,0.2-0.5,0.2-0.8c-0.5-1-0.6-1.9,0.4-2.7
		c0.4-0.3,0.3-0.4,0.4-1.4c-0.1-0.1-0.2-0.2-0.4-0.3c0.1-1.1,0.3-2.2,1.1-3c-0.1-0.3-0.1-0.6-0.2-0.9c0.1-0.2,0.3-0.5,0.5-0.8
		c0-0.1,0-0.3,0-0.5c-0.5-1.4,0.2-2.8,0.4-4.1c0.7-0.5,0.8-1.3,1-2.1c-0.1-0.1-0.2-0.3-0.4-0.6c-0.1-1.3,0.4-2.6,1.2-3.8
		C9.2,23.1,8.6,22.5,9,22c0.1,0,0.1,0,0.1,0.1C9.1,22,9.1,22,9,22z M10.7,41.1c0.1-0.1,0.1-0.2,0.1-0.1C10.7,40.9,10.7,41,10.7,41.1
		c0,0.1-0.1,0.2,0,0.1C10.6,41.3,10.6,41.2,10.7,41.1z M17.5,28.5c0.3-0.3,0.3-0.6,0-1.2C17.5,27.8,17.5,28.1,17.5,28.5
		c-0.4,0.7-0.5,1.5-0.6,2.4C17.4,30,17.4,29.2,17.5,28.5z M33.3,22.3c0.1,1.4,0.7,2.7,1.5,4.1c0.2-1.3-0.6-2-0.9-3
		C33.8,22.9,33.7,22.5,33.3,22.3c0-0.3,0-0.5-0.4-0.6c0.2-0.5,0-0.9-0.2-1.4c-0.5-1.3-0.9-2.5-1.3-3.8c-0.9-3.1-2-6.2-3.3-9.2
		c0-0.1-0.2-0.2-0.5-0.4c0.4,1.6,0.8,3,1.3,4.3c0.2,0.4,0.4,0.9,0.5,1.3c0.9,3,2.1,5.9,3.1,8.8c0,0.1,0.2,0.2,0.3,0.3
		C33,21.9,32.9,22.2,33.3,22.3z M56.1,68.9c0.1,0,0.1,0,0.2,0c0-0.3,0-0.6,0.1-0.9c0.1-1-0.3-2-0.3-3c0-1.5,0-3,0-4.5
		c0-0.5,0-1.1-0.1-1.6c-0.1-0.7-0.1-1.5-0.2-2.2c-0.2-1.3,0.1-2.6,0-3.9c-0.1-0.7-0.1-1.4-0.1-2.1c0-1.4,0-2.8,0.1-4.2
		c0.1-1.6,0.1-3.2,0.2-4.8c0-0.8,0.1-1.6-0.1-2.4c-0.1-0.3-0.2-0.7-0.1-0.9c0.4-0.9,0.2-1.8,0.2-2.7c0.1-2.5,0.2-5,0.2-7.6
		c0.1-4.3,0-8.6,0.3-12.9c0-0.6,0-1.3,0.1-1.9c0.1-1.2,0.1-1.4-0.4-2.7c-0.1,0.4-0.3,0.8-0.3,1.1c-0.2,2-0.4,4.1-0.4,6.1
		c-0.1,2.6-0.1,5.3-0.2,7.9c-0.2,3.7-0.2,7.3-0.2,11c0,4.5,0.1,9.1,0.1,13.6c0,3.3,0.1,6.7,0.3,10c0.1,1.3,0.2,2.6,0.3,3.9
		C55.7,65.6,55.9,67.2,56.1,68.9z M51.6,66.5c0.1-1,0.1-1.6,0-2.2c-0.1-0.7-0.2-1.4-0.2-2.1c0.1-2.3-0.1-4.5-0.1-6.8
		c-0.1-4.3-0.1-8.5-0.1-12.8c0-4.8,0-9.7,0-14.5c0-0.5-0.1-0.9-0.1-1.4c-0.2,0.4-0.2,0.7-0.2,1.1c0,2.9-0.2,5.8-0.2,8.7
		c0,1.6-0.1,3.1-0.1,4.7c0,3-0.1,5.9,0,8.9c0,2.9,0.2,5.7,0.2,8.6c0,0.9,0,1.7,0.1,2.6c0.1,1.5,0.2,3,0.4,4.5
		C51.2,65.9,51.4,66,51.6,66.5z M51.3,66.9c-0.1,1.1,0.1,2.5,0.6,3.2c0-1.1-0.1-2.1-0.3-3.1C51.6,67,51.4,67,51.3,66.9z M51.1,24.5
		c0-0.7,0-1.3,0-1.9c-0.2,0.5-0.2,1.1-0.2,1.6C50.9,24.3,51,24.4,51.1,24.5z M20.1,16.7c0,0.3-0.1,0.6-0.1,0.9c0,0.3-0.3,0.5,0,0.9
		C20.4,17.9,20.3,17.3,20.1,16.7z M18.9,21.9c0.5-0.2,0.5-0.6,0.6-0.8c0.1-0.2,0.1-0.5,0.1-0.8C19.1,20.7,19,21.2,18.9,21.9z
		 M12.4,31.6C12.4,31.6,12.4,31.6,12.4,31.6c0-0.2,0-0.4,0-0.6c0,0,0,0,0,0C12.4,31.2,12.4,31.4,12.4,31.6z M45.8,33.9
		c0,0-0.1,0-0.1,0c0,0.2,0,0.3,0,0.5c0,0,0.1,0,0.1,0C45.8,34.2,45.8,34.1,45.8,33.9z M50.9,25.9C51,25.9,51,25.9,50.9,25.9
		c0.1-0.1,0.1-0.3,0.1-0.4c0,0-0.1,0-0.1,0C50.9,25.7,50.9,25.8,50.9,25.9z M14.8,20.8c0,0,0-0.1,0-0.1c0,0.1-0.1,0.1-0.1,0.2
		c0,0,0,0.1,0,0.1C14.7,20.9,14.7,20.9,14.8,20.8z M12.8,29.5c0,0,0-0.1,0-0.1c0,0,0,0-0.1,0C12.7,29.4,12.7,29.4,12.8,29.5
		C12.7,29.5,12.8,29.5,12.8,29.5z M45.8,31.4l-0.1-0.1l-0.1,0.1L45.8,31.4z M11.1,38C11.2,38,11.2,38,11.1,38
		c0.1-0.1,0.1-0.1,0.1-0.2c-0.1,0-0.1,0-0.2,0C11.1,37.9,11.1,37.9,11.1,38z"/>
	<path d="M187.7,53c0.4-0.5,0.4-1.1,0.3-1.7c-0.3-1.7,0.1-3.3,0.2-5c0.4-0.2,0.7-0.4,1-0.5c0.5,0.1,1,0.2,1.5,0.3
		c0.7,1.1,0.8,2.5,1.1,3.8c0.2-0.5,0.5-0.8,0.6-1.2c0.2-0.4,0.3-0.9,0.4-1.4c0.1-0.4,0.2-0.8,0.3-1.2c0.5,0,0.5,0.4,0.5,0.7
		c0.1,1.2,0.1,2.4,0.2,3.5c0.3,2.8,1.2,5.5,2.7,7.9c0.3,0.5,0.6,1,1.1,1.3c0.1,0,0.2,0,0.2-0.1c1-1.2,2.1-2.3,3-3.6
		c0.9-1.3,1.2-2.7,1.6-4.2c0.1-0.5,0.2-0.9,0.5-1.3c0.6-0.7,0.7-1.5,0.6-2.4c-0.3-4-2-7.3-4.9-10c-2.7-2.5-5.8-4.4-9.4-5.6
		c-0.4-0.1-0.8-0.3-1.2-0.5c-0.7-0.3-1.4-0.6-2.1-0.9c-2.2-0.7-4.3-1.7-6.4-2.6c-1.1-0.5-1.9-1.3-2.3-2.6c-0.1-0.5-0.3-0.9-0.4-1.3
		c0.1-1.3,0.2-2.5,0.2-3.6c0-0.6,0.1-1.3,0.2-1.9c0.1-0.5,0.2-1,0.4-1.5c0.3-1,0.6-1.9,1-2.9c0.6-1.6,1.7-2.8,2.5-4.3
		c0.2-0.5,0.7-0.8,1.1-1.1c2.8-2.8,6.3-4.2,10.2-4.7c0.3,0,0.6,0.1,1,0.1c1.1,0.1,2.1,0.2,3.2-0.1c0.7-0.2,1.5-0.1,2.2,0.1
		c1.6,0.4,3.2,1,4.6,1.8c0.3,0.2,0.7,0.4,0.9,0.6c2.3,2.1,4.2,4.5,5.4,7.4c0.1,0.2,0.2,0.4,0.3,0.5c0.4,0.3,0.7,0.3,1.1,0.1
		c0.9-0.3,1.8-0.6,2.7-0.9c0.6-0.2,1.1-0.3,1.7-0.4c0.5-0.1,0.9-0.2,1.4-0.4c0.3-0.1,0.6-0.2,0.9-0.3c1.3-0.1,2.6-0.7,3.9-1
		c1-0.2,2-0.5,2.4-1.5c0.6-0.1,1.1-0.2,1.5-0.3c0.1,0,0.2-0.1,0.3-0.1c0.9,0.6,1.8-0.1,2.6-0.1c0.6,0,1.1-0.4,1.7-0.1
		c0.1,0.1,0.3,0,0.5,0c0.9-0.2,1.9-0.3,2.8-0.6c2-0.6,4.1-0.9,6.1-1.4c1.1-0.2,2.2-0.6,3.3-0.9c1.3-0.4,2.6-0.8,3.9-1
		c0.8-0.1,1.5-0.4,2.4-0.3c1.2,0.2,1.2,0.1,2.3,0.7c0.2,0,0.4,0,0.6-0.1c0.2,0,0.4-0.1,0.6-0.2c0.3,0.2,0.6,0.4,0.9,0.4
		c0.3,0.1,0.6,0.1,0.9,0.1c0,0.9-0.5,1.5-1.2,1.9c-1.8,1-3.7,1.7-5.7,2.2c-1.6,0.5-3.2,1-4.8,1.4c-2.7,0.8-5.5,1.5-8.3,2.3
		c-0.4,0.1-0.8,0.3-1.3,0.4c-0.1,0.4-0.2,0.7-0.2,1.1c-0.1,1.9-0.1,3.9-0.1,5.8c0,1.4-0.1,2.8-0.2,4.2c0,1.3-0.1,2.7-0.1,4
		c-0.2,2.9-0.3,5.8-0.5,8.7c0,0.3-0.1,0.5-0.1,0.8c-0.2,4-0.5,8.1-0.4,12.1c0,1.4,0,2.9,0.3,4.3c0.2,1.4,0.1,2.8,0.1,4.2
		c-0.4,0.5-0.8,1-1.3,1.5c-0.1,0.1-0.2,0.1-0.4,0.1c-0.7-0.4-0.8-1.1-0.9-2.1c-0.4,0.5-0.7,0.9-1.1,1.3c-0.6,0.1-1.1,0.1-1.6,0.2
		c-0.6-0.4-1.4-0.5-1.8-1.2c-0.8,0-1.5,0.1-2.1,0c-0.7-0.1-1.4-0.2-1.9-0.6c-0.5-0.8-0.4-1.7-0.2-2.4c0.4-1.4,0.3-2.9,0.3-4.3
		c0-1.6-0.1-3.1-0.2-4.7c0-0.6,0-1.3,0.1-1.9c0.2-2.2,0.3-4.5,0.3-6.7c0-0.6,0.1-1.2,0.2-1.8c-0.1-0.1-0.2-0.2-0.4-0.4
		c0-0.5,0-1,0.1-1.6c0.2-0.8,0.2-1.6,0.1-2.4c-0.1-0.8,0-1.6,0.2-2.4c0.2-0.7,0.2-1.5,0.2-2.2c-0.1-1.2,0-2.4,0.4-3.5
		c0.3-0.9,0.3-1.8,0.4-2.7c0-1.1-0.1-2.1,0.1-3.2c0-0.2-0.1-0.4-0.1-0.7c-0.3,0-0.7-0.1-0.9,0c-0.5,0.1-0.9,0.3-1.3,0.5
		c-0.8,0.4-1.5,0.5-2.2,0c-1,0.2-1.9,0.4-2.6,0.6c-1.1-0.2-1.7-0.7-2.1-1.5c-0.9,0.1-1.7,1-2.6,0.1c-0.1,0.4-0.2,0.7-0.2,0.8
		c0.2,1-0.1,1.9-0.2,2.9c-0.1,0.8-0.4,1.4-1,1.9c-0.8-0.2-1.3-0.6-1.7-1.1c-0.5,0.4-0.9,0.7-1.4,1.1c-0.6-0.1-1.2-0.1-1.8-0.2
		c-0.4-0.4-0.8-0.9-1.2-1.4c-0.5,0.2-1.1,0.5-1.8,0.2c-0.5-1-1.1-2-1.3-3.2c0-0.3-0.2-0.5-0.3-0.7c-0.3-0.9-0.7-1.7-1-2.6
		c-0.5-1.8-1.5-3.3-2.7-4.7c-0.2-0.3-0.6-0.5-0.9-0.7c-0.3,0.2-0.7,0.3-1,0.5c-1.8,1.3-3,3.1-4,5c-0.8,1.5-1.4,3-1.8,4.6
		c-0.3,1.3-0.6,2.6-0.6,4c0,0.9,0.4,1.5,1.2,2c1.5,0.9,3.1,1.5,4.7,2c1.6,0.5,3.1,1.1,4.5,2.1c0.6,0.4,1.3,0.6,2,1
		c0.3,0.2,0.6,0.3,0.8,0.5c0.6,0.6,1.2,1,2,1.3c0.2,0.1,0.4,0.3,0.6,0.5c0.2,0.1,0.2,0.4,0.4,0.5c0.9,0.8,1.8,1.5,2.7,2.3
		c0.4,1.1,1.1,1.9,1.7,2.9c0.3,0.6,0.6,1.1,1,1.7c0.3,0.4,0.6,0.9,0.9,1.3c0,0-0.1,0-0.1,0.1c0,0,0-0.1,0-0.1
		c0.3,0.3,0.3,0.6,0.2,0.9c-0.1,1.1,0.2,2.1,0.8,3c0.1,0.1,0.3,0.2,0.5,0.3c-0.2,1,0,2,0.1,3.3c-0.7-0.9-0.7-1.8-1.1-2.7
		c-0.4,0.6-0.6,1.2-0.5,1.8c0.1,1.3-0.1,2.7-0.5,3.9c-0.4,1.2-0.7,2.4-1,3.6c-0.1,0.5-0.3,0.9-0.5,1.3c-0.2,0.5-0.5,0.9-0.7,1.4
		c-0.2,0.4-0.3,0.9-0.4,1.3c-0.1,0.1-0.2,0.2-0.3,0.3c0,0-0.1,0.1-0.1,0.1c0,0,0-0.1,0.1-0.1c0.1-0.1,0.2-0.2,0.3-0.3
		c0.1,0,0.2,0,0.3,0c0.9-0.7,1.9-1.4,2.4-2.5c0.3-0.6,0.7-1.2,1-1.8c0.6-1.2,0.6-2.6,0.8-3.9c0.1-0.5,0.1-1,0.2-1.4
		c0.3,1.1,0.2,2.2,0,3.3c-0.1,0.7-0.3,1.5,0.1,2.3c-0.4,1.4-1,2.6-1.9,3.8c-1,1.5-2.1,2.8-3.5,4c-1.7,1.4-3.6,2.1-5.8,1.6
		c-0.9-0.2-1.9-0.3-2.9-0.4c-0.9,0-1.7-0.3-2.5-0.6c-0.8-0.3-1.5-0.6-2.3-0.7c-1.8-0.3-3.1-1.3-4.4-2.4c-1.2-1.1-1.9-2.5-2.5-3.9
		c-1-2.1-1.3-4.3-1.5-6.6c0-0.8,0.2-1.6,0.2-2.3c0.4-0.3,0.7-0.6,1.1-0.9c0.1,0.2,0.3,0.4,0.3,0.6c0.1,1.3,0.6,2.5,1.1,3.7
		C187.4,52.7,187.6,52.8,187.7,53c0,0.2,0,0.5,0,0.8C188.1,53.4,188,53.2,187.7,53z M226.6,25.9c0.3-0.3,0.2-0.7,0.2-1.1
		c0-1.9,0-3.8,0-5.6c0-0.2,0-0.5,0-0.7c-0.2,0.4-0.2,0.8-0.2,1.3c-0.1,1.5,0.1,3-0.2,4.5C226.6,24.7,226.2,25.4,226.6,25.9
		c-0.1,0.1-0.2,0.2-0.2,0.4c-0.1,0.5-0.1,1.1-0.1,1.6c-0.1,2.9-0.3,5.8-0.4,8.7c-0.2,2.9-0.5,5.8-0.6,8.7c-0.1,2.8,0,5.7,0,8.5
		c0,0.2,0,0.4,0.1,0.8c0.2-0.4,0.2-0.5,0.3-0.6c0-0.9,0-1.7,0-2.6c0.1-2.5-0.1-4.9,0.3-7.4c0-0.3,0-0.5,0-0.8
		c0.1-1.5,0.1-3.1,0.2-4.6c0.2-3.2,0.5-6.4,0.4-9.7c0-0.4,0-0.8,0.1-1.1C226.8,27.1,226.7,26.5,226.6,25.9z M229.6,52.5
		c0.1,0,0.2,0,0.4,0c0-0.2,0.1-0.5,0.1-0.7c0.1-2.8,0.2-5.6,0.3-8.4c0.1-2.8,0.3-5.6,0.4-8.4c0.2-2.7,0.4-5.5,0.5-8.2
		c0.1-3.4,0-6.8,0-10.2c0-0.2-0.1-0.3-0.1-0.5c-0.2,0.9-0.4,1.8-0.4,2.7c-0.1,3.2,0,6.3-0.3,9.5c-0.3,3.6-0.5,7.3-0.7,11
		c-0.2,3.4-0.2,6.9-0.3,10.3C229.5,50.6,229.6,51.6,229.6,52.5z M205.4,63.9c-1.6,0.2-2,0.4-3,1.1c0.5-0.1,0.9,0,1.2-0.1
		C204.2,64.6,204.9,64.5,205.4,63.9z M210.2,47.1c0,0,0,0.1,0,0.1C210.2,47.2,210.2,47.2,210.2,47.1
		C210.2,47.2,210.2,47.1,210.2,47.1z"/>
	<path d="M395,57.7c0.3,0.8,0.4,1.5,0.4,2.2c0,1.3,0.1,2.7,0.2,4c0.1,1.1,0.4,2.1,0.9,3.1c0-0.2,0-0.4,0-0.5
		c-0.3-0.8-0.3-1.7-0.2-2.6c0.1-0.9,0.1-1.7,0.1-2.6c0.1-0.8,0.2-1.6,0.3-2.4c0-0.3,0.2-0.6,0.3-0.8c0.6-0.5,1.3-0.3,1.9-0.5
		c0.3,1,0,1.9,0.1,2.9c0.1,0.9,0.2,1.8,0.3,2.7c0.8,0.3,0.4,1,0.4,1.6c0.2,0,0.4-0.1,0.5-0.1c0.1-1.1,0.3-2.3,0.4-3.4
		c0.1-1.1,0.8-2,1.2-3c0,0.3,0.1,0.6,0.1,0.9c0,0.8,0,1.6-0.1,2.4c-0.1,1.9,0.1,3.7,0.5,5.5c0.4,2,1.3,3.7,2.7,5.1
		c0.4,0.4,0.9,0.7,1.5,0.9c0.4-0.4,0.8-0.9,1.4-1.2c0.6-0.3,0.9-0.8,1.2-1.3c0.1-0.1,0.2-0.3,0.2-0.4c-0.2-0.6,0.3-1,0.5-1.4
		c0.1,0,0.2,0,0.3,0.1c0.4-0.4,0.8-0.9,1-1.5c0.1-0.2,0.1-0.4,0.2-0.5c1.1-1.8,1.7-3.7,2.4-5.7c0.2-0.4,0.4-0.9,0.6-1.5
		c0-0.2-0.1-0.6,0.1-0.9c0.7-1.7,0.6-3.4,0.5-5.2c0-0.7,0-1.3-0.1-2c0-0.5-0.1-1-0.3-1.4c-0.5-1.1-0.8-2.3-1.5-3.2
		c-1.4-1.9-2.8-3.7-4.7-5.2c-1-0.7-1.9-1.6-2.9-2.3c-1.2-0.8-2.5-1.5-3.8-2c0,0-0.1,0-0.1,0c-1.2-0.6-2.6-0.9-3.9-1.3
		c-0.9-0.3-1.7-1-2.6-1.5c-1-0.7-1.8-1.7-2.5-2.7c-0.6-1-1.3-1.9-1.7-2.9c-0.4-1-0.7-2-1-3c-0.1-0.5-0.1-1-0.2-1.5
		c-0.1-0.5-0.2-0.9-0.3-1.4c-0.3-1.9,0.1-3.7,0.8-5.5c0.5-1.4,1.1-2.7,1.8-4c0.5-0.9,1.3-1.6,2.2-1.9c1.8-0.6,3.5-1.2,5.4-1.1
		c0.8,0,1.6-0.1,2.4-0.2c0.5,0,1-0.1,1.4-0.1c2,0.2,3.9,0.7,5.8,1.6c1.1,0.6,2.1,1.3,3,2.2c0.4,0.4,0.7,0.8,1.2,1
		c0.4-0.3,0.8-0.6,1.2-0.9c0.4,0.2,0.7,0.3,1.1,0.5c0.1-0.4,0.2-0.8,0.3-1.1c1-0.8,1-0.8,2.9-0.6c1.1,1.2,0.6,2.7,0.7,4.3
		c0.3-0.6,0.2-1,0.2-1.4c0-0.7-0.1-1.4,0.3-2.1c0.7-0.3,1.1,0.1,1.5,0.6c0.2,0.4,0.4,0.9,0.4,1.3c0,0.6,0,1.2-0.2,1.8
		c-0.7,3.1-1.2,6.3-1.6,9.4c-0.1,0.8-0.1,1.7-0.1,2.6c0,1.3-0.2,1.7-1.3,2.7c-0.2-0.1-0.4-0.1-0.6-0.2c-0.2-0.1-0.4-0.3-0.6-0.4
		c-0.6,0.3-1.2,0.6-1.6,0.9c-0.9,0-1.5-0.4-2.1-0.7c-1.3,0.3-2.6,0.2-3.8-0.3c-0.6-0.3-1-0.9-1-1.6c0-0.5,0-1.1,0-1.6
		c-0.1-1.3-0.4-2.6-0.8-3.9c-0.3-0.9-0.5-1.9-0.8-2.9c-0.5-1.6-1.3-3.1-2.5-4.3c-0.6-0.6-1.1-1.3-1.9-1.6c-0.2-0.1-0.5-0.1-0.8-0.2
		c-0.8,0.5-1.1,1.2-1.4,2c-0.5,1.3-0.9,2.6-1,4c-0.1,1.1,0.1,2.2,0.2,3.3c0,0.5,0.2,0.9,0.3,1.4c0.4,2.4,1.6,4.4,3.1,6.2
		c0.4,0.4,0.9,0.7,1.4,0.9c2,0.8,4.1,1.7,6,2.7c2,1,3.9,2.3,5.8,3.7c1.2,0.9,2.3,1.9,3.3,2.9c1.3,1.2,2.4,2.6,3.3,4.1
		c1.8,2.9,2.5,6,2.1,9.4c-0.3,2.8-1.1,5.4-2.1,8c-1,2.6-2.3,5-3.7,7.4c-0.9,1.5-1.8,2.9-3,4.2c-1.9,2-4.1,2.8-6.9,2.3
		c-0.5-0.1-0.9-0.1-1.4-0.2c-1.5-0.2-3-0.3-4.6-0.4c-0.6,0-1.2-0.2-1.8-0.3c-0.7-0.1-1.3-0.4-2-0.7c-2.7-1.1-4.7-3-6.3-5.4
		c-0.5-0.7-0.7-1.5-0.9-2.4c-0.5-1.8-0.6-3.6-0.2-5.5c0.2-0.7,0.2-1.5,0.5-2.2c0.3-1,0.9-1.9,1.4-2.8C394.2,58.2,394.6,58,395,57.7z
		 M418.3,69.3C418.3,69.3,418.4,69.3,418.3,69.3C418.3,69.3,418.3,69.3,418.3,69.3C418.3,69.3,418.3,69.3,418.3,69.3z M417.2,71.6
		c0,0-0.1,0-0.1,0c0,0,0,0.1,0,0.1C417.1,71.7,417.1,71.6,417.2,71.6c0.4-0.3,0.6-0.7,0.6-1.5C417.3,70.7,417.3,71.1,417.2,71.6z
		 M419.2,19.4c0.4-0.3,0.2-0.7,0.1-1.1C419.2,18.7,419.2,19,419.2,19.4c-0.5,0.5-0.2,1.1-0.1,1.7C419.1,20.5,419.1,20,419.2,19.4z
		 M418.9,67.9C418.9,67.9,418.8,67.9,418.9,67.9C418.8,67.9,418.8,67.9,418.9,67.9c0.1,0,0.3,0.1,0.5,0.2c0-0.5,0-0.9,0-1.4
		c0.2,0.1,0.4,0.2,0.7,0.3c0.3-1.1,0.6-2,0.9-3c0.2,0.1,0.3,0.1,0.4,0.2c0.6-1.2,1.1-2.4,1.2-3.8l0,0c0.5-0.4,0.2-0.9,0.1-1.3
		c0-0.1,0.1-0.1,0.1-0.2c0.1,0,0.2,0.1,0.3,0.1c0.5-0.5-0.4-0.7-0.1-1.2c0.1-0.1,0.3-0.1,0.5-0.2c0-0.2,0.2-0.5,0.1-0.7
		c-0.4-0.5-0.3-1.1-0.3-1.6c0-0.7,0-1.3-0.1-2c0-0.2,0-0.4-0.2-0.5c-0.3,0.4,0.1,0.9-0.1,1.4c-0.2,0.1-0.3,0.2-0.4,0.2
		c-0.2,1-0.3,2-0.4,2.9c-0.1,0.6-0.1,1.1-0.3,1.7c-0.3,1.1-0.6,2.1-0.9,3.1c-0.1,0.3-0.2,0.6-0.2,0.8c0,0.8-0.3,1.5-0.6,2.2
		c-0.2,0.5-0.4,1.1-0.5,1.6C419.1,67,418.9,67.4,418.9,67.9z M393.5,20.5C393.5,20.5,393.5,20.5,393.5,20.5
		c-0.1,0.3-0.1,0.6-0.1,0.9c0,0,0.1,0,0.1,0C393.5,21.1,393.5,20.8,393.5,20.5z M393.5,22.2L393.5,22.2l0,0.1L393.5,22.2z"/>
	<path d="M467,57.5c-0.7,1-1.7,1.8-2.7,2.5c-1.6,1.1-3,2.3-4.6,3.4c-2.7,2.1-5.7,3.9-8.7,5.5c-1,0.5-2.1,0.8-3.2,1.1
		c-0.8,0.2-1.7,0.2-2.5,0.6c-0.4,0.2-0.9,0.1-1.2-0.2c-0.4-0.4-0.9-0.3-1.3-0.3c-0.1,0-0.2,0-0.3,0c-1.1,0-2.2-0.1-2.9-1
		c-1.7,0-1.7-0.1-3.3-0.7c-0.3-0.5-0.6-0.9-0.9-1.4c-0.1-0.2-0.2-0.5-0.3-0.8c-0.1-0.7-0.3-1.5-0.4-2.2c-0.2-0.9-0.4-1.8-0.1-2.7
		c0.1-0.3,0-0.7-0.1-1c-0.2-0.7-0.1-1.3-0.1-2c0.1-1.6,0.1-3.1,0.2-4.7c0-1.5,0-3.1,0-4.6c0.1-1.8,0.3-3.5,0.4-5.3
		c0.1-1.7,0.2-3.3,0.4-5c0.1-0.8,0.2-1.6,0.2-2.4c0.1-1.5,0.1-2.9,0.2-4.5c-0.3-0.5-0.6-1.1-1-1.8c-0.4,0.1-0.8,0.1-1.3,0.2
		c-0.4-0.4-0.7-0.8-0.7-1.5c0.6-1.5,2.3-1.9,3.5-2.7c0.1-0.5,0.3-1,0.4-1.5c0.4-2,1.7-2.6,3.4-1.7c0.1,0.1,0.3,0.1,0.4,0.2
		c0.8-0.2,1.8-0.2,2.5-0.8c0.1-0.1,0.3-0.2,0.4-0.1c0.6,0.2,1-0.2,1.5-0.4c1.2-0.6,2.5-1.3,3.6-2.1c0.2-0.1,0.3-0.2,0.5-0.3
		c0.7-0.2,1.3-0.7,1.9-1.2c2.1-1.5,4.3-3,6.5-4.4c1.3-0.8,2.7-1.6,4.1-2.3c0.8-0.4,1.5-1,2.4-1.7c0.9,0,2-0.1,3.2-0.1
		c0.2,0.4,0.5,0.7,0.7,1.1c0.6-0.1,1.1-0.2,1.6-0.3c0.8,1,0.8,1,1.5,1.3c-0.1,0.5-0.3,1-0.4,1.5l0,0c-0.6,0.5-1.3,0.9-1.9,1.4
		c-0.1,0.1-0.2,0.3-0.4,0.4c-0.5,0-0.9,0.2-1.1,0.6c-0.4,0.1-0.7,0.2-0.8,0.6c-0.3-0.1-0.5-0.1-0.6,0.3c-0.3,0.1-0.6,0-0.6,0.6
		c0.2-0.3,0.4-0.4,0.6-0.6c0.3,0.1,0.5,0,0.6-0.2c0.4-0.1,0.8-0.1,0.8-0.6c0.5,0,0.9,0,1.2-0.6c0.4,0,0.8-0.1,1.4-0.2
		c-1.1,0.8-2.1,1.4-3.1,2c-0.5,0.2-0.9,0.5-1.3,0.8c-2.5,2-5.2,3.6-7.8,5.3c-2.2,1.4-4.6,2.7-7,3.9c-1.3,0.6-2.5,1.3-3.8,2
		c-0.4,0.2-0.8,0.5-1.1,0.8c-1,5.1-1.2,10.2-1.5,15.3c0,0.2,0.1,0.3,0.1,0.6c0.5-0.1,0.9-0.3,1.3-0.6c1.5-0.8,2.9-1.8,4.3-2.9
		c0.9-0.7,1.8-1.2,2.5-2.1c0.4-0.5,1-0.7,1.5-1.1c0.2-0.1,0.3-0.2,0.4-0.4c1.4-1.8,3.1-3.2,4.8-4.7c1.1-1,2.3-2,3.5-3
		c1.2-1,2.7-1.5,4.3-1.7c0.3,0,0.7-0.1,1-0.2c0.6-0.1,1.2-0.2,1.8-0.2c0.4,0.4,0.8,0.7,1.1,1c0.6,0,1.3-0.1,1.8-0.1
		c0.7,0.4,0.6,1,0.7,1.7c-0.6,0.7-1.3,1.4-2.2,1.9c-1.4,0.9-2.8,1.8-4,3c-1.1,1.1-2.4,2-3.6,3c-0.5,0.4-1,0.7-1.2,1.4
		c-0.7,0.1-0.7,0.1-0.9,0.8c0,0-0.1,0.1-0.1,0.1c0,0,0-0.1,0.1-0.1c0.4-0.2,0.8-0.4,0.9-0.8c0.2,0,0.4,0,0.5-0.1
		c0.6-0.4,1.2-0.8,1.7-1.3c0.4-0.3,0.8-0.6,1.2-1c1.2-1,2.4-2,3.6-3c0.1-0.1,0.3-0.1,0.4-0.2c-0.4,1-1.9,2.6-3.4,3.5
		c-0.4,1-1.4,1.6-2.2,2.3c-0.5,0.4-1,0.8-1.3,1.3c-0.1,0.2-0.3,0.4-0.5,0.5c-1.1,0.9-2.3,1.8-3.5,2.8c-0.4,0.3-0.7,0.6-1.1,0.9
		c-0.1,0.1-0.2,0.2-0.3,0.3c-1.1,0.6-2,1.5-3.1,2c-1.1,0.6-2.2,1.2-3.3,1.7c-1.3,0.6-2.6,1-4,1.2c-1,0.2-2,0.2-3,0.3
		c-0.1,0-0.2,0.1-0.3,0.1c-0.1,3.5-0.2,7.1,0.2,10.7c0.1,0.5,0,1.2,0.4,1.7c0.8-0.2,1.5-0.5,2.2-0.9c1.3-0.8,2.5-1.7,3.7-2.7
		c0.9-0.7,1.7-1.3,2.6-2c0.6-0.5,1.2-1.1,1.8-1.6c0.7-0.6,1.5-1.2,2.3-1.7c1.1-0.6,2-1.4,3.1-2c0.5-0.3,1.1-0.6,1.7-0.8
		c0.9-0.2,1.9-0.4,2.7-0.9c0.2-0.1,0.5-0.2,0.8-0.2c0.3,0.3,0.5,0.5,0.8,0.8c0.7,0,1.2-0.5,1.9-0.3c0.3,0.2,0.4,0.4,0.3,0.7
		c-0.1,0.4-0.1,0.7-0.2,1.2c0.1,0.1,0.3,0.2,0.4,0.2c0,0.1,0,0.2,0,0.2c-0.3,0.4-0.5,0.8-0.9,1.3c-0.5,0.4-1.4,0.8-2,1.6
		C466.4,57.5,466.8,57.5,467,57.5L467,57.5z M458.1,21.4C458.2,21.4,458.2,21.3,458.1,21.4C458.2,21.4,458.2,21.4,458.1,21.4
		c0,0.1,0,0.1-0.1,0.1C458.1,21.5,458.1,21.4,458.1,21.4z M463,18.2C463,18.2,463.2,18.1,463,18.2c0,0.1-0.1,0.3-0.2,0.4
		c-0.7-0.1-1.2,0.1-1.4,0.8c-0.2,0.1-0.4,0.2-0.6,0.3c-0.4,0-0.7,0.2-0.9,0.6c-0.4,0-0.6,0.3-0.8,0.6c0,0,0,0-0.1,0.1
		c0,0,0-0.1,0-0.1c0.4-0.1,0.7-0.1,0.8-0.6c0.4,0,0.8-0.1,0.9-0.6c0.2-0.1,0.4-0.2,0.6-0.2c0.6-0.1,0.9-0.6,1.4-0.9
		C462.8,18.4,462.9,18.3,463,18.2z M438.3,63.3c0,0,0.1,0,0.1,0c0-0.4-0.1-0.7-0.1-1.1c0-0.4,0.1-0.9,0-1.3c-0.1-2.5-0.1-4.9,0-7.4
		c0-1,0-2.1,0-3.1c0-0.3,0.1-0.6-0.3-0.7c-0.1,0.1-0.2,0.1-0.2,0.2c-0.2,4.3-0.3,8.7,0.2,13C438.2,63,438.3,63.2,438.3,63.3z
		 M443.2,33.3c-0.5,0.3-0.5,0.7-0.5,1.1c-0.2,1.7-0.3,3.4-0.4,5.1c-0.1,2.1-0.2,4.2-0.3,6.3c0,0.1,0.1,0.3,0.3,0.6
		c0.2-0.3,0.3-0.5,0.3-0.6c0.1-0.4,0.1-0.9,0.1-1.3c0-3.3,0.2-6.7,0.5-10C443.3,34.1,443.2,33.7,443.2,33.3z M439.2,33
		c-0.3,0.6-0.5,1-0.5,1.4c0,0.6-0.1,1.2-0.1,1.8c-0.5,3.3-0.4,6.6-0.5,10c0,0.1-0.1,0.4,0.3,0.4c0.1-0.3,0.2-0.6,0.2-0.9
		c0.1-0.9,0.1-1.7,0.1-2.6c0.1-1.8,0.2-3.5,0.3-5.3C439,36.3,439.1,34.8,439.2,33z M442.1,51.9c-0.4,1.1-0.3,2.2-0.3,3.3
		c0,1.1,0,2.2,0.1,3.3c0.1,1.1,0.2,2.2,0.4,3.6C442.5,58.5,442.5,53,442.1,51.9z M463.4,59.1c-1.5,0.8-2.9,1.7-4.2,3
		c0.4,0,0.6,0,0.8,0C461,60.9,462.5,60.4,463.4,59.1z M442.5,62.8L442.5,62.8l0-0.1L442.5,62.8z M438.5,64.3c0-0.1,0-0.1,0-0.2
		c0,0-0.1,0-0.1,0C438.5,64.1,438.5,64.2,438.5,64.3z M464.7,17.3L464.7,17.3L464.7,17.3L464.7,17.3z M457.4,21.8L457.4,21.8
		L457.4,21.8L457.4,21.8z"/>
	<path d="M334.7,12.4c1.2-0.1,2.3-0.3,3.4-0.4c0.3,0,0.6-0.1,0.9,0c1,0.2,2.1-0.1,3.1,0.2c0.2,0.1,0.4-0.2,0.6-0.2
		c0.3,0.5,0.9,0.7,1.4,0.8c0.8,0.1,1.3,0.5,1.8,1c1.6,1.8,2.9,3.7,3.8,6c0.3,0.7,0.5,1.3,0.5,2.1c0,0.6,0.2,1.1,0.3,1.7
		c1.1,3.7,1.9,7.5,2.2,11.4c0.2,1.7,0.4,3.4,0.4,5.1c0,2-0.1,4.1-0.2,6.1c-0.2,2.3-0.6,4.5-1.1,6.8c-0.8,3.3-2,6.5-3.9,9.3
		c-0.8,1.2-1.7,2.3-2.8,3.2c-1.2,1-2.7,1.4-4.2,1.7c-0.3,0.1-0.7,0-1-0.1c-0.7-0.4-1.5-0.3-2.2-0.3c-0.9,0-1.7-0.2-2.4-0.7
		c-0.4-0.3-0.8-0.5-1.3-0.5c-1.2-0.1-2.1-0.7-2.8-1.6c-1.1-1.2-1.9-2.6-2.3-4.2c-0.2-0.7-0.5-1.4-0.6-2c-0.6-2.6-1.2-5.3-1.5-8
		c-0.2-2-0.3-4.1-0.4-6.1c-0.1-2.1-0.2-4.2-0.3-6.3c0-0.9,0-1.7,0-2.6c0-1.6,0-3.2,0.1-4.8c0.1-1.3,0.2-2.6,0.4-3.8
		c0-0.4,0.1-0.9,0.1-1.3c0.1-0.5,0.1-1.1,0.2-1.6c0.5-1.7,1-3.4,1.6-5c0.7-2.1,2.2-3.5,3.9-4.7c0.3-0.2,0.7-0.3,1-0.5
		C334,12.7,334.4,12.5,334.7,12.4z M349.5,26L349.5,26L349.5,26L349.5,26L349.5,26z M348.3,24.3c0,0.4,0.1,0.8,0.1,1.3
		c0,0.2,0.1,0.4,0.5,0.4C348.7,25.4,348.8,24.7,348.3,24.3c0-0.4,0-0.4-0.3-0.6C348.1,23.9,348.2,24.1,348.3,24.3z M330.8,57.5
		c0.1-0.6,0-1.1-0.1-1.7c-0.3-1.1-0.5-2.2-0.7-3.4c-0.2-1.1-0.3-2.3-0.4-3.4c-0.1-0.6-0.2-1.1-0.2-1.7c-0.1-1.4,0-2.9-0.2-4.3
		c-0.1-0.7-0.1-1.4-0.1-2.1c0-1.4,0-2.9,0.1-4.3c0-0.9,0.2-1.8,0.1-2.7c-0.1-1.5,0.1-3,0.3-4.6c0.3-2.3,0.7-4.5,1.1-6.8
		c0-0.2,0-0.3,0-0.6c-0.2,0.1-0.3,0.2-0.3,0.2c-0.6,2.3-1.1,4.5-1.3,6.9c-0.2,2.1-0.3,4.2-0.5,6.3c0,0.6-0.1,1.2-0.1,1.9
		c0,1.2,0.1,2.4,0.1,3.6c0,1.1-0.1,2.3-0.1,3.4c0,0.8,0.1,1.6,0.2,2.4c0.1,1,0.3,2,0.4,3c0,2.5,0.7,4.8,1.3,7.1
		C330.5,57.1,330.5,57.4,330.8,57.5c0.1,0.4-0.1,0.9,0.6,1.4C331.2,58.3,331,57.9,330.8,57.5z M350,29.4c0.4-0.4,0.3-0.8,0-1.2
		C350.1,28.7,350.1,29.1,350,29.4c-0.1-0.2-0.3-0.4-0.3-0.6c0-0.5,0.1-0.9,0.1-1.4c0-0.2,0-0.3,0-0.6c-0.4,0.2-0.6,0.3-0.9,0.5
		c0.2,0.8,0.4,1.6,0.5,2.4c0.2,1.6,0.4,3.3,0.6,5c0.1,1.3,0.2,2.6,0.3,3.8c0.3,2.8,0.3,5.5,0,8.3c-0.2,1.4-0.4,2.8-0.8,4.2
		c-0.6,2.8-1.3,5.7-2.8,8.2c-0.2,0.3-0.3,0.6-0.4,0.9c-0.1,0.3-0.4,0.5-0.2,0.9c1.3-1.2,1.6-2.9,2.5-4.3c0.1-0.7,0.2-1.5,0.6-2.1
		c0.3-0.1,0.8-0.1,0.6-0.7c-0.1,0-0.2,0-0.4,0.1c0-0.5,0.2-0.9,0.5-1.2c0,0,0,0,0.1,0.1c0,0-0.1,0-0.1,0c0.1-0.1,0.1-0.3,0.2-0.4
		c0.5-0.1,0.5-0.5,0.5-0.8l0,0c0.1-0.1,0.2-0.2,0.2-0.3c0.2-1.1,0.4-2.1,0.6-3.2c0.1-0.5,0.1-1.1-0.2-1.7c-0.1,0.4-0.1,0.8-0.2,1.2
		c0,0-0.1,0-0.1,0c0-0.5,0-0.9,0.1-1.4c0.2-0.2,0.4-0.4,0.6-0.6c0.1-0.8,0.2-1.6,0.2-2.3c0.1-0.5-0.2-0.8-0.7-1c0-0.3,0-0.7,0-1.3
		c0.2,0.4,0.3,0.7,0.4,1c0.1-0.2,0.2-0.3,0.2-0.4c-0.2-3.3-0.2-6.6-1-9.9c-0.2,0.1-0.3,0.1-0.4,0.2c-0.3-0.4-0.4-0.9-0.4-1.4
		C350,30.2,350,29.8,350,29.4z M338.4,18.6c-0.2,0.1-0.3,0.2-0.4,0.3c-0.3,0.6-0.6,1.2-0.8,1.8c-1.2,3.3-1.7,6.8-2.1,10.3
		c-0.1,0.8-0.2,1.6-0.2,2.4c-0.2,5.6-0.1,11.2,0.5,16.7c0.3,2.6,0.8,5.1,1.5,7.6c0.3,1,0.7,1.9,1,2.8c0.1,0.3,0.4,0.6,0.6,1
		c1-0.8,1.7-1.8,2.4-2.8c0.7-1.1,1.1-2.3,1.4-3.6c0.9-3.3,1.5-6.6,1.4-10c0-0.8,0-1.6,0.1-2.4c0.1-1-0.2-2,0.1-3c0-0.1,0-0.3,0-0.4
		c-0.2-0.9-0.2-1.8-0.3-2.7c-0.4-2-0.4-4-0.8-5.9c-0.3-1.4-0.5-2.8-0.8-4.2c-0.5-1.9-1.1-3.8-1.9-5.7c-0.3-0.6-0.7-1.3-1-1.9
		C338.9,18.9,338.6,18.8,338.4,18.6z M333,39.6c0,1.5-0.2,3,0,4.5C333.1,42.5,333,41,333,39.6z M333.2,46.2c0,0.1,0,0.1,0.1,0.1
		c0-0.1,0.1-0.2,0.1-0.3c0-0.3,0-0.7,0-1c0-0.1-0.2-0.2-0.3-0.3C332.8,45.3,333.2,45.7,333.2,46.2z M350.3,30.4
		c0.2,0.4,0.4,0.6,0.5,0.8C350.9,30.9,350.9,30.6,350.3,30.4z"/>
	<path d="M136.6,40.4c-0.3,0.5-0.5,1-0.8,1.4c-1.3,1.5-2.7,2.9-4.1,4.4c-0.4,0.4-0.7,0.9-1.2,1.3c-1,1-2.1,2-3.1,3
		c-1.9,1.8-3.8,3.5-5.6,5.3c-3,2.8-6.1,5.3-9.7,7.2c-1.1,0.6-2.4,1.1-3.6,1.5c-0.6,0.2-1.3,0.2-1.9,0.2c-0.4-0.2-0.7-0.4-1-0.7
		c-1.6,0.3-3,0-4-1.4c-1,0-2,0.1-2.8-0.9c0.1-0.8,0.5-1.5,1.4-1.9c1.2-0.5,2.4-1.2,3.6-1.8c-0.1-0.2-0.1-0.4-0.2-0.7
		c-1.2,0.5-2.4,0.2-3.5,0.2c-1.3,0-2.6-1.6-1.9-3.1c0.3-0.6,0.4-1.1,0.4-1.7c0.1-1.8,0.1-3.5,0.2-5.3c0-0.9,0.2-1.7,0.3-2.7
		c-0.4-0.8-0.4-1.8-0.2-2.8c0.1-0.9,0.2-1.7,0-2.6c-0.1-0.5-0.1-1.1-0.1-1.6c0-5.2,0-10.3,0.1-15.5c0-1,0-2,0-3.1
		c0-1,0.3-1.9,0.8-2.7c0.3-0.5,0.5-0.9,0.8-1.3c-0.1-0.8-0.5-1.2-1.1-1.4c-0.7-0.2-1.1-0.6-1.5-1.1c-0.1-0.6,0.1-0.9,0.6-1.1
		c0.7-0.3,1.5-0.6,2.3-0.8c0.4-0.1,0.7-0.1,1-0.3c0.7-0.3,1.5-0.5,2.1-0.7c1.1,0.2,2,0.7,3,0.7c0.4,0,0.9,0.3,1.3,0.6
		c0.8,0.6,1.8,0.7,2.8,0.9c-0.4-1.2,0-2.1,0.3-3.1c1-0.5,1.6-1.6,2.8-2c0.7,0.9,0.7,1.9,0.4,3c-0.2,0.3-0.6,0.8-0.9,1.2
		c-0.3,0.5-1.1,0.3-1.2,1c0.1,0.1,0.2,0.2,0.4,0.2c0.4,0.1,0.7,0.1,1.1,0.2c0.3,0.1,0.5,0.3,0.8,0.3c1.9,0.1,3.6,1,5.5,1
		c0.5,0,1,0.3,1.5,0.5c2.2,0.7,4.3,1.7,6.1,3.1c1.1,0.8,2,1.8,3,2.6c0.6,0.5,1.1,1,1.7,1.5c0.2,0.1,0.3,0.3,0.5,0.5
		c0.5,0.7,1,1.4,1.6,2c1.1,1.2,2,2.6,2.8,4c0.8,1.4,1.4,2.9,0.9,4.6c0,0.1,0,0.2,0,0.3c0,2.1-0.9,3.7-2.1,5.3
		c-1.4,1.9-2.9,3.8-4.6,5.4c-0.8,0.8-1.7,1.7-2.5,2.5c-0.2,0.2-0.3,0.4-0.5,0.6c0.2,0.4,0.4,0.2,0.5,0.1c2.2-1.9,4.3-3.9,6.5-5.8
		C135.8,40.7,136.1,40.4,136.6,40.4L136.6,40.4z M124.9,50.1C124.9,50.1,124.9,50.1,124.9,50.1C124.9,50.1,124.9,50.1,124.9,50.1
		c0.1-0.1,0.2-0.2,0.3-0.3c0.5,0,0.8-0.2,1-0.6c0.1-0.1,0.2-0.2,0.3-0.3c0.1-0.1,0.2-0.2,0.3-0.3c0.1-0.1,0.2-0.2,0.3-0.3
		c0.5-0.1,0.5-0.1,0.7-0.5c-0.4,0-0.5,0.3-0.6,0.6c-0.1,0.1-0.2,0.2-0.3,0.3c-0.1,0.1-0.2,0.2-0.3,0.3c-0.2,0-0.3,0.1-0.3,0.3
		c-0.5,0-0.8,0.2-1,0.6C125.2,49.9,125,50,124.9,50.1z M108.1,28.1C108.1,28.1,108.1,28.1,108.1,28.1
		C108.1,28.1,108.1,28.1,108.1,28.1c-0.4,0.5-0.2,1.1-0.2,1.7c0.4-0.1,0.4-0.4,0.4-0.6C108.2,28.8,108.1,28.5,108.1,28.1z
		 M110.3,17.2c-0.1,1.3-0.2,2.4-0.2,3.6c0,3.3,0,6.7,0,10c0,4-0.1,8.1-0.2,12.1c0,1.5,0,3,0,4.5c0,1-0.1,2,0.6,2.9
		c0.2,0.2,0.1,0.6,0.2,0.9c0,0.5,0,1.1,0,1.7c0.4-0.2,0.6-0.3,0.8-0.4c0.6-0.5,1.2-1,1.9-1.5c1-0.6,1.7-1.5,2.5-2.3
		c0.3-0.3,0.7-0.6,0.8-1.1c0-0.3,0.4-0.5,0.8-0.6c1-0.2,1.7-0.9,2-1.9c0.1-0.1,0.1-0.3,0.2-0.4c0.7-0.7,1.4-1.3,2.1-2
		c0.5-0.4,0.9-0.8,1.5-1.3c0.1,0,0.4,0,0.4,0c0.5-0.7,0.9-1.3,1.3-1.9c0.4-0.5,0.8-0.9,1.2-1.3c1-1,1.8-2.2,2.6-3.5
		c0.4-0.6,0.6-1.3,0.8-1.9c0.1-0.5,0.2-1.1,0-1.6c-0.5-1.8-1.3-3.4-2.5-4.8c-1.3-1.5-2.7-2.9-4.1-4.3c-1.5-1.4-3.2-2.5-5.1-3.3
		c-1.1-0.5-2.3-0.8-3.5-1c-1.1-0.2-2.1-0.4-3.2-0.5C111,17.2,110.7,17.2,110.3,17.2z M103.4,33.6c-0.1,0.4-0.1,0.6-0.1,0.8
		c0,2.1-0.1,4.2-0.1,6.3c0,0.5-0.2,1.1-0.1,1.6c0.2,1.1,0.1,2.1,0,3.2c-0.1,1.1,0.1,2.1,0.4,3.1c0.1-4.9,0.2-9.8,0.3-14.6
		C103.7,33.9,103.6,33.9,103.4,33.6z M108,30.5c-0.2,0.9-0.1,1.7-0.1,2.5c0,0.9,0,1.7,0,2.6c0,0.8-0.1,1.6,0,2.4
		c0,0.8-0.1,1.6,0.2,2.4c0.1-0.6,0.1-1.3,0.1-1.9c0-1.1,0.3-2.3,0.1-3.4c-0.2-1.4-0.1-2.8,0.1-4.2C108.3,30.9,108.1,30.8,108,30.5z
		 M108.3,23.2c0-1.8,0.2-3.4-0.1-5.1c-0.1,1.6-0.2,3.2-0.3,4.8c0,0,0,0.1,0.1,0.1C108,23.1,108.1,23.1,108.3,23.2z M107.8,42.6
		c0.1,0,0.2,0,0.3,0c0-0.4,0-0.7,0-1.1c0-0.2,0-0.4-0.4-0.3C107.7,41.7,107.7,42.2,107.8,42.6z M103.3,27.4c0.1,0,0.1,0,0.2,0
		c0-0.5-0.1-1-0.1-1.6c0,0-0.1,0-0.1,0C103.3,26.4,103.3,26.9,103.3,27.4z M107.7,46.5c0.4-0.3,0.4-0.5,0-0.8
		C107.5,45.9,107.5,46.1,107.7,46.5z M107.8,44.6c0,0,0.1,0,0.1,0c0-0.2,0-0.5,0-0.7c0,0-0.1,0-0.1,0
		C107.8,44.2,107.8,44.4,107.8,44.6z M103.5,31.9c-0.2,0.3-0.2,0.5,0.2,0.6C103.6,32.3,103.5,32.1,103.5,31.9z M108.2,26.9
		c0-0.1,0-0.2,0.1-0.2c0,0-0.1,0-0.1,0C108.1,26.8,108.2,26.8,108.2,26.9z M108.2,25.1c0,0,0,0.1,0,0.1c0,0,0.1,0,0.1,0
		C108.2,25.2,108.3,25.2,108.2,25.1C108.3,25.1,108.2,25.1,108.2,25.1z M107.9,47.2L107.9,47.2l-0.1,0.1L107.9,47.2z"/>
	<path d="M375.8,60.1c0.2-0.1,0.4-0.3,0.5-0.4c0.7-1.4,1.3-2.8,1.7-4.4c0.3-1.3,0.7-2.6,1-3.9c0.4-1.8,0.6-3.6,0.9-5.4
		c0.4-2.1,0.6-4.2,0.6-6.3c0-0.8,0.2-1.5,0-2.3c-0.1-0.3,0.1-0.7,0.1-1c0-0.4,0.1-0.9,0-1.3c-0.2-0.8-0.1-1.5,0-2.3
		c0-0.7,0.1-1.4,0.1-2.1c0-0.5,0-1-0.3-1.5c-0.4-0.6-0.3-1.4,0-2.1c0.1-0.3,0.2-0.5,0.1-0.8c-0.1-1.2-0.1-2.5-0.1-3.7
		c0-0.7,0-1.3,0.2-2c0.2-0.6,0.1-1.3,0.3-1.9c0.1,0.5,0.2,1,0.2,1.5c0.2,2.9,0.4,5.8,0.6,8.7c0.1,2.2,0.1,4.4,0.1,6.6c0,3,0,6-0.4,9
		c-0.2,2.1-0.6,4.2-0.9,6.2c-0.3,1.8-0.7,3.6-1.2,5.4c-0.8,3-2,5.8-3.7,8.3c-1.2,1.7-2.7,3.1-4.6,3.9c-0.4,0.2-0.8,0.4-1.2,0.6
		c-0.4-0.3-0.7-0.5-1.1-0.8c-0.1,0-0.3,0-0.4,0c-2.3,0.6-2,0.3-3.7-0.6c-0.3,0-0.7,0.1-0.8,0.1c-1.6-0.2-2.3-1.1-2.9-2.2
		c-0.5-1.2-1-2.4-1.2-3.8c-0.1-0.7-0.3-1.4-0.4-2.1c-0.1-0.5-0.1-1-0.2-1.6c-0.1-0.5-0.2-1-0.2-1.5c0-0.2-0.1-0.4-0.1-0.6
		c-0.1-1-0.2-2-0.2-3c0-2-0.2-4-0.3-6c0-0.9,0-1.8,0-2.7c0-0.2,0-0.4,0-0.6c0.1-0.9-0.2-1.9-0.1-2.8c0.2-0.9,0-1.9,0-2.9
		c0-0.7,0.1-1.3,0.2-2c0-1.1,0-2.2,0-3.3c0-2,0.1-4,0.2-6c0-0.9,0.2-1.7,0.3-2.6c0.3-1.7,0.5-3.4,0.6-5.1c0-0.1,0-0.2,0-0.3
		c0.2-1.5,0.7-2.9,0.7-4.4c0-0.4,0.3-0.9,0.5-1.4c0-0.4,0-0.8,0-1.4c0.8,0.5,0.3,1.6,1.1,2c0.3-0.4-0.1-0.8,0-1.2
		c0.4-1,1.4-1.1,2.1-1.4c0.4,0.1,0.8,0.3,1.3,0.4c0.1,0.1,0.3,0.4,0.5,0.7c0.4-0.1,0.8-0.2,1.3-0.3c0.7,0.9,1.3,1.9,1.3,3.1
		c0.1,2.3,0,4.7-0.2,7c-0.2,2.3-0.3,4.6-0.4,6.9c-0.1,2.5-0.3,5-0.4,7.6c0,0.6,0,1.1,0,1.7c0,2-0.1,3.9-0.1,5.9
		c0.1,2.6,0.2,5.1,0.4,7.7c0,0.6,0.1,1.2,0.1,1.9c0,2.2,0.3,4.4,0.7,6.5c0,0,0.1,0.1,0.1,0.1c0.5-0.5,0.9-1.2,1.2-2c0.6-2,1-4,1.4-6
		c0-0.2,0-0.5,0.1-0.7c0.1-0.7,0.1-1.3,0.2-2c0.1-0.9,0.2-1.8,0.3-2.7c0.2-2.2,0.4-4.4,0.6-6.6c0.1-0.9,0-1.8,0-2.7c0-2,0-3.9,0-5.9
		c0-2-0.1-4-0.2-6c0-0.9-0.1-1.8,0.4-2.6c0.1-0.2,0.1-0.5,0.2-0.8c0.2-1.1,0.3-2.2,0.5-3.2c0.1-0.5,0.4-1.1,0.7-1.6
		c0.1-0.2,0.4-0.3,0.6-0.4c0.6,0.5,0.4,1.3,0.6,1.9c0.4,0.1,0.4-0.2,0.4-0.4c0-0.9,0.2-1.7,0.7-2.5c0.1-0.1,0.3-0.2,0.4-0.3
		c0.5,0.1,0.6,0.4,0.6,0.8c0,0.5,0.2,0.8,0.5,1.1c0.5,0.5,0.6,1.1,0.7,1.7c0.2,1.8,0.4,3.5,0.6,5.3c0.1,1,0.1,2.1,0.1,3.1
		c0.2,0.2,0.3,0.3,0.5,0.4c-0.2,0.7-0.1,1.4,0,2.1c0.2,1.1,0.2,2.2,0.2,3.3c0,1.4,0,2.8,0,4.2c0,0.4,0.1,0.8-0.3,1.1
		c0,0,0-0.1-0.1-0.1c0,0,0.1,0,0.1,0c-0.1,0.2-0.2,0.3-0.2,0.5c0.1,0.1,0.2,0.2,0.3,0.2c0,0.1,0,0.2,0,0.2c-0.3,1-0.3,2-0.3,3
		c0,0.8-0.2,1.6-0.2,2.4c0,0.4-0.1,0.9,0,1.3c0.1,0.4-0.4,0.7-0.1,1.2c0.1,0.3-0.1,0.8-0.1,1.2c-0.1,0-0.2,0-0.3-0.1
		c0,0.1-0.1,0.2-0.1,0.2c0,0.6-0.1,1.1,0.1,1.7c0.1,0.3,0.1,0.7-0.2,0.9l0,0c0-0.2,0-0.4,0-0.6c-0.6,0.6-0.7,0.8-0.4,2.3
		c-0.2,0.4-0.4,0.8-0.6,1.3c-0.1,0.1-0.1,0.3-0.1,0.4c-0.3,1.7-0.9,3.2-1.6,4.8C375.7,59.7,375.8,59.9,375.8,60.1
		c-0.5,0.5-0.5,0.5-0.6,1.3C375.5,61,375.9,60.7,375.8,60.1z M366.7,61C366.7,61,366.7,61,366.7,61C366.7,61,366.7,61,366.7,61
		C366.7,61,366.6,60.9,366.7,61z M361.2,43.2c0,0.3-0.3,0.5,0,0.8C361.4,43.6,361.4,43.6,361.2,43.2c0-0.1,0-0.2,0-0.3
		c0.1-0.1,0.2-0.2,0.2-0.3c0-0.7,0.1-1.4,0.1-2.1c0-1,0-2,0-3.3c-0.1,0.4-0.2,0.5-0.2,0.7c0.1,0.8-0.1,1.6,0,2.4
		c0.1,0.9,0,1.8,0,2.7C361,43,361,43.1,361.2,43.2z M364.8,46.4c0.5,0.3,0.4,0.8,0.5,1.3c0.1,1.5,0.1,3,0.2,4.6
		c0.2,1.7,0.3,3.3,0.4,5c0,0.5,0.2,1,0.4,1.4c0.1-0.2,0.1-0.5,0.1-0.7c-0.1-2.1-0.2-4.3-0.3-6.4c0-0.2,0-0.5,0-0.7
		c-0.1-1.5-0.2-3-0.2-4.4c0-4.5-0.1-9.1,0.2-13.6c0.3-3.6,0.3-7.2,0.5-10.9c0-1,0.1-2,0.1-3c0-0.4-0.1-0.9-0.2-1.3
		c-0.1-0.4,0.1-0.8-0.3-1.1c-0.3,0.9-0.3,1.8-0.3,2.7c0,3-0.4,6-0.5,9c-0.1,1.7-0.2,3.3-0.3,5c-0.1,1.1-0.2,2.3-0.2,3.4
		c0,1.1,0.2,2.2,0.1,3.2c-0.1,1.1,0,2.3,0.1,3.4C365,44.3,365,45.3,364.8,46.4z M361.7,52.6c-0.2,0.9-0.1,1.7,0,2.6
		C361.8,54.4,361.8,53.5,361.7,52.6z M361.4,44.7c0,0-0.1,0-0.1-0.1c0,0.8,0,1.5,0,2.3c0,0,0.1,0,0.1,0
		C361.4,46.2,361.4,45.5,361.4,44.7z M361.4,48.1c-0.1,0.4-0.2,0.9,0,1.3c0.1-0.1,0.2-0.1,0.2-0.1C361.5,48.9,361.5,48.5,361.4,48.1
		z M380.7,27.7c-0.1,0-0.2,0-0.2,0c0,0.4,0.1,0.7,0.1,1.1c0.1,0,0.2,0,0.3,0C380.8,28.4,380.7,28.1,380.7,27.7z M361.5,32.8
		c0,0-0.1,0-0.1,0c0,0.4,0,0.8,0,1.2c0,0,0.1,0,0.1,0C361.5,33.6,361.5,33.2,361.5,32.8z M361.5,50.9c0.2-0.4,0.3-0.6-0.1-0.8
		C361.2,50.4,361.1,50.7,361.5,50.9z M379.3,33.7c0.2-0.7,0.2-0.7,0-1.2C379.3,32.9,379.3,33.2,379.3,33.7z M361.3,36.7
		c0.3-0.4,0.1-0.6,0-0.9C361.3,36,361.3,36.3,361.3,36.7z M361.5,31.5c0.1,0,0.1,0,0.2,0c0-0.2,0-0.4-0.1-0.6c-0.1,0-0.1,0-0.2,0
		C361.5,31,361.5,31.2,361.5,31.5z M366.5,59.9C366.5,59.9,366.6,59.8,366.5,59.9C366.5,59.8,366.5,59.8,366.5,59.9
		C366.5,59.9,366.5,59.9,366.5,59.9z"/>
	<path d="M78.2,16.3c1-0.3,2-0.6,3-1c0-0.2,0.1-0.5,0.1-0.8c-0.1-0.8-0.2-1.6-0.3-2.4c-0.1-0.8,0.1-1.4,0.8-1.8
		c0.5-0.3,1-0.6,1.7-0.9c0.5-0.9,1.4-1.7,2.7-2C86.9,7.6,87.6,8,88,8.9c0.4-0.1,0.8-0.2,1.1-0.2c1.1,0.6,1.6,1.6,2,2.7
		c0.9,2.9,1.7,5.9,1.9,9c0.1,1.2,0.3,2.3,0.4,3.5c0,0.2,0.1,0.4,0.1,0.6c0.2,4.8,0.6,9.7,0.3,14.5c-0.3,4.7-0.7,9.5-2.1,14
		c-0.3,1-0.6,1.9-0.9,2.9c-0.5,1.7-1.4,3.3-2.5,4.7c-1.4,2-3.5,3-5.9,3.3c-1.8,0.2-3.5,0.1-5.3-0.1c-0.5,0-1.1-0.1-1.6-0.3
		c-1.4-0.5-2.9-0.8-4.4-1.1c-1.5-0.3-2.5-1.2-3.3-2.4c-1.2-1.8-1.9-3.8-2-5.9c0-0.4-0.1-0.9,0-1.3c0.2-1.5,0.5-3,0.8-4.4
		c0.1-0.5,0.1-1,0.2-1.4c0.2-1.2,0.6-2.4,1-3.5c0.5-1.1,0.8-2.3,1.4-3.4c0.3-0.7,0.6-1.5,0.8-2.3c0.1-0.7,0.4-1.3,0.7-2
		c0.7-1.5,1.4-2.9,2.2-4.3c1-1.6,1.7-3.3,2.4-5.1c0.4-1,0.8-2.1,1.2-3.2c0.4-1.1,0.9-2.3,1-3.6c0-0.6,0.6-1,0.5-1.6
		C77.9,17.7,78.1,17.1,78.2,16.3z M80.5,26.2C80.6,26.1,80.7,26,80.5,26.2C80.7,26,80.6,26.1,80.5,26.2c0,0.1-0.1,0.2,0,0.1
		C80.5,26.4,80.5,26.3,80.5,26.2z M71.2,45.9C71.2,45.9,71.2,45.9,71.2,45.9C71.1,45.9,71.2,45.9,71.2,45.9c0.1-0.1,0.3-0.2,0.1-0.4
		C71.3,45.6,71.2,45.8,71.2,45.9z M76.4,44.9c0.1-0.1,0.4-0.2,0.1-0.5C76.4,44.7,76.4,44.8,76.4,44.9c-0.2,0.2-0.3,0.4-0.1,0.8
		C76.3,45.4,76.3,45.2,76.4,44.9z M79.9,36.5c0.3-0.1,0.3-0.4,0.3-0.7c0.6-0.2,0.7-0.7,0.7-1.3c0.3-0.1,0.3-0.4,0.3-0.7
		c0.8-0.4,1-1.1,1-1.9l0.1-0.1L82.2,32c-0.5,0.5-0.8,1.2-1,1.9c-0.1,0.2-0.2,0.5-0.3,0.7c-0.5,0.3-0.7,0.7-0.7,1.3
		C80,36,79.9,36.3,79.9,36.5c-0.6,0.3-0.7,0.7-0.6,1.3c-0.6,0.3-0.7,0.8-0.8,1.3c0.5-0.3,0.7-0.8,0.8-1.4
		C79.7,37.5,79.9,37.1,79.9,36.5z M90.6,47.8c-0.1,0.1-0.2,0.1-0.2,0.2c-0.3,1.2-0.7,2.5-1,3.7c-0.1,0.2,0,0.4,0,0.7
		c0.5-1.2,0.9-2.3,1.2-3.5C90.7,48.6,90.6,48.2,90.6,47.8c0-0.1,0.1-0.2,0.2-0.3c0.5-1.5,0.4-3.1,0.6-4.6
		C90.9,44,90.6,46.4,90.6,47.8z M82.1,36.9c-0.2,0.3-0.4,0.5-0.5,0.8c-0.8,1.8-1.7,3.5-2.4,5.3c-1.1,2.7-1.8,5.5-2.3,8.4
		c-0.3,1.9-0.3,3.7,0.2,5.6c0.1,0.3,0.2,0.5,0.6,0.5c0.1-0.1,0.3-0.2,0.3-0.3c0.8-1.1,1.4-2.3,1.8-3.6c0.4-1.4,0.8-2.9,1.2-4.3
		c0.4-1.6,0.7-3.1,0.8-4.7c0.1-0.9,0.1-1.8,0.3-2.7C82.3,40.2,82.2,38.6,82.1,36.9z M91.3,42.1c0.8-3,0.3-5.7,0.8-8.3
		c-0.4-1.8,0-3.6-0.4-5.4c-0.4,0.5-0.3,1.1-0.2,1.6c0.2,2.8,0.2,5.7-0.1,8.5C91.3,39.6,91.3,40.7,91.3,42.1z M78.1,40
		c0,0,0,0.1,0,0.1C78.1,40.1,78.2,40.1,78.1,40C78.2,40,78.2,40,78.1,40z M77.8,41.1c0,0,0-0.1,0-0.1C77.8,41,77.8,41,77.8,41.1
		C77.8,41.1,77.8,41.1,77.8,41.1z M72.1,43.7c0,0,0-0.1,0-0.1c0,0-0.1,0-0.1,0C71.9,43.7,72,43.7,72.1,43.7
		C72,43.7,72,43.7,72.1,43.7z M75.5,35.8c0,0,0,0.1,0,0.1c0,0,0,0,0.1,0C75.6,35.9,75.6,35.9,75.5,35.8
		C75.6,35.9,75.6,35.8,75.5,35.8z M91.1,22.5l-0.1,0.1l0.1,0L91.1,22.5z"/>
	<path d="M155.9,23.7c-0.8,2.7-1.1,5.4-1.5,8c0,0.2,0.1,0.4,0.1,0.7c1-0.4,1.9-0.7,2.7-1.2c1.3-0.7,2.5-1.5,3.7-2.3
		c0.9-0.6,1.8-1.2,2.8-1.5c0.6-0.2,1.1-0.4,1.6-0.7c0.7-0.4,1.4-0.5,2.2-0.4c0.2,0.3,0.4,0.6,0.6,0.9c1-0.1,2-0.4,3,0
		c0.1,0.3,0.2,0.7,0.3,1c-0.5,0.8-0.9,1.5-1.5,2.4c0.5-0.1,0.9-0.2,1.4-0.3c0.1,0.2,0.2,0.3,0.4,0.5c-0.2,0.6-0.5,0.9-1,1.2
		c-1.8,1.1-3.6,2.2-5.4,3.2c-3.4,1.7-7,3.1-10.6,4.3c-0.3,0.1-0.6,0.2-0.8,0.3c-0.4,0.5-0.4,1.1-0.4,1.6c0,2.6,0.3,5.2,1,7.7
		c0,0.1,0,0.1,0,0.2c0.6,1.9,1.5,2.5,3.5,2.2c0.5-0.1,1.1-0.2,1.6-0.4c1.6-0.7,3.3-1.2,4.9-2.2c0.7-0.4,1.5-0.6,2.3-0.7
		c0,0.2,0,0.4,0,0.7c1.5,0,2.6-1.5,4.2-1.1c-0.8,2.2-1.9,4-3.8,5.2c0.1,0.2,0.1,0.3,0.2,0.5c-1.1,0.6-2.1,1.2-2.8,2.1
		c-1.6,0.6-3.2,0.6-4.7,0.6c-0.8,0-1.5,0.1-2.3,0.1c-1.8,0.1-3.5-0.4-5.2-1c-1.1-0.4-2.1-0.8-3.2-1.1c-2.4-0.8-3.9-2.5-4.8-4.7
		c-1-2.6-1.3-5.3-1.4-8.1c0-0.7,0-1.4,0-2.1c0-0.5-0.1-0.9-0.2-1.4c0-0.4-0.1-0.8,0-1.1c0.4-1.5,0.6-2.9,0.6-4.5
		c0-0.7,0.2-1.5,0.4-2.2c0.4-1.8,0.3-3.5-0.2-5.2c0-0.1-0.1-0.3-0.2-0.4c-0.1-0.1-0.1-0.1-0.2-0.1c-0.2,0-0.4,0-0.7,0
		c-0.2-0.2-0.5-0.5-0.7-0.7c-0.1-1.1,0.3-1.7,1.1-2.2c0.5-0.3,1-0.6,1.5-0.9c0.5-0.3,0.9-0.8,1.1-1.3c0.3-0.8,0.8-1.2,1.5-1.6
		c0.6-0.3,1.1-0.7,1.9-0.7c0.7,0.4,1.5,0.7,2.3,0c0.2-0.2,0.6-0.2,0.9-0.2c1.6,0.1,2.9-0.7,4.2-1.4c1.1-0.5,2.1-1.1,3.1-1.7
		c1.1-0.5,2.2-1.2,3.1-2c1.4-1.1,3.1-1.7,4.6-2.6C167.6,9,168,9,168.3,9c0.4,0,0.8,0,1.1-0.1c1.1-0.4,2-0.2,2.6,0.7
		c1.2,0.2,2.5-0.4,3.4,0.8c0.1,0.5,0.2,1,0.3,1.5c-0.4,1.3-1.8,1.2-2.4,2.2c-1-0.2-1.8,0.3-2.7,0.6c-0.1,0.2-0.1,0.4-0.2,0.6
		c0.4,0,0.7,0,1,0.1c-1,0.9-3.9,2.6-7.7,4.5C161.1,21.1,158.5,22.4,155.9,23.7z M151.9,32.8c0.5-1,0.5-1,0.4-2.3
		c-0.2,0.6-0.3,1-0.4,1.3C151.9,32.1,151.9,32.4,151.9,32.8z M146.7,41.4c-0.1,0.9-0.1,1.7,0.1,2.6
		C146.9,43.1,146.9,42.3,146.7,41.4z M147.3,31c0.2,0.9-0.2,1.6,0.2,2.5c0.1-0.9,0.1-1.5,0.2-2.1C147.6,31.3,147.6,31.2,147.3,31z
		 M151.3,42c0.3-0.4,0.3-0.8,0-1.2C151,41.2,151.1,41.6,151.3,42z M152.5,29.5c0,0,0.1,0,0.1,0c0-0.2,0-0.3,0-0.5c0,0-0.1,0-0.1,0
		C152.5,29.2,152.5,29.3,152.5,29.5z M152.7,28.3c0.1-0.1,0.1-0.2,0.2-0.2c0,0-0.1-0.1-0.1-0.1c-0.1,0-0.2,0.1-0.2,0.2
		C152.6,28.1,152.7,28.2,152.7,28.3z M151.4,43.1c0,0,0-0.1,0-0.1c0,0-0.1,0-0.1,0C151.3,43,151.3,43,151.4,43.1
		C151.3,43.1,151.3,43.1,151.4,43.1z M147.2,34.1c0,0-0.1,0-0.1,0c0,0,0,0.1,0,0.1c0.1,0,0.1,0,0.2,0
		C147.2,34.2,147.2,34.2,147.2,34.1z M147.1,44.8C147.1,44.8,147,44.8,147.1,44.8c-0.1,0.1-0.1,0.1-0.1,0.2c0,0,0.1,0,0.1,0
		C147.1,44.9,147.1,44.9,147.1,44.8z"/>
	<path d="M412.4,48.3c-1.1,0.9-2.1,0.6-3,0.1c-0.3-0.5,0-0.9,0.3-1.1c0.9-0.7,1.8-0.9,2.8-0.1C412.5,47.6,412.5,48,412.4,48.3z"/>
	<path d="M243.9,45.6c0,0.3,0,0.6-0.1,1.1C243.4,46.2,243.6,45.9,243.9,45.6L243.9,45.6z"/>
	<path d="M113.1,41.1c0,0.2-0.1,0.4-0.1,0.6C112.7,41.3,112.8,41.2,113.1,41.1L113.1,41.1z"/>
	<polygon points="45.5,45.3 45.4,45.3 45.5,45.2 	"/>
	<polygon points="380,21.2 380,21.1 380.1,21.1 	"/>
	<path d="M136.6,40.4c0-0.2,0.1-0.3,0.3-0.3c0,0,0,0,0,0C136.8,40.2,136.7,40.3,136.6,40.4C136.6,40.4,136.6,40.4,136.6,40.4z"/>
	<path d="M137.2,39.8c0,0,0-0.1,0-0.1C137.3,39.7,137.2,39.7,137.2,39.8L137.2,39.8z"/>
	<path d="M137.2,39.7c-0.1,0.1-0.2,0.2-0.3,0.3c0,0,0,0,0,0C137,40,137.1,39.9,137.2,39.7L137.2,39.7z"/>
	<polygon points="372.2,54.4 372.3,54.3 372.2,54.4 	"/>
	<path d="M307.9,58.5c-0.2-0.3-0.2-0.3-0.1-0.6C307.8,58.2,307.8,58.4,307.9,58.5L307.9,58.5z"/>
	<polygon points="306.5,61.8 306.4,62 306.4,61.8 	"/>
	<polygon points="306.1,62.9 306,62.9 306,62.8 	"/>
	<path d="M351.1,38.6c0.5,0.8,0.4,1.4,0.4,2C351,40,351,40,351.1,38.6z"/>
	<path d="M203.7,46c-0.2,0.1-0.4,0.1-0.6,0.2c-0.3-0.5,0.1-0.7,0.4-1.1C203.6,45.5,203.6,45.8,203.7,46L203.7,46z"/>
	<path d="M351,36.5c-0.3-0.2-0.4-0.3-0.2-0.6c0,0,0.1,0,0.1,0C351.2,36,351.2,36.2,351,36.5z"/>
	<path d="M351.4,44.4c-0.4-0.3-0.1-0.6-0.1-0.9C351.4,43.8,351.4,44.1,351.4,44.4z"/>
	<path d="M350.7,34.2c0.3,0.3,0.2,0.5,0.1,0.8C350.5,34.7,350.6,34.5,350.7,34.2z"/>
	<path d="M203.8,42c0-0.2,0.1-0.3,0.1-0.5c0,0,0.1,0.1,0.1,0.1c0,0.1-0.1,0.3-0.1,0.4C203.9,42,203.8,42,203.8,42z"/>
	<path d="M351.3,45.4C351.3,45.4,351.4,45.4,351.3,45.4c0.1,0.1,0.1,0.1,0,0.1c0,0-0.1,0-0.1,0C351.3,45.5,351.3,45.5,351.3,45.4z"
		/>
	<polygon points="351,37.5 351,37.4 351.1,37.5 	"/>
	<path d="M203.9,43.3c0,0-0.1,0-0.1-0.1c0.1,0,0.1-0.1,0.2-0.1C203.9,43.2,203.9,43.2,203.9,43.3z"/>
</g>
</svg>
