<?xml version="1.0" encoding="utf-8"?>
<!-- Generator: Adobe Illustrator 18.1.1, SVG Export Plug-In . SVG Version: 6.00 Build 0)  -->
<svg version="1.1" id="Layer_1" xmlns="http://www.w3.org/2000/svg" xmlns:xlink="http://www.w3.org/1999/xlink" x="0px" y="0px"
	 viewBox="0 0 302.1 73.7" enable-background="new 0 0 302.1 73.7" xml:space="preserve">
<g>
	<path d="M42.2,30c-0.3,7.4,0,13.5,1,19.2c0.2,1.4,0.7,2.8,1.1,4.1c0.1,0.4,0.3,0.8,0.4,1.2c0.7,2.3,2.3,3.5,4.6,3.6l0.3,0l0.3-0.1
		c0.1,0,0.2-0.1,0.3-0.1c0.3-0.1,0.8-0.3,1.2-0.6c2.7-2,4.7-4.5,5.9-7.4c1.3-3.1,2.3-6.5,3.2-11c0.4-1.9,0.6-3.9,0.7-5.8
		c0.2-1.5,0.3-3,0.5-4.5c0.1-0.7,0.2-1.3,0.4-2l0.1-0.3c0.3-0.2,0.5-0.3,0.8-0.5c-0.1,0.9-0.1,1.7-0.2,2.6c-0.2,3-0.4,6.1-0.6,9.1
		c0,0.7-0.2,1.2-0.4,1.6c-1.5,2.2-0.9,4.3-0.3,5.6c0.3,0.6,0.4,1.3,0.5,2.1c0.1,2.6,0.2,5.4,0.3,8.6c0,2.3,1.1,3.8,3.1,4.6
		c0.6,0.2,1.1,0.3,1.6,0.3c1.7,0,2.8-1.1,3.2-3c0.5-3,0.7-5.4,0.7-7.7c0-0.5-0.2-0.9-0.3-1.2c0-0.1-0.1-0.1-0.1-0.2L70.2,48
		c2.7,0.1,5-0.1,7.3-0.4c2-0.3,3.4-0.9,4.6-1.8l0.2-0.2l0.1-0.3c0.8-1.7-0.1-3-0.5-3.5l-0.3-0.3l-0.4-0.1c-1.1-0.4-1.6-0.6-2.4-0.6
		c-0.3,0-0.7,0-1.1,0.1c-1.9,0.2-3.8,0.4-6.4,0.4c-0.4,0-0.7,0-1.1,0c0.4-0.4,0.8-0.9,1.3-1.3c0.3-0.3,0.5-0.5,0.8-0.8
		c0.8-0.8,1.6-1.6,2.4-2.5c1.8-1.9,3.7-3.8,5.6-5.7c1.9-1.9,3.7-4.1,5.3-6.4l0.1-0.2l0.1-0.2c1.1-3.8-0.8-5.9-2.8-7.6l-0.2-0.2
		l-0.3-0.1c-0.3-0.1-0.7-0.2-1.1-0.3c-1-0.3-2.1-0.6-3.4-0.7c-2.3-0.2-4.3-0.2-6.1,0.1c-1.5,0.2-2.8,0.3-3.6,0.3c-0.4,0-0.8,0-1.2,0
		l-0.2,0l-0.2,0.1c-0.8,0.2-1.5,0.4-2.2,0.7c-1.7,0.5-3.2,0.9-4.7,1.3c-0.9,0.2-2,0.5-2.9,1.6l-0.1,0.1l-0.1,0.2
		c-0.5,1.3-0.7,2.6-0.7,4c0,1.1,0,2.1-0.2,2.9c-0.5,1.9-0.8,3.9-1,5.7c-0.1,1-0.3,2.1-0.5,3.1c-0.6,3.4-1.6,6.9-3.2,11.2
		c-0.3,0.8-0.9,1.6-1.5,2.5c0,0-0.1,0.1-0.1,0.1c-0.3-0.6-0.4-1.2-0.5-1.7l-0.1-1c-0.4-2.6-0.7-5.1-0.6-7.6c0.1-1.1,0.1-2.2,0.1-3.3
		c0-1.4,0-2.9,0.2-4.4c0.1-1.8,0.4-3.6,0.8-5.4c0.1-0.3,0.2-0.6,0.3-0.8c1.6-2.1,1.7-4.3,1.6-5.9l0-0.5l-0.3-0.3
		c-0.1-0.1-0.3-0.3-0.4-0.4c-0.3-0.4-0.6-0.7-1-1.1c-1.2-1.1-3.1-1.2-4.4-0.1c-1.2,0.9-1.9,2.1-2.1,3.5C42.6,23.5,42.4,27,42.2,30z
		 M69,32.9c0.2-2.8,0.5-5.4,0.7-8l0-0.1c0-0.4,0.1-0.7,0.1-1c0.3-1.1,0.7-1.5,1.7-1.6c1.7-0.3,3.2-0.4,4.7-0.4c0.5,0,1,0,1.5,0
		c0.3,0,0.5,0.1,0.8,0.2c-0.5,1-1,1.9-1.7,2.7c-1.5,1.6-3.1,3.3-4.7,4.9l-1.6,1.7C70,31.9,69.5,32.4,69,32.9z"/>
	<path d="M170.9,25.4l0.2,0l0.2-0.1c1-0.4,1.7-1,2.2-1.6c0.1-0.1,0.2-0.2,0.4-0.4c0.5-0.5,1-1,1.5-1.3c1.5-0.7,3.2-1.4,5-1.6
		c0,2.2-0.7,15.9-1,18.6c-0.6,0.4-1.3,0.7-2,1c-0.9,0.4-2,0.8-2.9,1.5l-0.3,0.3l-0.1,0.4c0,0.1-0.1,0.2-0.1,0.3
		c-0.1,0.3-0.2,0.6-0.3,1c-0.1,1.1,0.1,2,0.7,2.7c0.8,0.9,2,1.2,3.2,0.9c0.4-0.1,0.8-0.3,1.2-0.4c0.1,0,0.1-0.1,0.2-0.1
		c0.1,2.3,0.1,4.8,0,7.8l0,0.2c0,1.7-0.1,3.4-0.6,4.9c-0.3,0.8-0.4,2.2,0.5,3.8c0.3,0.5,0.7,0.9,1,1.3c0.1,0.1,0.2,0.2,0.3,0.3
		l0.3,0.3l0.4,0.1c0.3,0.1,0.7,0.1,1,0.1c1,0,1.9-0.4,2.6-1.2c0.7-0.9,1.1-1.9,1-3l-0.1-1.6c-0.1-1.8-0.2-3.6-0.2-5.3
		c0-2.9,0.1-5.9,0.2-8.9l0.1-2.4l0.8-0.3c0.1,0.1,0.2,0.1,0.3,0.1c0.5,0.3,1,0.5,1.3,0.8c2.6,2,5.3,3.9,7.7,5.5
		c1.2,0.8,2.4,1.7,3.4,2.4c0.8,0.6,1.5,1.2,2.3,1.8c1.3,1,2.7,2.1,4.1,3.1c0.9,0.7,2,1.2,3.4,1.7c0.4,0.1,0.8,0.2,1.2,0.2
		c1.6,0,3.1-1.2,3.5-2.9l0.1-0.3l-0.6-2.2l-0.4-0.3c-0.3-0.2-0.7-0.4-1-0.6c-0.7-0.4-1.5-0.9-2.3-1.3c-0.6-0.3-1.1-0.7-1.7-1.2
		c-0.5-0.4-0.9-0.7-1.5-1.1c-2.9-1.9-5.8-3.9-8.5-6c-1.1-0.8-2.3-1.7-3.4-2.5c-0.7-0.5-1.3-1-1.8-1.6c0.9-0.6,1.9-1.3,2.8-1.9
		c1.3-0.9,2.6-1.7,4-2.6c2.7-1.8,5.8-3.9,8.5-6.6c1.3-1.3,2.7-2.7,3.2-5.5l0.1-0.3l-0.1-0.3c0-0.1-0.1-0.2-0.1-0.3
		c-0.1-0.5-0.3-1.2-0.8-1.8c-0.9-1.1-1.8-1.9-2.7-2.5c-3.1-1.9-5.8-3-8.6-3.5c-1.7-0.3-3.6-0.4-5.7-0.4c-1.7,0-3.4,0.1-4.8,0.2
		c-0.6,0-1.1,0.1-1.7,0.1c-2,0.1-4,0.1-6.1,0.9c-3,0.2-5.6,1.2-8.2,2.3l-0.1,0c-1.4,0.5-3.1,1.4-4.4,3.1l-0.1,0.2l-0.7,2.3l0.1,0.4
		C167.8,24.8,169.6,25.4,170.9,25.4z M186.1,33.4c0-1.3,0-2.6,0.1-3.9c0.1-1.9,0.2-4.5,0.3-7c0.1-1.5,0.3-2.2,1.2-3.2
		c4.9-0.6,8.8-0.3,12.4,0.9l0.3,0.1c1.4,0.5,2.7,0.9,3.5,1.9c-0.1,0.2-0.2,0.3-0.3,0.4c-2,2-4.2,4-6.8,5.6c-1.9,1.2-3.8,2.4-5.7,3.6
		c-0.9,0.6-1.9,1.2-2.8,1.8c-0.1,0-0.1,0.1-0.2,0.1l-2-0.1C186.1,33.5,186.1,33.4,186.1,33.4z"/>
	<path d="M261.4,39.4c-0.2-2.3-0.5-4.6-0.6-6.9c-0.1-1-0.2-1.9-0.3-2.9c-0.2-2.2-0.4-4.5-0.4-6.7c0-1-0.1-2.1-0.5-3.4
		c-0.4-1.2-1.5-2-2.8-2c-0.9,0-1.7,0.4-2.2,1c-0.4,0.4-0.7,0.9-0.9,1.5c-0.7,1.5-0.7,3.1-0.7,4.2c0.1,2.4,0.3,4.8,0.5,7.1l0,0.4
		c0.1,1.2,0.2,2.3,0.3,3.5c0.1,1.4,0.3,2.8,0.4,4.2c0.2,2.7,0.3,5.4,0.5,8l0.1,1.3c0.1,2.3-0.1,4.6-0.6,7c-1.5-2.5-2.9-5-4.1-7.5
		c-0.9-1.7-1.7-3.4-2.5-5.1c-0.8-1.6-1.5-3.2-2.3-4.7c-0.7-1.3-1.3-2.6-2-3.9c-0.8-1.5-1.6-3.1-2.4-4.6c-0.6-1.2-1.1-2.4-1.3-3.8
		c-0.1-0.9-0.5-1.7-0.9-2.4c-1.2-2-3.2-3-5.9-2.9l-0.5,0l-0.4,0.4c-2.7,3-2.9,4.6-0.9,7.5c0.5,1.6,0.5,3,0.3,4.7
		c-0.1,0.4-0.1,0.8-0.1,1.2c0,0.1,0,0.3,0,0.4c0,0.7,0,1.4,0,2.2c0,1.6,0,3-0.2,4.5c-0.2,1.3-0.3,2.6-0.5,3.9
		c-0.4,3.7-0.9,7.5-1.8,11.2c-0.7,2.7,0.5,5.2,3.2,6.4l1.5,0.6l0.5-0.2c3.1-1.1,4.3-3.1,3.7-6.1c-0.3-1.3-0.3-2.6-0.2-4l0.3-2.3
		c0.4-3.5,0.8-7.1,1-10.7c0.4,0.9,0.9,1.7,1.3,2.6c0.5,1,1,1.9,1.5,2.9c0.4,0.7,0.7,1.4,1.1,2.1c0.7,1.3,1.5,2.7,2.1,4.1
		c1.6,3.6,3.7,7,5.7,10.3l0.8,1.3c1,1.6,2.5,2.8,4.7,3.7l0.6,0.3l2.9-1.9l0.2-0.4c0.1-0.3,0.3-0.6,0.4-1c0.3-0.7,0.6-1.4,0.8-2.1
		c0.1-0.4,0.3-0.9,0.4-1.3c0.5-1.4,1-2.8,1.1-4.4c0.3-3,0.3-6,0.1-9.1C261.9,44.9,261.6,42.1,261.4,39.4z"/>
	<path d="M296.7,39.5l-0.2,0c-0.2,0-0.3,0-0.5,0c-0.1,0-0.1,0-0.2,0l-0.9,0c-0.9,0-1.9,0.1-2.8,0.1c-1.1,0-2.2,0-3.3,0
		c-3.2,0-6.4,0.1-9.7,0.2c-1.2,0.1-2.7,0.3-3.7,1.7l-0.2,0.3l0,0.4c-0.1,1.7,0,2.9,1.9,3.8c0.7,0.3,1.5,0.5,2.4,0.6
		c2,0.2,4,0.3,5.9,0.3c0.9,0,1.7,0,2.6,0c0.4,0,0.8,0,1.2,0.1c0.3,0,0.7,0.1,1,0.1l0.4,0c0.2,0,0.5,0,0.7,0c0,0.1-0.1,0.2-0.1,0.3
		l-0.5,0.8c-0.5,1-1.1,2-1.7,3c-0.7,1.1-1.5,2.4-2.5,3.9c-0.2,0.3-0.5,0.6-0.8,0.9l-0.3,0.3c-1,1.1-2.1,1.4-3.5,1.2
		c-1-0.2-1.9-0.4-2.8-0.7c-0.3-0.1-0.6-0.1-0.8-0.2c-1.4-1.3-2.1-2.5-2.4-4c-0.1-0.3-0.2-0.6-0.3-0.9c-0.7-1.1-0.9-2.3-1.1-3.7
		c-0.1-0.5-0.2-1-0.3-1.5c-0.4-1.6-0.3-3.2-0.2-5c0-0.5,0-1,0-1.5c0-1.4,0.2-2.9,0.5-4.7c0.3-1.5,0.7-3.1,1.2-4.3
		c0.9-2.9,2.2-4.9,3.9-6.2c0.4-0.1,0.8-0.2,1.1-0.2c0.8,0,1.8,0.2,2.9,2c0.5,0.9,0.9,1.6,1,2.5c0.1,1.2,0.5,2.3,1.1,3.1l0.2,0.2
		c1.1,0.9,2.2,1.3,3.7,1.1l0.3,0l2.3-1.7l0.1-0.5c0.3-1.5,0.1-2.8-0.2-3.9c-0.6-2.5-1.9-4.8-3.9-6.8c-2.5-2.6-5.4-3.8-8.4-3.7
		c-0.8,0-1.7,0.2-2.5,0.3c-1.9,0.4-3.5,1.4-4.8,3.1c-2.7,3.7-4.5,8.3-5.6,13.8c-0.2,1-0.4,2.1-0.4,3.2c-0.1,1.6,0,3.3,0,4.9
		c0,0.6,0,1.3,0,1.9c0,2.8,0.5,5.4,1.4,8.4c0.4,1.6,1.1,3.1,1.7,4.6c0.2,0.5,0.4,1,0.6,1.4c0.9,2,2.4,3.7,4.5,4.6
		c2.7,1.2,5,2,7.4,2.4c0.5,0.1,1.1,0.1,1.6,0.1c2.5,0,4.6-1.2,6.3-2.3c1.9-1.3,3-3.1,4.1-5.2c0.4-0.8,0.8-1.5,1.2-2.3
		c0.6-1.1,1.1-2.2,1.7-3.2c1.1-2,2.5-3.8,4.2-6l0.2-0.2l0.6-2.5l-0.1-0.3C301,40.8,299.7,39.7,296.7,39.5z"/>
	<path d="M17.8,71.4L17.7,70c-0.1-0.7-0.1-1.4-0.1-2c-0.1-1.9-0.2-3.8-0.3-5.7c-0.1-2.6-0.2-5.1-0.4-7.7c-0.2-3.3-0.2-6.7-0.2-10
		l0-2.5c0-1.4,0-2.8,0-4.3c0-0.4,0.1-0.8,0.1-1.2c0,0,0-0.1,0-0.1c0,0,0,0,0.1,0c0.3-0.2,0.6-0.4,0.8-0.5c2.4-1.2,4.4-2.7,6.5-4.2
		l1.4-1c2.9-2.2,5.9-4.4,8.7-6.7l0.1-0.1c2.7-2.2,5.5-4.5,7.5-7.6c1.4-2.1,1.7-4.7,1-7.1c-0.7-2.4-2.4-4.4-4.5-5.3
		C35.1,2.5,32,2.1,29,2.7C28,3,26.9,3.2,25.9,3.4c-1.4,0.3-2.8,0.6-4.1,0.9c-0.3,0.1-0.5,0.1-0.8,0.2c-0.3,0.1-0.5,0.2-0.7,0.2
		l-1.8-1.9l-0.6,0c-3.4,0.2-3.9,0.8-5,4.3c-0.3,0.2-0.7,0.3-1,0.5c-0.8,0.3-1.6,0.6-2.4,0.8c-1.3,0.4-2.7,0.8-4,1.6c0,0-0.1,0-0.1,0
		c-1.5,0-2.7,0.7-3.7,1.3l-0.7,0.4L0.8,12c-0.8,1.8-0.9,2.1-0.6,3.9l0,0.4l0.4,0.5c0.1,0.2,0.3,0.4,0.4,0.5c0.6,0.7,1.6,1.6,3,1.6
		c0.8,0,1.6-0.3,2.5-0.9c0.3-0.2,0.5-0.4,0.8-0.5c0.5-0.4,1-0.7,1.5-0.9c1.1-0.6,2.2-1.2,3.4-1.6c-0.1,2.3-0.3,4.7-0.5,7
		c-0.3,3.3-0.6,6.7-0.6,10c-0.5,0.1-1.1,0.3-1.6,0.4c-1.6,0.5-2.5,1.9-2.3,3.5c0.2,1.6,1.4,2.7,3.1,2.8c0.2,0,0.4,0,0.5,0
		c0,1.6,0,3.2,0,4.9c0,2.8,0,5.5,0,8.3c0,1.3,0,2.6,0.1,3.9c0,0.7,0,1.4,0.1,2.2l0,0.8c0,0.9,0,1.8,0,2.7c-0.1,2.1-0.1,4.2-0.2,6.3
		l-0.1,3.2l2.2,2.6l3.5,0.1L17.8,71.4z M17.4,29.1c0-4.4,1-13.7,2-17.1c0.4-0.3,1-0.5,1.7-0.7c2.7-0.8,5.9-1.8,9.1-2.4
		c1.5-0.3,3-0.2,4.7,0.4c0.1,0,0.5,0.1,0.7,0.3c1.6,1.2,1.8,2,0.9,3.5c-0.8,1.4-1.8,2.6-3,3.6c-4.2,3.7-7.7,6.6-11.2,8.9
		C20.6,26.8,19,28,17.4,29.1z"/>
	<path d="M96.1,26.1l0,0.3c0.1,1.4,0.9,2.3,1.6,3l0.8,0.9l0.8-0.4c0.2-0.1,0.3-0.1,0.5-0.2c0.4-0.2,0.8-0.3,1.2-0.6
		c0.4-0.3,0.9-0.6,1.2-0.9c0.2-0.2,0.4-0.4,0.7-0.5c0.7-0.5,1.6-0.9,2.5-1.3c0,0.2-0.1,0.4-0.1,0.7l0,0.2c-0.5,2.9-0.8,5.9-1.1,8.8
		c-0.1,0.7-0.1,1.4-0.2,2c-0.1,1.3-0.2,2.5-0.3,3.8c0,0.6-0.1,1.2-0.1,1.8l-0.3,3.3c-0.1,1-0.1,2-0.1,2.9c0,1.4,0,2.7-0.2,3.9
		c-0.2,1.3,0.2,2.7,1.3,3.8c0.7,0.8,2,1.3,3.3,1.3c0.6,0,1.2-0.1,1.7-0.4c0.9-0.4,2-1.4,1.9-3.6l0-0.4c0-1.4-0.1-2.9-0.4-4.3
		c-0.2-1-0.3-1.9-0.3-2.9c0.1-1.1,0.1-2.1,0.2-3.2c0.2-2.9,0.3-5.9,0.7-8.9c0.4-3.6,1-7.2,1.5-9.9l0.1-0.3c0.1-0.6,0.2-0.9,0.4-1.2
		l0,0c0.2-0.1,0.5-0.2,0.7-0.2l1-0.3c2.9-0.9,5.8-1.8,8.7-2.9c-0.5,1.4-0.2,2.7,0.1,3.7l0.1,0.5l0.1,0.2c0.2,0.3,0.5,0.6,0.7,0.9
		c0.5,0.6,0.8,1.1,1.2,1.6c0.5,0.8,0.8,1.7,1.2,2.6c1.4,3.4,3.2,6.6,4.7,9.3c0.1,0.1,0.1,0.3,0.2,0.4c0.1,0.2,0.2,0.4,0.3,0.6
		c0.1,0.3,0.3,0.6,0.4,0.9c0.8,1.5,1.6,3.2,3.4,4.3c0,0.3-0.1,0.6-0.1,0.9l-0.3,1.6c-0.4,2-0.7,4.2-1.1,6.2
		c-0.2,0.9-0.3,1.7-0.5,2.6c-0.4,2.5-0.9,4.9-1.8,7.1c-0.6,1.4-0.5,2.8,0.3,4.1l0.2,0.3l0.3,0.2c0.2,0.1,0.4,0.3,0.6,0.4
		c0.7,0.5,1.7,1.2,2.9,1.2c0.3,0,0.6,0,0.9-0.1l0.3-0.1l0.2-0.2c1.4-1.1,1.7-2.6,1.8-3.6c0.2-1.1,0.4-2.1,0.6-3.2
		c0.4-1.9,0.8-3.8,1-5.8c0.1-0.6,0.2-1.2,0.4-1.9c0.1-0.3,0.2-0.6,0.2-0.9c0.1-0.2,0.1-0.5,0.2-0.7c0.1-0.5,0.2-0.9,0.3-1.4
		c0.3-1.4,0.5-2.7,0.8-4.1c0.3-1.7,0.7-3.4,1-5.1c0.3-1.7,0.7-3.4,1.1-5.1l0.3-1.6c0.3-1.2,0.5-2.5,0.8-3.7c0.5-2.5,1.1-5.2,1.6-7.8
		c0.3-1.6,0.6-3.1,0.9-4.7c0.9-4.9,1.8-10,3.5-14.7c0.2-0.5,0.2-1,0.3-1.3c0-0.1,0-0.2,0-0.3l0.1-0.5l-0.3-0.4
		C152,1.8,150.6,0,148.2,0c-0.4,0-0.9,0.1-1.4,0.2l-0.2,0l-0.2,0.1c-1.8,1.1-2.2,2.8-2.3,4c0,0.3,0,0.5,0,0.8c0,0.4,0,0.8-0.1,1.2
		c-0.4,2.1-0.8,4.2-1.2,6.3c-0.3,1.5-0.6,3-0.8,4.5c-0.1,0.5-0.2,1-0.2,1.5c-0.1,0.5-0.1,1-0.2,1.5c-0.4,2.1-0.8,4.1-1.2,6.2
		c-0.6,3-1.3,6.2-2,9.6c-0.2-0.3-0.4-0.6-0.6-0.9c-0.9-1.5-1.9-3.1-2.7-4.7l-0.2-0.3c-1-2.1-2-4-2.2-6.2c-0.2-1.6-0.9-3.1-2.3-4.4
		l-0.2-0.2L130,19c-0.1-0.1-0.3-0.1-0.4-0.2c1.6-0.6,2.5-1.8,2.7-3.5l0-0.4l-0.2-0.4c-0.8-1.5-2-3.3-4.2-3.3c-0.6,0-1.3,0.1-2,0.4
		c-1.2,0.4-2.3,0.9-3.5,1.4c-0.6,0.2-1.2,0.5-1.7,0.7l-0.9,0.4c-1.6,0.7-3.3,1.4-4.9,2c-0.2,0.1-0.5,0.2-0.8,0.2c0,0,0,0-0.1,0
		c-0.4-0.4-0.8-0.8-1.3-1.1c-0.7-0.4-1.5-0.6-2.2-0.6c-1.4,0-2.7,0.8-3.5,2.3c-0.2,0.4-0.4,0.8-0.6,1.2l-0.1,0.2
		c-1,0.6-2.1,0.9-3.2,1.3l-0.7,0.3c-0.1,0-0.2,0.1-0.3,0.1c-0.4,0.1-0.9,0.3-1.4,0.7l-0.2,0.1c-1.6,1.4-3.3,2.9-4.2,4.9L96.1,26.1z"
		/>
	<path d="M86.7,52c0.1,0.9,0.4,1.9,0.8,3c0.4,1.2,1.5,2.6,4,2.8c0.1,0,0.2,0,0.3,0c1.3,0,2.4-0.8,2.8-2.1c0.3-1.1,0.3-2.1-0.2-3.2
		c-0.7-1.5-1-3.1-1-5c-0.1-2.4,0-4.8,0.1-7.1c0.1-2.2,0.3-4.5,0.5-6.7l0.1-1.5c0-0.5,0.1-1.1,0.3-1.5c0.6-1.2,0.8-2.4,1.1-3.5
		c0.1-0.3,0.2-0.7,0.2-1c0.5-2.1,1.1-4.2,1.6-6.4c0.1-0.6,0.3-1.2,0.3-1.8c0.2-2.6-1.2-3.6-2.8-4.5c-1.4-0.8-3.2-0.3-4.7,1.2
		c-0.7,0.8-1.2,1.7-1.3,2.8c-0.1,0.9-0.3,1.7-0.5,2.8c-0.1,0.5-0.2,1-0.3,1.5l-0.3,3c-0.2,2.4-0.5,5-0.8,7.6
		c-0.1,1.1-0.2,2.2-0.3,3.3c-0.1,1.1-0.2,2.3-0.3,3.4C86.1,43,86.2,47.1,86.7,52z"/>
	<path d="M217.9,59.3c0,1,0,2.1,0.6,3.3l0.1,0.3l0.2,0.2c0.1,0.1,0.2,0.2,0.3,0.2c0.3,0.3,0.7,0.6,1.1,0.9c0.7,0.4,1.4,0.6,2.1,0.6
		c0.8,0,1.5-0.3,2.2-0.8c1.4-1.1,1.2-2.8,1.1-3.5c0-0.2-0.1-0.3-0.1-0.5c-0.7-2.1-1-4.5-1-7.4c0-1.5,0-3-0.1-4.6
		c0-2-0.1-4.1-0.1-6.2c0-4,0.2-8,0.4-11.8c0-0.8,0.1-1.6,0.1-2.3c0.1-2,0.1-3.9,0.5-5.8c0.3-1.4-0.2-2.6-0.6-3.5
		c-0.6-1.2-1.7-1.9-3-1.9c-1.8,0-3,0.9-3.9,2.7l-0.2,0.4l0.1,0.4c0.4,2,0.3,4,0.2,6.2c0,0.5,0,1-0.1,1.6c-0.2,4.9-0.3,9.7-0.3,14.5
		c0,1.2,0,2.5-0.1,3.8c-0.1,2.5-0.1,5.2,0.1,7.8C217.9,55.5,218,57.3,217.9,59.3z"/>
</g>
</svg>
