<?xml version="1.0" encoding="utf-8"?>
<!-- Generator: Adobe Illustrator 18.1.1, SVG Export Plug-In . SVG Version: 6.00 Build 0)  -->
<svg version="1.1" id="Layer_1" xmlns="http://www.w3.org/2000/svg" xmlns:xlink="http://www.w3.org/1999/xlink" x="0px" y="0px"
	 viewBox="0 0 173.2 46.1" enable-background="new 0 0 173.2 46.1" xml:space="preserve">
<g>
	<g>
		<path fill="#FFFFFF" d="M45.9,28.6c1.3,0.8,3.3,1.4,5.3,1.4c2.6,0,4-1.2,4-3c0-1.7-1.1-2.7-3.9-3.7c-3.6-1.3-6-3.2-6-6.4
			c0-3.6,3-6.4,7.8-6.4c2.4,0,4.2,0.5,5.3,1.1l-1,3.2c-0.8-0.4-2.3-1-4.4-1c-2.6,0-3.7,1.4-3.7,2.7c0,1.7,1.3,2.5,4.2,3.6
			c3.8,1.4,5.7,3.4,5.7,6.5c0,3.5-2.7,6.6-8.4,6.6c-2.3,0-4.7-0.7-6-1.4L45.9,28.6z"/>
		<path fill="#FFFFFF" d="M72.8,32.5c-0.9,0.4-2.5,0.9-4.5,0.9c-5,0-8.2-3.2-8.2-8.2c0-4.8,3.3-8.5,8.9-8.5c1.5,0,3,0.3,3.9,0.8
			l-0.7,3c-0.7-0.3-1.6-0.6-3-0.6c-3.1,0-4.9,2.3-4.9,5.2c0,3.3,2.1,5.1,4.9,5.1c1.4,0,2.4-0.3,3.2-0.6L72.8,32.5z"/>
		<path fill="#FFFFFF" d="M74.2,9.7h4.1v9.5h0.1c0.5-0.8,1.2-1.4,2-1.8c0.8-0.5,1.7-0.7,2.8-0.7c2.7,0,5.6,1.8,5.6,6.9V33h-4V24
			c0-2.3-0.9-4.1-3.1-4.1c-1.6,0-2.7,1-3.1,2.3c-0.1,0.3-0.2,0.8-0.2,1.2V33h-4.1V9.7z"/>
		<path fill="#FFFFFF" d="M90.6,21.8c0-1.8,0-3.4-0.1-4.7H94l0.2,2.4h0.1c0.7-1.2,2.4-2.8,5.1-2.8c2.8,0,5.7,1.8,5.7,6.8V33h-4v-9
			c0-2.3-0.9-4-3-4c-1.6,0-2.7,1.1-3.1,2.4c-0.1,0.4-0.2,0.9-0.2,1.3V33h-4.1V21.8z"/>
		<path fill="#FFFFFF" d="M119.3,29.1c0,1.4,0.1,2.8,0.2,3.8h-3.6l-0.3-1.8h-0.1c-1,1.2-2.7,2.1-4.7,2.1c-3.2,0-5-2.3-5-4.7
			c0-4,3.6-6.1,9.5-6v-0.3c0-1-0.4-2.8-3.2-2.8c-1.6,0-3.2,0.5-4.3,1.2l-0.8-2.6c1.2-0.7,3.2-1.4,5.8-1.4c5.1,0,6.6,3.2,6.6,6.7
			V29.1z M115.4,25.2c-2.8-0.1-5.6,0.6-5.6,3c0,1.6,1,2.3,2.3,2.3c1.6,0,2.8-1,3.1-2.2c0.1-0.3,0.1-0.6,0.1-0.9V25.2z"/>
		<path fill="#FFFFFF" d="M133,32.5c-0.9,0.4-2.5,0.9-4.5,0.9c-5,0-8.2-3.2-8.2-8.2c0-4.8,3.3-8.5,8.9-8.5c1.5,0,3,0.3,3.9,0.8
			l-0.7,3c-0.7-0.3-1.6-0.6-3-0.6c-3.1,0-4.9,2.3-4.9,5.2c0,3.3,2.1,5.1,4.9,5.1c1.4,0,2.4-0.3,3.2-0.6L133,32.5z"/>
		<path fill="#FFFFFF" d="M138.3,24L138.3,24c0.5-0.6,0.9-1.3,1.3-1.9l3.9-5.1h4.8l-5.9,6.5l6.7,9.4h-4.9l-4.6-7l-1.4,1.6V33h-4V9.7
			h4V24z"/>
		<path fill="#FFFFFF" d="M151.3,26.1c0.1,2.9,2.4,4.1,4.9,4.1c1.9,0,3.2-0.3,4.4-0.7l0.6,2.8c-1.4,0.6-3.3,1-5.6,1
			c-5.2,0-8.2-3.2-8.2-8.1c0-4.4,2.7-8.6,7.8-8.6c5.2,0,6.9,4.3,6.9,7.8c0,0.8-0.1,1.3-0.1,1.7H151.3z M158.3,23.3
			c0-1.5-0.6-3.9-3.3-3.9c-2.5,0-3.5,2.3-3.7,3.9H158.3z"/>
		<path fill="#FFFFFF" d="M163.6,9.7h4.1V33h-4.1V9.7z"/>
	</g>
	<g>
		<path fill="#FFFFFF" d="M121.5,40.7c0,1.5,1,2.1,2.1,2.1c0.8,0,1.3-0.1,1.7-0.3l0.2,0.8c-0.4,0.2-1,0.4-2,0.4c-1.9,0-3-1.2-3-3
			c0-1.8,1.1-3.2,2.8-3.2c2,0,2.5,1.7,2.5,2.8c0,0.2,0,0.4,0,0.5H121.5z M124.7,39.9c0-0.7-0.3-1.8-1.5-1.8c-1.1,0-1.6,1-1.7,1.8
			H124.7z"/>
		<path fill="#FFFFFF" d="M126.8,39.1c0-0.6,0-1.1,0-1.6h1l0.1,1h0c0.3-0.6,1-1.1,2-1.1c0.8,0,2.1,0.5,2.1,2.6v3.6h-1.1V40
			c0-1-0.4-1.8-1.4-1.8c-0.7,0-1.3,0.5-1.5,1.1c0,0.1-0.1,0.3-0.1,0.5v3.6h-1.1V39.1z"/>
		<path fill="#FFFFFF" d="M138.4,42.6c0,1.4-0.3,2.2-0.9,2.7c-0.6,0.5-1.4,0.7-2.2,0.7c-0.7,0-1.5-0.2-2-0.5l0.3-0.8
			c0.4,0.2,1,0.5,1.8,0.5c1.1,0,1.9-0.6,1.9-2.1v-0.7h0c-0.3,0.6-1,1-1.9,1c-1.5,0-2.6-1.3-2.6-2.9c0-2,1.3-3.2,2.7-3.2
			c1,0,1.6,0.5,1.9,1h0l0-0.9h1c0,0.4,0,0.9,0,1.7V42.6z M137.4,39.9c0-0.2,0-0.3-0.1-0.5c-0.2-0.6-0.7-1.2-1.5-1.2
			c-1,0-1.8,0.9-1.8,2.3c0,1.2,0.6,2.2,1.8,2.2c0.7,0,1.3-0.4,1.5-1.1c0.1-0.2,0.1-0.4,0.1-0.6V39.9z"/>
		<path fill="#FFFFFF" d="M141,35.8c0,0.4-0.3,0.7-0.7,0.7c-0.4,0-0.7-0.3-0.7-0.7c0-0.4,0.3-0.7,0.7-0.7
			C140.8,35.1,141,35.4,141,35.8z M139.8,43.5v-6h1.1v6H139.8z"/>
		<path fill="#FFFFFF" d="M142.4,39.1c0-0.6,0-1.1-0.1-1.6h1l0.1,1h0c0.3-0.6,1-1.1,2-1.1c0.8,0,2.1,0.5,2.1,2.6v3.6h-1.1V40
			c0-1-0.4-1.8-1.4-1.8c-0.7,0-1.3,0.5-1.5,1.1c0,0.1-0.1,0.3-0.1,0.5v3.6h-1.1V39.1z"/>
		<path fill="#FFFFFF" d="M149.5,40.7c0,1.5,1,2.1,2.1,2.1c0.8,0,1.3-0.1,1.7-0.3l0.2,0.8c-0.4,0.2-1,0.4-2,0.4c-1.9,0-3-1.2-3-3
			c0-1.8,1.1-3.2,2.8-3.2c2,0,2.5,1.7,2.5,2.8c0,0.2,0,0.4,0,0.5H149.5z M152.7,39.9c0-0.7-0.3-1.8-1.5-1.8c-1.1,0-1.6,1-1.7,1.8
			H152.7z"/>
		<path fill="#FFFFFF" d="M155.4,40.7c0,1.5,1,2.1,2.1,2.1c0.8,0,1.3-0.1,1.7-0.3l0.2,0.8c-0.4,0.2-1,0.4-2,0.4c-1.9,0-3-1.2-3-3
			c0-1.8,1.1-3.2,2.8-3.2c2,0,2.5,1.7,2.5,2.8c0,0.2,0,0.4,0,0.5H155.4z M158.6,39.9c0-0.7-0.3-1.8-1.5-1.8c-1.1,0-1.6,1-1.7,1.8
			H158.6z"/>
		<path fill="#FFFFFF" d="M160.6,39.4c0-0.7,0-1.3,0-1.9h1l0,1.2h0c0.3-0.8,0.9-1.3,1.7-1.3c0.1,0,0.2,0,0.3,0v1c-0.1,0-0.2,0-0.4,0
			c-0.8,0-1.3,0.6-1.5,1.4c0,0.1,0,0.3,0,0.5v3.2h-1.1V39.4z"/>
		<path fill="#FFFFFF" d="M164.2,42.4c0.3,0.2,0.9,0.4,1.4,0.4c0.8,0,1.2-0.4,1.2-0.9c0-0.5-0.3-0.8-1.1-1.1c-1.1-0.4-1.6-1-1.6-1.7
			c0-1,0.8-1.8,2.1-1.8c0.6,0,1.1,0.2,1.5,0.4l-0.3,0.8c-0.2-0.1-0.7-0.3-1.2-0.3c-0.6,0-1,0.4-1,0.8c0,0.5,0.4,0.7,1.1,1
			c1,0.4,1.6,0.9,1.6,1.8c0,1.1-0.8,1.8-2.3,1.8c-0.7,0-1.3-0.2-1.7-0.4L164.2,42.4z"/>
	</g>
	<g>
		<path fill="#FFFFFF" d="M15.8,0.5C7.1,0.5,0,7.6,0,16.3C0,25,7,32.1,15.7,32.1l0,0v-9.5h0.1c0,0,0,0,0,0c-3.5,0-6.3-2.8-6.3-6.3
			c0-3.5,2.8-6.3,6.3-6.3H28V0.5H15.8z"/>
	</g>
	<g>
		<path fill="#FFFFFF" d="M24.9,43.1c8.7,0,15.8-7.1,15.8-15.8c0-8.7-7-15.8-15.7-15.8l0,0V21h-0.1c0,0,0,0,0,0
			c3.5,0,6.3,2.8,6.3,6.3c0,3.5-2.8,6.3-6.3,6.3H12.7v9.5H24.9z"/>
	</g>
	<rect x="3.2" y="33.6" fill="none" stroke="#FFFFFF" width="9.5" height="9.5"/>
	<rect x="15.6" y="22.6" fill="none" stroke="#FFFFFF" width="9.5" height="9.5"/>
	<rect x="15.6" y="11.5" fill="none" stroke="#FFFFFF" width="9.5" height="9.5"/>
	<rect x="28" y="0.5" fill="none" stroke="#FFFFFF" width="9.5" height="9.5"/>
	<g>
		<path fill="#FFFFFF" d="M171.4,41.9c1,0,1.8,0.8,1.8,1.8c0,1-0.8,1.8-1.8,1.8c-1,0-1.8-0.8-1.8-1.8
			C169.6,42.7,170.4,41.9,171.4,41.9L171.4,41.9z M171.4,42.2c-0.8,0-1.5,0.7-1.5,1.5c0,0.9,0.7,1.6,1.5,1.6c0.8,0,1.5-0.7,1.5-1.5
			C172.9,42.9,172.3,42.2,171.4,42.2L171.4,42.2z M171.1,44.8h-0.3v-2c0.2,0,0.3,0,0.6,0c0.3,0,0.5,0.1,0.6,0.2
			c0.1,0.1,0.2,0.2,0.2,0.4c0,0.3-0.2,0.4-0.4,0.5v0c0.2,0,0.3,0.2,0.3,0.5c0,0.3,0.1,0.4,0.1,0.5h-0.3c0-0.1-0.1-0.3-0.1-0.5
			c0-0.3-0.2-0.4-0.4-0.4h-0.2V44.8z M171.1,43.7h0.2c0.3,0,0.5-0.1,0.5-0.4c0-0.2-0.1-0.4-0.5-0.4c-0.1,0-0.2,0-0.2,0V43.7z"/>
	</g>
</g>
</svg>
