<?xml version="1.0" encoding="utf-8"?>
<!-- Generator: Adobe Illustrator 18.1.1, SVG Export Plug-In . SVG Version: 6.00 Build 0)  -->
<svg version="1.1" id="Layer_1" xmlns="http://www.w3.org/2000/svg" xmlns:xlink="http://www.w3.org/1999/xlink" x="0px" y="0px"
	 viewBox="0 0 54.7 43" enable-background="new 0 0 54.7 43" xml:space="preserve">
<path d="M11.4,7.8c0.1-0.2,0.2-0.4,0.3-0.5c0.8-0.6,1.6-1.2,2.4-1.7c0.5-0.3,1.1-0.5,1.6-0.9c0.3-0.3,0.9-0.3,1.4-0.4
	c0-0.1,0-0.2,0-0.4c0.7-0.3,1.3-0.6,2-0.8c1.1-0.4,2.2-0.9,3.3-1.2c1.7-0.5,3.4-1.1,5.2-1.2c0.3,0,0.6-0.2,0.9-0.3
	c2.5-0.3,5.1-0.5,7.7-0.2c1.9,0.2,3.8,0.5,5.7,1c1.8,0.5,3.4,1.2,5,2c0.8,0.4,1.6,0.8,2.2,1.5c0.3,0.3,0.8,0.4,1.2,0.7
	c2,1.9,3.5,4.1,4.1,6.9c0.2,1,0.4,2.1,0.4,3.1c0,1.2-0.3,2.4-0.6,3.5c-0.3,1.2-0.6,2.3-1,3.4c-0.1,0.3-0.3,0.7-0.4,1
	c-0.7,1.5-1.5,3-2.4,4.3c-0.4,0.5-0.8,0.9-1.2,1.4c-1,1.4-2,2.7-3.2,4c-0.8,0.9-1.7,1.8-2.7,2.5c-1.2,0.9-2.2,1.9-3.5,2.6
	c-0.7,0.4-1.4,0.6-2,1.1c-1.1,0.9-2.4,1.2-3.7,1.8c-0.2,0.1-0.5,0.1-0.7,0.1c0-0.2-0.1-0.5-0.4-0.5c0-0.1-0.1-0.1,0,0
	c-0.1-0.1,0,0,0,0c0,0.3,0.1,0.5,0.4,0.5c-0.3,0.1-0.6,0.2-0.9,0.4c0,0-0.1,0-0.1-0.1c0,0,0.1,0,0.1,0c-1,0.6-2.1,0.7-3.2,0.9
	c-0.1-0.2-0.1-0.5-0.5-0.5c0.2,0.2,0.3,0.3,0.5,0.5c-1.4,0.3-2.8,0.5-4.2,0.5c-0.7,0-1.4,0.1-2.1-0.2c-0.3-0.1-0.8,0.1-1.1,0
	c-1.3-0.2-2.5-0.1-3.8-0.5c-0.9-0.3-1.8-0.3-2.7-0.5c-0.7-0.2-1.4-0.4-2.1-0.7c0.3-0.6,0-1-0.5-1.5c0.1,0.4,0.1,0.7,0.2,1
	c-0.2,0-0.5,0.1-0.7,0c-1.3-0.5-2.4-1.4-2.8-2.8c-0.1-0.3-0.3-0.5-0.3-0.7c-0.2-0.6-0.4-1.3-0.6-1.9c0,0,0.1-0.1,0.1-0.1
	c-0.4-0.3-0.8-0.6-1.2-0.9c-1.1-0.6-2.3-1.2-3.4-1.8c-1.3-0.8-2.4-1.9-3.1-3.2c-0.4-0.6-0.6-1.4-0.7-2.2c-0.3-1.7-0.2-3.4,0.4-5
	c0.5-1.5,0.9-3,1.8-4.4c0.7-1.2,1.4-2.4,2.4-3.4c1.2-1.3,2.4-2.7,3.6-3.9C9.1,9.5,10,8.8,10.8,8C11,7.9,11.2,7.9,11.4,7.8L11.4,7.8z
	 M40.6,36.8L40.6,36.8c-0.1,0-0.1-0.1-0.2-0.2c-0.2-0.3-0.4-0.7-0.2-1.2c1.1-0.9,2.3-2,3.4-3c0.2,0.1,0.3,0.1,0.6,0.2
	c0-0.3-0.1-0.5-0.1-0.6c1-1.1,1.9-2.2,2.8-3.3c0.5-0.6,0.9-1.3,1.3-1.9c0.3-0.5,0.8-0.9,1-1.4c0.6-1.1,1.1-2.2,1.7-3.4
	c0.6-1.4,1.2-2.8,1.3-4.4c0-0.5,0-1,0.1-1.5c0.2-1.2,0.1-2.3-0.3-3.4c-0.4-1.4-1-2.8-1.9-3.9C48.7,7.2,47,6,45,5.1
	c-0.7-0.3-1.4-0.5-2.1-0.8c-1.2-0.6-2.5-0.9-3.8-1.1c-1.3-0.2-2.5-0.4-3.8-0.6c-1.3-0.2-2.7-0.2-4,0c-2.2,0.3-4.5,0.3-6.7,1.1
	C23.4,4,22.2,4.3,21,4.7c-3,1.1-5.7,2.7-8.2,4.5c-2,1.5-3.8,3.1-5.5,4.9c-1.2,1.3-2.4,2.6-3.3,4.2c-0.6,1-1.2,2-1.6,3.2
	c-0.4,1-0.6,2-0.8,3c-0.1,0.9-0.2,1.8,0.2,2.6c0.7,1.7,1.9,3.1,3.5,4.1c0.7,0.4,1.3,0.8,2,1.2c0.1,0.1,0.4,0,0.7,0.1
	c-1.1-2.8-0.6-5.4,0.2-8c-1,0.1-1.6,1.1-2.6,1.1c0.1-0.3,0.2-0.4,0.1-0.6c-0.1-0.5,0.1-0.9,0.5-1.3c0.8-0.9,1.5-1.9,2.5-2.5
	c0.3-0.2,0.6-0.4,0.9-0.6c0.5-0.4,1-0.9,1.4-1.3c0.4-0.4,0.6-0.8,1-1.3c0.7-0.8,1.4-1.6,2.1-2.4c0.9-1,1.7-2,2.7-3
	c0.9-0.9,1.9-1.7,2.8-2.5c0.3-0.3,0.7-0.6,1-0.9c1.6-1.1,3.3-2.1,5.2-2.7c1-0.4,2.1-0.8,3.1-1c1.2-0.2,2.4-0.3,3.6-0.4
	c1.6-0.2,3.2,0,4.8,0.5c0.8,0.3,1.6,0.6,2.3,1c1.1,0.8,2,1.8,2.6,3.1c0.6,1.3,1,2.5,1.1,3.9c0.1,0.9,0.1,1.8,0.6,2.7
	c0.3,0.6,0.7,1.2,0.9,1.8c0.6,1.8,0.9,3.6,0.6,5.4c-0.2,1-0.4,2-0.7,2.9c-0.4,1.2-0.9,2.2-1.4,3.3c-0.1,0.4-0.3,0.7-0.5,1.1
	c-0.7,1.5-1.6,2.9-2.9,4c-0.4,0.4-0.8,0.9-1.5,0.9l0,0c0,0.2-0.1,0.5-0.1,0.8c0.4-0.1,0.6-0.2,0.9-0.3c0.1,0.3,0.2,0.2,0.4,0
	c0.3,0.1,0.6,0.2,0.9,0.4C40.4,36.7,40.5,36.8,40.6,36.8z M20,38.1L20,38.1L20,38.1z M36.8,37.2L36.8,37.2L36.8,37.2z M25.3,34.5
	L25.3,34.5L25.3,34.5z M28.4,27.7c0,0.1,0,0.1,0,0.2l0,0C28.4,27.8,28.4,27.8,28.4,27.7C28.4,27.7,28.4,27.7,28.4,27.7z M50.2,7.8
	L50.2,7.8L50.2,7.8z M51.5,24.1L51.5,24.1L51.5,24.1z M36.4,33.2L36.4,33.2L36.4,33.2z M37.5,6.2L37.5,6.2L37.5,6.2z M43.6,24.1
	c0,0-0.1,0-0.1,0C43.5,24.2,43.6,24.1,43.6,24.1L43.6,24.1z M1,23.2L1,23.2C1,23.2,1,23.1,1,23.2C1,23.1,1,23.2,1,23.2z M17.8,3.9
	C17.9,3.9,17.9,3.8,17.8,3.9C17.9,3.8,17.9,3.9,17.8,3.9L17.8,3.9z M11,8.7C11.1,8.7,11.1,8.7,11,8.7C11.1,8.7,11.1,8.7,11,8.7
	c0,0-0.1,0-0.1,0.1C10.9,8.8,11,8.7,11,8.7z M43.6,27C43.7,26.9,43.8,26.9,43.6,27C43.7,26.9,43.7,26.9,43.6,27
	C43.6,27,43.5,27,43.6,27C43.5,27,43.6,27,43.6,27z M52.7,10.7c-0.1,0-0.3,0-0.4,0c0,0,0,0.1,0,0.1C52.5,10.8,52.6,10.7,52.7,10.7
	C52.7,10.7,52.7,10.7,52.7,10.7z M32.2,0.5c0,0-0.1,0-0.1-0.1C32.1,0.4,32.1,0.5,32.2,0.5c0.1,0.1,0.2,0.1,0.3,0.2
	c0,0,0-0.1,0.1-0.1C32.4,0.6,32.3,0.5,32.2,0.5z M15.5,40.6L15.5,40.6c-0.1-0.1-0.1-0.2-0.2-0.3c0,0-0.1,0.1-0.1,0.1
	C15.3,40.4,15.4,40.5,15.5,40.6z M11,39.4c-0.2,0.1-0.4,0.2,0,0.4C11,39.6,11,39.5,11,39.4L11,39.4z M38.1,32.2L38.1,32.2
	c-0.1,0-0.3,0-0.4-0.1c0,0,0,0.1,0,0.1C37.8,32.2,37.9,32.2,38.1,32.2z M52.6,22.7c-0.1,0-0.3,0.1-0.4,0.1c0,0,0.1,0.1,0.1,0.1
	C52.4,22.9,52.5,22.8,52.6,22.7c0.1-0.1,0.1-0.2,0.2-0.3c0,0-0.1,0-0.1-0.1C52.6,22.4,52.6,22.6,52.6,22.7z M45.9,30.7
	c-0.1,0.4,0.1,0.4,0.4,0.4c0-0.2,0-0.4,0-0.7C46.1,30.6,46,30.7,45.9,30.7L45.9,30.7z M41.3,35.6c0.2-0.1,0.5-0.2,0.7-0.4
	c0,0,0,0.1,0,0.1c0,0,0-0.1-0.1-0.1c-0.1-0.3-0.3-0.4-0.6-0.2C41.2,35.1,41.2,35.4,41.3,35.6c-0.2,0.1-0.5-0.1-0.5,0.4
	C41,35.8,41.1,35.7,41.3,35.6z M13.9,40.1c0.2,0.1,0.5,0.2,0.8,0.3C14.4,39.6,14.4,39.6,13.9,40.1c0,0-0.1,0-0.1,0.1
	C13.8,40.1,13.8,40.1,13.9,40.1z M46.6,5.3c0.3-0.1,0.5-0.2,0.8-0.3c0-0.1,0-0.1,0-0.2c-0.3,0-0.6,0-1-0.1
	C46.5,5.1,46.6,5.2,46.6,5.3L46.6,5.3z M26.6,2.1c-0.4,0-0.8,0-0.8,0.6c0.5-0.1,1-0.1,1.6-0.2C27.1,2.3,27,2.1,26.8,2
	C26.8,1.9,26.7,2.1,26.6,2.1L26.6,2.1z M33.9,29.9c-0.3,0-0.6-0.2-0.9-0.1c-0.5,0-0.6,0.3-0.5,0.9C33.1,30.6,33.6,30.5,33.9,29.9
	L33.9,29.9z M18.7,42c0.4-0.1,0.8-0.1,1.3-0.2c0.1-0.1,0.3-0.2,0.5-0.3c-0.3-0.2-0.5-0.3-0.7-0.4c-0.1,0.1-0.2,0.2-0.2,0.3
	c-0.3,0-0.6-0.4-1,0C18.6,41.6,18.7,41.8,18.7,42L18.7,42z M32,20c-0.2-0.1-0.4-0.1-0.6-0.2c0.4,0.9,1.1,1.3,1.9,1.8
	c0.1-0.3,0.2-0.4,0.3-0.7C33,20.6,32.5,20.3,32,20c0.1-0.1,0.1-0.1,0.2-0.1c0,0-0.1-0.1-0.1-0.1C32.1,19.9,32,19.9,32,20z M13.4,34
	c0.3,0.1,0.7,0.2,1,0.3c1.1,0.4,2.2,0.8,3.4,1.2c-0.1-0.5-0.5-0.6-0.7-0.7c-0.5-0.2-1-0.5-1.5-0.7c-1.2-0.6-1.8-1.7-1.9-2.9
	c0-1.1,0.2-2.3,0.8-3.3c0.9-1.5,2-2.9,3.4-3.9c1.1-0.8,1.9-1.7,2.5-2.8c0.3-0.6,0.5-1.1,0.8-1.6c-0.2-0.3-0.5-0.3-0.8-0.2
	c-1.3,0.3-2.6,0.5-3.9,0.8c-0.9,0.2-1.8,0.6-2.7,0.9c-0.4,0.2-1,0.5-1.2,0.9c-0.7,1.3-1.5,2.7-2,4.2c-0.5,1.3-0.6,2.7-0.7,4
	c-0.1,1.2,0.4,1.9,1.3,2.5c0.2,0.1,0.5,0.2,0.7,0.4C12.3,33.3,12.8,33.6,13.4,34c-0.1,0-0.2,0-0.4,0c0,0,0,0.1,0,0.1
	C13.1,34,13.2,34,13.4,34z M19.1,26c-0.2,0.1-0.4,0.1-0.5,0.2c-1.2,0.9-2.3,2-3,3.4c-0.6,1.3-0.3,2.4,0.8,3.1c1.6,1,3.4,1.6,5.2,1.9
	c0.7,0.1,1.4,0.2,2.1-0.1c0.7-0.3,1.3-0.6,2-1c0.2-0.1,0.4-0.3,0.6-0.6c-0.3-0.3-0.5-0.5-0.7-0.6c-0.9-0.6-1.8-1.1-2.8-1.6
	c-1.4-0.7-2.3-1.9-3.1-3.2C19.5,27,19.4,26.5,19.1,26z M21.4,11.2c0.3,0.1,0.3,0.2,0.4,0.2c0.9-0.3,1.8-0.6,2.6-0.8
	c0.6-0.2,1.2-0.5,1.9-0.6c0.9-0.1,1.8-0.3,2.6,0c0.2,0.1,0.5,0,0.7,0c1.6,0,3.2,0,4.8,0.3c1.8,0.3,3.6,0.6,5.2,1.6
	c0.2,0.1,0.5,0.2,0.8,0.3c-0.1-0.3-0.1-0.4-0.1-0.6c-1.1-3-4.4-4.1-6.9-4c-0.5,0-1.1,0-1.6,0c-0.2,0-0.4,0-0.6,0
	c-1.3,0.2-2.6,0.4-3.8,0.7c-1.7,0.4-3.3,1.3-4.9,2.1C22.1,10.7,21.8,10.9,21.4,11.2z M10.7,36c0.1,1.1,0.7,1.8,1.3,2.3
	c0.7,0.5,1.5,0.9,2.4,1.2c1.8,0.6,3.6,0.9,5.5,1.1c2.2,0.2,4.5,0.3,6.7,0.1c0.9-0.1,1.8,0,2.7-0.6c0.2,0.3,0.4,0.6,0.6,0.9
	c0.4-0.5,0.4-0.9-0.1-1.1c-0.3-0.1-0.6-0.1-0.9-0.1c-1.3,0-2.6,0.2-3.8,0c-1.8-0.2-3.5-0.6-5.3-0.9c-0.8-0.1-1.5-0.5-2.2-0.6
	c-1.5-0.2-2.9-0.7-4.3-1.3C12.5,36.9,11.7,36.5,10.7,36z M24.1,37.2c3.4,0.6,6.4,0.5,9.3-1.4c1.2-0.8,3.6-3.6,3.7-4.7
	c-0.3,0.1-0.5,0.2-0.7,0.4c-1.4,1.3-2.9,2.4-4.5,3.3c-1.1,0.6-2.2,1.2-3.4,1.5c-1,0.3-2.1,0.5-3.2,0.5
	C24.8,36.8,24.5,36.8,24.1,37.2z M29.9,29.2c-0.8-0.4-1.7-0.8-2.5-1.2c-1.1-0.5-2.3-0.9-3.5-1.4c-0.6-0.2-1.1-0.5-1.7-0.8
	c-0.1-0.1-0.3-0.1-0.6-0.2c0.1,0.4,0.1,0.7,0.2,0.9c0.3,0.9,1,1.5,1.7,2c1.4,0.9,2.8,1.7,4.4,2.1C29.1,30.9,29.6,30.5,29.9,29.2z
	 M43.1,21.1c-0.2,0.3-0.4,0.5-0.4,0.6c0,1.1-0.4,2-0.7,3c0,0,0,0.1,0,0.1c-0.4,0.8-0.4,1.8-1.2,2.3c-0.2,0.8-0.4,1.5-0.6,2.1
	c-0.2,0.7-0.5,1.3-0.6,2c-0.2,0.7-0.9,1-1,1.9C41.3,31.4,44,24.1,43.1,21.1z M21.7,14c-2.5,0.9-4.6,2-6.3,3.8c0.4,0,0.7,0,1.1-0.1
	c1.1-0.2,2.2-0.6,3.4-0.6c0.7,0,1.3-0.2,1.9-0.6C21.7,15.7,21.7,14.9,21.7,14z M37.2,24.5c-0.2-0.4-0.6-0.5-0.8-0.2
	c-0.5,0.6-1.3,0.8-2,1.2c-0.9,0.5-1.1,0.9-0.7,1.9c0.6,0.1,1.2,0,1.7-0.1c0.9-0.2,1.4-0.9,1.5-1.9C37,25.1,37.2,24.8,37.2,24.5z
	 M23.4,23.8c1.5,1,2.9,1.9,4.6,2.1c-1.4-1-2.8-1.9-4.3-2.9C23.6,23.3,23.5,23.5,23.4,23.8z M31.2,40.8c0,0.7-0.6,0.1-0.7,0.4
	c0.2,0.5,0.6,0.4,1,0.3c0.3-0.4,0.5-0.8,0.3-1.2c-0.3-0.3-0.6-0.5-0.8-0.6c-0.1-0.1-0.2,0-0.4,0c0.1,0.3,0.2,0.6,0.2,0.9
	C30.9,40.7,31,40.7,31.2,40.8z M26.5,13.5c0-0.1,0-0.1-0.1-0.2c-1.6,0.1-2.3,0.5-2.3,1.4C24.9,14.4,25.7,13.9,26.5,13.5z M23.7,41.6
	c0,0.1,0,0.1,0,0.2c0.6,0.1,1.2,0.2,1.9,0.3c0,0,0,0.1,0,0.1c0.3-0.1,0.7-0.2,1-0.2c-0.8-0.3-1.5-0.4-2.3-0.5
	C24.1,41.4,23.9,41.5,23.7,41.6z M30.9,27c0.1-0.3,0-0.6-0.2-0.6c-0.5-0.1-1-0.3-1.6-0.1C29.6,26.9,30.2,27.1,30.9,27z M33,39.7
	c0.9,0.3,1.2-0.5,1.6-0.8c-0.3,0.1-0.7,0.3-1,0.4c-0.2-0.2-0.3-0.3-0.5-0.5C33.1,39.1,33,39.4,33,39.7z M39.6,19.7
	c0.2,0.7,0.3,1.2,0.4,2C40.2,20.7,40.1,20.3,39.6,19.7z M37.8,38.4c0.1-0.6,0.1-1,0.2-1.6c-0.3,0.4-0.6,0.6-0.9,0.9
	C37.4,38,37.6,38.2,37.8,38.4z M51.6,8.8c0,0.6,0.1,1,0.1,1.5C52.3,9.6,52.3,9.6,51.6,8.8z M23.3,41.3c-0.9-0.1-0.9-0.1-1.2,0.7
	C22.5,41.8,22.9,41.7,23.3,41.3z M7.2,12.5c-0.5-0.2-0.7,0.2-0.9,0.6C6.9,13.2,7,12.7,7.2,12.5z M38.5,38.1c0.3-0.2,0.5-0.3,0.7-0.4
	c-0.2-0.3-0.3-0.5-0.5-0.9C38.7,37.3,38.6,37.6,38.5,38.1z M24.4,8.3c-0.2,0.3-0.4,0.6-0.6,0.8c0,0.1,0.1,0.1,0.1,0.2
	c0.3-0.1,0.5-0.3,0.8-0.5C24.6,8.6,24.5,8.4,24.4,8.3z M48.2,28.1c-0.2,0.8-0.2,0.8,0.3,0.7C48.4,28.5,48.3,28.3,48.2,28.1z
	 M42.6,35c0.7-0.7,0.7-0.7,0.3-1.2C42.8,34.2,42.7,34.5,42.6,35z M45.4,32.1c-0.3,0.3-0.4,0.6,0.1,0.7c0.1,0,0.2-0.1,0.3-0.1
	C45.6,32.5,45.5,32.3,45.4,32.1z M44.7,33.2c-0.4-0.3-0.7-0.2-1-0.1C44,33.2,44.2,33.4,44.7,33.2z M48,6c-0.2-0.2-0.4-0.3-0.7-0.5
	C47.2,6,47.5,6.1,48,6z M35.3,34.6c0.5,0.1,0.7,0,0.7-0.6C35.7,34.2,35.5,34.4,35.3,34.6z M41.8,30.6c-0.3,0.1-0.5,0.2-0.7,0.3
	C41.4,31.1,41.6,31.1,41.8,30.6z M23.7,30.4c0.3,0.2,0.5,0.3,0.8,0.6C24.4,30.4,24.3,30.3,23.7,30.4z M28.5,1.3
	c0.1-0.1,0.2-0.2,0.3-0.2c0-0.1,0-0.2,0-0.3C28.4,0.8,28.3,0.9,28.5,1.3z M43,28.6c0.1,0,0.2,0.1,0.2,0.1c0-0.1,0.1-0.3,0.1-0.4
	c-0.1,0-0.1,0-0.2,0C43.1,28.3,43,28.5,43,28.6z M39.7,19.4c0.1-0.5,0-0.7-0.5-0.7C39.4,18.9,39.5,19.1,39.7,19.4z M44.8,4
	c0-0.4-0.2-0.5-0.5-0.2C44.6,3.9,44.7,3.9,44.8,4z M47.3,30.4C47.2,30.1,47.1,30,47,30c-0.1,0-0.2,0-0.4,0.1c0,0,0,0.1,0,0.1
	C46.8,30.2,47,30.3,47.3,30.4z M35.3,40c-0.4,0-0.4,0-0.5,0.4C35,40.2,35.1,40.1,35.3,40z M42.4,30.1c0.1,0,0.1,0.1,0.2,0.1
	c0.1-0.2,0.2-0.4,0.3-0.6c0,0-0.1,0-0.1-0.1C42.6,29.8,42.5,30,42.4,30.1z M5.5,32.7c0-0.1,0-0.2,0-0.2c-0.1,0-0.3,0-0.4,0
	c0,0,0,0.1,0,0.1C5.2,32.7,5.3,32.7,5.5,32.7z M48.9,7.1c0.1,0,0.1,0,0.2,0C49.1,7,49,6.9,49,6.8c0,0-0.1,0-0.1,0
	C48.9,6.9,48.9,7,48.9,7.1z M21.6,42.1c0.1,0.3,0.1,0.3,0.4,0.2C21.9,42.3,21.8,42.2,21.6,42.1z M17.2,40.7c0,0.1,0,0.2,0,0.2
	c0.1,0,0.3,0,0.4,0c0,0,0-0.1,0-0.1C17.5,40.8,17.4,40.7,17.2,40.7z M24.8,1.9c0-0.1,0.1-0.1,0.1-0.2c-0.1,0-0.2-0.1-0.4-0.1
	c0,0-0.1,0.1-0.1,0.1C24.5,1.8,24.7,1.8,24.8,1.9z M26.2,19.4C26.2,19.4,26.2,19.4,26.2,19.4c-0.1-0.1-0.2-0.1-0.3-0.1
	c-0.1,0-0.2,0.1-0.3,0.2c0,0,0,0.1,0.1,0.1C25.8,19.6,26,19.5,26.2,19.4z M37.7,36.3c0-0.1,0-0.1,0.1-0.2c-0.1,0-0.3-0.1-0.4-0.1
	c0,0.1,0,0.1-0.1,0.2C37.5,36.2,37.6,36.3,37.7,36.3z M53.8,14.3c0,0.1,0,0.1,0,0.2c0.1,0,0.3,0,0.4,0c0,0,0-0.1,0-0.1
	C54.1,14.4,53.9,14.3,53.8,14.3z M21.3,26.7c0,0,0-0.1,0.1-0.1c-0.1-0.1-0.2-0.1-0.3-0.2c0,0,0,0.1-0.1,0.1
	C21.1,26.5,21.2,26.6,21.3,26.7z M49.9,26c-0.1,0.1-0.2,0.1-0.2,0.2c0,0,0,0.1,0.1,0.1c0.1,0,0.2,0,0.2-0.1
	C50,26.2,49.9,26.1,49.9,26z M53.5,19.1c-0.1,0-0.1,0-0.2,0.1c0,0.1,0.1,0.3,0.1,0.4c0,0,0.1,0,0.1,0C53.6,19.4,53.6,19.2,53.5,19.1
	z M30.2,39.3c0,0,0-0.1,0-0.1c-0.1,0-0.2,0-0.3,0c0,0,0,0.1,0,0.1C30,39.2,30.1,39.2,30.2,39.3z M23.6,37.3c0.1-0.1,0.1-0.2,0.2-0.2
	c0,0-0.1-0.1-0.1-0.1c-0.1,0-0.1,0.1-0.2,0.1C23.5,37.1,23.5,37.2,23.6,37.3z M37.8,35c0,0,0.1-0.1,0.1-0.1
	c-0.1-0.1-0.2-0.2-0.3-0.2c0,0-0.1,0.1-0.1,0.1C37.6,34.8,37.7,34.9,37.8,35z M25.7,30.1C25.7,30.2,25.7,30.2,25.7,30.1
	c0,0.2,0,0.2,0.1,0.3c0,0,0.1-0.1,0.1-0.1C25.9,30.2,25.8,30.2,25.7,30.1z M52.9,21.3c0.1,0,0.1,0,0.2,0c0-0.1,0.1-0.2,0.1-0.4
	c0,0-0.1,0-0.1,0C53,21,52.9,21.1,52.9,21.3z M45.2,4.8c0.1,0,0.1,0,0.2-0.1c0-0.1-0.1-0.2-0.1-0.3c0,0-0.1,0-0.1,0
	C45.1,4.5,45.1,4.7,45.2,4.8z M3.5,31.1c0.1,0,0.1,0,0.2-0.1c0-0.1-0.1-0.2-0.1-0.3c0,0-0.1,0.1-0.1,0.1C3.5,30.9,3.5,31,3.5,31.1z
	 M27.4,31.2c-0.1-0.1-0.1-0.1-0.2-0.1c0,0-0.1,0.1-0.1,0.1c0,0.1,0.1,0.1,0.1,0.2C27.3,31.3,27.3,31.3,27.4,31.2z M28,41.1
	c0-0.1,0-0.1,0-0.2c-0.1,0-0.2,0-0.3,0c0,0,0,0.1,0,0.1C27.8,41,27.9,41.1,28,41.1z M33.1,1.7c0.2-0.1,0.3-0.1,0.4-0.1
	c0.1,0,0.1-0.1,0.1-0.2c0,0-0.1,0-0.1-0.1C33.4,1.4,33.3,1.5,33.1,1.7z M41,2.1c0-0.1,0.1-0.1,0.1-0.2c0,0-0.1-0.1-0.1-0.1
	C41,1.9,40.9,1.9,40.9,2C40.9,2,40.9,2.1,41,2.1z M22.3,2.3c0,0,0.1,0.1,0.1,0.1c0.1-0.1,0.2-0.1,0.3-0.2c0,0-0.1-0.1-0.1-0.1
	C22.5,2.1,22.4,2.2,22.3,2.3z M35.4,39.4c0,0,0-0.1,0-0.1c-0.1,0-0.2,0.1-0.3,0.1c0,0,0,0.1,0,0.1C35.2,39.4,35.3,39.4,35.4,39.4z
	 M36.5,38.5c0,0,0.1,0.1,0.1,0.1c0.1-0.1,0.2-0.1,0.2-0.2c0,0-0.1-0.1-0.1-0.1C36.7,38.4,36.6,38.5,36.5,38.5z M39.7,37.1
	c0,0,0-0.1-0.1-0.1c0,0-0.1,0-0.1,0c0,0,0,0.1,0.1,0.1C39.6,37.1,39.6,37.1,39.7,37.1z M41.1,36.7c0,0,0.1-0.1,0.1-0.1
	c0,0-0.1-0.1-0.1-0.1c0,0-0.1,0.1-0.1,0.1C41,36.6,41.1,36.6,41.1,36.7z M44.2,25.1c0,0,0.1,0.1,0.1,0.1c0,0,0.1-0.1,0.1-0.1
	c0,0-0.1-0.1-0.1-0.1C44.3,25,44.2,25.1,44.2,25.1z M33.1,7.2c0,0,0-0.1,0.1-0.1C33.1,7.1,33,7,32.8,6.9c0,0,0,0.1-0.1,0.1
	C32.9,7.1,33,7.2,33.1,7.2z M50.9,8.8c-0.1,0.1-0.1,0.1-0.2,0.2C50.8,9,50.9,9.1,51,9.1C51,9.1,51,9,51.1,9C51,8.9,51,8.8,50.9,8.8z
	 M43.7,34.4C43.7,34.4,43.7,34.5,43.7,34.4c0.2,0,0.2,0,0.3-0.1c0,0-0.1-0.1-0.1-0.1C43.8,34.3,43.7,34.3,43.7,34.4z M27.1,41.4
	c0,0,0-0.1,0-0.1c0,0-0.1,0-0.1,0c0,0,0,0.1,0,0.1C27,41.4,27.1,41.4,27.1,41.4z M32.3,17.6c0,0-0.1-0.1-0.1-0.1
	c0,0-0.1,0.1-0.1,0.1c0,0,0,0.1,0,0.1C32.2,17.6,32.2,17.6,32.3,17.6z M22.6,37.1c-0.1,0.1-0.1,0.1-0.1,0.1c0,0,0.1,0.1,0.1,0.1
	c0,0,0.1,0,0.1-0.1C22.7,37.3,22.6,37.2,22.6,37.1z M50.5,24.8c0,0,0.1-0.1,0.1-0.1c-0.1-0.1-0.1-0.1-0.2-0.2c0,0,0,0.1-0.1,0.1
	C50.4,24.6,50.4,24.7,50.5,24.8z M39.6,34.6c0,0-0.1-0.1-0.1-0.1c0,0-0.1,0.1-0.1,0.1c0,0,0,0.1,0,0.1
	C39.5,34.6,39.5,34.6,39.6,34.6z M54.2,16.1c0,0-0.1,0-0.1,0c0,0,0,0.1,0,0.1c0,0,0.1,0.1,0.1,0.1C54.2,16.2,54.2,16.1,54.2,16.1z
	 M22.2,28.2c0,0,0-0.1,0-0.1c0,0-0.1,0-0.1,0c0,0,0,0.1,0,0.1C22.1,28.2,22.2,28.2,22.2,28.2z M7.1,33.1C7,33.1,7,33,7,33
	c0,0-0.1,0-0.1,0c0,0,0,0.1,0,0.1C7,33.2,7,33.1,7.1,33.1z M7.8,33.6c0,0-0.1-0.1-0.1-0.1c-0.1,0.1-0.1,0.1-0.2,0.2
	c0,0,0.1,0,0.1,0.1C7.7,33.7,7.8,33.7,7.8,33.6z M25.4,31.3c0,0-0.1-0.1-0.1-0.1c0,0-0.1,0,0,0.1c0,0,0,0.1,0.1,0.1
	C25.4,31.4,25.4,31.4,25.4,31.3z M34.6,35.4c0,0,0,0.1,0,0.1c0.1,0,0.2,0,0.3,0c0,0,0-0.1,0-0.1C34.8,35.5,34.7,35.5,34.6,35.4z
	 M13.6,8c0-0.1,0-0.1,0-0.2c0,0-0.1,0-0.1,0c0,0,0,0.1,0,0.1C13.5,8,13.6,8,13.6,8z M28.9,6.6C28.9,6.6,28.9,6.6,28.9,6.6
	c0,0.2,0.1,0.2,0.1,0.3c0,0,0.1-0.1,0.1-0.1C29.1,6.7,29,6.6,28.9,6.6z M50.2,6.4c0,0,0.1,0.1,0.1,0.1c0,0,0.1,0,0.1,0
	c0,0,0-0.1,0-0.1C50.3,6.3,50.2,6.3,50.2,6.4z M48.4,5.4c0,0-0.1-0.1-0.1-0.1c0,0-0.1,0.1-0.1,0.1c0,0,0,0.1,0,0.1
	C48.3,5.5,48.3,5.4,48.4,5.4z M44.8,3c0,0-0.1-0.1-0.1-0.1c0,0,0,0.1,0,0.1c0,0,0.1,0,0.1,0C44.8,3.1,44.8,3,44.8,3z M34.8,0.8
	c0,0-0.1-0.1-0.1-0.1c0,0-0.1,0,0,0.1c0,0,0,0.1,0.1,0.1C34.7,0.8,34.7,0.8,34.8,0.8z M36.6,11.3c0,0,0-0.1,0-0.1
	c-0.1,0-0.2,0-0.3,0c0,0,0,0.1,0,0.1C36.4,11.2,36.5,11.2,36.6,11.3z M9,34.9C9,34.9,9,34.9,9,34.9C9.1,34.9,9.1,34.9,9,34.9
	C9.1,34.8,9.1,34.8,9,34.9C9,34.8,9,34.9,9,34.9z M24.6,35.9C24.6,35.9,24.6,35.9,24.6,35.9C24.6,36,24.6,36,24.6,35.9
	C24.7,36,24.7,35.9,24.6,35.9C24.7,35.9,24.6,35.9,24.6,35.9z M41.3,3.2c0,0-0.1,0-0.1,0C41.2,3.2,41.3,3.2,41.3,3.2
	C41.3,3.2,41.3,3.2,41.3,3.2z M21.8,36.6C21.8,36.6,21.8,36.6,21.8,36.6C21.7,36.6,21.7,36.7,21.8,36.6
	C21.7,36.7,21.8,36.7,21.8,36.6C21.8,36.7,21.8,36.7,21.8,36.6z M24.2,2.3C24.2,2.3,24.3,2.3,24.2,2.3c0.1,0,0.1,0,0.1,0
	C24.3,2.3,24.3,2.2,24.2,2.3C24.2,2.2,24.2,2.3,24.2,2.3z M36.1,39.6c0,0,0.1-0.1,0.1-0.1c0,0-0.1,0-0.1-0.1
	C36.1,39.5,36.1,39.5,36.1,39.6z M35.7,2c0,0,0-0.1,0-0.1c0,0-0.1,0-0.1,0c0,0,0,0.1,0,0.1C35.6,2,35.7,2,35.7,2z M32.3,40.6
	C32.4,40.6,32.4,40.6,32.3,40.6C32.4,40.6,32.3,40.6,32.3,40.6C32.3,40.6,32.3,40.6,32.3,40.6C32.3,40.6,32.3,40.6,32.3,40.6z
	 M29.8,1.4C29.8,1.4,29.8,1.4,29.8,1.4c0.1,0,0.1,0,0.1,0C29.8,1.4,29.8,1.3,29.8,1.4C29.8,1.3,29.8,1.4,29.8,1.4z M38.1,1.2
	c0,0-0.1-0.1-0.1-0.1c0,0,0,0,0,0.1C37.9,1.2,38,1.3,38.1,1.2C38,1.3,38,1.2,38.1,1.2z M13.6,6.6C13.6,6.6,13.6,6.6,13.6,6.6
	c0-0.1,0-0.1,0-0.1C13.5,6.6,13.5,6.6,13.6,6.6C13.5,6.6,13.5,6.6,13.6,6.6z M0.6,26.9C0.6,26.8,0.7,26.8,0.6,26.9
	C0.7,26.8,0.7,26.8,0.6,26.9C0.6,26.8,0.6,26.8,0.6,26.9C0.6,26.8,0.6,26.8,0.6,26.9z M9.3,27c0,0-0.1,0.1-0.1,0.1
	c0,0,0.1,0.1,0.1,0.1c0,0,0.1,0,0.1,0C9.4,27,9.4,27,9.3,27z M50.2,26.9c0,0,0,0.1,0,0.1C50.2,27,50.3,27,50.2,26.9
	C50.3,27,50.3,27,50.2,26.9z M42.8,27.5C42.7,27.5,42.7,27.5,42.8,27.5c-0.1,0-0.1,0-0.1,0C42.7,27.6,42.7,27.6,42.8,27.5
	C42.7,27.6,42.8,27.5,42.8,27.5z M8.2,27.8C8.1,27.7,8.1,27.7,8.2,27.8C8.1,27.7,8,27.7,8,27.7c0,0,0,0.1,0,0.1
	C8.1,27.8,8.1,27.8,8.2,27.8z M1.2,28.1C1.2,28.1,1.2,28,1.2,28.1c0-0.1-0.1-0.1-0.1,0C1.1,28.1,1.1,28.1,1.2,28.1
	C1.2,28.1,1.2,28.1,1.2,28.1z M15.5,28.9C15.5,28.9,15.4,29,15.5,28.9c0,0.1,0,0.1,0,0.1C15.5,29,15.6,29,15.5,28.9
	C15.5,28.9,15.5,28.9,15.5,28.9z M1.8,29.5C1.8,29.5,1.8,29.5,1.8,29.5C1.7,29.4,1.7,29.5,1.8,29.5C1.7,29.5,1.7,29.5,1.8,29.5
	C1.7,29.5,1.7,29.5,1.8,29.5z M47.8,30.2C47.8,30.2,47.8,30.2,47.8,30.2C47.7,30.2,47.7,30.2,47.8,30.2
	C47.7,30.2,47.7,30.2,47.8,30.2C47.7,30.3,47.8,30.2,47.8,30.2z M29.8,31.2C29.9,31.1,29.9,31.1,29.8,31.2
	C29.9,31.1,29.8,31.1,29.8,31.2C29.8,31.1,29.8,31.1,29.8,31.2C29.8,31.1,29.8,31.1,29.8,31.2z M49.7,5.5
	C49.7,5.5,49.6,5.6,49.7,5.5c0,0.1,0,0.1,0,0.2c0,0,0.1,0,0.1,0C49.7,5.6,49.7,5.5,49.7,5.5z M37.4,33.8
	C37.4,33.8,37.4,33.8,37.4,33.8c0-0.1-0.1-0.1-0.1,0C37.3,33.8,37.3,33.8,37.4,33.8C37.3,33.9,37.4,33.8,37.4,33.8z M18.6,34.7
	C18.6,34.7,18.5,34.6,18.6,34.7c-0.1,0-0.1,0-0.1,0C18.5,34.7,18.5,34.7,18.6,34.7C18.6,34.7,18.6,34.7,18.6,34.7z M52.4,11.3
	c0,0,0,0.1,0,0.1C52.4,11.5,52.4,11.4,52.4,11.3C52.4,11.4,52.4,11.4,52.4,11.3z M52.9,18.5C52.9,18.5,52.9,18.6,52.9,18.5
	C52.9,18.6,52.9,18.6,52.9,18.5C53,18.6,53,18.6,52.9,18.5C53,18.5,52.9,18.5,52.9,18.5z M35.9,20.2c0,0-0.1,0-0.1,0
	c0,0,0,0.1,0,0.1c0,0,0.1,0.1,0.1,0.1C35.9,20.3,35.9,20.2,35.9,20.2z M30.1,41.7C30,41.7,30,41.7,30.1,41.7
	C30,41.7,30,41.7,30.1,41.7C30,41.7,30,41.7,30.1,41.7z M12,33.7C12,33.7,12,33.7,12,33.7C12,33.6,11.9,33.6,12,33.7
	C11.9,33.6,11.9,33.6,12,33.7C11.9,33.7,11.9,33.7,12,33.7z M40.3,33.8C40.3,33.7,40.2,33.7,40.3,33.8
	C40.2,33.7,40.2,33.8,40.3,33.8C40.2,33.8,40.2,33.8,40.3,33.8C40.3,33.8,40.3,33.8,40.3,33.8z M36.4,33.9
	C36.4,34,36.4,34,36.4,33.9C36.4,34,36.5,34,36.4,33.9C36.5,34,36.4,34,36.4,33.9z M47.8,4.5C47.8,4.6,47.7,4.6,47.8,4.5
	C47.8,4.6,47.8,4.6,47.8,4.5C47.8,4.6,47.8,4.6,47.8,4.5z M17.5,41.6C17.5,41.6,17.4,41.6,17.5,41.6C17.4,41.7,17.4,41.7,17.5,41.6
	C17.5,41.7,17.5,41.6,17.5,41.6z M18,34.4C18,34.5,17.9,34.5,18,34.4C18,34.5,18,34.5,18,34.4C18,34.5,18,34.5,18,34.4
	C18,34.4,18,34.4,18,34.4z M42.3,30.8C42.3,30.8,42.3,30.8,42.3,30.8C42.3,30.8,42.2,30.8,42.3,30.8C42.2,30.9,42.2,30.9,42.3,30.8
	C42.3,30.9,42.3,30.9,42.3,30.8z M44.3,22C44.3,22,44.3,22,44.3,22C44.3,22,44.3,22,44.3,22C44.3,22,44.3,22,44.3,22z M24.8,31.3
	C24.8,31.3,24.8,31.3,24.8,31.3C24.8,31.3,24.8,31.3,24.8,31.3C24.8,31.3,24.8,31.3,24.8,31.3z M12.8,8.6
	C12.8,8.6,12.8,8.5,12.8,8.6C12.8,8.5,12.8,8.6,12.8,8.6C12.8,8.6,12.8,8.6,12.8,8.6C12.8,8.6,12.8,8.6,12.8,8.6z M23.5,42.4
	C23.4,42.4,23.4,42.4,23.5,42.4C23.4,42.4,23.4,42.5,23.5,42.4C23.4,42.4,23.4,42.4,23.5,42.4z M16.6,5.6
	C16.6,5.5,16.6,5.5,16.6,5.6C16.5,5.5,16.5,5.5,16.6,5.6C16.5,5.5,16.5,5.6,16.6,5.6C16.5,5.6,16.6,5.6,16.6,5.6z M37.1,33.1
	C37.1,33.1,37.2,33.1,37.1,33.1C37.2,33.1,37.2,33,37.1,33.1C37.1,33,37.1,33,37.1,33.1C37.1,33,37.1,33.1,37.1,33.1z M21.1,42.3
	C21,42.2,21,42.2,21.1,42.3C21,42.2,21,42.2,21.1,42.3C21,42.3,21,42.3,21.1,42.3z M48.4,4.6L48.4,4.6L48.4,4.6L48.4,4.6z M23.4,2.4
	C23.4,2.4,23.4,2.4,23.4,2.4C23.4,2.5,23.4,2.5,23.4,2.4C23.4,2.4,23.4,2.4,23.4,2.4z M36.8,37.8C36.9,37.8,36.9,37.8,36.8,37.8
	C36.9,37.7,36.8,37.7,36.8,37.8C36.8,37.7,36.8,37.8,36.8,37.8C36.8,37.8,36.8,37.8,36.8,37.8z M23.3,38.2
	C23.3,38.1,23.4,38.1,23.3,38.2C23.3,38.1,23.3,38.1,23.3,38.2C23.3,38.1,23.3,38.1,23.3,38.2z M21.7,38.9
	C21.7,38.9,21.7,38.9,21.7,38.9C21.7,38.9,21.7,38.9,21.7,38.9C21.7,38.9,21.6,38.9,21.7,38.9C21.6,38.9,21.6,38.9,21.7,38.9z
	 M13.3,39.5C13.3,39.5,13.3,39.6,13.3,39.5C13.3,39.6,13.4,39.6,13.3,39.5C13.4,39.5,13.3,39.5,13.3,39.5z M32.9,19.5
	C32.9,19.5,32.9,19.4,32.9,19.5C32.9,19.4,32.8,19.4,32.9,19.5C32.9,19.5,32.9,19.5,32.9,19.5z M20.2,4.1
	C20.2,4.1,20.2,4.1,20.2,4.1C20.2,4.1,20.2,4.1,20.2,4.1C20.2,4.1,20.2,4.1,20.2,4.1z M15.4,35.2C15.4,35.2,15.4,35.2,15.4,35.2
	C15.3,35.2,15.3,35.2,15.4,35.2C15.3,35.2,15.3,35.2,15.4,35.2C15.4,35.2,15.4,35.2,15.4,35.2z M15.6,41.2c0,0-0.1,0-0.1,0
	C15.6,41.2,15.6,41.3,15.6,41.2C15.6,41.3,15.6,41.2,15.6,41.2z M29.7,35.2C29.7,35.2,29.7,35.2,29.7,35.2
	C29.6,35.2,29.6,35.2,29.7,35.2C29.6,35.2,29.7,35.2,29.7,35.2C29.7,35.2,29.7,35.2,29.7,35.2z M19.1,36.4L19.1,36.4L19.1,36.4
	L19.1,36.4z M24.8,22.8L24.8,22.8L24.8,22.8L24.8,22.8z M18,25.8C18,25.8,18.1,25.8,18,25.8C18.1,25.8,18.1,25.7,18,25.8
	C18,25.7,18,25.7,18,25.8C18,25.8,18,25.8,18,25.8z M54.4,15.3C54.3,15.2,54.3,15.2,54.4,15.3C54.3,15.2,54.3,15.2,54.4,15.3
	C54.3,15.2,54.3,15.2,54.4,15.3z M53.3,20.3C53.3,20.4,53.3,20.4,53.3,20.3C53.3,20.4,53.3,20.4,53.3,20.3
	C53.3,20.4,53.3,20.4,53.3,20.3C53.3,20.4,53.3,20.4,53.3,20.3z M40.1,10.2C40.1,10.1,40.1,10.1,40.1,10.2
	C40.1,10.1,40,10.1,40.1,10.2C40,10.1,40,10.2,40.1,10.2C40.1,10.2,40.1,10.2,40.1,10.2z M31.2,6.1C31.2,6.2,31.2,6.2,31.2,6.1
	C31.2,6.2,31.2,6.2,31.2,6.1C31.3,6.2,31.3,6.2,31.2,6.1C31.3,6.2,31.2,6.2,31.2,6.1z M53.5,17.1C53.5,17.1,53.5,17.1,53.5,17.1
	C53.5,17.1,53.5,17.1,53.5,17.1C53.5,17.1,53.5,17.1,53.5,17.1z M52.1,22C52.2,22,52.2,21.9,52.1,22C52.2,21.9,52.2,21.9,52.1,22
	C52.1,21.9,52.1,21.9,52.1,22z M23.2,30.4C23.2,30.4,23.2,30.4,23.2,30.4C23.2,30.4,23.3,30.4,23.2,30.4
	C23.3,30.3,23.2,30.3,23.2,30.4C23.2,30.3,23.2,30.4,23.2,30.4z M32.7,6.4C32.7,6.4,32.7,6.4,32.7,6.4C32.7,6.4,32.8,6.4,32.7,6.4
	C32.7,6.3,32.7,6.3,32.7,6.4C32.7,6.3,32.7,6.4,32.7,6.4z M16.1,5.9C16.1,5.9,16.1,5.9,16.1,5.9C16,5.9,16,5.9,16.1,5.9
	C16.1,5.9,16.1,5.9,16.1,5.9z"/>
</svg>
