<?xml version="1.0" encoding="utf-8"?>
<!-- Generator: Adobe Illustrator 18.1.1, SVG Export Plug-In . SVG Version: 6.00 Build 0)  -->
<svg version="1.1" id="Layer_1" xmlns="http://www.w3.org/2000/svg" xmlns:xlink="http://www.w3.org/1999/xlink" x="0px" y="0px"
	 viewBox="0 0 29.7 32.9" enable-background="new 0 0 29.7 32.9" xml:space="preserve">
<path d="M26.1,15.9c0.7,0.7,1.4,1.2,1.9,2c0.2,0.4,0.6,0.6,0.8,1c0.3,0.5,0.6,1.1,0.9,1.6c-0.1,0.8-1,1-1.1,1.7
	c-0.6-0.1-1.1,0.2-1.7,0c-0.2-0.1-0.3-0.1-0.4-0.2c-0.6-0.5-1.1-1.1-1.7-1.6c-0.2-0.2-0.4-0.3-0.6-0.3c0.1,0.1,0.1,0.2,0.2,0.3
	c0.5,0.6,1,1.2,1.5,1.8c0.1,0.2,0.3,0.4,0.3,0.6c0.1,0.6-0.2,1-0.8,1c-0.7,0-1.3-0.2-1.8-0.6c-0.2-0.2-0.5-0.3-0.8-0.4
	c0.3,0.4,0.7,0.8,1,1.2c0.4,0.5,0.8,0.9,1.1,1.4c0.5,0.8,0.8,1.8,0.7,2.8c0,0.4-0.2,0.6-0.6,0.7c-0.9,0.2-1.6,0-2.3-0.6
	c-0.7-0.6-1.4-1.2-2-1.7c-0.1-0.1-0.2-0.1-0.3-0.2c-0.2-0.4-0.5-0.5-0.9-0.6c-0.1-0.2-0.3-0.4-0.4-0.7c-0.1,0-0.3,0-0.4,0.1
	c0,0.1-0.1,0.2,0,0.2c0.2,0.3,0.3,0.6,0.5,0.8c0.8,0.7,1.4,1.5,2.2,2.3c0.1,0.1,0.3,0.3,0.4,0.4c0.3,0.3,0.6,0.6,0.9,0.9
	c0.2,0.3,0.4,0.5,0.7,0.7c0.4,0.3,0.7,0.6,0.6,1.2c-0.1,0.4-0.2,0.7-0.7,0.7c-0.2,0-0.3,0.1-0.5,0.1c-0.7-0.2-1.3-0.6-1.9-1.1
	c-0.5-0.5-1-0.9-1.4-1.5c-0.2-0.3-0.6-0.2-0.8,0.1c-0.7,1-1.6,1.7-2.7,2.3c-0.6,0.3-1.2,0.5-1.9,0.6c-1,0.1-1.6-0.3-2.2-0.7
	c-0.6-1-0.4-2.1-0.6-3.1c-0.1,0-0.2,0-0.2,0.1c-0.2,0.2-0.3,0.4-0.5,0.5c-0.2,0.1-0.6,0.1-0.8,0.1c-0.5-0.1-0.8-0.6-0.9-1.1
	c-0.1-0.5,0-0.9,0.2-1.3C9,26.8,9.1,26.4,9.3,26c-0.4-0.5-0.7-0.7-1.3-0.9c-0.5-0.1-1.1-0.3-1.5-0.6c-0.4-0.2-0.8-0.6-1.1-0.9
	c-0.5-0.4-1-0.7-1.5-1.1c-0.2-0.1-0.3-0.3-0.5-0.4c-0.5-0.5-1-1-1.6-1.4c-0.6-0.4-0.9-0.9-0.9-1.6c0,0,0-0.1,0-0.1
	c0.4-0.6,0-1.1-0.2-1.6c0,0,0-0.1,0-0.2c0.1,0,0.2-0.1,0.3-0.1c-0.1-0.1-0.3-0.2-0.4-0.3c0-0.3,0.1-0.4,0.5-0.3
	c0-0.1,0.1-0.2,0.1-0.3c0,0,0.1,0,0.1,0c0.6,0.3,1.1,0.6,1.6,1.1c0.5,0.5,1.1,0.9,1.7,1.4c0-0.4-0.1-0.6-0.1-0.7
	c-0.2-0.2-0.5-0.2-0.6-0.4c-1-1.1-1.9-2.1-2.9-3.2c-0.4-0.4-0.6-0.9-0.4-1.5c0.1-0.2,0.2-0.5,0.4-0.6c0.4-0.2,0.4-0.6,0.4-0.9
	c0-0.7,0.2-0.8,0.9-0.9c0.3,0,0.6,0,0.9-0.1c0.2-0.4,0.4-0.9,1-0.9C4,9.3,4,9.2,3.9,9.1c-0.7-0.7-0.7-1-0.2-1.9
	C3.6,7,3.5,6.8,3.3,6.7C3.1,6.3,2.8,5.9,2.5,5.5C2.3,5.2,2,5,1.8,4.7C1.3,4.1,0.8,3.5,0.3,3C0,2.7-0.1,2.3,0.1,2
	c0.1-0.3,0.2-0.5,0.4-0.8c0.5-0.1,0.9,0.1,1.3,0.3c0.7,0.4,1.3,0.9,2,1.3C4,2.9,4.2,3,4.4,3.2C4.7,3.4,5,3.6,5.3,3.8
	C5.7,4.1,6.2,4.3,6.7,4c0.5-0.3,1-0.1,1.4,0.2C8.8,4.6,9.6,5,10.3,5.4c0.2,0.1,0.5,0.3,0.7,0.4C11.2,6,11.4,6,11.6,6.1c0,0,0,0,0,0
	c-0.5-0.5-1-1.1-1.5-1.6C9.7,4.1,9.2,3.7,8.8,3.3C8.3,2.9,7.9,2.5,7.4,2.2C6.9,1.9,6.6,1.6,6.6,1c0-0.7,0.6-1.2,1.2-1
	c0.6,0.2,1,0.5,1.5,0.9c0.3,0.3,0.6,0.6,0.9,0.9c0.3,0.3,0.6,0.5,0.9,0.8c0.8,0.7,1.6,1.3,2.4,2c0.1,0.1,0.2,0.1,0.4,0.2
	c0.2-0.2,0.5-0.3,0.7-0.5c0.3,0,0.6,0,1,0c0.2,0.1,0.3,0.2,0.5,0.4c0.3,0.3,0.5,0.6,0.4,1c-0.1,0.4-0.1,0.8-0.1,1.2
	c0.2,0.2,0.4,0.3,0.6,0.4c0.2,0.1,0.5,0.2,0.7,0.3C18.9,7.2,20,7,21.1,8c0.5,0.7,0.1,1.4-0.1,2.1c-0.1,0.2-0.2,0.4-0.2,0.7
	c0.4,0.4,0.7,0.8,1.1,1.1c0.6,0.5,1.2,1,1.8,1.6c0.7,0.7,1.5,1.4,2.2,2.1C25.9,15.7,26,15.8,26.1,15.9c0,0-0.1,0.1-0.2,0.1
	c0,0,0,0,0.1,0.1C26,16,26,16,26.1,15.9z M24.6,14.7L24.6,14.7L24.6,14.7z M3,15.9L3,15.9L3,15.9z M20.7,28.5L20.7,28.5L20.7,28.5z
	 M3.9,4L3.9,4L3.9,4z M5.5,7.4L5.5,7.4L5.5,7.4z M12.1,29.4L12.1,29.4C12.1,29.4,12.1,29.4,12.1,29.4C12.1,29.5,12.1,29.4,12.1,29.4
	z M20.4,29.1c0.1,0,0.1-0.1,0.2-0.1c0,0-0.1,0-0.1-0.1C20.4,29,20.4,29,20.4,29.1C20.4,29.1,20.3,29.2,20.4,29.1
	C20.3,29.2,20.4,29.1,20.4,29.1z M5.4,18.7c0,0.1,0.1,0.1,0.1,0.2c0,0,0,0,0.1-0.1C5.5,18.8,5.4,18.8,5.4,18.7
	C5.4,18.8,5.4,18.7,5.4,18.7z M3.5,6.4L3.5,6.4c0.1-0.1,0.2-0.2,0.1-0.5C3.5,6.1,3.5,6.2,3.5,6.4z M13.9,24.5
	c-0.1-0.1-0.2-0.1-0.4-0.2c-0.2,0.6-0.1,1,0.4,1.4c0.1,0.6,0.3,1.2-0.2,1.7c-0.7,0.4-0.9,0.9-0.6,1.7c0.9,0.4,1.8,0.4,2.5-0.3
	c0.4-0.3,0.8-0.7,1.3-0.9c0-0.2,0-0.3-0.1-0.4c-0.3-0.3-0.6-0.6-0.8-0.9c-0.6-0.6-1.3-1.3-1.9-1.9c0.1,0,0.1,0,0.3-0.1
	c-0.2-0.1-0.3-0.2-0.4-0.3C14,24.4,13.9,24.4,13.9,24.5z M5.4,6.6c0,0.1,0,0.1,0,0.2c0.7-0.2,1,0.2,1.2,0.7C6.7,7.6,6.9,7.8,7.1,8
	c0.2,0.3,0.5,0.5,0.7,0.9C8.2,9.4,8.7,9.8,9.2,10c0.1,0.1,0.3,0,0.4,0c0,0,0.1-0.1,0.2-0.1C9.7,9.9,9.5,9.8,9.5,9.8
	c-0.1-0.4-0.1-0.7-0.2-1C9.1,8.6,8.9,8.5,8.7,8.3c-0.5-0.6-1.2-1-1.8-1.5C6.7,6.7,6.5,6.5,6.5,6.3c0,0-0.1-0.1-0.1-0.1
	C6.3,6.2,6.3,6.3,6.2,6.3C6,6.3,5.9,6.2,5.7,6.1C5.6,6.3,5.5,6.4,5.4,6.6z M17.7,24.2c0.1,0.4,0.1,0.4,0.5,0.4
	C18,24.5,17.9,24.4,17.7,24.2z M3.8,16.8c0.1,0.5,0.1,0.5,0.4,0.7C4.1,17.3,4,17.1,3.8,16.8z M8.3,12.2C8,12.1,7.9,12,7.6,11.9
	C7.8,12.2,7.9,12.3,8.3,12.2z M22.7,13.9c0,0-0.1,0-0.1,0c0,0.1-0.1,0.2-0.1,0.3c0,0,0.1,0,0.1,0C22.6,14.1,22.6,14,22.7,13.9z
	 M3,4.7c0,0,0-0.1-0.1-0.1C2.9,4.6,2.8,4.6,2.7,4.7c0,0,0,0.1,0.1,0.1C2.9,4.7,2.9,4.7,3,4.7z M11.1,4.6C11.1,4.6,11.1,4.6,11.1,4.6
	c0-0.1,0-0.1,0-0.1c0,0,0,0.1-0.1,0.1C11,4.6,11,4.6,11.1,4.6z M8.9,2.2C9,2.3,9.1,2.3,9.2,2.4c0-0.1,0.1-0.1,0.1-0.2
	C9.2,2.2,9.2,2.1,9.1,2.1C9,2.1,9,2.2,8.9,2.2z M20.8,11.5C20.9,11.5,20.9,11.5,20.8,11.5c0.1-0.1,0.1-0.1,0-0.2
	C20.8,11.4,20.8,11.4,20.8,11.5C20.8,11.4,20.8,11.5,20.8,11.5z M23.2,14.3C23.2,14.3,23.2,14.3,23.2,14.3c-0.1,0.1,0,0.2,0,0.2
	c0,0,0.1,0,0.1,0C23.3,14.4,23.3,14.4,23.2,14.3z M15.5,31.7C15.5,31.7,15.5,31.6,15.5,31.7c-0.1-0.1-0.1,0-0.1,0
	C15.4,31.7,15.4,31.8,15.5,31.7C15.5,31.8,15.5,31.7,15.5,31.7z M21.5,31.4C21.5,31.4,21.5,31.4,21.5,31.4c0.1,0.1,0.1,0,0.1,0
	C21.6,31.4,21.6,31.3,21.5,31.4C21.6,31.3,21.5,31.4,21.5,31.4z M21.6,21.4C21.7,21.3,21.7,21.3,21.6,21.4c0-0.1,0-0.1,0-0.1
	C21.6,21.2,21.6,21.3,21.6,21.4C21.6,21.3,21.6,21.3,21.6,21.4z M5.7,19.2C5.7,19.2,5.7,19.2,5.7,19.2c-0.1,0.1,0,0.1,0,0.1
	C5.8,19.3,5.8,19.3,5.7,19.2C5.8,19.2,5.8,19.2,5.7,19.2z M3,5.2C3.1,5.2,3.1,5.2,3,5.2c0.1-0.1,0.1-0.1,0-0.1C3.1,5.1,3,5.1,3,5.2
	C3,5.2,3,5.2,3,5.2z M25.7,22.7C25.7,22.7,25.7,22.8,25.7,22.7C25.7,22.8,25.8,22.8,25.7,22.7C25.8,22.8,25.8,22.8,25.7,22.7
	C25.8,22.7,25.8,22.7,25.7,22.7z M18.1,25.3C18.1,25.2,18.1,25.2,18.1,25.3C18.1,25.2,18.1,25.2,18.1,25.3
	C18,25.2,18,25.2,18.1,25.3C18,25.3,18.1,25.3,18.1,25.3z M15.5,24.4C15.4,24.4,15.4,24.3,15.5,24.4C15.4,24.3,15.4,24.4,15.5,24.4
	C15.4,24.4,15.4,24.4,15.5,24.4C15.5,24.4,15.5,24.4,15.5,24.4z M9.8,27.4C9.8,27.4,9.8,27.4,9.8,27.4C9.8,27.3,9.8,27.3,9.8,27.4
	C9.8,27.3,9.8,27.3,9.8,27.4C9.8,27.3,9.8,27.4,9.8,27.4z M9.7,28.4C9.7,28.4,9.6,28.3,9.7,28.4C9.6,28.4,9.6,28.4,9.7,28.4
	C9.6,28.4,9.6,28.4,9.7,28.4C9.7,28.4,9.7,28.4,9.7,28.4z M6,7.2C6,7.2,6,7.2,6,7.2C6,7.2,6,7.2,6,7.2C6,7.3,6,7.2,6,7.2z M5.9,10.5
	C5.9,10.5,5.9,10.5,5.9,10.5c0-0.1,0-0.1,0-0.1c0,0,0,0,0,0C5.9,10.4,5.9,10.5,5.9,10.5z M5.4,5.8C5.4,5.8,5.4,5.9,5.4,5.8
	C5.4,5.9,5.4,5.9,5.4,5.8C5.4,5.9,5.4,5.8,5.4,5.8C5.4,5.8,5.4,5.8,5.4,5.8z M4.8,5.3C4.8,5.3,4.8,5.3,4.8,5.3
	c0.1,0,0.1-0.1,0.1-0.1c0,0,0,0,0,0C4.8,5.3,4.8,5.3,4.8,5.3z M4.1,6.4C4.1,6.3,4.1,6.3,4.1,6.4C4.1,6.3,4.1,6.3,4.1,6.4
	C4.1,6.3,4.1,6.3,4.1,6.4z M2.2,4.9C2.3,4.9,2.3,4.9,2.2,4.9c0.1,0,0.1,0,0.1,0C2.3,4.9,2.3,4.8,2.2,4.9C2.3,4.9,2.3,4.9,2.2,4.9z
	 M24.9,15.4C24.9,15.4,24.9,15.4,24.9,15.4C24.9,15.4,24.9,15.3,24.9,15.4C24.9,15.4,24.9,15.4,24.9,15.4
	C24.9,15.4,24.9,15.4,24.9,15.4z M28.2,22C28.3,22,28.3,22,28.2,22C28.3,21.9,28.3,21.9,28.2,22C28.3,21.9,28.2,21.9,28.2,22
	C28.2,21.9,28.2,21.9,28.2,22z M15,25.2L15,25.2L15,25.2L15,25.2z M17.4,24.8C17.4,24.8,17.4,24.7,17.4,24.8
	C17.4,24.7,17.4,24.7,17.4,24.8C17.3,24.7,17.3,24.7,17.4,24.8C17.3,24.8,17.4,24.8,17.4,24.8z M5,6.3C5.1,6.3,5.1,6.3,5,6.3
	C5.1,6.3,5.1,6.3,5,6.3C5.1,6.3,5,6.3,5,6.3C5,6.3,5,6.3,5,6.3z M3.5,5.2L3.5,5.2L3.5,5.2L3.5,5.2z M5,17.7C5,17.7,5,17.7,5,17.7
	C5,17.7,5,17.7,5,17.7C5,17.7,5,17.7,5,17.7z M14.3,31.2L14.3,31.2L14.3,31.2L14.3,31.2z"/>
</svg>
