<?xml version="1.0" encoding="utf-8"?>
<!-- Generator: Adobe Illustrator 18.1.1, SVG Export Plug-In . SVG Version: 6.00 Build 0)  -->
<svg version="1.1" id="Layer_1" xmlns="http://www.w3.org/2000/svg" xmlns:xlink="http://www.w3.org/1999/xlink" x="0px" y="0px"
	 viewBox="0 0 312.3 64.3" enable-background="new 0 0 312.3 64.3" xml:space="preserve">
<g>
	<path stroke="#000000" stroke-width="3" stroke-miterlimit="10" d="M28.6,17.2c0.7-0.8,0.8-1.7,1.1-2.6c0.6-1.3,1-2.7,1.8-3.9
		c0.4-0.6,0.8-1.2,1.1-1.8c0.3-0.5,0.5-1.1,0.7-1.6c0.1-0.3,0.2-0.5,0.3-0.8c0.6-1.1,1.8-1.2,2.6-0.3c0.4,0.4,0.7,0.6,0.9,1.2
		C37.3,8,37.2,8.3,37,8.7c-0.4,0.5-0.8,1-1.2,1.5c-0.5,0.5-0.9,1.1-1.3,1.8c-0.4,0.7-0.7,1.4-1.1,2.1c-0.6,1.1-1.1,2.3-1.5,3.5
		c-0.3,0.8-0.6,1.5-0.9,2.3c-0.4,1.1-0.7,2.2-1,3.3c-0.1,0.4,0,0.8,0.1,1.2c0.2,1.1-0.2,2-0.8,2.7c-0.1,0.1-0.4,0.2-0.5,0.2
		c-0.3-0.2-0.5,0-0.7,0.1c-0.5-0.1-0.8-0.3-1.3-0.4c0-0.1-0.1-0.2-0.1-0.2c-0.5-0.3-0.8-0.5-1-0.7c-0.2-0.8-0.4-1.5-0.5-2.2
		c0.1-0.1,0.2-0.2,0.3-0.4c0-0.3,0-0.5,0.1-0.7c0.4-0.7,0.4-1.5,0.2-2.2c-0.2-1.4-0.4-2.8-0.8-4.1c-0.3-1-0.4-2-0.9-2.9
		c-0.3-0.6-0.5-1.2-0.8-1.9c-0.3-0.9-0.9-1.5-1.6-2.2c-0.5-0.5-1-1-1.7-1.3c-0.4-0.2-0.9-0.4-1.3-0.5c-0.2-0.1-0.5-0.1-0.7-0.3
		c-1.2-0.7-2.3-0.4-3.3,0.4c-0.6,0.4-1.1,0.9-1.4,1.5c-0.4,0.7-1,1.3-1.5,2c-0.9,1.5-1.8,3.1-2.5,4.8c-0.5,1.2-1.2,2.4-1.6,3.7
		c-0.4,1.1-0.7,2.2-1,3.3c0,0.1,0,0.3,0,0.4c0.4,0.5,0.7,1.1,1.4,1.4c0.7,0.2,1.3,0.6,2,0.7c0.9,0.1,1.8,0.3,2.8,0.5
		c0.1,0,0.3,0,0.4,0.1c1.2,0.5,2.5,0.7,3.7,1.3c0.8,0.4,1.5,0.8,2.2,1.3c0.9,0.6,1.9,1,2.9,1.5c0.8,0.4,1.5,0.8,2.2,1.3
		c0.9,0.6,1.8,1.2,2.6,1.9c0.7,0.6,1.4,1.4,2,2.1c0.7,0.9,1.4,1.9,2.1,2.9c0.8,1.2,1.5,2.5,2.2,3.8c0.6,1.1,0.9,2.2,1.2,3.4
		c0.1,0.7,0.3,1.5,0.4,2.2c0,0.6-0.2,1.3-0.3,1.9c0,0.1-0.1,0.3-0.1,0.4c-0.2,1.2-0.7,2.2-1.4,3.1c-0.9,1.2-1.9,2.2-3,3.1
		c-0.9,0.7-1.9,1.3-2.9,2c-2.5,1.6-5.1,2.8-8,3.6c-1.7,0.5-3.5,0.9-5.3,1c-1.1,0.1-2.2-0.1-3.3-0.2c-1.2-0.2-2.3-0.4-3.4-1
		c-0.8-0.4-1.7-0.9-2.4-1.5c-0.7-0.6-1.3-1.4-1.9-2.2c-0.3-0.5-0.6-1.1-0.8-1.6c-0.5-1.4-0.8-2.9-0.6-4.4c0-0.2,0-0.4,0-0.6
		c0.7-0.9,1-2,1.3-3.1C2.9,48.1,3.1,48,3.2,48c0.1-0.1,0.3-0.1,0.5-0.3c0,0.7,0,1.2-0.1,1.7c-0.1,0.8-0.2,1.5-0.3,2.3
		c0,0.2,0,0.3,0,0.5c0,1.7,0.6,3.1,1.5,4.4c0.4,0.6,0.9,1.1,1.6,1.4c0.2,0.1,0.4,0.3,0.7,0.5c1.1,0.6,2.3,1,3.4,1.1
		c1.1,0.1,2.3,0.3,3.5,0c0.9-0.2,1.9-0.3,2.9-0.5c1.2-0.2,2.4-0.7,3.6-1.2c1.8-0.8,3.6-1.7,5.2-2.7c2.1-1.4,4.1-3,5.4-5.2
		c0.5-0.8,0.7-1.7,0.7-2.7c0-1.1-0.3-2.2-0.6-3.3c-0.1-0.4-0.4-0.8-0.6-1.2c-0.8-1.4-1.7-2.8-2.6-4.2c-0.7-1-1.4-2-2.4-2.8
		c-1.3-1.1-2.7-1.9-4.2-2.7c-0.5-0.3-1.2-0.5-1.7-0.8c-1.3-0.7-2.6-1.5-4-2.1c-1-0.4-2.1-0.9-3.2-1c-0.4,0-0.8-0.2-1.2-0.3
		c-1-0.2-2.1-0.2-3.1-0.5c-0.6-0.2-1.2-0.4-1.7-0.8c-0.6-0.5-1.3-0.9-1.7-1.6c-0.1-0.2-0.2-0.4-0.4-0.5c-0.1-0.1-0.1-0.3-0.2-0.4
		c-0.8-0.7-1-1.6-0.8-2.6c0.2-1.4,0.7-2.7,1.2-3.9c0.5-1.1,0.8-2.1,1.3-3.2c0.4-1,0.9-2.1,1.4-3.1C8.2,11,8.9,9.7,9.6,8.4
		c0.7-1.2,1.5-2.3,2.5-3.3C13,4.3,14,3.9,15.1,3.6c1-0.3,1.9-0.1,2.7,0.1c1.6,0.4,3.2,1.1,4.6,2.1c0.7,0.5,1.3,1.2,1.9,1.9
		c0.6,0.7,1.1,1.5,1.6,2.3c0.2,0.3,0.3,0.7,0.5,1c0.2,0.4,0.3,0.7,0.5,1.1c0.1,0.2,0.1,0.4,0.2,0.6c0.4,1.5,0.9,2.9,1.3,4.4
		C28.4,17.1,28.5,17.1,28.6,17.2z"/>
	<path stroke="#000000" stroke-width="3" stroke-miterlimit="10" d="M234.7,42.6c0.6,0.4,1.2,0.5,1.8,0.6c0.7,0.1,1.4,0.2,2.1,0.4
		c0.8,0.2,1.6,0.3,2.3,0.5c0.5,0.1,0.9,0.2,1.4,0.4c0.4,0.1,0.8,0.2,1.3,0.3c1.4,0.1,2.8,0.3,4.3,0.4c0.3,0,0.6,0,0.8-0.1
		c0.7-0.1,0.8-0.1,1.5,0.3c0.1,0.3,0.1,0.6,0.2,0.9c-0.1,0.4-0.3,0.6-0.7,0.8c-0.2,0.1-0.3,0.2-0.4,0.3c-0.4,0.3-0.9,0.5-1.5,0.5
		c-0.5,0-1,0.2-1.5,0.1c-1.2-0.1-2.3-0.2-3.4-0.5c-1.3-0.4-2.6-0.6-3.9-0.8c-1.4-0.2-2.9-0.5-4.3-0.7c-0.1,0-0.2,0-0.3,0
		c0,0.2-0.1,0.3-0.1,0.4c0.3,0.7-0.1,1.4-0.3,2c-0.3,0.7-0.6,1.5-0.8,2.2c-0.1,0.4-0.2,0.8-0.3,1.2c-0.3,1-1.3,1.3-2,0.8
		c-0.3-0.2-0.6-0.3-0.9-0.4c-0.2-0.2-0.4-0.5-0.6-0.7c0-0.4-0.1-0.7-0.1-1c0-0.3,0.1-0.7,0.2-1c0.2-0.4,0.4-0.7,0.6-1.1
		c0.2-0.8,0.4-1.6,0.6-2.4c-0.5-0.4-1-0.8-1.4-1.2c-0.1-0.5-0.2-0.9-0.4-1.3c0.1-0.3,0.2-0.6,0.4-0.9c0.1-0.2,0.3-0.4,0.5-0.5
		c0.5-0.3,1.1-0.6,1.5-0.9c0.2-0.2,0.4-0.4,0.5-0.7c0.2-0.6,0.3-1.2,0.4-1.8c0.2-0.9,0.4-1.8,0.7-2.8c0.3-1.4,0.6-2.7,0.9-4.1
		c0.2-0.8,0.3-1.6,0.5-2.4c0.1-0.5,0.2-1,0.4-1.5c0.2-0.8,0.5-1.7,0.7-2.6c-0.7-0.2-1.1,0-1.4,0.5c-0.4,0.6-0.7,0.7-1.4,0.7
		c-0.5,0-0.9-0.1-1.4-0.3c-0.2-0.2-0.4-0.5-0.6-0.7c-0.5-0.7-0.4-1.2,0-1.9c0.5-0.9,1.4-1.1,2.3-1.1c0.1,0,0.3,0,0.4,0
		c0.6-0.4,1.3-0.3,1.9-0.4c0.5-0.1,1.1-0.2,1.6-0.4c0.4-0.2,0.9-0.3,1.3-0.1c1,0.4,2,0.1,3,0.2c0.6,0,1.1,0,1.7,0
		c0.2,0,0.4-0.1,0.7-0.1c1.2-0.1,2.5,0.1,3.7,0.4c0.6,0.1,1.2,0.2,1.6,0.5c0.2,0.2,0.4,0.3,0.7,0.6c0.2-0.4,0.4-0.7,0.6-1.1
		c0.8-0.2,1.6-0.5,2.5-0.7c1.1-0.2,2.1-0.2,3.2-0.3c0.6-0.1,1.2-0.1,1.9-0.2c0.7-0.1,1.3-0.2,2-0.3c1.5-0.2,3-0.4,4.5-0.5
		c0.9-0.1,1.8-0.3,2.7-0.3c0.4,0,0.8-0.1,1.2-0.2c0.4-0.1,0.7-0.2,1.1-0.1c0.9,0.1,1.7-0.2,2.5-0.3c0.2,0,0.3-0.1,0.5-0.1
		c0.7,0.1,1.4-0.2,2-0.4c1-0.4,2.1,0.2,2.5,1c0.1,0.1,0.1,0.2,0.2,0.3c0.5,0.6,0.3,1.3-0.1,1.8c-0.3,0.6-1,0.7-1.6,0.6
		c-1.3-0.2-2.6,0-3.9,0.1c-0.7,0-1.5,0.1-2.2,0.1c-0.4,0-0.8,0.1-1.3,0.2c-1.1,0.1-2.1,0.2-3.2,0.3c-0.2,0-0.4,0.2-0.6,0.3
		c0.2,0.6,0.4,1.1,0.6,1.5c-0.3,0.6-0.5,1.2-1.1,1.5c-0.3,0.2-0.5,0.6-0.6,1c-0.5,1.6-1,3.2-1.4,4.9c-0.3,1.2-0.5,2.5-0.8,3.7
		c-0.2,0.8-0.4,1.6-0.5,2.3c-0.3,1.6-0.6,3.3-0.9,4.9c-0.1,0.6-0.1,1.3-0.1,2c0.3-0.2,0.6-0.5,1-0.1c0.1,0.7,0.2,1.5,0.1,2.2
		c0,0.5-0.2,0.9-0.3,1.4c-0.1,0.2-0.1,0.4-0.2,0.6c-0.1,0.4-0.1,0.9-0.2,1.3c-0.3,0.9-0.4,1.8-0.5,2.7c0,0.2,0,0.3-0.1,0.4
		c-0.3,0.8-1.1,1.2-1.9,0.9c-0.6-0.2-1.1-0.5-1.4-1c-0.5-0.7-0.6-1.3-0.4-2.1c0.3-1.6,0.6-3.2,0.6-4.9c0-0.9,0.1-1.7,0.3-2.5
		c0.2-0.7,0-1.4,0.2-2c0.2-0.8,0.3-1.7,0.5-2.6c0.1-0.8,0.2-1.6,0.4-2.5c0.2-0.9,0.4-1.7,0.5-2.6c0.2-0.9,0.4-1.8,0.6-2.7
		c0.2-0.9,0.4-1.9,0.8-2.7c0.2-0.4,0.2-0.9,0.4-1.3c0.2-0.7,0.4-1.3,0.6-2c0.1-0.6,0.2-1.3,0.3-2c-0.9-0.1-1.8-0.1-2.6,0.1
		c-0.2,0-0.3,0.1-0.5,0.1c-1,0.1-2,0.2-3,0.3c-0.4,0.1-0.9,0.2-1.3,0.3c-0.1,0-0.3,0.1-0.4,0.2c-0.2,0.4-0.5,0.4-0.9,0.6
		c0,0.2-0.1,0.4,0,0.6c0.4,1.1,0,2-0.8,2.8c-0.6,0.7-1.4,1.3-2.1,2c-0.5,0.5-0.9,0.9-1.4,1.4c-0.9,0.8-1.8,1.5-2.6,2.3
		c-1.1,1-2.4,1.7-3.3,2.8c-0.3,0.3-0.7,0.5-1.1,0.8c-1.3,1.1-2.5,2.3-3.8,3.4C235.7,41.8,235.2,42.2,234.7,42.6z M239,24.7
		c-0.2,0.2-0.5,0.4-0.6,0.7c-0.4,0.9-0.7,1.9-0.9,2.8c-0.4,1.3-0.7,2.6-1,3.9c-0.4,1.7-0.8,3.4-1.2,5.2c0,0.2,0,0.4-0.1,0.7
		c0.1,0,0.2,0,0.3,0c0.6-0.4,1.1-0.9,1.6-1.3c0.8-0.7,1.6-1.5,2.5-2.2c1.6-1.3,3.2-2.6,4.7-4.1c0.8-0.8,1.6-1.5,2.3-2.3
		c0.4-0.5,0.9-0.9,1.1-1.5c0.2-0.7,0-1.2-0.7-1.4c-1.1-0.4-2.4-0.5-3.6-0.5C242,24.4,240.6,24.6,239,24.7z"/>
	<path stroke="#000000" stroke-width="3" stroke-miterlimit="10" d="M214.7,3.2c0.7-0.6,1.4-1.1,2-1.6c0.4,0,0.8,0.1,1.1,0.1
		c1.8,0.2,3,1.4,4.1,2.7c0.5,0.6,0.9,1.2,1.3,1.8c0.4,0.6,0.7,1.2,1,1.9c0.4,0.9,0.9,1.8,1.1,2.8c0.2,0.7,0.6,1.4,0.8,2.1
		c0.3,1.1,0.8,2.2,0.7,3.4c0,0.1,0,0.3,0.1,0.5c0.4,1.7,0.4,3.4,0.4,5.2c0,1.3,0,2.5-0.2,3.8c-0.2,1.1-0.4,2.2-0.6,3.3
		c-0.2,0.7-0.4,1.4-0.7,2.1c-0.1,0.2-0.1,0.4-0.1,0.7c-0.1,1.5-0.8,2.9-1.3,4.3c-0.2,0.5-0.3,1-0.5,1.5c-0.5,1.1-1,2.2-1.6,3.3
		c-0.4,0.7-0.7,1.4-1.1,2c-0.7,1.1-1.4,2.3-2.5,3.2c-0.1,0.1-0.2,0.1-0.2,0.2c-0.5,0.9-1.3,1.5-2,2.2c-0.3,0.3-0.6,0.7-0.9,1
		c-1.1,1-2.4,1.8-3.7,2.5c-1,0.5-2,1-3.1,1.4c-0.9,0.3-1.8,0.5-2.7,0.6c-0.8,0.1-1.6,0.2-2.4,0.3c-0.8,0.1-1.6,0.2-2.4,0
		c-0.4-0.1-0.9-0.1-1.4-0.1c-1.2-0.2-2.4-0.6-3.4-1.4c-0.8-0.6-1.5-1.2-2-2.2c-0.9-1.7-1.2-3.5-1.4-5.4c-0.3-2.6-0.1-5.3,0.2-7.9
		c0.3-1.8,0.5-3.6,0.8-5.5c0.1-0.9,0.4-1.8,0.6-2.6c0.2-1.1,0.7-2.2,0.8-3.4c0-0.5,0.3-0.9,0.4-1.3c0.3-0.8,0.5-1.6,0.8-2.4
		c0.5-1.5,1.1-3,1.6-4.4c0.6-1.7,1.5-3.4,2.3-5c0.7-1.3,1.6-2.6,2.5-3.8c0.4-0.6,0.9-1.2,1.4-1.7c0.5-0.6,1.1-1.2,1.7-1.7
		c1.3-1,2.6-2,4.2-2.6c1-0.4,2-0.3,3,0C214,2.9,214.4,3,214.7,3.2z M216.8,5c0.1,0.1,0.3,0.2,0.4,0.4c0.4,1,0.9,2,1.1,3
		c0.1,0.6,0,1.1,0.1,1.6c0.1,1-0.4,1.6-1,2.2c-0.5,0.4-1,0.3-1.4-0.2c-0.3-0.5-0.6-1-0.5-1.6c0.2-1.4,0-2.7-0.8-3.9
		c-0.4-0.7-1-1.2-1.8-1.2c-0.6,0-1.3,0.2-1.9,0.4c-0.9,0.4-1.6,1.1-2.4,1.7c-0.7,0.5-1.2,1.3-1.8,1.9c-0.4,0.4-0.8,0.8-1.1,1.2
		c-0.4,0.6-0.8,1.1-1.2,1.7c-1,1.5-2,3-2.6,4.7c-0.6,1.6-1.3,3.1-1.9,4.7c-0.7,1.8-1.3,3.6-1.8,5.5c-0.5,1.5-0.8,3.1-1.1,4.7
		c-0.3,1.6-0.6,3.2-1,4.8c-0.1,0.4-0.1,0.8-0.1,1.2c-0.1,0.8-0.3,1.7-0.3,2.5c-0.1,0.9,0,1.8,0,2.6c0,0.6,0,1.3,0,1.9
		c0,1.7,0.3,3.4,1.4,4.7c0.2,0.3,0.6,0.4,0.8,0.7c0.5,0.6,1.2,0.7,1.9,0.9c0.7,0.2,1.5,0.2,2.2,0.2c1.3,0.1,2.6-0.1,3.9-0.4
		c1.2-0.3,2.5-0.7,3.6-1.2c1.2-0.6,2.3-1.3,3.4-2c0.4-0.3,0.8-0.6,1.2-0.9c1-1.1,2.2-2.1,3-3.3c0.4-0.6,0.9-1.1,1.2-1.7
		c0.8-1.6,1.8-3,2.5-4.6c0.7-1.6,1.4-3.2,1.9-4.9c0.6-2.2,1.2-4.3,1.4-6.6c0.1-1.3,0.3-2.6,0.4-3.9c0-0.4,0-0.7,0-1.1
		c-0.1-1.1-0.1-2.3-0.3-3.4c-0.3-1.2-0.4-2.4-0.6-3.6c-0.2-1-0.6-1.9-1-2.8c-0.2-0.5-0.3-1.1-0.6-1.6c-0.5-1.1-1.2-2-1.9-3
		c-0.3-0.5-0.7-1-1.1-1.4c-0.5-0.6-0.7-0.7-1.5-0.4C217.2,4.5,216.8,4.5,216.8,5z"/>
	<path stroke="#000000" stroke-width="3" stroke-miterlimit="10" d="M114.4,57.6c-0.4-0.3-0.8-0.7-1.3-1c-0.4-0.3-0.9-0.5-1.4-0.6
		c-0.6-0.2-1.1-0.5-1.3-1.1c-0.1-0.4-0.4-0.7-0.4-1.1c0-0.7,0.3-1.1,0.8-1.5c0.7-0.4,1.4-0.9,2.1-1.1c0.2-0.1,0.4-0.2,0.7-0.3
		c0.4-1.7,0.7-3.5,1.1-5.2c0.2-0.9,0.2-1.7,0.4-2.6c0.3-1.4,0.4-2.8,0.6-4.2c0.1-0.8,0.1-1.7,0.2-2.6c0-0.6,0.1-1.2,0.1-1.8
		c0-1.1,0.1-2.1,0.1-3.2c0-1.2-0.1-2.4,0.1-3.6c0.1-0.8,0-1.6-0.1-2.3c0-0.6,0-1.1-0.1-1.8c-0.9-0.3-1.7-0.5-2.6,0.1
		c-0.3,0.2-0.8,0.2-1.2,0.3c-0.2,0-0.4-0.1-0.6-0.1c-0.4-0.3-0.7-0.6-1.1-0.9c0,0,0,0,0,0.1c-0.2-0.3-0.4-0.6-0.6-0.9
		c-0.1-0.8,0.2-1.5,0.7-2.2c0.3-0.1,0.6-0.3,0.9-0.4c0.8-0.3,1.5-0.2,2.2,0.2c0.2,0.1,0.4,0.1,0.6,0.2c0.9,0.1,1.9,0.1,2.8,0.3
		c0.5,0.1,1.1,0.1,1.5,0.3c0.9,0.3,1.9,0.3,2.8,0.4c1.2,0.1,2.5,0.3,3.7,0.2c0.9,0,1.8,0.1,2.6,0.1c0.5,0,0.9,0.1,1.4,0.3
		c0.8,0.2,1.6,0.4,2.4,0.7c0.4,0.1,0.9,0.4,1.3,0.6c0.5,0.3,0.9,0.6,1.3,0.8c0.8,0.5,1.4,1.1,2,1.7c0.4,0.4,0.8,0.9,1.2,1.3
		c0.2,0.3,0.5,0.5,0.7,0.8c0.3,0.4,0.5,0.7,0.8,1.1c0.2,0.3,0.2,0.7,0.6,0.9c0.1,0.1,0.1,0.2,0.2,0.3c0,0.1,0,0.3,0.1,0.4
		c0.7,0.8,0.7,1.9,0.9,2.8c0.1,0.6,0.3,1.3,0.1,1.9c-0.1,0.4-0.1,0.8-0.2,1.3c-0.2,1.3-1,2.3-1.6,3.4c-0.8,1.4-1.9,2.5-2.8,3.8
		c-0.6,0.8-1.4,1.5-2.1,2.2c-0.7,0.6-1.4,1.3-2.1,1.9c-1,0.8-2,1.7-3,2.4c-0.9,0.6-1.8,1.2-2.7,1.8c-0.8,0.5-1.6,1.1-2.5,1.5
		c-0.4,0.2-0.7,0.3-1.1,0.5c-0.8,0.3-1.5,0.8-2.3,1c-1.3,0.4-2.5,0.8-3.7,1.2c-0.4,0.1-0.7,0.3-0.9,0.7
		C115.6,57.3,115.2,57.6,114.4,57.6z M135.7,28.2c0-0.1,0-0.3-0.1-0.4c-0.3-0.4-0.6-0.7-1-1c-0.7-0.5-1.4-1-2.1-1.4
		c-0.9-0.5-1.9-0.8-2.8-1c-0.5-0.1-1,0-1.5-0.2c-0.7-0.2-1.5-0.3-2.2-0.3c-1,0-2.1,0-3.1,0c-0.8,0-1.6,0-2.3-0.1
		c-0.4,0-0.7,0.2-0.9,0.5c-0.1,0.2-0.2,0.4-0.3,0.6c0.1,0.4,0.2,0.7,0,1.1c0,0.1,0,0.2,0,0.3c0,0.7,0,1.4,0,2.2
		c0,1.2-0.1,2.4-0.1,3.5c0,0.8-0.1,1.7-0.1,2.5c0,0.6-0.1,1.1-0.2,1.7c-0.1,0.7-0.1,1.3-0.1,2c0,0.4,0,0.9,0,1.3
		c-0.1,1.6-0.7,3.1-0.6,4.7c0,0.1,0,0.1-0.1,0.2c-0.1,0.7-0.3,1.4-0.4,2.1c-0.2,1.5-0.5,2.9-0.7,4.4c-0.1,0.5-0.1,1-0.2,1.5
		c0.9-0.3,1.8-0.5,2.7-0.8c0.1,0,0.2-0.1,0.4-0.1c0.8-0.4,1.6-0.8,2.4-1.3c1-0.6,2-1.1,3-1.7c1.1-0.7,2.3-1.4,3.3-2.3
		c0.3-0.3,0.7-0.5,1.1-0.8c0.8-0.7,1.8-1.2,2.4-2c0.3-0.4,0.6-0.7,0.9-1c0.6-0.7,1.3-1.3,1.9-1.9c0.6-0.8,1.3-1.5,1.8-2.4
		c0.3-0.6,0.8-1.1,1.1-1.7c0.2-0.6,0.5-1.3,0.6-1.9c0.2-0.8,0.2-1.7-0.1-2.5c-0.2-0.4-0.3-0.8-0.5-1.2c-0.3-0.6-0.7-1.1-0.9-1.7
		C136.5,28.6,136.2,28.4,135.7,28.2L135.7,28.2z"/>
	<path stroke="#000000" stroke-width="3" stroke-miterlimit="10" d="M295.2,33.1c0.5-0.5,1-0.9,1.4-1.4c0.4-0.5,0.8-1.1,1.2-1.7
		c0.4-0.5,0.8-1,1.2-1.5c0.4-0.5,0.9-0.9,1.1-1.6c-0.6,0.1-1.3,0.1-1.9,0.3c-1,0.2-2.1,0.3-3.1,0.7c-0.1,0-0.2,0.1-0.4,0.1
		c-1.2,0.2-2.5,0.4-3.7,0.7c-0.6,0.1-1.1,0.3-1.7,0.4c-0.9,0.1-1.7,0.6-2.5,1.1c-0.3,0.2-0.8,0.2-1.2,0.1c-0.8-0.4-1.4-0.9-1.7-1.9
		c-0.3-0.9,0-1.6,0.5-2.3c0.3-0.4,0.8-0.5,1.3-0.5c0.5,0,1,0.1,1.6,0.1c1.3,0.1,2.7,0,3.9-0.4c0.6-0.2,1.3-0.3,1.9-0.5
		c0.9-0.2,1.8-0.6,2.8-0.6c1.4-0.1,2.7-0.6,4.1-0.8c0.7-0.1,1.5-0.4,2.2-0.7c0.9-0.4,1.8-0.8,2.7-1.2c0.5,0.4,1,0.7,1.5,1.1
		c0.3,0.2,0.5,0.5,0.7,0.8c0.2,0.3,0.3,2.1,0.2,2.5c-0.1,0.5-0.5,0.8-0.9,1c-0.2,0.1-0.5,0.3-0.6,0.6c-0.4,0.1-0.8,0.1-1.2,0.2
		c-0.2,0.1-0.5,0.2-0.6,0.4c-0.8,0.8-1.6,1.7-2.3,2.6c-1.2,1.4-2.5,2.9-3.7,4.4c-0.7,0.9-1.4,1.9-2.1,2.9c-1,1.4-1.9,2.8-3,4.1
		c-0.8,0.9-1.4,2-2.2,3c-0.8,0.9-1.5,1.9-2.2,2.9c-0.5,0.7-1,1.4-1.5,2.1c-0.1,0.1-0.1,0.3-0.2,0.4c0.8-0.1,1.6-0.2,2.4-0.3
		c1.2-0.1,2.4-0.2,3.5-0.3c0.6-0.1,1.2-0.2,1.8-0.2c0.6-0.1,1.2-0.2,1.7-0.2c1,0,1.9-0.2,2.8-0.3c1.4-0.2,2.8-0.4,4.3-0.6
		c0.3,0,0.5-0.1,0.8-0.2c0.9-0.2,1.9-0.3,2.8-0.4c0.3-0.1,0.7-0.1,1-0.2c0.8-0.3,1.6-0.3,2.4,0.2c0.4,0.8,0.5,1.6,0,2.5
		c-0.3,0.4-0.6,0.7-1.1,0.7c-1.2,0.2-2.4,0.4-3.6,0.5c-0.9,0-1.7,0.2-2.6,0.4c-1.8,0.3-3.7,0.6-5.5,0.8c-1.9,0.2-3.7,0.5-5.6,0.6
		c-1.6,0.1-3.1,0.4-4.7,0.7c-0.8,0.1-1.5,0.3-2.2,0.5c-0.5,0.2-0.8,0.6-1.2,0.9c-0.4,0.3-0.8,0.7-1.2,1.1c-0.8-0.3-1.5-0.5-2.2-0.7
		c-0.3-0.9-0.9-1.6-1-2.5c-0.1-0.8,0.2-1.4,0.9-1.9c0.2-0.1,0.4-0.3,0.5-0.5c0-0.1-0.1-0.1-0.1-0.2c0.4-0.1,0.8-0.2,1.2-0.3
		c0.3-0.1,0.5-0.3,0.7-0.5c1-0.9,1.7-2.1,2.5-3.1c0.2-0.3,0.5-0.6,0.8-0.9c0.5-0.5,0.9-1,1.2-1.6c0-0.1,0.1-0.2,0.2-0.3
		c0.9-1.1,1.7-2.3,2.6-3.4c0.6-0.8,1.3-1.6,1.9-2.4c0.4-0.5,0.7-1.1,1.1-1.7c0.2-0.3,0.6-0.5,0.6-1c-0.3,0-0.6,0.1-0.9,0.1
		c-0.4-0.6-0.7-1.2-1.1-1.7c0.2-0.8,0.4-1.5,0.6-2.3c0.2,0.2,0.3,0.4,0.5,0.6c0.2-0.1,0.4-0.2,0.6-0.3C294,32,295.1,32,295.2,33.1z"
		/>
	<path stroke="#000000" stroke-width="3" stroke-miterlimit="10" d="M41.3,61c-0.7-0.7-1.6-1.1-1.7-2.1c0.4-1.7,0.9-3.3,0.8-5.1
		c0-0.6,0.1-1.2,0.1-1.7c0.1-1.6,0.2-3.2,0.4-4.7c0-0.5,0.2-1,0.3-1.5c0.1-0.5,0.1-1,0.1-1.6c-0.1-0.1-0.2-0.2-0.3-0.2
		c-0.7-0.2-0.9-0.7-1.1-1.3c-0.1-0.4,0.1-0.7,0.4-1c0.1-0.1,0.2-0.1,0.3-0.1c1-0.3,1.3-1.1,1.3-2.1c0.1-0.9,0.1-1.8,0.4-2.6
		c0.1-0.4,0.1-0.8,0.2-1.2c0.1-0.9,0.3-1.7,0.4-2.6c0.1-0.5,0.1-1.1,0.2-1.6c0-0.4,0-0.7,0-1.1c0-0.3,0.1-0.6,0.1-1
		c0.1-0.8,0.2-1.5,0.4-2.3c0.2-1.1,0.5-2.1,0.8-3.3c-0.2,0-0.4,0-0.5,0.1c-1.2,0.7-2.3,1.6-3.1,2.8c-0.4,0.6-0.9,1.1-1.8,1.1
		c-0.2-0.1-0.5-0.2-0.9-0.4c0-0.1-0.1-0.2-0.1-0.4c-1.1-0.6-1.3-1.6-0.5-2.7c0.7-0.9,0.7-0.9,1.4-1.1c0.8-0.6,1.4-1.1,2.1-1.5
		c0.7-0.4,1.5-0.8,2.3-1.1c0.8-0.4,1.6-0.9,2.5-1.3c0.7-0.3,1.4-0.6,2.1-0.9c0.9-0.5,2-0.5,3-1.1c0.1-0.1,0.3-0.1,0.5-0.1
		c0.2,0,0.4,0,0.5-0.1C52,17,52.5,17,52.9,17c0.3,0,0.5-0.1,0.8-0.1c1.1-0.2,2.2-0.3,3.3-0.1c0.5,0.1,1.1,0.2,1.6,0.4
		c1.4,0.5,2.6,1.4,3.6,2.5c0.6,0.6,1.1,1.3,1.5,2.1c0.5,0.8,0.7,1.7,0.8,2.6c0,0.9-0.3,1.7-0.8,2.5c-1,1.5-2.3,2.8-3.7,4.1
		c-1.1,1-2.2,2-3.4,3c-1,0.9-2.1,1.8-3.1,2.7c-0.8,0.6-1.6,1.2-2.4,1.8c-0.3,0.2-0.6,0.5-0.9,0.7c-0.7,0.5-1.3,1-2,1.5
		c-0.7,0.5-1.4,0.9-2.1,1.3c-0.6,0.4-1.2,0.7-1.7,1.1c-0.2,0.1-0.3,0.3-0.4,0.6c-0.1,0.7-0.2,1.5-0.2,2.2c0,0.2,0,0.4,0,0.6
		c0.4,0.1,0.7,0.1,0.9,0.1c0.1,0.4,0.2,0.7,0.3,1.1c0,0.2,0,0.3,0,0.5c-0.2,1.4-0.5,2.8-0.6,4.2c-0.2,1.7-0.7,3.3-1,5
		c-0.1,0.6-0.2,1.3-0.2,1.9c0,0.5-0.3,1-0.5,1.6C42.1,61,41.7,61,41.3,61z M48.6,23.8c-0.4,0.9-0.8,1.8-1.2,2.8
		c-0.2,0.5-0.2,1.1-0.5,1.5c-0.5,0.8-0.7,1.6-0.9,2.5c-0.2,1-0.3,2-0.5,3.1c-0.2,0.9-0.4,1.7-0.5,2.6c-0.1,0.9-0.2,1.7-0.4,2.6
		c0,0.1,0.1,0.3,0.1,0.5c0.7-0.5,1.4-0.9,2-1.3c1-0.6,1.8-1.4,2.7-2.1c1.2-1,2.5-2,3.7-3.1c1.1-1,2.4-1.8,3.4-3.1
		c0.8-0.9,1.8-1.7,2.6-2.6c0.5-0.5,0.9-0.9,1.2-1.5c0.3-0.5,0.7-1.1,0.7-1.7c0.1-1.1-0.4-2.1-1.2-2.9c-0.5-0.6-1.1-0.9-1.8-1.2
		c-1.5-0.6-3-0.4-4.5-0.1c-0.6,0.1-1.2,0.4-1.8,0.6c-0.5,0.2-1.1,0.3-1.6,0.5c-0.6,0.2-1.3,0.5-1.9,0.7c-0.1,0-0.2,0.2-0.3,0.3
		c0.2,0.2,0.4,0.5,0.5,0.6C48.7,22.9,48.6,23.3,48.6,23.8z"/>
	<path stroke="#000000" stroke-width="3" stroke-miterlimit="10" d="M110.4,47c0.1,0.2,0.2,0.2,0.2,0.3c0,0.4,0.1,0.9,0.1,1.3
		c0.1,0.7-0.2,1.3-0.5,1.9c-0.4,1-1.1,1.6-2,2.1c-0.8,0.4-1.5,0.8-2.3,1.1c-0.2,0.1-0.3,0.1-0.5,0.2c-0.3,0.1-0.6,0.3-0.9,0.4
		c-1.7,0.5-3.3,1.1-5,1.5c-1.6,0.4-3.3,0.6-5,0.6c-0.9,0-1.9,0-2.8-0.2c-1.8-0.3-3.3-1.3-4.1-3c-0.3-0.7-0.7-1.4-0.7-2.1
		c-0.2-2.1-0.1-4.3,0.1-6.4c0.1-1.3,0.4-2.5,0.6-3.7c0-0.2,0.1-0.5,0.1-0.7c-0.7-0.9-1.2-1.8-0.7-3.1c0.3-0.5,0.9-0.7,1.6-0.9
		c0.1-0.2,0.1-0.3,0.2-0.5c0.4-1.2,0.7-2.5,1.1-3.7c0.2-0.8,0.4-1.6,0.7-2.4c0.2-0.8,0.5-1.6,0.8-2.3c0-0.1,0.1-0.3,0.1-0.5
		c-0.5-0.1-0.9-0.2-1.3-0.3c-0.3-0.3-0.5-0.5-0.9-0.9c0,0,0-0.2-0.1-0.4c-0.1-0.3-0.4-0.7-0.2-1c0.3-0.5,0.7-0.9,1.1-1.3
		c0.1-0.1,0.2-0.1,0.4-0.1c0.3,0,0.6-0.1,1-0.1c0.7-0.2,1.4-0.3,2-0.7c0.3-0.3,0.5-0.7,0.8-1c0.6-0.6,1.5-0.7,2.2-0.2
		c0.2,0.2,0.4,0.3,0.7,0.5c1.3,0,2.6-0.5,3.8-1c1.9-0.9,3.9-1.8,5.9-2.6c0.5-0.2,1.1-0.2,1.6-0.2c0.2,0,0.6,0.2,0.7,0.4
		c0.5,0.7,1.1,1.3,0.8,2.3c-0.1,0.1-0.1,0.3-0.3,0.4c-0.4,0.5-1,0.7-1.6,0.5c-0.3-0.1-0.6-0.1-1,0c-0.7,0.2-1.4,0.4-2.1,0.7
		c-0.6,0.2-1.2,0.6-1.8,0.9c-1.4,0.6-2.8,1.1-4.1,1.6c-0.8,0.3-1.7,0.6-2.6,0.8c-0.5,0.1-0.8,0.5-0.9,0.8c-0.6,1.2-1.2,2.4-1.6,3.6
		c-0.3,0.7-0.7,1.4-0.9,2.1c-0.2,0.8-0.5,1.5-0.7,2.2c0,0.2,0,0.3-0.1,0.6c0.6,0,1-0.3,1.4-0.5c0.8-0.3,1.6-0.7,2.4-1.1
		c0.5-0.2,1-0.5,1.5-0.8c0.2-0.1,0.4-0.2,0.6-0.3c0.8-0.2,1.6-0.5,2.4-0.7c0.3-0.1,0.6,0,0.9,0c0.5,0.1,1.1,0.2,1.7,0.3
		c0,0.2,0,0.4,0.1,0.7c-0.6,0.3-1,1-1.7,1.2c-0.3,0.1-0.6,0.3-0.9,0.5c-0.1,0-0.1,0.1-0.2,0.1c-1.2,0.1-2.1,1-3.2,1.5
		c-1.1,0.5-2.2,1.1-3.2,1.7c-0.9,0.5-1.8,1.1-2.7,1.6c-0.3,0.2-0.5,0.4-0.5,0.7c-0.1,0.7-0.3,1.4-0.5,2.1c-0.2,1-0.4,2-0.6,3
		c-0.2,1.3-0.3,2.7-0.3,4c0,1,0.1,2,0.4,2.9c0.1,0.4,0.4,0.8,0.7,0.9c0.7,0.4,1.4,0.8,2.3,0.8c1.3,0.1,2.5,0.1,3.7-0.2
		c1.1-0.3,2.2-0.2,3.2-0.7c0.7-0.3,1.3-0.5,2.1-0.6c0.4,0,0.8-0.3,1.3-0.5c1-0.4,2.1-0.8,3.1-1.3c1.2-0.6,2-1.5,2.7-2.6
		C109.5,47.3,109.9,47.1,110.4,47z"/>
	<path stroke="#000000" stroke-width="3" stroke-miterlimit="10" d="M84.5,22.7c-0.2-0.2-0.4-0.5-0.6-0.7c-1-0.4-2,0.1-2.9,0.4
		c-1,0.4-2.1,0.9-3.1,1.4c-1,0.5-2.1,1-3.1,1.5c-0.4,0.2-0.9,0.5-1.3,0.8c-0.5,0.3-0.9,0.5-1.4,0.8c-1.1,0.6-1.9,1.4-2.2,2.7
		c-0.3,1.5-0.7,2.9-1.1,4.3c-0.2,0.7-0.3,1.4-0.4,2.1c0.2,0,0.4,0,0.6,0c1.7-0.6,3.3-1.3,5-2c0.8-0.3,1.5-0.8,2.3-1
		c0.9-0.3,1.7-0.9,2.7-0.9c0.2,0,0.4-0.2,0.5-0.3c0.4,0.2,0.8,0.4,0.8,1c0,0.5-0.2,0.8-0.6,0.9c-0.6,0.2-1.3,0.5-1.6,1.1
		c0,0.1-0.2,0.1-0.3,0.2c-1.2,0.7-2.5,1.3-3.7,2c-0.8,0.4-1.6,0.8-2.4,1.2c-0.7,0.3-1.4,0.6-2,1c-0.3,0.1-0.6,0.3-1,0.5
		c-0.1,0.2-0.1,0.4-0.2,0.6c-0.1,0.1-0.3,0.1-0.5,0.2c-0.1,0.3-0.2,0.7-0.3,1.1c-0.1,0.6-0.2,1.3-0.2,2c-0.1,1.7-0.3,3.4,0,5.1
		c0.1,0.8,0.2,1.8,0.7,2.5c0.3,0.5,0.6,1.1,1.2,1.3c0.1,0,0.2,0,0.2,0.1c0.8,0.8,1.8,0.7,2.8,0.9c0.1,0,0.3,0,0.5,0
		c1.8,0.2,3.5-0.4,5.1-1c0.9-0.3,1.8-0.8,2.6-1.4c1.4-1.1,2.3-2.5,2.7-4.2c0-0.2,0.1-0.4,0.2-0.6c0.4,0,0.9,0.1,1.3,0.1
		c0.8,1.1,0.6,2.3,0.2,3.4c-0.2,0.7-0.7,1.4-1,2.1c-0.4,1.1-1.3,1.7-2.2,2.4c-0.4,0.3-0.8,0.5-1.2,0.8c-0.7,0.5-1.5,0.6-2.2,0.9
		c-1.1,0.4-2.3,0.7-3.5,0.9c-1.1,0.1-2.1,0.2-3.2-0.2c-0.7-0.2-1.4-0.4-2-0.6c-0.5-0.1-0.9-0.4-1.3-0.6c-1-0.5-1.6-1.3-2.1-2.2
		c-0.5-0.9-0.9-1.8-1.1-2.8c-0.3-1.2-0.4-2.3-0.3-3.5c0.1-0.8,0-1.6,0-2.4c0.1-1.1,0.2-2.2,0.3-3.3c0.1-0.5,0.1-1,0.2-1.5
		c0-0.1,0-0.3,0-0.4c-0.5-0.8,0-1.5,0.3-2.3c0.1-0.2,0.2-0.4,0.2-0.6c0.2-1.1,0.4-2.3,0.6-3.4c0.1-0.5,0.3-1.1,0.4-1.6
		c0.1-0.7,0.2-1.3,0.4-1.9c0.3-0.7,0.1-1.2-0.2-1.8c-0.4-0.7-0.3-1.4-0.1-2.1c0.1-0.2,0.3-0.4,0.6-0.5c0.6-0.3,1.1-0.7,1.3-1.4
		c0.2-0.8,0.6-1.5,0.8-2.3c0.2-0.5,0.3-1,0.4-1.5c0.3-0.9,0.4-1,1.4-0.9c0.8,0.1,1.5,0.4,1.8,1.2c0.3,0.6,0.3,1.3-0.1,1.9
		c-0.2,0.4-0.6,0.7-0.9,1.1c0.4-0.1,0.8-0.2,1.2-0.3c0.7-0.3,1.3-0.7,2-1c0.9-0.4,1.8-0.9,2.6-1.3c0.8-0.4,1.7-0.7,2.6-1
		c1-0.4,2.1-0.4,3.2-0.3c0.4,0,0.8,0.3,1.1,0.5c0.5,0.4,0.9,0.9,0.9,1.7c0,0.7-0.1,0.9-0.7,1.1C84.8,22.6,84.7,22.6,84.5,22.7z"/>
	<path stroke="#000000" stroke-width="3" stroke-miterlimit="10" d="M163,20.4c0.2-0.1,0.4-0.2,0.6-0.3c0.7-0.5,1.6-0.5,2.1,0.1
		c0.5,0.6,1.1,1.2,0.8,2.1c-0.1,0.1,0,0.3,0,0.5c-0.7,1.1-1.2,2.2-1.7,3.4c-0.4,1.1-1,2.2-1.4,3.3c-0.1,0.1-0.1,0.3-0.2,0.4
		c-0.2,0.8-0.4,1.6-0.7,2.4c-0.4,1.2-0.8,2.3-1.2,3.5c-0.5,1.6-1.2,3.2-1.9,4.8c-0.4,1-0.9,1.9-1.2,2.9c-0.2,0.6-0.3,1.3-0.6,2
		c-0.2,0.6-0.5,1.2-0.7,1.8c-0.3,1-0.7,2-1,2.9c-0.2,0.6-0.5,1.3-0.7,1.9c-0.5,1.6-1.1,3.2-1.6,4.8c-0.2,0.6-0.4,1.3-0.6,1.9
		c-0.1,0.4-0.4,0.8-0.5,1.2c-1.1,0.5-1.9,0.2-2.4-0.8c-0.2-0.3-0.4-0.6-0.5-0.9c-0.1-0.3-0.2-0.7-0.1-0.9c0.1-0.5,0.3-1,0.6-1.4
		c0.6-0.9,1.1-1.8,1.3-2.9c0,0,0-0.1,0-0.1c0.5-1.1,0.9-2.2,1.4-3.3c0-0.1,0.1-0.2,0.1-0.3c0.5-1.6,1.1-3.2,1.6-4.8
		c0.4-1.1,0.9-2.1,1.3-3.2c0.1-0.3,0.2-0.6,0.2-0.9c-0.1-0.1-0.2-0.2-0.4-0.2c-0.8-0.2-1.4-0.7-1.8-1.3c-0.6-0.8-1.1-1.7-1.7-2.5
		c-0.2-0.3-0.5-0.6-0.8-0.9c-0.7-0.9-1.5-1.8-2.2-2.7c-1-1.2-2-2.4-2.6-3.9c-0.2-0.5-0.6-0.8-1-0.9c-0.3-0.5-0.6-1-0.6-1.6
		c0-0.3-0.2-0.5-0.3-0.8c-0.3-0.7-0.5-1.5-0.2-2.3c0.1-0.3,0.4-0.6,0.6-0.9c0.6-0.1,1.1-0.2,1.6-0.3c0.4,0.2,0.7,0.4,1,0.5
		c0.3,0.5,0.6,1,0.9,1.5c0.1,0.2,0.2,0.4,0.2,0.5c0,0.6,0,1.2,0.1,1.7c0,0.3,0.2,0.5,0.3,0.8c0.6,1.8,1.8,3.2,3,4.6
		c0.6,0.8,1.2,1.5,1.9,2.3c0.3,0.4,0.6,0.7,1,1c0.3,0.3,0.6,0.2,1,0.1c0.6-0.3,1.3-0.4,2.1-0.1c0.4-1.1,0.7-2.2,1.1-3.2
		c0.5-1.5,1.1-3,1.6-4.5c0.6-1.8,1.2-3.6,1.8-5.4C162.9,21.5,162.9,20.9,163,20.4z"/>
	<path stroke="#000000" stroke-width="3" stroke-miterlimit="10" d="M276.4,55.5c-1.3,0.7-2.3,0.4-2.9-0.8c-0.2-0.4-0.4-0.9-0.4-1.4
		c0.1-1.2,0.3-2.4,0.7-3.6c0.2-0.8,0.3-1.6,0.5-2.4c0.4-2.1,0.7-4.3,1.1-6.4c0.3-1.4,0.6-2.8,0.8-4.3c0.3-1.5,0.8-3,1.1-4.5
		c0.2-1,0.3-2.1,0.6-3.2c0.2-0.8,0.4-1.6,0.5-2.3c0.2-0.9,0.3-1.8,0.6-2.7c0.2-0.9,0.5-1.7,0.6-2.7c0-0.2,0.1-0.5,0-0.7
		c-0.1-0.6-0.1-1.1,0.1-1.6c0.1-0.1,0.1-0.3,0.1-0.4c0.2-0.2,0.4-0.3,0.6-0.5c0.1-0.1,0.2-0.1,0.3-0.1c0.6-0.1,1.6,0.4,1.9,1
		c0.1,0.2,0.2,0.4,0.3,0.6c0.2,0.3,0.2,0.6,0.1,0.9c-0.3,0.9-0.5,1.8-0.7,2.7c-0.2,0.8-0.4,1.6-0.6,2.4c-0.2,1-0.4,2-0.6,3
		c-0.1,0.6-0.3,1.3-0.5,1.9c-0.3,1.1-0.5,2.2-0.7,3.3c-0.2,0.8-0.4,1.7-0.6,2.5c-0.3,1.5-0.6,3.1-0.9,4.6c-0.3,1.6-0.5,3.2-0.9,4.7
		c-0.3,1.3-0.3,2.6-0.5,3.9c-0.2,1.1-0.3,2.3-0.4,3.4c0,0.4,0,0.7-0.1,1.1C276.6,54.6,276.5,55.1,276.4,55.5z"/>
	<path stroke="#000000" stroke-width="3" stroke-miterlimit="10" d="M135.7,28.2c0,0.1,0,0.2,0,0.2c0.4,0.3,0.3,0.7,0.4,1
		c-0.3,0.3-0.7,0.5-1,0.8c-0.3-0.2-0.6-0.4-0.9-0.5c0,0-0.1,0.1-0.1,0.1c-0.1-0.3-0.2-0.6-0.3-1c0.7-0.1,0.6-0.7,0.6-1.3
		C135,27.8,135.2,28.3,135.7,28.2L135.7,28.2z"/>
	<path stroke="#000000" stroke-width="3" stroke-miterlimit="10" d="M133.4,28.8c0,0-0.1,0-0.1-0.1c0,0,0-0.1,0-0.1c0,0,0.1,0,0.1,0
		C133.4,28.7,133.4,28.8,133.4,28.8z"/>
</g>
</svg>
