<?xml version="1.0" encoding="utf-8"?>
<!-- Generator: Adobe Illustrator 18.1.1, SVG Export Plug-In . SVG Version: 6.00 Build 0)  -->
<svg version="1.1" id="Layer_1" xmlns="http://www.w3.org/2000/svg" xmlns:xlink="http://www.w3.org/1999/xlink" x="0px" y="0px"
	 viewBox="0 0 612 792" enable-background="new 0 0 612 792" xml:space="preserve">
<g>
	<g>
		<g>
			<path fill="#F0594A" d="M145.2,426.1h16.6v4.4h-11.8v4.8h10.4v4.4h-10.4v8.5h-4.9L145.2,426.1L145.2,426.1z"/>
			<path fill="#F0594A" d="M170.3,426.1h10c2.8,0,4.9,0.8,6.4,2.2c1.3,1.3,1.8,2.9,1.8,5v0.1c0,1.8-0.4,3.3-1.3,4.4
				c-0.9,1.2-2,1.9-3.4,2.5l5.3,8h-5.6l-4.7-7.1h-0.1h-3.7v7.1h-4.9L170.3,426.1L170.3,426.1z M180,436.9c1.2,0,2.1-0.3,2.7-0.9
				c0.7-0.6,1-1.4,1-2.3v-0.1c0-1.1-0.3-1.8-1-2.3s-1.6-0.8-2.8-0.8h-4.8v6.4C175.2,436.9,180,436.9,180,436.9z"/>
			<path fill="#F0594A" d="M197.6,426.1H214v4.4h-11.7v4.5h10.4v4.4h-10.3v4.7h11.8v4.4h-16.6L197.6,426.1L197.6,426.1z"/>
			<path fill="#F0594A" d="M223.1,426.1h16.4v4.4h-11.7v4.5h10.3v4.4h-10.3v4.7h11.8v4.4H223L223.1,426.1L223.1,426.1z"/>
			<path fill="#F0594A" d="M270.3,426h4.5l9.3,22.3h-5l-2-5h-9.2l-2,5h-4.9L270.3,426z M275.4,439l-2.9-7.2l-2.9,7.2H275.4z"/>
			<path fill="#F0594A" d="M292.1,426.1h8.5c1.7,0,3.3,0.3,4.7,0.9c1.5,0.6,2.6,1.4,3.7,2.3c1.1,1,1.8,2.1,2.4,3.5
				c0.6,1.4,0.9,2.8,0.9,4.4v0.1c0,1.6-0.3,3-0.9,4.4s-1.4,2.5-2.4,3.5c-1.1,1-2.2,1.7-3.7,2.3s-3,0.9-4.7,0.9h-8.5V426.1z
				 M300.7,444c1,0,1.8-0.2,2.7-0.5c0.8-0.3,1.6-0.8,2-1.4c0.6-0.6,1-1.3,1.4-2.1c0.3-0.8,0.5-1.7,0.5-2.7v-0.1c0-1-0.2-1.8-0.5-2.7
				c-0.3-0.8-0.8-1.6-1.4-2.1s-1.3-1.1-2-1.4c-0.8-0.3-1.7-0.5-2.7-0.5H297V444H300.7z"/>
			<path fill="#F0594A" d="M321.3,426.1h5.1l5.7,9.4l5.7-9.4h5.1v22.2h-4.8v-14.5l-6.1,9.5H332l-6.1-9.4v14.4h-4.8L321.3,426.1
				L321.3,426.1z"/>
			<path fill="#F0594A" d="M353.2,426.1h4.9v22.2h-4.9V426.1z"/>
			<path fill="#F0594A" d="M376,448.6c-1.7,0-3.3-0.3-4.9-0.9c-1.7-0.6-3.1-1.5-4.4-2.7l2.8-3.5c1,0.8,2,1.5,3.1,1.9
				c1.1,0.5,2.2,0.8,3.5,0.8c1,0,1.7-0.2,2.3-0.6c0.6-0.4,0.9-0.9,0.9-1.6V442c0-0.3-0.1-0.6-0.2-0.9s-0.3-0.5-0.7-0.7
				c-0.3-0.2-0.8-0.4-1.4-0.7c-0.6-0.2-1.4-0.4-2.2-0.7c-1.1-0.3-2.1-0.6-3-0.9c-0.9-0.3-1.7-0.8-2.3-1.3c-0.6-0.5-1.1-1.1-1.5-1.8
				c-0.4-0.8-0.5-1.7-0.5-2.7v-0.1c0-1,0.2-1.9,0.6-2.7c0.4-0.8,0.9-1.6,1.6-2.1s1.5-1.1,2.4-1.4c1-0.3,1.9-0.5,3.1-0.5
				c1.7,0,3.1,0.3,4.4,0.8c1.4,0.5,2.6,1.2,3.7,2.1l-2.5,3.7c-1-0.7-1.9-1.2-2.9-1.6c-1-0.4-1.8-0.6-2.8-0.6s-1.7,0.2-2.1,0.6
				c-0.5,0.4-0.7,0.9-0.7,1.4v0.1c0,0.4,0.1,0.7,0.2,1s0.4,0.5,0.8,0.7c0.4,0.2,0.9,0.4,1.5,0.6s1.4,0.4,2.3,0.7
				c1.1,0.3,2.1,0.6,2.9,1c0.9,0.4,1.6,0.8,2.2,1.4c0.6,0.5,1.1,1.2,1.4,1.8c0.3,0.7,0.5,1.6,0.5,2.5v0.1c0,1.1-0.2,2-0.6,2.9
				c-0.4,0.9-1,1.6-1.7,2.1s-1.6,1.1-2.5,1.4C378.2,448.5,377.2,448.6,376,448.6z"/>
			<path fill="#F0594A" d="M400.7,448.6c-1.7,0-3.3-0.3-4.9-0.9c-1.7-0.6-3.1-1.5-4.4-2.7l2.8-3.5c1,0.8,2,1.5,3.1,1.9
				c1.1,0.5,2.2,0.8,3.5,0.8c1,0,1.7-0.2,2.3-0.6c0.6-0.4,0.9-0.9,0.9-1.6V442c0-0.3-0.1-0.6-0.2-0.9c-0.1-0.3-0.3-0.5-0.7-0.7
				c-0.3-0.2-0.8-0.4-1.4-0.7c-0.6-0.2-1.4-0.4-2.2-0.7c-1.1-0.3-2.1-0.6-3-0.9c-0.9-0.3-1.7-0.8-2.3-1.3c-0.6-0.5-1.1-1.1-1.5-1.8
				c-0.4-0.8-0.5-1.7-0.5-2.7v-0.1c0-1,0.2-1.9,0.6-2.7s0.9-1.6,1.6-2.1s1.5-1.1,2.4-1.4s1.9-0.5,3.1-0.5c1.7,0,3.1,0.3,4.4,0.8
				c1.4,0.5,2.6,1.2,3.7,2.1l-2.5,3.7c-1-0.7-1.9-1.2-2.9-1.6c-1-0.4-1.8-0.6-2.8-0.6c-1,0-1.7,0.2-2.1,0.6
				c-0.5,0.4-0.7,0.9-0.7,1.4v0.1c0,0.4,0.1,0.7,0.2,1c0.1,0.3,0.4,0.5,0.8,0.7c0.4,0.2,0.9,0.4,1.5,0.6s1.4,0.4,2.3,0.7
				c1.1,0.3,2.1,0.6,2.9,1c0.9,0.4,1.6,0.8,2.2,1.4c0.6,0.5,1.1,1.2,1.4,1.8c0.3,0.7,0.5,1.6,0.5,2.5v0.1c0,1.1-0.2,2-0.6,2.9
				s-1,1.6-1.7,2.1c-0.7,0.6-1.6,1.1-2.5,1.4C402.9,448.5,401.8,448.6,400.7,448.6z"/>
			<path fill="#F0594A" d="M417.7,426.1h4.9v22.2h-4.9V426.1z"/>
			<path fill="#F0594A" d="M443.3,448.7c-1.7,0-3.2-0.3-4.7-0.9c-1.5-0.6-2.6-1.5-3.7-2.4c-1.1-1-1.8-2.2-2.4-3.6s-0.9-2.9-0.9-4.5
				v-0.1c0-1.6,0.3-3.1,0.9-4.5s1.4-2.6,2.4-3.7c1.1-1.1,2.2-1.8,3.7-2.4c1.5-0.6,3-0.9,4.7-0.9s3.2,0.3,4.7,0.9
				c1.5,0.6,2.6,1.5,3.7,2.4c1.1,1.1,1.8,2.2,2.4,3.6s0.9,2.9,0.9,4.5v0.1c0,1.6-0.3,3.1-0.9,4.5c-0.6,1.4-1.4,2.6-2.4,3.7
				s-2.2,1.8-3.7,2.4C446.6,448.4,445,448.7,443.3,448.7z M443.4,444.2c1,0,1.8-0.2,2.6-0.6c0.8-0.4,1.5-0.9,2-1.5
				c0.6-0.7,1.1-1.4,1.4-2.2c0.3-0.9,0.5-1.7,0.5-2.7v-0.1c0-1-0.2-1.8-0.5-2.7c-0.3-0.9-0.8-1.6-1.4-2.2c-0.6-0.7-1.3-1.2-2.1-1.6
				c-0.8-0.4-1.7-0.6-2.6-0.6c-1,0-1.8,0.2-2.6,0.6s-1.5,0.9-2,1.5c-0.6,0.7-1,1.4-1.4,2.2c-0.3,0.9-0.5,1.7-0.5,2.7v0.1
				c0,1,0.2,1.8,0.5,2.7c0.3,0.9,0.8,1.6,1.4,2.2c0.6,0.7,1.3,1.2,2.1,1.6C441.6,444,442.4,444.2,443.4,444.2z"/>
			<path fill="#F0594A" d="M463.9,426.1h4.5l10.2,13.7v-13.7h4.8v22.2h-4.1l-10.6-14.1v14.1h-4.8L463.9,426.1L463.9,426.1z"/>
		</g>
		<path fill="#FFFFFF" d="M10.2,433.6c0.5-0.6,0.8-1.2,1.4-1.7c1-0.8,1.6-1.7,2.2-2.6c1-1.3,2.1-2.2,3.3-3.4
			c1.4-1.5,2.7-2.9,4.3-4.3c2-1.9,4.2-3.7,6.2-5.6c0.9-0.9,1.9-1.6,2.7-2.6c1-1.3,2.4-2.2,3.6-3.3c0.3-0.3,0.7-0.5,0.9-0.8
			c0.6-0.8,1.4-1.3,2.6-1.1c-0.2-0.4-0.3-0.7-0.4-0.9c1.7-1.4,3.3-2.8,4.9-4.2c0.7,0.2,1.2,1,1.9,0.7c0.1,0,0.3,0.1,0.4,0.2
			c0.3,0.3,0.6,0.4,1,0.1c0.2-0.1,0.6,0.1,0.9,0c0.2,0,0.5-0.1,0.7-0.2c-0.1-0.1-0.3-0.2-0.4-0.4c-0.1-0.1-0.3-0.3-0.3-0.4
			c0.3-0.7,0-1.1-0.6-1.4c-0.1-0.1-0.2-0.3-0.3-0.5c-0.2-0.2-0.4-0.5-0.5-0.5c-0.3,0.1-0.6,0.3-0.7,0.5c-0.1,0.5-0.4,0.5-0.7,0.2
			c-0.1-0.1-0.2-0.1-0.4-0.1c-0.3-0.1-0.8,0-0.9-0.2c-0.2-0.3-1-1-0.5-1.9c0.2-0.6-0.1-1.9-0.6-2.2c-0.7-0.4-1.4-0.6-2.1-0.8
			c-1-0.2-1.5,0.6-1.9,1.2c-1,1.1-1.9,2.2-2.8,3.3s-1.7,2.1-2.6,3.1c-0.7,0.8-1.5,1.6-2.2,2.2c-1.2,1.1-2.1,2.2-3.4,3.1
			c-1.1,0.8-1.9,1.7-2.8,2.6c-1.3,1.6-2.9,2.9-4.4,4.3c-1.7,1.7-3.4,3.2-5.1,4.9c-1.4,1.4-2.7,2.6-4.1,4.1c-0.8,0.8-1.4,1.7-2.2,2.8
			c0-0.7,0-1.3,0-1.7c-0.1-2.8-0.1-5.6-0.2-8.4c-0.1-1.8-0.2-3.8-0.3-5.6c0-0.4,0.2-0.9,0.3-1.3c0.3-1.2-0.4-2.7-1.6-3.1
			c-0.5-0.3-1-0.4-1.5-0.4c-1.4,0-2.1,1-1.7,2.3c0.4,1.2,0,2.3,0.1,3.5c0,0.1,0,0.2,0,0.3c0.2,1.8,0.5,3.8,0.6,5.6
			c0.1,1-0.1,2-0.2,3c-0.1,2.7-0.1,5.4-0.3,8.3c-0.1,1.4-0.4,2.8-0.7,4.2c-0.1,0.8-0.7,1.7-0.5,2.3c0.3,1.6-0.7,2.8-0.9,4.3
			c-0.2,1.1-0.3,2.2-0.4,3.3c-0.1,1.1,0,1.9,0.4,2.9c0.3,0.6,1.4,1.3,2,1.3c1.4-0.2,1.9-0.9,2.2-2.2c0.2-0.9,0.7-1.7,1.1-2.4
			c1.6-2.6,4-4.4,6.1-6.5c1.2-1.2,2.7-1.9,4.1-2.9c0.4-0.3,0.8-0.6,1.3-0.8c0.8-0.3,1.6-0.6,2.2-0.9c1.2-0.5,2.2-1,3.4-1.5
			c0.3-0.1,0.8-0.4,0.9-0.6c0.1-0.6,0.2-1.4,0-1.7c-0.9-1.5-2.2-2.2-4-1.1c-1.2,0.8-2.3,1.6-3.5,2.3c-1.9,1.2-3.9,2.4-5.8,3.6
			C10.3,433.7,10.2,433.6,10.2,433.6z"/>
		<path fill="#FFFFFF" d="M603.8,427.1c0.7-1.5,1.3-2.7,1.8-4.1c0.5-1,1.4-1.7,1.4-2.9c0-0.1,0.3-0.4,0.4-0.4c0.1,0,0.3,0.2,0.4,0.4
			c0.2,0.2,0.4,0.6,0.5,0.5c0.7-0.3,1,0.1,1.4,0.7c0.1,0.2,0.4,0.4,0.6,0.4c0.6,0,1.1-0.1,1.7-0.2c0-0.7,0.2-1.5,0-1.9
			c-0.5-0.9-1.2-1.6-1.8-2.3c-0.1-0.1-0.7,0.1-1,0.2c-0.6,0.2-1.1,0.5-1.6,0.7c-0.2,0.1-0.4,0.1-0.5,0.3c-0.2,0.2-0.4,0.7-0.5,0.7
			c-0.6-0.1-1.3-0.2-1.7-0.6c-1.2-1-2.6-0.9-3.4,0.4c-0.4,0.6-0.7,1.2-1,1.8c-0.7,1.7-1.3,3.4-1.7,5.1c-0.5,1.8-0.8,3.7-1.2,5.5
			c0,0.1-0.1,0.3-0.2,0.7c-0.5-1-0.8-1.7-1.2-2.5c-1.1-2.5-2.1-5-3.1-7.5c-1.4-3.4-2.6-6.7-4-10.1c-0.7-1.7-1.6-3.1-2.1-4.8
			c-0.3-0.8-0.8-0.9-1.4-1.2c-0.5-0.3-0.8-0.8-1.3-1.2c-0.1-0.1-0.4-0.3-0.6-0.3c-1.7,0.3-2.3,1.4-2,3c0.1,0.5,0.1,1.1,0.1,1.5
			c-0.7,0.4-1.5,0.9-2.3,1.4c0.5,0.2,0.8,0.4,1.1,0.5c0.1-0.3,0.3-0.6,0.3-0.7c0.6-0.2,1-0.3,1.6-0.5c3,8.2,6.1,16.4,9.3,24.8
			c-1.8-0.8-3.6-1.4-4.6-2.9c-0.5-0.8-1.4-0.5-1.9-1c-0.6-0.5-1.4-0.8-1.8-1.4c-1.1-1.1-1.7-1.3-3-0.6c-1.5,0.7-1.7,1.1-1.6,2.4
			c0,0.4,0.2,0.9,0.5,1.1c0.6,0.3,0.6,0.8,0.6,1.3c0,1.7,1.8,3,3.6,2.3c0.1,0,0.2,0,0.3,0c1.8,0.9,3.8,1.6,5.1,3.3
			c1.5,2,3.1,4,4.7,5.9c0.7,0.8,1.3,1.7,1.8,2.5c0.3,0.6,0.4,1.3,0.6,1.9c0.1,0.2,0.3,0.4,0.4,0.6c0.9,1.6,1.7,3.2,2.5,4.8
			c0.3,0.6,1.7,0.9,2.4,0.5c1.2-0.5,1.9-1.4,2.3-2.7c0.7-2.1,0.7-4.3,0.8-6.4c0.1-1-0.4-1.8-0.4-2.8c0-1.7,0-3.5,0.1-5.2
			c0.1-2.6,1-5.1,1.7-7.7c0.2-0.7,0.3-1.5,0.3-2.1C605.9,427.7,605.1,427.2,603.8,427.1z"/>
		<g>
			<path fill="#FFFFFF" d="M405.8,397.8c3.2,1.2,6.3,2.1,9.3,3.3c3.6,1.4,7.1,2.9,10.7,4.3c0.6,0.2,1.9-0.1,2.2-0.7
				c0.6-0.8,1-2.1,0.8-3c-0.3-1.1-1.2-2.4-2.1-2.9c-2.9-1.7-5.9-3-8.9-4.4c-2.6-1.2-5.3-2.1-8.4-3.4c1-0.4,1.3-0.6,1.7-0.7
				c3.8-1.2,7.7-2.3,11.5-3.7c2-0.8,4.3-1.7,4.6-4.5c0.3-2.6-0.9-4.5-2.8-6c-6.3-5-13.4-8.1-21.5-7.7c-2.3,0.1-4.6,1-5.6,3.2
				c-3.5-0.2-7-0.5-10.5-0.4c-3.6,0.1-7.2,0.5-10.7,1.1c-5,0.9-9.9,2.1-14.2,5.3c-1.3,1-1.9,2.4-1.2,3.6c2,2.8-0.1,5.1-0.2,7.6
				c-4.6-1.8-9-3.7-13.4-5.6c-0.8-0.4-1.6-0.9-2.3-1.4c3.8-1.9,7.4-3.5,11.5-2.5c1.7,0.5,3.6-1.2,3.6-2.8c0-3.5-2.3-5.7-5.8-5.6
				c-1.9,0.1-3.9,0.4-5.8,0.6c-4,0.4-7.2,2.4-10.4,4.6c-0.5,0.3-0.9,1-1.1,1.6c-0.7,2.5,0.1,4.9,1.4,6.8c2.1,3.2,5.3,5,8.9,6.2
				c1.2,0.4,2.1,0.9,3.3,1.4c0,0.2,0,0.3-0.1,0.5c-3.1,1.3-6.1,2.5-9.2,3.8c-0.9-2.3-1.9-3-3.4-2.2c-1.1,0.5-2,1.1-3.1,1.7
				c-3.6,2.3-4.3,4.1-2.8,7.2c1,2,3.5,3.5,5.4,3c6.7-1.7,13.4-3.2,19.4-6.8c1.5-0.9,2.9-1.8,4.4-2.7c1.4,3.6,3.6,6.3,6.8,8.2
				c4.7,2.7,9.7,2.7,14.9,1.9c2.2-0.3,4.7-0.5,6.3-2.6c1.7-2,1.7-3.7-0.1-5.5c-1.9-1.9-3.9-2.1-5.7-0.5c-0.2,0.2-0.6,0.4-0.9,0.5
				c-3.5,0.7-7,1.1-10.4-0.2c-3.2-1.2-4.3-3.5-3-6.6c1.7,0.2,3.4,0.6,5,0.6c1.4,0.1,2.7-0.2,4.1-0.3c3.5-0.2,7.1,0,10.5-0.5
				c4-0.6,5.5-2.2,3.3-5.8c-0.7-1.1-2.7-1.7-4.3-1.8c-5-0.1-10.2,0.2-15.2,0.2c-0.7,0-1.5-0.3-2.1-0.4c0-0.3,0-0.5,0-0.8
				c2.1-0.8,4.3-1.7,6.5-2.2c5-1,10-1.5,14.9-2.4c2.4-0.5,5.4,0,6-3.9c0.8,0.7,1.4,1.2,1.7,1.6c-1,0.7-2,1.3-2.6,2
				c-0.5,0.8-0.5,2-0.5,3c0,2,0.1,4.1,0.1,6c0,1.5-0.2,3.1,0.2,4.5c0.8,2.8,1.4,5.5,0.3,8.4c-0.1,0.4,0,1,0.3,1.3
				c1.2,1.2,2.4,2.3,3.8,3.2c1.3,0.8,3.1-0.1,3.6-1.7C404.9,401.3,405.3,399.7,405.8,397.8z M493.9,384.6c1.3-0.3,2.2-0.5,3.2-0.6
				c4.6-0.5,9.2-1.4,13.6,1.1c0.5,0.3,1.3,0.2,1.8,0c1.6-0.7,2.5-1.8,2.4-3.7c-0.2-1.9-2.1-4.2-4-4.4c-3.1-0.4-6.2-0.9-9.3-0.7
				c-5.3,0.4-10.7,1.3-16,2c-1.4,0.2-2.7,1.1-3.4-1c-0.1-0.3-0.6-0.5-1-0.6c-1.7-0.5-3.4-1.1-5-1.5c-7.3-1.3-14.7-1.6-22-1
				c-2.2,0.2-4.5,1-6.6,1.8c-2.4,1-3.3,3.7-1.7,5c2.1,1.7,2.4,4,2.6,6.2c0.4,5.4,1.3,10.7,4.9,15.2c2.7,3.5,6.3,5,10.5,4.6
				c2.9-0.2,5.9-0.8,8.8-1.5c2.6-0.6,4.2-2.6,5-5c0.4-1.4-1.4-4.5-2.9-5.4c-1.6-1-2.9-0.5-3.7,1.3c-0.4,0.8-1.1,1.7-1.8,1.9
				c-1.9,0.7-4,1.2-6.1,1.4c-3.4,0.3-5.3-1.9-5.2-5.6c0.5-0.1,1-0.2,1.5-0.1c3.2,0,6.5,0.2,9.7,0c1.2,0,2.5-0.4,3.4-1.2
				c1.6-1.4,0.5-4.6-1.8-5c-3.9-0.7-7.9-1-11.7-1.4c-2-0.2-3.6-2.4-2.8-4.3c0.1-0.3,0.7-0.7,1-0.7c3.5-0.1,6.9-0.1,10.4,0
				c4.5,0.1,8.9,0.4,13.5,0.7c0.3,3.2,2.4,5.1,5.2,6.5c1.8,0.9,3.9,1.6,5.7,2.4c2.9,1.4,5.8,2.9,8.8,4.5c-0.5,0.5-0.6,0.8-0.7,0.8
				c-2.6,0.5-5.3,1-8.1,1.6c-1.7,0.4-4.1-0.4-5,2.1c-1.1,2.8,2,7.1,5.6,6.1c1.1-0.3,2.2-0.4,3.3-0.6c4.3-1,8.5-1.8,12.7-3.1
				c2.4-0.7,3.5-3.9,1.9-5.8c-2.1-2.5-4.5-5-7.1-6.9C500.6,387.9,497.3,386.5,493.9,384.6z M112.1,388.5c0.5-0.7,0.5-0.9,0.7-1
				c3.3-1.7,6.5-3.6,9.9-5s6.7-3.2,10.6-2.8c1.9,0.2,3.7-2.1,3.2-3.8c-1-3-4.1-5.3-7.6-4.5c-9.7,2.4-18.2,7.4-26.7,12.2
				c-1.4,0.8-2.7,1.8-2.6,3.6c0.2,2.6,1,5,3.5,6.3c3.8,2.1,8,2.2,12.1,2.1c3.3,0,6.7,0.3,10,0.5c0.1,0.3,0.1,0.6,0.2,0.9
				c-2.2,0.9-4.4,1.7-6.6,2.5c-0.6,0.2-1.4,0.3-1.7,0.7c-2.2,2.4-5.4,2.3-8.3,2.9c-0.6,0.1-1.3,0.2-1.6,0.6c-1.5,2,0.1,3.7,1,5.3
				c0.4,0.8,1.5,1.3,2.2,1.8c0.2,0.1,0.5,0,0.8,0c1.4-0.2,2.8-0.2,4.1-0.6c3.8-1.3,7.6-2.3,11.2-4c3.1-1.5,6.1-3.3,8.7-5.4
				c3.1-2.4,2.3-7.2-1.3-9c-4.8-2.4-9.9-3.5-15.2-3.6C116.7,388.5,114.6,388.5,112.1,388.5z M435.7,403.1c-1,2.9-0.7,5.4,2.3,7
				c2.3,1.3,4.7,0.1,4.9-2.5c0.1-0.9,0.2-1.8,0.2-2.7c0.3-4.4,0.7-8.7,0.9-13.1c0.1-3.8-0.2-7.7,0-11.5c0.1-2.2-0.8-3.8-2.1-5.2
				c-1.3-1.4-3-2-4.6-1.2c-0.9,0.5-1.5,2.2-1.5,3.5C435.7,385.9,435.7,394.5,435.7,403.1z M407,385.2c-0.1-3.4,0.1-6.3-3.1-8.1
				c2.9-0.8,5.7-1.1,8.4-0.3c2.2,0.6,4.4,1.7,6.5,2.6c0.4,0.2,0.7,0.6,0.8,1c0,0.2-0.4,0.7-0.7,0.8C415,382.4,411,383.8,407,385.2z"
				/>
			<path fill="#FFFFFF" d="M112.1,388.5c2.4,0,4.6,0,6.7,0c5.3,0.1,10.5,1.2,15.2,3.6c3.6,1.8,4.4,6.6,1.3,9c-2.7,2.1-5.6,4-8.7,5.4
				c-3.6,1.7-7.4,2.8-11.2,4c-1.3,0.4-2.7,0.4-4.1,0.6c-0.3,0-0.6,0.1-0.8,0c-0.8-0.6-1.7-1.1-2.2-1.8c-0.9-1.7-2.4-3.3-1-5.3
				c0.3-0.4,1-0.5,1.6-0.6c2.9-0.6,6-0.5,8.3-2.9c0.4-0.4,1.2-0.5,1.7-0.7c2.2-0.9,4.4-1.7,6.6-2.5c-0.1-0.3-0.1-0.6-0.2-0.9
				c-3.3-0.2-6.7-0.5-10-0.5c-4.2,0-8.3,0-12.1-2.1c-2.5-1.5-3.3-3.8-3.5-6.3c-0.2-1.7,1.3-2.8,2.6-3.6c8.5-4.9,17.1-9.8,26.7-12.2
				c3.5-0.9,6.6,1.5,7.6,4.5c0.5,1.6-1.4,4-3.2,3.8c-4-0.4-7.3,1.4-10.6,2.8c-3.4,1.5-6.6,3.3-9.9,5
				C112.7,387.7,112.6,387.9,112.1,388.5z"/>
			<path fill="#FFFFFF" d="M89.1,394.9c-2.4,0-8.7,0.1-5.8,4.1c1.1,1.4-0.4,1.9-1.5,1.5c-2-0.9-1.6-3-2.9-4.3c-1.1,2.1-2,2.7-3.7,1
				c0.7-1.7,1.8-3.2-0.5-3.4c0.3,0-1.7-1.8-1.9-1.9c1.1-1.2,2-1,3.1-1.9c-1.3-0.9-2.2-0.9-1.5-2.3c0.6-1.2,1.3-1.1,2.1-0.2
				c1-1-0.9-4.2,1.1-4.1c1.7,0,1.7,2.2,2.4,3.5c2-1.8,0.2-2.3,3.5-2.3c1.6,1.6-0.1,3.8-1,5.5C80.9,393.2,90.4,390.7,89.1,394.9
				C87.9,394.9,89.3,394.3,89.1,394.9z"/>
			<path fill="#FFFFFF" d="M183.5,397.2c-0.6-0.5-1.8-0.9-2.6-1c-3.2-0.6-2.7,0.5-2.7,3c0,2.7-1.4,5.7-3.4,8.1
				c-1.3-0.4-3.8,0.2-4.8-0.7c-2.5-2.3-0.7-5.2-0.7-8c0-3.3,0.7-5.8,0.7-9.1c2.3-1.9-0.6-6.8,1.9-9c0-3.7,2.1-9.4,7.8-9.3
				c3,0.1,2.8,4.4,4.3,5.6c0,1.6,0.5,2.6,0.6,3.9c0.1,2.5,1.2,0.1,2-0.4c1-0.6,4.2-3.9,3.7-5c1.4-1.2,2.7-3,4.8-3c1.2,0,3-0.1,4-0.5
				c5.9,1.4,3.3,12,3.3,15.5c0,4-0.7,7.5-0.7,11.3c-1.1,1-0.7,2.4-1.4,3.7c-0.6,1.1-1.7,2.1-2.8,2.6c-2.1,1-6.6-1.4-6.6-3.6
				c0-1.9,2.2-7.7,0.3-9.3c-1,1.7-2,2.8-3.7,4.2C186.1,396.6,184.6,396.4,183.5,397.2C183.3,397.1,183.8,397.1,183.5,397.2z"/>
			<path fill="#FFFFFF" d="M221.7,380.5c1.8,1.6-0.5,4.3,1.2,5.8c1.5,1.4,4-3,4.5-3.8c-0.7-2.2,4.7-8.3,7.6-8.2
				c2.6,0.2,2.6,0.6,4.9,2.3c1.4,1.1,1.5,1.9,1.5,3.5c0,3,0,5.6,0,8.3c0,3.6,0.6,6.5,0.6,10c0,3.4,2.1,7.3-1.4,10.2
				c-5.3,4.6-7.5-7.9-7.5-9.9c0-0.8-0.4-6.8-0.9-6.9c-2-0.3-3.3,3.4-3.6,4.6c-4.9,3.7-8.2,1.6-12.1-1.8c-2.6,1.8-0.3,10.9-5.7,10.6
				c-1.5-0.1-0.1,1.7-2-0.1c-1.2-1.1-1.5-2.5-1.5-4c0-3.5,0.6-7,0.6-10.3c0-4.4-0.4-11.7,3.6-15.1
				C215.9,371.9,221.7,375.4,221.7,380.5C221.9,380.6,221.7,379.9,221.7,380.5z M236.3,406.1c0.2,0.3,0.4,0.3,0.4-0.2
				C236.5,405.6,236.3,405.7,236.3,406.1C236.3,406.1,236.3,406,236.3,406.1z"/>
			<path fill="#FFFFFF" d="M294.1,399c2.4,1.3,4.9,2.9,7.9,2.9c2.1,0,4.5-0.5,6,0.8c0,1.9,0.3,3.4-1.3,4.9
				c-2.7,2.6-8.2,0.8-11.5,0.8c-2.9-1.4-5-3.6-7.8-5.3c-1,1-0.7,3-1.5,4.2c-1.5,2.2-4.6,2.1-6.7,0.6c-1.7-1.3-1.6-4.9-1.6-6.6
				c0-3-0.6-5.5-0.6-8.4c-1.2-1-0.7-2.4-0.7-3.8c-0.9-0.8-1.3-2-1.7-3.1c-0.7-1.5-1.4-4-1.4-5.3c0-4,5.3-5.4,9-6.5
				c2-0.6,5,1.5,7-0.2c1.7,0,3,1,4.8,1.2c3.8,0.5,8,2.2,9.5,5.2c2.3,4.5,0,7.8-3,11.7C298.5,394.7,294.7,395.5,294.1,399
				C295,399.5,294.2,398.3,294.1,399z M286.4,391.9c3.4,0,6-2.3,7.7-4.7c3-4.3-5.1-6.3-8.6-4.8c1,1,1.3,4.6,1.3,5.8
				C287.8,389.5,287.5,390.9,286.4,391.9C287.2,391.9,286.8,391.4,286.4,391.9z"/>
			<path fill="#FFFFFF" d="M273.5,404.6c1.1,0.5,2.1,0.9,3.2,1.4c-1.1,1.9-0.8,2.9-3.5,2.9c-1.1,0.9-4.8,1.4-5.8,0.5
				c-4.3,0-12.2,0.3-15.4-2.5c-1.5-1.3-1.8-2.3-2.4-3.9c-0.7-1.7,0.5-4.5-1.3-6.1c0-1.3,0.9-1.4,0-2.1c0-1.6-1.2-1.7-1.2-3.2
				c0-2,0.5-3,1.3-4.8c1.5-3-4-6.5-1.2-9.3c1.4-1.3,4.6-1.6,6.3-1.6c1.9-1.6,6.2-1.1,8.9-1.1c0.7,0.5,3.5,0.3,5.1,1.1
				c1.1,2.3,1.4,3.7-1,5.5c-2.1,1.7-3,0.9-5.3,0.9c-2.9,0-1.9,1.9-3.6,2.3c2.2,1.7,5.8,0.9,8.7,0.9c1.7,1.7,2.4,4-0.7,5.2
				c-3.9,1.6-9.2,0.8-9.2,5.4c0,2.2,1.4,6.7,3.5,8.1c0.9,0.5,3.8,0.4,4.4,0C267.5,404.2,270.1,404.6,273.5,404.6
				C274.6,405.1,271.9,404.6,273.5,404.6z"/>
			<path fill="#FFFFFF" d="M157.1,400c3.7-2,3-6.7,3-9.9c0-3.6-1.2-6.6-1.2-9.9c-1.4-1.5-1.1-3.9,0.5-5.1c1.9-1.7,1.6-0.7,3.7-0.5
				c1.6,1.7,2,5.5,2,7.6c1.7,1.6,1.3,7,1.3,9.1c1.7,1.5,0.6,5.3-0.3,7.1c-1.3,2.4-1.3,4.9-3.7,6.9c-1.3,1.1-2.6,1.7-4,2.8
				c-1.6,1.2-2.1,0-3.8,0c-1.9-1.7-5.2-3.3-6-5.8c-0.5-1.5-1.8-4.4-2.7-5.7c-0.8-1.2-0.5-2.4-1.4-3.8c-1.1-1.7-0.8-3-1.9-4.8
				c-1.4-2.1-3.3-9-1.1-11c0.5-2.6-0.2-2.6,2.7-4.1c1.7,1,2.1,0.6,3.4,2.1c2,2.6,0.9,8.2,0.9,11.4c0.9,2.1,1.9,4,1.9,6.1
				C152.1,394.6,154.3,398.8,157.1,400C158.4,399.3,156.4,399.7,157.1,400z"/>
			<path fill="#FFFFFF" d="M538.2,394.8c-4.1-2.9-0.3,4.4-2,5.8c-1.7-1.7-1.4-3.5-2.7-4.9c-0.7,0.7-1.9,3-1.9,4.1
				c-0.2,0.4-0.5,0.4-0.9,0.2c-0.4-0.5-0.2-1.7-0.2-2.3c0.8-1,1.2-2.1,0.8-3.4c-1.2,1.2-4.5,4.2-3.4,0.1c0.3-0.7,0.6-1.4,1-1.9
				c-0.6-0.5-0.8-1.2-0.6-1.8c1-0.9,1.9-1.2,2.9-0.3c0.4-0.7-0.2-2.4-0.2-3.3c-0.7-1.4-0.4-1.3,0.3-2.7c1.9,0.5,1.2,2,2.1,2.8
				c0.7-1.3,1.2-2.9,2.2-3.8c2,0,0.8,2.6,0.8,3.8c6.5,0,3.3,1.8,0.5,4.7C539.1,392.5,539.5,393.3,538.2,394.8
				C537.5,394.3,538.7,394.3,538.2,394.8z"/>
		</g>
	</g>
	<g enable-background="new    ">
		<path fill="#F0594A" d="M261.8,352.2c-1,0-1.8-0.2-2.6-0.5c-0.8-0.3-1.5-0.8-2.1-1.4c-0.6-0.6-1.1-1.3-1.4-2.1
			c-0.3-0.8-0.5-1.7-0.5-2.6v0c0-0.9,0.2-1.8,0.5-2.6c0.3-0.8,0.8-1.5,1.4-2.1s1.3-1.1,2.1-1.4s1.7-0.5,2.7-0.5c0.6,0,1.2,0,1.7,0.1
			c0.5,0.1,1,0.2,1.4,0.4s0.8,0.4,1.1,0.6s0.7,0.5,1,0.8l-1.8,2.1c-0.5-0.5-1-0.8-1.5-1.1c-0.5-0.3-1.1-0.4-1.8-0.4
			c-0.5,0-1,0.1-1.5,0.3c-0.5,0.2-0.9,0.5-1.2,0.9c-0.3,0.4-0.6,0.8-0.8,1.3c-0.2,0.5-0.3,1-0.3,1.6v0c0,0.6,0.1,1.1,0.3,1.6
			c0.2,0.5,0.4,0.9,0.8,1.3c0.3,0.4,0.7,0.7,1.2,0.9c0.5,0.2,1,0.3,1.5,0.3c0.7,0,1.4-0.1,1.9-0.4c0.5-0.3,1-0.6,1.5-1.1l1.8,1.8
			c-0.3,0.4-0.7,0.7-1,1s-0.8,0.5-1.2,0.7c-0.4,0.2-0.9,0.4-1.4,0.5C263,352.1,262.4,352.2,261.8,352.2z"/>
		<path fill="#F0594A" d="M273.8,338.9h2.6L282,352h-3l-1.2-2.9h-5.5l-1.2,2.9h-2.9L273.8,338.9z M276.8,346.5l-1.7-4.2l-1.7,4.2
			H276.8z"/>
		<path fill="#F0594A" d="M287,341.6h-3.9V339h10.7v2.6h-3.9V352H287V341.6z"/>
		<path fill="#F0594A" d="M302.1,352.2c-1,0-1.8-0.2-2.6-0.5c-0.8-0.3-1.5-0.8-2.1-1.4c-0.6-0.6-1.1-1.3-1.4-2.1
			c-0.3-0.8-0.5-1.7-0.5-2.6v0c0-0.9,0.2-1.8,0.5-2.6c0.3-0.8,0.8-1.5,1.4-2.1s1.3-1.1,2.1-1.4c0.8-0.4,1.7-0.5,2.7-0.5
			c0.6,0,1.2,0,1.7,0.1c0.5,0.1,1,0.2,1.4,0.4c0.4,0.2,0.8,0.4,1.1,0.6c0.3,0.2,0.7,0.5,1,0.8l-1.8,2.1c-0.5-0.5-1-0.8-1.5-1.1
			c-0.5-0.3-1.1-0.4-1.8-0.4c-0.5,0-1,0.1-1.5,0.3s-0.9,0.5-1.2,0.9c-0.3,0.4-0.6,0.8-0.8,1.3s-0.3,1-0.3,1.6v0
			c0,0.6,0.1,1.1,0.3,1.6c0.2,0.5,0.4,0.9,0.8,1.3c0.3,0.4,0.7,0.7,1.2,0.9c0.5,0.2,1,0.3,1.5,0.3c0.7,0,1.4-0.1,1.9-0.4
			s1-0.6,1.5-1.1l1.8,1.8c-0.3,0.4-0.7,0.7-1,1c-0.4,0.3-0.8,0.5-1.2,0.7c-0.4,0.2-0.9,0.4-1.4,0.5
			C303.3,352.1,302.7,352.2,302.1,352.2z"/>
		<path fill="#F0594A" d="M309.7,339h2.9v5.1h5.3V339h2.9v13h-2.9v-5.2h-5.3v5.2h-2.9V339z"/>
		<path fill="#F0594A" d="M332.4,341.6h-3.9V339h10.7v2.6h-3.9V352h-2.9V341.6z"/>
		<path fill="#F0594A" d="M341.3,339h2.9v5.1h5.3V339h2.9v13h-2.9v-5.2h-5.3v5.2h-2.9V339z"/>
		<path fill="#F0594A" d="M355.4,339h9.8v2.5h-6.9v2.6h6.1v2.5h-6.1v2.7h7v2.5h-9.9V339z"/>
	</g>
</g>
</svg>
