<?xml version="1.0" encoding="utf-8"?>
<!-- Generator: Adobe Illustrator 18.1.1, SVG Export Plug-In . SVG Version: 6.00 Build 0)  -->
<svg version="1.1" id="Layer_1" xmlns="http://www.w3.org/2000/svg" xmlns:xlink="http://www.w3.org/1999/xlink" x="0px" y="0px"
	 viewBox="56.8 214 386.4 73.5" enable-background="new 56.8 214 386.4 73.5" xml:space="preserve">
<g>
	<g>
		<g>
			<path fill="#F0594A" d="M148.5,269H159v2.8h-7.4v3h6.6v2.8h-6.6v5.4h-3.1L148.5,269L148.5,269z"/>
			<path fill="#F0594A" d="M164.3,269h6.3c1.8,0,3.1,0.5,4,1.4c0.8,0.8,1.1,1.8,1.1,3.2v0.1c0,1.1-0.3,2.1-0.8,2.8
				c-0.6,0.8-1.3,1.2-2.1,1.6l3.3,5.1h-3.5l-3-4.5h-0.1h-2.3v4.5h-3.1L164.3,269L164.3,269z M170.5,275.8c0.8,0,1.3-0.2,1.7-0.6
				c0.4-0.4,0.6-0.9,0.6-1.5v-0.1c0-0.7-0.2-1.1-0.6-1.5c-0.4-0.3-1-0.5-1.8-0.5h-3v4C167.4,275.8,170.5,275.8,170.5,275.8z"/>
			<path fill="#F0594A" d="M181.6,269h10.4v2.8h-7.4v2.8h6.6v2.8h-6.5v3h7.4v2.8h-10.5L181.6,269L181.6,269z"/>
			<path fill="#F0594A" d="M197.7,269H208v2.8h-7.4v2.8h6.5v2.8h-6.5v3h7.4v2.8h-10.5L197.7,269L197.7,269z"/>
			<path fill="#F0594A" d="M227.5,268.9h2.8l5.9,14.1H233l-1.3-3.2h-5.8l-1.3,3.2h-3.1L227.5,268.9z M230.7,277.1l-1.8-4.5l-1.8,4.5
				H230.7z"/>
			<path fill="#F0594A" d="M241.2,269h5.4c1.1,0,2.1,0.2,3,0.6c0.9,0.4,1.6,0.9,2.3,1.5c0.7,0.6,1.1,1.3,1.5,2.2
				c0.4,0.9,0.6,1.8,0.6,2.8v0.1c0,1-0.2,1.9-0.6,2.8c-0.4,0.9-0.9,1.6-1.5,2.2c-0.7,0.6-1.4,1.1-2.3,1.5c-0.9,0.4-1.9,0.6-3,0.6
				h-5.4V269z M246.7,280.3c0.6,0,1.1-0.1,1.7-0.3c0.5-0.2,1-0.5,1.3-0.9c0.4-0.4,0.6-0.8,0.9-1.3c0.2-0.5,0.3-1.1,0.3-1.7V276
				c0-0.6-0.1-1.1-0.3-1.7c-0.2-0.5-0.5-1-0.9-1.3c-0.4-0.3-0.8-0.7-1.3-0.9c-0.5-0.2-1.1-0.3-1.7-0.3h-2.3v8.5H246.7z"/>
			<path fill="#F0594A" d="M259.7,269h3.2l3.6,5.9l3.6-5.9h3.2v14h-3v-9.2l-3.9,6l0,0l-3.9-5.9v9.1h-3L259.7,269L259.7,269z"/>
			<path fill="#F0594A" d="M279.8,269h3.1v14h-3.1V269z"/>
			<path fill="#F0594A" d="M294.2,283.2c-1.1,0-2.1-0.2-3.1-0.6c-1.1-0.4-2-0.9-2.8-1.7l1.8-2.2c0.6,0.5,1.3,0.9,2,1.2
				c0.7,0.3,1.4,0.5,2.2,0.5c0.6,0,1.1-0.1,1.5-0.4c0.4-0.3,0.6-0.6,0.6-1l0,0c0-0.2-0.1-0.4-0.1-0.6c-0.1-0.2-0.2-0.3-0.4-0.4
				c-0.2-0.1-0.5-0.3-0.9-0.4c-0.4-0.1-0.9-0.3-1.4-0.4c-0.7-0.2-1.3-0.4-1.9-0.6s-1.1-0.5-1.5-0.8c-0.4-0.3-0.7-0.7-0.9-1.1
				c-0.3-0.5-0.3-1.1-0.3-1.7v-0.1c0-0.6,0.1-1.2,0.4-1.7c0.3-0.5,0.6-1,1-1.3c0.4-0.3,0.9-0.7,1.5-0.9c0.6-0.2,1.2-0.3,2-0.3
				c1.1,0,2,0.2,2.8,0.5c0.9,0.3,1.6,0.8,2.3,1.3l-1.6,2.3c-0.6-0.4-1.2-0.8-1.8-1c-0.6-0.3-1.1-0.4-1.8-0.4s-1.1,0.1-1.3,0.4
				c-0.3,0.3-0.4,0.6-0.4,0.9v0.1c0,0.3,0.1,0.4,0.1,0.6s0.3,0.3,0.5,0.4s0.6,0.3,0.9,0.4c0.4,0.1,0.9,0.3,1.5,0.4
				c0.7,0.2,1.3,0.4,1.8,0.6c0.6,0.3,1,0.5,1.4,0.9c0.4,0.3,0.7,0.8,0.9,1.1c0.2,0.4,0.3,1,0.3,1.6v0.1c0,0.7-0.1,1.3-0.4,1.8
				c-0.3,0.6-0.6,1-1.1,1.3s-1,0.7-1.6,0.9C295.6,283.1,294.9,283.2,294.2,283.2z"/>
			<path fill="#F0594A" d="M309.8,283.2c-1.1,0-2.1-0.2-3.1-0.6c-1.1-0.4-2-0.9-2.8-1.7l1.8-2.2c0.6,0.5,1.3,0.9,2,1.2
				c0.7,0.3,1.4,0.5,2.2,0.5c0.6,0,1.1-0.1,1.5-0.4c0.4-0.3,0.6-0.6,0.6-1l0,0c0-0.2-0.1-0.4-0.1-0.6c-0.1-0.2-0.2-0.3-0.4-0.4
				c-0.2-0.1-0.5-0.3-0.9-0.4c-0.4-0.1-0.9-0.3-1.4-0.4c-0.7-0.2-1.3-0.4-1.9-0.6s-1.1-0.5-1.5-0.8c-0.4-0.3-0.7-0.7-0.9-1.1
				c-0.3-0.5-0.3-1.1-0.3-1.7v-0.1c0-0.6,0.1-1.2,0.4-1.7s0.6-1,1-1.3c0.4-0.3,0.9-0.7,1.5-0.9s1.2-0.3,2-0.3c1.1,0,2,0.2,2.8,0.5
				c0.9,0.3,1.6,0.8,2.3,1.3l-1.6,2.3c-0.6-0.4-1.2-0.8-1.8-1c-0.6-0.3-1.1-0.4-1.8-0.4c-0.6,0-1.1,0.1-1.3,0.4
				c-0.3,0.3-0.4,0.6-0.4,0.9v0.1c0,0.3,0.1,0.4,0.1,0.6c0.1,0.2,0.3,0.3,0.5,0.4c0.3,0.1,0.6,0.3,0.9,0.4c0.4,0.1,0.9,0.3,1.5,0.4
				c0.7,0.2,1.3,0.4,1.8,0.6c0.6,0.3,1,0.5,1.4,0.9c0.4,0.3,0.7,0.8,0.9,1.1c0.2,0.4,0.3,1,0.3,1.6v0.1c0,0.7-0.1,1.3-0.4,1.8
				c-0.3,0.6-0.6,1-1.1,1.3c-0.4,0.4-1,0.7-1.6,0.9C311.2,283.1,310.5,283.2,309.8,283.2z"/>
			<path fill="#F0594A" d="M320.5,269h3.1v14h-3.1V269z"/>
			<path fill="#F0594A" d="M336.7,283.3c-1.1,0-2-0.2-3-0.6c-0.9-0.4-1.6-0.9-2.3-1.5c-0.7-0.6-1.1-1.4-1.5-2.3
				c-0.4-0.9-0.6-1.8-0.6-2.8V276c0-1,0.2-2,0.6-2.8c0.4-0.9,0.9-1.6,1.5-2.3c0.7-0.7,1.4-1.1,2.3-1.5c0.9-0.4,1.9-0.6,3-0.6
				s2,0.2,3,0.6c0.9,0.4,1.6,0.9,2.3,1.5c0.7,0.7,1.1,1.4,1.5,2.3c0.4,0.9,0.6,1.8,0.6,2.8v0.1c0,1-0.2,2-0.6,2.8
				c-0.4,0.9-0.9,1.6-1.5,2.3c-0.6,0.7-1.4,1.1-2.3,1.5C338.8,283.1,337.8,283.3,336.7,283.3z M336.7,280.4c0.6,0,1.1-0.1,1.6-0.4
				c0.5-0.3,0.9-0.6,1.3-0.9c0.4-0.4,0.7-0.9,0.9-1.4c0.2-0.6,0.3-1.1,0.3-1.7v-0.1c0-0.6-0.1-1.1-0.3-1.7c-0.2-0.6-0.5-1-0.9-1.4
				c-0.4-0.4-0.8-0.8-1.3-1c-0.5-0.3-1.1-0.4-1.6-0.4c-0.6,0-1.1,0.1-1.6,0.4s-0.9,0.6-1.3,0.9c-0.4,0.4-0.6,0.9-0.9,1.4
				c-0.2,0.6-0.3,1.1-0.3,1.7v0.1c0,0.6,0.1,1.1,0.3,1.7c0.2,0.6,0.5,1,0.9,1.4c0.4,0.4,0.8,0.8,1.3,1
				C335.6,280.3,336.1,280.4,336.7,280.4z"/>
			<path fill="#F0594A" d="M349.7,269h2.8l6.4,8.6V269h3v14h-2.6l-6.7-8.9v8.9h-3V269L349.7,269z"/>
		</g>
		<path fill="#FFFFFF" d="M63.3,273.7c0.3-0.4,0.5-0.8,0.9-1.1c0.6-0.5,1-1.1,1.4-1.6c0.6-0.8,1.3-1.4,2.1-2.1
			c0.9-0.9,1.7-1.8,2.7-2.7c1.3-1.2,2.7-2.3,3.9-3.5c0.6-0.6,1.2-1,1.7-1.6c0.6-0.8,1.5-1.4,2.3-2.1c0.2-0.2,0.4-0.3,0.6-0.5
			c0.4-0.5,0.9-0.8,1.6-0.7c-0.1-0.3-0.2-0.4-0.3-0.6c1.1-0.9,2.1-1.8,3.1-2.7c0.4,0.1,0.8,0.6,1.2,0.4c0.1,0,0.2,0.1,0.3,0.1
			c0.2,0.2,0.4,0.3,0.6,0.1c0.1-0.1,0.4,0.1,0.6,0c0.1,0,0.3-0.1,0.4-0.1c-0.1-0.1-0.2-0.1-0.3-0.3c-0.1-0.1-0.2-0.2-0.2-0.3
			c0.2-0.4,0-0.7-0.4-0.9c-0.1-0.1-0.1-0.2-0.2-0.3c-0.1-0.1-0.3-0.3-0.3-0.3c-0.2,0.1-0.4,0.2-0.4,0.3c-0.1,0.3-0.3,0.3-0.4,0.1
			c-0.1-0.1-0.1-0.1-0.3-0.1c-0.2-0.1-0.5,0-0.6-0.1c-0.1-0.2-0.6-0.6-0.3-1.2c0.1-0.4-0.1-1.2-0.4-1.4c-0.4-0.3-0.9-0.4-1.3-0.5
			c-0.6-0.1-0.9,0.4-1.2,0.8c-0.6,0.7-1.2,1.4-1.8,2.1s-1.1,1.3-1.6,2c-0.4,0.5-0.9,1-1.4,1.4c-0.8,0.7-1.3,1.4-2.1,2
			c-0.7,0.5-1.2,1.1-1.8,1.6c-0.8,1-1.8,1.8-2.8,2.7c-1.1,1.1-2.1,2-3.2,3.1c-0.9,0.9-1.7,1.6-2.6,2.6c-0.5,0.5-0.9,1.1-1.4,1.8
			c0-0.4,0-0.8,0-1.1c-0.1-1.8-0.1-3.5-0.1-5.3c-0.1-1.1-0.1-2.4-0.2-3.5c0-0.3,0.1-0.6,0.2-0.8c0.2-0.8-0.3-1.7-1-2
			c-0.3-0.2-0.6-0.3-0.9-0.3c-0.9,0-1.3,0.6-1.1,1.5c0.3,0.8,0,1.5,0.1,2.2c0,0.1,0,0.1,0,0.2c0.1,1.1,0.3,2.4,0.4,3.5
			c0.1,0.6-0.1,1.3-0.1,1.9c-0.1,1.7-0.1,3.4-0.2,5.2c-0.1,0.9-0.3,1.8-0.4,2.7c-0.1,0.5-0.4,1.1-0.3,1.5c0.2,1-0.4,1.8-0.6,2.7
			c-0.1,0.7-0.2,1.4-0.3,2.1c-0.1,0.7,0,1.2,0.3,1.8c0.2,0.4,0.9,0.8,1.3,0.8c0.9-0.1,1.2-0.6,1.4-1.4c0.1-0.6,0.4-1.1,0.7-1.5
			c1-1.6,2.5-2.8,3.9-4.1c0.8-0.8,1.7-1.2,2.6-1.8c0.3-0.2,0.5-0.4,0.8-0.5c0.5-0.2,1-0.4,1.4-0.6c0.8-0.3,1.4-0.6,2.1-0.9
			c0.2-0.1,0.5-0.3,0.6-0.4c0.1-0.4,0.1-0.9,0-1.1c-0.6-0.9-1.4-1.4-2.5-0.7c-0.8,0.5-1.5,1-2.2,1.5c-1.2,0.8-2.5,1.5-3.7,2.3
			C63.3,273.8,63.3,273.7,63.3,273.7z"/>
		<path fill="#FFFFFF" d="M438,269.6c0.4-0.9,0.8-1.7,1.1-2.6c0.3-0.6,0.9-1.1,0.9-1.8c0-0.1,0.2-0.3,0.3-0.3c0.1,0,0.2,0.1,0.3,0.3
			c0.1,0.1,0.3,0.4,0.3,0.3c0.4-0.2,0.6,0.1,0.9,0.4c0.1,0.1,0.3,0.3,0.4,0.3c0.4,0,0.7-0.1,1.1-0.1c0-0.4,0.1-0.9,0-1.2
			c-0.3-0.6-0.8-1-1.1-1.5c-0.1-0.1-0.4,0.1-0.6,0.1c-0.4,0.1-0.7,0.3-1,0.4c-0.1,0.1-0.3,0.1-0.3,0.2c-0.1,0.1-0.3,0.4-0.3,0.4
			c-0.4-0.1-0.8-0.1-1.1-0.4c-0.8-0.6-1.6-0.6-2.1,0.3c-0.3,0.4-0.4,0.8-0.6,1.1c-0.4,1.1-0.8,2.1-1.1,3.2c-0.3,1.1-0.5,2.3-0.8,3.5
			c0,0.1-0.1,0.2-0.1,0.4c-0.3-0.6-0.5-1.1-0.8-1.6c-0.7-1.6-1.3-3.2-2-4.7c-0.9-2.1-1.6-4.2-2.5-6.4c-0.4-1.1-1-2-1.3-3
			c-0.2-0.5-0.5-0.6-0.9-0.8c-0.3-0.2-0.5-0.5-0.8-0.8c-0.1-0.1-0.3-0.2-0.4-0.2c-1.1,0.2-1.5,0.9-1.3,1.9c0.1,0.3,0.1,0.7,0.1,0.9
			c-0.4,0.3-0.9,0.6-1.5,0.9c0.3,0.1,0.5,0.3,0.7,0.3c0.1-0.2,0.2-0.4,0.2-0.4c0.4-0.1,0.6-0.2,1-0.3c1.9,5.2,3.9,10.4,5.9,15.7
			c-1.1-0.5-2.3-0.9-2.9-1.8c-0.3-0.5-0.9-0.3-1.2-0.6c-0.4-0.3-0.9-0.5-1.1-0.9c-0.7-0.7-1.1-0.8-1.9-0.4c-0.9,0.4-1.1,0.7-1,1.5
			c0,0.3,0.1,0.6,0.3,0.7c0.4,0.2,0.4,0.5,0.4,0.8c0,1.1,1.1,1.9,2.3,1.5c0.1,0,0.1,0,0.2,0c1.1,0.6,2.4,1,3.2,2.1
			c0.9,1.3,2,2.5,3,3.7c0.4,0.5,0.8,1.1,1.1,1.6c0.2,0.4,0.3,0.8,0.4,1.2c0.1,0.1,0.2,0.3,0.3,0.4c0.6,1,1.1,2,1.6,3
			c0.2,0.4,1.1,0.6,1.5,0.3c0.8-0.3,1.2-0.9,1.5-1.7c0.4-1.3,0.4-2.7,0.5-4c0.1-0.6-0.3-1.1-0.3-1.8c0-1.1,0-2.2,0.1-3.3
			c0.1-1.6,0.6-3.2,1.1-4.9c0.1-0.4,0.2-0.9,0.2-1.3C439.3,270,438.8,269.7,438,269.6z"/>
		<g>
			<path fill="#FFFFFF" d="M313,251.1c2,0.8,4,1.3,5.9,2.1c2.3,0.9,4.5,1.8,6.8,2.7c0.4,0.1,1.2-0.1,1.4-0.4
				c0.4-0.5,0.6-1.3,0.5-1.9c-0.2-0.7-0.8-1.5-1.3-1.8c-1.8-1.1-3.7-1.9-5.6-2.8c-1.6-0.8-3.3-1.3-5.3-2.1c0.6-0.3,0.8-0.4,1.1-0.4
				c2.4-0.8,4.9-1.5,7.3-2.3c1.3-0.5,2.7-1.1,2.9-2.8c0.2-1.6-0.6-2.8-1.8-3.8c-4-3.2-8.5-5.1-13.6-4.9c-1.5,0.1-2.9,0.6-3.5,2
				c-2.2-0.1-4.4-0.3-6.6-0.3c-2.3,0.1-4.5,0.3-6.8,0.7c-3.2,0.6-6.2,1.3-9,3.3c-0.8,0.6-1.2,1.5-0.8,2.3c1.3,1.8-0.1,3.2-0.1,4.8
				c-2.9-1.1-5.7-2.3-8.5-3.5c-0.5-0.3-1-0.6-1.5-0.9c2.4-1.2,4.7-2.2,7.3-1.6c1.1,0.3,2.3-0.8,2.3-1.8c0-2.2-1.5-3.6-3.7-3.5
				c-1.2,0.1-2.5,0.3-3.7,0.4c-2.5,0.3-4.5,1.5-6.6,2.9c-0.3,0.2-0.6,0.6-0.7,1c-0.4,1.6,0.1,3.1,0.9,4.3c1.3,2,3.3,3.2,5.6,3.9
				c0.8,0.3,1.3,0.6,2.1,0.9c0,0.1,0,0.2-0.1,0.3c-2,0.8-3.9,1.6-5.8,2.4c-0.6-1.5-1.2-1.9-2.1-1.4c-0.7,0.3-1.3,0.7-2,1.1
				c-2.3,1.5-2.7,2.6-1.8,4.5c0.6,1.3,2.2,2.2,3.4,1.9c4.2-1.1,8.5-2,12.2-4.3c0.9-0.6,1.8-1.1,2.8-1.7c0.9,2.3,2.3,4,4.3,5.2
				c3,1.7,6.1,1.7,9.4,1.2c1.4-0.2,3-0.3,4-1.6c1.1-1.3,1.1-2.3-0.1-3.5c-1.2-1.2-2.5-1.3-3.6-0.3c-0.1,0.1-0.4,0.3-0.6,0.3
				c-2.2,0.4-4.4,0.7-6.6-0.1c-2-0.8-2.7-2.2-1.9-4.2c1.1,0.1,2.1,0.4,3.2,0.4c0.9,0.1,1.7-0.1,2.6-0.2c2.2-0.1,4.5,0,6.6-0.3
				c2.5-0.4,3.5-1.4,2.1-3.7c-0.4-0.7-1.7-1.1-2.7-1.1c-3.2-0.1-6.4,0.1-9.6,0.1c-0.4,0-0.9-0.2-1.3-0.3c0-0.2,0-0.3,0-0.5
				c1.3-0.5,2.7-1.1,4.1-1.4c3.2-0.6,6.3-0.9,9.4-1.5c1.5-0.3,3.4,0,3.8-2.5c0.5,0.4,0.9,0.8,1.1,1c-0.6,0.4-1.3,0.8-1.6,1.3
				c-0.3,0.5-0.3,1.3-0.3,1.9c0,1.3,0.1,2.6,0.1,3.8c0,0.9-0.1,2,0.1,2.8c0.5,1.8,0.9,3.5,0.2,5.3c-0.1,0.3,0,0.6,0.2,0.8
				c0.8,0.8,1.5,1.5,2.4,2c0.8,0.5,2-0.1,2.3-1.1C312.4,253.3,312.7,252.3,313,251.1z M368.6,242.8c0.8-0.2,1.4-0.3,2-0.4
				c2.9-0.3,5.8-0.9,8.6,0.7c0.3,0.2,0.8,0.1,1.1,0c1-0.4,1.6-1.1,1.5-2.3c-0.1-1.2-1.3-2.7-2.5-2.8c-2-0.3-3.9-0.6-5.9-0.4
				c-3.3,0.3-6.8,0.8-10.1,1.3c-0.9,0.1-1.7,0.7-2.1-0.6c-0.1-0.2-0.4-0.3-0.6-0.4c-1.1-0.3-2.1-0.7-3.2-0.9
				c-4.6-0.8-9.3-1-13.9-0.6c-1.4,0.1-2.8,0.6-4.2,1.1c-1.5,0.6-2.1,2.3-1.1,3.2c1.3,1.1,1.5,2.5,1.6,3.9c0.3,3.4,0.8,6.8,3.1,9.6
				c1.7,2.2,4,3.2,6.6,2.9c1.8-0.1,3.7-0.5,5.6-0.9c1.6-0.4,2.7-1.6,3.2-3.2c0.3-0.9-0.9-2.8-1.8-3.4c-1-0.6-1.8-0.3-2.3,0.8
				c-0.3,0.5-0.7,1.1-1.1,1.2c-1.2,0.4-2.5,0.8-3.9,0.9c-2.1,0.2-3.3-1.2-3.3-3.5c0.3-0.1,0.6-0.1,0.9-0.1c2,0,4.1,0.1,6.1,0
				c0.8,0,1.6-0.3,2.1-0.8c1-0.9,0.3-2.9-1.1-3.2c-2.5-0.4-5-0.6-7.4-0.9c-1.3-0.1-2.3-1.5-1.8-2.7c0.1-0.2,0.4-0.4,0.6-0.4
				c2.2-0.1,4.4-0.1,6.6,0c2.8,0.1,5.6,0.3,8.5,0.4c0.2,2,1.5,3.2,3.3,4.1c1.1,0.6,2.5,1,3.6,1.5c1.8,0.9,3.7,1.8,5.6,2.8
				c-0.3,0.3-0.4,0.5-0.4,0.5c-1.6,0.3-3.3,0.6-5.1,1c-1.1,0.3-2.6-0.3-3.2,1.3c-0.7,1.8,1.3,4.5,3.5,3.9c0.7-0.2,1.4-0.3,2.1-0.4
				c2.7-0.6,5.4-1.1,8-2c1.5-0.4,2.2-2.5,1.2-3.7c-1.3-1.6-2.8-3.2-4.5-4.4C372.9,244.9,370.8,244,368.6,242.8z M127.6,245.3
				c0.3-0.4,0.3-0.6,0.4-0.6c2.1-1.1,4.1-2.3,6.2-3.2c2.1-0.9,4.2-2,6.7-1.8c1.2,0.1,2.3-1.3,2-2.4c-0.6-1.9-2.6-3.3-4.8-2.8
				c-6.1,1.5-11.5,4.7-16.9,7.7c-0.9,0.5-1.7,1.1-1.6,2.3c0.1,1.6,0.6,3.2,2.2,4c2.4,1.3,5.1,1.4,7.6,1.3c2.1,0,4.2,0.2,6.3,0.3
				c0.1,0.2,0.1,0.4,0.1,0.6c-1.4,0.6-2.8,1.1-4.2,1.6c-0.4,0.1-0.9,0.2-1.1,0.4c-1.4,1.5-3.4,1.5-5.2,1.8c-0.4,0.1-0.8,0.1-1,0.4
				c-0.9,1.3,0.1,2.3,0.6,3.3c0.3,0.5,0.9,0.8,1.4,1.1c0.1,0.1,0.3,0,0.5,0c0.9-0.1,1.8-0.1,2.6-0.4c2.4-0.8,4.8-1.5,7.1-2.5
				c2-0.9,3.9-2.1,5.5-3.4c2-1.5,1.5-4.5-0.8-5.7c-3-1.5-6.2-2.2-9.6-2.3C130.5,245.3,129.2,245.3,127.6,245.3z M331.9,254.5
				c-0.6,1.8-0.4,3.4,1.5,4.4c1.5,0.8,3,0.1,3.1-1.6c0.1-0.6,0.1-1.1,0.1-1.7c0.2-2.8,0.4-5.5,0.6-8.3c0.1-2.4-0.1-4.9,0-7.3
				c0.1-1.4-0.5-2.4-1.3-3.3c-0.8-0.9-1.9-1.3-2.9-0.8c-0.6,0.3-0.9,1.4-0.9,2.2C331.9,243.6,331.9,249.1,331.9,254.5z M313.8,243.2
				c-0.1-2.1,0.1-4-2-5.1c1.8-0.5,3.6-0.7,5.3-0.2c1.4,0.4,2.8,1.1,4.1,1.6c0.3,0.1,0.4,0.4,0.5,0.6c0,0.1-0.3,0.4-0.4,0.5
				C318.8,241.4,316.3,242.3,313.8,243.2z"/>
			<path fill="#FFFFFF" d="M127.6,245.3c1.5,0,2.9,0,4.2,0c3.3,0.1,6.6,0.8,9.6,2.3c2.3,1.1,2.8,4.2,0.8,5.7
				c-1.7,1.3-3.5,2.5-5.5,3.4c-2.3,1.1-4.7,1.8-7.1,2.5c-0.8,0.3-1.7,0.3-2.6,0.4c-0.2,0-0.4,0.1-0.5,0c-0.5-0.4-1.1-0.7-1.4-1.1
				c-0.6-1.1-1.5-2.1-0.6-3.3c0.2-0.3,0.6-0.3,1-0.4c1.8-0.4,3.8-0.3,5.2-1.8c0.3-0.3,0.8-0.3,1.1-0.4c1.4-0.6,2.8-1.1,4.2-1.6
				c-0.1-0.2-0.1-0.4-0.1-0.6c-2.1-0.1-4.2-0.3-6.3-0.3c-2.7,0-5.2,0-7.6-1.3c-1.6-0.9-2.1-2.4-2.2-4c-0.1-1.1,0.8-1.8,1.6-2.3
				c5.4-3.1,10.8-6.2,16.9-7.7c2.2-0.6,4.2,0.9,4.8,2.8c0.3,1-0.9,2.5-2,2.4c-2.5-0.3-4.6,0.9-6.7,1.8c-2.1,0.9-4.2,2.1-6.2,3.2
				C128,244.8,127.9,244.9,127.6,245.3z"/>
			<path fill="#FFFFFF" d="M113.1,249.3c-1.5,0-5.5,0.1-3.7,2.6c0.7,0.9-0.3,1.2-0.9,0.9c-1.3-0.6-1-1.9-1.8-2.7
				c-0.7,1.3-1.3,1.7-2.3,0.6c0.4-1.1,1.1-2-0.3-2.1c0.2,0-1.1-1.1-1.2-1.2c0.7-0.8,1.3-0.6,2-1.2c-0.8-0.6-1.4-0.6-0.9-1.5
				c0.4-0.8,0.8-0.7,1.3-0.1c0.6-0.6-0.6-2.7,0.7-2.6c1.1,0,1.1,1.4,1.5,2.2c1.3-1.1,0.1-1.5,2.2-1.5c1,1-0.1,2.4-0.6,3.5
				C107.9,248.2,113.9,246.7,113.1,249.3C112.3,249.3,113.2,248.9,113.1,249.3z"/>
			<path fill="#FFFFFF" d="M172.7,250.8c-0.4-0.3-1.1-0.6-1.6-0.6c-2-0.4-1.7,0.3-1.7,1.9c0,1.7-0.9,3.6-2.1,5.1
				c-0.8-0.3-2.4,0.1-3-0.4c-1.6-1.5-0.4-3.3-0.4-5.1c0-2.1,0.4-3.7,0.4-5.7c1.5-1.2-0.4-4.3,1.2-5.7c0-2.3,1.3-5.9,4.9-5.9
				c1.9,0.1,1.8,2.8,2.7,3.5c0,1,0.3,1.6,0.4,2.5c0.1,1.6,0.8,0.1,1.3-0.3c0.6-0.4,2.7-2.5,2.3-3.2c0.9-0.8,1.7-1.9,3-1.9
				c0.8,0,1.9-0.1,2.5-0.3c3.7,0.9,2.1,7.6,2.1,9.8c0,2.5-0.4,4.7-0.4,7.1c-0.7,0.6-0.4,1.5-0.9,2.3c-0.4,0.7-1.1,1.3-1.8,1.6
				c-1.3,0.6-4.2-0.9-4.2-2.3c0-1.2,1.4-4.9,0.2-5.9c-0.6,1.1-1.3,1.8-2.3,2.7C174.3,250.4,173.4,250.3,172.7,250.8
				C172.5,250.7,172.9,250.7,172.7,250.8z"/>
			<path fill="#FFFFFF" d="M196.8,240.2c1.1,1-0.3,2.7,0.8,3.7c0.9,0.9,2.5-1.9,2.8-2.4c-0.4-1.4,3-5.2,4.8-5.2
				c1.6,0.1,1.6,0.4,3.1,1.5c0.9,0.7,0.9,1.2,0.9,2.2c0,1.9,0,3.5,0,5.2c0,2.3,0.4,4.1,0.4,6.3c0,2.1,1.3,4.6-0.9,6.4
				c-3.3,2.9-4.7-5-4.7-6.2c0-0.5-0.3-4.3-0.6-4.4c-1.3-0.2-2.1,2.1-2.3,2.9c-3.1,2.3-5.2,1-7.6-1.1c-1.6,1.1-0.2,6.9-3.6,6.7
				c-0.9-0.1-0.1,1.1-1.3-0.1c-0.8-0.7-0.9-1.6-0.9-2.5c0-2.2,0.4-4.4,0.4-6.5c0-2.8-0.3-7.4,2.3-9.5
				C193.1,234.8,196.8,237,196.8,240.2C196.9,240.3,196.8,239.8,196.8,240.2z M206,256.4c0.1,0.2,0.3,0.2,0.3-0.1
				C206.1,256.1,206,256.1,206,256.4C206,256.4,206,256.3,206,256.4z"/>
			<path fill="#FFFFFF" d="M242.5,251.9c1.5,0.8,3.1,1.8,5,1.8c1.3,0,2.8-0.3,3.8,0.5c0,1.2,0.2,2.1-0.8,3.1
				c-1.7,1.6-5.2,0.5-7.3,0.5c-1.8-0.9-3.2-2.3-4.9-3.3c-0.6,0.6-0.4,1.9-0.9,2.7c-0.9,1.4-2.9,1.3-4.2,0.4c-1.1-0.8-1-3.1-1-4.2
				c0-1.9-0.4-3.5-0.4-5.3c-0.8-0.6-0.4-1.5-0.4-2.4c-0.6-0.5-0.8-1.3-1.1-2c-0.4-0.9-0.9-2.5-0.9-3.3c0-2.5,3.3-3.4,5.7-4.1
				c1.3-0.4,3.2,0.9,4.4-0.1c1.1,0,1.9,0.6,3,0.8c2.4,0.3,5.1,1.4,6,3.3c1.5,2.8,0,4.9-1.9,7.4C245.3,249.2,242.9,249.7,242.5,251.9
				C243.1,252.2,242.6,251.5,242.5,251.9z M237.6,247.4c2.1,0,3.8-1.5,4.9-3c1.9-2.7-3.2-4-5.4-3c0.6,0.6,0.8,2.9,0.8,3.7
				C238.5,245.9,238.3,246.8,237.6,247.4C238.1,247.4,237.9,247.1,237.6,247.4z"/>
			<path fill="#FFFFFF" d="M229.5,255.4c0.7,0.3,1.3,0.6,2,0.9c-0.7,1.2-0.5,1.8-2.2,1.8c-0.7,0.6-3,0.9-3.7,0.3
				c-2.7,0-7.7,0.2-9.7-1.6c-0.9-0.8-1.1-1.5-1.5-2.5c-0.4-1.1,0.3-2.8-0.8-3.9c0-0.8,0.6-0.9,0-1.3c0-1-0.8-1.1-0.8-2
				c0-1.3,0.3-1.9,0.8-3c0.9-1.9-2.5-4.1-0.8-5.9c0.9-0.8,2.9-1,4-1c1.2-1,3.9-0.7,5.6-0.7c0.4,0.3,2.2,0.2,3.2,0.7
				c0.7,1.5,0.9,2.3-0.6,3.5c-1.3,1.1-1.9,0.6-3.3,0.6c-1.8,0-1.2,1.2-2.3,1.5c1.4,1.1,3.7,0.6,5.5,0.6c1.1,1.1,1.5,2.5-0.4,3.3
				c-2.5,1-5.8,0.5-5.8,3.4c0,1.4,0.9,4.2,2.2,5.1c0.6,0.3,2.4,0.3,2.8,0C225.7,255.2,227.3,255.4,229.5,255.4
				C230.2,255.7,228.5,255.4,229.5,255.4z"/>
			<path fill="#FFFFFF" d="M156,252.5c2.3-1.3,1.9-4.2,1.9-6.2c0-2.3-0.8-4.2-0.8-6.2c-0.9-0.9-0.7-2.5,0.3-3.2
				c1.2-1.1,1-0.4,2.3-0.3c1,1.1,1.3,3.5,1.3,4.8c1.1,1,0.8,4.4,0.8,5.7c1.1,0.9,0.4,3.3-0.2,4.5c-0.8,1.5-0.8,3.1-2.3,4.4
				c-0.8,0.7-1.6,1.1-2.5,1.8c-1,0.8-1.3,0-2.4,0c-1.2-1.1-3.3-2.1-3.8-3.7c-0.3-0.9-1.1-2.8-1.7-3.6c-0.5-0.8-0.3-1.5-0.9-2.4
				c-0.7-1.1-0.5-1.9-1.2-3c-0.9-1.3-2.1-5.7-0.7-6.9c0.3-1.6-0.1-1.6,1.7-2.6c1.1,0.6,1.3,0.4,2.1,1.3c1.3,1.6,0.6,5.2,0.6,7.2
				c0.6,1.3,1.2,2.5,1.2,3.9C152.8,249.1,154.2,251.8,156,252.5C156.8,252.1,155.6,252.3,156,252.5z"/>
			<path fill="#FFFFFF" d="M396.6,249.2c-2.6-1.8-0.2,2.8-1.3,3.7c-1.1-1.1-0.9-2.2-1.7-3.1c-0.4,0.4-1.2,1.9-1.2,2.6
				c-0.1,0.3-0.3,0.3-0.6,0.1c-0.3-0.3-0.1-1.1-0.1-1.5c0.5-0.6,0.8-1.3,0.5-2.1c-0.8,0.8-2.8,2.7-2.1,0.1c0.2-0.4,0.4-0.9,0.6-1.2
				c-0.4-0.3-0.5-0.8-0.4-1.1c0.6-0.6,1.2-0.8,1.8-0.2c0.3-0.4-0.1-1.5-0.1-2.1c-0.4-0.9-0.3-0.8,0.2-1.7c1.2,0.3,0.8,1.3,1.3,1.8
				c0.4-0.8,0.8-1.8,1.4-2.4c1.3,0,0.5,1.6,0.5,2.4c4.1,0,2.1,1.1,0.3,3C397.2,247.8,397.4,248.3,396.6,249.2
				C396.1,248.9,396.9,248.9,396.6,249.2z"/>
		</g>
	</g>
	<g enable-background="new    ">
		<path fill="#F0594A" d="M222.1,222.3c-0.6,0-1.1-0.1-1.6-0.3c-0.5-0.2-0.9-0.5-1.3-0.9c-0.4-0.4-0.7-0.8-0.9-1.3s-0.3-1.1-0.3-1.6
			l0,0c0-0.6,0.1-1.1,0.3-1.6s0.5-0.9,0.9-1.3c0.4-0.4,0.8-0.7,1.3-0.9c0.5-0.2,1.1-0.3,1.7-0.3c0.4,0,0.8,0,1.1,0.1
			c0.3,0.1,0.6,0.1,0.9,0.3c0.3,0.1,0.5,0.3,0.7,0.4s0.4,0.3,0.6,0.5l-1.1,1.3c-0.3-0.3-0.6-0.5-0.9-0.7c-0.3-0.2-0.7-0.3-1.1-0.3
			c-0.3,0-0.6,0.1-0.9,0.2c-0.3,0.1-0.6,0.3-0.8,0.6c-0.2,0.3-0.4,0.5-0.5,0.8c-0.1,0.3-0.2,0.6-0.2,1l0,0c0,0.4,0.1,0.7,0.2,1
			c0.1,0.3,0.3,0.6,0.5,0.8c0.2,0.3,0.4,0.4,0.8,0.6c0.3,0.1,0.6,0.2,0.9,0.2c0.4,0,0.9-0.1,1.2-0.3c0.3-0.2,0.6-0.4,0.9-0.7
			l1.1,1.1c-0.2,0.3-0.4,0.4-0.6,0.6c-0.2,0.2-0.5,0.3-0.8,0.4s-0.6,0.3-0.9,0.3C222.9,222.3,222.5,222.3,222.1,222.3z"/>
		<path fill="#F0594A" d="M229.7,214h1.6l3.5,8.3H233l-0.8-1.8h-3.5l-0.8,1.8h-1.8L229.7,214z M231.6,218.8l-1.1-2.7l-1.1,2.7H231.6
			z"/>
		<path fill="#F0594A" d="M238,215.7h-2.5V214h6.8v1.6h-2.5v6.6H238V215.7z"/>
		<path fill="#F0594A" d="M247.5,222.3c-0.6,0-1.1-0.1-1.6-0.3c-0.5-0.2-0.9-0.5-1.3-0.9c-0.4-0.4-0.7-0.8-0.9-1.3
			c-0.2-0.5-0.3-1.1-0.3-1.6l0,0c0-0.6,0.1-1.1,0.3-1.6c0.2-0.5,0.5-0.9,0.9-1.3c0.4-0.4,0.8-0.7,1.3-0.9c0.5-0.3,1.1-0.3,1.7-0.3
			c0.4,0,0.8,0,1.1,0.1c0.3,0.1,0.6,0.1,0.9,0.3c0.3,0.1,0.5,0.3,0.7,0.4c0.2,0.1,0.4,0.3,0.6,0.5l-1.1,1.3
			c-0.3-0.3-0.6-0.5-0.9-0.7c-0.3-0.2-0.7-0.3-1.1-0.3c-0.3,0-0.6,0.1-0.9,0.2c-0.3,0.1-0.6,0.3-0.8,0.6c-0.2,0.3-0.4,0.5-0.5,0.8
			s-0.2,0.6-0.2,1l0,0c0,0.4,0.1,0.7,0.2,1c0.1,0.3,0.3,0.6,0.5,0.8c0.2,0.3,0.4,0.4,0.8,0.6c0.3,0.1,0.6,0.2,0.9,0.2
			c0.4,0,0.9-0.1,1.2-0.3c0.3-0.2,0.6-0.4,0.9-0.7l1.1,1.1c-0.2,0.3-0.4,0.4-0.6,0.6c-0.3,0.2-0.5,0.3-0.8,0.4
			c-0.3,0.1-0.6,0.3-0.9,0.3C248.3,222.3,247.9,222.3,247.5,222.3z"/>
		<path fill="#F0594A" d="M252.3,214h1.8v3.2h3.3V214h1.8v8.2h-1.8v-3.3h-3.3v3.3h-1.8V214z"/>
		<path fill="#F0594A" d="M266.7,215.7h-2.5V214h6.8v1.6h-2.5v6.6h-1.8L266.7,215.7L266.7,215.7z"/>
		<path fill="#F0594A" d="M272.3,214h1.8v3.2h3.3V214h1.8v8.2h-1.8v-3.3h-3.3v3.3h-1.8V214z"/>
		<path fill="#F0594A" d="M281.2,214h6.2v1.6H283v1.6h3.9v1.6H283v1.7h4.4v1.6h-6.2V214z"/>
	</g>
</g>
</svg>
