<?xml version="1.0" encoding="utf-8"?>
<!-- Generator: Adobe Illustrator 18.1.1, SVG Export Plug-In . SVG Version: 6.00 Build 0)  -->
<svg version="1.1" id="Layer_1" xmlns="http://www.w3.org/2000/svg" xmlns:xlink="http://www.w3.org/1999/xlink" x="0px" y="0px"
	 viewBox="0 0 309.5 78.7" enable-background="new 0 0 309.5 78.7" xml:space="preserve">
<g>
	<path d="M252.5,41.9c0.2,1.6,1.2,2.6,2.6,3c0.1,0,0.3,0.1,0.4,0.1c0,0.1,0,0.3,0,0.5c0,0.6-0.1,1.2-0.1,1.7
		c-0.1,1.4-0.2,2.8,0.1,4.3l0,0.1c0,0.1,0,0.3,0,0.4l0,0.3c0,0.5,0,0.9,0,1.4c0,0.3,0,0.6,0.1,0.9c0,0.4,0.1,0.8,0.1,1.2
		c0,0.8,0,1.7-0.1,2.5c0,0.5,0,1.1,0,1.6l0,0.4c0,0.6,0,1.2,0,1.8c0.2,2.1,1.7,3.7,3.9,4.1c1,0.2,2.2-0.2,2.8-1
		c0.5-0.7,0.7-1.5,0.4-2.4c-0.3-1-0.3-2.2-0.2-3.3l0-0.4c0-0.6,0-1.3,0-1.9c0-1.2,0.1-2.4,0.1-3.6v-0.1c0-1,0-2.1-0.5-3.2
		c-0.2-0.4-0.3-0.7-0.3-1.3c0-1.5,0-3.1,0-4.6c0-1.2,0-2.4,0-3.6c0-0.6,0.1-1,0.5-1.3c0.6-0.7,1.2-1.3,1.8-2
		c0.6-0.6,1.1-1.3,1.7-1.9c0-0.1,0.1-0.1,0.2-0.2c1.1,0.4,1.8,1,2.4,1.9c0.5,0.7,1,1.4,1.5,2.1c0.2,0.3,0.4,0.6,0.6,0.8l1.2,1.6
		c0.8,1.1,1.6,2.2,2.4,3.3c1.9,2.7,3.5,5,5,7.5c1.5,2.5,3.1,5,4.7,7.5c1.2,1.8,2.4,3.6,3.6,5.3c0.8,1.1,1.8,1.7,2.9,1.7
		c0.6,0,1.3-0.2,2-0.5l0.3-0.1l0.2-0.3c0.5-0.8,0.6-1.6,0.6-2.2c0.2,0,0.4,0,0.6-0.1l0.2,0c0.9-0.2,1.7-0.3,2.6-0.6
		c0.9-0.3,1.7-0.8,2.6-1.3c2.8-1.6,4.8-3.1,6.5-4.9l0.1-0.2c0.7-0.8,1.5-1.6,2.1-2.6c1.8-3.4,1.6-7.1-0.5-10.7
		c-1.5-2.6-3.7-4.6-6.4-6.1c0.7-0.1,1.3-0.5,1.6-0.8c0.5-0.4,1.6-1.3,1.6-2.8c0-0.7,0.3-1.3,0.6-2.1l0.2-0.3
		c0.1-0.3,0.2-0.6,0.4-0.8c0.3-0.6,0.5-1.3,0.9-1.8c0.1-0.2,0.3-0.5,0.4-0.7c0.5-1,0.9-1.8,1.7-2.4c1-0.7,1.4-2,1.1-3.2l-0.1-0.3
		l-0.2-0.2c-1.1-1.4-1.6-2-3.2-2c-0.2,0-0.5,0-0.7,0l-0.3,0l-0.3,0.1c-1.1,0.6-1.6,1.4-1.9,2c-0.7,1.4-1.5,2.8-2.3,4.2
		c-1.2-2.3-3-4.1-5.3-5.6l-0.2-0.1l-0.2,0c-0.2-0.1-0.5-0.1-0.7-0.1c-0.4-0.1-0.8-0.2-1.2-0.3c-1.1-0.3-2.3-0.3-3.8-0.1
		c-2.4,0.5-4.3,1.5-5.6,3.1c-1.9,2.4-2.7,5.1-2.4,8c0.1,0.6,0.2,1.4,0.5,2c0.6,1.2,1.5,2.1,2.9,2.8c0.2,0.1,0.3,0.1,0.5,0.2
		c0.2,0.1,0.4,0.2,0.6,0.3c3.7,2.1,7.6,3.8,11.9,5.5c2.2,0.9,3.7,2.4,4.8,4.6c0.3,0.5,0.4,1.1,0.3,1.6c-0.2,1.4-0.5,2.4-1.2,3.1
		c-0.6,0.7-1.2,1.4-1.9,2c-0.9,0.9-1.9,1.6-3,2.4c-0.5,0.3-1,0.7-1.4,1.1c-0.7,0.5-1.5,0.8-2.5,1c-0.2,0-0.5,0.1-0.6,0.1
		c-0.4,0-0.7,0-1.2-1c0-0.1-0.1-0.2-0.1-0.2c-0.2-0.4-0.5-1.1-1.2-1.5l-0.2-0.1l-0.4,0c-0.6,0-1.1,0.2-1.4,0.5
		c-0.2-0.5-0.5-1-0.9-1.4c-0.9-1.2-1.7-2.5-2.6-3.8c-0.4-0.7-0.9-1.4-1.3-2.1c-0.4-0.6-0.7-1.1-1.1-1.7c-1-1.6-2.1-3.3-3.3-4.9
		c-1.1-1.5-2.3-3.1-3.4-4.6c-0.7-0.9-1.3-1.8-2-2.8c-1.2-1.7-1.9-3.2-2.3-4.7c0.1-0.1,0.2-0.3,0.3-0.4c0.4-0.4,0.7-0.8,1.1-1.2
		c0.6-0.6,1.1-1.3,1.7-1.9c1.3-1.6,2.5-2.6,3.8-3.3c0.6-0.3,1.1-0.8,1.4-1.1c1.2-1.2,1.2-2.7,0.1-3.9c-0.3-0.3-0.6-0.6-0.9-0.8
		l-0.5-0.5l-0.4-0.1c-2-0.4-3.5,0.2-4.5,1.6c-1.7,1.2-3,2.9-4,4.3c-0.8,1.1-1.8,2.1-2.8,3.2c-0.4,0.4-0.8,0.8-1.1,1.2
		c-1.3,0.8-2.1,1.9-2.9,2.9c-0.1,0.2-0.2,0.3-0.4,0.5c0-1.2,0-2.3,0-3.4c0-1.6,0.1-3.3,0.2-4.9l0-0.9c0-0.9,0.1-1.7,0.1-2.6
		c0.1-1.1,0.1-2.2,0.2-3.3c0-0.6,0.2-1.1,0.6-1.9c0.1-0.2,0.2-0.4,0.3-0.6l0.4-0.7l-0.1-0.6c-0.2-1.4-0.3-1.8-1-2.5
		c-0.5-0.5-1.3-1.2-2.4-1.4c-0.9-0.2-1.8,0.2-2.3,0.4c-0.9,0.4-1.5,1-1.8,1.8l-0.1,0.2l-0.2,4.4c0,0.1,0,0.3,0,0.4
		c0,0.4-0.1,0.8,0,1.3c0.1,1,0.1,1.9,0,3l0,0.2c-0.1,1.4-0.2,3,0,4.6c0,0.2,0,0.4,0,0.6c0,0.4,0,0.8-0.1,1.1c0,0.6-0.1,1.3-0.1,1.9
		l0,1.5c0,2.4-0.1,5,0.2,7.5c0.1,0.7-0.1,1.1-0.6,1.6c-0.3,0.3-0.6,0.5-0.8,0.7C253.2,38.7,252.2,39.8,252.5,41.9z M297.6,36
		c-2.1-0.9-4.4-1.8-6.4-2.9c-0.6-0.3-1.3-0.7-1.9-1.1l-0.9-0.5c-0.4-0.2-0.7-0.5-0.7-1.4c0-1.1,0.4-1.9,1.3-2.6
		c0.2-0.2,0.5-0.3,0.7-0.5c0.5-0.3,1-0.5,1.4-0.5c0.7,0,1.4,0.3,2.2,0.8c1.6,1.7,2.5,3.3,2.8,5.1c0.1,0.5,0.2,1.1,0.3,1.6l0.2,1.1
		L297.6,36z"/>
	<path d="M117.6,57.2c0.3-2.1,0.6-4.2,0.9-6.2c0.2-1,0.3-2,0.5-3c0-0.3,0.1-0.7,0.1-1.1l0-1.1c0-1.1,0.1-2.3,0.1-3.4
		c0-2.8,0.1-5.5,0-8.2c0-1.1,0-2.1,0-3.2c0-0.7,0-1.4,0-2.1c0-1.1,0-2.2,0-3.4c0-1.6,0-3.2-0.1-4.8c0-0.9,0-1.8-0.1-2.7
		c0-1.3-0.1-2.6-0.1-3.9c0-1.2,0.2-2.4,0.5-3.9c0.1-0.3,0.1-0.4,0.4-0.5c0.2-0.1,0.4-0.2,0.7-0.2l1.2-0.4c1.4-0.4,2.8-0.8,4.1-1.2
		c1.1-0.3,2.3-0.6,3.6-0.7c0.9,0,1.7-0.4,2.4-0.8l0.2-0.1c0.5-0.3,1.8-1.1,1.4-3c-0.3-1.4-1.2-2.2-2-2.7c-0.4-0.2-0.7-0.4-1.1-0.5
		c-0.1-0.1-0.2-0.1-0.4-0.2L129.6,0l-0.9,0.2c-0.5,0.1-1,0.2-1.4,0.2c-0.4,0.1-0.7,0.3-1,0.4c-1.6,0.9-3.4,1.6-5.9,2.2
		c-0.3,0.1-0.6,0.1-0.8,0.2c-0.1-0.1-0.2-0.1-0.3-0.2c-0.4-0.4-1-0.9-1.9-1l-0.2,0L117,2c-0.3,0.1-0.5,0.1-0.8,0.1
		c-0.6,0.1-1.3,0.2-2,0.5l-0.2,0.1l-0.2,0.2c-0.7,0.8-0.9,1.8-1,2.6c0,0,0,0.1,0,0.1c-0.1,0-0.2,0.1-0.2,0.1l-0.9,0.2
		c-1.7,0.4-3.5,0.9-5.3,1.3c-1.1,0.2-2.4,0.4-4,0.6c-1.1,0.1-2.2,0.2-3.2,0.3c-1.2,0.1-2.4,0.2-3.6,0.4c-1.8,0.2-2.9,1.1-3.4,2.7
		l-0.1,0.5l1.1,2.3l0.2,0.2c1.1,0.9,2.5,2,4.4,1.8l0.5,0l0.3-0.4c0.7-0.8,1.7-1.2,3.2-1.5c0.8-0.1,1.6-0.3,2.5-0.4
		c1.1-0.2,2.2-0.3,3.3-0.5c0.3-0.1,0.7-0.1,1-0.2c1.5-0.3,3-0.5,4.4-1c0,0,0,0.1,0,0.1l0,0.4c0,0.4,0,0.8,0,1.2c0,0.9,0,1.8,0.1,2.7
		c0.1,0.9,0,1.7-0.5,2.4c-0.4,0.6-0.7,1.2-0.9,1.8l-0.2,0.4c-0.2,0.4-0.6,1.5,0.2,2.7l0.2,0.3l1.4,0.5c0,0.1,0.1,0.2,0.1,0.3
		c0.1,0.8,0.1,1.7,0.1,2.6l0,0.2c0,0.4,0,0.9,0,1.3c0,0.9,0,1.7,0,2.6c0.1,1.1,0.1,2.3,0,3.5c0,0.5-0.1,1-0.1,1.5
		c0,3.2-0.2,6.5-0.6,10.9c0,0.3,0,0.6-0.1,0.8c-0.1,1-0.2,1.9-0.4,2.8c-0.3,1.1-0.5,2.3-0.6,3.3c-0.2,1.5-0.5,3-0.9,4.4
		c-0.1,0.3-0.1,0.6-0.2,0.8c0,0.1,0,0.2,0,0.3l0,0.1c0,0.2-0.1,0.4-0.2,0.6l-0.1,0.3c-0.3,0.8-0.6,1.6-0.9,2.3
		c-0.1,0.3-0.2,0.5-0.3,0.8c-0.3,0.8-0.6,1.6-1,2.3c-0.4,0.6-0.8,1.2-1.3,1.8c-0.3,0.4-0.5,0.7-0.8,1.1c-0.7,1-1.7,1.6-2.7,2
		c-0.5,0.3-1.1,0.4-1.7,0.5c0.2-0.8,0.2-1.5,0.1-2.3c0-1.2-0.8-2-2-2.1l-0.5-0.1l-0.4,0.3c0,0-0.1,0.1-0.2,0.1
		c-0.3,0.2-0.7,0.4-1,0.8L97,69.4c-0.9,1.1-1.7,2.2-2.4,3.6l-0.2,0.5l0.1,0.5c0,0.1,0.1,0.3,0.1,0.4c0.1,0.4,0.2,0.8,0.4,1.1
		c0.4,0.9,1,1.5,1.8,2c1.5,0.8,3.1,1.3,4.8,1.3c0.6,0,1.1,0,1.7-0.1c1.2-0.2,2.5-0.6,4-1.3c2.8-1.3,5-3.5,6.6-6.8
		c1.2-2.4,1.9-5.1,2.6-7.5C116.9,61.1,117.3,59.1,117.6,57.2z"/>
	<path d="M198.7,33.2c-0.5-0.3-1.2-0.7-2-0.9c0-1.3,0-2.6-0.1-3.9c-0.1-2.9-0.2-5.9,0-8.7c0-0.4,0-0.8,0.1-1.2
		c0-0.6,0.1-1.2,0.1-1.8l0-0.2c0.1-0.7,0.1-1.3,0.3-1.8c0.7-1.6,0.4-3.2-0.7-4.6l-0.3-0.3l-2.4-0.7l-1.7,0.7l-0.2,0.2
		c-1.2,1.2-1.3,2.7-1.3,3.8c-0.1,1.2-0.1,2.5-0.1,3.7c0,0.5,0,1.1,0,1.6c0,0.3,0,0.7,0,1c0,0.7-0.1,1.5,0,2.3
		c0.2,3.5,0.2,6.5,0.2,9.2c0,0.8,0,1.5,0,2.3c0,0.2,0,0.5,0,0.7c-0.2,0.3-0.3,0.3-0.8,0.6c-2.5,1.2-5.2,2.3-8.1,2.9
		c-0.2,0-0.4,0.1-0.5,0.1c-0.3,0.1-0.5,0.1-0.8,0.1c0-0.6,0-1.2,0-1.8c0.1-1.1,0.2-2.3,0.3-3.4c0.1-0.7,0.1-1.3,0.2-2
		c0-0.6,0.1-1.2,0.1-1.8c0.1-0.8,0.1-1.6,0.2-2.3l0-0.3c0.1-0.9,0.1-1.7,0.3-2.5l0-0.1c0.2-0.9,0.3-1.8,0.8-2.5
		c0.2-0.4,0.3-0.8,0.4-1.1c0-0.1,0-0.2,0.1-0.2l0.2-0.5l-0.2-0.5c-0.8-1.6-1.5-2.8-3.4-2.8c-0.4,0-0.9,0.1-1.6,0.2l-0.3,0.1
		l-0.2,0.2c-0.9,0.7-1.4,1.7-1.5,3c0,0.3,0,0.6-0.1,0.9c0,0.4-0.1,0.8-0.1,1.1c0,0.5-0.1,1.1-0.2,1.6c-0.1,0.9-0.2,1.8-0.3,2.7
		c-0.2,3-0.4,6-0.6,9l0,0.5c0,0.4,0,0.8-0.1,1.1l-0.1-0.1c0,0.1,0,0.3,0,0.4l0.1,0c-0.1,1.2-0.1,2.3-0.1,3.5l-0.3-0.5v0.8l0.3,0.2
		c0,3.5-0.1,6.2-0.3,8.8c0,0.3,0,0.6,0,1c0,0.2,0,0.4,0,0.5c0,0.4,0,0.8,0,1.2c0,0.9,0,1.8-0.1,2.7c-0.1,0.9-0.2,2,0.2,3l0.1,0.3
		c1,1.6,2.6,2.3,4.5,2.1l0.3,0l0.2-0.2c1-0.7,1.1-1.7,1.2-2.1c0.2-1.4,0.3-2.8,0.4-4.2c0.1-1.2-0.1-2.2-0.6-3.2
		c-0.1-0.1-0.1-0.3-0.1-0.6c0-1.8,0.1-3.8,0.2-6.1l1.3-0.3c1.5-0.4,3-0.7,4.4-1c1.7-0.4,3.4-1,5-1.6c0,0.1,0,0.2,0,0.3
		c0.1,0.9,0.2,1.7,0.1,2.5c0,0.8-0.1,1.7,0.1,2.6c0.2,0.9,0.3,1.8,0.3,2.8c0,0.9,0.1,1.8,0.1,2.6l0.1,0.6c0.1,1.2,0.3,2.3,0.1,3.4
		c-0.3,1.2,0,2.5,0.8,3.5c0.9,1.1,2.1,1.7,3.5,1.8l0.1,0c1.4,0,2.3-0.8,2.4-2.2c0-0.6,0-1.1-0.1-1.6l0-0.3c0-0.5-0.1-0.9-0.2-1.4
		c-0.1-0.4-0.1-0.9-0.2-1.3c0-0.3-0.1-0.7-0.1-1c-0.1-1.1-0.1-2.3-0.7-3.5c0-0.1,0-0.4-0.1-0.6c0-0.2,0-0.3,0-0.5
		c0-0.6-0.1-1.1-0.1-1.7c0-0.6-0.1-1.2-0.1-1.8c0-0.5-0.1-0.9-0.1-1.4c0-0.6-0.1-1.2-0.1-1.8c-0.1-1.1-0.1-2.1-0.1-3.1l0-0.8
		c0.1-0.1,0.4-0.2,0.8-0.3l0.2-0.1c0.6-0.2,1.3-0.5,1.9-1.3l0.2-0.2l0.1-0.7C200.2,35,199.8,33.9,198.7,33.2z"/>
	<polygon points="196.2,60.4 196.2,60.4 196.2,60.4 	"/>
	<path d="M232.7,55.9c0.9-0.9,1.5-1.9,1.8-3c0-0.2,0.1-0.4,0.2-0.7c0.1-0.2,0.2-0.4,0.2-0.6c0.3-0.9,0.7-1.8,1-2.8
		c0.2-0.4,0.4-0.9,0.5-1.3c0.2,0.8,0.4,1.7,0.6,2.5c0.3,1.4,1,2.6,1.4,3.5c1,1.8,2.5,2.7,4.7,2.6l0.5,0l0.4-0.4
		c0.1-0.1,0.1-0.1,0.2-0.2c0.2-0.2,0.4-0.4,0.6-0.7c1.3-2.1,2.3-4.6,2.9-7.5c0.6-2.7,1.2-5.5,1.9-9c0.3-1.5,0.6-3.1,0.9-4.7
		c0.3-1.4,0.5-2.9,0.8-4.3c0.1-0.7,0.3-1.5,0.4-2.2c0.4-2.3,0.8-4.4,1.6-6.5l0.2-0.5l-0.9-2.4l-0.4-0.2c-1.4-0.7-2.7-0.7-4,0.1
		l-0.5,0.3l-0.1,0.5c0,0.2-0.1,0.4-0.2,0.6c-0.2,0.4-0.4,1-0.4,1.7c0,0.6-0.3,1.3-0.5,2c-0.2,0.7-0.3,1.4-0.3,2c0,0.3,0,0.6-0.1,0.9
		c-0.3,1.6-0.6,3.2-1,4.8l-0.2,1.1c-0.1,0.4-0.2,0.8-0.3,1.2c-0.2,0.7-0.4,1.5-0.5,2.3c-0.5,3.7-1.3,7.2-2.3,11
		c-0.2-0.9-0.3-1.9-0.4-3c-0.1-1.7-0.1-3.4,0-5.3l0-0.8c0-1.4,0.1-3.3-1-5.1l-0.2-0.4l-0.4-0.2c-0.1,0-0.3-0.2-0.4-0.3
		c-0.4-0.4-1-0.8-1.9-1l-0.2,0l-0.2,0c-2.2,0.4-2.8,1-3.1,3.2c0,0.1,0,0.1,0,0.2c-0.1,0.5-0.2,1.1-0.3,1.6c-0.3,1.3-0.5,2.4-0.8,3.6
		c-0.3,1-0.6,1.9-1,2.9c-0.4-3.4-0.6-7.1-0.9-11.6c0-0.8-0.1-1.6-0.1-2.4c0-0.7-0.1-1.5-0.1-2.2c0-0.9,0-1.7,0.3-2.3
		c0.2-0.4,0.3-0.8,0.3-1.2c0-0.1,0-0.2,0-0.2l0.1-0.3l-0.1-0.3c-0.6-1.9-0.7-2.2-2-3.3l-0.2-0.2l-2.2-0.6l-0.7,0.3
		c-0.1,0-0.1,0.1-0.2,0.1c-1,0.4-1.8,1.1-2.2,2c-0.4,1-0.4,2.2,0.1,3.1c0.4,0.8,0.5,1.7,0.5,2.7l0,0.6c0.2,2,0.3,4,0.4,5.9
		c0.1,1.2,0.1,2.3,0.2,3.5c0.1,1,0.2,1.9,0.2,2.9l0.2,2c0,0.4,0.1,0.8,0.1,1.2c0,0.6,0.1,1.1,0.1,1.7c0.1,0.8,0.1,1.6,0.2,2.4l0,0.4
		c0.1,1.2,0.2,2.4,0,3.5c-0.6,2.5,0.2,4.8,2.2,6.3l0.3,0.2l3.4,0.5L232.7,55.9z"/>
	<path d="M145.8,39.3c0.6-0.3,1.6-0.8,2-1.9l0.1-0.3l-0.1-0.3c-0.6-3-2.4-3.6-3.8-3.6c-0.1,0-0.2,0-0.3,0c0-3.3,0-6.6,0.1-9.9
		c0-0.5,0-1.1,0.1-1.6c0-0.7,0.1-1.4,0.1-2.1c0-1.5-0.1-3.2-0.7-4.7c-0.5-1.2-1.4-2.1-2.6-2.7c-1.5-0.7-3.3-0.4-4.4,0.8l-0.1,0.1
		c-0.8,0.8-1.7,1.8-2.2,3.1l-0.6,1.4c-0.6,1.4-1.2,2.9-1.7,4.5c-0.5,1.5-1,3-1.4,4.4l-0.2,0.6c-0.2,0.6-0.3,1.1-0.4,1.7
		c-0.1,0.4-0.2,0.8-0.3,1.1c-0.1,0.3-0.2,0.7-0.3,1c-0.1,0.4-0.3,0.9-0.4,1.3c-0.2,0.6-0.3,1.2-0.4,1.9c-0.2,1.1-0.5,2.2-0.8,3.2
		c-0.5,1.7-1,3.6-1.4,5.9c-0.5,2.4-1.1,5-1.9,8c-0.1,0.4-0.3,0.9-0.4,1.3c-0.3,0.8-0.5,1.7-0.7,2.6c-0.2,1.2,0,2.5,0.8,3.4
		c0.8,0.9,2,1.5,3.4,1.5c0.2,0,0.4,0,0.6,0c1-0.1,1.9-0.8,2.2-1.8c0.1-0.4,0.3-1,0.3-1.6c0-0.6-0.1-1.1-0.2-1.7
		c0-0.3-0.1-0.5-0.1-0.9c0-0.1,0-0.1,0-0.2c0.5-3,1.2-6.2,2-9.6c0-0.1,0.1-0.2,0.1-0.2c0.8-0.6,1.6-1.1,2.4-1.3c1-0.2,2-0.3,3-0.5
		l0.3-0.1c0.2,1.2,0.2,2.4,0.1,3.6l0,0.2c0,0.6-0.1,1.3,0,2c0.1,1.3,0,2.3-0.2,3.3c-0.4,1.7,0,3.2,1.2,4.4c0.6,0.7,1.4,1,2.4,1.2
		c1.2,0.2,2.2-0.2,2.9-1l0.2-0.2c0.4-0.7,0.5-1.5,0.3-2.3c-0.2-1-0.3-2.1-0.3-3.2c0-0.6-0.1-1.1-0.1-1.7l0-0.3
		c-0.2-2.2-0.4-4.5-0.4-6.8c0-0.2,0-0.3,0-0.5c0-0.1,0-0.1,0-0.2c0,0,0-0.1,0-0.1c0.5-0.2,1.1-0.5,1.6-0.8
		C145.5,39.5,145.6,39.4,145.8,39.3z M137.7,33.3c0,0.5,0,1,0,1.4c0,0.4,0,0.8-0.1,1.2c-0.4,0.1-0.9,0.2-1.4,0.3
		c-0.4,0.1-0.8,0.2-1.2,0.3c-0.5,0.1-1.1,0.3-1.6,0.4c0.1-0.3,0.1-0.6,0.2-0.9c0.1-0.3,0.1-0.5,0.2-0.8c0.5-2,1-4,1.6-5.9l0.1-0.2
		c0.5-1.8,1-3.4,1.5-4.8c0.3-0.8,0.5-1.5,0.8-2.1c0,1.3,0,2.7,0,3.9c0,0.9,0,1.8-0.1,2.7c0,1-0.1,1.9-0.1,2.9
		C137.7,32.2,137.7,32.7,137.7,33.3z"/>
	<path d="M218.9,32.8c0-0.1,0-0.1,0-0.2c0-0.2,0-0.4,0-0.6c-0.1-2.1-0.1-4.3-0.1-7c0-0.4,0-0.8,0-1.2c0-0.6,0-1.2,0-1.8
		c-0.1-1.3-0.2-2.6-0.3-3.8l-0.1-1.1c0-0.3-0.1-0.5-0.2-0.7c-0.5-1.7-1.7-3.1-3.6-4.1c-1.1-0.6-2.3-0.8-3.4-0.6
		c-2,0.4-3.4,1.4-4.3,3l-0.2,0.3c-0.6,1.1-1.2,2.2-1.7,3.4c-0.1,0.3-0.2,0.6-0.4,0.9c-0.4,1-0.7,1.9-1,3c-0.2,1.1-0.5,2.2-0.8,3.3
		c-0.1,0.4-0.2,0.9-0.3,1.3c-0.1,0.2-0.1,0.5-0.2,0.7c-0.1,0.4-0.2,0.9-0.3,1.4c-0.2,1.1-0.4,2.2-0.6,3.2c-0.1,0.7-0.2,1.4-0.4,2.1
		c-0.1,0.4-0.2,0.8-0.2,1.2c-0.2,0.8-0.3,1.7-0.4,2.6c0,0.5-0.1,1-0.1,1.4c0,0.9-0.1,1.7-0.3,2.4c-0.3,1-0.4,1.9-0.5,2.8
		c0,0.8-0.1,1.7-0.2,2.6c-0.1,1.2-0.2,2.5-0.2,3.7l0,0.3c0,1.5,0.1,1.9,1.2,3.3c0.1,0.1,0.2,0.3,0.3,0.4l0.3,0.3l2,0.6l0.6-0.1
		c0.6-0.1,1.3-0.2,2-0.8l0.3-0.3l0.1-0.4c0.3-1.5,0.1-2.9-0.2-4.1c0-0.2-0.1-0.5-0.2-0.7c-0.1-0.6-0.2-1.1-0.2-1.5
		c0-0.4,0-0.8,0-1.3c0-1.1,0-2.2,0.2-3.2c0.1-0.3,0.1-0.6,0.1-1l0.7,0.4l0.7-0.5c0.6-0.4,1.4-0.6,2.4-0.7c0.2,0,0.5-0.1,0.7-0.1
		c0.3-0.1,0.7-0.1,1-0.2c0.6-0.1,1.1-0.2,1.6-0.3c0.1,1.6,0.2,3.2,0.2,4.9c0,0.4,0,0.9,0,1.3c0,0.9,0,1.8,0.1,2.8
		c0.3,2,0.3,3.7-0.1,5.2l-0.1,0.4l0.1,0.4c0.7,2,1.2,2.6,3.1,3.6l0.3,0.2l0.3,0c0.1,0,0.2,0,0.2,0c0.3,0,0.6,0,0.9-0.1
		c1.4-0.3,2.2-1.5,2.1-2.9c0-0.2-0.1-0.4-0.1-0.5l0-0.1c-0.3-1.1-0.4-2.3-0.4-3.9c0-0.5-0.1-0.9-0.1-1.4c0-0.2,0-0.4-0.1-0.6l0-0.4
		c0-0.4-0.1-0.9-0.1-1.3c0-0.9,0-1.7-0.1-2.6c0-2-0.1-4-0.3-6c0-0.4,0-0.7,0-1.1l2.2-1.5l0.1-0.3c0.4-0.9,0.4-1.8,0-2.6
		C220.8,33.5,219.7,33.1,218.9,32.8z M207.2,34c0-0.1,0-0.1,0-0.2c0-0.2,0.1-0.4,0.1-0.6c0-0.2,0.1-0.4,0.1-0.6
		c0-0.2,0.1-0.4,0.1-0.5c0-0.2,0.1-0.4,0.1-0.6c0-0.3,0.1-0.5,0.1-0.8c0-0.2,0.1-0.4,0.2-0.6c0.1-0.2,0.1-0.4,0.2-0.6
		c0.1-0.3,0.1-0.6,0.2-0.9c0-0.2,0.1-0.4,0.1-0.6c0.1-0.3,0.1-0.5,0.2-0.7l0.2-1c0.1-0.3,0.1-0.6,0.2-0.9c0.1-0.4,0.2-0.8,0.3-1.2
		c0.5-1.7,1-3.3,1.9-4.8c0.4-0.8,0.8-1.3,1.3-1.7c0.2,0.9,0.3,1.7,0.4,2.6c0,0.6,0,1.2,0,1.8c0,0.3,0,0.7,0,1c0,0.3,0,0.5,0,0.8
		l0,0.2c0,0.3,0,0.6,0.1,0.9c0,0.6,0.1,1.1,0.1,1.6c-0.1,1.4,0,2.8,0,4.1c0,0.6,0.1,1.2,0.1,1.8c0,0.2,0,0.4,0,0.6
		c0,0.6,0,1.2,0,1.7c-0.7,0.5-1.6,0.6-2.7,0.7c-0.3,0-0.6,0.1-0.9,0.1c-0.6-0.4-1-0.5-1.5-0.5c-0.2,0-0.4,0-0.6,0.1
		C207.4,34.8,207.3,34.3,207.2,34z"/>
	<path d="M2.2,19.1l0.2,0.1l0.2,0c1.1,0,2.1-0.3,2.8-0.5c2.4-0.9,4.9-1.5,7.8-2.2c0.9-0.2,1.9-0.4,2.9-0.5c0.4-0.1,0.9-0.1,1.3-0.2
		l0.1,0c-0.1,0.2-0.2,0.3-0.2,0.5c-0.5,1.3-1.1,3-0.1,4.7c0,0,0,0,0,0l-0.1,0.8c-0.1,0.9-0.3,1.8-0.4,2.7c-0.1,0.4-0.1,0.9-0.2,1.3
		l0,0.2c-0.1,0.6-0.1,1.2-0.2,1.8c-0.1,1.3-0.2,2.5-0.4,3.7c-0.3,1.5-0.4,3-0.5,4.5c-0.1,1.1-0.1,2.1-0.3,3.1
		c-0.2,1.5-0.3,3.1-0.5,4.6c-0.1,0.9-0.2,1.8-0.3,2.8c0,0.4-0.1,0.8-0.2,1.2c-0.1,0.6-0.2,1.2-0.3,1.9c-0.1,1.3-0.3,2.7-0.7,4.1
		c-0.3,1.2-0.2,2.3,0.4,3.4c0.5,1,1.5,1.6,2.7,1.8l0.2,0l0.2-0.1c0.6-0.1,1.6-0.4,2.3-1.4l0.2-0.3l0.1-1.8c0.1-1.1,0.1-2.2,0.2-3.3
		c0-0.5,0.1-0.9,0.2-1.4c0.1-0.4,0.1-0.9,0.2-1.3c0.2-1.9,0.4-3.9,0.5-5.8c0.2-2.3,0.4-4.5,0.6-6.8l0.1-1.5c0.2-1.9,0.4-3.9,0.6-5.8
		l0.3-2c0.4-2.7,0.8-5.4,1.3-8.1c0.3-1.7,0.7-3.2,1.1-4.7c0,0,0-0.1,0-0.1c0.1,0,0.2,0,0.3-0.1c0.6-0.1,1.3-0.3,1.9-0.3
		c1.6-0.2,3.3-0.5,4.9-0.7c1-0.1,2-0.3,3-0.4c0.9-0.1,1.8-0.3,2.7-0.4c1.2-0.2,2.4-0.3,3.6-0.5c0.3,0,0.5-0.1,0.8-0.1
		c1.1-0.2,2.1-0.3,3-0.2c0.4,0.1,0.9-0.1,1.2-0.1c0.1,0,0.1,0,0.2-0.1l0.5-0.1l1.5-2.3l-0.6-2.9l-2-0.9c-1-0.5-2-0.5-2.9,0
		c-1.2,0.6-2.6,0.8-4,1c-0.4,0.1-0.7,0.1-1.1,0.2c-2.6,0.5-5.3,0.8-7.9,1.2c-1,0.1-2,0.3-2.9,0.4c-0.2,0-0.5,0.1-0.8,0.1
		c-0.5-0.7-1.1-1.4-2.1-1.8l-0.2-0.1l-0.2,0c-1.3-0.1-2.5,0.2-3.3,1l-0.2,0.2l-0.6,1.5c-0.2,0.1-0.3,0.1-0.5,0.2
		c-0.4,0.1-0.8,0.2-1.2,0.2l-0.3,0c-0.6,0.1-1.2,0.2-1.8,0.3c-1.3,0.2-2.7,0.4-4.1,0.7c-0.8,0.2-1.7,0.4-2.4,0.6
		c-0.5,0.2-1.1,0.3-1.6,0.4c-1.3,0.3-2.5,0.6-3.8,0.8L1.7,13l-0.2,0.1c-1.1,0.7-1.6,1.7-1.5,2.8C0.2,17.5,0.9,18.6,2.2,19.1z"/>
	<path d="M158.2,47.9c-0.2,1.6-0.4,3-0.6,4.5c-0.3,1.3-0.4,2.6-0.4,3.9c-0.1,2.5-0.4,4.4-1,6.2c-0.5,1.3-0.6,3.1,1.4,4.7
		c0.3,0.2,0.5,0.4,0.8,0.6l0.6,0.4l0.4,0c0.8,0,1.9-0.1,2.8-1.2l0.3-0.3l0.1-1.2c0-0.5,0.1-1.1,0.1-1.6c0.1-1.3,0.3-2.6,0.4-4
		c0.1-0.9,0.2-1.8,0.3-2.7c0.1-0.9,0.2-1.8,0.3-2.7c0.2-1.8,0.4-3.6,0.6-5.4c0.1-0.6,0.1-1.2,0.2-1.7c0.1-0.9,0.2-1.8,0.3-2.7
		c0.2-1.8,0.5-3.6,0.8-5.4l0.4-2.7c0-0.3,0.1-0.6,0.1-1c0.1-0.7,0.2-1.3,0.3-2c0.3-1.7,0.6-3.3,1-5c0.3-1.5,0.6-3.1,0.9-4.6
		c0.2-1.2,0.4-2.4,0.7-3.6c0.2-1.2,0.4-2.4,0.7-3.7c0.2-0.9,0.4-1.5,0.8-2c0.7-1,0.8-2.2,0.4-3.3c-0.4-1.1-1.4-1.9-2.7-2.2
		c-0.3-0.1-0.7-0.1-1-0.1c-0.9,0-2.2,0.3-3,1.9l-0.2,0.3l0,0.3c0,1.3-0.2,2.5-0.5,3.9c-0.1,0.5-0.2,1-0.3,1.5
		c-0.2,0.9-0.4,1.9-0.6,2.8c-0.2,0.7-0.3,1.4-0.5,2.2c-0.1,0.4-0.1,0.8-0.1,1.1c0,0.2,0,0.4,0,0.6c-0.1,0.8-0.3,1.5-0.4,2.3
		c-0.1,0.6-0.2,1.2-0.3,1.8c-0.1,0.5-0.2,1.1-0.2,1.7c-0.2,1.4-0.4,2.7-0.9,3.8l-0.1,0.3l0,0.3c0.1,0.5,0,1.1-0.2,1.8
		c-0.1,0.7-0.3,1.4-0.3,2.2c0,0.1,0,0.2,0,0.4c0,0-0.1,0-0.1,0c0-0.1-0.1-0.2-0.1-0.3c-0.3-0.7-0.6-1.4-0.8-2.1
		c-0.2-0.8-0.5-1.5-0.7-2.3c-0.3-0.8-0.5-1.6-0.7-2.4c-0.4-1.7-1-3.3-1.5-5c-0.3-1.1-0.7-2.2-1-3.4c-0.1-0.5-0.2-1.1-0.2-1.6
		c0-0.8-0.1-1.5-0.4-2.5l-0.1-0.4L153,18c-0.3-0.2-0.6-0.4-0.9-0.5c-0.4-0.2-0.9-0.4-1.4-0.5c-1.4-0.2-2.5,0.2-3.2,1.1
		c-0.6,0.8-0.8,1.8-0.6,3c0.1,0.5,0.3,0.9,0.5,1.2c0,0.1,0.1,0.2,0.1,0.3c0.1,0.2,0.2,0.4,0.3,0.6c0.2,0.3,0.3,0.6,0.4,0.9
		c0.3,0.8,0.6,1.7,0.9,2.5l0.1,0.4c0.2,0.7,0.5,1.4,0.7,2.2c0.2,0.8,0.5,1.5,0.7,2.3c0.2,0.5,0.3,1,0.5,1.5c0.3,1,0.6,1.9,0.9,2.8
		c0.5,1.8,1.1,3.6,1.8,5.3l0.4,1.2c0.2,0.5,0.3,0.9,0.5,1.4l0.4,1.1l0.2,0.2c0.1,0.1,0.1,0.2,0.2,0.3c0.3,0.4,0.7,0.9,1.3,1.2
		c0.5,0.3,1,0.5,1.4,0.6c0,0.1,0,0.1,0,0.2L158.2,47.9z"/>
	<path d="M77.8,16.2c-0.2-1.9-0.8-2.7-2.5-3.3c-0.5-0.2-1.4-0.4-2.1-0.2l-0.5,0.1c-0.6,0.1-1.2,0.3-1.8,0.5
		c-1.3,0.5-2.8,0.9-4.3,1.1c-1.2,0.1-2.4,0.5-3.8,1.1C61.6,16,61,17.1,61,18.3c0,0.4,0.1,1.3,0.7,2c0.2,0.2,0.3,0.5,0.2,1.3
		c-0.1,0.8-0.2,1.6-0.3,2.4l-0.3,3.2c0,0.1,0,0.2,0,0.3l-0.1,0c0,0.1,0,0.3-0.1,0.4l0.1,0c-0.2,1.5-0.3,3.1-0.5,4.6
		c0,0.1-0.1,0.3-0.1,0.4c-0.7,0.4-1.4,0.9-2,1.6c0-0.1,0.1-0.2,0.1-0.2c0.4-1,0.2-2.1-0.5-3l-0.2-0.3l-0.3-0.1l0,0
		c-0.1,0-0.1,0.1-0.2,0.1c-0.5,0.3-1.2-0.1-1.2-0.7c-0.1-1.6,0.4-3.2,0.6-4.8l0,0c0.1-0.6,0.1-1.1,0.2-1.7c0.1-2.1,0.4-4.8,0.9-7.4
		c0.1-0.5,0.1-1,0.1-1.4l0-0.1c0-0.8-0.4-2-2-2.8c-1.2-0.6-2.5-0.4-3.5,0.7l-0.2,0.2l-0.2,0.7c-0.1,0.4-0.2,0.8-0.3,1.2
		c-0.1,0.4-0.1,0.7-0.2,1.1c0.2,1.2-0.1,2.7-0.2,3.7c-0.1,0.6-0.1,1.2-0.2,1.8c0,0.5,0,1-0.1,1.5l-0.1,0c0,0.4-0.1,0.8-0.1,1.2
		l0.1,0.1c0,0.6-0.1,1.3-0.2,1.9l-0.1,0.1c-0.1,0.9-0.1,1.9-0.1,2.8c0,0,0,0.1,0,0.1c0,0,0,0,0,0c0,0,0,0.1,0,0.3
		c0,0.7,0,1.4-0.1,2.1c0,0.2-0.1,0.4-0.1,0.6c-1.5,0.9-3.5,1.8-5.1,2.4c0-0.2,0-0.3,0-0.5c0.1-3.3,0.5-6.6,0.8-9.9
		c0.1-0.8,0.2-1.5,0.3-2.3c0.1-0.8,0.2-1.4,0.5-1.9c0.2-1.4,0.6-3.1,1.2-4.4l0,0l-0.6-1.3l-2.4-1.4l-2.4,0.7l-0.2,0.3
		c-0.9,1-1.2,2.2-1.4,3c-0.7,2.4-0.9,4.7-1.1,7.1c-0.1,1-0.2,2-0.3,3c-0.1,1.1-0.2,2.1-0.3,3.2l-0.1,0.9c-0.1,1.5-0.2,3,0,4.5l0,0.2
		c0.1,0.7,0.1,1.3-0.1,1.8c-0.6,1.1-0.4,2-0.2,2.9c0.1,0.5,0.3,1.1,0.2,1.5c0,0.6,0,1.1-0.1,1.7c0,1.3-0.1,2.6-0.3,3.8
		c-0.3,1.3,0,2.4,0.7,3.4l0.2,0.2l0.2,0.1c1.9,1.1,3.6,0.9,4.9-0.6l0.3-0.3l0-0.4c0.1-0.9,0-1.8-0.1-2.7c-0.1-0.7-0.1-1.4-0.1-2.1
		c0-1.1,0.1-2.2,0.2-3.4l0-0.7l4.7-1.7c0,0.7,0.1,1.3,0,1.9c-0.1,1.8-0.2,3.5-0.4,5.4c0,0.3-0.1,0.8-0.2,1c-0.8,1.4-0.8,2.9,0,4.4
		l0.1,0.2l0.2,0.2c0.8,0.7,1.6,1,2.7,1l0.2,0c1.5-0.1,2.4-0.8,2.7-2.2c0.1-0.6,0.2-1.3,0.2-1.9l0-0.2c0-0.3,0-0.6,0-1
		c0-0.2,0-0.3,0-0.5c0-0.6,0.1-1.2,0.1-1.8c0.1-1.2,0.1-2.3,0.2-3.5c0-1.3,0.1-2.5,0.1-3.8l0-1.9c0,0,0-0.1,0-0.1
		c0.4-0.1,0.8-0.3,1.1-0.5c0.5-0.2,0.9-0.6,1.2-0.9l0,0.2c-0.3,2,0.8,3.1,1.7,3.8c-0.1,1.3-0.2,2.4-0.9,3.3
		c-0.4,0.6-0.6,1.3-0.8,1.8c-0.1,0.6-0.2,1.2-0.3,1.7l-0.1,0.7l0,0.2c0.2,1.6,1.2,2.4,2,3l0.6,0.5l0.4,0c0.2,0,0.3,0.1,0.5,0.1
		c0.5,0.1,1,0.2,1.5,0.2c0.1,0,0.2,0,0.3,0c2.5-0.1,5.1-0.6,7.8-1.5c0.6-0.2,1.1-0.4,1.5-0.6c1.3-0.7,2-2,2-3.6
		c-0.1-1.6-1.3-2.7-2.9-2.5c-0.5,0.1-0.9,0.2-1.2,0.3L70,42.6c-0.3,0.1-0.6,0.2-0.9,0.3c-1.2,0.4-2.2,0.8-3.4,0.9
		c0-0.3,0-0.7,0.1-1.1l0.1-0.5c0.2-1.6,0.5-3.2,0.7-4.9c0-0.3,0.1-0.5,0.4-0.6c0.6-0.3,1.1-0.7,1.7-1.1c0.8-0.5,1.6-1.1,2.5-1.5
		c1.1-0.6,2.1-1.5,3.1-2.8l0.2-0.2l0.1-0.3c0.4-1.7-0.6-2.4-1.2-2.7l-0.2-0.1l-0.2,0c-1-0.1-1.9,0.1-2.8,0.4
		c-0.6,0.2-1.2,0.5-1.7,0.8l-0.7,0.3c-0.1,0-0.1,0.1-0.2,0.1c0.3-2.3,0.6-4.6,0.9-6.7l0.1-0.9c0.1-0.1,0.2-0.3,0.3-0.4
		c0.3-0.4,0.6-0.8,0.9-1.1c0.1-0.1,0.4-0.4,0.5-0.5c0.4-0.1,0.7-0.3,1.1-0.5c1.5-0.6,2.9-1.3,4.4-1.1l0.5,0.1l0.6-0.5
		c0.2-0.1,0.3-0.3,0.5-0.4c0.2-0.2,0.3-0.4,0.4-0.6l0.2-0.4L77.8,16.2z"/>
	<path d="M64.1,61.9c0.2,0,0.5,0,0.7,0c0.8,0,1.3,0.1,1.9,0.2c1.5,0.4,3,0.2,4.3-0.8l0.3-0.2l0.1-0.3c0.5-1,0.7-2.7-0.8-4.4
		c-0.6-0.8-1.5-1.1-2.5-1.1c-0.4,0-0.8,0-1.2,0.1c-1.7,0.4-3.5,0.5-5.2,0.6c-3.2,0.2-5.8,0.5-8.2,0.9c-0.7,0.1-1.3,0.2-2,0.3
		c-1.2,0.2-2.5,0.4-3.8,0.7c-2.1,0.5-4.2,1-6.2,1.5c-1.1,0.3-2.2,0.6-3.3,0.8c-3,0.7-6,1.4-9,2.2c-1.9,0.4-3.8,0.9-5.7,1.3
		c-0.4,0.1-0.9,0.2-1.4,0.2c-0.5,0-1,0-1.4,0c-0.2,0-0.5,0-0.7,0c-0.1,0-0.3,0-0.4,0c-0.2,0-0.5,0-0.7,0c-0.3,0-1.3,0-2.2,0.8
		l-0.2,0.1l-0.1,0.2c-1.1,2-0.5,3.7,1.6,5.2l0.4,0.2l1-0.1c1.7-0.1,3.4-0.2,5.2-0.6l0.8-0.2c0.6-0.1,1.2-0.3,1.9-0.4
		c0.9-0.2,1.8-0.4,2.6-0.6c1.8-0.4,3.6-0.8,5.3-1.2c1.5-0.4,3-0.8,4.5-1.2c1.9-0.5,3.9-1,5.9-1.5c3.9-0.9,7.7-1.6,11.3-2
		c1.9-0.2,3.9-0.3,5.8-0.4L64.1,61.9z"/>
</g>
</svg>
