<?xml version="1.0" encoding="utf-8"?>
<!-- Generator: Adobe Illustrator 18.1.1, SVG Export Plug-In . SVG Version: 6.00 Build 0)  -->
<svg version="1.1" id="Layer_1" xmlns="http://www.w3.org/2000/svg" xmlns:xlink="http://www.w3.org/1999/xlink" x="0px" y="0px"
	 viewBox="0 0 529.5 59.1" enable-background="new 0 0 529.5 59.1" xml:space="preserve">
<g>
	<path fill="#FFFFFF" d="M197.2,22c-1.2,1.6-2.3,3.3-3.5,4.9c-0.4,0.6-0.9,1.3-1.3,1.9c-1.3,1.7-2.8,3.1-3.8,5
		c-1.3,2.5-3.7,3.6-6.4,4c-1,0.1-2.1-0.3-3.1-0.5c0,0-0.1-0.1-0.1-0.1c-2.2-0.2-3.3-1.6-4.5-3.3c-0.6-0.8-0.8-1.6-0.9-2.4
		c-0.4-2.5-2.1-4.3-3.4-6.4c-0.9-1.4-1.9-2.7-2.9-4.3c-0.2,0.5-0.4,0.7-0.5,1c-1.1,5.1-2.2,10.2-3.4,15.3c-0.7,2.9-1.5,5.7-2.2,8.6
		c-0.3,1.2-0.2,2.6-0.2,3.9c0,0.6,0.1,1.1-0.5,1.6c-0.6,0.6-0.8,1.6-1.2,2.4c-0.5,1.2-1.9,1.7-3.1,1.4c-0.5-0.1-1.1-0.3-1.6-0.3
		c-2.1,0.2-3.1-1.2-4-2.6c-0.3-0.5-0.6-1.1-0.9-1.7c-0.5-1-0.7-2.1-0.3-3.2c0.5-1.6,1.1-3.1,1.5-4.7c0.7-2.5,1.3-5,2-7.6
		c0.7-2.8,1.4-5.6,2.1-8.4c0.4-1.5,0.6-3,0.9-4.5c0.4-2.3,0.8-4.6,1.3-6.9c0.3-1.4,0-2.7-0.3-4c-0.8-3.5,2.7-7,6-7
		c2.1,0,4.1,0.8,6.1,1.4c0.5,0.2,1,0.9,1.3,1.5c1.6,3.4,3.5,6.6,5.6,9.7c1.9,2.7,3.6,5.5,5.6,8.5c0.7-0.6,1.3-1,1.7-1.6
		c3.3-3.7,5.8-7.9,8.2-12.1c0.4-0.6,0.5-1.5,0.5-2.2c0.1-1.4,0.3-2.6,1.9-3.1c0.2-0.1,0.4-0.3,0.6-0.5c1.3-1.4,3.2-1.6,4.8-1.6
		c1.7,0,3.3,0.8,4.9,1.3c1.1,0.4,1.4,1.4,1.6,2.5c0.5,3.3,1.1,6.5,1.6,9.8c0.4,2.4,0.7,4.8,1.1,7.2c0.4,3.1,0.8,6.1,1.2,9.2
		c0.2,1.6,0.7,3.2,1,4.7c0.2,0.9,0.4,1.8,0.7,2.7c0.3,0.7,0.6,1.5,1,2.1c0.8,1.1,0.9,2.2,0.2,3.4c-0.5,0.8-0.9,1.6-1.3,2.3
		c-0.6,0.9-1.4,1.2-2.4,0.9c-0.4-0.1-1,0.1-1.4,0.1c-0.3,0-0.6,0.3-0.8,0.2c-1.1-0.7-2.4-0.7-3.4-1.5c-1.9-1.4-2.1-3.5-2.2-5.6
		c-0.1-1.1-0.4-2.2-0.6-3.3c-0.6-4.2-1.3-8.4-1.9-12.6c-0.3-1.9-0.7-3.9-1-5.8C197.4,22.1,197.3,22.1,197.2,22z"/>
	<path fill="#FFFFFF" d="M77.9,31.7c-4.3-0.6-8.4,0.1-12.7,0.6c0,0.7,0,1.3,0,2c0.1,1.7,0.1,3.5,0.3,5.2c0.1,1.5,0.4,3,0.7,4.5
		c0.3,1.3-0.4,2.1-1,3.1c-0.7,1.2-1.7,1.8-3.1,1.1c-0.1,0-0.2-0.1-0.3,0c-2.2,0.9-3.5-1-5-1.9c-0.8-0.5-1.3-2.1-1.4-3.3
		c-0.2-1.4,0-2.9,0.1-4.4c0-1.8,0-3.7,0-5.6c-0.6,0-1.1-0.1-1.5,0c-1.7,0.3-3.4,0-5.1-0.3c-0.3-0.1-0.8-0.4-0.8-0.6
		c-0.2-1-0.4-2.1-0.3-3.1c0-0.4,0.7-0.9,1.2-1.1c1.2-0.4,2.4-0.7,3.6-1.1c0.9-0.2,1.7-0.4,2.8-0.6c0-0.2,0.1-0.6,0.1-0.9
		c0.1-4.6,0.1-9.3,0.2-13.9c0-2.1,0-4.2,0.1-6.3c0.1-2,0.9-2.8,3.1-3c0.9-0.1,1.6-0.1,2.5,0.5c0.6,0.5,1.7,0.5,2.5,0.8
		c0.6,0.2,1.2,0.2,1.6,0.5c0.6,0.4,1,0.9,0.9,1.8c-0.3,3-0.6,6.1-0.8,9.2c-0.2,3.1-0.2,6.3-0.3,9.4c0,0.2,0.1,0.5,0.2,0.8
		c1.8-0.2,3.5-0.5,5.2-0.7c2.5-0.3,5.1-0.5,7.6-0.9c0.3,0,0.7-0.4,0.7-0.7c0.3-2.4,0.6-4.7,0.9-7.1c0.4-3.2,0.7-6.4,1.1-9.5
		c0.2-1.6,0.9-2.1,2.4-2.3c0.3,0,0.6-0.2,0.9-0.3c0.5-0.1,1.2-0.3,1.4-0.1c1.3,1.1,3,0.9,4.5,1.4c1.1,0.4,1.6,1,1.5,2.1
		c-0.1,1.6-0.4,3.2-0.6,4.8c-0.2,1.6-0.5,3.1-0.7,4.7c-0.2,1.6-0.4,3.3-0.6,4.9c-0.1,1.2-0.1,2.3-0.1,3.5c0,3.9,0.1,7.7,0.2,11.6
		c0.1,3,0.3,5.9,0.4,8.9c0.1,1.8,0.5,3.4,1.1,5.1c0.2,0.6,0.4,1.2,0.5,1.8c0.3,1.9-1.4,4.4-3.2,4.8c-0.2,0.1-0.5,0-0.8-0.1
		c-0.4-0.1-0.8-0.2-1.2-0.2c-2.5,0.2-4.4-1-5.7-3c-0.4-0.6-0.4-1.6-0.5-2.4c0-2,0-3.9,0.1-5.9c0-1-0.3-1.7-1.4-1.9
		c-1.1-0.2-2.3-2.8-2.1-4.2c0.3-2.2,0.6-4.5,0.9-6.8C78,32.1,78,31.9,77.9,31.7z"/>
	<path fill="#FFFFFF" d="M487.9,50.8c-1-0.4-1.9-0.9-2.9-1.2c-1.6-0.4-2.3-1.6-2.9-2.9c-0.7-1.5-1.4-3-2.2-4.4
		c-1.2-2.1-2.6-4.1-3.9-6.1c-0.7-1-1.3-2.1-1.9-3.1c-0.1-0.2-0.4-0.2-0.8-0.5c0,0.7,0,1.3-0.1,1.8c-0.4,2.4-0.5,4.7-0.4,7.1
		c0.1,2-1.1,3.7-2.4,5.1c-0.1,0.1-0.2,0.2-0.4,0.2c-1.5,0.2-3,0.8-4.5,0c-1.1-0.6-2.2-1.2-3-2.2c-0.9-1.3-1-2.8-0.8-4.2
		c0.3-3.7,0.8-7.3,1.1-11c0.4-4.7,0.7-9.4,1-14.1c0.1-0.8-0.2-1.2-1-1.3c-0.4-0.1-0.8-0.2-1.2-0.2c-1.4,0.3-2.6-0.1-3.6-1.2
		c-1.1-1.3-2.5-2.5-2.8-4.3c-0.2-1.3,0.1-2.8,1.4-3.3c1.1-0.4,2-1.4,3.5-0.8c0.9,0.4,2.1,0,3.2,0c2.4-0.1,4.7-0.2,7.1-0.2
		c2.9-0.1,5.8-0.1,8.7-0.2c0.9,0,1.8-0.3,2.7-0.6c0.9-0.3,1.7-0.4,2.5,0.3c0.3,0.3,0.9,0.3,1.4,0.3c1.6-0.1,2.9,0.5,4.2,1.2
		c0.6,0.3,1,0.8,1,1.6c0.1,1,0.6,2.1,0.7,3.1c0.1,1.4-0.1,2.8-0.4,4.1c-1,4.7-4,8.1-7.8,10.9c-0.3,0.2-0.6,0.4-0.8,0.7
		c-1,1-1.1,1.2-0.3,2.4c1.9,3.2,3.8,6.3,5.8,9.4c1.1,1.8,2.3,3.7,3.4,5.5c0.3,0.4,0.7,0.7,1,1c1.5,1.1,1.7,2.4,0.7,4
		c-0.2,0.3-0.3,0.7-0.5,1.1c-0.5,1.5-1.5,2.1-3.2,2C489.1,50.5,488.5,50.7,487.9,50.8z M480.7,12.1c0-0.8-0.7-1.4-1.5-1.3
		c-0.4,0-0.9,0.2-1.3,0.2c-1.3,0.2-1.9,0.9-1.8,2.2c0,0.3-0.1,0.6-0.2,0.8c-0.4,1-0.7,2-1.1,3c-0.3,0.8,0.2,1.3,0.7,1.5
		c0.4,0.2,1.1,0,1.6-0.2c0.3-0.1,0.6-0.5,0.9-0.8C479.4,16,480.6,14.3,480.7,12.1z"/>
	<path fill="#FFFFFF" d="M269.9,33.7c0.3,1.7,0.4,3,0.7,4.4c0.3,1.6,0.6,3.3,1,4.9c0.1,0.6,0.5,1.2,0.7,1.8c0.4,1.1,0.8,2.1,0.1,3.2
		c-0.5,0.7-0.9,1.5-1.5,2.3c-0.4,0.6-1,1-1.8,1c-0.7,0-1.4,0.2-2.1,0.3c-0.3,0-0.7,0.2-0.8,0c-1-0.9-2.4-0.7-3.4-1.4
		c-1.3-0.9-2.4-2.3-2.1-3.8c0.5-2.7-0.2-5.2-0.6-7.7c-0.6-3.9-1.3-7.9-2-11.8c-0.5-2.7-1.3-5.3-1.6-8.1c-0.3-2.2-1.6-4-2.3-6
		c-0.5-1.4-0.2-2.1,0.9-3c1.2-1,2.6-1,4-0.9c0.7,0.1,1.5,0,2.2,0c1.2,0.1,2.4,0.2,3.6,0.6c0.4,0.1,0.8,0.8,1,1.4
		c0.3,0.9,0.3,1.9,0.5,2.9c0.5,3.1,1,6.1,1.6,9.2c0.1,0.9,0.4,1.8,0.4,2.6c0.1,0.7,0.4,1,1,1c2.7,0.1,5.4,0.1,8-0.5
		c0.8-0.2,1-0.7,0.9-1.4c-0.4-3.3-0.7-6.5-1.8-9.6c-0.5-1.3-0.7-2.7,0.2-4.1c0.6-0.8,2.4-1.7,3.2-1.4c1.6,0.7,3.4,0.3,5,0.4
		c1.9,0.1,2.5,0.6,2.7,2.5c0.5,4.5,1,8.9,1.6,13.4c0.4,3.4,0.9,6.9,1.4,10.3c0.4,2.4,0.8,4.7,1.3,7c0,0.1,0,0.3,0.1,0.4
		c1.1,1.7,0.2,3.2-0.4,4.7c-0.1,0.3-0.3,0.6-0.5,0.9c-0.5,0.8-1.1,1.4-2.2,1.2c-0.9-0.1-1.9,0.3-2.7,0.1c-1.9-0.5-4-0.9-5.1-3
		c-0.2-0.4-0.3-0.9-0.5-1.4c-0.1-0.3,0-0.6-0.1-0.8c-0.5-1.3-0.5-2.6-0.2-4c0.3-1.4-0.2-3-0.4-4.5c0-0.1-0.1-0.2-0.1-0.4
		c-0.6-2.6-0.6-2.6-3.1-2.7C274.5,33.6,272.3,33.7,269.9,33.7z"/>
	<path fill="#FFFFFF" d="M106.7,31.3c0,0.7-0.1,1.4,0,2.1c0.2,2.2,0.5,4.4,0.7,6.6c0.1,1.1,0.5,1.4,1.5,1.4c2.6,0.1,5.1,0.3,7.7,0.3
		c1.9,0,3.7-0.3,5.6-0.4c0.3,0,0.6-0.1,0.8,0c1.7,1,3.5,2,5.2,3c0.3,0.2,0.5,0.6,0.5,0.9c0.1,1.6-1.1,3.4-2.7,3.7
		c-1.6,0.3-3.3,0.3-4.9,0.3c-2.5,0-5-0.1-7.5-0.2c-1.1,0-2.2,0.2-3.3,0.2c-1.3,0-2.3,0.6-3.1,1.4c-0.8,0.7-1.6,0.7-2.5,0.6
		c-0.3,0-0.5-0.3-0.8-0.2c-2.4,0.6-3.7-1.2-5.2-2.4c-1.6-1.2-1.8-3.1-2-5c0-0.2,0.1-0.4,0.1-0.5c0.9-1.4,1-2.8,0.8-4.4
		c-0.2-1.9-0.6-3.8-0.6-5.8c0-1.4-0.8-2.1-1.7-2.8c-1.2-1.1-1.8-3.2-1.4-4.7c0.2-0.7,0.5-1,1.1-1.2c1.2-0.3,1.4-0.8,1.4-2
		c0-3,0-5.9,0-8.9c0-0.6-0.2-1.1-0.3-1.7c-0.1-0.5-0.2-1.1-0.3-1.6c-0.1-0.3-0.1-0.7-0.3-1c-0.5-0.9-0.2-4.2,0.6-4.7
		c0.9-0.5,1.9-0.8,3-1c0.8-0.1,1.7,0.1,2.6,0.1c1,0,2-0.1,3.1,0c4.3,0.5,8.5-0.3,12.7-0.4c2.8-0.1,5.6-0.6,8.4-0.8
		c1.3-0.1,2.5,0.1,3.6,1c1.1,0.8,2.5,1.2,3.7,1.7c0.7,0.3,1,0.6,0.8,1.4c-0.2,0.5-0.3,1.1-0.5,1.7c-0.5,1.6-1.5,2.3-3.2,2.3
		c-0.3,0-0.6-0.1-0.8,0c-1,0.5-1.9,0.3-2.7-0.1c-1.6-0.8-3.3-0.3-4.9-0.1c-2.6,0.3-5.2,0.6-7.8,0.9c-1.4,0.2-2.8,0.3-4.2,0.4
		c-2,0.2-3.2,1.3-3.3,3.3c-0.1,1.7-0.1,3.4-0.1,5.1c0,1.1,0,2.2,0,3.4c1.3-0.1,2.5-0.2,3.7-0.3c3-0.4,6-0.5,8.8,1
		c0.6,0.3,1.5,0.3,2.2,0.5c1.2,0.3,2.1,2.2,1.5,3.3c-0.2,0.3-0.6,0.5-1,0.6c-2.6,0.6-5.2,1.2-7.7,1.8c-1.6,0.4-3.2,0.7-4.9,1
		C108.2,31.2,107.5,31.2,106.7,31.3z"/>
	<path fill="#FFFFFF" d="M312.3,36.5c-1.6,0-3.1,0-4.7,0c-0.9,0-1.3,0.4-1.6,1.2c-0.7,2.3-1.8,4.6-1.9,7.1c0,0.9-0.3,1.8-0.6,2.6
		c-0.2,0.8-1.6,1.5-2.5,1.4c-0.3-0.1-0.6-0.1-0.9,0c-2.9,0.5-4.3-0.3-6-2.7c-1.5-2.1-0.9-3.9-0.1-5.9c0.7-1.7,1.4-3.3,2.1-5
		c0.1-0.4,0-0.9,0-1.3c-0.1-0.9,0-1.7,0.9-2.2c0.4-0.3,0.8-0.8,1-1.3c0.7-2,1.4-4,2.1-6c1.4-4.6,2.8-9.2,4.1-13.8
		c0.2-0.7,0.1-1.5,0-2.3c-0.1-1.3,0.2-1.9,1.3-2.5c0.4-0.2,0.8-0.4,1-0.8c0.9-1.3,2.2-2,3.6-2.8c0.3-0.2,0.9-0.3,1.2-0.2
		c1.2,0.9,2.7,0.6,4,0.8c2.1,0.3,2.6,0.7,3.2,2.6c0.4,1.3,0.9,2.5,1.4,3.8c0.9,2.6,1.8,5.2,2.7,7.8c0.7,2.1,1.1,4.3,2.1,6.2
		c1.5,3.1,1.9,6.5,3.1,9.7c0.8,2,1.6,4.1,2.4,6.1c0.1,0.4,0.4,0.8,0.7,1c0.9,0.6,1,1.4,1,2.3c-0.1,1.7-0.8,3.2-2,4.4
		c-0.1,0.1-0.2,0.2-0.3,0.3c-1,0.2-2,0.5-3,0.5c-0.8,0-1.6-0.3-2.4-0.5c-2.6-0.6-3.6-2.1-4-4.8c-0.2-1.6-1.1-3.2-1.8-4.7
		c-0.2-0.4-1-0.7-1.6-0.8C315.1,36.6,313.7,36.6,312.3,36.5C312.3,36.5,312.3,36.5,312.3,36.5z M309.2,28.9c0.9,0.8,4.4,0.7,6.6-0.2
		c-1.1-3.1-1.6-6.4-3.5-9.6C311.2,22.5,310.3,25.7,309.2,28.9z"/>
	<path fill="#FFFFFF" d="M432.2,46.4c-2.4-0.4-4.7-0.6-6.8-1.3c-1.9-0.6-3.7-1.7-5.4-2.9c-1-0.7-1.7-2.1-2.4-3.2
		c-0.7-1.3-1.4-2.6-1.9-4c-1.3-4.1-1.4-8.2,0.5-12.2c1.5-3.2,3.4-6.2,5.8-8.8c2.5-2.8,5.6-4.9,9-6.4c2.1-0.9,4.2-1.8,6.5-2
		c0.9-0.1,1.9-0.2,2.8-0.1c1.3,0.1,2.6,0.2,4,0c1.1-0.2,2.4,0.4,3.6,0.8c1.4,0.4,2.7,1,3.3,2.5c0.3,0.7,0.5,1.3,0.9,1.9
		c0.7,0.9,1.6,1.7,2.3,2.6c1.3,1.9,2.6,3.9,3.7,5.9c1,1.7,0.9,3.6,0.7,5.5c-0.4,3.9-2.3,7.2-4.6,10.2c-2.1,2.7-4.8,4.9-7.9,6.5
		c-2.4,1.3-4.8,2.6-7.4,3.5C436.9,45.8,434.4,46,432.2,46.4z M431.1,39.7c0.5-0.1,0.9-0.2,1.4-0.2c2.6-0.4,4.9-1.7,7.2-3
		c3.2-1.9,6-4.2,7.7-7.7c1.1-2.2,1.9-4.4,0.8-6.8c-0.4-1-1-1.9-1.6-2.8c-0.6-0.9-1.2-1.7-1.8-2.6c-1-1.4-2.1-1.9-3.9-1.4
		c-0.9,0.2-1.8,0.4-2.7,0.5c-0.5,0-1.1,0.2-1.5-0.5c-0.3-0.6-1.1-0.7-1.7-0.3c-0.6,0.3-1.3,0.7-1.8,1.1c-2.9,2.6-5.1,5.7-6.8,9.2
		c-2.2,4.7-1.1,8.9,1.6,12.9C428.6,39.1,429.6,40.2,431.1,39.7z"/>
	<path fill="#FFFFFF" d="M241.4,41.6c-1.1,0.8-1.9,0.6-2.8,0.1c-0.5-0.3-1.3-0.3-2-0.3c-2.4,0-4.8,0.2-7.2,0.3
		c-1.7,0.1-2.5,0.6-2.5,2.2c0,1.6-1,2.6-1.8,3.8c-0.2,0.2-0.5,0.3-0.8,0.4c-2.5,0.9-4.7-0.1-6.8-1.1c-0.5-0.2-0.7-0.9-1-1.3
		c-0.3-0.5-0.4-1.1-0.7-1.6c-0.9-1.3-0.4-2.3,0.3-3.5c1.2-1.9,2.4-3.8,3.4-5.8c1.2-2.2,2.3-4.5,3.2-6.8c1.2-3.3,2.2-6.7,3.3-10.1
		c0-0.1,0.1-0.3,0.1-0.4c-0.1-1.8,0.5-3.3,1.4-4.8c0.4-0.7,0.1-1.8,1.1-2.1c1.4-0.4,2.8-1.5,4.5-0.5c0.3,0.2,0.9,0,1.3-0.1
		c1.7-0.4,4,0.6,4.7,2.2c0.9,2,1.7,3.9,2.6,5.9c1.4,3.2,2.8,6.4,4.3,9.6c1.3,2.8,2.8,5.5,4,8.2c0.7,1.6,1.2,3.4,1.9,5
		c0.4,1,1,2,1.4,3c0.7,1.8,1.4,3.6,2.2,5.4c0.6,1.3,1.4,2.5,2.1,3.7c0.2,0.4,0.5,1,0.4,1.4c-0.3,1.6-1.2,2.9-2.3,4.2
		c-0.1,0.1-0.3,0.3-0.5,0.3c-2.1,0-4.4,0.7-6.4-0.4c-0.6-0.3-1-1.2-1.6-1.6c-0.8-0.5-1.4-1.2-1.5-2.1c-0.2-1.9-1.7-3.5-1.3-5.5
		c0-0.2,0-0.4-0.1-0.5C243.3,46.5,242.4,44.1,241.4,41.6z M237.7,33.7c-1.1-2.4-2.2-4.7-3.4-7.2c-1.1,2.8-2.1,5.3-3.1,8
		C233.4,34.9,235.4,34.1,237.7,33.7z"/>
	<path fill="#FFFFFF" d="M513.7,20.2c0.5-1.7,1-3.1,1.3-4.5c0.8-3,1.6-6,2.4-9c0.2-0.7,0.1-1.4,0.2-2.1c0.2-1.1,0.6-1.8,1.8-2.3
		c2.9-1.2,5.7-0.3,8.6-0.1c0.5,0,1.1,1,1.3,1.6c0.5,1.5-0.1,3-0.8,4.3c-1.9,3.7-2.8,7.7-4.1,11.6c-2.1,6.7-3.3,13.5-4.5,20.4
		c-0.5,2.8-0.8,5.6-1.3,8.4c-0.3,1.9-0.7,3.8-1.2,5.7c-0.3,0.8-1,1.6-1.6,2.3c-0.1,0.2-0.5,0.3-0.7,0.3c-1-0.2-1.8,0.1-2.2,1
		c-1.3,0.2-2.2-1.7-3.5-0.4c-0.6-0.5-1-1.1-1.7-1.5c-1.1-0.6-1.3-1.8-1.6-2.8c-0.1-0.3,0-0.7,0.1-1c1.4-2.9,1.9-6,2.5-9.2
		c0.4-2.2,0.9-4.3,1.4-6.5c0.3-1.4,0.4-2.7,0.6-4.1c-2-0.5-3.2-1.8-3.7-3.5c-0.8-2.5-2.2-4.6-3.5-6.8c-1.8-3-3.6-5.9-5.5-8.8
		c-0.8-1.2-1.5-2.4-2.2-3.7c-0.7-1.2-1.5-2.4-1.6-3.9c-0.1-1.2,0.5-2.8,1.5-2.9c1.3-0.1,2.7-0.7,4.1,0.1c0.3,0.2,0.8,0.1,1.2,0.1
		c1,0.1,2,0.1,3,0.3c0.4,0.1,0.7,0.5,0.9,0.9c0.7,1.4,1.2,3,1.9,4.4c1.6,3,3.3,5.9,4.9,8.8C512.3,18.3,512.9,19.1,513.7,20.2z"/>
	<path fill="#FFFFFF" d="M367.7,1.9c2.3,0,4.6-0.1,6.8,0c1.1,0.1,2.2,0.4,3.3,0.7c1.2,0.3,2.4,0.6,3.6,1c2,0.7,2.6,2.1,1.8,4
		c-0.2,0.5-0.4,1.1-0.6,1.6c-0.5,1.2-1.1,2.3-2.8,2.4c-1.1,0.1-2.2,0.5-3.3,0.7c-0.6,0.1-1.1-0.1-1.6-0.6c-1.4-1.6-3.2-2.2-5.3-2
		c-1.9,0.2-3.8,0.2-5.7,0.6c-1.5,0.3-3.1,0.6-4.3,1.9c-0.6,0.6-0.6,1.1,0,1.6c0.8,0.7,1.7,1.4,2.6,2.1c0.9,0.7,1.8,1.5,2.7,2.2
		c2.5,1.8,5.3,3,8,4.3c4.4,2.1,8.4,4.8,11.9,8.2c2,1.9,3.2,4.2,4.1,6.8c0.7,1.9,0.7,3.8,0.1,5.7c-0.3,0.9-1,1.9-1.9,2.3
		c-1.4,0.7-3.1,1-4.7,1.3c-2.1,0.3-4.2,0.4-6.2,0.8c-2.3,0.4-4.6,0.4-6.8,0.1c-2.6-0.3-5.1-0.9-7.7-1.3c-2-0.3-3.2-1.6-4.2-3.2
		c-0.7-1.1-0.3-1.7,1-1.7c3,0,6.1-0.2,9.1,0c2.1,0.1,4.2,0.3,6.3,0c1.2-0.2,2.5-0.5,3.7-0.8c1.1-0.3,1.4-0.9,1.2-2
		c-0.3-1.5-0.8-2.9-1.9-4c-1.3-1.4-2.7-2.6-4.2-3.8c-3-2.2-6.3-3.6-9.6-5c-4.1-1.8-8-3.8-11.3-6.9c-1-1-2.4-1.4-3-2.8
		c-0.4-1-1.1-2-1.4-3c-0.4-1.6,0.3-3.2,1.3-4.2c1.5-1.5,3.2-2.8,5-3.8c1.4-0.8,3-1.2,4.6-1.6C361.4,2.7,364.5,1.9,367.7,1.9z"/>
	<path fill="#FFFFFF" d="M18,7.9c-3.8,0.7-7.3,1.6-10.8,1.9c-1.6,0.1-3.5,0-5-1.4C1,7.3,0.2,6.1,0,4.4c-0.1-0.7,0.2-1.2,0.9-1.3
		c2.7-0.5,5.5-0.9,8.2-1.3c0.9-0.1,1.9-0.3,2.8-0.4c1.8-0.2,3.6-0.4,5.5-0.7c0.3,0,0.7,0,0.9-0.2c1.7-0.9,3.4-0.5,5.1-0.4
		c2.4,0.1,4.8,0.2,7.3,0.2c2.5,0,4.9-0.1,7.4-0.2c1.7-0.1,3.3-0.2,5-0.2c2-0.1,4-0.2,5.9,0.9c0.8,0.5,1.9,0.5,2.8,0.7
		c1,0.2,1.3,0.9,1.3,1.8c0,0.8-0.1,1.5-0.2,2.3c-0.1,1.3-0.4,1.7-1.7,1.9c-0.9,0.2-1.8,0.3-2.7,0.4c-0.4,0-0.8-0.1-1.2-0.2
		c-0.9-0.2-1.8-0.5-2.7-0.5c-2.8-0.1-5.6-0.1-8.3-0.1c-2.4,0-4.8,0.1-7.2,0.1c-0.7,0-1,0.3-1,1c0,2-0.1,4-0.1,6.1
		c0,3.3-0.1,6.6,0,9.8c0,3.1,0.1,6.3,0.3,9.4c0.2,3.5,0.7,6.9,1,10.3c0.1,0.6,0.2,1.1,0.3,1.7c0.2,1.5-0.7,2.6-1.4,3.8
		c-0.1,0.1-0.3,0.3-0.4,0.3c-1.3-0.1-2.6-0.1-3.9-0.5c-1.2-0.4-2.3-1.1-3.4-1.8c-0.4-0.3-0.9-0.8-0.9-1.3c-0.2-1.5-0.3-3.1-0.4-4.7
		c-0.2-2.8-0.4-5.7-0.5-8.5c-0.1-2.4-0.3-4.7-0.3-7.1c-0.1-5.4-0.2-10.7-0.3-16.1C18.2,9.3,18.1,8.8,18,7.9z"/>
	<path fill="#FFFFFF" d="M417.6,0.8c2,0.2,4.1,0.5,6.1,0.5c1.1,0,2.2,0,3.3,0.5c0.9,0.4,1.3,1,1.3,2c0.1,2-0.7,3.5-2.5,4.3
		c-1.7,0.8-3.6,1.1-5.6,0.9c-2.4-0.3-4.8-0.8-7.2-0.5c-1.4,0.2-2.8,0.5-4.2,0.7c-0.7,0.1-0.9,0.5-1,1.1c-0.1,0.8-0.2,1.5-0.2,2.3
		c0.2,4,0.5,8.1,0.6,12.1c0.1,3,0,6-0.2,9c-0.1,2.5-0.5,5-0.7,7.5c-0.1,0.8-0.1,1.5-0.1,2.3c0.2,1.8-0.3,3.4-1.2,4.8
		c-0.3,0.5-0.9,1.1-1.5,1.2c-1.2,0.3-2.5,0.7-3.6,0.4c-1.1-0.3-2.2-1.1-3.1-2c-1.6-1.4-1.9-3.2-1.6-5c0.8-4.9,1.5-9.9,1.5-14.9
		c-0.1-3.6-0.3-7.2-0.5-10.8c0-0.8-0.1-1.6-0.1-2.4c0-0.3,0-0.5,0-0.8c-0.3-2-1.4-2.7-3.2-1.9c-1.8,0.8-3.7,0.8-5.6,0.8
		c-1.2,0-3.9-2.3-4.1-3.5c-0.2-1.2,0.8-2.4,2-2.7c0.9-0.2,1.7-0.7,2.6-0.9c1.8-0.5,3.7-1.2,5.6-1.5c3.9-0.8,7.7-1.5,11.6-2.1
		c2.2-0.4,4.4-0.6,6.6-0.8c1.6-0.2,3.3-0.3,5-0.5C417.6,0.9,417.6,0.9,417.6,0.8z"/>
	<path fill="#FFFFFF" d="M373,12.6c0.2,0,0.3,0,0.5,0.1c0.1,0,0.2,0.1,0.5,0.3c-0.4,0.1-0.6,0.1-0.7,0.1c-0.1,0-0.3-0.2-0.4-0.3
		C373,12.7,373,12.6,373,12.6z"/>
</g>
</svg>
