<?xml version="1.0" encoding="utf-8"?>
<!-- Generator: Adobe Illustrator 18.1.1, SVG Export Plug-In . SVG Version: 6.00 Build 0)  -->
<svg version="1.1" id="Layer_1" xmlns="http://www.w3.org/2000/svg" xmlns:xlink="http://www.w3.org/1999/xlink" x="0px" y="0px"
	 viewBox="0 0 972 100.3" enable-background="new 0 0 972 100.3" xml:space="preserve">
<g>
	<path fill="#F0594A" d="M716.7,68.7c7.5,2.6,14.7,5,21.8,7.7c8.4,3.2,16.5,6.9,24.9,10c1.5,0.5,4.5-0.3,5.3-1.5
		c1.3-1.9,2.4-4.9,1.8-7c-0.7-2.6-2.6-5.6-4.9-6.9c-6.7-3.8-13.8-7.1-20.9-10.2c-6.1-2.7-12.4-5.1-19.9-8.1c2.3-0.9,3.1-1.3,3.9-1.6
		c9-2.8,18-5.3,26.9-8.6c4.9-1.8,10-4,10.8-10.4c0.7-6.2-2-10.4-6.7-14c-14.9-11.6-31.4-18.8-50.5-18c-5.5,0.2-10.7,2.4-13.2,7.6
		c-8.3-0.4-16.4-1.2-24.6-1c-8.4,0.3-16.8,1.1-25,2.6c-11.7,2.1-23.3,5-33.1,12.4c-3,2.3-4.6,5.8-2.8,8.3c4.8,6.6-0.2,12.1-0.4,17.6
		c-10.6-4.4-21-8.7-31.4-13.1c-1.9-0.8-3.6-2-5.4-3.1c8.9-4.4,17.2-8.3,26.7-5.8c4,1,8.3-2.6,8.3-6.7c0-8.2-5.4-13.5-13.7-13.1
		c-4.6,0.2-9.1,0.9-13.6,1.4c-9.3,0.8-16.9,5.6-24.3,10.6c-1.1,0.8-2,2.3-2.4,3.7c-1.7,5.8,0.2,11.3,3.3,16c5,7.5,12.5,11.8,21,14.6
		c2.6,0.9,5.1,2.1,7.7,3.2c-0.1,0.4-0.1,0.8-0.2,1.2c-7.2,3-14.4,6-21.6,8.9c-2.1-5.5-4.5-6.9-7.9-5.3c-2.5,1.2-4.9,2.5-7.2,4
		c-8.4,5.6-9.9,9.6-6.6,16.8c2.3,4.8,8.3,8.2,12.7,7c15.6-4,31.4-7.6,45.5-16c3.4-2,6.8-4.2,10.3-6.4c3.1,8.4,8.3,14.7,15.8,19
		c10.9,6.3,22.8,6.3,34.7,4.6c5.2-0.7,10.9-1.2,14.7-6.2c3.8-4.8,3.9-8.5-0.3-12.9c-4.5-4.6-9.1-5-13.4-1.2c-0.6,0.5-1.2,1-2,1.1
		c-8.2,1.7-16.4,2.4-24.4-0.4c-7.6-2.6-9.9-8.3-7-15.4c4,0.5,7.8,1.3,11.7,1.4c3.2,0.1,6.3-0.6,9.5-0.7c8.2-0.4,16.6,0.1,24.6-1.1
		c9.4-1.4,13-5.3,7.7-13.5c-1.6-2.5-6.5-4.1-9.9-4.2c-11.9-0.3-23.8,0.3-35.7,0.5c-1.7,0-3.3-0.6-5-0.9c0-0.6,0-1.2,0-1.8
		c5.1-1.7,10.1-4.1,15.3-5.1c11.6-2.2,23.4-3.5,35-5.6c5.6-1,12.8-0.1,14.1-9c1.8,1.7,3.1,2.8,4,3.6c-2.2,1.7-4.8,2.9-6.1,4.9
		c-1.2,1.9-1.1,4.7-1.1,7.1c-0.1,4.7,0.2,9.4,0.3,14.2c0.1,3.5-0.4,7.2,0.5,10.5c1.8,6.6,3.2,13,0.8,19.7c-0.3,0.8,0.1,2.3,0.7,2.9
		c2.8,2.6,5.6,5.5,8.8,7.4c3,1.8,7.2-0.3,8.3-3.8C714.6,76.9,715.5,73,716.7,68.7z M923,37.8c3-0.6,5.2-1.2,7.4-1.4
		c10.7-1.2,21.5-3.1,31.7,2.6c1.1,0.6,3,0.5,4.2-0.1c3.6-1.6,6-4.3,5.6-8.5c-0.4-4.5-4.9-9.8-9.2-10.3c-7.2-0.8-14.6-2-21.8-1.5
		c-12.5,0.9-25,3-37.5,4.8c-3.3,0.5-6.3,2.5-8-2.2c-0.2-0.7-1.5-1.1-2.3-1.3c-3.9-1.2-7.9-2.6-11.9-3.3c-17.1-3-34.3-3.7-51.5-2.2
		c-5.2,0.4-10.4,2.3-15.4,4.2c-5.8,2.2-7.8,8.7-3.8,11.9c4.9,3.9,5.8,9.3,6.2,14.6c1,12.8,3.1,25.1,11.3,35.6
		c6.3,8.1,14.7,11.5,24.6,10.7c6.9-0.5,13.8-1.9,20.6-3.5c6.2-1.4,9.7-6.1,11.6-11.8c1-3.1-3.2-10.5-6.9-12.8
		c-3.7-2.3-6.8-1.1-8.7,3c-0.9,1.9-2.6,4.1-4.4,4.7c-4.6,1.5-9.4,2.8-14.2,3.2c-7.9,0.7-12.5-4.5-12.2-13.3c1.1-0.1,2.3-0.3,3.5-0.3
		c7.6,0,15.2,0.4,22.8,0.1c2.7-0.1,5.9-1,7.9-2.7c3.7-3.2,1.2-10.6-4.2-11.6c-9.1-1.6-18.4-2.3-27.6-3.2c-4.8-0.5-8.4-5.6-6.7-10
		c0.3-0.8,1.5-1.6,2.3-1.6c8.1-0.1,16.2-0.3,24.2-0.1c10.4,0.3,20.9,1,31.6,1.6c0.6,7.6,5.6,12.2,12.3,15.3
		c4.4,2.1,9.1,3.5,13.5,5.7c6.8,3.3,13.5,6.9,20.6,10.5c-1,1.2-1.3,1.7-1.6,1.8c-6.2,1.2-12.5,2.3-18.8,3.6c-4.2,0.9-9.5-0.8-11.7,5
		c-2.4,6.5,4.7,16.5,13.1,14.2c2.5-0.7,5.1-0.8,7.6-1.4c9.9-2.3,19.9-4.4,29.7-7.2c5.7-1.6,8.3-9.2,4.5-13.6
		c-5-5.9-10.4-11.6-16.5-16.2C938.6,45.6,930.9,42.2,923,37.8z M29.1,47.1c1-1.5,1.2-2,1.5-2.2c7.7-4,15.3-8.4,23.3-11.7
		c7.9-3.3,15.6-7.5,24.9-6.5c4.5,0.5,8.7-5.1,7.6-8.8c-2.2-7.1-9.6-12.4-17.7-10.4C46,13,26.1,24.7,6.1,36.1
		c-3.2,1.8-6.5,4.3-6.1,8.5c0.5,6,2.4,11.6,8.3,14.9c8.9,5,18.6,5.2,28.5,5.1c7.8-0.1,15.7,0.7,23.5,1.1c0.1,0.7,0.3,1.4,0.4,2.1
		c-5.1,1.9-10.2,3.9-15.4,5.8c-1.4,0.5-3.2,0.7-4.2,1.6c-5.3,5.7-12.6,5.4-19.4,6.8c-1.3,0.3-3,0.5-3.6,1.4
		c-3.5,4.8,0.3,8.7,2.2,12.6c0.9,1.8,3.3,2.9,5.1,4.2c0.4,0.3,1.2,0.1,1.8,0c3.2-0.4,6.5-0.4,9.5-1.4c8.8-2.8,17.7-5.5,26-9.3
		c7.3-3.4,14.3-7.7,20.5-12.7c7.3-5.8,5.4-16.9-2.9-21.2c-11.2-5.8-23.2-8.2-35.7-8.4C39.8,47,34.9,47.1,29.1,47.1z M786.7,81.1
		c-2.2,6.8-1.5,12.7,5.5,16.4c5.4,2.9,10.8,0.3,11.3-6c0.2-2.1,0.4-4.3,0.5-6.4c0.7-10.2,1.6-20.4,1.9-30.6c0.3-9-0.5-18-0.1-26.9
		c0.3-5.2-1.7-8.9-4.9-12.3c-3-3.2-7.1-4.7-10.7-2.7c-2.1,1.2-3.4,5.3-3.4,8.1C786.6,40.9,786.7,61,786.7,81.1z"/>
	<path fill="#F0594A" d="M716.7,68.7c-1.2,4.4-2.1,8.2-3.3,12c-1.2,3.6-5.3,5.7-8.3,3.8c-3.3-2-6-4.8-8.8-7.4
		c-0.6-0.6-1-2.1-0.7-2.9c2.4-6.7,1-13.1-0.8-19.7c-0.9-3.3-0.4-7-0.5-10.5c-0.1-4.7-0.4-9.5-0.3-14.2c0-2.4-0.1-5.2,1.1-7.1
		c1.2-2,3.9-3.2,6.1-4.9c-0.9-0.8-2.2-2-4-3.6c-1.3,8.9-8.5,8-14.1,9c-11.6,2.2-23.4,3.4-35,5.6c-5.2,1-10.2,3.4-15.3,5.1
		c0,0.6,0,1.2,0,1.8c1.7,0.3,3.3,0.9,5,0.9c11.9-0.2,23.8-0.8,35.7-0.5c3.4,0.1,8.2,1.7,9.9,4.2c5.3,8.2,1.7,12.1-7.7,13.5
		c-8.1,1.2-16.4,0.8-24.6,1.1c-3.2,0.1-6.3,0.8-9.5,0.7c-3.9-0.2-7.7-0.9-11.7-1.4c-2.9,7.2-0.6,12.8,7,15.4
		c8.1,2.8,16.3,2.1,24.4,0.4c0.7-0.1,1.4-0.6,2-1.1c4.2-3.8,8.8-3.4,13.4,1.2c4.2,4.3,4.1,8,0.3,12.9c-3.9,5-9.5,5.5-14.7,6.2
		c-11.9,1.7-23.8,1.6-34.7-4.6c-7.5-4.3-12.7-10.6-15.8-19c-3.5,2.2-6.9,4.4-10.3,6.4c-14.1,8.4-29.9,11.9-45.5,16
		c-4.4,1.1-10.4-2.2-12.7-7c-3.4-7.2-1.9-11.2,6.6-16.8c2.3-1.5,4.7-2.9,7.2-4c3.4-1.7,5.9-0.2,7.9,5.3c7.2-3,14.4-6,21.6-8.9
		c0.1-0.4,0.1-0.8,0.2-1.2c-2.5-1.1-5-2.4-7.7-3.2c-8.5-2.8-16-7.1-21-14.6c-3.1-4.7-5-10.2-3.3-16c0.4-1.4,1.3-2.9,2.4-3.7
		c7.4-5.1,15-9.8,24.3-10.6c4.5-0.4,9.1-1.1,13.6-1.4c8.3-0.4,13.7,4.9,13.7,13.1c0,4.1-4.3,7.7-8.3,6.7c-9.5-2.5-17.8,1.4-26.7,5.8
		c1.8,1,3.5,2.3,5.4,3.1c10.4,4.4,20.8,8.7,31.4,13.1c0.2-5.5,5.2-11,0.4-17.6c-1.9-2.6-0.2-6.1,2.8-8.3
		c9.8-7.5,21.4-10.3,33.1-12.4c8.2-1.5,16.7-2.3,25-2.6c8.1-0.2,16.3,0.6,24.6,1c2.5-5.2,7.7-7.4,13.2-7.6
		c19.1-0.7,35.6,6.4,50.5,18c4.7,3.6,7.4,7.9,6.7,14c-0.8,6.5-5.9,8.6-10.8,10.4c-8.8,3.2-17.9,5.7-26.9,8.6
		c-0.8,0.3-1.6,0.6-3.9,1.6c7.4,3,13.7,5.3,19.9,8.1c7.1,3.2,14.2,6.4,20.9,10.2c2.3,1.3,4.2,4.3,4.9,6.9c0.6,2.1-0.5,5.1-1.8,7
		c-0.8,1.2-3.9,2-5.3,1.5c-8.4-3.1-16.6-6.8-24.9-10C731.4,73.7,724.2,71.3,716.7,68.7z M713,39.1c9.7-3.3,18.8-6.4,27.9-9.6
		c0.7-0.3,1.7-1.4,1.6-1.8c-0.2-0.8-1-1.8-1.8-2.2c-5-2.2-10-4.6-15.2-6.1c-6.4-1.7-12.9-1.2-19.7,0.7
		C713.3,24.3,712.7,31.3,713,39.1z"/>
	<path fill="#F0594A" d="M923,37.8c7.8,4.4,15.5,7.8,22.2,12.7c6.2,4.5,11.6,10.3,16.5,16.2c3.8,4.5,1.2,12-4.5,13.6
		c-9.8,2.8-19.8,4.9-29.7,7.2c-2.5,0.6-5.1,0.7-7.6,1.4c-8.4,2.2-15.5-7.7-13.1-14.2c2.2-5.8,7.5-4.1,11.7-5
		c6.2-1.3,12.5-2.4,18.8-3.6c0.3-0.1,0.6-0.6,1.6-1.8c-7.1-3.6-13.8-7.2-20.6-10.5c-4.4-2.1-9.1-3.6-13.5-5.7
		c-6.7-3.1-11.7-7.7-12.3-15.3c-10.8-0.5-21.2-1.2-31.6-1.6c-8.1-0.2-16.2-0.1-24.2,0.1c-0.8,0-2,0.9-2.3,1.6
		c-1.8,4.4,1.8,9.5,6.7,10c9.2,0.9,18.5,1.6,27.6,3.2c5.4,1,7.9,8.4,4.2,11.6c-2,1.7-5.2,2.6-7.9,2.7c-7.6,0.3-15.2,0-22.8-0.1
		c-1.2,0-2.4,0.2-3.5,0.3c-0.4,8.8,4.2,14,12.2,13.3c4.8-0.4,9.6-1.6,14.2-3.2c1.8-0.6,3.5-2.8,4.4-4.7c1.9-4,5-5.3,8.7-3
		c3.6,2.3,7.9,9.7,6.9,12.8c-1.9,5.8-5.4,10.4-11.6,11.8c-6.8,1.6-13.7,2.9-20.6,3.5c-9.9,0.8-18.3-2.6-24.6-10.7
		c-8.2-10.5-10.3-22.8-11.3-35.6c-0.4-5.4-1.2-10.7-6.2-14.6c-4-3.2-2-9.6,3.8-11.9c4.9-1.9,10.2-3.8,15.4-4.2
		c17.2-1.4,34.4-0.8,51.5,2.2c4,0.7,8,2.1,11.9,3.3c0.9,0.3,2.1,0.7,2.3,1.3c1.7,4.7,4.8,2.7,8,2.2c12.5-1.9,24.9-3.9,37.5-4.8
		c7.2-0.5,14.5,0.7,21.8,1.5c4.3,0.5,8.8,5.8,9.2,10.3c0.4,4.2-2,6.9-5.6,8.5c-1.2,0.5-3.1,0.7-4.2,0.1c-10.2-5.7-21-3.8-31.7-2.6
		C928.3,36.7,926,37.2,923,37.8z"/>
	<path fill="#F0594A" d="M29.1,47.1c5.8,0,10.7-0.1,15.6,0c12.5,0.3,24.5,2.6,35.7,8.4c8.3,4.3,10.2,15.4,2.9,21.2
		c-6.3,5-13.3,9.4-20.5,12.7c-8.3,3.9-17.3,6.5-26,9.3c-3,1-6.3,1-9.5,1.4c-0.6,0.1-1.4,0.3-1.8,0c-1.8-1.3-4.2-2.4-5.1-4.2
		c-2-3.9-5.7-7.8-2.2-12.6c0.6-0.9,2.4-1.1,3.6-1.4c6.7-1.4,14.1-1.1,19.4-6.8c0.9-1,2.8-1.1,4.2-1.6c5.1-1.9,10.2-3.9,15.4-5.8
		c-0.1-0.7-0.3-1.4-0.4-2.1c-7.8-0.4-15.7-1.1-23.5-1.1c-9.9,0.1-19.5-0.1-28.5-5.1C2.4,56.1,0.6,50.6,0,44.6
		c-0.4-4.2,2.9-6.7,6.1-8.5C26.1,24.7,46,13,68.7,7.4c8.1-2,15.5,3.3,17.7,10.4c1.1,3.7-3.1,9.3-7.6,8.8c-9.3-1-17,3.3-24.9,6.5
		c-8,3.3-15.5,7.7-23.3,11.7C30.3,45,30.2,45.5,29.1,47.1z"/>
	<path fill="#F0594A" d="M786.7,81.1c0-20.1-0.1-40.2,0.2-60.4c0-2.8,1.4-6.9,3.4-8.1c3.6-2,7.7-0.5,10.7,2.7
		c3.2,3.4,5.2,7.1,4.9,12.3c-0.4,8.9,0.4,17.9,0.1,26.9c-0.3,10.2-1.3,20.4-1.9,30.6c-0.1,2.1-0.3,4.3-0.5,6.4
		c-0.5,6.3-5.9,8.9-11.3,6C785.2,93.8,784.5,87.9,786.7,81.1z"/>
	<path fill="#F0594A" d="M196.3,67.3c-1.4-1.1-4.3-2-6.2-2.4c-7.5-1.3-6.3,1.2-6.3,7.1c0,6.3-3.2,13.5-8,18.8
		c-3-0.8-8.8,0.6-11.2-1.7c-5.9-5.5-1.6-12.3-1.6-18.7c0-7.7,1.6-13.7,1.6-21.3c5.5-4.6-1.4-15.9,4.4-21.2c0-8.7,5-22.1,18.2-21.9
		c7,0.1,6.6,10.2,9.9,13.3c0,3.6,1.2,6.1,1.4,9.2c0.3,5.9,2.8,0.2,4.8-1c2.3-1.3,9.8-9.1,8.5-11.8c3.2-2.7,6.4-7.2,11.2-7.2
		c2.8,0,7.1-0.2,9.3-1.2c13.9,3.2,7.7,28.1,7.7,36.4c0,9.3-1.5,17.4-1.5,26.4c-2.4,2.2-1.7,5.7-3.2,8.5c-1.3,2.5-3.8,5-6.5,6.2
		c-5,2.2-15.4-3.1-15.4-8.4c0-4.5,5.2-18,0.7-21.8c-2.3,4.2-4.8,6.6-8.7,9.8C202.5,65.8,198.7,65.4,196.3,67.3
		C195.8,66.9,196.9,66.9,196.3,67.3z"/>
	<path fill="#F0594A" d="M285.6,28.1c4.3,3.6-1.2,10,2.8,13.6c3.5,3.2,9.3-7,10.5-8.8c-1.7-5.1,11-19.6,17.7-19.1
		c6.2,0.4,6.1,1.3,11.4,5.4c3.1,2.4,3.4,4.6,3.4,8.2c0,7,0.1,13.1,0.1,19.5c0,8.3,1.4,15.1,1.4,23.4c0,8,5,17-3.1,23.9
		C317.1,105,312.2,75.8,312.2,71c0-1.8-0.9-15.9-2.1-16.1c-4.8-0.6-7.8,7.9-8.4,10.7c-11.4,8.6-19,3.5-28.4-4.4
		c-6.2,4.3-0.7,25.4-13.3,24.9c-3.3-0.1-0.3,3.8-4.7-0.2c-2.8-2.5-3.5-5.9-3.5-9.3c0-8.3,1.4-16.3,1.4-24c0-10.3-1-27.5,8.5-35.5
		C272.3,8.1,285.6,16.3,285.6,28.1C286,28.4,285.6,26.8,285.6,28.1z M319.8,88c0.5,0.7,0.8,0.6,1-0.4C320.3,87,320,87.1,319.8,88
		C320,88.2,319.9,87.7,319.8,88z"/>
	<path fill="#F0594A" d="M455.1,71.6c5.7,2.9,11.3,6.8,18.3,6.8c4.9,0,10.5-1.2,14.2,1.8c0,4.5,0.7,7.9-3,11.5
		c-6.3,6.1-19,1.8-26.7,1.8c-6.8-3.3-11.9-8.5-18.2-12.5c-2.4,2.3-1.7,7-3.5,9.8c-3.3,5.3-10.7,4.9-15.7,1.3
		c-4-2.9-3.7-11.4-3.7-15.5c0-7.1-1.3-12.9-1.3-19.8c-2.6-2.4-1.5-5.7-1.5-8.8c-2.1-1.9-2.9-4.9-4.1-7.3c-1.7-3.4-3.3-9.2-3.3-12.6
		c0-9.3,12.6-12.8,21.2-15.2c4.8-1.3,11.5,3.4,16.4-0.4c3.8,0,7.1,2.2,11.1,2.7c8.8,1.2,18.6,5.3,22.3,12.3
		c5.5,10.5-0.1,18.2-7.2,27.4C465.5,61.6,456.4,63.3,455.1,71.6C457.1,72.6,455.4,70,455.1,71.6z M437.1,54.8
		c7.9,0,14.1-5.4,18-10.8c7.2-10-11.9-14.7-20.3-11c2.4,2.2,2.9,10.6,2.9,13.7C440.4,49.2,439.6,52.5,437.1,54.8
		C439,54.8,438.1,53.8,437.1,54.8z"/>
	<path fill="#F0594A" d="M406.8,84.7c2.5,1.1,5,2.1,7.5,3.2c-2.6,4.5-1.9,6.7-8.2,6.7c-2.6,2-11.1,3.2-13.6,1.2
		c-9.9,0-28.7,0.7-36.1-5.9c-3.3-3-4.2-5.4-5.8-9c-1.7-3.9,1.1-10.4-2.9-14.3c0-2.9,2-3.1-0.1-5.1c0-3.7-2.8-3.8-2.8-7.6
		c0-4.8,1.1-7,3.1-11.1c3.3-7-9.4-15.3-2.6-21.7c3.1-3,10.7-3.7,14.8-3.7c4.6-3.5,14.6-2.5,20.8-2.5c1.6,1.2,8.3,0.6,12.1,2.5
		c2.6,5.5,3.1,8.7-2.4,12.9c-5.1,3.9-7.1,2-12.6,2c-6.8,0-4.6,4.6-8.5,5.4c5.3,3.8,13.7,2,20.4,2c3.8,4,5.7,9.3-1.5,12.2
		c-9.1,3.7-21.6,1.9-21.6,12.7c0,5.3,3.1,15.7,8.2,18.8c2,1.2,8.9,0.9,10.3-0.1C392.7,83.5,399,84.7,406.8,84.7
		C409.5,85.9,402.9,84.7,406.8,84.7z"/>
	<path fill="#F0594A" d="M134.6,73.7c8.7-4.7,7.2-15.8,7.2-23.2c0-8.5-2.8-15.5-2.8-23.2c-3.1-3.5-2.4-9.1,1.1-12
		c4.5-3.8,3.7-1.5,8.6-1.2c3.6,4.2,4.8,12.9,4.8,17.7c4,3.7,3,16.3,3,21.3c4.2,3.5,1.4,12.5-0.7,16.6c-2.9,5.7-2.9,11.5-8.7,16.1
		c-3,2.4-6.1,4.2-9.2,6.5c-3.5,2.6-4.9,0-8.8,0c-4.7-3.8-12.2-7.8-14.1-13.7c-1.1-3.3-4.2-10.3-6.3-13.3c-1.9-2.8-1.2-5.7-3.1-8.9
		c-2.5-4.1-1.9-7.1-4.4-11.2c-3.1-5.1-7.7-21.1-2.4-25.6c1.2-6.1-0.3-6.2,6.3-9.6c3.8,2.4,5.1,1.5,8,5.1c4.8,6.1,2,19,2,26.7
		c2,4.9,4.5,9.3,4.5,14.4C122.6,61.2,127.9,71.1,134.6,73.7C137.4,72.2,132.8,73,134.6,73.7z"/>
</g>
</svg>
