<?xml version="1.0" encoding="utf-8"?>
<!-- Generator: Adobe Illustrator 18.1.1, SVG Export Plug-In . SVG Version: 6.00 Build 0)  -->
<svg version="1.1" id="Layer_1" xmlns="http://www.w3.org/2000/svg" xmlns:xlink="http://www.w3.org/1999/xlink" x="0px" y="0px"
	 viewBox="0 0 105.6 8.5" enable-background="new 0 0 105.6 8.5" xml:space="preserve">
<path fill="#FFFFFF" d="M97.7,7.4c-2-0.2-3.9-0.6-5.9-1.1C91.2,6.2,90.6,6,90,5.9c-1.9-0.3-3.8-0.7-5.7-1c-1.1-0.2-2.1-0.4-3.2-0.6
	c-2.8-0.5-5.5-0.9-8.3-1.1C70.9,3,69,2.8,67.1,2.7c-2.6-0.2-5.2-0.3-7.8-0.2c-2.1,0-4.2,0-6.3,0.1c-3.1,0.1-6.2,0.2-9.3,0.4
	c-2.5,0.1-5,0.3-7.6,0.4c-1.9,0.1-3.9,0.3-5.8,0.4C26.5,4,22.7,4.3,18.9,4.6c-1.8,0.1-3.6,0.3-5.4,0.4c-2,0.1-3.9,0.1-5.9,0.2
	c-1.3,0-2.5,0-3.8,0c-0.2,0-0.5,0-0.8-0.1c0.1-0.2,0.2-0.4,0.3-0.7c-1-0.2-2-0.1-2.9-0.7C0.4,3.5,0.2,3.2,0,2.9
	c0.7-0.3,0.9-0.3,1.4-0.3c2.7,0.2,5.4,0,8.2-0.1c1.2,0,2.5-0.1,3.7-0.2c1.2-0.1,2.4-0.1,3.6-0.4c0.3-0.1,0.7-0.1,1-0.1
	C19,1.9,20,1.7,21.1,1.6c0.5,0,1-0.1,1.5-0.1c1.8-0.1,3.5-0.2,5.3-0.3c0.9-0.1,1.8-0.2,2.7-0.3c1.5-0.1,3-0.3,4.6-0.2
	c1.6,0,3.2-0.1,4.8-0.2c1.3-0.1,2.7-0.1,4-0.1c2.5-0.1,5-0.2,7.5-0.3C53.7,0,56,0,58.3,0c2.3,0,4.6,0,6.9,0.1
	c1.6,0.1,3.2,0.2,4.8,0.3c2.6,0.2,5.1,0.5,7.7,0.8c2.5,0.3,5.1,0.7,7.6,1.2c2.4,0.5,4.8,0.9,7.2,1.4c1.2,0.2,2.5,0.6,3.7,0.8
	c1.3,0.3,2.7,0.6,4,0.9c1.4,0.3,2.8,0.7,4.1,1.3c0.3,0.1,0.6,0.3,0.9,0.5c0.3,0.2,0.3,0.5,0.2,0.7c-0.1,0.3-0.3,0.3-0.6,0.4
	c-0.7,0.1-1.4,0-2-0.2c-1.3-0.5-2.6-0.8-4-1.1c-0.5-0.1-0.9-0.2-1.5-0.3C97.5,7,97.6,7.2,97.7,7.4L97.7,7.4z M78.9,3.3
	c0.5,0.1,0.9,0.1,1.4,0.2c1.4,0.4,2.9,0.5,4.3,0.8c0.9,0.2,1.9,0.4,2.8,0.6c1.1,0.2,2.1,0.4,3.2,0.6c1.5,0.3,2.9,0.5,4.4,1
	c0.5,0.2,0.8,0.2,1.4,0c-1.1-0.3-2.2-0.5-3.2-0.8c-1.8-0.4-3.7-0.8-5.5-1.1c-0.6-0.1-1.1-0.3-1.7-0.4c-1.1-0.2-2.3-0.3-3.4-0.6
	C81.2,3.4,80.1,3.3,78.9,3.3z M77.4,3c-1-0.2-1.9-0.4-3-0.3C75.5,2.8,76.4,2.9,77.4,3z M68.1,2C68.1,2,68.1,2,68.1,2
	c0.6,0.1,1.2,0.2,1.8,0.2c0,0,0,0,0-0.1C69.3,2.1,68.7,2,68.1,2z M71.3,2.3c0.4,0,0.8,0.2,1.4,0C72,2.3,71.7,2.2,71.3,2.3z M65.9,2
	c-0.3-0.3-0.5-0.2-0.9-0.1C65.3,2,65.6,2,65.9,2z M73.1,2.5C73.1,2.5,73.1,2.5,73.1,2.5c0.2,0.1,0.4,0.1,0.6,0.1c0,0,0,0,0,0
	C73.5,2.5,73.3,2.5,73.1,2.5z M66.4,1.8C66.4,1.9,66.4,1.9,66.4,1.8c0.1,0.1,0.2,0.1,0.3,0.1c0,0,0,0,0-0.1
	C66.6,1.9,66.5,1.9,66.4,1.8z M63.4,1.8C63.4,1.8,63.4,1.8,63.4,1.8c0.1,0.1,0.1,0.1,0.2,0.1c0,0,0,0,0.1,0
	C63.6,1.8,63.5,1.8,63.4,1.8z M4,4.5C4,4.5,4,4.6,4,4.5c0.1,0,0.1,0,0.2,0C4.1,4.5,4.1,4.5,4,4.5C4,4.5,4,4.5,4,4.5z M96.8,6.8
	C96.9,6.8,96.9,6.8,96.8,6.8C96.9,6.8,96.9,6.7,96.8,6.8C96.8,6.7,96.8,6.8,96.8,6.8C96.8,6.8,96.8,6.8,96.8,6.8z M58.8,1.8
	L58.8,1.8L58.8,1.8L58.8,1.8z M61.6,1.9L61.6,1.9L61.6,1.9L61.6,1.9z"/>
</svg>
