<?xml version="1.0" encoding="iso-8859-1"?>
<!-- Generator: Adobe Illustrator 19.1.0, SVG Export Plug-In . SVG Version: 6.00 Build 0)  -->
<svg version="1.1" id="Layer_1" xmlns="http://www.w3.org/2000/svg" xmlns:xlink="http://www.w3.org/1999/xlink" x="0px" y="0px"
	 viewBox="0 0 307.26 71.956" style="enable-background:new 0 0 307.26 71.956;" xml:space="preserve">
<g>
	<g>
		<path style="fill:#FFFFFF;" d="M141.103,34.185c-0.167,1.396-0.363,2.789-0.495,4.188c-0.471,4.978-0.71,9.989-1.454,14.925
			c-0.46,3.051-0.656,6.107-0.966,9.16c-0.106,1.051-0.071,2.121-0.039,3.181c0.025,0.849-0.326,1.591-1.108,1.608
			c-0.58,0.013-1.173-0.594-1.755-0.922c-0.113,0.823-0.272,1.966-0.426,3.109c-0.029,0.214,0.045,0.513-0.071,0.629
			c-0.364,0.363-0.796,0.658-1.202,0.979c-0.086-0.434-0.279-0.88-0.234-1.301c0.072-0.671,0.301-1.325,0.464-1.986
			c-0.165-0.036-0.331-0.072-0.496-0.108c-0.096,0.579-0.189,1.159-0.289,1.738c-0.088,0.509-0.135,1.033-0.298,1.517
			c-0.097,0.289-0.377,0.521-0.597,0.758c-0.019,0.02-0.29-0.107-0.291-0.169c-0.007-0.362-0.033-0.744,0.071-1.082
			c0.121-0.395,0.427-0.735,0.542-1.131c0.081-0.279-0.022-0.612-0.043-0.92c-0.217,0.226-0.441,0.447-0.647,0.682
			c-0.078,0.089-0.116,0.213-0.162,0.303c-0.303-0.258-0.586-0.5-0.87-0.742c-0.195,0.301-0.491,0.579-0.567,0.907
			c-0.369,1.604-1.295,2.15-2.885,1.638c-1.645-0.53-1.645-0.53-2.031-1.737c-1.752,1.102-3.43,0.843-4.899-0.931
			c-0.582-0.702-1.144-1.013-2.055-1.047c-1.766-0.067-2.454-0.949-2.04-2.631c1.141-4.631,1.333-9.353,1.503-14.083
			c0.081-2.269,0.339-4.535,0.33-6.802c-0.013-3.168-0.24-6.334-0.301-9.502c-0.045-2.362,0.032-4.727,0.047-7.091
			c0.03-4.732,0.043-9.465,0.089-14.197c0.011-1.138,0.067-2.282,0.204-3.411c0.114-0.939,0.666-1.606,1.683-1.621
			c1.739-0.025,3.548,1.051,5.209-0.355c0.067-0.057,0.389,0.247,0.613,0.305c0.443,0.116,0.909,0.281,1.351,0.244
			c1.24-0.104,2.47-0.355,3.71-0.426c0.345-0.02,0.715,0.386,1.12,0.625c0.223-0.197,0.582-0.71,0.785-0.654
			c0.511,0.14,1.667-1.335,1.605,0.559c-0.004,0.127,1.354,0.599,1.603,0.378c0.714-0.638,0.951-0.195,1.304,0.27
			c0.487,0.641,1.027,0.865,1.925,0.936c0.794,0.063,1.596,0.992,2.243,1.681c0.576,0.614,0.707,1.656,1.991,1.386
			c0.263-0.055,0.722,0.818,0.961,1.443c-0.645-0.278-1.29-0.557-1.935-0.835c-0.079,0.115-0.157,0.231-0.236,0.346
			c0.45,0.6,0.88,1.216,1.353,1.797c1.354,1.663,2.793,3.262,4.072,4.981c1.222,1.641,2.352,3.362,3.378,5.131
			c0.328,0.566,0.198,1.398,0.277,2.109c-0.306,0.013-0.76,0.161-0.892,0.016c-0.49-0.538-0.869-1.175-1.297-1.769
			c-0.563-0.781-1.133-1.557-1.7-2.335c-0.096,0.061-0.192,0.122-0.287,0.182c0.451,0.765,0.886,1.54,1.356,2.293
			c0.433,0.693,0.915,1.356,1.353,2.046c0.399,0.629,0.632,1.703,1.6,0.471c0.053-0.067,0.642,0.114,0.782,0.317
			c0.711,1.026,1.364,2.094,2.018,3.159c0.115,0.187,0.134,0.433,0.197,0.652c-0.262-0.072-0.605-0.064-0.772-0.231
			c-0.531-0.528-0.996-1.122-1.7-1.52c0.697,1.027,1.385,2.061,2.107,3.07c0.053,0.074,0.491,0.017,0.514-0.056
			c0.433-1.336,0.781-0.328,1.073,0.053c1.404,1.831,3.12,3.378,4.656,5.054c1.413,1.541,3.233,2.777,4.469,5.001
			c-0.669-0.314-1.058-0.496-1.447-0.678c-0.071,0.073-0.143,0.146-0.214,0.219c1.327,1.254,2.654,2.507,3.969,3.749
			c0.174-0.223,0.327-0.418,0.479-0.613c0.98,1.09,0.802-0.095,0.803-0.467c0.004-1.807-0.048-3.615-0.116-5.422
			c-0.221-5.805-0.423-11.611-0.707-17.414c-0.094-1.917-0.356-3.832-0.645-5.732c-0.331-2.171,0.362-4.044,1.906-4.389
			c0.988-0.221,2.047-0.123,3.073-0.181c0.288-0.016,0.66,0.027,0.847-0.13c1.446-1.215,2.099-1.349,3.663-0.202
			c0.684,0.501,1.008,0.356,1.515-0.094c0.414-0.367,0.839-1.033,1.479-0.221c0.037,0.047,0.52-0.125,0.64-0.301
			c0.299-0.439,0.495-0.946,0.761-1.409c0.079-0.139,0.251-0.225,0.38-0.336c0.565,0.807,1.845,0.28,2.199,0.872
			c0.435,0.728,0.967,0.674,1.532,0.948c0.767,0.373,1.39,1.175,1.897,1.915c0.538,0.785,0.867,1.714,1.288,2.58
			c0.556-0.461,0.866-0.718,1.176-0.976c0.003,0.496,0.111,1.021-0.015,1.481c-0.21,0.767-0.711,1.346,0.439,1.992
			c0.545,0.306,0.809,1.613,0.734,2.423c-0.174,1.861-0.832,3.684-0.943,5.544c-0.372,6.236-0.604,12.481-0.862,18.723
			c-0.163,3.958-0.338,7.917-0.384,11.877c-0.024,2.062,0.219,4.128,0.342,6.192c0.098,1.639-0.596,2.548-2.148,2.667
			c-0.213,0.016-0.591-0.418-0.673-0.707c-0.219-0.766-0.56-0.784-1.221-0.482c-1.017,0.465-2.077,0.846-3.146,1.175
			c-0.263,0.081-0.654-0.134-0.946-0.288c-0.701-0.369-1.279-0.609-2.21-0.386c-1.013,0.243-2.225-0.08-3.287-0.38
			c-1.387-0.391-2.711-1.005-4.066-1.512c-0.157-0.059-0.398,0.01-0.5-0.086c-1.328-1.267-2.668-2.525-3.939-3.848
			c-0.488-0.508-0.711-1.285-1.225-1.752c-2.745-2.497-5.607-4.868-8.306-7.413c-2.25-2.122-4.38-4.379-6.473-6.658
			c-2.521-2.745-4.966-5.561-7.399-8.386c-0.549-0.638-0.91-1.439-1.357-2.165C141.376,34.161,141.239,34.173,141.103,34.185z
			 M184.567,44.841c-0.117-0.011-0.234-0.022-0.351-0.033c-0.952,1.699-0.764,3.494-0.49,5.297c0.13,0.013,0.26,0.025,0.39,0.038
			C184.267,48.376,184.417,46.608,184.567,44.841z M183.785,44.241c0.08,0.024,0.16,0.048,0.24,0.072
			c0.201-0.789,0.379-1.585,0.613-2.364c0.1-0.332,0.488-0.882,0.453-0.906c-0.817-0.56-0.481-1.272-0.357-1.984
			c0.025-0.146-0.251-0.344-0.389-0.518c-0.169,0.211-0.477,0.418-0.484,0.635C183.803,40.864,183.803,42.553,183.785,44.241z"/>
		<path style="fill:#FFFFFF;" d="M17.718,3.963c-0.41,0.221-0.82,0.442-1.488,0.801c1.76,0.131,3.101,0.262,4.033,1.494
			C20.447,6.5,21.1,6.736,21.209,6.632c0.99-0.948,1.22,0.109,1.764,0.547c1.111,0.895,1.52,1.889,1.087,3.316
			c-0.17,0.562,0.095,1.272,0.22,1.903c1.151,5.828,2.325,11.652,3.47,17.481c0.579,2.95,1.113,5.908,1.667,8.863
			c0.34,1.814,0.674,3.63,1.026,5.442c0.037,0.191,0.178,0.361,0.596,0.585c0.308-1.078,0.562-2.175,0.935-3.231
			c0.76-2.154,1.614-4.275,2.369-6.431c0.369-1.055,0.665-2.073,0.619-3.302c-0.051-1.374,0.623-2.821,1.17-4.16
			c0.969-2.372,2.083-4.684,3.131-7.023c1.231-2.746,2.458-5.492,3.681-8.242c0.139-0.312,0.313-0.636,0.339-0.965
			c0.103-1.307,0.324-2.375,2.074-2.275c0.375,0.022,0.924-0.708,1.165-1.203c0.293-0.601,0.341-1.321,0.503-1.988
			c0.599-2.479,2.844-3.458,4.704-1.745c1.375,1.266,2.423,0.273,3.404-0.056c0.664-0.223,0.903-0.441,1.416,0.123
			c0.919,1.011,2.201,1.178,3.332,0.412c0.727-0.493,0.957-0.374,1.438,0.383c0.286,0.449,0.413,1.422,1.353,1.341
			c-0.009,0.23,0.051,0.492-0.04,0.684c-0.605,1.277-1.267,2.528-1.856,3.812c-0.233,0.508-0.327,1.08-0.484,1.622
			c0.425-0.272,0.851-0.544,1.259-0.805c-0.074,1.884-0.099,1.834-1.943,2.75c-0.412,0.205-0.612,0.881-0.857,1.366
			c-0.979,1.947-1.962,3.891-2.892,5.861c-0.548,1.162-1.05,2.351-1.482,3.561c-1.085,3.034-2.113,6.089-3.178,9.13
			c-0.213,0.609-0.483,1.198-0.734,1.794c-0.117,0.277-0.353,0.548-0.353,0.821c-0.001,0.577,0.092,1.16,0.218,1.725
			c0.018,0.079,0.636,0.13,0.65,0.086c0.193-0.586,0.351-1.186,0.472-1.791c0.173-0.862,0.163-1.79,0.484-2.589
			c1.428-3.556,2.913-7.091,4.451-10.601c0.441-1.006,1.171-1.882,1.695-2.857c0.932-1.734,1.816-3.493,2.7-5.252
			c0.219-0.435,0.361-0.908,0.538-1.364c0.099,0.035,0.199,0.069,0.298,0.104c-0.251,0.827-0.435,1.681-0.763,2.475
			c-1.591,3.845-3.379,7.617-4.798,11.524c-1.807,4.977-3.245,10.087-4.99,15.088c-2.793,8.01-5.689,15.985-8.589,23.957
			c-0.477,1.312-1.161,2.556-1.832,3.786c-0.168,0.309-0.656,0.443-0.998,0.658c-0.077-0.341-0.205-0.679-0.219-1.022
			c-0.021-0.503,0.089-1.015,0.036-1.512c-0.015-0.146-0.433-0.4-0.591-0.353c-0.422,0.126-0.856,0.326-1.189,0.609
			c-0.696,0.591-1.246,1.403-2.016,1.843c-0.637,0.365-1.504,0.42-2.269,0.424c-0.316,0.002-0.619-0.51-0.957-0.747
			c-0.239-0.168-0.638-0.45-0.777-0.367c-1.769,1.062-3.715,0.164-5.522,0.553c-1.386,0.298-2.494-0.081-3.701-0.748
			c-0.573-0.316-1.581-0.034-2.326,0.193c-1.571,0.479-3.199-0.564-3.45-2.191c-0.234-1.519-0.611-3.019-1.015-4.504
			c-0.074-0.273-0.563-0.575-0.89-0.614c-2.135-0.256-3.022-1.284-2.891-3.436c0.175-2.889-0.113-5.588-1.289-8.393
			c-2.603-6.212-4.751-12.619-6.98-18.983c-0.779-2.225-1.226-4.565-1.879-6.836c-0.259-0.901-0.67-1.757-1.003-2.637
			c-0.121-0.321-0.291-0.648-0.312-0.98C0.245,19.644,0.074,17.032,0,14.418c-0.012-0.42,0.449-0.853,0.691-1.279
			c0.215,0.364,0.441,0.722,0.64,1.095c0.098,0.185,0.139,0.57,0.215,0.573c1.624,0.055,1.026,1.466,1.395,2.27
			c0.178,0.387,0.218,0.84,0.406,1.221c0.108,0.218,0.388,0.351,0.591,0.523c0.029-0.263,0.14-0.549,0.072-0.784
			c-0.261-0.897-0.534-1.796-0.884-2.662c-1.155-2.863,0.318-5.33,3.027-6.367c0.753-0.288,1.468-0.694,2.167-1.104
			C9.236,7.368,10.075,6.878,11.26,6.9c1.02,0.018,2.055-0.542,3.071-0.883c0.102-0.034,0.128-0.32,0.174-0.494
			c0.039-0.147,0.056-0.3,0.082-0.451c0.164,0.089,0.328,0.178,0.491,0.268c0.221,0.122,0.441,0.246,0.661,0.369
			c0.159-0.295,0.529-0.686,0.445-0.869c-0.781-1.697,0.635-1.033,1.205-1.267C17.498,3.703,17.608,3.833,17.718,3.963z
			 M27.116,36.896c0.09-0.026,0.18-0.052,0.27-0.078c-0.187-1.202-0.361-2.407-0.571-3.606c-0.057-0.328-0.164-0.685-0.364-0.937
			c-0.147-0.186-0.483-0.222-0.735-0.325c-0.036,0.222-0.158,0.472-0.095,0.66C26.1,34.046,26.614,35.469,27.116,36.896z"/>
		<path style="fill:#FFFFFF;" d="M249.294,42.727c0.038-3.537,0.075-7.074,0.115-10.847c-0.969,8.495-0.533,17.063-5.362,24.518
			c0.215,0.149,0.43,0.298,0.645,0.447c0.257-0.549,0.514-1.097,0.77-1.646c0.19,0.147,0.38,0.294,0.57,0.441
			c-0.535,0.844-0.94,1.819-1.629,2.51c-2.578,2.589-5.833,3.984-9.291,4.968c-2.277,0.648-4.697,1.005-6.791,2.029
			c-2.415,1.18-4.961,1.309-7.454,1.57c-4.633,0.486-9.249,0.049-13.499-2.096c-2.241-1.131-3.937-2.841-5.452-4.955
			c-2.691-3.754-3.969-8.075-5.668-12.227c-1.253-3.061-1.208-6.371-1.453-9.633c-0.209-2.785-0.927-5.53-1.321-8.306
			c-0.128-0.899,0.142-1.847,0.08-2.763c-0.131-1.946,1.258-3.626,0.648-5.749c-0.454-1.58-0.093-3.405-0.019-5.118
			c0.016-0.37,0.266-0.862,0.565-1.065c1.446-0.98,3.009-1.574,4.803-1.054c0.276,0.08,0.657,0.231,0.845,0.115
			c1.321-0.814,2.452-0.298,3.614,0.371c1.118,0.643,2.404-0.135,2.552-1.416c0.038-0.333,0.399-0.717,0.715-0.891
			c0.155-0.086,0.545,0.254,0.829,0.401c-0.155,0.162-0.344,0.304-0.458,0.492c-0.152,0.252-0.409,0.713-0.336,0.782
			c0.276,0.259,0.707,0.6,1.008,0.541c0.915-0.178,1.845-0.664,2.641,0.145c0.362,0.368,0.508,0.95,0.736,1.403
			c0.601-0.924,1.581-0.136,2.044,0.468c0.552,0.721,0.793,1.8,0.859,2.746c0.103,1.468-0.138,2.957-0.083,4.432
			c0.063,1.672,0.285,3.339,0.45,5.007c0.461,4.659,0.907,9.32,1.4,13.975c0.39,3.681,1.759,7.013,3.869,10.026
			c0.451,0.644,1.171,1.161,1.869,1.558c1.069,0.608,1.933,0.19,2.401-1.02c1.862-4.817,2.72-9.85,3.087-14.969
			c0.407-5.671,0.881-11.345,1.01-17.025c0.079-3.464-0.507-6.92-1.626-10.261c-0.361-1.079-0.418-2.293-0.412-3.445
			c0.002-0.464-0.073-1.112,1.073-1.281c1.088-0.161,2.748,0.131,3.458-1.603c0.375-0.916,1.507-0.723,2.171,0.042
			c0.573,0.662,0.801,0.377,1.063-0.203c0.365-0.81,0.635-1.693,1.15-2.395c0.353-0.48,1.047-0.718,1.619-1.006
			c0.03-0.015,0.444,0.502,0.491,0.801c0.083,0.523,0.02,1.069,0.018,1.605c0.466-0.263,0.932-0.525,1.397-0.789
			c0.073-0.041,0.138-0.096,0.144-0.101c0.635,0.667,1.247,1.335,1.894,1.968c0.135,0.133,0.395,0.138,0.598,0.202
			c-0.019-0.196-0.017-0.397-0.064-0.585c-0.03-0.118-0.173-0.209-0.198-0.327c-0.086-0.407-0.143-0.82-0.211-1.231
			c0.247,0.226,0.521,0.429,0.736,0.682c0.375,0.442,0.692,0.936,1.088,1.357c0.067,0.071,0.535-0.053,0.602-0.192
			c0.688-1.422,1.038-1.56,2.46-0.686c0.454,0.279,0.853,0.732,1.132,1.193c0.509,0.841,1.045,1.707,1.323,2.637
			c0.348,1.165,0.489,2.4,0.641,3.615c0.138,1.096,0.196,2.205,0.235,3.31c0.013,0.371-0.165,0.744-0.214,1.122
			c-0.035,0.27-0.117,0.677,0.021,0.803c1.396,1.262,1.232,2.969,1.382,4.59c0.075,0.814,0.182,1.625,0.225,2.441
			c0.071,1.363,0.218,2.735,0.124,4.089c-0.233,3.364-0.597,6.719-0.881,10.08c-0.153,1.808-0.249,3.62-0.371,5.431
			C249.543,42.745,249.419,42.736,249.294,42.727z"/>
		<path style="fill:#FFFFFF;" d="M298.006,0.454c0.453,1.284,0.865,2.576,1.381,3.825c0.115,0.278,0.674,0.342,0.888,0.615
			c0.338,0.431,0.82,1.001,0.747,1.427c-0.062,0.359-0.801,0.657-1.289,0.869c-0.37,0.161-0.818,0.143-1.194,0.433
			c0.496,0.202,0.993,0.404,1.473,0.599c-0.717,0.463-1.34,0.817-1.896,1.256c-0.154,0.121-0.108,0.495-0.153,0.753
			c0.252,0.015,0.53,0.108,0.752,0.033c1.777-0.598,2.484-0.362,3.556,1.526c-1.175-0.012-2.169-0.122-3.133,0.004
			c-0.567,0.074-1.058,0.64-1.632,0.777c-1.499,0.357-3.026,0.59-4.539,0.889c-1.126,0.222-2.25,0.456-3.366,0.725
			c-0.105,0.025-0.096,0.436-0.219,0.49c-0.196,0.086-0.463,0.054-0.689,0.014c-0.326-0.059-0.704-0.325-0.95-0.227
			c-0.517,0.207-0.58,0.523,0.108,0.621c-0.277,0.257-0.554,0.514-0.832,0.771c0.197-0.65-0.849-1.57,0.424-1.812
			c0.661-0.125,1.301-0.357,1.95-0.54c-0.029-0.111-0.058-0.222-0.087-0.332c-1.188,0.313-2.473,0.446-3.525,1.012
			c-0.556,0.299-0.834,1.157-1.618,1.477c-2.088,0.85-4.136,1.799-6.196,2.718c-0.189,0.084-0.349,0.232-0.488,0.463
			c4.303-0.157,8.259-1.87,12.472-2.521c-2.604,0.801-5.205,1.61-7.812,2.401c-2.436,0.739-4.874,1.467-7.318,2.18
			c-0.625,0.182-0.937,0.451-0.837,1.188c0.387,2.856,0.694,5.724,1.108,8.576c0.035,0.243,0.696,0.631,0.98,0.568
			c4.242-0.95,8.453-1.95,12.125-4.511c1.052-0.734,2.311-1.421,3.84-0.867c0.435,0.158,1.181-0.31,1.686-0.641
			c0.578-0.378,0.988-1.008,1.706-0.148c0.151,0.181,0.813,0.018,1.204-0.102c0.732-0.224,1.439-0.532,2.155-0.809
			c0.079-0.031,0.214-0.122,0.216-0.119c0.585,0.951,1.77,0.691,2.537,1.263c0.362,0.27,0.73,0.536,1.064,0.839
			c0.383,0.346,0.584,0.583,1.05-0.046c0.318-0.429,1.076-0.583,1.163,0.488c0.035,0.428,0.427,0.827,0.589,1.116
			c-0.909-0.073-1.9-0.153-2.891-0.233c0,0.097,0,0.194,0.001,0.292c0.658,0.263,1.3,0.673,1.979,0.748
			c0.635,0.07,1.306-0.245,1.969-0.328c0.254-0.032,0.529,0.112,0.795,0.176c-0.184,0.251-0.331,0.549-0.566,0.736
			c-0.186,0.148-0.477,0.183-0.729,0.225c-0.707,0.118-1.016,0.372-0.323,0.941c0.658,0.54,0.599,0.693-0.256,0.912
			c-0.57,0.146-1.025,0.743-1.647,1.229c0.516,0.044,0.813,0.07,1.11,0.095c-0.129,0.294-0.177,0.733-0.401,0.857
			c-1.011,0.558-2.03,1.162-3.123,1.502c-3.246,1.011-6.524,1.924-9.798,2.842c-3.482,0.976-6.978,1.904-10.461,2.875
			c-1.411,0.393-2.825,0.794-4.194,1.306c-0.325,0.121-0.694,0.713-0.677,1.071c0.172,3.65,0.447,7.294,0.624,10.944
			c0.041,0.843,0.196,1.169,1.112,0.961c2.462-0.56,4.949-1.009,7.408-1.578c3.046-0.705,6.084-1.445,9.104-2.251
			c1.324-0.354,2.583-0.944,3.891-1.366c2.182-0.703,3.247-0.377,4.526,1.621c0.661,1.032,1.539,1.923,2.201,2.955
			c0.301,0.469,0.485,1.157,0.383,1.679c-0.05,0.254-0.878,0.361-1.358,0.522c-0.284,0.096-0.587,0.141-0.86,0.26
			c-0.22,0.096-0.406,0.269-0.608,0.407c0.224,0.136,0.448,0.272,0.796,0.483c-0.407,0.109-0.721,0.185-1.03,0.278
			c-0.798,0.239-1.784-0.183-2.194,1.226c-0.164,0.565-1.778,0.875-2.77,0.999c-2.35,0.293-4.751,0.239-7.08,0.633
			c-2.713,0.458-5.384,1.194-8.049,1.904c-1.726,0.46-3.401,1.111-5.112,1.632c-1.076,0.328-1.535,0.892-1.035,2.012
			c0.099,0.223,0.165,0.543,0.076,0.745c-0.099,0.224-0.39,0.363-0.598,0.539c-0.156-0.193-0.482-0.438-0.441-0.57
			c0.352-1.132-0.868-0.834-1.218-1.32c-0.053-0.073-0.718,0.178-0.991,0.409c-0.487,0.412-0.867,0.95-1.343,1.378
			c-0.174,0.156-0.553,0.276-0.743,0.193c-1.1-0.483-2.167-1.039-3.256-1.549c-0.179-0.084-0.534-0.155-0.593-0.074
			c-0.669,0.916-1.799,0.324-2.411,0.664c-1.062,0.588-1.681-0.34-2.546-0.246c-0.806,0.087-1.655-0.21-2.483-0.351
			c-0.825-0.141-1.71-0.162-2.445-0.502c-0.392-0.181-0.828-1.009-0.721-1.403c0.665-2.461-0.007-4.879-0.078-7.309
			c-0.119-4.084-0.148-8.178-0.47-12.248c-0.338-4.274-0.007-8.58-0.984-12.837c-0.578-2.521-0.374-5.212-0.709-7.802
			c-0.165-1.277-0.832-2.482-1.122-3.754c-0.171-0.749-0.308-1.695,0.004-2.321c0.46-0.923,0.851-1.669,0.467-2.75
			c-0.312-0.881-0.037-1.732,1.052-1.99c0.744-0.176,1.511-0.262,2.249-0.459c1.267-0.338,2.518-0.741,3.78-1.098
			c0.88-0.249,1.849-0.813,2.635-0.628c1.532,0.361,2.514-0.242,3.559-1.138c0.709-0.608,1.551-0.459,2.002,0.314
			c0.472,0.809,1.002,0.667,1.738,0.572c3.657-0.471,6.399-2.863,9.521-4.45c2.82-1.433,5.613-2.919,8.399-4.417
			c0.408-0.219,0.806-0.573,1.048-0.963c0.7-1.128,1.214-1.171,2.017-0.201c0.224,0.271,0.763,0.296,1.167,0.395
			c0.15,0.037,0.387-0.122,0.484-0.052C295.115,2.43,296.523,0.461,298.006,0.454z M259.732,55.188
			c0.105-0.014,0.21-0.028,0.315-0.042c0.023-2.14,0.061-4.279,0.043-6.419c-0.002-0.201-0.357-0.399-0.547-0.598
			c-0.121,0.248-0.355,0.501-0.343,0.742c0.073,1.458,0.195,2.915,0.316,4.37C259.569,53.892,259.659,54.54,259.732,55.188z"/>
		<path style="fill:#FFFFFF;" d="M104.527,13.508c-0.509,0.15-1.019,0.301-1.503,0.444c1.227,0.455,2.454,0.916,3.685,1.363
			c0.2,0.073,0.42,0.1,0.633,0.125c1.911,0.228,1.882,0.228,1.974,2.16c0.012,0.26,0.446,0.594,0.755,0.721
			c0.381,0.156,0.86,0.063,1.251,0.203c0.379,0.136,0.701,0.43,1.048,0.655c-0.272,0.229-0.583,0.425-0.811,0.692
			c-1.657,1.943-3.964,1.007-5.968,1.303c-3.064,0.453-6.166,0.642-9.249,0.967c-1.667,0.176-3.326,0.453-4.996,0.586
			c-1.07,0.085-1.547,0.307-1.542,1.61c0.007,1.734-0.468,3.467-0.705,5.204c-0.337,2.47-0.607,4.951-0.982,7.415
			c-0.279,1.833-0.231,1.982,1.641,2.098c1.031,0.063,2.084-0.075,3.097,0.079c1.081,0.165,2.135,0.537,3.183,0.875
			c0.78,0.252,1.529,0.842,2.295,0.848c2.039,0.017,2.088,1.676,2.683,2.906c0.312,0.645,0.595,1.304,0.921,2.023
			c0.044-0.01-0.131,0.038-0.309,0.067c-0.315,0.052-0.633,0.092-0.949,0.138c0.1,0.291,0.112,0.725,0.314,0.847
			c0.879,0.533,0.05,0.613-0.188,0.629c-1.243,0.084-2.491,0.154-3.736,0.128c-3.264-0.068-6.527-0.206-9.791-0.252
			c-0.256-0.004-0.737,0.477-0.746,0.746c-0.158,4.558-0.304,9.118-0.349,13.679c-0.017,1.726,1.146,2.591,3.206,2.251
			c3.308-0.546,6.608-0.203,9.911-0.205c0.717,0,1.715-0.684,1.94,0.742c0.011,0.068,0.789,0.014,1.21,0.019
			c0.838,0.01,1.591-0.381,2.499,0.393c0.612,0.522,0.979,0.562,0.416,1.292c-0.104,0.135-0.028,0.512,0.089,0.698
			c0.923,1.458,0.714,2.399-0.99,2.903c-1.738,0.514-3.566,0.895-5.37,0.967c-2.322,0.092-4.66-0.3-6.989-0.269
			c-3.439,0.046-6.875,0.345-10.315,0.407c-1.724,0.031-3.451,0.81-5.222-0.227c-0.661-0.387-1.775,0.093-2.646-0.048
			c-1.286-0.208-2.539-0.622-3.808-0.939c-0.277-0.069-0.567-0.089-0.846-0.153c-0.876-0.204-1.774-0.353-2.612-0.662
			c-0.329-0.121-0.736-0.604-0.746-0.933c-0.155-5.181-0.413-10.337,0.443-15.529c0.782-4.744,0.926-9.594,1.336-14.399
			c0.216-2.529,0.54-5.059,0.568-7.592c0.042-3.863-0.127-7.727-0.217-11.591c-0.006-0.254-0.038-0.55-0.172-0.75
			c-0.987-1.467-0.231-2.928,0.208-4.246c0.65-1.951,3.445-2.333,4.961-0.867c0.108,0.105,0.378,0.073,0.569,0.056
			c0.322-0.028,0.663-0.195,0.956-0.128c1.207,0.276,2.633-0.867,3.701,0.649c0.196,0.278,1.134,0.074,1.724,0.022
			c0.68-0.061,1.285-0.281,1.982,0.234c0.454,0.336,1.248,0.345,1.873,0.293c3.266-0.276,6.522-0.672,9.79-0.915
			c1.749-0.13,3.515-0.049,5.273-0.043c1.863,0.006,3.725,0.037,5.588,0.056C104.504,13.337,104.515,13.423,104.527,13.508z
			 M84.886,62.908c0.147,0,0.293,0.001,0.44,0.001c0.026-2.484,0.053-4.967,0.079-7.451c-0.147,0-0.293-0.001-0.44-0.001
			C84.939,57.941,84.913,60.424,84.886,62.908z"/>
		<path style="fill:#FFFFFF;" d="M247.352,51.954c0.566-2.767,1.131-5.535,1.697-8.302c0.117,0.027,0.234,0.054,0.351,0.082
			C248.963,46.533,249.08,49.455,247.352,51.954z"/>
	</g>
</g>
<g>
</g>
<g>
</g>
<g>
</g>
<g>
</g>
<g>
</g>
<g>
</g>
</svg>
