<?xml version="1.0" encoding="utf-8"?>
<!-- Generator: Adobe Illustrator 18.1.1, SVG Export Plug-In . SVG Version: 6.00 Build 0)  -->
<svg version="1.1" id="Layer_1" xmlns="http://www.w3.org/2000/svg" xmlns:xlink="http://www.w3.org/1999/xlink" x="0px" y="0px"
	 viewBox="0 0 309.3 367.7" enable-background="new 0 0 309.3 367.7" xml:space="preserve">
<g>
	<path fill="#EF4136" d="M76.7,331c-0.3,4.3,2.6,5.7,5.8,7c8.8,3.6,17.4,8.1,26.4,10.7c23.2,6.6,46.8,6.6,70.6,3.3
		c11.1-1.6,21.2-5.9,31.5-9.9c6.8-2.7,13.6-6.1,19.6-10.3c7-4.8,13.4-10.7,19.6-16.5c5.9-5.5,11.6-11.2,16.8-17.3
		c4.7-5.6,9.1-11.6,12.4-18c4.5-8.9,7.2-18.8,11.5-27.8c4.6-9.6,4.2-20.1,6.6-30c2.3-9.4,1-18.5,1.1-27.6c0.1-6.1-1.9-12.2-2.9-18.3
		c-0.7-4.2-1-8.6-2.1-12.7c-1.6-5.6-3.2-11.4-5.8-16.6c-3.4-6.8-8.5-12.8-11.4-19.8c-2.8-6.8-8.5-11-12.4-16.7
		c-3.7-5.3-9.5-9.2-14-14c-1.6-1.7-2.8-4.3-3.2-6.7c-0.5-3.1,2.3-3.1,4.5-3.5c5.6-1.1,9,0.5,12.2,5.3c4.2,6.2,8,12.5,14.2,17.6
		c5.6,4.7,11.3,10.6,13.4,18.8c1.9,7.7,5.8,14.8,8.4,22.3c3.2,9.2,6.6,18.3,8.6,27.8c1.5,6.8,0.9,14.1,1.1,21.2
		c0.1,2.9-0.1,5.8-0.4,8.6c-1.3,11.6-2,23.4-4.3,34.8c-1.6,8.1-5.5,15.7-8.4,23.5c-2.3,5.9-4.6,11.8-7.2,17.6
		c-3.7,8.3-8.7,15.8-14.9,22.5c-6.3,6.7-12.6,13.4-19.1,19.9c-7.1,7-14.2,14.1-21.8,20.6c-3,2.6-7.2,4-11.1,5.4
		c-9.3,3.3-18.7,6.6-28.2,9.4c-5.5,1.6-11.4,2.4-17.1,3.1c-9.3,1.2-18.7,2.5-28,2.9c-7.9,0.4-15.9,0.2-23.7-0.8
		c-6.1-0.8-12-3-17.9-5c-6.3-2.1-12.6-4.1-18.6-7c-5.1-2.4-9.7-6-14.6-9c-4-2.4-8.3-4.4-11.9-7.2c-6-4.8-11.5-10.3-17.4-15.3
		c-3.6-3.1-5.6-8-10.9-9.2c-1.2-0.3-2.5-1.5-3.1-2.6c-4-6.6-8.3-13-11.6-19.9c-4.4-9.1-7.3-18.8-11.9-27.7
		c-4.4-8.4-4.2-17.4-5.1-26.3c-1-9.8-2.3-19.7-1.7-29.4C0.8,195.7,3,183.3,5,171c0.8-5.1,2.6-10.2,4.5-15c2-5.2,4.5-10.2,7-15.2
		c2.5-5,4.9-10.1,8.1-14.8c4.1-6.1,8.6-11.9,13.3-17.6c5.6-6.7,11.2-13.5,17.5-19.5c4.9-4.7,10.6-8.6,16.4-12.2
		c7.6-4.6,15.4-9.3,23.7-12.4c6.6-2.5,12.5-6.9,20.2-7c4.9-0.1,9.7-3.2,14.8-4c7-1,14.1-1.3,21.1-1.4c2,0,4.5,1.5,5.8,3.1
		c0.6,0.7-0.5,3.8-1.7,4.9c-1.1,1-3.2,1.1-4.9,1.3c-9.2,0.9-18.8,0.6-27.7,2.9c-8.5,2.2-16.4,7.1-24.5,11c-5,2.4-9.7,5.4-14.9,7.2
		c-7.8,2.7-13.9,7.8-19.8,13.1c-5.7,5.3-11.7,10.5-16.5,16.5c-8,10-15.8,20.2-22.1,31.5c-4.2,7.7-6.9,15.9-8.4,24.6
		c-1.3,7.3-3.8,14.4-4.4,21.7c-1,13.8-4.4,27.5-2.2,41.5c1.4,8.9,2.3,17.9,4.4,26.6c1.4,5.7,4.2,11.1,6.7,16.5
		c2.2,4.9,4.7,9.7,7.4,14.3c2.4,4.1,4.9,8.2,8,11.8c5.9,6.8,11.9,13.6,18.5,19.6c4.6,4.3,10.2,7.5,15.6,10.9
		C72.2,331.7,74.4,331,76.7,331z"/>
	<path fill="#EF4136" d="M86,187c0,8.1,0.1,16.1,0,24.2c-0.1,7.6-0.4,15.2-0.7,22.9c-0.1,2.5-0.3,4.9-0.4,7.4
		c-0.5,8.9-0.8,17.9-1.7,26.8c-0.2,2.3-1.6,4.9-3.3,6.4c-2,1.9-4.3,0.9-5-1.9c-1.6-6.5-2.9-13.2-4.5-19.7c-1.1-4.4-2.4-8.7-3.6-13
		c-0.6-2.3-1.1-4.6-1.7-6.9c-2.7-10.6-5.4-21.2-8.1-31.8c-0.4-1.6-1-3.1-1.3-4.7c-2.5-11.9-5-23.7-7.5-35.6c-0.8-4-1.8-8.1-2.3-12.1
		c-0.1-1.3,1.4-2.8,2.2-4.2c1.4,1.1,3.6,1.9,3.9,3.2c1.5,6.2,2.2,12.6,3.6,18.8c0.8,3.5,2.4,6.8,3.3,10.2c1.2,4.9,3.2,9.9,2.9,14.8
		c-0.2,3.9,1.9,6.4,2.8,9.6c3.6,13.2,7.2,26.3,10.7,39.5c0.4,1.7,0.6,3.4,0.8,5.2c0.4,0,0.8,0,1.2,0c0.5-6.6,1.4-13.2,1.5-19.9
		c0.3-14.2,0-28.3,0.4-42.5c0.1-6.5,1.1-12.9,1.7-19.4c0.1-1.4-0.2-2.8-0.1-4.1c0.1-3.6,0.2-7.1,0.6-10.6c0.1-0.7,1.5-1.3,2.3-1.9
		c1.6,2.1,5.6,1.4,5.7,5.5c0.2,7.1,0.7,14.1,1.6,21.2c0.5,4.4,2,8.8,3,13.1c1.1,5,2.1,10,3.2,15.1c0.3,1.5,0.8,2.9,1.1,4.3
		c0.8,3.8,1.6,7.5,2.4,11.3c0.2,0.9,0.5,1.9,0.8,2.8c1.9,6.2,3.6,12.4,5.6,18.5c0.5,1.6,1.6,3.1,2.5,4.7c0-4.8-0.1-9.6,0-14.3
		c0.4-20.4,0.9-40.9,1.2-61.3c0.1-6.7-0.4-13.3-0.7-20c-0.1-2.3-0.6-4.7-0.2-7c0.3-1.6,1.7-4.2,2.6-4.3c2.3,0,5.2,0.7,5.2,4
		c0,11.5,0,23-0.1,34.5c-0.1,12.1-0.3,24.1-0.7,36.2c-0.2,5-1.1,9.9-1.2,14.9c-0.1,2.5,1.2,5.1,1.3,7.6c0.3,10.3,0.4,20.6,0.5,30.9
		c0,2.6,0,5.3-0.5,7.9c-0.2,1.1-1.9,2.7-2.9,2.6c-1.4,0-3.7-1-4-2.1c-3.1-9.9-5.9-19.8-8.8-29.8c-2.9-10-5.9-20.1-8.8-30.1
		c-0.5-1.6-0.7-3.2-1-4.9c-1.4-7.4-2.7-14.8-4.1-22.2C86.7,186.9,86.3,187,86,187z"/>
	<path fill="#EF4136" d="M141.1,246.7c4.5-17,6.6-33.8,6.1-51c0-1.3,1-2.6,1.5-3.9c1.3,0.7,2.5,1.5,3.8,1.9c5,1.8,4.6,6.1,5.2,10.1
		c1.9,11.4,4.1,22.8,6.3,34.2c1.3,7.1,2.8,14.2,5,21.7c0.6-1.4,1.5-2.9,1.6-4.3c1-10.4,1.7-20.8,2.9-31.1c0.6-4.9,2.4-9.6,3-14.5
		c1.1-9.1,1.7-18.3,2.7-27.4c0.4-3.8,1.4-7.6,2.4-11.3c0.3-1.1,1.4-2.5,2.5-2.9c0.7-0.3,2,0.9,2.9,1.6c1.3,1,2.4,2.3,3.7,3.5
		c-4.8,6.2-3.1,13.7-4.3,20.7c-1.2,6.9-1.7,13.9-2.7,20.9c-0.9,6.3-2.4,12.5-3.2,18.9c-1.5,12.5-2.5,25-4.1,37.4
		c-0.4,2.9-2.1,5.6-3.4,8.3c-0.3,0.5-1.9,1-2.4,0.6c-1.4-0.9-3.3-1.9-3.8-3.3c-2.2-7.4-4.3-14.8-6-22.3c-2-8.5-3.7-17-5.6-25.5
		c-0.2-0.9-0.8-1.8-1.1-2.7c-0.4,0.1-0.9,0.2-1.3,0.2c0,1.5,0.1,3,0,4.5c-0.7,7-1.6,14-2.3,20.9c-1,8.6-1.9,17.3-2.8,25.9
		c-0.1,0.6-0.1,1.1-0.2,1.7c-0.8,4.4-3.8,8.1-6.5,7.4c-4.4-1.1-3.4-5-3.7-8.2c-0.6-7.6-0.4-15.4-2.1-22.8
		c-3.2-14.1-4.3-28.4-5.7-42.7c-1.4-14.8-3-29.6-4.6-44.3c-0.3-2.6-0.4-5,3.1-5c3.2,0,4.3,2,4.3,4.9c0.1,6-0.6,12.2,0.8,17.9
		c3,11.9,1.9,24.2,3.9,36.1C138.2,230.8,139.7,238.7,141.1,246.7z"/>
	<path fill="#EF4136" d="M225,201.5c-1.6,5-4.1,9.6-4.1,14.2c0,5.9-1.9,11.2-2.9,16.8c-1.3,6.8-2.9,13.6-4.9,20.2
		c-0.8,2.5-3,4.7-4.4,6.8c-3.8-0.9-5.3-2.4-5.5-5.9c-0.5-13.1-1.3-26.1-2.2-39.2c-0.5-8.5-1.4-17-1.8-25.5
		c-0.4-9.9-0.5-19.8-0.7-29.8c-0.1-2.5,1.5-4.6,3.7-3.8c1.9,0.7,4.1,3.1,4.3,5c0.6,4.9-0.1,10,0.1,15c0.4,15.2,0.8,30.3,1.3,45.5
		c0.1,2.7,0.7,5.5,2,8.4c3.9-17.3,7.9-34.6,11.9-52.1c6.5,1.8,10.1,4.9,10.3,11.6c0.2,7.2,1.1,14.4,2.2,21.5
		c1.1,6.5,2.9,12.8,4.4,19.3c0.5,2.3,0.8,4.6,1.1,6.9c0.5,0,1,0,1.6,0c0.4-2.3,0.7-4.7,1.2-7c1.7-8.7,3.8-17.3,5.1-26
		c1.4-9.6,2.1-19.3,3.3-29c0.3-2.4,1.6-4.7,2-7.1c0.4-3.3,0.2-6.7,0.5-10c0.3-4.1,2.9-5.3,6.3-3c4.6,3.1,5.2,7,2.9,14.3
		c-1.2,3.9-1.8,8-2.6,12c-1.6,8.3-3.2,16.6-4.5,24.9c-1,6.6-1.4,13.2-2.6,19.8c-1.7,9.9-3.8,19.8-6,29.7c-0.4,2-2,3.9-3.4,5.4
		c-1.7,1.8-5.3,0.4-6.4-2.4c-1.2-3.2-2.2-6.6-2.9-10c-0.9-4.2-1.4-8.4-2.3-12.6c-0.6-2.6-1.9-5.1-2.3-7.8
		c-1.1-6.4-1.8-12.9-2.8-19.4C226.5,206.1,225.7,203.9,225,201.5z"/>
	<path fill="#EF4136" d="M208.8,19.7c-6,3-12.1,5.9-18.1,8.9c-4.3,2.1-8.4,4.6-12.8,6.4c-1.5,0.6-3.7-0.5-5.5-0.9
		c0.7-1.7,0.9-4.2,2.2-5.1c4.8-3.3,10.1-6,15-9.1c8.4-5.2,18.4-8.1,25-16.3c1.1-1.3,2.7-2.5,4.3-3.1c3.8-1.5,7.5,0.8,8.3,4.9
		c1.1,5.7,1.7,11.6,3,17.2c2.5,10.9,6.1,21.3,13.4,30.1c0.8,0.9,0.2,2.9-0.1,4.6c-0.2,1.7,0,4.5-0.7,4.8c-2.4,0.9-4.4,0.7-5.7-2.7
		c-1.1-2.8-4.1-4.9-6.2-7.4c-0.7-0.8-1.2-1.7-1.7-2.6c-3.2-6.5-5.1-13.3-6.1-20.4c-0.1-0.5-0.3-1-0.7-2c-0.9,1.1-1.8,1.8-2.2,2.7
		c-2.7,6.5-5.4,13-7.8,19.5c-3.8,10.4-7.3,21-11.3,31.4c-4.6,12.1-9,24.3-14.4,36.1c-4.2,9.1-7.2,18.4-9.4,28.1
		c-0.6,2.9-2.6,5.2-5.8,4.6c-3.4-0.7-4.5-3.1-3.4-6.6c2.5-7.6,4.8-15.3,7.1-22.9c1.3-4.4,2.1-8.9,3.3-13.3c1.4-5,2.6-10.1,4.5-14.9
		c1.8-4.7,4.2-9.2,6.3-13.7c0.7-1.5,1.4-3,2-4.5c3.1-7.7,6.5-15.4,9.3-23.2c3.5-9.6,6.5-19.3,9.7-29
		C209.8,20.6,209.3,20.1,208.8,19.7z"/>
	<path fill="#EF4136" d="M266.4,251.6c-3.3,0-5.3-2.5-5.6-6.2c-0.2-2.9,2.1-4.4,3.6-3.9c2.5,1,5.6,3,6.4,5.3
		C271.9,249.7,269,251.3,266.4,251.6z"/>
</g>
</svg>
