<?xml version="1.0" encoding="utf-8"?>
<!-- Generator: Adobe Illustrator 18.1.1, SVG Export Plug-In . SVG Version: 6.00 Build 0)  -->
<svg version="1.1" id="Layer_1" xmlns="http://www.w3.org/2000/svg" xmlns:xlink="http://www.w3.org/1999/xlink" x="0px" y="0px"
	 viewBox="0 0 28 28" enable-background="new 0 0 28 28" xml:space="preserve">
<path fill="#fff" d="M22.6,0H5.4C2.4,0,0,2.4,0,5.4v5.7v11.4c0,3,2.4,5.4,5.4,5.4h17.2c3,0,5.4-2.4,5.4-5.4V11.1V5.4
	C28,2.4,25.5,0,22.6,0z M24.1,3.2l0.6,0v0.6V8L20,8l0-4.7L24.1,3.2z M10,11.1c0.9-1.2,2.3-2.1,4-2.1s3.1,0.8,4,2.1
	c0.6,0.8,0.9,1.8,0.9,2.9c0,2.7-2.2,4.9-4.9,4.9c-2.7,0-4.9-2.2-4.9-4.9C9.1,12.9,9.4,11.9,10,11.1z M25.2,22.6
	c0,1.5-1.2,2.7-2.7,2.7H5.4c-1.5,0-2.7-1.2-2.7-2.7V11.1h4.2C6.5,12,6.3,13,6.3,14c0,4.2,3.4,7.6,7.6,7.6c4.2,0,7.6-3.4,7.6-7.6
	c0-1-0.2-2-0.6-2.9h4.2V22.6z"/>
</svg>
