<?xml version="1.0" encoding="utf-8"?>
<!-- Generator: Adobe Illustrator 18.1.1, SVG Export Plug-In . SVG Version: 6.00 Build 0)  -->
<svg version="1.1" id="Layer_1" xmlns="http://www.w3.org/2000/svg" xmlns:xlink="http://www.w3.org/1999/xlink" x="0px" y="0px"
	 viewBox="0 0 27.8 22.6" enable-background="new 0 0 27.8 22.6" xml:space="preserve">
<path fill="#fff" d="M27.8,2.7c-1,0.5-2.1,0.8-3.3,0.9c1.2-0.7,2.1-1.8,2.5-3.2c-1.1,0.7-2.3,1.1-3.6,1.4c-1-1.1-2.5-1.8-4.2-1.8
	c-3.1,0-5.7,2.6-5.7,5.7c0,0.4,0.1,0.9,0.1,1.3C8.9,6.8,4.7,4.5,1.9,1C1.4,1.9,1.2,2.9,1.2,3.9c0,2,1,3.7,2.5,4.7
	c-0.9,0-1.8-0.3-2.6-0.7c0,0,0,0,0,0.1c0,2.8,2,5.1,4.6,5.6c-0.5,0.1-1,0.2-1.5,0.2c-0.4,0-0.7,0-1.1-0.1c0.7,2.3,2.8,3.9,5.3,4
	c-2,1.5-4.4,2.4-7.1,2.4c-0.5,0-0.9,0-1.4-0.1c2.5,1.6,5.5,2.6,8.7,2.6C19.2,22.6,25,13.9,25,6.4c0-0.2,0-0.5,0-0.7
	C26.1,4.8,27,3.8,27.8,2.7z"/>
</svg>
